<?xml version="1.0" encoding="UTF-8"?><svg id="Layer_2" xmlns="http://www.w3.org/2000/svg" xmlns:xlink="http://www.w3.org/1999/xlink" viewBox="0 0 1424 700"><defs><style>.cls-1{clip-path:url(#clippath);}.cls-2{fill:#fff;}.cls-3{fill:#f37778;}.cls-4{fill:none;stroke:#2d2d2c;stroke-linecap:round;stroke-linejoin:round;stroke-width:1px;}</style><clipPath id="clippath"><rect class="cls-2" x="-.61" y="2.09" width="1423.86" height="697.19"/></clipPath></defs><g id="Layer_1"><g><rect class="cls-2" x="-.61" y="2.09" width="1423.86" height="697.19"/><g class="cls-1"><g><path class="cls-4" d="M1140.56,635.09c.69-.83,2.02-.95,2.93-.36s1.36,1.74,1.25,2.82c-.2,1.92-2.15,3.39-4.07,3.29-1.91-.1-3.61-1.55-4.29-3.36s-.44-3.89,.38-5.64c.61-1.31,1.5-2.45,2.34-3.63,4.55-6.37,7.38-13.78,8.67-21.5,1.12-6.68-3.16-13.12-8.32-17.09-5.29-4.07-11.76-6.2-18.08-8.26-8.15-2.65-16.29-5.3-24.44-7.95-5.24-1.71-10.81-3.63-14.2-8.02-3.68-4.76-3.9-11.64-1.6-17.22s6.78-9.99,11.73-13.38c8.09-5.53,17.53-8.65,26.87-11.55,29.13-9.03,58.73-16.53,88.64-22.45,7.43-1.47,16.25-4.05,18.28-11.42,1.2-4.35,.2-9.05-2.74-12.44s-7.31-6.92-11.18-9.17c-2.65-1.54-5.8-1.95-8.85-2.07-4.22-.17-8.35,3.55-6.97,8.01,.34,1.1,.86,1.72,1.88,2.24,.55,.28,1.73,.57,2.44,.05,.35-.26,.87-.92,.89-1.36s-.43-1.17-.79-1.44"/><path class="cls-4" d="M1284.99,698.81c5.16-5.09,14.47-18.27,18.01-24.62,6.02-10.79,11.16-24.32,5.11-35.09-1.55-2.76-4.18-5.3-7.31-5.21-2.9,.09-5.46,2.81-5.41,5.74,.06,2.93,2.72,5.55,5.62,5.53"/><path class="cls-4" d="M1174.09,532.33c.6,1.64,4.55,2.76,5.67-.37,.59-1.64-.34-3.56-1.87-4.37-1.53-.82-3.91-1.27-5.62-1.01-3.71,.58-5.98,2.93-7.4,6.44-2.17,5.35,1.42,10.83,5.94,14.39,11.74,9.25,24.99,16.25,38.35,22.79,13.92,6.81,27.76,13.7,41.49,20.91,14.26,7.51,28.76,15.19,41.54,25.18,1.84,1.44,3.68,2.96,4.91,4.96,1.22,2,1.74,4.59,.78,6.73-1.07,2.38-3.73,3.69-6.31,3.87-1.42,.1-2.92-.11-4.06-.96s-1.81-2.45-1.28-3.78,2.46-1.96,3.49-.98"/><path class="cls-4" d="M1187.07,528.09c.57-.81,1.86-.92,2.63-.29s.98,1.81,.57,2.72c-.41,.91-1.34,1.52-2.32,1.65-.98,.13-1.99-.17-2.82-.7-.26-.17-.51-.36-.7-.61-.74-.95-1.1-3.06-.52-4.11,1.36-2.44,6.51-4.52,9.2-5.14,7.33-1.68,12.57-2.68,19.81-4.8,3.67-1.08,7.35-2.15,11.05-3.12,13.41-3.49,27.37-5.57,39.79-11.77,1.69-.85,3.39-1.8,4.64-3.23,1.25-1.44,1.98-3.46,1.44-5.29-.3-1.02-.95-1.89-1.64-2.69-9.03-10.48-24.91-11.38-36.09-19.47-1.2-.87-2.41-1.92-2.75-3.37-.55-2.31,1.59-4.65,3.93-4.85,.93-.08,1.93,.13,2.63,.76,.69,.64,.99,1.76,.51,2.57-.76,.26-1.63,.16-2.3-.27"/><path class="cls-4" d="M1192.02,469.9c-20.59-1.86-22.89,1.86-32.2,5.46-8.88,3.43-14.76,6.04-24.42,6.18-12.72,.19-24.75-6.58-37.43-7.71-18.91-1.69-37.34,9.23-56.27,7.76-7.89-.62-15.82-3.38-23.57-1.63-6.27,1.42-13.82,4.21-20.13,5.32-13.12,2.3-23.02-11.82-36.14-9.6-29.12,4.94-34.55-1.18-51.36-.27-2.65-2.16-7.03-.99-7.67-5.05-.6-3.78,3.9-4.24,7.03-5.98,8.19-4.56,12.71-10.3,21.85-10.04,2.29,.07,12.38,1.78,14.15,.27,10.84-9.27,12.35-5.79,11.83-12.86-.55-7.42,1.78-13.52,6.7-18.56,3.77-3.86,10.61-5.65,10.6-11.36,0-3.17-2.36-5.59-4.13-8.07-2.87-4.02,5.81-20.46,7.72-25.13,4.21-10.27,10.24,2.91,14.18-7.49,1.94-5.12-.21-11.2,1.34-16.48,3.59-12.26,22.88-11.03,26.15-23.4,.8-3.01,.39-6.29,1.15-9.32,1.14-4.58,4.68-7.84,6.96-11.85,5.83-10.26,2.87-24.14,7.37-35.19,6.11-14.99,24.06-20.75,29.63-36,1.2-3.29,1.8-6.99,3.93-9.64,6.68-8.33,22.58-.45,27.32-10.29,1.72-3.58,.98-8.22,2.95-11.64,2.75-4.79,9.6-5.33,14.71-5.31,7.42,.03,14.32-.76,22.27,.81-10.08,19.66-3.33,20.45,2.67,23.04,1.56,.67,3.31,.61,4.84,1.35,7.03,3.41,1.9,17.13,7.44,23.03,3.35,3.57,9.1,2.51,12.78,5.66,5.28,4.53,3.06,14.13,6.22,20.66,4.27,8.82,15.93,8.5,22.89,14.85,6.51,5.94,7.73,16.53,12.93,23.9,3.41,4.84,8.61,8.45,10.19,14.35,.63,2.37,.61,4.93,1.41,7.24,2.73,7.92,12.5,8.39,20.06,7.32,7.56-1.07,17.09,16.69,20.31,24.38,1.37,3.27,1.24,6.91,2.43,10.23,1.3,3.61,2.76,7.21,4.93,10.39,2.74,4.02,6.79,7.37,11.56,8.15,2.8,.46,5.74,0,8.27-1.31,1.55-.8,2.97-1.93,3.82-3.46,.86-1.52,1.08-3.47,.31-5.04-.76-1.55-2.5-2.58-4.21-2.43s-3.27,1.47-3.67,3.16c-.13,.56-.14,1.16,.06,1.7,.43,1.15,1.87,1.78,2.99,1.31s1.7-1.94,1.21-3.06"/><path class="cls-4" d="M1297.8,398.23c.11-.22-.02-.49-.21-.64-.44-.34-1.11-.21-1.49,.19s-.49,1-.43,1.55c.04,.31,.13,.62,.3,.88,.45,.65,1.36,.84,2.13,.64,.91-.23,1.69-.92,2.11-1.77s.51-1.85,.32-2.79c-.19-.95-.68-1.88-1.48-2.42-.48-.32-1.05-.49-1.62-.57-1.96-.27-4.27,.38-5.09,2.3s-.68,3.93-.45,5.88c.28,2.42,1.34,4.73,2.85,6.61,2.31,2.89,5.55,4.86,8.88,6.43,5.02,2.37,10.38,3.94,15.84,4.87,2.5,.42,5.62,1.26,6.01,3.79,.23,1.5-.68,2.91-.99,4.39-.86,4.14,2.98,7.73,6.76,9.57,4.48,2.18,9.46,3.33,13.61,6.08s7.42,7.91,5.87,12.68c-1.49,4.59-6.6,6.78-11.26,7.88-8.47,1.99-17.34,2.21-25.89,.64-11.49-2.12-22.44-7.42-34.12-7.65-1.63-.03-2.75-.06-4.31,.45-1.63,.53-3.61,1.6-5.1,2.45-7.62,4.35-23.73,4.31-33.37-.06"/><path class="cls-4" d="M1209.83,318.99c7.71-2.44,22.81,15.12,42.04,3.21,3.24-2.01,.46-7.75,1.74-11.36,4.71-13.33,24.02-12.09,35.4-20.35,9.69-7.04,13.07-20.86,23.26-27.13,1.43-.88,3.09-1.6,4.74-1.3,1.9,.36,3.27,1.96,4.67,3.3,6.34,6.1,16.18,8.04,24.44,5.12,8.26-2.92,14.68-10.44,16.66-19.05,1.07-4.66,.98-9.71,3.23-13.92,2.92-5.45,8.98-8.17,14.25-11.36,5.26-3.19,6.85-6.69,11.54-5.97,8.34,1.81,2.91,8.7,10.34,12.91,3.19,1.81,7.25,.72,10.75,1.8,5.9,1.82,9.7,9.93,11.21,15.97"/><path class="cls-4" d="M1053.52,254.31c-2.62,.66-20.43,24.25-23.13,24.19-.91-.02-4.9,2.6-5.73,2.22-.62-.28-1.15-.71-1.68-1.15-4.28-3.51-6.62,1.79-12.73-4.38-6.29-6.36-5.69-.73-14.42-4.12-5.2-2.02-8.6-5.27-13.06-8.52-5.4-3.93-10.83-1.32-17-4.03-2.33-1.02-5.09-1.33-7.56-.67-26.73,7.22-20.14,19.11-24.77,31.84-1.73,4.76,3.46,10.01,1.98,14.86-2.31,7.58-14.7,7.82-18.45,15.07-10.66,20.57-21.26,14.31-26.81,26.81-6.43,14.47-4.77,24.9-14.47,37.6-.93,1.22-10.24,10.5-10.54,11.98-1.34,6.51,.72,8.52,1.25,15.14,.61,7.73-15.68,12.17-13.9,19.74,.83,3.55,8.07,5.89,11.78,6.71,14.44,3.19,29.22-6.07,43.89-4.08,4.9,.66,25.19,3.09,30.1,3.66,4.91,.57,11.79,2.1,15.95-2.73,3.55-7.79-1.71-10.76-5.02-10.63-5.14,.74-5.35,5.24-4.04,7.29"/><path class="cls-4" d="M1123.97,194.65c1-.43,2.19,.47,2.51,1.9,.33,1.44-.26,3.17-1.25,3.68-1,.52-2.15-.2-2.85-1.35-.7-1.15-1.04-2.67-1.31-4.15-1.88-10.08-.02-40.79,.63-51.18,.13-2.1-.08-4.93-1.52-5.27-.75-.18-1.49,.54-1.89,1.48s-.51,2.06-.62,3.15c-.94,9.8-2.93,39.8-2.68,49.69,.05,1.88,.11,3.85-.47,5.54s-2.02,2.92-3.2,2.13c-.38-.26-.7-.69-.97-1.15-.64-1.08-1.14-2.55-.83-3.91s1.74-2.05,2.31-.89"/><path class="cls-4" d="M1130.79,147.2c1.17,.38,.9,1.99-.28,2.41-1.18,.42-2.59-.14-3.28-.99s-.83-1.9-.96-2.92c-.16-1.29-.09-2.92,1.39-3.49,.54-.21,1.17-.21,1.76-.19,10.01,.36,18.67,5.63,28.6,6.55,3.33,.31,6.75,.13,10.03,.67s6.56,2.04,7.64,4.56c-6.53,3.07-13.18,5.98-19.93,8.73-5.74,2.34-11.72,4.59-18.09,5-2.91,.19-5.95-.05-8.4-1.26-2.45-1.21-4.13-3.55-3.54-5.84,.24-.93,.9-1.84,1.96-2.28s2.54-.23,3.1,.58c.56,.82-.26,2.09-1.43,2.05"/><path class="cls-4" d="M1191.52,462.92c-.71-.15-1.09-1.06-.81-1.73s1.05-1.05,1.77-.99,1.37,.49,1.85,1.04c.46,.53,.79,1.19,.84,1.89,.13,1.95-2.04,3.41-3.97,3.28-1.34-.09-2.65-.75-3.43-1.85-.77-1.1-.94-2.65-.31-3.84,.5-.95,1.44-1.58,2.1-2.43,4.38-5.62,.34-9.47-.34-10.08-2.11-1.88-4.84-2.74-7.63-3.11-5.1-.67-10.56-.44-15.28-2.82-5.44-2.74-8.79-8.74-9.47-14.84s1.04-12.26,3.68-17.78c2.7-5.64,6.39-10.8,10.85-15.16,8.2-8.02,18.7-13.13,28.05-19.73s20.63-10.25,21.61-32.78"/><path class="cls-4" d="M1225.78,454.19c.77-.17,1.41-.84,1.56-1.62,.15-.78-.21-1.64-.86-2.09-1.02-.7-2.45-.32-3.46,.4-.78,.55-1.47,1.33-1.65,2.28-.52,2.59,2.87,5.04,5.08,5.25,2.36,.22,4.67-1.1,6.2-3,4.42-5.49,1.5-11.6-1.93-14.01-5.26-3.71-8.46-4.99-12.35-6.53-3.92-1.54-7.85-3.09-11.77-4.63-8.92-3.51-18.93-8.17-21.61-17.46-2.14-7.41,1.4-15.47,6.68-21.05,5.27-5.59,12.11-9.34,18.43-13.68,6.32-4.34,12.72-9.22,15.34-16.47,2.49-6.88,.39-11.71-1.63-18.75"/><path class="cls-4" d="M927.44,626.44c.16,.16,.45,.13,.62-.02s.24-.39,.25-.62c.01-.59-.51-1.19-1.09-1.11-.37,.05-.66,.35-.89,.65-.45,.63-.72,1.42-.55,2.18s.9,1.39,1.66,1.29c.25-.03,.48-.14,.7-.24,.9-.41,1.8-.84,2.7-1.27,2.7-1.31,4.5-3.99,7.04-5.62,2.54-1.64,5.32-2.86,8.09-4.05,1.73-.75,3.81-1.47,5.37-.42,.55,.37,.98,.94,1.6,1.2,1.29,.54,2.65-.51,3.67-1.49"/><path class="cls-4" d="M949.56,637.73c4.04-4.36,5.1-10.64,6.21-16.5,1.11-5.86,2.71-12.16,7.35-15.86,3.96-3.16,9.29-3.75,14.31-4.22,2.21-.21,4.43-.42,6.64-.62,3.99-.37,8.74-.42,11.11,2.84,.31,.43,.57,.9,.98,1.23,.99,.78,2.4,.43,3.62,.13,9.68-2.34,20.61,2.24,25.8,10.82"/><path class="cls-4" d="M1010.27,639.31c1.56-3.71,3.15-7.52,3.32-11.55,.04-.84,.02-1.73,.43-2.47,.93-1.68,3.73-2.01,3.95-3.92,.07-.6-.16-1.2-.07-1.79,.2-1.32,1.75-1.86,3.03-2.15,2.58-.57,5.24-1.14,7.84-.7,5.16,.86,8.87,5.35,11.83,9.7,.83,1.23,1.64,2.47,2.26,3.82,.97,2.13,1.6,4.69,3.6,5.88,.8,.47,1.74,.67,2.51,1.18s1.35,1.56,.9,2.38"/><path class="cls-4" d="M1018.59,606.52c2.22-8.85,8.57-16.54,16.78-20.33,.86,2.01,1.21,4.23,1,6.41,1.08-1.6,2.81-3.42,4.57-2.65,.97,.42,1.47,1.49,2.17,2.29,1.19,1.36,3.1,2.04,3.96,3.63,.67,1.24,.55,2.79,1.17,4.06,.42,.87,1.15,1.54,1.82,2.23,4.11,4.22,6.58,9.69,9.35,14.83,2.48,4.59,6.03,11.18,11.31,12.92,.28,.09,.56,.17,.85,.23,1.09,.23,2.35,.16,3.12-.65,.49-.53,.68-1.33,.48-2.03s-.79-1.26-1.49-1.43c-.43-.11-.88-.07-1.32-.03-.27,.03-.54,.05-.78,.18s-.43,.37-.41,.64c.02,.29,.27,.52,.54,.6s.56,.05,.85,.02"/><path class="cls-4" d="M1007.49,633.72c-.61,2.69-1.43,5.34-2.45,7.9"/><path class="cls-4" d="M1005.9,632.68c-1.06,3.85-2.5,7.6-4.28,11.18"/><path class="cls-4" d="M1002.63,636.24c-.42,2.44-1.31,4.79-2.59,6.9"/><path class="cls-4" d="M1001.08,635.56c-.58,1.75-1.31,3.45-2.17,5.07"/><path class="cls-4" d="M1008.42,631.84c-.31,1.58-.63,3.16-.94,4.74"/><path class="cls-4" d="M1009.95,631.34c-.61,1.97-1.21,3.95-1.82,5.92"/><path class="cls-4" d="M949.05,632.68c-1.12,3.29-3.16,6.25-5.81,8.47"/><path class="cls-4" d="M947.95,632.02c-.86,3.02-2.72,5.73-5.22,7.59"/><path class="cls-4" d="M943.62,634.56c-.44,1.56-1.01,3.09-1.7,4.56"/><path class="cls-4" d="M925.68,631.87c1.89-.91,3.78-1.82,5.67-2.74"/><path class="cls-4" d="M927.04,633.09c2.55-1.49,5.1-2.98,7.65-4.47"/><path class="cls-4" d="M932.36,632.19c.87-1.1,1.95-2.03,3.17-2.72"/><path class="cls-4" d="M934.89,632.23c.9-.47,1.6-1.3,1.92-2.27"/><path class="cls-4" d="M1034.75,632.84c1.7,1.26,2.87,3.23,3.15,5.34"/><path class="cls-4" d="M1038.21,632.45c.59,1.39,.95,2.89,1.04,4.41"/><path class="cls-4" d="M1039.74,632.67c.22,1.17,.43,2.35,.65,3.52"/><path class="cls-4" d="M1042.43,632.89c.1,1.25,.21,2.5,.31,3.75"/><path class="cls-4" d="M1066.01,629.39c.66,.69,1,1.69,.91,2.64-.13,.11-.35,.08-.46-.05"/><path class="cls-4" d="M1063.09,629.45c.41,.6,.83,1.21,1.24,1.81"/><path class="cls-4" d="M1063.6,630.2c0,1.26,0,2.53,0,3.79"/><path class="cls-4" d="M1064.85,630.56c.33,.92,.45,1.92,.36,2.89"/><path class="cls-4" d="M1067.19,630.16c.77,.46,1.48,1.03,2.11,1.68"/><path class="cls-4" d="M1069.48,631.48c.84,.72,1.68,1.43,2.52,2.15"/><path class="cls-4" d="M1047.54,633.24c.36,.36,.71,.72,1.07,1.08"/><path class="cls-4" d="M1048.77,632.54c.33,.4,.53,.92,.53,1.45"/><path class="cls-4" d="M1049.99,632.74c.36,.78,.71,1.57,1.07,2.35"/><path class="cls-4" d="M1051.82,633.26c.16,.85,.32,1.69,.48,2.54"/><path class="cls-4" d="M842.19,425.49c1.6,1.3,2.91,2.97,3.77,4.85"/><path class="cls-4" d="M844.39,421.35c.75,2.78,1.49,5.56,2.24,8.34"/><path class="cls-4" d="M846.59,415.58c.82,4.67,1.37,9.38,1.63,14.11"/><path class="cls-4" d="M849.81,421.67c-.17,2.89-.11,5.79,.19,8.67"/><path class="cls-4" d="M852.33,424.24c.2,3.11-.02,6.25-.64,9.31"/><path class="cls-4" d="M855.5,426.48c-.06,2.43-.6,4.84-1.58,7.06"/><path class="cls-4" d="M846.28,431.31c-3.7-2.21-6.95-5.19-9.48-8.7"/><path class="cls-4" d="M839.8,433.04c-1.6-1.6-2.44-3.95-2.22-6.22"/><path class="cls-4" d="M854.95,433.79c.1,.36,.64,.32,.93,.09s.55-.57,.92-.58c.5,0,1.02,.6,1.39,.26"/><path class="cls-4" d="M902.35,438.5c1.7,.4,3.49,.44,5.21,.11"/><path class="cls-4" d="M1073.25,633.08h1.98"/><path class="cls-4" d="M998.22,642.22c-1.17-.67-2.6-.86-3.9-.52"/><path class="cls-4" d="M946.48,640.58c1.59,.23,3.23,.13,4.78-.32"/><path class="cls-4" d="M1077.47,630.8c1.7-1.3,3.81-2.04,5.95-2.08"/><path class="cls-4" d="M1337.25,574.89c-1.4-3.13-2.81-6.36-2.96-9.76-.03-.71-.02-1.47-.38-2.09-.83-1.42-3.32-1.7-3.53-3.31-.06-.5,.14-1.01,.06-1.52-.18-1.11-1.56-1.57-2.71-1.81-2.3-.48-4.67-.96-7-.6-4.6,.72-7.92,4.52-10.55,8.2-.74,1.04-1.47,2.09-2.02,3.23-.87,1.8-1.43,3.96-3.21,4.97-.71,.4-1.55,.57-2.24,1s-1.2,1.32-.8,2.01"/><path class="cls-4" d="M1370.12,572.51c.37-2.19-1.04-4.34-2.84-5.73-1.8-1.4-3.98-2.26-5.95-3.42-.58-.34-1.17-.74-1.4-1.35-.16-.41-.14-.87-.17-1.31-.26-3.24-4.38-5.57-7.47-4.24-.52,.23-1.01,.53-1.55,.71-2.77,.88-5.21-1.87-6.71-4.27-2.07,2.65-6.23,3.55-9.3,2.01-5.42-2.72-4.89-9.56-7.61-14.1-.69-1.16-10.7-11.68-12.27-10.8-1.67,.93-1.18,.36-2.33,1.76-1.51,.51-1.71,1.35-3.28,1.99-.87,.36-2.08,1.79-2.7,2.46-1.07,1.15-1.36,.62-2.13,1.96-.6,1.05-.49,2.35-1.04,3.43-.37,.73-1.02,1.3-1.62,1.88-3.67,3.57-5.87,8.19-8.34,12.53-2.21,3.87-5.38,9.45-10.09,10.91-.25,.08-.5,.14-.76,.19-.97,.19-2.1,.14-2.78-.55-.44-.45-.61-1.12-.43-1.71s.71-1.07,1.33-1.21c.38-.09,.79-.06,1.18-.02,.24,.02,.48,.05,.69,.15s.38,.31,.37,.54c-.02,.24-.24,.44-.48,.51s-.5,.04-.76,.02"/><path class="cls-4" d="M1339.72,570.16c.55,2.28,1.28,4.51,2.19,6.68"/><path class="cls-4" d="M1341.14,569.29c.95,3.26,2.23,6.42,3.82,9.44"/><path class="cls-4" d="M1344.06,572.3c.38,2.06,1.17,4.05,2.31,5.83"/><path class="cls-4" d="M1345.44,571.72c.52,1.48,1.17,2.91,1.94,4.28"/><path class="cls-4" d="M1338.89,568.58c.28,1.34,.56,2.67,.84,4.01"/><path class="cls-4" d="M1337.53,568.15c.54,1.67,1.08,3.33,1.62,5"/><path class="cls-4" d="M1315.4,569.42c-1.52,1.06-2.56,2.73-2.81,4.52"/><path class="cls-4" d="M1312.32,569.09c-.53,1.18-.85,2.44-.93,3.72"/><path class="cls-4" d="M1310.95,569.28l-.58,2.97"/><path class="cls-4" d="M1308.55,569.46c-.09,1.06-.19,2.11-.28,3.17"/><path class="cls-4" d="M1287.08,566.5c-.56,.59-.85,1.42-.77,2.23,.11,.09,.29,.07,.38-.04"/><path class="cls-4" d="M1290.12,566.56c-.37,.51-.74,1.02-1.11,1.53"/><path class="cls-4" d="M1289.67,567.19v3.2"/><path class="cls-4" d="M1288.06,567.5c-.28,.78-.38,1.62-.3,2.44"/><path class="cls-4" d="M1286.08,567.16c-.65,.39-1.25,.87-1.78,1.42"/><path class="cls-4" d="M1284.15,568.27c-.71,.6-1.42,1.21-2.13,1.81"/><path class="cls-4" d="M1303.99,569.76c-.32,.31-.64,.61-.96,.92"/><path class="cls-4" d="M1302.9,569.17c-.3,.34-.47,.78-.48,1.22"/><path class="cls-4" d="M1301.81,569.33c-.32,.66-.64,1.32-.96,1.98"/><path class="cls-4" d="M1300.18,569.78l-.43,2.14"/><path class="cls-4" d="M1280.97,569.63h-1.67"/><path class="cls-4" d="M1347.99,577.35c1.04-.57,2.32-.73,3.48-.44"/><path class="cls-4" d="M1277.4,567.69c-1.44-1.1-3.22-1.72-5.02-1.75"/><path class="cls-4" d="M1357.58,430.35c22.17,.81,44.37,.56,66.51-.75"/><path class="cls-4" d="M1378.16,435.95c12.04,.49,24.09,.99,36.13,1.48"/><path class="cls-4" d="M1403.46,442.66c6.29,0,12.58,.37,18.82,1.12"/><path class="cls-4" d="M1329.49,424.41c5.25,.61,10.5,1.21,15.75,1.82"/><path class="cls-4" d="M1337.39,427.93c2.61,.48,5.23,.95,7.84,1.43"/><path class="cls-4" d="M1144.46,228.35c-2.09,7.93-4.22,11.02-7.01,16.04-12.27,22.1-29.36,33.94-41.68,39.04-21.39,8.85-33.78,8.72-41.86,8.98-3.24,.1-9.22,.24-13.46-2.43-2.22-1.4-2.95-2.09-3.19-4.44-.25-2.36,1.79-4.95,3.56-5.2,3.26-.46,4.36,3.46,3.08,5.11"/><path class="cls-4" d="M1029.55,321.53c1.93,.1,2.5,2.79,1.04,4.47-1.46,1.68-4.72,1.24-5.55-1.08-.83-2.32-.17-4.34,1.26-6.06,1.43-1.72,4.41-2.61,6.34-2.62,1.93,0,9.83,.78,14.56,.34,20.88-1.95,28.29-4.72,42.45-10.28,9.16-3.59,22.4-14.1,26.1-17.73,9.14-8.95,28.41-27.55,29.92-59.64"/><path class="cls-4" d="M1361.05,570.38c1.13,1.03,2,2.32,2.53,3.72"/><path class="cls-4" d="M1366.82,574.28c.18-1.24-.05-2.53-.65-3.65"/><path class="cls-4" d="M1368.62,570.25c.17,1.13,.2,2.28,.09,3.41-.03,.35,.24-.56,.24-.21"/><path class="cls-4" d="M1367.92,571.1v2.88"/><path class="cls-4" d="M1365.54,571.99c.4,.71,.63,1.51,.67,2.32"/><path class="cls-4" d="M1364.02,572.62c.56,.7,.92,1.55,1.03,2.43"/><path class="cls-4" d="M1369.71,565.68c.59-3.24,1.73-6.38,3.37-9.26"/><path class="cls-4" d="M1370.72,565.07c-.33-.13-.49-.49-.48-.83s.17-.65,.32-.95c.91-1.77,1.93-3.5,3.05-5.16"/><path class="cls-4" d="M1370.28,565.79c.08-.46,.48-.81,.85-1.12,1.16-.97,2.32-1.95,3.47-2.92"/><path class="cls-4" d="M1368.71,564.16c-.19-2.22-.49-4.44-.9-6.64"/><path class="cls-4" d="M1369.6,563.35c-.32-3.12-.39-6.26-.22-9.38"/><path class="cls-4" d="M956.29,636.97c2.59,.12,5.18,.08,7.76-.12"/><path class="cls-4" d="M964.05,639.13h8.46"/><path class="cls-4" d="M929.05,635.66h10.85"/><path class="cls-4" d="M1054.8,630.07c3.96-.16,7.9-.71,11.75-1.65"/><path class="cls-4" d="M1050.24,629.01h7"/><path class="cls-4" d="M843.53,441.82c-29.36,0-24.58,0,14.36,0"/><path class="cls-4" d="M852.75,436.37c2.5,0,4.99,0,7.49,0"/><path class="cls-4" d="M1050.79,498.06h13.08"/><path class="cls-4" d="M1059.1,505.42c12.24,1.28,24.57,1.6,36.86,.96"/><path class="cls-4" d="M1119.73,501.62c5.94-.85,11.87-1.69,17.81-2.54"/><path class="cls-4" d="M1280.22,477.64h16.64"/><path class="cls-4" d="M1307.56,484.85h2.38"/><path class="cls-4" d="M1318.26,472.84h9.51"/><path class="cls-4" d="M1319.45,486.05c7.53,0,15.06,0,22.59,0"/><path class="cls-4" d="M995.97,540.51c-5.55,0-11.09,0-16.64,0"/><path class="cls-4" d="M968.62,547.71h-2.38"/><path class="cls-4" d="M957.93,535.7c-3.17,0-6.34,0-9.51,0"/><path class="cls-4" d="M956.74,548.91c-7.53,0-15.06,0-22.59,0"/><path class="cls-4" d="M1335.2,530.83h26.66"/><path class="cls-4" d="M1335.16,540.24c2.22,1.07,4.8,1.39,7.21,.9"/><path class="cls-4" d="M1398.34,498.11l8.2,1.07"/><path class="cls-4" d="M1404.51,507.28h1.03"/><path class="cls-4" d="M1405.55,505.18c2.09,.35,4.28,0,6.15-.99"/><path class="cls-4" d="M1079.9,493.36c6.94-.61,13.88-1.21,20.82-1.82"/><path class="cls-4" d="M1107.06,490.28c2.24,.23,4.48,.46,6.73,.69"/><path class="cls-4" d="M984.19,634.62c4.42,.58,8.95,.29,13.27-.83"/><path class="cls-4" d="M1013.52,639.9c2.73-.1,5.45-.56,8.07-1.36"/><path class="cls-4" d="M1326.24,575.16c1.7,.18,3.39,.37,5.09,.55"/><path class="cls-4" d="M1357.91,571.84h5.09"/><path class="cls-4" d="M1292.33,566.44c2.07,0,4.15,0,6.22,0"/><path class="cls-4" d="M1356.48,570.7c-3.65-.07-7.29-.53-10.84-1.35"/><path class="cls-4" d="M1330.2,421.28c1.23,1.24,2.46,2.48,3.69,3.72,.2-.26,.4-.52,.6-.78"/><path class="cls-4" d="M1333.59,423.04c-.87-3.93-.43-8.15,1.22-11.82"/><path class="cls-4" d="M1334.74,424.69c.61-5.29,1.56-10.54,2.86-15.7"/><path class="cls-4" d="M1337.56,422.73c-.19-3.2,.11-6.43,.9-9.54"/><path class="cls-4" d="M1256.97,217.42c-8.02,2.38-17.24,.08-23.23-5.82-1.01-.99-1.97-2.15-2.24-3.55-.39-2,.7-4.01,2.06-5.52,4.97-5.53,14.15-6.5,20.14-2.14-1.95-4.21-.04-9.56,3.64-12.36,3.67-2.8,8.66-3.36,13.18-2.5,3.15,.6,6.35,1.98,8.16,4.65,1.82,2.67,1.69,6.83-.9,8.72,3.93-.69,8.12-.91,11.79,.66,3.67,1.58,6.65,5.38,6.2,9.38-.45,4.03-4.09,6.99-7.87,8.34-3.55,1.26-7.36,1.5-11.12,1.64-2.17,.08-4.4,.13-6.47-.55s-3.98-2.24-4.51-4.37c-.53-2.13,.77-4.72,2.92-5.06,2.15-.33,4.23,2.41,3.01,4.23-.61,.9-2.18,1.17-2.67,.2"/><path class="cls-4" d="M1027.44,235.48c5.76,1.71,12.38,.06,16.68-4.18,.73-.71,1.41-1.54,1.61-2.55,.28-1.44-.5-2.88-1.48-3.96-3.57-3.97-10.16-4.67-14.46-1.53,1.4-3.03,.03-6.86-2.61-8.88s-6.22-2.42-9.46-1.79c-2.26,.43-4.56,1.42-5.86,3.34s-1.22,4.9,.65,6.26c-2.82-.5-5.83-.66-8.47,.48-2.64,1.13-4.78,3.86-4.45,6.74,.32,2.89,2.94,5.02,5.65,5.98,2.55,.91,5.29,1.07,7.99,1.18,1.56,.06,3.16,.09,4.64-.4,1.49-.49,2.86-1.61,3.24-3.14,.38-1.53-.56-3.39-2.1-3.63-1.54-.24-3.04,1.73-2.16,3.04,.44,.65,1.57,.84,1.92,.14"/><path class="cls-4" d="M1099,700.07c11.15-4.19,18.17-9.35,27.77-16.46s18.92-18.33,21.14-25.95c.74-2.54,.76-5.48,.04-8.02-1.5-5.33-7.04-7.84-11.08-4.1-.9,.83-1.62,1.9-1.82,3.11-.35,2.03,1.01,4.22,2.97,4.79,1.96,.57,4.26-.54,5.04-2.45"/><path class="cls-4" d="M922.01,493.43c10.88,1.1,22.23,1.3,33.12,.7,1.37-.08,2.76-.26,4.08,.09,1.32,.34,2.59,1.39,2.7,2.76,.02,.28-.01,.57-.18,.79-.16,.2-.41,.3-.66,.38-1.91,.61-4.03,.48-5.85-.36"/><path class="cls-4" d="M902.12,494.17c5.33-.19,10.67-.09,15.98,.29"/><path class="cls-4" d="M885.56,476.89c23.13,5.62-13.99,2.8,8.88,.64"/><path class="cls-4" d="M887.55,491.05c4.37,.31,8.77,.37,13.15,.19"/><path class="cls-4" d="M879.74,499.68h19.72"/><path class="cls-4" d="M833.38,447.33c-3.52,0-7.04,0-10.56,0"/><path class="cls-4" d="M865.64,443.9c3.04-.11,6.09-.22,9.13-.33"/><path class="cls-4" d="M830.72,434.85c-8.21,0-16.43,0-24.64,0"/><path class="cls-4" d="M1072.27,619.75h9.39"/><path class="cls-4" d="M912.24,629.75h7.51"/><path class="cls-4" d="M905.27,634.84c-2.17,.52-4.43,.58-6.65,.33-.67-.08-1.38-.19-1.93-.59s-.9-1.17-.62-1.79c.26-.59,.95-.84,1.58-.94,.36-.06,.75-.08,1.07,.1s.51,.63,.31,.93"/><path class="cls-4" d="M1375.7,573.01c2.48-.41,5.01-.5,7.51-.25,.81,.08,1.67,.22,2.28,.73,.18,.15,.34,.35,.38,.58,.08,.6-.67,.96-1.29,1.09-1.53,.33-3.1,.48-4.66,.43"/></g></g></g></g><path class="cls-3" d="M105.24,57.77c.97,0,.97-1.5,0-1.5s-.97,1.5,0,1.5h0Z"/></svg>