<?xml version="1.0" encoding="UTF-8"?><svg id="Layer_10" xmlns="http://www.w3.org/2000/svg" viewBox="0 0 1424 700"><defs><style>.cls-1{fill:none;stroke:#2d2d2c;stroke-linecap:round;stroke-linejoin:round;}</style></defs><g><path class="cls-1" d="M1328.57,491.66c-11.24-2.67-26.74-9.91-37.09-14.86-3.05-1.46-6.12-2.93-8.9-4.87-6.12-4.28-10.45-10.58-14.66-16.75-4.21-6.18-8.42-12.35-12.63-18.53-6.68-9.8-13.41-19.68-17.99-30.61-1.79-4.28-3.25-8.7-5.22-12.9-7.96-16.97-25.48-28.18-38.72-41.46-5.79-5.8-10.87-11.3-18.93-13.33-9.13-2.3-16.9-3.47-26.23-4.76-2.44-.34-4.91-.64-7.37-.57-3.07,.1-6.08,.79-9.07,1.47-4.66,1.07-8,1-12.66,2.06-3.63,.83-8.6,1.91-9.86,5.42-.74,2.05-.2,4.4,1.02,6.21,1.21,1.81,3.03,3.13,4.94,4.17,5.62,3.09,12.14,4.03,18.49,4.93,1.66,.23,3.36,.46,4.99,.11,1.36-.29,2.67-.99,4.06-.92,1.1,.06,2.11,.6,3.1,1.08,5.19,2.55,9.71,4.02,15.49,4.14,1.02,.02,4.56-.21,5.46,.27,2.06,1.09,2.3,2.91,4.15,4.39,2.67,2.15,4.12,4.65,8.2,8.25,3.9,3.43,13.12,6.83,14.46,12.09,.54,2.11-1.04,5.04-3.18,5.47-1.12,.23-2.95,.47-3.63-1.82-.33-1.1,.34-3.81,2.81-3.48"/><path class="cls-1" d="M1142.79,392.52c-3.92,4.04-7.84,8.09-11.76,12.13-3.06,3.15-5.68,6.64-7.5,10.68-.69,1.52-.85,3.22-1.01,4.88-.76,7.87-.8,15.6-.64,23.49,.04,2.18,.18,4.59,1.72,6.14,1.1,1.11,2.76,1.54,4.31,1.37,1.55-.17,3-.88,4.27-1.79,3.47-2.49,5.71-5.89,6.93-9.99,1.21-4.1,3.57-14.02,3.86-18.29"/><path class="cls-1" d="M1190.4,382.25c-7.79-1.66-23.36-.08-31.31-.57-1.14-.07-2.29-.13-3.42,.03-4.18,.6-10.29,7.48-12.97,10.74"/><path class="cls-1" d="M1150.92,431.44c-2.91,9.2-5.71,18.05-4.83,27.66,.75,8.26,4.28,16.18,4.22,24.48-.02,2.06-.09,4.49,1.56,5.71,1.16,.85,2.73,.75,4.16,.61,1.91-.19,3.9-.4,5.53-1.41,1.95-1.2,3.1-3.37,3.87-5.53,1.8-5.08,1.93-10.74,.37-15.9-.85-2.8-2.19-5.67-1.56-8.53,.33-1.49,1.17-2.81,1.9-4.16,1.45-2.67,2.5-5.55,3.1-8.53"/><path class="cls-1" d="M1178.73,450.02c-.07,3.22-.83,8.43-2.48,11.2-.2,.34-.43,.7-.47,1.09-.1,.84,.6,1.54,1.23,2.12,1.92,1.77,3.67,3.73,5.22,5.83,1.88,2.55,3.52,5.51,3.44,8.67-.08,3.17-2.44,6.45-5.61,6.54-5.62,.16-10.53-8.07-13-12.2"/><path class="cls-1" d="M1234.52,443.04c-.42,.26-1.44-.57-1.56-1.05s.36-1.83,.77-2.1,1.54-.44,2.03-.37c1.45,.2,2.66,2.34,1.98,4.02-.6,1.5-2.57,2.4-3.53,2.52-4.53,.6-12.16-6.64-16.6-8.6-6.01-2.65-8.9-3-13.82-6.14-8.87-5.66-16.8-13.18-25.97-18.32-4.19-2.35-8.95-3.45-12.85-6.27-2.9-2.1-6.38-3.48-9.46-5.3s-8.09-3.34-11.49-2.25c-5.89,1.88-8.02,5.6-6.39,11.69,1.63,6.09,7.96,14.18,12.3,18.65,5.97,6.14,12.08,12.4,19.69,16.18,5.01,2.49,10.66,3.91,14.86,7.66,2.48,2.21,4.28,5.09,6.05,7.93,3.65,5.86,6.01,12.84,9.66,18.7,4.11,6.59,8.48,10.96,14.11,16.23,9.28,8.69,22.15,12.92,35.93,12.47"/><path class="cls-1" d="M1240.69,509.01c4.67,8.07,8.89,8.81,17.26,12.47,10.17,4.45,18.2,6.2,33.52,20.84"/><path class="cls-1" d="M1209.64,430.09c1.77-3.37,2.55-7.26,2.22-11.05-.13-1.56-.45-3.11-.33-4.67,.17-2.16,1.16-4.16,2.14-6.1"/><path class="cls-1" d="M1205.87,424.31c-.38-2.12-.77-4.25-1.15-6.37-.85-4.71-1.7-9.58-.67-14.26"/><path class="cls-1" d="M1198.66,414.9c.92-2.46-1.58-9.13-2.37-13.7"/></g><g><g><path class="cls-1" d="M1007.46,215.92c-.99-2.3-3.5-.6-3.79,1.08-.28,1.67,1.22,3.24,2.89,3.57,2.65,.51,5.35-1.59,6.04-4.21s-.32-5.45-2.06-7.52c-2.26-2.69-6.04-4.3-9.39-3.24-1.97,.62-3.58,2.07-4.85,3.7-6.74,8.65-4.84,21.87-11.7,30.43-1.32,1.65-2.92,3.05-4.56,4.38-4.44,3.59-9.27,6.71-13.39,10.65-6.08,5.82-10.47,13.4-12.49,21.57-.47,1.9-.82,3.85-.75,5.81,.14,4.21,2.44,8.44,6.21,10.32,3.77,1.88,8.9,.96,11.35-2.46,1.15-1.61,1.67-3.74,1.08-5.63-.59-1.89-2.4-3.42-4.38-3.39-1.98,.03-3.84,1.84-3.67,3.81,.17,1.97,2.63,3.44,4.35,2.46"/><path class="cls-1" d="M1013.56,244.13c.29,1.44-1.75,2.56-2.98,1.76s-1.29-2.76-.36-3.89c1.13-1.37,3.29-1.59,4.87-.77,1.58,.82,3.05,2.42,3.49,4.15,.43,1.72,.97,7.18,.83,9.26-.73,10.37-1.43,11.59-2.62,15.32-.93,2.9-2.07,6.52-3.77,10-1.74,3.56-5.02,9.08-6.12,10.97-4.57,7.81-9.76,15.95-12.79,30.45"/><path class="cls-1" d="M987.09,317.48c1.07,1.66-.41,4.17-2.38,4.28-1.97,.11-3.68-1.87-3.56-3.84s2.23-4.05,4.15-4.49,4.01-.01,5.57,1.19c2.26,1.75,3.1,5.46,2.36,8.22-1.16,4.32-6.74,6.49-11.02,5.19s-8.77-5.3-12.03-8.98c-5.02-5.68-7.89-10.18-11.62-16.78s-7.09-14.69-7.21-22.27c-.05-3.17,.05-6.47,.42-9.61,1.16-9.66,2.9-17.26,8.69-25.07,2.26-3.05,8.59-8.62,11.87-11.43,5.69-4.88,7.23-8.78,9.8-15.21,3.1-7.75,2.98-16.69,3.56-25.01,.13-1.86,.2-3.77,.92-5.49,.72-1.72,2.26-3.25,4.12-3.35,2.53-.14,4.42,2.2,5.84,4.29,6.15,9.04,11.44,15.91,17.58,24.95,1.44,2.12,4.07,5.94,5.35,8.17,1.31,2.28,4.39,7.62,5.49,10.02,3.7,8.08,4.67,14.08,5.15,22.96,.66,12.25-2.94,25.4-9.28,35.91-6.29,10.44-18.51,23.49-27.23,32"/><path class="cls-1" d="M1020.18,210.08c-1.19-.58-.73-2.65,.53-3.05,1.26-.4,2.63,.45,3.34,1.56,.95,1.47,.99,3.63-.27,4.83-1.05,1-2.72,1.11-4.1,.65-1.38-.47-2.53-1.41-3.65-2.35-.86-.72-1.78-1.54-1.96-2.65-.12-.71,.08-1.42,.28-2.11,1.25-4.31,2.51-8.66,4.61-12.63,2.1-3.97,4.23-7.85,8.24-9.88,.31-.16,1.51-.48,1.84-.39,.52,.14,1.54,.75,1.99,.98,1.46,.75,3.94,6.03,5.24,9.63,2.16,6.01,3.06,7.31,5.23,13.32,.77,2.15,2.81,9.02,3.36,11.24,.5,2,.82,4.04,1.14,6.07,1.08,6.9,2.16,13.85,1.77,20.82-.33,5.88-1.09,13.55-2.7,19.13-1.77,6.13-3.09,10.15-6.03,15.93-1.59,3.13-5.02,8.75-7.08,11.59-5.39,7.46-9.06,11.2-15.77,17.5-6.72,6.3-14.09,10.64-24.09,14.81"/><path class="cls-1" d="M1031.03,224.22c1.45-.1,2.64,1.59,2.19,2.98-.44,1.38-2.18,2.12-3.55,1.63s-2.25-1.97-2.21-3.43c.04-1.45,.89-2.81,2.06-3.67,.82-.6,1.82-.98,2.83-.9,1.92,.17,3.32,1.05,4.34,2.7,.9,1.46,1.91,4.01,2.54,5.6,1.31,3.3,1.43,4.04,1.81,7.57,.16,1.5,.57,5.44,.57,6.95,0,1.81-.07,4.42-.31,6.34-.62,5.01-.82,6.86-1.92,11.94-.63,2.9-1.71,6.99-4.02,12.03"/><path class="cls-1" d="M950.39,293.42c-.25-1.02-1.76-1.35-2.55-.65-.8,.69-.83,2-.28,2.89,1.11,1.82,4.12,1.76,5.48,.12s1.15-4.22-.11-5.94c-1.26-1.72-3.35-2.68-5.45-3.07-3.02-.57-6.27-.07-8.85,1.6-2.58,1.67-4.4,4.55-4.55,7.61-.07,1.41,.19,2.83-.04,4.22-.23,1.39-1.17,2.83-2.57,2.98-.57,.06-1.49,.03-2.04-.12-3.97-1.05-7.32-2.3-11.42-2.64-2.33-.19-4.54-.48-6.81,.08-6.73,1.66-11.55,8.23-11.63,15.09-.05,3.81,1.58,7.7,4.6,10.03,1.65,1.28,3.77,2.19,4.62,4.1,1.26,2.81-.93,5.94-1.03,9.01-.13,3.86,3.03,7.04,6.29,9.1,3,1.9,6.31,3.32,9.75,4.19,6.18,1.56,12.66,1.34,19.03,1.12,3.53-.13,7.1-.26,10.53-1.1,1.96-.48,3.86-1.19,5.73-1.96,5.41-2.22,9.24-3.73,14.32-9.75,1.2-1.43,2.12-2.52,3.01-4.15,1.17-2.13,1.76-4.49,1.18-7-.26-1.1-1.1-2.37-1.98-3.09-1.93-1.58-3.6-2.9-6.08-3.17s-4.64-.1-6.66,2.1c-.92,1-1.78,2.87-2,4.21-.35,2.18-.17,4.47,1.45,5.97,1.62,1.5,4.38,1.79,6.04,.32,.83-.73,1.53-1.65,1.89-2.7,.5-1.48,.4-3.59-.95-4.37-.8-.46-1.87-.26-2.57,.34s-1.07,1.51-1.18,2.43"/><path class="cls-1" d="M942.18,301.03c-1.04-.62-1.09-2.29-.21-3.11s2.37-.76,3.32-.02,1.37,2.03,1.27,3.23c-.16,2.03-1.66,3.77-3.46,4.72-1.8,.95-5.13,1.5-7.16,1.61-5.32,.29-7.7,.33-13.16-.8-2.72-.56-7.25-.91-9.68,.45-2.58,1.44-4.03,4.65-3.41,7.54,.76,3.51,4.05,5.91,5.48,9.2,1.15,2.65,1.8,4.52,1.03,7.3-.36,1.31-1.41,3.42-1.54,5.17-.08,1.16,1.06,4.05,1.68,5.03,2.2,3.46,5.16,4.34,9.01,5.74,2.58,.94,5.32,1.3,8.06,1.51,10.85,.82,22.06-.53,32.83-2.06"/><path class="cls-1" d="M1024.86,316.45c-.24-.92,.41-1.97,1.34-2.2s1.97,.34,2.32,1.23c.51,1.31-.18,2.74-1.1,3.8-.51,.59-1.37,.88-2.12,1.09-.52,.15-1.78,.19-2.3,.06-2.25-.54-3.34-2.3-3.66-4.59s1.04-4.75,3.19-5.59c1.26-.49,2.68-.44,4-.14,3.5,.79,6.52,3.33,8.07,6.57,1.55,3.24,1.64,7.1,.42,10.48-.3,.82-.7,1.65-1.41,2.17-.95,.69-2.24,.66-3.39,.4-3.45-.77-6.4-3.47-7.47-6.83"/><path class="cls-1" d="M1035.2,316.15c6.56-.03,13.17-1.06,19.18-3.69,1.61-.71,3.19-1.54,4.41-2.8s2.04-3.01,1.83-4.75-1.61-3.38-3.36-3.5c-.98-.07-1.95,.31-2.74,.9-.87,.66-1.58,1.68-1.48,2.77,.1,1.09,1.29,2.06,2.3,1.64"/><path class="cls-1" d="M1036.37,321.04c10.39,2.94,19.58,3.95,24.63,3.1,2.31-.39,7.07-1.78,8.65-2.55,4.8-2.35,5.75-4.16,6.39-5.79,.64-1.63-.04-3.91-1.53-4.84-.83-.52-1.89-.82-2.86-.66-1.08,.17-2.07,.83-2.49,1.84s.28,2.7,1.37,2.8"/><path class="cls-1" d="M976.25,353.1c-2.68,2.26-6.32,5.33-8.65,7.94-3.73,4.2-6.44,9.2-9.72,13.76-.52,.72-1.32,1.52-2.15,1.2-.69-.27-.94-1.15-.9-1.89,.11-2.2,1.36-6.71,2.7-9.89,6.03-14.33,14.59-22.57,25.19-30.26,6.52-4.73,13.54-8.95,20.99-12.01,3.76-1.55,7.31-2.79,11.33-2.21,.93,.13,2.96,.98,3.74,1.5,1.94,1.29,2.25,4.46,1.62,6.7-.64,2.24-1.82,4.63-3.44,6.3-3.69,3.81-6.25,5.72-11.23,7.52-5.91,2.14-10.78,2.21-16.7,4.33-4.07,1.46-6.99,2.57-12.78,7"/></g><path class="cls-1" d="M1004.12,342.19c-4.52-1.12-8.93-2.72-13-4.73"/><path class="cls-1" d="M981.77,346.29c1.11-.93,2.56-1.36,4-1.58,1.38-.21,2.78-.27,4.17-.16,1.33,.11,2.66,.36,3.98,.25"/></g><g><path class="cls-1" d="M992.29,376.2c1.83,.26,1.81,2.22,.69,2.93s-2.93,.02-3.47-1.17-.24-3.1,.68-3.95c.95-.88,2.32-1.22,3.72-1.08,1.24,.12,2.97,1.03,3.71,1.96,1.34,1.68,.76,4.41,.12,5.46-2.58,4.24-9.31,2.61-12.06-.57-2.6-2.99-2.32-7.51-.37-10.69,1.94-3.18,5.86-5.06,9.91-5.49,3.23-.34,6.65,.17,9.54,1.69,4.75,2.51,7.53,7.67,7.23,12.51-.8,13.24-10.05,29.76-4.41,44.38,.87,2.26,2.39,4.19,4.53,5.64,2.55,1.74,5.86,2.52,8.87,1.9,3.01-.62,5.27-1.42,7.06-3.64,.67-.83,1.71-2.36,1.91-3.39,.26-1.33,.29-3.01-.29-4.29-.67-1.48-2.38-3.05-4.11-3.38-1.13-.21-2.73-.11-3.77,.25-1.4,.49-2.44,1.38-2.95,2.65-.43,1.08,.08,2.44,1.18,3.11,1.1,.67,2.66,.56,3.56-.23"/><path class="cls-1" d="M1022.41,397.05c1.19-.71,.64-2.01-.32-2.16s-2.02,.85-2.07,1.8,.67,2.14,1.54,2.44,1.92,.13,2.85-.37c.82-.44,1.76-1.56,2.02-2.4,.46-1.52-.67-3.17-1.39-3.69-2.92-2.08-7.11,.99-8.15,3.92-.98,2.76,.44,5.7,2.63,7.25,2.2,1.55,5.4,1.66,8.3,.76,2.31-.72,4.53-2.06,6.11-3.93,2.59-3.07,3.11-7.33,1.6-10.48-4.13-8.61-14.95-16.93-15.03-28.35-.01-1.76,.52-3.5,1.59-5.09,1.29-1.91,3.35-3.4,5.59-3.87,2.24-.47,4.01-.6,5.84,.36,.68,.36,1.82,1.08,2.23,1.7,.54,.81,1.01,1.92,.96,2.95-.06,1.19-.81,2.74-1.91,3.46-.72,.47-1.85,.87-2.66,.94-1.09,.08-2.05-.2-2.74-.9-.59-.59-.6-1.65-.03-2.42s1.68-1.16,2.51-.89"/><path class="cls-1" d="M1023.55,420.8c.71,.41-.33,2.11-1.12,2.62-.69,.45-2.24,.72-3.03,.51-2-.52-2.82-1.56-3.82-3.36-.44-.78-.51-2.51-.47-3.4,.07-1.66,1.68-3.9,3.08-4.8s4.16-1.51,5.83-1.49c8.02,.07,12.39,2.29,16.38,9.49,3.18,5.73,1.39,14.5-1.51,20.5-2.86,5.92-4.69,11.15-7.61,17.04-3.7,7.45-2.62,16.37-.09,24.28,2.52,7.92,6.39,15.42,8.2,23.52,3.42,15.37-.49,31.27-2.53,46.88-2.27,17.39,3.33,50.81,5.03,86.04,1.22,25.29-2.46,54.02-1.48,63.79"/></g></svg>