<?xml version="1.0" encoding="UTF-8"?><svg id="Layer_4" xmlns="http://www.w3.org/2000/svg" viewBox="0 0 59.47 30.34"><path d="M14.99,29.21c-.1,0-.2,0-.3,0-2.09,0-3.91-.29-5.46-.87-1.55-.58-2.84-1.37-3.87-2.38-1.03-1.01-1.8-2.2-2.31-3.57-.5-1.37-.76-2.85-.76-4.44V1.7H11.29v15.27c0,1.28,.31,2.29,.93,3,.62,.72,1.49,1.08,2.63,1.08s2.01-.36,2.63-1.08c.62-.72,.93-1.72,.93-3V1.7h8.96V29.21s-12.36,0-12.36,0Z"/><path d="M39.98,9.52v11.76h1.71c2.18,0,3.85-.47,5.02-1.42,1.17-.95,1.75-2.5,1.75-4.65,0-1.79-.58-3.19-1.75-4.19-1.17-1-2.73-1.5-4.67-1.5h-2.06Zm-8.92,19.7V1.65h10.28c2.18,0,4.26,.21,6.25,.64,1.99,.43,3.74,1.17,5.26,2.22,1.52,1.05,2.73,2.45,3.64,4.19,.91,1.74,1.36,3.93,1.36,6.58,0,2.41-.43,4.5-1.3,6.27-.87,1.76-2.03,3.21-3.48,4.34-1.45,1.13-3.13,1.97-5.02,2.51-1.89,.55-3.87,.82-5.92,.82h-11.06Z"/></svg>