<svg xmlns="http://www.w3.org/2000/svg" xmlns:xlink="http://www.w3.org/1999/xlink" width="240" height="48" viewBox="0 0 240 48">
  <defs>
    <clipPath id="clip-Artboard_1">
      <rect width="240" height="48"/>
    </clipPath>
  </defs>
  <g id="Artboard_1" data-name="Artboard – 1" clip-path="url(#clip-Artboard_1)">
    <g id="Group_651" data-name="Group 651" transform="translate(1)">
      <g id="Group_611" data-name="Group 611" transform="translate(72 2)">
        <path id="Path_11" data-name="Path 11" d="M325.664,581.587h-4.92a.642.642,0,0,0-.641.643v16.257a5.869,5.869,0,0,1-1.31,4.011,4.609,4.609,0,0,1-3.663,1.5,5.2,5.2,0,0,1-3.931-1.5,5.87,5.87,0,0,1-1.311-4.011V582.229a.641.641,0,0,0-.641-.643h-4.92a.641.641,0,0,0-.641.643v18.022a8.31,8.31,0,0,0,2.753,6.684,10.131,10.131,0,0,0,6.819,2.353h3.477a10.13,10.13,0,0,0,6.818-2.353,8.306,8.306,0,0,0,2.753-6.684V582.229a.639.639,0,0,0-.641-.643Z" transform="translate(-303.685 -570.25)" fill="#c3343c"/>
        <path id="Path_12" data-name="Path 12" d="M349.345,582.389a.518.518,0,0,0,.08-.56.529.529,0,0,0-.508-.242H343.3a.84.84,0,0,0-.748.428l-5.562,8.236a.17.17,0,0,1-.161.106.3.3,0,0,1-.213-.106l-5.562-8.236a.842.842,0,0,0-.748-.428h-5.241c-.357,0-.535.144-.535.428a.851.851,0,0,0,.107.375l8.663,12.675a.264.264,0,0,1,0,.32l-8.663,12.727a.517.517,0,0,0-.08.562.525.525,0,0,0,.508.241h5.615a.837.837,0,0,0,.749-.428l5.562-8.235a.31.31,0,0,1,.213-.107.174.174,0,0,1,.161.107l5.562,8.235a.836.836,0,0,0,.749.428h5.241c.356,0,.535-.141.535-.428a.874.874,0,0,0-.107-.375l-8.663-12.727a.48.48,0,0,1,0-.32Z" transform="translate(-297.259 -570.25)" fill="#c3343c"/>
        <path id="Path_13" data-name="Path 13" d="M380.968,582.33a9.784,9.784,0,0,0-4.6-1.069,33.19,33.19,0,0,0-9.915,2.085,7.421,7.421,0,0,0-1.413-1.016,9.526,9.526,0,0,0-4.6-1.069c-5.458,0-13,3.232-13.128,3.357a.619.619,0,0,0-.187.455v23.3a.639.639,0,0,0,.641.641h4.92a.639.639,0,0,0,.641-.641V588.251c0-.736,3.511-1.642,4.867-1.642a4.58,4.58,0,0,1,3.529,1.443,5.481,5.481,0,0,1,1.33,3.795v16.526a.639.639,0,0,0,.642.641h4.919a.639.639,0,0,0,.641-.641V588.251c0-.736,3.511-1.642,4.867-1.642a4.58,4.58,0,0,1,3.529,1.443,5.519,5.519,0,0,1,1.337,3.9v16.418a.639.639,0,0,0,.641.641H384.5a.637.637,0,0,0,.641-.641V591.9S385.139,584.5,380.968,582.33Z" transform="translate(-290.279 -570.351)" fill="#c3343c"/>
        <path id="Path_14" data-name="Path 14" d="M384.6,572.924a3.661,3.661,0,1,0,2.726,1.069A3.695,3.695,0,0,0,384.6,572.924Z" transform="translate(-279.887 -572.924)" fill="#c3343c"/>
        <path id="Path_15" data-name="Path 15" d="M386.809,581.547H381.89a.639.639,0,0,0-.643.641v26.1a.639.639,0,0,0,.643.642h4.919a.639.639,0,0,0,.643-.642v-26.1a.639.639,0,0,0-.643-.641Z" transform="translate(-279.749 -570.263)" fill="#c3343c"/>
        <path id="Path_16" data-name="Path 16" d="M404.525,581.261a29.224,29.224,0,0,0-12.915,3.357.619.619,0,0,0-.187.455v23.3a.639.639,0,0,0,.641.641h4.92a.639.639,0,0,0,.641-.641V588.251c0-.772,3.6-1.642,5.134-1.642a4.752,4.752,0,0,1,3.69,1.523,5.686,5.686,0,0,1,1.391,3.984v16.258a.639.639,0,0,0,.641.641H413.4a.639.639,0,0,0,.643-.641V590.833a8.9,8.9,0,0,0-9.519-9.572Z" transform="translate(-276.608 -570.351)" fill="#c3343c"/>
        <path id="Path_17" data-name="Path 17" d="M428.439,583.365h-5.456a.235.235,0,0,1-.267-.267v-6.631a.637.637,0,0,0-.643-.641h-4.652a.636.636,0,0,0-.641.641V583.1a.236.236,0,0,1-.268.267h-5.244a.644.644,0,0,0-.642.643v3.744a.641.641,0,0,0,.642.641h5.244a.237.237,0,0,1,.268.268v21.391a.639.639,0,0,0,.641.641h4.652a.639.639,0,0,0,.643-.641V588.661a.236.236,0,0,1,.267-.268h5.456a.639.639,0,0,0,.641-.641v-3.744a.642.642,0,0,0-.641-.643Z" transform="translate(-270.682 -572.029)" fill="#c3343c"/>
      </g>
      <g id="Group_610" data-name="Group 610" transform="translate(8)">
        <g id="Path_8121" transform="translate(0 0)">
          <path id="Path_1515" data-name="Path 1515" d="M5040.429,2869.854a24,24,0,1,0,24.01,24,23.2,23.2,0,0,0-.52-4.93A24.009,24.009,0,0,0,5040.429,2869.854Zm0,2.536a21.491,21.491,0,0,1,21.016,17.051,21.73,21.73,0,0,1,.456,4.413,21.464,21.464,0,1,1-21.472-21.463Zm15.349,23.282a16.184,16.184,0,0,1-9.486,12.4,15.448,15.448,0,0,1-8.539.939,16,16,0,0,1-12.506-12.25,17.781,17.781,0,0,1-.094-6.089,11.29,11.29,0,0,1,.709-2.4c.105-.193.124-.263.315-.376a.564.564,0,0,1,.457-.071l.192.106a1.022,1.022,0,0,1,.159.176.687.687,0,0,1,.08.553,13.661,13.661,0,0,0,.4,7.31l.034.105a13.47,13.47,0,0,0,4.053,5.6,12.634,12.634,0,0,0,3.073,1.93,12.464,12.464,0,0,0,3.519,1.019,11.636,11.636,0,0,0,5.876-.658,11.425,11.425,0,0,0,6.7-12.416,9.584,9.584,0,0,0-5.43-6.844,8.378,8.378,0,0,0-7.1-.115,6.006,6.006,0,0,0-3.055,3.475,5.87,5.87,0,0,0,.115,3.878,3.264,3.264,0,0,0,3.333,2.073,1.243,1.243,0,0,0,1.087-1.078,2.736,2.736,0,0,1,.36-1.072,2.9,2.9,0,0,1,2.245-1.422c.194-.017.39.009.58.009.186.053.377.071.56.131a2.87,2.87,0,0,1,1.933,3.055,6.878,6.878,0,0,1-4.007,5.441c-3.487,1.464-7.652-.5-9.982-3.492a9.526,9.526,0,0,1-1.655-8.557,11.757,11.757,0,0,1,8.609-8.212,12.884,12.884,0,0,1,2.952-.342,14.787,14.787,0,0,1,10.226,4.193A15.323,15.323,0,0,1,5055.777,2895.672Z" transform="translate(-5016.438 -2869.854)" fill="#c3343c" fill-rule="evenodd"/>
        </g>
      </g>
    </g>
  </g>
</svg>
