<?xml version="1.0" encoding="UTF-8"?><svg id="Layer_2" xmlns="http://www.w3.org/2000/svg" viewBox="0 0 52.83 63.26"><defs><style>.cls-1{stroke:#707070;stroke-width:2.5px;}.cls-1,.cls-2{fill:none;stroke-miterlimit:10;}.cls-2{stroke:#c3343c;stroke-width:2px;}</style></defs><g id="Layer_2-2"><g id="Layer_1-2"><g id="Group_2750"><polyline class="cls-1" points="36.91 4.98 36.91 24.22 36.91 31.14"/><path class="cls-1" d="M23.99,54.35c-7.71,1.2-15.77-.54-22.44-5.22V4.98"/><ellipse id="Ellipse_701" class="cls-1" cx="19.08" cy="4.78" rx="17.83" ry="3.53"/><path id="Path_7821" class="cls-1" d="M.64,15.12c11.52,4.19,24.14,4.19,35.66,0"/><path id="Path_7822" class="cls-1" d="M1.55,24.11c11.52,4.19,24.14,4.19,35.66,0"/><path class="cls-1" d="M25.68,35.32c-8.07,1.13-16.33,.35-24.13-2.32-.3-.1-.61-.21-.91-.32"/><path class="cls-1" d="M20.74,44.8c-6.47,.29-12.98-.64-19.19-2.77-.3-.1-.61-.21-.91-.32"/><g id="Union_2"><path id="Path_7825" class="cls-2" d="M33.01,62.25v-3.94l-.88-.34c-.27-.1-.53-.22-.8-.35l-.88-.42-.69,.69-2.14,2.13-4.66-4.66,2.36-2.36,.64-.64-.33-.84c-.08-.19-.15-.39-.22-.6l-.32-.94h-4.36v-6.58h4.73l.36-.82c.04-.09,.08-.19,.13-.28l.41-.88-.69-.68-2.72-2.72,4.65-4.66,2.95,2.95,.64,.64,.84-.33h.04l.03-.03,.88-.34v-5.11h6.58v5.1l.86,.35,.05,.02h.03l.85,.36,.65-.65,2.95-2.95,4.66,4.66-2.72,2.72-.69,.69,.42,.88c.05,.1,.09,.19,.13,.29l.37,.81h4.71v6.58h-4.37l-.32,.94c-.06,.19-.14,.39-.21,.59l-.34,.85,.64,.64,2.36,2.36-4.66,4.65-2.13-2.13-.69-.69-.88,.42c-.26,.12-.52,.24-.8,.35l-.88,.34v3.94h-6.54Z"/></g><circle id="Ellipse_702" class="cls-2" cx="36.3" cy="46.69" r="4.65"/></g></g></g></svg>