<svg xmlns="http://www.w3.org/2000/svg" width="537" height="297.608" viewBox="0 0 537 297.608">
  <g id="Group_5116" data-name="Group 5116" transform="translate(-58 -2340.392)">
    <g id="Group_5093" data-name="Group 5093" transform="translate(253.534 2340.393)" opacity="0.996" style="mix-blend-mode: luminosity;isolation: isolate">
      <path id="Union_13" data-name="Union 13" d="M28.052,76.882V65.289q-1.226-.365-2.4-.833l-8.083,8.082L4.34,59.315l7.026-7.024a28.964,28.964,0,0,1-2.558-5.537H0v-18.7H8.809a28.935,28.935,0,0,1,1.812-4.211L4.345,17.565,17.569,4.341,24.2,10.97a28.866,28.866,0,0,1,3.856-1.455V0h18.7V10.221a28.931,28.931,0,0,1,3.171,1.437l7.317-7.316L70.466,17.565,62.8,25.235a28.9,28.9,0,0,1,1.124,2.817H74.806v18.7H63.92A28.938,28.938,0,0,1,62.8,49.571l7.668,7.669L57.239,70.463l-7.317-7.317a28.943,28.943,0,0,1-3.169,1.436v12.3Z" transform="translate(0 74.806) rotate(-90)" fill="#ffb7b7"/>
      <ellipse id="Ellipse_828" data-name="Ellipse 828" cx="16.979" cy="16.979" rx="16.979" ry="16.979" transform="translate(21.47 54.564) rotate(-90)" fill="#fff"/>
    </g>
    <g id="Group_5094" data-name="Group 5094" transform="translate(292 2347.85)" opacity="0.996" style="mix-blend-mode: luminosity;isolation: isolate">
      <path id="Union_14" data-name="Union 14" d="M38.2,104.709V88.92q-1.67-.5-3.275-1.134L23.92,98.793,5.911,80.783l9.568-9.567A39.451,39.451,0,0,1,12,63.675H0V38.2H12a39.409,39.409,0,0,1,2.468-5.735L5.916,23.921,23.925,5.912l9.027,9.029A39.308,39.308,0,0,1,38.2,12.959V0H63.672V13.921a39.4,39.4,0,0,1,4.318,1.957l9.965-9.964,18.009,18.01L85.519,34.369a39.359,39.359,0,0,1,1.53,3.836h14.825v25.47H87.049a39.411,39.411,0,0,1-1.531,3.839L95.961,77.958,77.952,95.968,67.987,86a39.418,39.418,0,0,1-4.316,1.956v16.75Z" transform="translate(0 0)" fill="#f8765e"/>
      <ellipse id="Ellipse_827" data-name="Ellipse 827" cx="22" cy="23" rx="22" ry="23" transform="translate(29 29.151)" fill="#fff"/>
    </g>
    <g id="Group_5104" data-name="Group 5104" transform="translate(-8 27)">
      <g id="Group_5102" data-name="Group 5102" transform="translate(1)">
        <rect id="Rectangle_3596" data-name="Rectangle 3596" width="64" height="18" transform="translate(411 2388.998)" fill="#d3d3d3"/>
        <rect id="Rectangle_3597" data-name="Rectangle 3597" width="64" height="17" transform="translate(411 2409.998)" fill="#d3d3d3"/>
        <rect id="Rectangle_3598" data-name="Rectangle 3598" width="64" height="14" transform="translate(411 2429.998)" fill="#d3d3d3"/>
        <rect id="Rectangle_3599" data-name="Rectangle 3599" width="64" height="16" transform="translate(411 2447.998)" fill="#d3d3d3"/>
        <circle id="Ellipse_809" data-name="Ellipse 809" cx="4" cy="4" r="4" transform="translate(450 2396.998)" fill="#fff"/>
        <ellipse id="Ellipse_816" data-name="Ellipse 816" cx="4" cy="3.5" rx="4" ry="3.5" transform="translate(462 2396.998)" fill="#fff"/>
        <ellipse id="Ellipse_810" data-name="Ellipse 810" cx="4" cy="4.5" rx="4" ry="4.5" transform="translate(450 2414.998)" fill="#fff"/>
        <circle id="Ellipse_815" data-name="Ellipse 815" cx="4" cy="4" r="4" transform="translate(462 2414.998)" fill="#fff"/>
        <circle id="Ellipse_811" data-name="Ellipse 811" cx="4" cy="4" r="4" transform="translate(450 2431.998)" fill="#fff"/>
        <ellipse id="Ellipse_814" data-name="Ellipse 814" cx="4" cy="3.5" rx="4" ry="3.5" transform="translate(462 2431.998)" fill="#fff"/>
        <ellipse id="Ellipse_812" data-name="Ellipse 812" cx="4" cy="4.5" rx="4" ry="4.5" transform="translate(450 2451.998)" fill="#fff"/>
        <ellipse id="Ellipse_813" data-name="Ellipse 813" cx="4" cy="3.5" rx="4" ry="3.5" transform="translate(462 2451.998)" fill="#fff"/>
      </g>
      <g id="Group_5101" data-name="Group 5101">
        <rect id="Rectangle_3603" data-name="Rectangle 3603" width="64" height="18" transform="translate(485 2388.998)" fill="#d3d3d3"/>
        <rect id="Rectangle_3602" data-name="Rectangle 3602" width="64" height="17" transform="translate(485 2409.998)" fill="#d3d3d3"/>
        <rect id="Rectangle_3601" data-name="Rectangle 3601" width="64" height="14" transform="translate(485 2429.998)" fill="#d3d3d3"/>
        <rect id="Rectangle_3600" data-name="Rectangle 3600" width="64" height="16" transform="translate(485 2447.998)" fill="#d3d3d3"/>
        <ellipse id="Ellipse_820" data-name="Ellipse 820" cx="4" cy="4.5" rx="4" ry="4.5" transform="translate(524 2394.998)" fill="#fff"/>
        <circle id="Ellipse_824" data-name="Ellipse 824" cx="3.5" cy="3.5" r="3.5" transform="translate(537 2394.998)" fill="#fff"/>
        <ellipse id="Ellipse_819" data-name="Ellipse 819" cx="4" cy="4.5" rx="4" ry="4.5" transform="translate(524 2414.998)" fill="#fff"/>
        <circle id="Ellipse_823" data-name="Ellipse 823" cx="3.5" cy="3.5" r="3.5" transform="translate(537 2414.998)" fill="#fff"/>
        <circle id="Ellipse_818" data-name="Ellipse 818" cx="4" cy="4" r="4" transform="translate(524 2431.998)" fill="#fff"/>
        <ellipse id="Ellipse_822" data-name="Ellipse 822" cx="3.5" cy="3" rx="3.5" ry="3" transform="translate(537 2431.998)" fill="#fff"/>
        <ellipse id="Ellipse_817" data-name="Ellipse 817" cx="4" cy="4.5" rx="4" ry="4.5" transform="translate(524 2451.998)" fill="#fff"/>
        <ellipse id="Ellipse_821" data-name="Ellipse 821" cx="3.5" cy="3" rx="3.5" ry="3" transform="translate(537 2451.998)" fill="#fff"/>
      </g>
      <g id="Group_5103" data-name="Group 5103">
        <rect id="Rectangle_3596-2" data-name="Rectangle 3596" width="66" height="18" transform="translate(411 2471)" fill="#d3d3d3"/>
        <rect id="Rectangle_3597-2" data-name="Rectangle 3597" width="66" height="17" transform="translate(411 2492)" fill="#d3d3d3"/>
        <rect id="Rectangle_3598-2" data-name="Rectangle 3598" width="66" height="14" transform="translate(411 2512)" fill="#d3d3d3"/>
        <rect id="Rectangle_3599-2" data-name="Rectangle 3599" width="66" height="16" transform="translate(411 2530)" fill="#d3d3d3"/>
        <circle id="Ellipse_809-2" data-name="Ellipse 809" cx="2.5" cy="2.5" r="2.5" transform="translate(448 2477)" fill="#fff"/>
        <circle id="Ellipse_816-2" data-name="Ellipse 816" cx="4.5" cy="4.5" r="4.5" transform="translate(459 2477)" fill="#fff"/>
        <circle id="Ellipse_810-2" data-name="Ellipse 810" cx="2.5" cy="2.5" r="2.5" transform="translate(448 2497)" fill="#fff"/>
        <circle id="Ellipse_815-2" data-name="Ellipse 815" cx="4.5" cy="4.5" r="4.5" transform="translate(459 2497)" fill="#fff"/>
        <circle id="Ellipse_811-2" data-name="Ellipse 811" cx="2.5" cy="2.5" r="2.5" transform="translate(448 2514)" fill="#fff"/>
        <ellipse id="Ellipse_814-2" data-name="Ellipse 814" cx="4.5" cy="4" rx="4.5" ry="4" transform="translate(459 2514)" fill="#fff"/>
        <circle id="Ellipse_812-2" data-name="Ellipse 812" cx="2.5" cy="2.5" r="2.5" transform="translate(448 2534)" fill="#fff"/>
        <circle id="Ellipse_813-2" data-name="Ellipse 813" cx="4.5" cy="4.5" r="4.5" transform="translate(459 2534)" fill="#fff"/>
      </g>
      <g id="Group_5100" data-name="Group 5100" transform="translate(1 -1)">
        <rect id="Rectangle_3751" data-name="Rectangle 3751" width="66" height="18" transform="translate(484 2471)" fill="#d3d3d3"/>
        <rect id="Rectangle_3749" data-name="Rectangle 3749" width="66" height="17" transform="translate(484 2492)" fill="#d3d3d3"/>
        <rect id="Rectangle_3750" data-name="Rectangle 3750" width="66" height="14" transform="translate(484 2512)" fill="#d3d3d3"/>
        <rect id="Rectangle_3748" data-name="Rectangle 3748" width="66" height="16" transform="translate(484 2530)" fill="#d3d3d3"/>
        <circle id="Ellipse_860" data-name="Ellipse 860" cx="2.5" cy="2.5" r="2.5" transform="translate(521 2477)" fill="#fff"/>
        <circle id="Ellipse_861" data-name="Ellipse 861" cx="4.5" cy="4.5" r="4.5" transform="translate(532 2477)" fill="#fff"/>
        <circle id="Ellipse_857" data-name="Ellipse 857" cx="2.5" cy="2.5" r="2.5" transform="translate(521 2497)" fill="#fff"/>
        <circle id="Ellipse_854" data-name="Ellipse 854" cx="4.5" cy="4.5" r="4.5" transform="translate(532 2497)" fill="#fff"/>
        <circle id="Ellipse_858" data-name="Ellipse 858" cx="2.5" cy="2.5" r="2.5" transform="translate(521 2514)" fill="#fff"/>
        <ellipse id="Ellipse_855" data-name="Ellipse 855" cx="4.5" cy="4" rx="4.5" ry="4" transform="translate(532 2514)" fill="#fff"/>
        <circle id="Ellipse_859" data-name="Ellipse 859" cx="2.5" cy="2.5" r="2.5" transform="translate(521 2534)" fill="#fff"/>
        <circle id="Ellipse_856" data-name="Ellipse 856" cx="4.5" cy="4.5" r="4.5" transform="translate(532 2534)" fill="#fff"/>
      </g>
    </g>
    <ellipse id="Ellipse_847" data-name="Ellipse 847" cx="268.5" cy="43" rx="268.5" ry="43" transform="translate(58 2552)" fill="#c3c3c3" opacity="0.216"/>
    <path id="Path_8373" data-name="Path 8373" d="M0,0H234.574V168.468L0,169.81Z" transform="translate(111 2397.479)" fill="#f8765e"/>
    <path id="Path_8374" data-name="Path 8374" d="M0,0H220.213V154.255L0,155.484Z" transform="translate(118.459 2404.479)" fill="#fff"/>
    <path id="Path_8375" data-name="Path 8375" d="M0,0H72.288V62.519L0,63.018Z" transform="translate(127.459 2416.479)" fill="#eaeaea"/>
    <path id="Path_8380" data-name="Path 8380" d="M0,0H198.821V22.117L0,22.293Z" transform="translate(127.459 2489.479)" fill="#eaeaea"/>
    <path id="Path_8381" data-name="Path 8381" d="M0,0H198.821V22.117L0,22.293Z" transform="translate(127.459 2520.479)" fill="#eaeaea"/>
    <path id="Path_8376" data-name="Path 8376" d="M0,0H117.821V4.794L0,4.832Z" transform="translate(208.459 2424.479)" fill="#eaeaea"/>
    <path id="Path_8377" data-name="Path 8377" d="M0,0H117.821V4.794L0,4.832Z" transform="translate(208.459 2438.479)" fill="#eaeaea"/>
    <path id="Path_8378" data-name="Path 8378" d="M0,0H117.821V4.794L0,4.832Z" transform="translate(208.459 2452.479)" fill="#eaeaea"/>
    <path id="Path_8379" data-name="Path 8379" d="M0,0H117.821V4.794L0,4.832Z" transform="translate(208.459 2466.479)" fill="#eaeaea"/>
    <g id="Group_5099" data-name="Group 5099" transform="matrix(-0.035, -0.999, 0.999, -0.035, 94.44, 2604.453)">
      <rect id="Rectangle_3747" data-name="Rectangle 3747" width="14.499" height="75.202" transform="translate(0 10.604) rotate(-47)" fill="#ffcdc4"/>
      <ellipse id="Ellipse_852" data-name="Ellipse 852" cx="35.28" cy="35.28" rx="35.28" ry="35.28" transform="translate(36.665 27.49)" fill="#ffcdc4"/>
      <ellipse id="Ellipse_853" data-name="Ellipse 853" cx="29.245" cy="29.245" rx="29.245" ry="29.245" transform="translate(43.164 33.061)" fill="#fff"/>
    </g>
    <path id="Path_7922" data-name="Path 7922" d="M-7064.5,7163l-15.974,18.605h50.668L-7045.852,7163" transform="translate(7281.477 -4596.15)" fill="#f8765e"/>
  </g>
</svg>
