<svg xmlns="http://www.w3.org/2000/svg" width="40" height="40" viewBox="0 0 40 40">
  <g id="Group_6480" data-name="Group 6480" transform="translate(-9183 -634)">
    <rect id="Rectangle_4835" data-name="Rectangle 4835" width="40" height="40" transform="translate(9183 634)" fill="#fff" opacity="0"/>
    <path id="Icon_awesome-user-alt" data-name="Icon awesome-user-alt" d="M12,16.5A6.75,6.75,0,1,0,5.25,9.75,6.752,6.752,0,0,0,12,16.5Zm6-.5H15.417a8.16,8.16,0,0,1-6.834,0H6a6,6,0,0,0-6,6v.75A2.251,2.251,0,0,0,2.25,25h19.5A2.251,2.251,0,0,0,24,22.75V22A6,6,0,0,0,18,16Z" transform="translate(9191.5 640.5)" fill="none" stroke="#ffffff" stroke-width="2"/>
  </g>
</svg>
