<svg width="213" height="112" viewBox="0 0 213 112" fill="none" xmlns="http://www.w3.org/2000/svg">
<path d="M45.8267 59.221C45.8267 63.7513 41.7464 66.6913 33.9166 66.6913C28.4145 66.6913 23.6377 65.252 20.2209 62.7013L23.878 58.5013C26.2961 60.3017 29.8936 61.531 34.0356 61.531C37.0578 61.531 38.5391 61.0213 38.5391 59.9713C38.5391 58.952 37.3289 58.591 33.4008 58.2607C26.9001 57.692 21.1269 56.2198 21.1269 51.4204C21.1269 46.831 26.1749 44.311 33.037 44.311C37.481 44.311 41.8655 45.3304 44.9185 47.3407L41.4114 51.5998C39.0241 50.0401 36.2113 49.4101 33.037 49.4101C30.89 49.4101 28.4123 49.6792 28.4123 50.821C28.4123 51.8404 30.3169 52.0504 33.7336 52.3217C40.8074 52.8904 45.8267 54.2401 45.8267 59.221Z" fill="#ffffff"/>
<path d="M73.7398 45V66H66.3641V58.23H55.2696V66H47.8938V45H55.2696V52.4703H66.3641V45H73.7398Z" fill="#ffffff"/>
<path d="M94.1593 66L89.0209 59.8203H84.0633V66H76.7471V45H91.7719C97.4261 45 101.899 47.3997 101.899 52.4091C101.899 55.8587 99.7826 58.0791 96.6083 59.1291L102.562 66H94.1593ZM91.1657 54.9291C93.0703 54.9291 94.4304 54.3888 94.4304 52.5884C94.4304 50.7881 93.0703 50.2478 91.1657 50.2478H84.0611V54.9269H91.1657V54.9291Z" fill="#ffffff"/>
<path d="M164.768 45V66H157.483V53.6691L149.805 63.06H149.441L141.792 53.6691V66H134.688V45H142.729L149.803 54.1503L156.938 45H164.768Z" fill="#ffffff"/>
<path d="M174.127 45L179.418 53.3409L184.679 45H192.78L183.077 59.0109V66H175.701V59.0109L165.995 45H174.127Z" fill="#ffffff"/>
<path d="M124.398 48.5131L133.363 66H128.811C126.887 66 125.136 64.8975 124.319 63.1694L119.024 51.9956C118.865 51.6588 118.382 51.6588 118.224 51.9956L112.929 63.1694C112.111 64.8975 110.361 66 108.436 66H103.884L112.849 48.5131C113.954 46.3584 116.185 45 118.623 45C121.063 45 123.294 46.3584 124.398 48.5131Z" fill="#ffffff"/>
</svg>
