<svg xmlns="http://www.w3.org/2000/svg" width="72.534" height="24.18" viewBox="0 0 72.534 24.18">
  <g id="fca" transform="translate(0 0)">
    <path id="Path_9336" data-name="Path 9336" d="M-745.14-1271.7c-.551,0-1.11-.029-1.662.009-.478.033-.681-.172-.852-.6a7.363,7.363,0,0,0-6.857-4.561,7.4,7.4,0,0,0-7.267,6.635,7.33,7.33,0,0,0,1.84,5.525,7.331,7.331,0,0,0,5.288,2.44,7.3,7.3,0,0,0,7.072-4.684.659.659,0,0,1,.719-.484c1.126.013,2.253,0,3.379.006.612,0,.675.1.532.713a11.877,11.877,0,0,1-9.8,8.83,11.907,11.907,0,0,1-12.114-6,11.815,11.815,0,0,1,1.378-13.287,11.946,11.946,0,0,1,15.33-2.345,11.6,11.6,0,0,1,5.235,7.244c.111.443,0,.584-.445.566C-743.96-1271.72-744.55-1271.7-745.14-1271.7Z" transform="translate(789.261 1281.929)" fill="#fff"/>
    <path id="Path_9337" data-name="Path 9337" d="M-980.194-1260.507v-9.919c0-.73.014-.742.756-.743h18.931c.706,0,.722.017.724.719v3c0,.693-.021.712-.735.712h-14.262c-.892,0-.893,0-.893.873,0,1.162.02,2.325-.009,3.49-.013.524.184.671.689.669,4.5-.015,9.01-.008,13.515-.008.853,0,.854,0,.855.863,0,.983-.026,1.967.01,2.949.02.544-.168.71-.706.707-4.541-.016-9.081-.009-13.622-.009-.735,0-.735,0-.735.715v6.007c0,.661-.033.69-.7.692h-3.057c-.754,0-.76-.006-.76-.8Q-980.2-1255.547-980.194-1260.507Z" transform="translate(980.197 1272.888)" fill="#fff"/>
    <path id="Path_9338" data-name="Path 9338" d="M-529.431-1264.111c-.59,0-1.183-.035-1.769.011a1.085,1.085,0,0,1-1.151-.643c-1.389-2.438-2.811-4.856-4.225-7.28-1.151-1.977-2.308-3.949-3.447-5.933-.208-.361-.308-.413-.54-.013q-3.857,6.658-7.724,13.306a.975.975,0,0,1-.978.566c-1.322-.031-2.645-.017-3.968-.008-.4,0-.584-.038-.317-.5q4.908-8.4,9.793-16.815l3.123-5.378c.323-.551.351-.551.666-.012q5.448,9.359,10.892,18.72c.683,1.174,1.358,2.353,2.054,3.519.218.367.122.467-.267.459C-528-1264.12-528.717-1264.111-529.431-1264.111Z" transform="translate(599.441 1287.209)" fill="#fff"/>
  </g>
</svg>
