<svg xmlns="http://www.w3.org/2000/svg" width="77.5" height="61.5" viewBox="0 0 77.5 61.5">
  <g id="Group_2760" data-name="Group 2760" transform="translate(-643.75 -1405.75)">
    <g id="Group_2749" data-name="Group 2749" transform="translate(0 -135)">
      <g id="Rectangle_941" data-name="Rectangle 941" transform="translate(644.021 1541)">
        <rect id="Rectangle_3074" data-name="Rectangle 3074" width="77" height="61" transform="translate(-0.021)" fill="none"/>
        <rect id="Rectangle_3075" data-name="Rectangle 3075" width="75" height="59" transform="translate(0.979 1)" fill="none" stroke="#707070" stroke-width="2.5"/>
      </g>
      <line id="Line_574" data-name="Line 574" y2="58.472" transform="translate(682.5 1543.312)" fill="none" stroke="#707070" stroke-width="2.5"/>
      <g id="Group_2747" data-name="Group 2747" transform="translate(654.052 1559.286)">
        <path id="Path_7818" data-name="Path 7818" d="M310.213,536.411h-10.55l-2.394,6.528H295.21L304,519.7h1.868l8.8,23.24h-2.043Zm-9.943-1.66h9.32l-4.661-12.658Z" transform="translate(-295.21 -519.699)" fill="#c3343c" stroke="#c3343c" stroke-width="1"/>
      </g>
      <g id="Group_2748" data-name="Group 2748" transform="translate(693.914 1559.286)">
        <path id="Path_7819" data-name="Path 7819" d="M334.909,542.939V519.7h6.862a8.938,8.938,0,0,1,5.668,1.542,5.465,5.465,0,0,1,1.931,4.543,5.15,5.15,0,0,1-.982,3.139,5.372,5.372,0,0,1-2.689,1.909,5.624,5.624,0,0,1,4.5,5.567,6.037,6.037,0,0,1-1.987,4.808,8.135,8.135,0,0,1-5.53,1.732Zm1.964-12.816h5.362a6.031,6.031,0,0,0,3.807-1.16,3.955,3.955,0,0,0,1.349-3.237,3.885,3.885,0,0,0-1.4-3.3,6.939,6.939,0,0,0-4.223-1.063h-4.9Zm0,1.661v9.5h5.888a5.893,5.893,0,0,0,4-1.283,4.467,4.467,0,0,0,1.477-3.561,4.319,4.319,0,0,0-1.413-3.4,5.685,5.685,0,0,0-3.9-1.25Z" transform="translate(-334.909 -519.699)" fill="#c3343c" stroke="#c3343c" stroke-width="1"/>
      </g>
    </g>
  </g>
</svg>
