<?xml version="1.0" encoding="UTF-8"?><svg id="Layer_1" xmlns="http://www.w3.org/2000/svg" viewBox="0 0 78.94 66.6"><defs><style>.cls-1{stroke:#707070;stroke-width:2.58px;}.cls-1,.cls-2{fill:none;stroke-miterlimit:10;}.cls-2{stroke:#c3343c;stroke-width:2.06px;}</style></defs><g id="Group_2750"><polyline class="cls-1" points="51.01 5.89 51.01 25.7 51.01 32.83"/><path class="cls-1" d="M37.7,56.74c-7.94,1.24-16.24-.56-23.12-5.38V5.89"/><ellipse id="Ellipse_701" class="cls-1" cx="32.64" cy="5.68" rx="18.37" ry="3.63"/><path id="Path_7821" class="cls-1" d="M13.64,16.34c11.86,4.32,24.87,4.32,36.73,0"/><path id="Path_7822" class="cls-1" d="M14.58,25.59c11.86,4.32,24.87,4.32,36.73,0"/><path class="cls-1" d="M39.44,37.14c-8.31,1.16-16.82,.36-24.86-2.39-.31-.1-.63-.22-.94-.33"/><path class="cls-1" d="M34.35,46.9c-6.66,.3-13.37-.66-19.77-2.85-.31-.1-.63-.22-.94-.33"/><g id="Union_2"><path id="Path_7825" class="cls-2" d="M46.99,64.88v-4.06l-.91-.35c-.27-.1-.55-.23-.82-.36l-.91-.43-.71,.71-2.2,2.2-4.8-4.8,2.44-2.43,.66-.66-.35-.87c-.08-.19-.15-.4-.22-.62l-.33-.96h-4.49v-6.78h4.87l.37-.85c.04-.1,.09-.19,.13-.29l.43-.9-.71-.71-2.8-2.8,4.8-4.8,3.04,3.03,.66,.66,.87-.34h.04s.04-.03,.04-.03l.91-.35v-5.27h6.78v5.25l.89,.36,.05,.02h.03s.88,.37,.88,.37l.67-.67,3.04-3.04,4.8,4.8-2.8,2.8-.71,.71,.43,.91c.05,.1,.09,.2,.14,.29l.38,.83h4.85v6.78h-4.5l-.32,.97c-.06,.2-.14,.4-.22,.6l-.35,.87,.66,.66,2.43,2.43-4.8,4.8-2.2-2.2-.71-.71-.91,.44c-.26,.13-.54,.25-.82,.36l-.9,.35v4.06h-6.77Z"/></g><circle id="Ellipse_702" class="cls-2" cx="50.38" cy="48.86" r="4.79"/></g></svg>