<svg xmlns="http://www.w3.org/2000/svg" width="158.592" height="70" viewBox="0 0 158.592 70">
  <g id="Group_5305" data-name="Group 5305" transform="translate(6696 -16751)">
    <g id="Group_5299" data-name="Group 5299" transform="translate(-5)">
      <rect id="Rectangle_3972" data-name="Rectangle 3972" width="103" height="70" rx="3" transform="translate(-6664 16751)" fill="#41e5d3"/>
      <rect id="Rectangle_3970" data-name="Rectangle 3970" width="95" height="56" rx="3" transform="translate(-6660 16758)" fill="#fff"/>
      <g id="Group_5296" data-name="Group 5296" transform="translate(415.009 1.67)">
        <path id="Path_12603" data-name="Path 12603" d="M-7043.355,16804.33l16.883-9.076,7.054,5.088,15.031-8.348,5,3.26,13.623-8.785" transform="translate(-2 2)" fill="none" stroke="#3cc3b4" stroke-width="1"/>
        <g id="Ellipse_1047" data-name="Ellipse 1047" transform="translate(-7047.009 16803.33)" fill="#fff" stroke="#3cc3b4" stroke-width="1">
          <circle cx="2" cy="2" r="2" stroke="none"/>
          <circle cx="2" cy="2" r="1.5" fill="none"/>
        </g>
        <g id="Ellipse_1048" data-name="Ellipse 1048" transform="translate(-7031.009 16795.33)" fill="#fff" stroke="#3cc3b4" stroke-width="1">
          <circle cx="2" cy="2" r="2" stroke="none"/>
          <circle cx="2" cy="2" r="1.5" fill="none"/>
        </g>
        <g id="Ellipse_1049" data-name="Ellipse 1049" transform="translate(-7023.009 16799.33)" fill="#fff" stroke="#3cc3b4" stroke-width="1">
          <circle cx="2" cy="2" r="2" stroke="none"/>
          <circle cx="2" cy="2" r="1.5" fill="none"/>
        </g>
        <g id="Ellipse_1050" data-name="Ellipse 1050" transform="translate(-7009.009 16792.33)" fill="#fff" stroke="#3cc3b4" stroke-width="1">
          <circle cx="2" cy="2" r="2" stroke="none"/>
          <circle cx="2" cy="2" r="1.5" fill="none"/>
        </g>
        <g id="Ellipse_1051" data-name="Ellipse 1051" transform="translate(-6989.009 16787.33)" fill="#fff" stroke="#3cc3b4" stroke-width="1">
          <circle cx="2" cy="2" r="2" stroke="none"/>
          <circle cx="2" cy="2" r="1.5" fill="none"/>
        </g>
      </g>
      <rect id="Rectangle_3971" data-name="Rectangle 3971" width="47" height="3" transform="translate(-6619 16769)" fill="#efefef"/>
      <rect id="Rectangle_3975" data-name="Rectangle 3975" width="47" height="3" transform="translate(-6619 16775)" fill="#efefef"/>
      <rect id="Rectangle_3976" data-name="Rectangle 3976" width="47" height="3" transform="translate(-6619 16781)" fill="#efefef"/>
      <g id="Group_5297" data-name="Group 5297" transform="translate(52 -1)">
        <path id="Path_12623" data-name="Path 12623" d="M25.981,0a12.481,12.481,0,1,0,0,24.962" transform="translate(-6719 16767)" fill="#4effec"/>
        <path id="Path_12624" data-name="Path 12624" d="M13.5,0a12.481,12.481,0,1,1,0,24.962" transform="translate(-6706.981 16767)" fill="#4effec"/>
        <path id="Path_12622" data-name="Path 12622" d="M13.5,0A12.481,12.481,0,0,1,25.981,12.481c0,.655-11.377,0-12.481,0" transform="translate(-6706.981 16767)" fill="#41e5d3"/>
      </g>
    </g>
    <g id="Group_5298" data-name="Group 5298" transform="translate(146 0.675)">
      <path id="Path_12623-2" data-name="Path 12623" d="M22.689,0a9.189,9.189,0,1,0,0,18.378" transform="translate(-6718.726 16767.277)" fill="#f2f2f2"/>
      <path id="Path_12624-2" data-name="Path 12624" d="M13.5,0a9.189,9.189,0,1,1,0,18.378" transform="translate(-6709.877 16767.277)" fill="#f2f2f2"/>
      <path id="Path_12622-2" data-name="Path 12622" d="M13.5,0A10.937,10.937,0,0,1,24.437,10.937c0,.574-9.97,0-10.937,0" transform="translate(-6709.877 16765.488)" fill="#4effec"/>
      <path id="Path_12625" data-name="Path 12625" d="M0,0A9.189,9.189,0,0,1,9.189,9.189c0,.482-8.376,0-9.189,0" transform="translate(-6696.656 16786.146) rotate(180)" fill="#4effec"/>
      <path id="Path_12627" data-name="Path 12627" d="M0,0A12.778,12.778,0,0,1,12.778,12.778c0,.671-11.648,0-12.778,0" transform="translate(-6683.408 16776.852) rotate(90)" fill="#50b4a9"/>
      <path id="Path_12626" data-name="Path 12626" d="M0,0A10.208,10.208,0,0,1,10.208,10.208c0,.536-9.3,0-10.208,0" transform="translate(-6706.995 16776.574) rotate(-90)" fill="#41e5d3"/>
    </g>
    <g id="Group_5300" data-name="Group 5300" transform="translate(-145 -4)">
      <rect id="Rectangle_3977" data-name="Rectangle 3977" width="7" height="15" transform="translate(-6551 16803)" fill="#41e5d3"/>
      <rect id="Rectangle_3978" data-name="Rectangle 3978" width="8" height="21" transform="translate(-6544 16797)" fill="#4effec"/>
      <rect id="Rectangle_3979" data-name="Rectangle 3979" width="7" height="32" transform="translate(-6536 16786)" fill="#41e5d3"/>
    </g>
  </g>
</svg>
