<svg xmlns="http://www.w3.org/2000/svg" width="658" height="414.293" viewBox="0 0 658 414.293">
  <g id="Group_5111" data-name="Group 5111" transform="translate(-683 -2919.707)">
    <ellipse id="Ellipse_800" data-name="Ellipse 800" cx="329" cy="37" rx="329" ry="37" transform="translate(683 3260)" fill="#fff"/>
    <g id="Group_3385" data-name="Group 3385" transform="translate(809.374 2919.707)" style="isolation: isolate">
      <path id="Path_5972" data-name="Path 5972" d="M4.757,0H16.366V119.963l9.964,10.986H-4.117l8.874-10.986Z" transform="translate(103.099 240.88)" fill="#ededed"/>
      <path id="Path_5973" data-name="Path 5973" d="M840.533,183.622" transform="translate(-588.872 -149.415)" fill="#fff" stroke="#fff" stroke-miterlimit="10" stroke-width="1"/>
      <path id="Path_5974" data-name="Path 5974" d="M606.1,323.166a32.535,32.535,0,0,0-2.939-5.669c-1.131-1.733-1.823-2.418-4.511-6-.851-1.135-2.1-2.807-2.611-3.561-2.615-3.889-3.484-10.277-1.539-16.049.737-2.185,3.333-8.6,10.3-11.54,7.829-3.3,14.942.43,16.306,1.145a19.124,19.124,0,0,1,9.345,10.3c.156.433,2.8,8.1-.859,14.4-1.166,2.009-1.814,1.881-5.435,6.961a37.1,37.1,0,0,0-3.624,5.913,30.969,30.969,0,0,0-2,5.531" transform="translate(-318.444 -217.29)" fill="#f7de4c"/>
      <path id="Path_5975" data-name="Path 5975" d="M602.829,292.838l6.288,28.478h-4.549v9.018h3.957s2.016,3.8,5.339,0l4.153-.119v-8.9l-3.8.119,5.458-28.6h-1.424l-6.171,27.648-7.516-27.648Z" transform="translate(-317.211 -215.475)" fill="#eac524"/>
      <line id="Line_162" data-name="Line 162" x2="14.124" transform="translate(257.018 77.363)" fill="none" stroke="#f7de4c" stroke-miterlimit="10" stroke-width="3"/>
      <line id="Line_163" data-name="Line 163" x2="9.987" y2="9.987" transform="translate(266.149 54.552)" fill="none" stroke="#f7de4c" stroke-miterlimit="10" stroke-width="3"/>
      <path id="Path_8139" data-name="Path 8139" d="M0,0V14.124" transform="translate(292.565 42.827)" fill="none" stroke="#f7de4c" stroke-width="3"/>
      <line id="Line_165" data-name="Line 165" x1="9.987" y2="9.987" transform="translate(304.485 51.955)" fill="none" stroke="#f7de4c" stroke-miterlimit="10" stroke-width="3"/>
      <line id="Line_166" data-name="Line 166" x1="14.124" transform="translate(316.694 77.363)" fill="none" stroke="#f7de4c" stroke-miterlimit="10" stroke-width="3"/>
      <g id="Group_811" data-name="Group 811" transform="translate(301.597 86.096)">
        <path id="Path_5807" data-name="Path 5807" d="M539.528,523.441l-3.248,5.912L515.4,520.839s-.709,7.569,10.88,12.062,12.3,5.913,12.3,5.913l4.461-11.4" transform="translate(-515.396 -256.296)" fill="#534390"/>
        <path id="Path_5808" data-name="Path 5808" d="M585.5,526.252l3.1,5.991-18.705,12.589s5.889,4.807,16.08-2.311,11.763-6.917,11.763-6.917l-6.982-10.059" transform="translate(-496.82 -258.07)" fill="#534390"/>
        <path id="Path_5799" data-name="Path 5799" d="M567.742,368.036s-12.1-1.191-15.075,10.116-3.769,39.87-3.769,39.87l2.182,23.8a48.807,48.807,0,0,0,13.3,4.924,51.829,51.829,0,0,0,30.983-3.427A374.826,374.826,0,0,1,598.2,397.59c.8-6.245,2.33-16.7-3.575-23.834-1.916-2.317-6.549-6.62-8.938-5.363-.988.52-1.358,1.868-1.489,3.128a17.867,17.867,0,0,1-4.089,6.637c-2.789,2.835-8.4,6.545-11.479,4.575-2.638-1.691-2.518-6.989-2.5-7.682a18.62,18.62,0,0,1,.346-2.934A19.545,19.545,0,0,1,567.742,368.036Z" transform="translate(-502.85 -307.267)" fill="#6ebbcc"/>
        <path id="Path_5802" data-name="Path 5802" d="M558.929,376.01l-15.064,15.381-9.356,19.187V425.8l20.455-19.346Z" transform="translate(-508.881 -305.662)" fill="#4f98a8"/>
        <path id="Path_5803" data-name="Path 5803" d="M543.1,376.01s-.316,3.8,2.855,3.726a8.169,8.169,0,0,0,5.074-1.863l-6.024,21.34L537.08,425.8s-15.541.158-8.088-17.6S543.1,376.01,543.1,376.01Z" transform="translate(-511.45 -305.662)" fill="#4f98a8"/>
        <path id="Path_5805" data-name="Path 5805" d="M557.586,424.257l-16.093,72.958-10.521,60.351,9.179,3.756,17.435-53.378,21.458-53.377L571.8,427.475Z" transform="translate(-510.086 -289.217)" fill="#362477"/>
        <path id="Path_5809" data-name="Path 5809" d="M564.569,365.684s-.169,18.9,2.511,22.038c1.458,1.708,6.483.2,10.646-3.1a26.309,26.309,0,0,0,5.373-6.516L579.824,354.4Z" transform="translate(-502.104 -311.833)" fill="#efb482"/>
        <path id="Path_5806" data-name="Path 5806" d="M560.023,429.354c0,.8,15.41,65.716,15.41,65.716l11.207,66.252h12.046l-3.362-70.41-1.681-66.654Z" transform="translate(-500.184 -291.469)" fill="#362477"/>
        <path id="Path_5797" data-name="Path 5797" d="M549.666,377.757c-2.055-5.133-.993-12.054-1.361-19.6-.057-1.116-5.06.615-4.91-.977.391-4.14,4.13-12.479,6.271-17.02,3.467-7.356,5.031-8.635,6.36-9.389,6.8-3.86,17.88.076,23.319,6.966,7.807,9.889,4.152,25.73-3.937,34.525-6.471,7.034-3.039,11.659-11.074,7.06C560.354,377.045,550.389,379.564,549.666,377.757Z" transform="translate(-501.79 -321.599)" fill="#efb482"/>
        <path id="Path_5798" data-name="Path 5798" d="M551.968,322.439c-6.646-.393-16.389,6.092-10.945,10.854,3.093,2.706,26.087,8.378,24.7,12.368-2.2,6.316,1.072,13.047,1.79,13.239.82.218,2.965-10.563,4.636-10.4,2.794.268.408,21.368,4.241,22.268,3.653.857,15.421-16.05,10.6-31.281-.446-1.405-3.721-11.294-11.841-14.137C570.253,323.632,563.139,323.1,551.968,322.439Z" transform="translate(-498.719 -322.422)"/>
        <path id="Path_5804" data-name="Path 5804" d="M539.382,381.468s6.717-23.6,8.828-24.372,3.359.383,2.016,3.262-2.3,5.374-2.3,5.374l3.934,5.468-6.635,16.025-4.688,1.152-1.63-.863Z" transform="translate(-507.383 -312.188)" fill="#efb482"/>
        <path id="Path_5800" data-name="Path 5800" d="M594.819,390.579l-3,27.7-55.392,3.557v6.533l65.7,5.153s6.441-6.44,7.73-14.385.858-37.189.858-37.189-9.339-14.779-13.31-12.62S594.819,390.579,594.819,390.579Z" transform="translate(-514.64 -308.672)" fill="#4f98a8"/>
        <path id="Path_5801" data-name="Path 5801" d="M540.138,408.6l-7.481-5.866h-3.646l1.427,2.061-4.916,2.855c0,1.744,1.585,5.708,1.585,5.708l11.893,1.9Z" transform="translate(-512.944 -294.553)" fill="#efb482"/>
      </g>
      <path id="Path_5976" data-name="Path 5976" d="M223.6,498.469V247.326l198.7-9.23,4.954,246.218Z" transform="translate(-223.604 -238.096)" fill="#fff" opacity="0.998"/>
      <path id="Path_5977" data-name="Path 5977" d="M10161.453,1083.918v56.167l86.338-4.659-2.4-51.508Z" transform="translate(-10137.086 -1050.768)" fill="#c7d4fe"/>
      <path id="Path_5978" data-name="Path 5978" d="M10161.453,1083.918v42.9l65.936-3.558-1.82-39.345Z" transform="translate(-10042.835 -1046.484)" fill="#c7d4fe"/>
      <path id="Path_5979" data-name="Path 5979" d="M0,1.15,29.133,0l1.048,32.268L0,33.711Z" transform="matrix(1, -0.017, 0.017, 1, 32.252, 43.819)" fill="#fff"/>
      <path id="Path_5980" data-name="Path 5980" d="M0,.879,22.253,0l.8,24.648L0,25.75Z" transform="matrix(1, -0.017, 0.017, 1, 124.643, 45.583)" fill="#fff"/>
      <rect id="Rectangle_906" data-name="Rectangle 906" width="34.274" height="13.71" transform="matrix(1, -0.017, 0.017, 1, 67.398, 44.356)" fill="#fff"/>
      <rect id="Rectangle_907" data-name="Rectangle 907" width="26.18" height="10.472" transform="matrix(1, -0.017, 0.017, 1, 151.487, 45.997)" fill="#fff"/>
      <rect id="Rectangle_908" data-name="Rectangle 908" width="34.274" height="5.998" transform="matrix(1, -0.017, 0.017, 1, 67.592, 55.49)" fill="#fff"/>
      <rect id="Rectangle_909" data-name="Rectangle 909" width="26.18" height="4.582" transform="matrix(1, -0.017, 0.017, 1, 151.634, 54.501)" fill="#fff"/>
      <rect id="Rectangle_910" data-name="Rectangle 910" width="34.274" height="5.998" transform="matrix(1, -0.017, 0.017, 1, 67.786, 66.63)" fill="#fff"/>
      <g id="Group_812" data-name="Group 812" transform="matrix(0.999, -0.035, 0.035, 0.999, 27.408, 105.191)">
        <path id="Path_5815" data-name="Path 5815" d="M3.5,0S31.986,1.163,35.862,0c0,0-2.131,47.667-1.356,49.217,0,0-31.584,1.744-33.909,0S3.5,0,3.5,0Z" transform="translate(0 0.603)" fill="none" stroke="#7993e8" stroke-miterlimit="10" stroke-width="0.5"/>
        <path id="Path_5816" data-name="Path 5816" d="M0,0S13.176,20.927,17.633,22.865" transform="translate(7.765 9.516)" fill="none" stroke="#7993e8" stroke-miterlimit="10" stroke-width="0.5"/>
        <path id="Path_5817" data-name="Path 5817" d="M14.533,0S1.938,16.47,0,22.09" transform="translate(10.865 9.516)" fill="none" stroke="#7993e8" stroke-miterlimit="10" stroke-width="0.5"/>
        <path id="Path_5818" data-name="Path 5818" d="M0,0" transform="translate(7.765 40.326)" fill="#c7d4fe" stroke="#7993e8" stroke-miterlimit="10" stroke-width="0.5"/>
        <path id="Path_5819" data-name="Path 5819" d="M16.47,0H1.163C0,0,0,5.426,0,5.426H16.47Z" transform="translate(7.765 40.326)" fill="none" stroke="#7993e8" stroke-miterlimit="10" stroke-width="0.5"/>
        <path id="Path_5820" data-name="Path 5820" d="M2.928.6S30.249-.754,35.287.6c0,0-2.131,47.667-1.356,49.217,0,0-34.909,2.73-33.909,0C2.153,44.007,2.928.6,2.928.6Z" transform="translate(54.055 0)" fill="none" stroke="#7993e8" stroke-miterlimit="10" stroke-width="0.5"/>
        <path id="Path_5821" data-name="Path 5821" d="M0,0S6.08,9.659,8.138,10.553" transform="translate(67.63 4.238)" fill="#c7d4fe" stroke="#7993e8" stroke-miterlimit="10" stroke-width="0.5"/>
        <path id="Path_5822" data-name="Path 5822" d="M6.708,0S.9,7.6,0,10.2" transform="translate(69.06 4.238)" fill="#c7d4fe" stroke="#7993e8" stroke-miterlimit="10" stroke-width="0.5"/>
        <path id="Path_5823" data-name="Path 5823" d="M22.09,0H1.55C0,0,0,5.426,0,5.426H22.09Z" transform="translate(60.617 20.949)" fill="none" stroke="#7993e8" stroke-miterlimit="10" stroke-width="0.5"/>
        <path id="Path_5824" data-name="Path 5824" d="M16.47,0H1.163C0,0,0,5.426,0,5.426H16.47Z" transform="translate(63.433 38.194)" fill="none" stroke="#7993e8" stroke-miterlimit="10" stroke-width="0.5"/>
        <path id="Path_5825" data-name="Path 5825" d="M22.09.091c1.56,0-18.722,1.744-20.539,0C.593-.826,0,5.516,0,5.516H22.09Z" transform="translate(60.617 28.803)" fill="none" stroke="#7993e8" stroke-miterlimit="10" stroke-width="0.5"/>
        <path id="Path_5827" data-name="Path 5827" d="M2.994,0S30.122,3.294,35.354,0c0,0-2.131,47.667-1.356,49.217,0,0-36,2.017-33.909,0C5.319,44.179,2.994,0,2.994,0Z" transform="translate(106.112 0.99)" fill="none" stroke="#7993e8" stroke-miterlimit="10" stroke-width="0.5"/>
        <path id="Path_5828" data-name="Path 5828" d="M0,0S5.824,9.078,7.8,9.929" transform="translate(113.612 9.813)" fill="#c7d4fe" stroke="#7993e8" stroke-miterlimit="10" stroke-width="0.5"/>
        <path id="Path_5829" data-name="Path 5829" d="M6.462,0S.852,7.138,0,9.557" transform="translate(114.934 9.859)" fill="#c7d4fe" stroke="#7993e8" stroke-miterlimit="10" stroke-width="0.5"/>
        <path id="Path_5830" data-name="Path 5830" d="M22.09,0H1.55C0,0,0,6.337,0,6.337H22.09Z" transform="translate(112.949 27.346)" fill="none" stroke="#7993e8" stroke-miterlimit="10" stroke-width="0.5"/>
        <path id="Path_5832" data-name="Path 5832" d="M22.09.122c1.56,0-18.722,2.355-20.539,0C.593-1.114,0,7.448,0,7.448H22.09Z" transform="translate(112.77 36.639)" fill="none" stroke="#7993e8" stroke-miterlimit="10" stroke-width="0.5"/>
        <path id="Path_5833" data-name="Path 5833" d="M0,0S30.073,2.223,32.007.746" transform="translate(109.269 4.625)" fill="none" stroke="#7993e8" stroke-miterlimit="10" stroke-width="0.5"/>
        <path id="Path_5835" data-name="Path 5835" d="M12.393,0a26.5,26.5,0,0,0,.682,6.3,40.972,40.972,0,0,1,.51,7.986Q6.8,14.695,0,14.481c.421.014.315-9.538.355-10.416C.407,2.941.166,1.007,1.476.585,2.852.137,4.789.414,6.234.345Q9.312.2,12.393,0Z" transform="translate(111.167 7.885)" fill="none" stroke="#7993e8" stroke-miterlimit="10" stroke-width="0.5"/>
        <path id="Path_5836" data-name="Path 5836" d="M0,.172s7.557-.388,8.913,0" transform="translate(40.318 22.714)" fill="#c7d4fe" stroke="#7993e8" stroke-miterlimit="10" stroke-width="0.5"/>
        <path id="Path_5837" data-name="Path 5837" d="M.969,0S4.263,3.294,4.263,4.069,0,7.557,0,7.557" transform="translate(48.263 18.817)" fill="#c7d4fe" stroke="#7993e8" stroke-miterlimit="10" stroke-width="0.5"/>
        <path id="Path_5838" data-name="Path 5838" d="M0,.172s7.557-.388,8.913,0" transform="translate(92.636 22.714)" fill="#c7d4fe" stroke="#7993e8" stroke-miterlimit="10" stroke-width="0.5"/>
        <path id="Path_5839" data-name="Path 5839" d="M.969,0S4.263,3.294,4.263,4.069,0,7.557,0,7.557" transform="translate(100.58 18.817)" fill="#c7d4fe" stroke="#7993e8" stroke-miterlimit="10" stroke-width="0.5"/>
        <path id="Path_5840" data-name="Path 5840" d="M.234.628.885.021.3,0,0,.465Z" transform="translate(123.142 30.645)" fill="#c7d4fe" stroke="#7993e8" stroke-width="0.5"/>
      </g>
      <g id="Group_813" data-name="Group 813" transform="matrix(0.999, -0.035, 0.035, 0.999, 27.408, 175.452)">
        <path id="Path_5815-2" data-name="Path 5815" d="M3.5,0S31.986,1.163,35.862,0c0,0-2.131,47.667-1.356,49.217,0,0-31.584,1.744-33.909,0S3.5,0,3.5,0Z" transform="translate(0 0.603)" fill="none" stroke="#7993e8" stroke-miterlimit="10" stroke-width="0.5"/>
        <path id="Path_5816-2" data-name="Path 5816" d="M0,0S13.176,20.927,17.633,22.865" transform="translate(7.765 9.516)" fill="none" stroke="#7993e8" stroke-miterlimit="10" stroke-width="0.5"/>
        <path id="Path_5817-2" data-name="Path 5817" d="M14.533,0S1.938,16.47,0,22.09" transform="translate(10.865 9.516)" fill="none" stroke="#7993e8" stroke-miterlimit="10" stroke-width="0.5"/>
        <path id="Path_5818-2" data-name="Path 5818" d="M0,0" transform="translate(7.765 40.326)" fill="#c7d4fe" stroke="#7993e8" stroke-miterlimit="10" stroke-width="0.5"/>
        <path id="Path_5819-2" data-name="Path 5819" d="M16.47,0H1.163C0,0,0,5.426,0,5.426H16.47Z" transform="translate(7.765 40.326)" fill="none" stroke="#7993e8" stroke-miterlimit="10" stroke-width="0.5"/>
        <path id="Path_5820-2" data-name="Path 5820" d="M2.928.6S30.249-.754,35.287.6c0,0-2.131,47.667-1.356,49.217,0,0-34.909,2.73-33.909,0C2.153,44.007,2.928.6,2.928.6Z" transform="translate(54.055 0)" fill="none" stroke="#7993e8" stroke-miterlimit="10" stroke-width="0.5"/>
        <path id="Path_5821-2" data-name="Path 5821" d="M0,0S6.08,9.659,8.138,10.553" transform="translate(67.63 4.238)" fill="#c7d4fe" stroke="#7993e8" stroke-miterlimit="10" stroke-width="0.5"/>
        <path id="Path_5822-2" data-name="Path 5822" d="M6.708,0S.9,7.6,0,10.2" transform="translate(69.06 4.238)" fill="#c7d4fe" stroke="#7993e8" stroke-miterlimit="10" stroke-width="0.5"/>
        <path id="Path_5823-2" data-name="Path 5823" d="M22.09,0H1.55C0,0,0,5.426,0,5.426H22.09Z" transform="translate(60.617 20.949)" fill="none" stroke="#7993e8" stroke-miterlimit="10" stroke-width="0.5"/>
        <path id="Path_5824-2" data-name="Path 5824" d="M16.47,0H1.163C0,0,0,5.426,0,5.426H16.47Z" transform="translate(63.433 38.194)" fill="none" stroke="#7993e8" stroke-miterlimit="10" stroke-width="0.5"/>
        <path id="Path_5825-2" data-name="Path 5825" d="M22.09.091c1.56,0-18.722,1.744-20.539,0C.593-.826,0,5.516,0,5.516H22.09Z" transform="translate(60.617 28.803)" fill="none" stroke="#7993e8" stroke-miterlimit="10" stroke-width="0.5"/>
        <path id="Path_5827-2" data-name="Path 5827" d="M2.994,0S30.122,3.294,35.354,0c0,0-2.131,47.667-1.356,49.217,0,0-36,2.017-33.909,0C5.319,44.179,2.994,0,2.994,0Z" transform="translate(106.112 0.99)" fill="none" stroke="#7993e8" stroke-miterlimit="10" stroke-width="0.5"/>
        <path id="Path_5828-2" data-name="Path 5828" d="M0,0S5.824,9.078,7.8,9.929" transform="translate(113.612 9.813)" fill="#c7d4fe" stroke="#7993e8" stroke-miterlimit="10" stroke-width="0.5"/>
        <path id="Path_5829-2" data-name="Path 5829" d="M6.462,0S.852,7.138,0,9.557" transform="translate(114.934 9.859)" fill="#c7d4fe" stroke="#7993e8" stroke-miterlimit="10" stroke-width="0.5"/>
        <path id="Path_5830-2" data-name="Path 5830" d="M22.09,0H1.55C0,0,0,6.337,0,6.337H22.09Z" transform="translate(112.949 27.346)" fill="none" stroke="#7993e8" stroke-miterlimit="10" stroke-width="0.5"/>
        <path id="Path_5832-2" data-name="Path 5832" d="M22.09.122c1.56,0-18.722,2.355-20.539,0C.593-1.114,0,7.448,0,7.448H22.09Z" transform="translate(112.77 36.639)" fill="none" stroke="#7993e8" stroke-miterlimit="10" stroke-width="0.5"/>
        <path id="Path_5833-2" data-name="Path 5833" d="M0,0S30.073,2.223,32.007.746" transform="translate(109.269 4.625)" fill="none" stroke="#7993e8" stroke-miterlimit="10" stroke-width="0.5"/>
        <path id="Path_5835-2" data-name="Path 5835" d="M12.393,0a26.5,26.5,0,0,0,.682,6.3,40.972,40.972,0,0,1,.51,7.986Q6.8,14.695,0,14.481c.421.014.315-9.538.355-10.416C.407,2.941.166,1.007,1.476.585,2.852.137,4.789.414,6.234.345Q9.312.2,12.393,0Z" transform="translate(111.167 7.885)" fill="none" stroke="#7993e8" stroke-miterlimit="10" stroke-width="0.5"/>
        <path id="Path_5836-2" data-name="Path 5836" d="M0,.172s7.557-.388,8.913,0" transform="translate(40.318 22.714)" fill="#c7d4fe" stroke="#7993e8" stroke-miterlimit="10" stroke-width="0.5"/>
        <path id="Path_5837-2" data-name="Path 5837" d="M.969,0S4.263,3.294,4.263,4.069,0,7.557,0,7.557" transform="translate(48.263 18.817)" fill="#c7d4fe" stroke="#7993e8" stroke-miterlimit="10" stroke-width="0.5"/>
        <path id="Path_5838-2" data-name="Path 5838" d="M0,.172s7.557-.388,8.913,0" transform="translate(92.636 22.714)" fill="#c7d4fe" stroke="#7993e8" stroke-miterlimit="10" stroke-width="0.5"/>
        <path id="Path_5839-2" data-name="Path 5839" d="M.969,0S4.263,3.294,4.263,4.069,0,7.557,0,7.557" transform="translate(100.58 18.817)" fill="#c7d4fe" stroke="#7993e8" stroke-miterlimit="10" stroke-width="0.5"/>
        <path id="Path_5840-2" data-name="Path 5840" d="M.234.628.885.021.3,0,0,.465Z" transform="translate(123.142 30.645)" fill="#c7d4fe" stroke="#7993e8" stroke-width="0.5"/>
      </g>
      <g id="Group_814" data-name="Group 814" transform="translate(33.276 277.915)">
        <path id="Path_5765" data-name="Path 5765" d="M1630.753,287.242s-5.057-2.858-4.287-10l4.287,2.528-4.367-5.936.63-2.638,3.738,1.869-3.627-4.947,2.858-5.387,3.737,5.936-3.668-7.145,3.668-3.957,2.081,4.821-1.369-5.408,6.646-5.538,2.867,5.994-5.082,3.974,5.6-2.541.586,4.626-6.059,2.346,6.32-.456-.456,3.127-6.972,2.215h6.32l-1.564,5.864h-5.668l5.017,1.564-2.346,3.258-4.952-1.433,3.193,3.062s-4.662,4.2-5.9,4.2" transform="translate(-1608.71 -251.437)" fill="#6bcb90"/>
        <path id="Path_5766" data-name="Path 5766" d="M1585.821,300s-5.424,2.077-10.442-3.067l4.679-1.694-7.357-.415-1.633-2.166,3.821-1.691-6.124-.354-2.332-5.635,6.957.9-7.844-1.725-.714-5.348,5.042,1.467-5.041-2.39-.036-8.651,6.447,1.608-.174,6.45,1.611-5.938,3.939,2.495-2.051,6.165,3.674-5.162,2.121,2.344-2.733,6.785,4.026-4.872,3.524,4.941-3.611,4.369,4.4-2.871,1.017,3.883-4.258,2.9,4.394-.51s.272,6.272-.515,7.225" transform="translate(-1564.798 -264.123)" fill="#4db475"/>
        <path id="Path_5767" data-name="Path 5767" d="M1658.643,332.855s-2.969-3.647-.281-8.807l2.487,3.171-1.541-5.764,1.252-1.8,2.267,2.511-1.275-4.8,3.743-3.218,1.067,5.578-.658-6.469,3.933-1.9.146,4.249.564-4.481,6.645-2.215.393,5.365-5,1.5,4.974-.263-.923,3.661-5.26-.019,4.9,1.52-1.267,2.224-5.909-.386,4.765,1.864-2.908,3.96-4.274-1.672,3.322,2.659-2.729,1.764-3.311-2.541,1.5,3.251s-4.755,1.8-5.687,1.431" transform="translate(-1630.707 -292.412)" fill="#90f8b8"/>
        <path id="Path_5768" data-name="Path 5768" d="M1621.668,367.99a80.723,80.723,0,0,1,4.857,28.738" transform="translate(-1605.347 -334.54)" fill="none" stroke="#4db475" stroke-miterlimit="10" stroke-width="1"/>
        <path id="Path_5769" data-name="Path 5769" d="M1639.865,366.3c-.681,3.564-1.356,7.915-1.822,12.953-.507,5.486-.637,10.385-.607,14.417" transform="translate(-1616.587 -333.333)" fill="none" stroke="#4db475" stroke-miterlimit="10" stroke-width="1"/>
        <path id="Path_5770" data-name="Path 5770" d="M1651.095,389.708a45.7,45.7,0,0,0-3.883,10,41.408,41.408,0,0,0-1.294,11.134" transform="translate(-1622.631 -350.025)" fill="none" stroke="#4db475" stroke-miterlimit="10" stroke-width="1"/>
        <path id="Path_5771" data-name="Path 5771" d="M1613.176,497.013a26.01,26.01,0,0,1-4.075-15.137c.233-9.315,2.911-21.907,2.911-21.907l12.832-.682s3.353,11.839,3.7,18.96-2.795,17.951-2.795,17.951Z" transform="translate(-1596.38 -399.636)" fill="#e8e8e8"/>
        <ellipse id="Ellipse_19" data-name="Ellipse 19" cx="6.416" cy="1.268" rx="6.416" ry="1.268" transform="translate(15.646 58.685)" fill="#e8e8e8"/>
      </g>
    </g>
  </g>
</svg>
