<svg xmlns="http://www.w3.org/2000/svg" width="90.202" height="13.798" viewBox="0 0 90.202 13.798">
  <g id="Group_1" data-name="Group 1" transform="translate(-916 -533.839)">
    <g id="Group_5241" data-name="Group 5241" transform="translate(837 497.678)">
      <g id="Group_5234" data-name="Group 5234" transform="translate(79 36.161)">
        <text id="design" transform="translate(60.202 9.189)" font-size="9" font-family="Helvetica-Bold, Helvetica" font-weight="700"><tspan x="0" y="0">design</tspan></text>
        <g id="Group_3413" data-name="Group 3413">
          <path id="Path_6024" data-name="Path 6024" d="M603.381,174.56h1.439v2.771a3.889,3.889,0,0,0,.11,1.124.98.98,0,0,0,.352.489.991.991,0,0,0,.6.175,1.041,1.041,0,0,0,.6-.172,1,1,0,0,0,.367-.505,3.992,3.992,0,0,0,.087-1.064V174.56h1.429V177a6.057,6.057,0,0,1-.235,2.063,2.257,2.257,0,0,1-.845,1.039,2.552,2.552,0,0,1-1.418.362,2.49,2.49,0,0,1-1.51-.423,2.238,2.238,0,0,1-.811-1.18,7.255,7.255,0,0,1-.167-1.9Z" transform="translate(-587.081 -170.531)"/>
          <path id="Path_6025" data-name="Path 6025" d="M820.984,174.56h1.653l1.111,1.571,1.126-1.571h1.638l-1.94,2.724,2.18,3.03H825.1l-1.351-1.888-1.335,1.888H820.78l2.149-3.03Z" transform="translate(-798.779 -170.531)"/>
          <path id="Path_6026" data-name="Path 6026" d="M1075.672,169.062h1.429v.661a2.438,2.438,0,0,1,.811-.608,2.345,2.345,0,0,1,.973-.2,1.788,1.788,0,0,1,.96.264,1.9,1.9,0,0,1,.688.772,2.316,2.316,0,0,1,.832-.772,2.24,2.24,0,0,1,1.077-.264,1.971,1.971,0,0,1,1.064.286,1.646,1.646,0,0,1,.66.745,4.048,4.048,0,0,1,.2,1.5v3.374h-1.434V171.9a2.525,2.525,0,0,0-.24-1.325.819.819,0,0,0-.72-.346,1.081,1.081,0,0,0-.656.212,1.258,1.258,0,0,0-.43.584,3.634,3.634,0,0,0-.141,1.2v2.6h-1.435v-2.787a3.988,3.988,0,0,0-.112-1.119,1.012,1.012,0,0,0-.337-.516.874.874,0,0,0-.542-.169,1.059,1.059,0,0,0-.644.214,1.273,1.273,0,0,0-.433.6,3.789,3.789,0,0,0-.143,1.216v2.56h-1.429Z" transform="translate(-1046.984 -165.033)"/>
          <path id="Path_6027" data-name="Path 6027" d="M1445.787,86.586h1.429V92.34h-1.429Zm.715-2.369a.868.868,0,0,1,.644.275.954.954,0,0,1,0,1.325.859.859,0,0,1-.637.272.87.87,0,0,1-.65-.278.934.934,0,0,1-.269-.674.891.891,0,0,1,.266-.65.867.867,0,0,1,.641-.269Z" transform="translate(-1407.204 -82.557)"/>
          <path id="Path_6028" data-name="Path 6028" d="M1556.57,169.117h1.419v.589a3.421,3.421,0,0,1,.879-.574,2.111,2.111,0,0,1,.806-.161,1.939,1.939,0,0,1,1.434.6,2.065,2.065,0,0,1,.5,1.5v3.8H1560.2v-2.525a6.455,6.455,0,0,0-.091-1.37.939.939,0,0,0-.318-.516.883.883,0,0,0-.561-.177,1.044,1.044,0,0,0-.743.294,1.565,1.565,0,0,0-.43.812,6.639,6.639,0,0,0-.063,1.169v2.311h-1.419Z" transform="translate(-1515.27 -165.088)"/>
          <path id="Path_6029" data-name="Path 6029" d="M1780.43,93.7h1.419v2.121h.845v1.243h-.845v4.511h-1.419V97.064h-.73V95.821h.73Z" transform="translate(-1732.548 -91.792)"/>
          <g id="uxmint_logo">
            <g id="Artboard1">
              <rect id="Rectangle_3567" data-name="Rectangle 3567" width="13.788" height="13.798" fill="none"/>
              <g id="Group_3412" data-name="Group 3412" transform="translate(0.209 0.316)">
                <path id="Path_8121" data-name="Path 8121" d="M18324.758,10479.857a6.62,6.62,0,1,0,6.484,5.263A6.625,6.625,0,0,0,18324.758,10479.857Zm0,.7a5.925,5.925,0,1,1-5.926,5.925,5.926,5.926,0,0,1,5.926-5.925Zm4.234,6.428a4.458,4.458,0,0,1-2.615,3.421,4.276,4.276,0,0,1-2.359.259,4.41,4.41,0,0,1-3.451-3.379,4.961,4.961,0,0,1-.027-1.682,3.584,3.584,0,0,1,.2-.664c.031-.051.035-.072.09-.1a.17.17,0,0,1,.127-.019l.053.029a.3.3,0,0,1,.043.05.169.169,0,0,1,.021.152,3.849,3.849,0,0,0,.107,2.018l.012.029a3.748,3.748,0,0,0,1.119,1.545,3.61,3.61,0,0,0,.848.532,3.538,3.538,0,0,0,.971.281,3.041,3.041,0,0,0,3.465-3.608,2.633,2.633,0,0,0-1.5-1.89,2.319,2.319,0,0,0-1.961-.031,1.6,1.6,0,0,0-.811,2.03.9.9,0,0,0,.92.571.35.35,0,0,0,.3-.3.782.782,0,0,1,.1-.3.8.8,0,0,1,.619-.394h.16a.534.534,0,0,1,.156.035.8.8,0,0,1,.506.533.757.757,0,0,1,.023.311,1.9,1.9,0,0,1-1.1,1.5,2.483,2.483,0,0,1-2.758-.962,2.628,2.628,0,0,1-.457-2.362,3.244,3.244,0,0,1,2.379-2.266,3.446,3.446,0,0,1,.818-.1,4.087,4.087,0,0,1,2.816,1.159,4.239,4.239,0,0,1,1.178,3.592Z" transform="translate(-18318.133 -10479.857)" fill-rule="evenodd"/>
              </g>
            </g>
          </g>
        </g>
        <path id="Ellipse_800" data-name="Ellipse 800" d="M1.5,0A1.5,1.5,0,1,1,0,1.5,1.5,1.5,0,0,1,1.5,0Z" transform="translate(54 6.498)"/>
      </g>
    </g>
  </g>
</svg>
