<svg xmlns="http://www.w3.org/2000/svg" width="90.202" height="13.798" viewBox="0 0 90.202 13.798">
  <g id="Group_5241" data-name="Group 5241" transform="translate(-79 -36.161)">
    <g id="Group_5234" data-name="Group 5234" transform="translate(79 36.161)">
      <text id="design" transform="translate(60.202 9.189)" fill="#898989" font-size="9" font-family="Helvetica-Bold, Helvetica" font-weight="700"><tspan x="0" y="0">design</tspan></text>
      <g id="Group_3413" data-name="Group 3413">
        <path id="Path_6024" data-name="Path 6024" d="M603.381,174.56h1.439v2.771a3.892,3.892,0,0,0,.11,1.124.98.98,0,0,0,.352.489.991.991,0,0,0,.6.175,1.041,1.041,0,0,0,.6-.172,1,1,0,0,0,.367-.505,3.994,3.994,0,0,0,.087-1.064V174.56h1.429V177a6.058,6.058,0,0,1-.235,2.063,2.257,2.257,0,0,1-.845,1.039,2.552,2.552,0,0,1-1.418.362,2.49,2.49,0,0,1-1.51-.423,2.239,2.239,0,0,1-.811-1.18,7.255,7.255,0,0,1-.167-1.9Z" transform="translate(-587.081 -170.531)" fill="#20a8a8"/>
        <path id="Path_6025" data-name="Path 6025" d="M820.984,174.56h1.653l1.111,1.571,1.126-1.571h1.638l-1.94,2.724,2.18,3.03H825.1l-1.351-1.888-1.335,1.888H820.78l2.149-3.03Z" transform="translate(-798.779 -170.531)" fill="#20a8a8"/>
        <path id="Path_6026" data-name="Path 6026" d="M1075.672,169.062h1.429v.661a2.439,2.439,0,0,1,.811-.608,2.345,2.345,0,0,1,.973-.2,1.788,1.788,0,0,1,.96.264,1.9,1.9,0,0,1,.688.772,2.315,2.315,0,0,1,.832-.772,2.241,2.241,0,0,1,1.077-.264,1.971,1.971,0,0,1,1.064.286,1.647,1.647,0,0,1,.66.745,4.048,4.048,0,0,1,.2,1.5v3.374h-1.434V171.9a2.526,2.526,0,0,0-.24-1.325.819.819,0,0,0-.72-.346,1.081,1.081,0,0,0-.656.212,1.258,1.258,0,0,0-.43.584,3.635,3.635,0,0,0-.141,1.2v2.6h-1.435v-2.787a3.99,3.99,0,0,0-.112-1.119,1.011,1.011,0,0,0-.337-.516.874.874,0,0,0-.542-.169,1.059,1.059,0,0,0-.644.214,1.273,1.273,0,0,0-.433.6,3.786,3.786,0,0,0-.143,1.216v2.56h-1.429Z" transform="translate(-1046.984 -165.033)" fill="#20a8a8"/>
        <path id="Path_6027" data-name="Path 6027" d="M1445.787,86.586h1.429V92.34h-1.429Zm.715-2.369a.868.868,0,0,1,.644.275.918.918,0,0,1,.269.666.909.909,0,0,1-.266.659.859.859,0,0,1-.637.272.87.87,0,0,1-.65-.278.934.934,0,0,1-.269-.674.891.891,0,0,1,.266-.65.867.867,0,0,1,.641-.269Z" transform="translate(-1407.204 -82.557)" fill="#20a8a8"/>
        <path id="Path_6028" data-name="Path 6028" d="M1556.57,169.117h1.419v.589a3.421,3.421,0,0,1,.879-.574,2.112,2.112,0,0,1,.806-.161,1.939,1.939,0,0,1,1.434.6,2.066,2.066,0,0,1,.5,1.5v3.8h-1.408v-2.525a6.458,6.458,0,0,0-.091-1.37.939.939,0,0,0-.318-.516.884.884,0,0,0-.561-.177,1.044,1.044,0,0,0-.743.294,1.566,1.566,0,0,0-.43.812,6.633,6.633,0,0,0-.063,1.169v2.311h-1.419Z" transform="translate(-1515.27 -165.088)" fill="#20a8a8"/>
        <path id="Path_6029" data-name="Path 6029" d="M1780.43,93.7h1.419v2.121h.845v1.243h-.845v4.511h-1.419V97.064h-.73V95.821h.73Z" transform="translate(-1732.548 -91.792)" fill="#20a8a8"/>
        <g id="uxmint_logo">
          <g id="Artboard1">
            <rect id="Rectangle_3567" data-name="Rectangle 3567" width="13.788" height="13.798" transform="translate(0 0)" fill="none"/>
            <g id="Group_3412" data-name="Group 3412" transform="translate(0.209 0.316)">
              <path id="Path_8121" data-name="Path 8121" d="M18324.758,10479.857a6.625,6.625,0,1,0,6.625,6.625,6.519,6.519,0,0,0-.141-1.362A6.63,6.63,0,0,0,18324.758,10479.857Zm0,.7a5.925,5.925,0,1,1-5.926,5.926A5.933,5.933,0,0,1,18324.758,10480.557Zm4.234,6.428a4.455,4.455,0,0,1-2.617,3.422,4.278,4.278,0,0,1-2.357.259,4.41,4.41,0,0,1-3.451-3.38,4.961,4.961,0,0,1-.027-1.682,3.6,3.6,0,0,1,.2-.664c.031-.051.035-.072.09-.1a.167.167,0,0,1,.125-.019l.055.029a.3.3,0,0,1,.043.05.175.175,0,0,1,.02.152,3.829,3.829,0,0,0,.109,2.018l.012.029a3.72,3.72,0,0,0,1.117,1.545,3.594,3.594,0,0,0,.85.533,3.517,3.517,0,0,0,.971.28,3.177,3.177,0,0,0,1.621-.183,3.14,3.14,0,0,0,1.848-3.426,2.635,2.635,0,0,0-1.5-1.89,2.315,2.315,0,0,0-1.961-.032,1.6,1.6,0,0,0-.812,2.03.906.906,0,0,0,.922.573.348.348,0,0,0,.3-.3.762.762,0,0,1,.1-.3.8.8,0,0,1,.621-.393c.055,0,.105,0,.16,0s.105.02.156.035a.8.8,0,0,1,.506.533.76.76,0,0,1,.023.311,1.893,1.893,0,0,1-1.1,1.5,2.48,2.48,0,0,1-2.758-.963,2.629,2.629,0,0,1-.455-2.361,3.238,3.238,0,0,1,2.377-2.267,3.508,3.508,0,0,1,.816-.095,4.086,4.086,0,0,1,2.82,1.157A4.233,4.233,0,0,1,18328.992,10486.984Z" transform="translate(-18318.133 -10479.857)" fill="#20a8a8" fill-rule="evenodd"/>
            </g>
          </g>
        </g>
      </g>
      <circle id="Ellipse_800" data-name="Ellipse 800" cx="1.5" cy="1.5" r="1.5" transform="translate(54 6.498)" fill="#898989"/>
    </g>
  </g>
</svg>
