<svg xmlns="http://www.w3.org/2000/svg" width="38.801" height="35.141" viewBox="0 0 38.801 35.141">
  <g id="Group_2858" data-name="Group 2858" transform="translate(-285.25 -1155.171)">
    <line id="Line_108" data-name="Line 108" y2="11.606" transform="translate(304.651 1177.496)" fill="#f7a1c2" stroke="#707070" stroke-miterlimit="10" stroke-width="1.5"/>
    <line id="Line_109" data-name="Line 109" x2="5.802" transform="translate(301.803 1188.885)" fill="#f7a1c2" stroke="#707070" stroke-miterlimit="10" stroke-width="1.5"/>
    <path id="Path_572" data-name="Path 572" d="M518.74,168.634" transform="translate(-222.998 1020.547)" fill="none" stroke="#707070" stroke-miterlimit="10" stroke-width="1.5"/>
    <path id="Path_573" data-name="Path 573" d="M518.779,170.091" transform="translate(-223.015 1019.947)" fill="none" stroke="#707070" stroke-miterlimit="10" stroke-width="1.5"/>
    <path id="Path_574" data-name="Path 574" d="M511.948,151.864v-9.255h-7.287s-2.478-.805-2.478-2.477V129.811s.28-2.847,2.847-2.847a24.937,24.937,0,0,1,3.961.249s1.514.175,1.514,3.028.058,5.431.058,5.431l6.948.08v2.678h-10.4v.8h7.084s1.687.195,1.687,1.687v10.95Z" transform="translate(-216.184 1037.699)" fill="none" stroke="#707070" stroke-miterlimit="10" stroke-width="1.5"/>
    <path id="Path_575" data-name="Path 575" d="M545.091,151.864v-9.255h7.287s2.477-.805,2.477-2.477V129.811s-.279-2.847-2.847-2.847a24.946,24.946,0,0,0-3.961.249s-1.514.175-1.514,3.028-.058,5.431-.058,5.431l-6.948.08v2.678h10.4v.8h-7.084s-1.687.195-1.687,1.687v10.95Z" transform="translate(-231.555 1037.699)" fill="none" stroke="#707070" stroke-miterlimit="10" stroke-width="1.5"/>
    <path id="Path_576" data-name="Path 576" d="M528.7,147.973V146h-3.164v1.973Z" transform="translate(-222.258 1029.863)" fill="none" stroke="#707070" stroke-miterlimit="10" stroke-width="1.5"/>
    <path id="Path_577" data-name="Path 577" d="M525.9,122.926v-5.773h9.827v5.773h-3.9l-1.135,1.135-1-1H525.9Z" transform="translate(-225.947 1041.737)" fill="none" stroke="#1ed69f" stroke-linecap="round" stroke-linejoin="round" stroke-width="1.5"/>
    <ellipse id="Ellipse_262" data-name="Ellipse 262" cx="0.683" cy="0.683" rx="0.683" ry="0.683" transform="translate(301.697 1161.237)" fill="none" stroke="#1ed69f" stroke-width="1.5"/>
    <ellipse id="Ellipse_263" data-name="Ellipse 263" cx="0.683" cy="0.683" rx="0.683" ry="0.683" transform="translate(304.247 1161.237)" fill="none" stroke="#1ed69f" stroke-width="1.5"/>
    <ellipse id="Ellipse_264" data-name="Ellipse 264" cx="0.683" cy="0.683" rx="0.683" ry="0.683" transform="translate(306.883 1161.237)" fill="none" stroke="#1ed69f" stroke-width="1.5"/>
    <ellipse id="Ellipse_260" data-name="Ellipse 260" cx="3.558" cy="3.558" rx="3.558" ry="3.558" transform="translate(287.331 1155.921)" fill="none" stroke="#707070" stroke-linecap="round" stroke-linejoin="round" stroke-width="1.5"/>
    <ellipse id="Ellipse_261" data-name="Ellipse 261" cx="3.558" cy="3.558" rx="3.558" ry="3.558" transform="translate(315.549 1155.921)" fill="none" stroke="#707070" stroke-linecap="round" stroke-linejoin="round" stroke-width="1.5"/>
  </g>
</svg>
