<svg xmlns="http://www.w3.org/2000/svg" width="455.379" height="352.236" viewBox="0 0 455.379 352.236">
  <g id="Group_5429" data-name="Group 5429" transform="translate(-779.012 -2978.001)">
    <g id="Group_5364" data-name="Group 5364" transform="translate(770 2980)">
      <g id="Group_5327" data-name="Group 5327" transform="translate(10 19)">
        <path id="Union_27" data-name="Union 27" d="M92.29,136.127a62.346,62.346,0,0,1-28.886.144l-7.575,17.2-19.548-9.2,7.378-16.485a61.68,61.68,0,0,1-16.393-15.811L8.413,119.682.783,99.558,18.12,92.59a61.361,61.361,0,0,1-.829-28.268L0,57.495,8.564,37.744l16.7,6.71a61.655,61.655,0,0,1,18.375-18.8L36.281,8.945,54.908,0l7.758,17.335a62.323,62.323,0,0,1,30.357.151L100.85,0l18.627,8.945L111.966,26a61.6,61.6,0,0,1,19.406,21.072L148,40.39l7.151,19.3-16.92,6.918a61.472,61.472,0,0,1-.536,23.01l18.094,7.269-8.337,18.827L129.934,108.8a61.642,61.642,0,0,1-17.988,18.644l7.531,16.827-19.548,9.2Z" transform="translate(0)" fill="#bcfff8"/>
      </g>
    </g>
    <circle id="Ellipse_1069" data-name="Ellipse 1069" cx="36" cy="36" r="36" transform="translate(822 3040)" fill="#fff"/>
    <g id="Group_3380" data-name="Group 3380" transform="translate(1106.036 2977.597)">
      <rect id="Rectangle_880" data-name="Rectangle 880" width="79" height="131" rx="12" transform="translate(16.964 0.404)" fill="#41e5d3"/>
      <rect id="Rectangle_881" data-name="Rectangle 881" width="69" height="119" rx="12" transform="translate(21.964 6.404)" fill="#fff"/>
      <rect id="Rectangle_882" data-name="Rectangle 882" width="73" height="14" rx="3.714" transform="translate(36.964 25.404)" fill="#fff" stroke="#3cc3b4" stroke-width="2"/>
      <rect id="Rectangle_883" data-name="Rectangle 883" width="73" height="16" rx="3.714" transform="translate(-0.036 52.404)" fill="#fff" stroke="#3cc3b4" stroke-width="2"/>
      <rect id="Rectangle_884" data-name="Rectangle 884" width="11" height="11" rx="2.023" transform="translate(39.964 27.404)" fill="#80eee0"/>
      <rect id="Rectangle_885" data-name="Rectangle 885" width="11" height="9" rx="2.023" transform="translate(3.964 55.404)" fill="#80eee0"/>
      <line id="Line_155" data-name="Line 155" x2="44" transform="translate(53.964 31.404)" fill="none" stroke="#80eee0" stroke-miterlimit="10" stroke-width="2"/>
      <line id="Line_156" data-name="Line 156" x2="44" transform="translate(53.964 35.404)" fill="none" stroke="#80eee0" stroke-miterlimit="10" stroke-width="2"/>
      <line id="Line_157" data-name="Line 157" x2="44" transform="translate(20.964 57.404)" fill="none" stroke="#80eee0" stroke-miterlimit="10" stroke-width="2"/>
      <line id="Line_158" data-name="Line 158" x2="44" transform="translate(20.964 61.404)" fill="none" stroke="#80eee0" stroke-miterlimit="10" stroke-width="2"/>
    </g>
    <g id="Group_5362" data-name="Group 5362" transform="translate(-192 -115.25)">
      <path id="Path_12690" data-name="Path 12690" d="M14.556,19.441S-.852,15.437.037,0" transform="translate(980.495 3356.381) rotate(19)" fill="none" stroke="#3cc3b4" stroke-width="5"/>
      <path id="Path_12691" data-name="Path 12691" d="M14.556,19.442S-.852,15.437.037,0" transform="matrix(-0.656, 0.755, -0.755, -0.656, 1012.41, 3347.595)" fill="none" stroke="#3cc3b4" stroke-width="5"/>
      <path id="Path_12692" data-name="Path 12692" d="M14.556,19.442S-.852,15.437.037,0" transform="translate(1000.403 3379.732) rotate(-90)" fill="none" stroke="#3cc3b4" stroke-width="5"/>
      <path id="Polygon_13" data-name="Polygon 13" d="M8.006,0l8.006,13.251H0Z" transform="translate(976.416 3344.896) rotate(19)" fill="#3cc3b4"/>
      <path id="Polygon_14" data-name="Polygon 14" d="M7.947,0l7.947,13.712H0Z" transform="matrix(-0.656, 0.755, -0.755, -0.656, 1024.783, 3348.287)" fill="#3cc3b4"/>
      <path id="Polygon_15" data-name="Polygon 15" d="M7.947,0l7.947,13.712H0Z" transform="translate(990.61 3387.326) rotate(-90)" fill="#3cc3b4"/>
    </g>
    <rect id="Rectangle_880-2" data-name="Rectangle 880" width="347" height="224" rx="12" transform="translate(851 3065)" fill="#3cc3b4" stroke="#41e5d3" stroke-width="1"/>
    <rect id="Rectangle_881-2" data-name="Rectangle 881" width="330" height="200" rx="12" transform="translate(858 3076)" fill="#fff" stroke="#41e5d3" stroke-width="1"/>
    <g id="Rectangle_3577" data-name="Rectangle 3577" transform="translate(878 3096)" fill="none" stroke="#3cc3b4" stroke-width="3">
      <rect width="95" height="169" stroke="none"/>
      <rect x="1.5" y="1.5" width="92" height="166" fill="none"/>
    </g>
    <rect id="Rectangle_882-2" data-name="Rectangle 882" width="170" height="46" rx="3.714" transform="translate(1001 3103)" fill="none" stroke="#3cc3b4" stroke-width="3"/>
    <rect id="Rectangle_883-2" data-name="Rectangle 883" width="170" height="41" rx="3.714" transform="translate(1001 3168)" fill="none" stroke="#3cc3b4" stroke-width="3"/>
    <rect id="Rectangle_884-2" data-name="Rectangle 884" width="36" height="25" rx="2.023" transform="translate(1008 3113)" fill="#3cc3b4" opacity="0.195"/>
    <rect id="Rectangle_885-2" data-name="Rectangle 885" width="34" height="28" rx="2.023" transform="translate(1010 3175)" fill="#3cc3b4" opacity="0.195"/>
    <line id="Line_155-2" data-name="Line 155" x2="109" transform="translate(1054.5 3121)" fill="none" stroke="#3cc3b4" stroke-miterlimit="10" stroke-width="2"/>
    <line id="Line_156-2" data-name="Line 156" x2="109" transform="translate(1054.5 3134)" fill="none" stroke="#3cc3b4" stroke-miterlimit="10" stroke-width="2"/>
    <line id="Line_157-2" data-name="Line 157" x2="102" transform="translate(1054.5 3184)" fill="none" stroke="#3cc3b4" stroke-miterlimit="10" stroke-width="2"/>
    <line id="Line_158-2" data-name="Line 158" x2="102" transform="translate(1054.5 3196)" fill="none" stroke="#3cc3b4" stroke-miterlimit="10" stroke-width="2"/>
    <g id="Group_5361" data-name="Group 5361" transform="translate(147 -352.309)" opacity="0.306">
      <circle id="Ellipse_456" data-name="Ellipse 456" cx="7" cy="7" r="7" transform="translate(761 3517.309)" fill="#06baa7"/>
      <circle id="Ellipse_458" data-name="Ellipse 458" cx="7" cy="7" r="7" transform="translate(761 3564.309)" fill="#06baa7"/>
      <line id="Line_585" data-name="Line 585" x1="30.376" y2="31.501" transform="translate(766.825 3494.152)" fill="none" stroke="#06baa7" stroke-width="3"/>
      <line id="Line_586" data-name="Line 586" x1="30.376" y1="13.5" transform="translate(766.825 3525.648)" fill="none" stroke="#06baa7" stroke-width="3"/>
      <line id="Line_587" data-name="Line 587" x1="29.251" y2="30.376" transform="translate(767.951 3539.155)" fill="none" stroke="#06baa7" stroke-width="3"/>
      <ellipse id="Ellipse_454" data-name="Ellipse 454" cx="7.5" cy="7" rx="7.5" ry="7" transform="translate(789 3487.309)" fill="#06baa7"/>
    </g>
    <g id="Group_5363" data-name="Group 5363" transform="translate(1125.741 3230)">
      <path id="Path_12670" data-name="Path 12670" d="M-3207.081,14926.725l-39.15-36.5" transform="translate(3308.663 -14833.556)" fill="#fff" stroke="#41e5d3" stroke-linecap="round" stroke-width="10"/>
      <g id="Ellipse_1065" data-name="Ellipse 1065" fill="#fff" stroke="#41e5d3" stroke-width="10">
        <ellipse cx="37.535" cy="36.374" rx="37.535" ry="36.374" stroke="none"/>
        <ellipse cx="37.535" cy="36.374" rx="32.535" ry="31.374" fill="none"/>
      </g>
    </g>
  </g>
</svg>
