<svg xmlns="http://www.w3.org/2000/svg" width="102.845" height="37.775" viewBox="0 0 102.845 37.775">
  <g id="fca" transform="translate(1084.048 1287.214)">
    <path id="Path_9336" data-name="Path 9336" d="M-743.261-1270.851c-.6,0-1.209-.032-1.81.01-.521.036-.741-.187-.928-.654a8.017,8.017,0,0,0-7.466-4.966,8.051,8.051,0,0,0-7.912,7.225,7.982,7.982,0,0,0,7.761,8.673,7.946,7.946,0,0,0,7.7-5.1.718.718,0,0,1,.783-.527c1.226.014,2.453,0,3.679.007.666,0,.735.106.579.776a12.931,12.931,0,0,1-10.673,9.614,12.965,12.965,0,0,1-13.19-6.531,12.865,12.865,0,0,1,1.5-14.467,13.007,13.007,0,0,1,16.691-2.553,12.632,12.632,0,0,1,5.7,7.887c.121.483,0,.636-.485.616C-741.976-1270.871-742.619-1270.851-743.261-1270.851Z" transform="translate(-280.616 -5.223)" fill="#776f3d"/>
    <path id="Path_9337" data-name="Path 9337" d="M-980.194-1259.561q0-5.4,0-10.8c0-.795.015-.808.823-.809h20.612c.769,0,.786.018.788.783q0,1.635,0,3.27c0,.754-.023.775-.8.775H-974.3c-.971,0-.972,0-.972.951,0,1.265.022,2.531-.01,3.8-.014.571.2.731.75.729,4.9-.016,9.81-.009,14.715-.009.929,0,.93,0,.931.939,0,1.07-.028,2.142.011,3.211.022.592-.183.773-.769.77-4.944-.018-9.888-.01-14.832-.01-.8,0-.8,0-.8.778q0,3.27,0,6.54c0,.72-.036.751-.763.753q-1.664,0-3.328,0c-.821,0-.827-.007-.827-.866Q-980.2-1254.16-980.194-1259.561Z" transform="translate(-91.72 -14.168)" fill="#776f3d"/>
    <path id="Path_9338" data-name="Path 9338" d="M-527.278-1262.06c-.642,0-1.288-.038-1.926.012a1.182,1.182,0,0,1-1.253-.7c-1.512-2.654-3.061-5.287-4.6-7.927-1.253-2.152-2.513-4.3-3.753-6.46-.226-.393-.335-.45-.588-.014-2.8,4.833-5.614,9.654-8.41,14.488a1.061,1.061,0,0,1-1.065.616c-1.439-.034-2.88-.018-4.32-.008-.435,0-.636-.041-.345-.54q5.344-9.147,10.663-18.309,1.7-2.926,3.4-5.855c.352-.6.382-.6.725-.013q5.932,10.19,11.859,20.382c.744,1.278,1.478,2.562,2.236,3.832.237.4.133.508-.291.5C-525.721-1262.068-526.5-1262.06-527.278-1262.06Z" transform="translate(-468.411 0)" fill="#776f3d"/>
    <path id="Path_9339" data-name="Path 9339" d="M-362.907-1000.918c0-.584.007-1.167,0-1.751-.007-.394.166-.565.563-.552.564.018,1.13-.019,1.692.02a1.136,1.136,0,0,1,.953,1.8c-.162.27-.162.394.069.62a1.134,1.134,0,0,1-.47,1.95,6.644,6.644,0,0,1-2.431.162c-.3-.013-.368-.247-.37-.5,0-.584,0-1.167,0-1.751Zm1.581,1.677a2.686,2.686,0,0,0,.922-.1.674.674,0,0,0,.512-.692c0-.362-.247-.5-.54-.6a4.594,4.594,0,0,0-1.156-.1c-.483-.039-.652.166-.645.643C-362.222-999.262-362.218-999.238-361.326-999.24Zm.118-2.074a4.025,4.025,0,0,0,.461-.027.631.631,0,0,0,.609-.591.628.628,0,0,0-.507-.679,2.428,2.428,0,0,0-.8-.091c-.744,0-.771.057-.788.776S-361.756-1001.327-361.209-1001.315Z" transform="translate(-636.885 -250.813)" fill="#776f3d"/>
    <path id="Path_9340" data-name="Path 9340" d="M-456.25-1001.975c-.486.7-.88,1.25-1.249,1.813-.221.337-.382.313-.59-.008a8.717,8.717,0,0,0-1.2-1.532c0,.75,0,1.5,0,2.249,0,.194-.005.39-.024.583a.3.3,0,0,1-.294.3.305.305,0,0,1-.345-.315c-.02-.271-.021-.544-.022-.817,0-.935,0-1.869,0-2.8,0-.227-.034-.5.277-.569a.524.524,0,0,1,.58.3c.353.537.73,1.059,1.06,1.609.222.371.351.309.55-.01.328-.529.685-1.041,1.031-1.559.134-.2.287-.392.563-.329.319.072.26.351.261.573q.011,1.694,0,3.388c0,.224.047.525-.3.531s-.3-.294-.306-.52C-456.254-1000-456.25-1000.9-456.25-1001.975Z" transform="translate(-551.162 -250.934)" fill="#776f3d"/>
    <path id="Path_9341" data-name="Path 9341" d="M-677.754-1003.281c.292,0,.585-.017.875,0a1.387,1.387,0,0,1,1.307,1.06,1.256,1.256,0,0,1-.7,1.456c-.322.171-.333.3-.123.562.244.3.467.622.683.945.087.13.326.272.143.438a.422.422,0,0,1-.623-.089,6.42,6.42,0,0,1-.688-.941,1.1,1.1,0,0,0-1.192-.623c-.31.037-.465.147-.459.465.005.272,0,.545-.006.817,0,.2-.013.42-.287.416-.257,0-.306-.208-.308-.413-.007-.681-.007-1.362-.008-2.042,0-.447.027-.9-.007-1.342-.044-.569.2-.784.746-.726a6.177,6.177,0,0,0,.642,0Zm.129,2.22a2.072,2.072,0,0,0,.968-.13.8.8,0,0,0,.186-1.31,3.524,3.524,0,0,0-1.87-.131.414.414,0,0,0-.146.168A.908.908,0,0,0-677.625-1001.061Z" transform="translate(-357.595 -250.741)" fill="#776f3d"/>
    <path id="Path_9342" data-name="Path 9342" d="M-859.131-1000.924c0-.584.007-1.168,0-1.752-.006-.372.161-.529.529-.522.564.012,1.13-.01,1.694.013a1.346,1.346,0,0,1,1.272.942,1.261,1.261,0,0,1-.615,1.547c-.335.193-.346.352-.128.626a10.048,10.048,0,0,1,.611.855c.1.155.4.326.119.521-.215.15-.45.019-.607-.189-.269-.358-.534-.719-.8-1.078a.917.917,0,0,0-.435-.372c-.691-.228-1.028.007-1.034.73,0,.117.007.234,0,.35-.021.24.05.576-.325.568-.345-.007-.267-.327-.271-.544-.012-.564,0-1.129,0-1.694Zm1.565-1.687c-.988.009-.99.011-.963,1.021,0,.1,0,.194.013.29.018.172.1.3.284.311a3.827,3.827,0,0,0,1.495-.087.743.743,0,0,0,.528-.806.693.693,0,0,0-.662-.685A6.374,6.374,0,0,0-857.566-1002.612Z" transform="translate(-198.635 -250.834)" fill="#776f3d"/>
    <path id="Path_9343" data-name="Path 9343" d="M-409.847-1004.058a2.31,2.31,0,0,1,2.306,2.355,2.313,2.313,0,0,1-2.271,2.337,2.2,2.2,0,0,1-2.3-2.315A2.281,2.281,0,0,1-409.847-1004.058Zm1.614,2.353a1.607,1.607,0,0,0-1.613-1.753,1.672,1.672,0,0,0-1.652,1.749,1.661,1.661,0,0,0,1.654,1.739A1.559,1.559,0,0,0-408.233-1001.7Z" transform="translate(-593.432 -250.075)" fill="#776f3d"/>
    <path id="Path_9344" data-name="Path 9344" d="M-899.082-1000.843c0,.6,0,1.2,0,1.807,0,.223-.042.448-.333.454s-.321-.227-.338-.446c-.009-.116-.006-.233-.007-.349-.008-1.355.129-1.222-1.212-1.23h-.35c-.777,0-.784.012-.79.775,0,.291,0,.583-.013.874-.01.214-.09.385-.345.378a.31.31,0,0,1-.31-.352q-.008-1.893.005-3.787a.328.328,0,0,1,.367-.362c.227.013.279.185.285.37.011.33.016.66.012.99s.136.514.483.507c.136,0,.272.009.408,0,.444-.021.978.169,1.311-.078.368-.273.079-.833.15-1.261.039-.233-.045-.564.345-.551.367.013.331.322.334.568.008.563,0,1.127,0,1.69Z" transform="translate(-160.085 -250.919)" fill="#776f3d"/>
    <path id="Path_9345" data-name="Path 9345" d="M-508.109-1001.714a2.287,2.287,0,0,1,2.3-2.345,2.3,2.3,0,0,1,2.272,2.331,2.3,2.3,0,0,1-2.357,2.361A2.22,2.22,0,0,1-508.109-1001.714Zm2.26,1.744a1.642,1.642,0,0,0,1.675-1.707,1.714,1.714,0,0,0-1.684-1.785,1.67,1.67,0,0,0-1.637,1.694A1.668,1.668,0,0,0-505.849-999.97Z" transform="translate(-508.65 -250.074)" fill="#776f3d"/>
    <path id="Path_9346" data-name="Path 9346" d="M-268.909-1000.97c0-.544.008-1.089,0-1.633-.008-.435.166-.641.623-.629.738.02,1.477,0,2.216.01.188,0,.436-.015.445.255.01.294-.252.245-.432.248-.544.011-1.089.023-1.633,0-.526-.02-.538.308-.535.688s0,.719.528.7c.408-.012.817-.007,1.225.006.226.007.533-.023.544.295.012.347-.307.282-.526.288-.408.013-.817.023-1.224,0-.573-.031-.551.348-.545.734.006.37-.063.773.524.754.563-.018,1.127,0,1.691,0,.2,0,.423.005.418.283-.005.261-.223.3-.422.3-.8.007-1.594,0-2.391,0-.382,0-.506-.216-.5-.56C-268.907-999.8-268.909-1000.387-268.909-1000.97Z" transform="translate(-719.9 -250.804)" fill="#776f3d"/>
    <path id="Path_9347" data-name="Path 9347" d="M-715.5-1003.221c.37,0,.74-.006,1.109,0,.19,0,.435-.01.42.273-.012.237-.234.227-.405.23-.526.008-1.053.033-1.576,0-.552-.037-.638.241-.641.709,0,.491.145.727.668.693.426-.028.856-.005,1.284.006.183,0,.366.054.368.285s-.175.283-.363.287c-.447.008-.9.035-1.342,0-.582-.042-.617.3-.608.735.008.412-.02.795.584.759.524-.031,1.051-.01,1.576,0,.207,0,.475-.028.49.276s-.25.3-.46.307c-.759.008-1.518,0-2.277,0-.37,0-.521-.17-.519-.536.009-1.148.011-2.3,0-3.445,0-.419.156-.612.585-.592C-716.244-1003.208-715.874-1003.222-715.5-1003.221Z" transform="translate(-323.989 -250.808)" fill="#776f3d"/>
    <path id="Path_9348" data-name="Path 9348" d="M-619.211-1000.384c-.337,0-.533.018-.725,0a.724.724,0,0,0-.866.583,1.412,1.412,0,0,1-.243.458.322.322,0,0,1-.426.065c-.157-.089-.1-.236-.046-.361.585-1.313,1.163-2.629,1.768-3.933.181-.39.552-.389.741.011.613,1.3,1.192,2.616,1.783,3.926.056.125.119.265-.042.358a.345.345,0,0,1-.386-.031.451.451,0,0,1-.181-.219A1.043,1.043,0,0,0-619.211-1000.384Zm-.153-.6c.1,0,.193-.008.289,0,.5.049.57-.156.361-.569-.173-.344-.31-.706-.47-1.056-.124-.272-.26-.257-.38,0-.161.35-.3.711-.477,1.053-.234.452-.065.6.387.567C-619.557-1000.991-619.461-1000.985-619.364-1000.985Z" transform="translate(-408.441 -250.243)" fill="#776f3d"/>
    <path id="Path_9349" data-name="Path 9349" d="M-1028.347-999.531c.007.221-.123.271-.3.254a.372.372,0,0,1-.342-.279c-.185-.925-.871-.891-1.571-.849a4.515,4.515,0,0,1-.582,0,.645.645,0,0,0-.755.481,1.974,1.974,0,0,1-.208.415c-.109.182-.273.307-.484.21-.241-.111-.094-.3-.031-.449.552-1.262,1.1-2.526,1.674-3.778.215-.467.594-.488.806-.039.6,1.281,1.17,2.579,1.749,3.871A1.131,1.131,0,0,1-1028.347-999.531Zm-2.211-3.411c-.153.316-.264.539-.371.765-.587,1.246-.587,1.246.8,1.173.039,0,.078,0,.116,0,.229,0,.334-.088.229-.322A10.581,10.581,0,0,0-1030.558-1002.943Z" transform="translate(-45.327 -250.224)" fill="#776f3d"/>
    <path id="Path_9350" data-name="Path 9350" d="M-230.016-999.346a2.689,2.689,0,0,1-1.481-.461c-.169-.1-.341-.23-.2-.467.15-.253.34-.2.535-.048a1.745,1.745,0,0,0,1.427.351.644.644,0,0,0,.616-.53.619.619,0,0,0-.457-.721c-.384-.135-.786-.218-1.171-.35a1.174,1.174,0,0,1-.921-1.25,1.225,1.225,0,0,1,1.008-1.133,2.082,2.082,0,0,1,1.779.3c.15.1.287.222.161.43a.293.293,0,0,1-.451.091,1.814,1.814,0,0,0-1.221-.289.659.659,0,0,0-.622.526.6.6,0,0,0,.424.683c.3.122.627.2.943.292.891.264,1.259.74,1.145,1.489A1.4,1.4,0,0,1-230.016-999.346Z" transform="translate(-752.722 -250.095)" fill="#776f3d"/>
    <path id="Path_9351" data-name="Path 9351" d="M-786.649-999.344a2.548,2.548,0,0,1-1.335-.439c-.169-.12-.388-.248-.227-.513s.364-.134.539,0a1.9,1.9,0,0,0,1.379.346c.338-.035.62-.18.668-.539a.637.637,0,0,0-.465-.722c-.385-.132-.784-.224-1.169-.359a1.139,1.139,0,0,1-.879-1.324,1.249,1.249,0,0,1,1.055-1.089,2.266,2.266,0,0,1,1.674.328c.154.094.3.2.183.42s-.285.212-.487.091a1.657,1.657,0,0,0-1.225-.258.626.626,0,0,0-.576.567.6.6,0,0,0,.46.66c.312.106.635.18.949.282.889.288,1.244.753,1.117,1.45S-785.711-999.338-786.649-999.344Z" transform="translate(-261.223 -250.099)" fill="#776f3d"/>
    <path id="Path_9352" data-name="Path 9352" d="M-575.518-1001.254a6.275,6.275,0,0,1-.089,1.625,1.669,1.669,0,0,1-1.824,1.311,1.646,1.646,0,0,1-1.742-1.34,13.1,13.1,0,0,1-.081-2.907.272.272,0,0,1,.283-.306c.228,0,.292.168.295.357.008.545,0,1.09.013,1.634a5.913,5.913,0,0,0,.076.927,1.121,1.121,0,0,0,1.254,1.03,1.107,1.107,0,0,0,1.185-1.113c.054-.657.025-1.322.033-1.983,0-.175,0-.351.013-.525.014-.2.1-.34.325-.323.2.015.254.166.257.33C-575.513-1002.11-575.518-1001.682-575.518-1001.254Z" transform="translate(-445.78 -251.122)" fill="#776f3d"/>
    <path id="Path_9353" data-name="Path 9353" d="M-943.907-999.484a2.1,2.1,0,0,1-2.021-1.45,2.415,2.415,0,0,1,.569-2.631,2.3,2.3,0,0,1,2.546-.411,3.081,3.081,0,0,1,.527.359.257.257,0,0,1,.054.4.276.276,0,0,1-.406.082c-.1-.064-.188-.139-.289-.2a1.659,1.659,0,0,0-2.122.312,1.906,1.906,0,0,0,.042,2.419,1.66,1.66,0,0,0,2.128.24c.082-.051.158-.113.236-.17a.271.271,0,0,1,.411.043.264.264,0,0,1-.052.408A2.22,2.22,0,0,1-943.907-999.484Z" transform="translate(-121.834 -249.956)" fill="#776f3d"/>
    <path id="Path_9354" data-name="Path 9354" d="M-1084.045-1000.919c0-.584.006-1.168,0-1.751,0-.362.147-.536.522-.531.759.01,1.518,0,2.276.005.193,0,.424,0,.43.274s-.216.3-.412.305c-.564.014-1.129.025-1.693.01-.534-.013-.522.337-.519.705s-.035.727.509.71c.486-.015.973,0,1.459.008.2,0,.416.036.4.31-.015.231-.211.258-.389.261-.486.01-.973.019-1.459.008-.375-.009-.532.157-.517.526.012.291.01.584,0,.875-.009.221.053.53-.3.515-.329-.014-.293-.313-.3-.539C-1084.052-999.79-1084.046-1000.354-1084.045-1000.919Z" transform="translate(0 -250.831)" fill="#776f3d"/>
    <path id="Path_9355" data-name="Path 9355" d="M-822.227-1003.361c-.039.07-.09.175-.153.27-.214.324-.415.659-.655.964a3.307,3.307,0,0,0-.874,2.616c.034.226,0,.5-.338.5a.312.312,0,0,1-.32-.4c.243-1.368-.576-2.314-1.282-3.308a1.111,1.111,0,0,1-.16-.243c-.067-.189-.437-.373-.136-.566.243-.157.512.009.682.273.315.49.655.965.965,1.458.2.314.345.3.54,0,.334-.525.69-1.034,1.034-1.553a.477.477,0,0,1,.555-.212C-822.284-1003.539-822.229-1003.493-822.227-1003.361Z" transform="translate(-227.669 -250.493)" fill="#776f3d"/>
    <path id="Path_9356" data-name="Path 9356" d="M-538.3-1000.591c0-.466-.012-.933,0-1.4.015-.42-.159-.617-.585-.59a2.441,2.441,0,0,1-.407-.013c-.178-.019-.372-.051-.381-.278-.011-.275.206-.3.406-.3q1.311-.007,2.622,0c.2,0,.418.025.419.292s-.227.273-.42.292a1.493,1.493,0,0,1-.291,0c-.5-.05-.7.16-.685.67.027.815.008,1.631.006,2.447,0,.155,0,.311-.015.466-.017.188-.085.346-.308.354-.254.009-.344-.161-.348-.375-.009-.524,0-1.049,0-1.573Z" transform="translate(-480.774 -250.857)" fill="#776f3d"/>
    <path id="Path_9357" data-name="Path 9357" d="M-994.847-1000.864c0-.446-.017-.894,0-1.339s-.169-.618-.616-.621c-.295,0-.815.169-.816-.278,0-.513.538-.282.839-.3.736-.034,1.474-.013,2.212-.007.194,0,.421,0,.431.272s-.211.285-.407.312c-1.037.141-1.037.141-1.037,1.179,0,.757,0,1.514,0,2.271,0,.208.026.472-.282.48s-.314-.242-.317-.459c-.007-.5,0-1.009,0-1.514Z" transform="translate(-77.518 -250.623)" fill="#776f3d"/>
    <path id="Path_9358" data-name="Path 9358" d="M-751.007-1000.968c0-.564-.007-1.128,0-1.692,0-.222-.042-.518.323-.495.35.022.284.3.283.531,0,.934.014,1.868-.009,2.8-.012.48.175.67.652.646s.933,0,1.4.005c.184,0,.365.05.366.283s-.181.286-.363.288q-1.108.01-2.217,0c-.366,0-.438-.256-.438-.558Q-751.005-1000.064-751.007-1000.968Z" transform="translate(-294.128 -250.871)" fill="#776f3d"/>
    <path id="Path_9359" data-name="Path 9359" d="M-303.109-1000.6c0-.544-.01-1.089,0-1.632.006-.234-.072-.575.317-.561.337.012.278.323.28.543.009.875.034,1.75-.006,2.623-.026.574.143.832.75.773a11.393,11.393,0,0,1,1.282,0c.18,0,.37.027.387.26.02.274-.188.315-.389.317-.719.008-1.438,0-2.157.005-.352,0-.473-.19-.468-.519C-303.1-999.391-303.108-999.993-303.109-1000.6Z" transform="translate(-689.696 -251.194)" fill="#776f3d"/>
    <path id="Path_9360" data-name="Path 9360" d="M-1045.39-1001.093c0,.622,0,1.245,0,1.867,0,.178-.019.372-.257.387-.264.016-.329-.177-.329-.385q-.007-1.9,0-3.792c0-.187.065-.363.291-.363s.29.172.292.361c0,.642,0,1.283,0,1.925Z" transform="translate(-33.618 -250.674)" fill="#776f3d"/>
    <path id="Path_9361" data-name="Path 9361" d="M-321.045-1000.865c0-.621,0-1.243,0-1.864,0-.175.015-.372.255-.388s.339.155.34.374q0,1.893,0,3.787c0,.191-.064.359-.29.361-.267,0-.3-.2-.305-.405C-321.048-999.622-321.045-1000.243-321.045-1000.865Z" transform="translate(-673.857 -250.905)" fill="#776f3d"/>
  </g>
</svg>
