<svg xmlns="http://www.w3.org/2000/svg" width="73" height="73" viewBox="0 0 73 73">
  <g id="Group_5779" data-name="Group 5779" transform="translate(-631 -2929)">
    <path id="Path_9529" data-name="Path 9529" d="M0,0H73V73H0Z" transform="translate(631 2929)" fill="#fff" opacity="0"/>
    <path id="Icon_metro-apple" data-name="Icon metro-apple" d="M50.218,36.916c-.083-8.339,6.8-12.339,7.108-12.537a15.378,15.378,0,0,0-12.041-6.525c-5.128-.519-10.006,3.019-12.608,3.019s-6.612-2.942-10.865-2.865A16.111,16.111,0,0,0,8.192,26.263c-5.807,10.077-1.487,25,4.173,33.177,2.766,4,6.063,8.493,10.393,8.333,4.17-.166,5.746-2.7,10.788-2.7S40,67.773,44.417,67.69c4.487-.083,7.33-4.077,10.076-8.089a36.3,36.3,0,0,0,4.561-9.365,14.543,14.543,0,0,1-8.836-13.32ZM41.927,12.443A14.512,14.512,0,0,0,45.353,1.928a14.762,14.762,0,0,0-9.7,4.987c-2.131,2.468-4,6.406-3.5,10.188C35.854,17.392,39.626,15.225,41.927,12.443Z" transform="translate(635.564 2930.072)" fill="#623ec6"/>
  </g>
</svg>
