<svg xmlns="http://www.w3.org/2000/svg" width="73" height="73" viewBox="0 0 73 73">
  <g id="Group_5786" data-name="Group 5786" transform="translate(-673 -3147)">
    <g id="Rectangle_4411" data-name="Rectangle 4411" transform="translate(673 3147)" fill="#fff" stroke="#707070" stroke-width="1" opacity="0">
      <rect width="73" height="73" stroke="none"/>
      <rect x="0.5" y="0.5" width="72" height="72" fill="none"/>
    </g>
    <path id="Icon_awesome-react" data-name="Icon awesome-react" d="M57.565,22.236q-1.115-.372-2.23-.7c.124-.509.234-1.019.344-1.528,1.693-8.2.578-14.8-3.18-16.972C48.879.955,42.974,3.116,37,8.319c-.592.509-1.17,1.046-1.721,1.583-.372-.358-.757-.716-1.142-1.06C27.874,3.282,21.6.941,17.839,3.13c-3.606,2.092-4.68,8.3-3.166,16.064.151.771.317,1.528.509,2.3-.881.248-1.748.523-2.56.812C5.272,24.851,0,28.871,0,33.028c0,4.295,5.616,8.6,13.256,11.218.619.206,1.239.413,1.872.592-.206.826-.385,1.638-.551,2.478-1.445,7.64-.317,13.7,3.29,15.775,3.717,2.147,9.966-.055,16.05-5.382.482-.427.964-.867,1.445-1.335.606.592,1.239,1.156,1.872,1.707,5.891,5.065,11.714,7.116,15.307,5.038,3.717-2.147,4.928-8.658,3.359-16.587q-.186-.908-.413-1.858c.44-.124.867-.262,1.294-.4,7.942-2.629,13.7-6.882,13.7-11.246,0-4.171-5.423-8.218-12.912-10.792ZM38.941,10.549c5.121-4.46,9.9-6.208,12.072-4.955,2.326,1.335,3.221,6.731,1.762,13.82-.1.468-.193.922-.317,1.376a70.466,70.466,0,0,0-9.264-1.459,69.547,69.547,0,0,0-5.864-7.309c.537-.509,1.06-.991,1.611-1.473ZM23.015,40.172c.7,1.2,1.418,2.4,2.175,3.565A62.33,62.33,0,0,1,18.8,42.7a64.3,64.3,0,0,1,2.244-6.125c.633,1.211,1.28,2.409,1.968,3.593ZM18.844,23.612c1.982-.44,4.088-.8,6.277-1.074-.73,1.142-1.445,2.313-2.12,3.5s-1.335,2.368-1.955,3.579c-.867-2.051-1.6-4.061-2.2-6ZM22.616,33.1c.908-1.9,1.9-3.758,2.946-5.589s2.175-3.606,3.359-5.355c2.065-.151,4.171-.234,6.318-.234s4.267.083,6.318.234q1.755,2.6,3.345,5.327t2.987,5.561q-1.383,2.849-2.973,5.616c-1.046,1.831-2.161,3.606-3.331,5.368-2.051.151-4.185.22-6.346.22s-4.253-.069-6.277-.193q-1.8-2.622-3.386-5.368C24.515,36.854,23.538,35,22.616,33.1Zm24.86,7.048c.7-1.211,1.363-2.436,2.01-3.675a63.9,63.9,0,0,1,2.326,6.1,60.462,60.462,0,0,1-6.47,1.1C46.085,42.512,46.787,41.328,47.475,40.144Zm1.982-10.53c-.647-1.211-1.308-2.423-2-3.606s-1.376-2.326-2.106-3.469a63.344,63.344,0,0,1,6.318,1.1,60.918,60.918,0,0,1-2.216,5.974ZM35.266,14.128a60.444,60.444,0,0,1,4.074,4.928c-2.725-.124-5.465-.124-8.19,0C32.5,17.28,33.889,15.629,35.266,14.128ZM19.3,5.69c2.313-1.349,7.447.578,12.856,5.368.344.3.688.633,1.046.964A69.933,69.933,0,0,0,27.3,19.331a72.559,72.559,0,0,0-9.25,1.432c-.179-.7-.33-1.418-.482-2.134C16.27,11.967,17.124,6.943,19.3,5.69ZM15.926,41.975c-.578-.165-1.142-.344-1.707-.537a28.074,28.074,0,0,1-8.672-4.295,6.177,6.177,0,0,1-2.588-4.116c0-2.519,4.35-5.74,10.627-7.929.785-.275,1.583-.523,2.381-.757A73.193,73.193,0,0,0,19.34,33.1a75.242,75.242,0,0,0-3.414,8.878Zm16.05,13.49a25.194,25.194,0,0,1-7.763,4.859,6.092,6.092,0,0,1-4.859.179c-2.189-1.266-3.1-6.125-1.858-12.664.151-.771.317-1.542.509-2.3a68.863,68.863,0,0,0,9.346,1.349,72.641,72.641,0,0,0,5.946,7.35C32.857,54.666,32.416,55.079,31.976,55.464Zm3.372-3.345c-1.4-1.514-2.808-3.193-4.171-5,1.321.055,2.684.083,4.061.083,1.418,0,2.808-.028,4.185-.1a59.362,59.362,0,0,1-4.074,5.01Zm17.991,4.129a6.118,6.118,0,0,1-2.271,4.308c-2.189,1.266-6.855-.385-11.893-4.708-.578-.5-1.156-1.032-1.748-1.583a68.093,68.093,0,0,0,5.809-7.378,67.857,67.857,0,0,0,9.388-1.445c.138.564.262,1.129.372,1.679a25.093,25.093,0,0,1,.344,9.126Zm2.505-14.8c-.385.124-.771.248-1.17.358a69.925,69.925,0,0,0-3.51-8.782,69.576,69.576,0,0,0,3.372-8.658c.716.206,1.4.427,2.065.647,6.414,2.2,10.916,5.478,10.916,7.984,0,2.7-4.8,6.18-11.673,8.452ZM35.238,39.387a6.3,6.3,0,1,0-6.3-6.3A6.3,6.3,0,0,0,35.238,39.387Z" transform="translate(674 3151.282)" fill="#623ec6"/>
  </g>
</svg>
