<svg xmlns="http://www.w3.org/2000/svg" width="73" height="73" viewBox="0 0 73 73">
  <g id="Group_5787" data-name="Group 5787" transform="translate(-837 -3147)">
    <g id="Rectangle_4412" data-name="Rectangle 4412" transform="translate(837 3147)" fill="#fff" stroke="#707070" stroke-width="1" opacity="0">
      <rect width="73" height="73" stroke="none"/>
      <rect x="0.5" y="0.5" width="72" height="72" fill="none"/>
    </g>
    <path id="Icon_awesome-node-js" data-name="Icon awesome-node-js" d="M30.667,69.383a5.371,5.371,0,0,1-2.66-.713l-8.46-5c-1.261-.713-.644-.96-.233-1.1a16.664,16.664,0,0,0,3.825-1.741.619.619,0,0,1,.631.055l6.5,3.853a.794.794,0,0,0,.782,0L56.375,50.118a.812.812,0,0,0,.384-.686V20.2a.817.817,0,0,0-.4-.7L31.05,4.9a.794.794,0,0,0-.782,0L4.972,19.515a.8.8,0,0,0-.4.7V49.433a.757.757,0,0,0,.4.672l6.938,4c3.771,1.878,6.074-.329,6.074-2.564V22.7a.726.726,0,0,1,.74-.727h3.208a.734.734,0,0,1,.74.727V51.558c0,5.018-2.742,7.9-7.5,7.9-1.467,0-2.619,0-5.827-1.591L2.709,54.04a5.332,5.332,0,0,1-2.66-4.621V20.2a5.348,5.348,0,0,1,2.66-4.621L28.007.963a5.552,5.552,0,0,1,5.32,0l25.325,14.63a5.332,5.332,0,0,1,2.66,4.621V49.433a5.365,5.365,0,0,1-2.66,4.621L33.327,68.67A5.333,5.333,0,0,1,30.667,69.383ZM51.11,40.575c0-5.471-3.7-6.924-11.476-7.953-7.87-1.042-8.666-1.577-8.666-3.414,0-1.522.672-3.551,6.5-3.551,5.2,0,7.116,1.124,7.911,4.634a.734.734,0,0,0,.713.576h3.291a.716.716,0,0,0,.535-.233.763.763,0,0,0,.192-.562c-.507-6.047-4.525-8.857-12.642-8.857-7.226,0-11.531,3.044-11.531,8.158,0,5.539,4.292,7.075,11.216,7.761,8.3.809,8.94,2.029,8.94,3.661,0,2.825-2.276,4.031-7.61,4.031-6.7,0-8.172-1.686-8.666-5.018a.726.726,0,0,0-.727-.617H25.813a.723.723,0,0,0-.727.727c0,4.264,2.317,9.351,13.41,9.351,8.007-.014,12.614-3.181,12.614-8.693Z" transform="translate(842.689 3148.996)" fill="#623ec6"/>
  </g>
</svg>
