<svg xmlns="http://www.w3.org/2000/svg" width="73" height="73" viewBox="0 0 73 73">
  <g id="Group_5790" data-name="Group 5790" transform="translate(-612 -2828)">
    <g id="Rectangle_4415" data-name="Rectangle 4415" transform="translate(612 2828)" fill="#fff" stroke="#707070" stroke-width="1" opacity="0">
      <rect width="73" height="73" stroke="none"/>
      <rect x="0.5" y="0.5" width="72" height="72" fill="none"/>
    </g>
    <path id="Icon_simple-php" data-name="Icon simple-php" d="M19.609,21.173H16.968L15.527,28.58h2.344a5.672,5.672,0,0,0,3.474-.878,4.665,4.665,0,0,0,1.538-2.934,3.207,3.207,0,0,0-.347-2.783,3.948,3.948,0,0,0-2.929-.811ZM33.567,8.532C15.029,8.532,0,16.437,0,26.188S15.029,43.847,33.567,43.847s33.567-7.908,33.567-17.659S52.1,8.532,33.567,8.532ZM24.448,29.374a6.789,6.789,0,0,1-2.565,1.541,11.952,11.952,0,0,1-3.594.459h-3.3l-.915,4.7H10.215l3.441-17.7h7.413q3.344,0,4.878,1.757t.923,4.9a7.711,7.711,0,0,1-2.422,4.336Zm11.256,2,1.519-7.829a2.116,2.116,0,0,0-.19-1.821,2.685,2.685,0,0,0-1.922-.487H32.056l-1.969,10.14H26.26l3.441-17.7h3.824l-.915,4.7h3.407q3.218,0,4.436,1.122t.736,3.634l-1.6,8.235H35.7Zm21.25-6.336a7.782,7.782,0,0,1-.853,2.369,7.989,7.989,0,0,1-1.569,1.966,6.825,6.825,0,0,1-2.565,1.541,11.959,11.959,0,0,1-3.6.459h-3.3l-.915,4.7H40.3l3.441-17.7h7.41q3.344,0,4.878,1.757t.926,4.9ZM49.7,21.173H47.058L45.614,28.58h2.344a5.661,5.661,0,0,0,3.474-.878,4.68,4.68,0,0,0,1.541-2.934,3.206,3.206,0,0,0-.35-2.783,3.948,3.948,0,0,0-2.929-.811Z" transform="translate(615.433 2838.468)" fill="#623ec6"/>
  </g>
</svg>
