<svg xmlns="http://www.w3.org/2000/svg" width="40" height="40" viewBox="0 0 40 40">
  <g id="Group_6461" data-name="Group 6461" transform="translate(-9920 -510)">
    <g id="Icon_feather-globe" data-name="Icon feather-globe" transform="translate(9925 515)">
      <path id="Path_9461" data-name="Path 9461" d="M27,15A12,12,0,1,1,15,3,12,12,0,0,1,27,15Z" transform="translate(0 0)" fill="none" stroke="#776f3d" stroke-linecap="round" stroke-linejoin="round" stroke-width="2"/>
      <path id="Path_9462" data-name="Path 9462" d="M3,18H27" transform="translate(0 -3)" fill="none" stroke="#776f3d" stroke-linecap="round" stroke-linejoin="round" stroke-width="2"/>
      <path id="Path_9463" data-name="Path 9463" d="M16,3a20.486,20.486,0,0,1,4,12,20.486,20.486,0,0,1-4,12,20.486,20.486,0,0,1-4-12A20.486,20.486,0,0,1,16,3Z" transform="translate(-1)" fill="none" stroke="#776f3d" stroke-linecap="round" stroke-linejoin="round" stroke-width="2"/>
    </g>
    <rect id="Rectangle_4834" data-name="Rectangle 4834" width="40" height="40" transform="translate(9920 510)" fill="#fff" opacity="0"/>
  </g>
</svg>
