<svg xmlns="http://www.w3.org/2000/svg" xmlns:xlink="http://www.w3.org/1999/xlink" width="117" height="117" viewBox="0 0 117 117">
  <defs>
    <filter id="Ellipse_1107" x="0" y="0" width="117" height="117" filterUnits="userSpaceOnUse">
      <feOffset dy="3" input="SourceAlpha"/>
      <feGaussianBlur stdDeviation="10" result="blur"/>
      <feFlood flood-opacity="0.09"/>
      <feComposite operator="in" in2="blur"/>
      <feComposite in="SourceGraphic"/>
    </filter>
  </defs>
  <g id="Group_5427" data-name="Group 5427" transform="translate(-452 -5646)">
    <g transform="matrix(1, 0, 0, 1, 452, 5646)" filter="url(#Ellipse_1107)">
      <circle id="Ellipse_1107-2" data-name="Ellipse 1107" cx="28.5" cy="28.5" r="28.5" transform="translate(30 27)" fill="#fff"/>
    </g>
    <g id="Group_5362" data-name="Group 5362" transform="translate(-477 2352.75)">
      <path id="Path_12690" data-name="Path 12690" d="M8.708,11.631S-.51,9.235.022,0" transform="translate(977.123 3347.727) rotate(19)" fill="none" stroke="#3cc3b4" stroke-width="5"/>
      <path id="Path_12691" data-name="Path 12691" d="M8.708,11.631S-.51,9.235.022,0" transform="matrix(-0.656, 0.755, -0.755, -0.656, 996.216, 3342.471)" fill="none" stroke="#3cc3b4" stroke-width="5"/>
      <path id="Path_12692" data-name="Path 12692" d="M8.708,11.631S-.51,9.235.022,0" transform="translate(989.033 3361.697) rotate(-90)" fill="none" stroke="#3cc3b4" stroke-width="5"/>
      <path id="Polygon_13" data-name="Polygon 13" d="M4.79,0l4.79,7.928H0Z" transform="translate(974.682 3340.856) rotate(19)" fill="#3cc3b4"/>
      <path id="Polygon_14" data-name="Polygon 14" d="M4.754,0,9.508,8.2H0Z" transform="matrix(-0.656, 0.755, -0.755, -0.656, 1003.618, 3342.885)" fill="#3cc3b4"/>
      <path id="Polygon_15" data-name="Polygon 15" d="M4.754,0,9.508,8.2H0Z" transform="translate(983.174 3366.24) rotate(-90)" fill="#3cc3b4"/>
    </g>
  </g>
</svg>
