<svg xmlns="http://www.w3.org/2000/svg" xmlns:xlink="http://www.w3.org/1999/xlink" width="117" height="117" viewBox="0 0 117 117">
  <defs>
    <filter id="Ellipse_1106" x="0" y="0" width="117" height="117" filterUnits="userSpaceOnUse">
      <feOffset dy="3" input="SourceAlpha"/>
      <feGaussianBlur stdDeviation="10" result="blur"/>
      <feFlood flood-opacity="0.09"/>
      <feComposite operator="in" in2="blur"/>
      <feComposite in="SourceGraphic"/>
    </filter>
  </defs>
  <g id="Group_5425" data-name="Group 5425" transform="translate(-452 -5460)">
    <g id="Group_5442" data-name="Group 5442">
      <g transform="matrix(1, 0, 0, 1, 452, 5460)" filter="url(#Ellipse_1106)">
        <circle id="Ellipse_1106-2" data-name="Ellipse 1106" cx="28.5" cy="28.5" r="28.5" transform="translate(30 27)" fill="#fff"/>
      </g>
      <g id="Group_5423" data-name="Group 5423" transform="translate(491.829 5484.229)">
        <path id="Path_5973" data-name="Path 5973" d="M840.533,183.622" transform="translate(-838.654 -183.622)" fill="#60d6c9" stroke="#60d6c9" stroke-miterlimit="10" stroke-width="1"/>
        <path id="Path_5974" data-name="Path 5974" d="M599.217,299.139a14.843,14.843,0,0,0-1.34-2.585c-.516-.79-.831-1.1-2.057-2.737-.388-.517-.959-1.28-1.191-1.624a8.69,8.69,0,1,1,15.69-7.361c.071.2,1.277,3.692-.391,6.566-.532.916-.827.858-2.478,3.174a16.918,16.918,0,0,0-1.652,2.7,14.1,14.1,0,0,0-.913,2.522" transform="translate(-584.115 -255.517)" fill="#60d6c9" stroke="#60d6c9" stroke-width="1"/>
        <path id="Path_5975" data-name="Path 5975" d="M602.829,292.838l2.867,12.984h-2.074v4.112h1.8s.919,1.731,2.434,0l1.893-.054v-4.057l-1.731.054,2.489-13.038h-.649l-2.813,12.606-3.427-12.606Z" transform="translate(-588.66 -262.217)" fill="#7bfff0"/>
        <line id="Line_162" data-name="Line 162" x2="6.44" transform="translate(0 30.621)" fill="none" stroke="#60d6c9" stroke-linecap="round" stroke-miterlimit="10" stroke-width="2"/>
        <line id="Line_163" data-name="Line 163" x2="4.554" y2="4.554" transform="translate(5.294 20.218)" fill="none" stroke="#60d6c9" stroke-linecap="round" stroke-miterlimit="10" stroke-width="2"/>
        <line id="Line_164" data-name="Line 164" y2="6.44" transform="translate(17.336 14.875)" fill="none" stroke="#60d6c9" stroke-linecap="round" stroke-miterlimit="10" stroke-width="2"/>
        <line id="Line_165" data-name="Line 165" x1="4.554" y2="4.554" transform="translate(25.031 20.165)" fill="none" stroke="#60d6c9" stroke-linecap="round" stroke-miterlimit="10" stroke-width="2"/>
        <line id="Line_166" data-name="Line 166" x1="6.44" transform="translate(30.578 30.621)" fill="none" stroke="#60d6c9" stroke-linecap="round" stroke-miterlimit="10" stroke-width="2"/>
      </g>
    </g>
  </g>
</svg>
