<svg xmlns="http://www.w3.org/2000/svg" xmlns:xlink="http://www.w3.org/1999/xlink" width="117" height="117" viewBox="0 0 117 117">
  <defs>
    <filter id="Ellipse_1108" x="0" y="0" width="117" height="117" filterUnits="userSpaceOnUse">
      <feOffset dy="3" input="SourceAlpha"/>
      <feGaussianBlur stdDeviation="10" result="blur"/>
      <feFlood flood-opacity="0.09"/>
      <feComposite operator="in" in2="blur"/>
      <feComposite in="SourceGraphic"/>
    </filter>
  </defs>
  <g id="Group_5426" data-name="Group 5426" transform="translate(-701 -5280)">
    <g transform="matrix(1, 0, 0, 1, 701, 5280)" filter="url(#Ellipse_1108)">
      <circle id="Ellipse_1108-2" data-name="Ellipse 1108" cx="28.5" cy="28.5" r="28.5" transform="translate(30 27)" fill="#fff"/>
    </g>
    <g id="Union_35" data-name="Union 35" transform="translate(744 5320)" fill="#fff">
      <path d="M 6 30 L 1 30 L 1 5.614250183105469 L 3.5 1.818150401115417 L 6 5.614250183105469 L 6 30 Z" stroke="none"/>
      <path d="M 5 29 L 5 5.913960933685303 L 3.5 3.636300802230835 L 2 5.913960933685303 L 2 29 L 5 29 M 7 31 L -4.440892098500626e-16 31 L -4.440892098500626e-16 5.314539909362793 L 3.5 -1.77635683940025e-15 L 7 5.314539909362793 L 7 31 Z" stroke="none" fill="#60d6c9"/>
    </g>
    <g id="Rectangle_4060" data-name="Rectangle 4060" transform="translate(754 5324)" fill="#60d6c9" stroke="#60d6c9" stroke-width="2">
      <rect width="17" height="27" stroke="none"/>
      <rect x="1" y="1" width="15" height="25" fill="none"/>
    </g>
    <g id="Rectangle_4061" data-name="Rectangle 4061" transform="translate(757 5328)" fill="#60d6c9" stroke="#fff" stroke-width="2">
      <rect width="11" height="19" stroke="none"/>
      <rect x="1" y="1" width="9" height="17" fill="none"/>
    </g>
  </g>
</svg>
