<svg xmlns="http://www.w3.org/2000/svg" width="38.875" height="29.345" viewBox="0 0 38.875 29.345">
  <g id="Group_3029" data-name="Group 3029" transform="translate(-109 -532.362)">
    <g id="Rectangle_3084" data-name="Rectangle 3084" transform="translate(109 532.362)" fill="#fff" stroke="#707070" stroke-width="1.5">
      <rect width="37" height="24" stroke="none"/>
      <rect x="0.75" y="0.75" width="35.5" height="22.5" fill="none"/>
    </g>
    <line id="Line_779" data-name="Line 779" x2="35.38" transform="translate(109.376 536.14)" fill="none" stroke="#707070" stroke-width="1.5"/>
    <g id="Group_2750" data-name="Group 2750" transform="translate(135.347 543.595)">
      <path id="Path_7820" data-name="Path 7820" d="M380.066,382.736v14.338a9.993,9.993,0,0,0,11.484,0V382.736" transform="translate(-379.772 -381.526)" fill="#fff" stroke="#60d6c9" stroke-miterlimit="10" stroke-width="1.5"/>
      <ellipse id="Ellipse_701" data-name="Ellipse 701" cx="5.79" cy="1.145" rx="5.79" ry="1.145" transform="translate(0.198 0)" fill="#fff" stroke="#60d6c9" stroke-miterlimit="10" stroke-width="1.5"/>
      <path id="Path_7821" data-name="Path 7821" d="M379.013,394.538a16.933,16.933,0,0,0,11.58,0" transform="translate(-379.013 -390.032)" fill="#fff" stroke="#60d6c9" stroke-miterlimit="10" stroke-width="1.5"/>
      <path id="Path_7822" data-name="Path 7822" d="M380.066,404.986a16.932,16.932,0,0,0,11.58,0" transform="translate(-379.772 -397.563)" fill="#fff" stroke="#60d6c9" stroke-miterlimit="10" stroke-width="1.5"/>
      <path id="Path_7823" data-name="Path 7823" d="M379.013,414.945a16.933,16.933,0,0,0,11.58,0" transform="translate(-379.013 -404.741)" fill="#fff" stroke="#60d6c9" stroke-miterlimit="10" stroke-width="1.5"/>
      <path id="Path_7824" data-name="Path 7824" d="M379.013,425.45a16.933,16.933,0,0,0,11.58,0" transform="translate(-379.013 -412.312)" fill="#fff" stroke="#60d6c9" stroke-miterlimit="10" stroke-width="1.5"/>
    </g>
  </g>
</svg>
