<svg xmlns="http://www.w3.org/2000/svg" width="51.397" height="39.218" viewBox="0 0 51.397 39.218">
  <g id="Group_3029" data-name="Group 3029" transform="translate(-109 -532)">
    <g id="Rectangle_3084" data-name="Rectangle 3084" transform="translate(109 532)" fill="#fff" stroke="#707070" stroke-width="1.5">
      <rect width="48" height="34" stroke="none"/>
      <rect x="0.75" y="0.75" width="46.5" height="32.5" fill="none"/>
    </g>
    <line id="Line_779" data-name="Line 779" x2="47" transform="translate(109.5 537.5)" fill="none" stroke="#707070" stroke-width="1.5"/>
    <g id="Group_2750" data-name="Group 2750" transform="translate(-235.013 168.999)">
      <path id="Path_7820" data-name="Path 7820" d="M380.066,382.736v19.047a13.275,13.275,0,0,0,15.256,0V382.736" transform="translate(-0.662 -2.725)" fill="#fff" stroke="#3038f8" stroke-miterlimit="10" stroke-width="1.5"/>
      <ellipse id="Ellipse_701" data-name="Ellipse 701" cx="7.692" cy="1.521" rx="7.692" ry="1.521" transform="translate(379.276 378.403)" fill="#fff" stroke="#3038f8" stroke-miterlimit="10" stroke-width="1.5"/>
      <path id="Path_7821" data-name="Path 7821" d="M379.013,394.538a22.495,22.495,0,0,0,15.383,0" transform="translate(0 -10.149)" fill="#fff" stroke="#3038f8" stroke-miterlimit="10" stroke-width="1.5"/>
      <path id="Path_7822" data-name="Path 7822" d="M380.066,404.986a22.494,22.494,0,0,0,15.383,0" transform="translate(-0.662 -16.721)" fill="#fff" stroke="#3038f8" stroke-miterlimit="10" stroke-width="1.5"/>
      <path id="Path_7823" data-name="Path 7823" d="M379.013,414.945a22.495,22.495,0,0,0,15.383,0" transform="translate(0 -22.986)" fill="#fff" stroke="#3038f8" stroke-miterlimit="10" stroke-width="1.5"/>
      <path id="Path_7824" data-name="Path 7824" d="M379.013,425.45a22.494,22.494,0,0,0,15.383,0" transform="translate(0 -29.594)" fill="#fff" stroke="#3038f8" stroke-miterlimit="10" stroke-width="1.5"/>
    </g>
  </g>
</svg>
