<svg xmlns="http://www.w3.org/2000/svg" width="303" height="182.217" viewBox="0 0 303 182.217">
  <g id="Group_5545" data-name="Group 5545" transform="translate(-825 -1530.836)">
    <g id="Group_5540" data-name="Group 5540" transform="translate(-58 -9)">
      <path id="Union_39" data-name="Union 39" d="M-4877.034,60.941c-.764-.021-1.525-.076-2.277-.163l-5.129,8.885-14.536-8.393,4.458-7.721a25.988,25.988,0,0,1-3.5-4.206l-7.635,2.046L-4910,35.177l7.636-2.046a26.006,26.006,0,0,1,.593-4.071l-6.9-3.983,8.392-14.534,7.286,4.206a25.872,25.872,0,0,1,3-2.156l-2.211-8.25L-4875.988,0l2.375,8.861a25.959,25.959,0,0,1,3.082.509l4.643-8.042,14.536,8.392-4.867,8.429a25.913,25.913,0,0,1,1.628,2.181l9.436-2.528,4.344,16.211-9.436,2.528a25.944,25.944,0,0,1-.32,2.705l8.429,4.866-8.392,14.534L-4858.573,54a25.914,25.914,0,0,1-2.414,1.981l2.857,10.663-16.211,4.344Z" transform="translate(6026.813 1554.799)" fill="#dfe0f6" opacity="0.322"/>
      <circle id="Ellipse_1172" data-name="Ellipse 1172" cx="12.5" cy="12.5" r="12.5" transform="translate(1139 1578)" fill="#fff"/>
    </g>
    <g id="Group_5543" data-name="Group 5543">
      <g id="Group_5541" data-name="Group 5541">
        <rect id="Rectangle_3596" data-name="Rectangle 3596" width="32" height="8" transform="translate(825 1625)" fill="#bec0ec"/>
        <rect id="Rectangle_4140" data-name="Rectangle 4140" width="32" height="8" transform="translate(825 1634)" fill="#bec0ec"/>
        <rect id="Rectangle_4141" data-name="Rectangle 4141" width="32" height="8" transform="translate(825 1643)" fill="#bec0ec"/>
        <rect id="Rectangle_4142" data-name="Rectangle 4142" width="32" height="8" transform="translate(825 1652)" fill="#bec0ec"/>
        <rect id="Rectangle_4143" data-name="Rectangle 4143" width="32" height="8" transform="translate(825 1661)" fill="#bec0ec"/>
        <rect id="Rectangle_4144" data-name="Rectangle 4144" width="32" height="8" transform="translate(825 1670)" fill="#bec0ec"/>
        <rect id="Rectangle_4145" data-name="Rectangle 4145" width="32" height="8" transform="translate(825 1679)" fill="#bec0ec"/>
        <rect id="Rectangle_4146" data-name="Rectangle 4146" width="32" height="8" transform="translate(825 1688)" fill="#bec0ec"/>
        <rect id="Rectangle_4147" data-name="Rectangle 4147" width="32" height="8" transform="translate(825 1697)" fill="#bec0ec"/>
        <circle id="Ellipse_809" data-name="Ellipse 809" cx="2.5" cy="2.5" r="2.5" transform="translate(843 1627)" fill="#fff"/>
        <circle id="Ellipse_1174" data-name="Ellipse 1174" cx="2.5" cy="2.5" r="2.5" transform="translate(843 1636)" fill="#fff"/>
        <circle id="Ellipse_1176" data-name="Ellipse 1176" cx="2.5" cy="2.5" r="2.5" transform="translate(843 1645)" fill="#fff"/>
        <circle id="Ellipse_1178" data-name="Ellipse 1178" cx="2.5" cy="2.5" r="2.5" transform="translate(843 1654)" fill="#fff"/>
        <circle id="Ellipse_1180" data-name="Ellipse 1180" cx="2.5" cy="2.5" r="2.5" transform="translate(843 1663)" fill="#fff"/>
        <circle id="Ellipse_1182" data-name="Ellipse 1182" cx="2.5" cy="2.5" r="2.5" transform="translate(843 1672)" fill="#fff"/>
        <circle id="Ellipse_1184" data-name="Ellipse 1184" cx="2.5" cy="2.5" r="2.5" transform="translate(843 1681)" fill="#fff"/>
        <circle id="Ellipse_1186" data-name="Ellipse 1186" cx="2.5" cy="2.5" r="2.5" transform="translate(843 1690)" fill="#fff"/>
        <circle id="Ellipse_1188" data-name="Ellipse 1188" cx="2.5" cy="2.5" r="2.5" transform="translate(843 1699)" fill="#fff"/>
        <circle id="Ellipse_1173" data-name="Ellipse 1173" cx="2.5" cy="2.5" r="2.5" transform="translate(850 1627)" fill="#fff"/>
        <circle id="Ellipse_1175" data-name="Ellipse 1175" cx="2.5" cy="2.5" r="2.5" transform="translate(850 1636)" fill="#fff"/>
        <circle id="Ellipse_1177" data-name="Ellipse 1177" cx="2.5" cy="2.5" r="2.5" transform="translate(850 1645)" fill="#fff"/>
        <circle id="Ellipse_1179" data-name="Ellipse 1179" cx="2.5" cy="2.5" r="2.5" transform="translate(850 1654)" fill="#fff"/>
        <circle id="Ellipse_1181" data-name="Ellipse 1181" cx="2.5" cy="2.5" r="2.5" transform="translate(850 1663)" fill="#fff"/>
        <circle id="Ellipse_1183" data-name="Ellipse 1183" cx="2.5" cy="2.5" r="2.5" transform="translate(850 1672)" fill="#fff"/>
        <circle id="Ellipse_1185" data-name="Ellipse 1185" cx="2.5" cy="2.5" r="2.5" transform="translate(850 1681)" fill="#fff"/>
        <circle id="Ellipse_1187" data-name="Ellipse 1187" cx="2.5" cy="2.5" r="2.5" transform="translate(850 1690)" fill="#fff"/>
        <circle id="Ellipse_1189" data-name="Ellipse 1189" cx="2.5" cy="2.5" r="2.5" transform="translate(850 1699)" fill="#fff"/>
      </g>
      <g id="Group_5542" data-name="Group 5542" transform="translate(34)">
        <rect id="Rectangle_3596-2" data-name="Rectangle 3596" width="32" height="8" transform="translate(825 1625)" fill="#bec0ec"/>
        <rect id="Rectangle_4140-2" data-name="Rectangle 4140" width="32" height="8" transform="translate(825 1634)" fill="#bec0ec"/>
        <rect id="Rectangle_4141-2" data-name="Rectangle 4141" width="32" height="8" transform="translate(825 1643)" fill="#bec0ec"/>
        <rect id="Rectangle_4142-2" data-name="Rectangle 4142" width="32" height="8" transform="translate(825 1652)" fill="#bec0ec"/>
        <rect id="Rectangle_4143-2" data-name="Rectangle 4143" width="32" height="8" transform="translate(825 1661)" fill="#bec0ec"/>
        <rect id="Rectangle_4144-2" data-name="Rectangle 4144" width="32" height="8" transform="translate(825 1670)" fill="#bec0ec"/>
        <rect id="Rectangle_4145-2" data-name="Rectangle 4145" width="32" height="8" transform="translate(825 1679)" fill="#bec0ec"/>
        <rect id="Rectangle_4146-2" data-name="Rectangle 4146" width="32" height="8" transform="translate(825 1688)" fill="#bec0ec"/>
        <rect id="Rectangle_4147-2" data-name="Rectangle 4147" width="32" height="8" transform="translate(825 1697)" fill="#bec0ec"/>
        <circle id="Ellipse_809-2" data-name="Ellipse 809" cx="2.5" cy="2.5" r="2.5" transform="translate(843 1627)" fill="#fff"/>
        <circle id="Ellipse_1174-2" data-name="Ellipse 1174" cx="2.5" cy="2.5" r="2.5" transform="translate(843 1636)" fill="#fff"/>
        <circle id="Ellipse_1176-2" data-name="Ellipse 1176" cx="2.5" cy="2.5" r="2.5" transform="translate(843 1645)" fill="#fff"/>
        <circle id="Ellipse_1178-2" data-name="Ellipse 1178" cx="2.5" cy="2.5" r="2.5" transform="translate(843 1654)" fill="#fff"/>
        <circle id="Ellipse_1180-2" data-name="Ellipse 1180" cx="2.5" cy="2.5" r="2.5" transform="translate(843 1663)" fill="#fff"/>
        <circle id="Ellipse_1182-2" data-name="Ellipse 1182" cx="2.5" cy="2.5" r="2.5" transform="translate(843 1672)" fill="#fff"/>
        <circle id="Ellipse_1184-2" data-name="Ellipse 1184" cx="2.5" cy="2.5" r="2.5" transform="translate(843 1681)" fill="#fff"/>
        <circle id="Ellipse_1186-2" data-name="Ellipse 1186" cx="2.5" cy="2.5" r="2.5" transform="translate(843 1690)" fill="#fff"/>
        <circle id="Ellipse_1188-2" data-name="Ellipse 1188" cx="2.5" cy="2.5" r="2.5" transform="translate(843 1699)" fill="#fff"/>
        <circle id="Ellipse_1173-2" data-name="Ellipse 1173" cx="2.5" cy="2.5" r="2.5" transform="translate(850 1627)" fill="#fff"/>
        <circle id="Ellipse_1175-2" data-name="Ellipse 1175" cx="2.5" cy="2.5" r="2.5" transform="translate(850 1636)" fill="#fff"/>
        <circle id="Ellipse_1177-2" data-name="Ellipse 1177" cx="2.5" cy="2.5" r="2.5" transform="translate(850 1645)" fill="#fff"/>
        <circle id="Ellipse_1179-2" data-name="Ellipse 1179" cx="2.5" cy="2.5" r="2.5" transform="translate(850 1654)" fill="#fff"/>
        <circle id="Ellipse_1181-2" data-name="Ellipse 1181" cx="2.5" cy="2.5" r="2.5" transform="translate(850 1663)" fill="#fff"/>
        <circle id="Ellipse_1183-2" data-name="Ellipse 1183" cx="2.5" cy="2.5" r="2.5" transform="translate(850 1672)" fill="#fff"/>
        <circle id="Ellipse_1185-2" data-name="Ellipse 1185" cx="2.5" cy="2.5" r="2.5" transform="translate(850 1681)" fill="#fff"/>
        <circle id="Ellipse_1187-2" data-name="Ellipse 1187" cx="2.5" cy="2.5" r="2.5" transform="translate(850 1690)" fill="#fff"/>
        <circle id="Ellipse_1189-2" data-name="Ellipse 1189" cx="2.5" cy="2.5" r="2.5" transform="translate(850 1699)" fill="#fff"/>
      </g>
    </g>
    <g id="Group_5379" data-name="Group 5379" transform="matrix(0.966, -0.259, 0.259, 0.966, 1002.988, 1536.707)" opacity="0.322">
      <path id="Union_12" data-name="Union 12" d="M17.013,46.628V39.6q-.743-.221-1.458-.505l-4.9,4.9-8.02-8.02,4.261-4.26a17.567,17.567,0,0,1-1.551-3.358H0V17.013H5.342a17.549,17.549,0,0,1,1.1-2.554L2.635,10.653l8.02-8.02,4.02,4.02a17.506,17.506,0,0,1,2.338-.882V0H28.355V6.2a17.547,17.547,0,0,1,1.923.871l4.438-4.437,8.02,8.02L38.085,15.3a17.523,17.523,0,0,1,.681,1.708h6.6V28.354h-6.6a17.55,17.55,0,0,1-.682,1.709l4.65,4.651-8.02,8.02L30.277,38.3a17.554,17.554,0,0,1-1.922.871v7.459Z" transform="translate(0 39.29) rotate(-60)" fill="#cecef2"/>
      <ellipse id="Ellipse_808" data-name="Ellipse 808" cx="10.298" cy="10.298" rx="10.298" ry="10.298" transform="translate(16.864 36.864) rotate(-60)" fill="#fff"/>
      <ellipse id="Ellipse_1096" data-name="Ellipse 1096" cx="10.298" cy="10.298" rx="10.298" ry="10.298" transform="translate(44.236 84.274) rotate(-60)" fill="#fff"/>
    </g>
    <g id="Group_5376" data-name="Group 5376" transform="translate(902.377 1580.053)">
      <rect id="Rectangle_4016" data-name="Rectangle 4016" width="186" height="121" rx="5" transform="translate(-0.377 -0.053)" fill="#7c80d9"/>
      <rect id="Rectangle_4017" data-name="Rectangle 4017" width="180" height="112" rx="5" transform="translate(2.623 3.947)" fill="#fff"/>
      <path id="Path_12697" data-name="Path 12697" d="M-7066.367,7163l-14.11,16.434h44.754L-7049.893,7163" transform="translate(7151.051 -7046.433)" fill="#7c80d9"/>
      <g id="Ellipse_1088" data-name="Ellipse 1088" transform="translate(10.623 9.947)" fill="#fff" stroke="#7c80d9" stroke-width="2">
        <circle cx="3" cy="3" r="3" stroke="none"/>
        <circle cx="3" cy="3" r="2" fill="none"/>
      </g>
      <g id="Ellipse_1089" data-name="Ellipse 1089" transform="translate(21.623 9.947)" fill="#fff" stroke="#7c80d9" stroke-width="2">
        <circle cx="3" cy="3" r="3" stroke="none"/>
        <circle cx="3" cy="3" r="2" fill="none"/>
      </g>
      <g id="Ellipse_1090" data-name="Ellipse 1090" transform="translate(31.623 9.947)" fill="#fff" stroke="#7c80d9" stroke-width="2">
        <circle cx="3" cy="3" r="3" stroke="none"/>
        <circle cx="3" cy="3" r="2" fill="none"/>
      </g>
      <line id="Line_1025" data-name="Line 1025" x2="179.729" transform="translate(3.117 21.933)" fill="none" stroke="#7c80d9" stroke-width="3"/>
      <line id="Line_1026" data-name="Line 1026" y2="98.407" transform="translate(104.941 21.25)" fill="none" stroke="#7c80d9" stroke-width="3"/>
      <text id="_" data-name="&lt;" transform="translate(7.623 42.947)" fill="#bec0ec" font-size="17" font-family="MyriadPro-BoldCond, Myriad Pro" font-weight="700" opacity="0.494"><tspan x="0" y="0">&lt;</tspan></text>
      <text id="_2" data-name="&lt;" transform="matrix(-1, 0, 0, 1, 94.623, 86.947)" fill="#bec0ec" font-size="21" font-family="MyriadPro-BoldCond, Myriad Pro" font-weight="700" opacity="0.494"><tspan x="0" y="0">&lt;</tspan></text>
      <line id="Line_1027" data-name="Line 1027" x2="54.579" transform="translate(22.355 39.486)" fill="none" stroke="#7c80d9" stroke-width="2" opacity="0.494"/>
      <line id="Line_1028" data-name="Line 1028" x2="54.579" transform="translate(22.355 62.954)" fill="none" stroke="#7c80d9" stroke-width="2" opacity="0.494"/>
      <line id="Line_1029" data-name="Line 1029" x2="54.579" transform="translate(22.355 45.457)" fill="none" stroke="#7c80d9" stroke-width="2" opacity="0.494"/>
      <line id="Line_1030" data-name="Line 1030" x2="54.579" transform="translate(22.355 68.925)" fill="none" stroke="#7c80d9" stroke-width="2" opacity="0.494"/>
      <line id="Line_1031" data-name="Line 1031" x2="54.579" transform="translate(22.355 51.428)" fill="none" stroke="#7c80d9" stroke-width="2" opacity="0.494"/>
      <line id="Line_1032" data-name="Line 1032" x2="54.579" transform="translate(110.511 39.127)" fill="none" stroke="#bec0ec" stroke-width="2" opacity="0.494"/>
      <line id="Line_1033" data-name="Line 1033" x2="54.579" transform="translate(110.511 45.277)" fill="none" stroke="#bec0ec" stroke-width="2" opacity="0.494"/>
      <line id="Line_1034" data-name="Line 1034" x2="54.579" transform="translate(22.355 74.895)" fill="none" stroke="#7c80d9" stroke-width="2" opacity="0.494"/>
      <line id="Line_1035" data-name="Line 1035" x2="54.579" transform="translate(22.355 57.398)" fill="none" stroke="#7c80d9" stroke-width="2" opacity="0.494"/>
      <line id="Line_1036" data-name="Line 1036" x2="54.579" transform="translate(22.355 80.866)" fill="none" stroke="#7c80d9" stroke-width="2" opacity="0.494"/>
    </g>
  </g>
</svg>
