<svg xmlns="http://www.w3.org/2000/svg" width="306.868" height="217.887" viewBox="0 0 306.868 217.887">
  <g id="Group_5428" data-name="Group 5428" transform="translate(-859.297 -893.127)">
    <g id="Group_5114" data-name="Group 5114" transform="translate(859.297 894.627)">
      <path id="Union_9" data-name="Union 9" d="M54.7,35.136H0V7.028H54.7V0L91.173,20.613,54.7,41.227Z" transform="translate(15.424 107.857) rotate(-90)" fill="#3038f8" opacity="0.196"/>
      <g id="Group_2874" data-name="Group 2874" transform="translate(0 129.708)">
        <path id="Path_7820" data-name="Path 7820" d="M380.066,382.736v69.925a48.735,48.735,0,0,0,56.008,0V382.736" transform="translate(-379.599 -376.835)" fill="#7c80d9"/>
        <ellipse id="Ellipse_701" data-name="Ellipse 701" cx="28.237" cy="5.582" rx="28.237" ry="5.582" transform="translate(0)" fill="#9a9ffd"/>
        <path id="Path_7821" data-name="Path 7821" d="M379.013,394.538a82.58,82.58,0,0,0,56.475,0" transform="translate(-378.546 -372.564)" fill="none" stroke="#fff" stroke-miterlimit="10" stroke-width="1.5"/>
        <path id="Path_7822" data-name="Path 7822" d="M380.066,404.986a82.582,82.582,0,0,0,56.475,0" transform="translate(-379.599 -368.783)" fill="none" stroke="#fff" stroke-miterlimit="10" stroke-width="1.5"/>
        <path id="Path_7823" data-name="Path 7823" d="M379.013,414.945a82.583,82.583,0,0,0,56.475,0" transform="translate(-378.546 -365.179)" fill="none" stroke="#fff" stroke-miterlimit="10" stroke-width="1.5"/>
        <path id="Path_7824" data-name="Path 7824" d="M379.013,425.45a82.582,82.582,0,0,0,56.475,0" transform="translate(-378.546 -361.378)" fill="none" stroke="#fff" stroke-miterlimit="10" stroke-width="1.5"/>
      </g>
      <g id="Group_5089" data-name="Group 5089" transform="translate(91.758 0)">
        <g id="Group_5088" data-name="Group 5088" transform="translate(0 0)">
          <rect id="Rectangle_3722" data-name="Rectangle 3722" width="62.718" height="27.712" transform="translate(1.216 79.248)" fill="none" stroke="#7c80d9" stroke-width="3"/>
          <rect id="Rectangle_3723" data-name="Rectangle 3723" width="62.718" height="27.712" transform="translate(72.198 79.248)" fill="none" stroke="#7c80d9" stroke-width="3"/>
          <rect id="Rectangle_3724" data-name="Rectangle 3724" width="118.629" height="47.484" transform="translate(54.209)" fill="none" stroke="#7c80d9" stroke-width="3"/>
          <rect id="Rectangle_3725" data-name="Rectangle 3725" width="62.718" height="27.712" transform="translate(145.612 79.248)" fill="none" stroke="#7c80d9" stroke-width="3"/>
          <rect id="Rectangle_3726" data-name="Rectangle 3726" width="62.718" height="27.712" transform="translate(0 131.27)" fill="none" stroke="#7c80d9" stroke-width="3"/>
          <rect id="Rectangle_3727" data-name="Rectangle 3727" width="62.718" height="27.712" transform="translate(70.983 131.27)" fill="none" stroke="#7c80d9" stroke-width="3"/>
          <rect id="Rectangle_3728" data-name="Rectangle 3728" width="62.718" height="27.712" transform="translate(144.397 131.27)" fill="none" stroke="#7c80d9" stroke-width="3"/>
          <path id="Path_8363" data-name="Path 8363" d="M1585.328,193.827q-.131,8.562-.259,17.12l-59.372-.284V223.2" transform="translate(-1493.124 -148.435)" fill="none" stroke="#7c80d9" stroke-miterlimit="10" stroke-width="3"/>
          <path id="Path_8364" data-name="Path 8364" d="M1549.89,193.827q.132,8.562.259,17.12l59.372-.284V223.2" transform="translate(-1432.549 -148.435)" fill="none" stroke="#7c80d9" stroke-miterlimit="10" stroke-width="3"/>
          <path id="Path_8365" data-name="Path 8365" d="M1584.979,211.4q-.126,6.635-.259,13.276l-59.369-.223v9.722" transform="translate(-1493.991 -104.437)" fill="none" stroke="#7c80d9" stroke-miterlimit="10" stroke-width="3"/>
          <path id="Path_8366" data-name="Path 8366" d="M1549.543,211.4q.131,6.635.259,13.276l59.372-.223v9.722" transform="translate(-1433.418 -104.437)" fill="none" stroke="#7c80d9" stroke-miterlimit="10" stroke-width="3"/>
          <line id="Line_829" data-name="Line 829" y2="33.092" transform="translate(103.008 48.565)" fill="#dae8ff" stroke="#7c80d9" stroke-width="3"/>
          <line id="Line_830" data-name="Line 830" y2="26.498" transform="translate(103.008 107.232)" fill="#dae8ff" stroke="#7c80d9" stroke-width="3"/>
          <rect id="Rectangle_3729" data-name="Rectangle 3729" width="213.61" height="17.637" transform="translate(0 173.899)" fill="none" stroke="#7c80d9" stroke-width="3"/>
          <rect id="Rectangle_3730" data-name="Rectangle 3730" width="213.61" height="17.637" transform="translate(0 197.251)" fill="none" stroke="#7c80d9" stroke-width="3"/>
        </g>
      </g>
    </g>
  </g>
</svg>
