<svg xmlns="http://www.w3.org/2000/svg" width="442" height="234" viewBox="0 0 442 234">
  <g id="Group_5430" data-name="Group 5430" transform="translate(-118 -2095)">
    <g id="Group_5384" data-name="Group 5384" transform="translate(327 -271)">
      <g id="Group_5364" data-name="Group 5364" transform="translate(90 2366)">
        <g id="Group_5327" data-name="Group 5327" transform="translate(0 0)">
          <path id="Union_27" data-name="Union 27" d="M76.819,113.308a51.895,51.895,0,0,1-24.044.12L46.47,127.746,30.2,120.086l6.141-13.722A51.34,51.34,0,0,1,22.7,93.2L7,99.62.652,82.869l14.431-5.8a51.075,51.075,0,0,1-.69-23.529L0,47.857l7.128-16.44L21.03,37a51.32,51.32,0,0,1,15.3-15.647L30.2,7.445,45.7,0l6.458,14.429a51.876,51.876,0,0,1,25.268.126L83.944,0l15.5,7.445L93.2,21.641a51.278,51.278,0,0,1,16.153,17.54l13.837-5.561,5.953,16.066-14.084,5.758a51.167,51.167,0,0,1-.446,19.153l15.061,6.051-6.94,15.671-14.578-5.756A51.309,51.309,0,0,1,93.18,106.08l6.268,14.006-16.271,7.66Z" transform="translate(0)" fill="#3cc3b4"/>
        </g>
      </g>
      <ellipse id="Ellipse_1069" data-name="Ellipse 1069" cx="29.5" cy="30.5" rx="29.5" ry="30.5" transform="translate(126 2400)" fill="#fff"/>
    </g>
    <g id="Group_5113" data-name="Group 5113" transform="translate(-677 -502)">
      <g id="Group_3046" data-name="Group 3046" transform="translate(784 2598)">
        <g id="Group_2870" data-name="Group 2870" transform="translate(0 0)">
          <rect id="Rectangle_3173" data-name="Rectangle 3173" width="271" height="177" rx="17" transform="translate(35)" fill="#3cc3b4"/>
          <rect id="Rectangle_3174" data-name="Rectangle 3174" width="263" height="165" rx="17" transform="translate(39 6)" fill="#fff"/>
          <rect id="Rectangle_3172" data-name="Rectangle 3172" width="48" height="95" rx="8" transform="translate(11 106)" fill="#3cc3b4"/>
          <path id="Path_7921" data-name="Path 7921" d="M8.171,0l2.072,2.152H33.17L35.657,0c4.513,0,8.171,3.957,8.171,8.838v71.1c0,4.881-3.658,8.838-8.171,8.838H8.171C3.658,88.778,0,84.821,0,79.94V8.838C0,3.957,3.658,0,8.171,0Z" transform="translate(13.43 109.414)" fill="#fff"/>
          <path id="Path_7922" data-name="Path 7922" d="M-7059.831,7163l-20.647,24.048h65.49L-7035.723,7163" transform="translate(7218.688 -6986.022)" fill="#3cc3b4"/>
          <rect id="Rectangle_3175" data-name="Rectangle 3175" width="34" height="3" transform="translate(18 120)" fill="#3cc3b4" opacity="0.209"/>
          <rect id="Rectangle_3178" data-name="Rectangle 3178" width="246" height="15" transform="translate(46 15)" fill="#3cc3b4" opacity="0.209"/>
          <rect id="Rectangle_3179" data-name="Rectangle 3179" width="58" height="82" transform="translate(91 46)" fill="#3cc3b4" opacity="0.209"/>
          <rect id="Rectangle_3182" data-name="Rectangle 3182" width="34" height="45" transform="translate(18 127)" fill="#3cc3b4" opacity="0.209"/>
          <rect id="Rectangle_3180" data-name="Rectangle 3180" width="58" height="82" transform="translate(155 46)" fill="#3cc3b4" opacity="0.209"/>
          <rect id="Rectangle_3181" data-name="Rectangle 3181" width="58" height="82" transform="translate(219 48)" fill="#3cc3b4" opacity="0.209"/>
          <rect id="Rectangle_3176" data-name="Rectangle 3176" width="22" height="5" transform="translate(24 180)" fill="#3cc3b4" opacity="0.209"/>
          <rect id="Rectangle_3177" data-name="Rectangle 3177" width="22" height="4" transform="translate(24 175)" fill="#3cc3b4" opacity="0.209"/>
        </g>
        <g id="_x3C_Group_x3E__4_" transform="translate(182.491 85.024)">
          <g id="Group_2875" data-name="Group 2875" transform="translate(9.848 9.847)">
            <path id="Path_7930" data-name="Path 7930" d="M195.345,199.91l-4.726-4.726-2.291,2.291a.809.809,0,0,1-1.341-.316L182.4,183.411a.81.81,0,0,1,1.024-1.024l13.747,4.583a.809.809,0,0,1,.316,1.341L195.2,190.6l4.726,4.726a.81.81,0,0,1,0,1.145l-3.436,3.436A.81.81,0,0,1,195.345,199.91Z" transform="translate(-182.362 -182.344)" fill="#3cc3b4"/>
          </g>
          <g id="Group_2876" data-name="Group 2876" transform="translate(9.721)">
            <path id="Path_7931" data-name="Path 7931" d="M180.81,6.481a.81.81,0,0,1-.81-.81V.81a.81.81,0,0,1,1.62,0V5.67A.81.81,0,0,1,180.81,6.481Z" transform="translate(-180)" fill="#3cc3b4"/>
          </g>
          <g id="Group_2877" data-name="Group 2877" transform="translate(2.847 2.847)">
            <path id="Path_7932" data-name="Path 7932" d="M56.394,57.54,52.957,54.1A.81.81,0,1,1,54.1,52.957l3.437,3.437a.81.81,0,0,1-1.145,1.146Z" transform="translate(-52.72 -52.72)" fill="#3cc3b4"/>
          </g>
          <g id="Group_2878" data-name="Group 2878" transform="translate(2.847 13.157)">
            <path id="Path_7933" data-name="Path 7933" d="M52.957,248.454a.81.81,0,0,1,0-1.145l3.437-3.437a.81.81,0,1,1,1.145,1.145L54.1,248.454A.81.81,0,0,1,52.957,248.454Z" transform="translate(-52.72 -243.634)" fill="#3cc3b4"/>
          </g>
          <g id="Group_2879" data-name="Group 2879" transform="translate(13.157 2.847)">
            <path id="Path_7934" data-name="Path 7934" d="M243.87,57.541a.81.81,0,0,1,0-1.145l3.437-3.437a.81.81,0,1,1,1.145,1.145l-3.437,3.437A.81.81,0,0,1,243.87,57.541Z" transform="translate(-243.633 -52.721)" fill="#3cc3b4"/>
          </g>
          <g id="Group_2880" data-name="Group 2880" transform="translate(0 9.721)">
            <path id="Path_7935" data-name="Path 7935" d="M5.67,181.62H.81a.81.81,0,0,1,0-1.62H5.67a.81.81,0,0,1,0,1.62Z" transform="translate(0 -180)" fill="#3cc3b4"/>
          </g>
        </g>
      </g>
    </g>
    <rect id="Rectangle_4048" data-name="Rectangle 4048" width="143" height="170" transform="translate(417 2159)" fill="#fff"/>
    <g id="Group_5413" data-name="Group 5413">
      <rect id="Rectangle_4023" data-name="Rectangle 4023" width="55" height="15" transform="translate(423 2230)" fill="#6de8da"/>
      <rect id="Rectangle_4024" data-name="Rectangle 4024" width="56" height="15" transform="translate(484 2230)" fill="#6de8da"/>
      <rect id="Rectangle_4025" data-name="Rectangle 4025" width="55" height="16" transform="translate(423 2248)" fill="#6de8da"/>
      <rect id="Rectangle_4026" data-name="Rectangle 4026" width="56" height="16" transform="translate(484 2248)" fill="#6de8da"/>
      <rect id="Rectangle_4027" data-name="Rectangle 4027" width="55" height="13" transform="translate(423 2266)" fill="#6de8da"/>
      <rect id="Rectangle_4028" data-name="Rectangle 4028" width="56" height="13" transform="translate(484 2266)" fill="#6de8da"/>
      <rect id="Rectangle_4029" data-name="Rectangle 4029" width="55" height="15" transform="translate(423 2282)" fill="#6de8da"/>
      <rect id="Rectangle_4022" data-name="Rectangle 4022" width="56" height="15" transform="translate(484 2282)" fill="#6de8da"/>
      <rect id="Rectangle_4034" data-name="Rectangle 4034" width="55" height="14" transform="translate(423 2161)" fill="#6de8da"/>
      <rect id="Rectangle_4035" data-name="Rectangle 4035" width="55" height="15" transform="translate(484 2159)" fill="#6de8da"/>
      <rect id="Rectangle_4036" data-name="Rectangle 4036" width="55" height="16" transform="translate(423 2178)" fill="#6de8da"/>
      <rect id="Rectangle_4037" data-name="Rectangle 4037" width="55" height="15" transform="translate(484 2177)" fill="#6de8da"/>
      <rect id="Rectangle_4030" data-name="Rectangle 4030" width="55" height="12" transform="translate(423 2197)" fill="#6de8da"/>
      <rect id="Rectangle_4031" data-name="Rectangle 4031" width="55" height="13" transform="translate(484 2195)" fill="#6de8da"/>
      <rect id="Rectangle_4032" data-name="Rectangle 4032" width="55" height="15" transform="translate(423 2212)" fill="#6de8da"/>
      <rect id="Rectangle_4033" data-name="Rectangle 4033" width="55" height="15" transform="translate(484 2211)" fill="#6de8da"/>
      <g id="Group_5382" data-name="Group 5382" transform="translate(-337 106)">
        <circle id="Ellipse_809" data-name="Ellipse 809" cx="3.5" cy="3.5" r="3.5" transform="translate(792 2131)" fill="#fff"/>
        <circle id="Ellipse_816" data-name="Ellipse 816" cx="3.5" cy="3.5" r="3.5" transform="translate(802 2131)" fill="#fff"/>
        <circle id="Ellipse_810" data-name="Ellipse 810" cx="3.5" cy="3.5" r="3.5" transform="translate(792 2148)" fill="#fff"/>
        <circle id="Ellipse_815" data-name="Ellipse 815" cx="3.5" cy="3.5" r="3.5" transform="translate(802 2148)" fill="#fff"/>
        <circle id="Ellipse_811" data-name="Ellipse 811" cx="3.5" cy="3.5" r="3.5" transform="translate(792 2162)" fill="#fff"/>
        <circle id="Ellipse_814" data-name="Ellipse 814" cx="3.5" cy="3.5" r="3.5" transform="translate(802 2162)" fill="#fff"/>
        <circle id="Ellipse_812" data-name="Ellipse 812" cx="3.5" cy="3.5" r="3.5" transform="translate(792 2181)" fill="#fff"/>
        <circle id="Ellipse_813" data-name="Ellipse 813" cx="3.5" cy="3.5" r="3.5" transform="translate(802 2181)" fill="#fff"/>
        <circle id="Ellipse_809-2" data-name="Ellipse 809" cx="3.5" cy="3.5" r="3.5" transform="translate(792 2060)" fill="#fff"/>
        <circle id="Ellipse_816-2" data-name="Ellipse 816" cx="3.5" cy="3.5" r="3.5" transform="translate(802 2060)" fill="#fff"/>
        <circle id="Ellipse_810-2" data-name="Ellipse 810" cx="3.5" cy="3.5" r="3.5" transform="translate(792 2078)" fill="#fff"/>
        <circle id="Ellipse_815-2" data-name="Ellipse 815" cx="3.5" cy="3.5" r="3.5" transform="translate(802 2078)" fill="#fff"/>
        <circle id="Ellipse_811-2" data-name="Ellipse 811" cx="3.5" cy="3.5" r="3.5" transform="translate(792 2093)" fill="#fff"/>
        <circle id="Ellipse_814-2" data-name="Ellipse 814" cx="3.5" cy="3.5" r="3.5" transform="translate(802 2093)" fill="#fff"/>
        <circle id="Ellipse_812-2" data-name="Ellipse 812" cx="3.5" cy="3.5" r="3.5" transform="translate(792 2111)" fill="#fff"/>
        <circle id="Ellipse_813-2" data-name="Ellipse 813" cx="3.5" cy="3.5" r="3.5" transform="translate(802 2111)" fill="#fff"/>
      </g>
      <g id="Group_5383" data-name="Group 5383" transform="translate(-276 103)" opacity="0.998">
        <circle id="Ellipse_809-3" data-name="Ellipse 809" cx="3.5" cy="3.5" r="3.5" transform="translate(792 2131)" fill="#fff"/>
        <circle id="Ellipse_816-3" data-name="Ellipse 816" cx="3.5" cy="3.5" r="3.5" transform="translate(802 2131)" fill="#fff"/>
        <circle id="Ellipse_810-3" data-name="Ellipse 810" cx="3.5" cy="3.5" r="3.5" transform="translate(792 2148)" fill="#fff"/>
        <circle id="Ellipse_815-3" data-name="Ellipse 815" cx="3.5" cy="3.5" r="3.5" transform="translate(802 2148)" fill="#fff"/>
        <circle id="Ellipse_811-3" data-name="Ellipse 811" cx="3.5" cy="3.5" r="3.5" transform="translate(792 2162)" fill="#fff"/>
        <circle id="Ellipse_814-3" data-name="Ellipse 814" cx="3.5" cy="3.5" r="3.5" transform="translate(802 2162)" fill="#fff"/>
        <circle id="Ellipse_812-3" data-name="Ellipse 812" cx="3.5" cy="3.5" r="3.5" transform="translate(792 2181)" fill="#fff"/>
        <circle id="Ellipse_813-3" data-name="Ellipse 813" cx="3.5" cy="3.5" r="3.5" transform="translate(802 2181)" fill="#fff"/>
        <circle id="Ellipse_809-4" data-name="Ellipse 809" cx="3.5" cy="3.5" r="3.5" transform="translate(792 2060)" fill="#fff"/>
        <circle id="Ellipse_816-4" data-name="Ellipse 816" cx="3.5" cy="3.5" r="3.5" transform="translate(802 2060)" fill="#fff"/>
        <circle id="Ellipse_810-4" data-name="Ellipse 810" cx="3.5" cy="3.5" r="3.5" transform="translate(792 2078)" fill="#fff"/>
        <circle id="Ellipse_815-4" data-name="Ellipse 815" cx="3.5" cy="3.5" r="3.5" transform="translate(802 2078)" fill="#fff"/>
        <circle id="Ellipse_811-4" data-name="Ellipse 811" cx="3.5" cy="3.5" r="3.5" transform="translate(792 2093)" fill="#fff"/>
        <circle id="Ellipse_814-4" data-name="Ellipse 814" cx="3.5" cy="3.5" r="3.5" transform="translate(802 2093)" fill="#fff"/>
        <circle id="Ellipse_812-4" data-name="Ellipse 812" cx="3.5" cy="3.5" r="3.5" transform="translate(792 2111)" fill="#fff"/>
        <circle id="Ellipse_813-4" data-name="Ellipse 813" cx="3.5" cy="3.5" r="3.5" transform="translate(802 2111)" fill="#fff"/>
      </g>
    </g>
    <g id="Group_5427" data-name="Group 5427" transform="translate(338.741 2229)">
      <path id="Path_12670" data-name="Path 12670" d="M-3217.727,14916.8l-28.5-26.576" transform="translate(3291.685 -14848.966)" fill="#fff" stroke="#41e5d3" stroke-linecap="round" stroke-width="10"/>
      <g id="Ellipse_1065" data-name="Ellipse 1065" fill="#fff" stroke="#41e5d3" stroke-width="10">
        <ellipse cx="27.327" cy="26.482" rx="27.327" ry="26.482" stroke="none"/>
        <ellipse cx="27.327" cy="26.482" rx="22.327" ry="21.482" fill="none"/>
      </g>
    </g>
  </g>
</svg>
