<?xml version="1.0" encoding="UTF-8"?><svg id="Layer_2" xmlns="http://www.w3.org/2000/svg" viewBox="0 0 262.03 54.14"><defs><style>.cls-1{font-family:CenturyGothic, 'Century Gothic';font-size:21.74px;}</style></defs><g id="Layer_5"><g><text class="cls-1" transform="translate(125.08 23.27)"><tspan x="0" y="0">CONSULTING</tspan><tspan x="0" y="23.41">SERVICES</tspan></text><g><path d="M24.94,54.12c-.2,0-.4,0-.59,0-4.11,0-7.68-.57-10.73-1.71-3.04-1.14-5.58-2.7-7.61-4.68-2.03-1.98-3.54-4.32-4.53-7.01-.99-2.7-1.48-5.6-1.48-8.72V.09H17.66V30.08c0,2.52,.61,4.49,1.82,5.9,1.21,1.41,2.93,2.12,5.16,2.12s3.95-.7,5.16-2.12c1.21-1.41,1.82-3.38,1.82-5.9V.09h17.59V54.13s-24.27,0-24.27,0Z"/><path d="M74.01,15.45v23.09h3.36c4.28,0,7.57-.93,9.86-2.79,2.29-1.86,3.44-4.91,3.44-9.14,0-3.52-1.15-6.26-3.44-8.22-2.29-1.96-5.35-2.94-9.18-2.94h-4.05Zm-17.51,38.69V0h20.19c4.28,0,8.37,.42,12.27,1.26,3.9,.84,7.34,2.29,10.32,4.36,2.98,2.06,5.37,4.8,7.15,8.22,1.78,3.42,2.68,7.72,2.68,12.92,0,4.74-.85,8.84-2.56,12.31-1.71,3.47-3.99,6.31-6.84,8.53-2.85,2.22-6.14,3.86-9.86,4.93-3.72,1.07-7.6,1.61-11.62,1.61h-21.72Z"/></g></g></g></svg>