<svg xmlns="http://www.w3.org/2000/svg" width="120.053" height="24.149" viewBox="0 0 120.053 24.149">
  <g id="UXMINT-LOGO-SVG" transform="translate(-3561.459 -119.353)">
    <g id="Group_664" data-name="Group 664" transform="translate(3588.558 119.353)">
      <g id="Group_663" data-name="Group 663" transform="translate(0 0)">
        <g id="Group_656" data-name="Group 656" transform="translate(0 6.141)">
          <path id="Path_1535" data-name="Path 1535" d="M20.819-90.94l-.346-2.307a7.792,7.792,0,0,1-1.038-.086,3.5,3.5,0,0,1-1.845-1.1c-.778-.75-.951-2.307-.951-3.546v-8.909H14.043v9.255a7.318,7.318,0,0,0,2.1,5.19,6.947,6.947,0,0,0,3.546,1.5C20.3-90.911,20.819-90.94,20.819-90.94Z" transform="translate(-14.043 106.884)" fill="#c3343c"/>
        </g>
        <g id="Group_657" data-name="Group 657" transform="translate(13.206 22.114) rotate(180)">
          <path id="Path_1536" data-name="Path 1536" d="M6.775,0V2.335a11.482,11.482,0,0,0-1.384.086,3.5,3.5,0,0,0-1.845,1.1c-.778.75-.951,2.307-.951,3.546v8.909H0V6.718a7.318,7.318,0,0,1,2.1-5.19A6.947,6.947,0,0,1,5.651.029C6.257,0,6.775,0,6.775,0Z" transform="translate(0 0)" fill="#c3343c"/>
        </g>
        <g id="Group_658" data-name="Group 658" transform="translate(16.751 6.141)">
          <path id="Path_1537" data-name="Path 1537" d="M12.627-91.084H15.6l-5.1-7.986,5.074-7.813H12.829l-3.575,5.853-3.748-5.853H2.536l5.1,7.958-5.1,7.842H5.275l3.6-5.882Z" transform="translate(-2.536 106.884)" fill="#c3343c"/>
        </g>
        <g id="Group_659" data-name="Group 659" transform="translate(32.407 5.853)">
          <path id="Path_1538" data-name="Path 1538" d="M37.824-92.747h2.595v-9.313c0-4.527-2.8-6.775-6.4-6.775a5.849,5.849,0,0,0-5.593,3.517,5.945,5.945,0,0,0-5.8-3.517,5.712,5.712,0,0,0-4.988,2.566v-2.278H15.018v15.8h2.624v-8.707c0-3.4,1.816-5.1,4.469-5.1,2.595,0,4.325,1.643,4.325,4.873v8.938h2.595v-8.707c0-3.4,1.816-5.1,4.469-5.1,2.595,0,4.325,1.643,4.325,4.873Z" transform="translate(-15.018 108.835)" fill="#c3343c"/>
        </g>
        <g id="Group_660" data-name="Group 660" transform="translate(61.671)">
          <path id="Path_1539" data-name="Path 1539" d="M12.525-126.488h2.624v-15.8H12.525Zm1.355-18.366a1.748,1.748,0,0,0,1.73-1.788,1.748,1.748,0,0,0-1.73-1.788,1.76,1.76,0,0,0-1.788,1.788A1.76,1.76,0,0,0,13.88-144.854Z" transform="translate(-12.093 148.429)" fill="#c3343c"/>
        </g>
        <g id="Group_661" data-name="Group 661" transform="translate(69.196 5.853)">
          <path id="Path_1540" data-name="Path 1540" d="M26.58-92.747h2.595v-9.313c0-4.527-2.8-6.775-6.458-6.775a5.837,5.837,0,0,0-5.074,2.537v-2.249H15.018v15.8h2.624v-8.736c0-3.4,1.845-5.074,4.527-5.074,2.653,0,4.411,1.643,4.411,4.873Z" transform="translate(-15.018 108.835)" fill="#c3343c"/>
        </g>
        <g id="Group_662" data-name="Group 662" transform="translate(86.178 2.162)">
          <path id="Path_1541" data-name="Path 1541" d="M7.118-118.347l-.058,4.584,2.71-.029s-.029-3-.029-4.555v-9.313h2.1l-.029-2.162H9.742V-133.8H7.118v3.979H5.071v2.162H7.118Z" transform="translate(-5.071 133.8)" fill="#c3343c"/>
        </g>
      </g>
    </g>
    <g id="Group_665" data-name="Group 665" transform="translate(3561.459 121.359)">
      <g id="Path_8121" transform="translate(0 0)">
        <path id="Path_1542" data-name="Path 1542" d="M5027.507,2869.855a11.071,11.071,0,1,0,11.075,11.071,10.8,10.8,0,0,0-.238-2.275A11.077,11.077,0,0,0,5027.507,2869.855Zm0,1.17a9.917,9.917,0,0,1,9.7,7.865,10.137,10.137,0,0,1,.21,2.036,9.9,9.9,0,1,1-9.905-9.9Zm7.08,10.74a7.467,7.467,0,0,1-4.375,5.72,7.126,7.126,0,0,1-3.939.433,7.381,7.381,0,0,1-5.769-5.651,8.2,8.2,0,0,1-.044-2.809,5.322,5.322,0,0,1,.328-1.105c.049-.089.057-.121.146-.174a.256.256,0,0,1,.21-.032l.089.048a.467.467,0,0,1,.073.081.315.315,0,0,1,.036.255,6.32,6.32,0,0,0,.183,3.372l.015.049a6.229,6.229,0,0,0,1.871,2.583,5.869,5.869,0,0,0,1.417.89,5.793,5.793,0,0,0,1.623.47,5.379,5.379,0,0,0,2.712-.3,5.271,5.271,0,0,0,3.089-5.728,4.422,4.422,0,0,0-2.506-3.157,3.863,3.863,0,0,0-3.275-.052,2.768,2.768,0,0,0-1.409,1.6,2.723,2.723,0,0,0,.053,1.789,1.508,1.508,0,0,0,1.538.955.573.573,0,0,0,.5-.5,1.239,1.239,0,0,1,.166-.494,1.331,1.331,0,0,1,1.036-.656c.089-.008.178,0,.268,0,.084.024.174.032.258.061a1.325,1.325,0,0,1,.891,1.409,3.174,3.174,0,0,1-1.85,2.51c-1.607.676-3.531-.231-4.6-1.611a4.392,4.392,0,0,1-.766-3.947,5.428,5.428,0,0,1,3.971-3.789,5.983,5.983,0,0,1,1.364-.158,6.822,6.822,0,0,1,4.716,1.935A7.065,7.065,0,0,1,5034.586,2881.764Z" transform="translate(-5016.439 -2869.855)" fill="#c3343c" fill-rule="evenodd"/>
      </g>
    </g>
  </g>
</svg>
