<svg xmlns="http://www.w3.org/2000/svg" width="212.797" height="43.811" viewBox="0 0 212.797 43.811">
  <g id="world_vision" data-name="world vision" transform="translate(0 0)">
    <path id="Path_9362" data-name="Path 9362" d="M-692.305-111.418c0-1.826,0-1.829-1.838-1.831h-69.045a2.646,2.646,0,0,0-1.661.319c30.273,4.577,54.227,19.132,72.309,43.468l.234-.184V-70.98Q-692.305-91.2-692.305-111.418Zm-8.221,10.108a3.521,3.521,0,0,0-3.184,3.654c-.219,2.162-.344,4.331-.506,6.5a4.045,4.045,0,0,1-.083.841,75.571,75.571,0,0,0-.589-7.593,3.5,3.5,0,0,0-3.37-3.456c-.764-.136-1.536-.236-2.538-.388,1.789-.565,3.665-.3,4.961-1.542s1.189-3.062,1.652-4.822c-.138,4.264,1.964,6.278,6.057,6.364C-698.929-101.609-699.74-101.508-700.527-101.31Z" transform="translate(905.102 113.273)" fill="#282829"/>
    <path id="Path_9363" data-name="Path 9363" d="M-1303.769-23.583a1.773,1.773,0,0,0-1.473.027,1.773,1.773,0,0,0-.944,1.131q-2.248,6-4.471,12.01c-.1.281-.107.636-.533.811-1.426-3.677-2.87-7.3-4.222-10.953-.372-1-1.018-1.094-1.9-1.109a1.436,1.436,0,0,0-1.645,1.106c-.319,1.017-.755,2-1.148,2.991l-3.207,8.219c-.225-.526-.365-.811-.471-1.11q-1.687-4.761-3.365-9.527c-1.311-3.74-1.307-3.717-5.266-3.646-.985.018-1.233.282-.878,1.227q3.532,9.4,7,18.827a1.51,1.51,0,0,0,1.661,1.1,1.564,1.564,0,0,0,1.755-1.145c.84-2.317,1.763-4.6,2.654-6.9.559-1.438,1.122-2.87,1.784-4.568.28.64.453,1,.6,1.375,1.314,3.367,2.654,6.725,3.917,10.111a1.592,1.592,0,0,0,1.792,1.1,1.491,1.491,0,0,0,1.621-1.156c1.184-3.284,2.435-6.543,3.655-9.818,1.106-2.964,2.216-5.924,3.29-8.9C-1303.437-22.76-1302.969-23.318-1303.769-23.583Z" transform="translate(1333.449 45.82)" fill="#282829"/>
    <path id="Path_9364" data-name="Path 9364" d="M-1043.221-35.414c-1.186-.041-1.482.453-1.455,1.518.053,2.092.02,4.187.012,6.282,0,1.384,0,1.367-1.249.879a8.493,8.493,0,0,0-5.423-.464,7.628,7.628,0,0,0-6.076,6.234,7.745,7.745,0,0,0,3.172,8.347,7.918,7.918,0,0,0,8.924.532c.478-.261,1.074-.947,1.172.323.032.417.461.412.784.423.574.02,1.149.017,1.723.015,1.662,0,1.689-.024,1.692-1.748q.007-5.112,0-10.225c0-2.956.02-5.914,0-8.87C-1039.974-36-1039.476-35.286-1043.221-35.414Zm-2.224,21.52c-2.659,1.828-5.5.991-6.513-2.06a8.157,8.157,0,0,1,.968-7.855,3.8,3.8,0,0,1,2.745-1.59,3.8,3.8,0,0,1,3,1.043,1.661,1.661,0,0,1,.592,1.406c-.013,1.273,0,2.545,0,3.819s-.02,2.547,0,3.819a1.557,1.557,0,0,1-.784,1.418Z" transform="translate(1125.631 54.637)" fill="#282829"/>
    <path id="Path_9365" data-name="Path 9365" d="M-649.381,4.39c-.057-6-5.485-9.274-10.876-6.559-.6.3-1.2.879-1.468-.344-.076-.344-.538-.326-.862-.334-.657-.015-1.317.024-1.964-.02-1.008-.068-1.4.373-1.387,1.373.035,2.217.011,4.436.009,6.654,0,1.6-.012,3.2,0,4.806.029,3.625-.346,2.93,3.1,3.068,1.252.05,1.646-.373,1.621-1.61-.068-3.323,0-6.654-.036-9.981a1.914,1.914,0,0,1,.968-1.828,3.809,3.809,0,0,1,3.983-.372,3.81,3.81,0,0,1,2.119,3.393c.137,2.334.036,4.683.068,7.022.056,3.986-.574,3.269,3.527,3.367.92.023,1.228-.355,1.218-1.237C-649.4,9.32-649.359,6.855-649.381,4.39Z" transform="translate(830.597 30.317)" fill="#282829"/>
    <path id="Path_9366" data-name="Path 9366" d="M-928.286-24.089a1.623,1.623,0,0,0-1.767,1.169c-.7,1.755-1.488,3.474-2.237,5.208-1.137,2.631-2.273,5.266-3.534,8.184-.276-.529-.425-.767-.532-1.021-1.588-3.745-3.151-7.5-4.761-11.234-1.137-2.64-.731-2.249-3.362-2.288q-.863-.014-1.726,0c-1.3.024-1.394.151-.864,1.349q4.156,9.415,8.327,18.822c.3.69.625,1.156,1.51,1.151a1.5,1.5,0,0,0,1.52-1.136c1.661-3.849,3.349-7.682,5.022-11.524,1.083-2.485,2.13-4.985,3.248-7.457C-926.992-23.859-927.34-24.067-928.286-24.089Z" transform="translate(1042.605 46.103)" fill="#282829"/>
    <path id="Path_9367" data-name="Path 9367" d="M-737.715-2.622c-.287.018-.574.035-.861.056a7.942,7.942,0,0,0-7.181,8.6,7.6,7.6,0,0,0,5.123,6.9,9.063,9.063,0,0,0,9.29-1.423,7.962,7.962,0,0,0,2.152-9.3,8.308,8.308,0,0,0-8.524-4.831ZM-734.1,9.433a3.136,3.136,0,0,1-3.006,2.329,3.3,3.3,0,0,1-3.205-2.251,13.777,13.777,0,0,1-.755-3.856,14.949,14.949,0,0,1,.73-4.229,3.44,3.44,0,0,1,3.172-2.352,3.1,3.1,0,0,1,3.03,2.293,11.341,11.341,0,0,1,.033,8.066Z" transform="translate(890.752 29.96)" fill="#282829"/>
    <path id="Path_9368" data-name="Path 9368" d="M-1208.678-2.819a8.091,8.091,0,0,0-6.085,2.226,8.09,8.09,0,0,0-2.5,5.978,8.044,8.044,0,0,0,2.445,5.808,8.043,8.043,0,0,0,5.881,2.263c5.225,0,8.828-3.285,8.832-8.065A8.088,8.088,0,0,0-1202.6-.586a8.089,8.089,0,0,0-6.079-2.232Zm3.006,12.374a3.118,3.118,0,0,1-2.912,2.092,3.112,3.112,0,0,1-3.071-2.06,10.768,10.768,0,0,1,.1-8.725,3.075,3.075,0,0,1,2.929-1.909,3.054,3.054,0,0,1,2.758,1.769,9,9,0,0,1,.965,4.812,8.33,8.33,0,0,1-.769,4.021Z" transform="translate(1245.916 30.079)" fill="#282829"/>
    <path id="Path_9369" data-name="Path 9369" d="M-1080.28-23.308c0-3.038.012-6.075,0-9.113-.016-3.427.334-2.87-2.971-2.917-1.711-.021-1.722,0-1.723,1.7,0,6.4-.018,12.808,0,19.211.014,3.758-.427,3.063,3.216,3.187,1.141.039,1.51-.369,1.5-1.482C-1080.31-16.245-1080.28-19.778-1080.28-23.308Z" transform="translate(1146.273 54.584)" fill="#282829"/>
    <path id="Path_9370" data-name="Path 9370" d="M-826.125,4.551c-1.442-.69-2.932-1.281-4.388-1.943-.713-.323-1.288-.8-1.112-1.7s.894-1.23,1.7-1.372a4.908,4.908,0,0,1,3.793,1.1c1.269.906,1.276.9,1.938-.523.573-1.227.506-1.433-.794-1.829a10.259,10.259,0,0,0-3.858-.619,7.015,7.015,0,0,0-4.461,1.159,4.169,4.169,0,0,0-2.1,4.158,5.023,5.023,0,0,0,3.556,4.032,23.869,23.869,0,0,1,3.589,1.615,1.725,1.725,0,0,1,.865,1.888,1.751,1.751,0,0,1-1.618,1.461,5.325,5.325,0,0,1-4.029-1.153c-.553-.412-.9-1.494-1.661-1.149-.648.3-.71,1.328-1.038,2.03a.667.667,0,0,0-.047.6.666.666,0,0,0,.452.394,10.725,10.725,0,0,0,8.922.71,4.911,4.911,0,0,0,3.122-4.627,4.313,4.313,0,0,0-2.831-4.228Z" transform="translate(958.572 29.73)" fill="#282829"/>
    <path id="Path_9371" data-name="Path 9371" d="M-1127.322-2.771a6.16,6.16,0,0,0-5.02-.024c-.569.27-1.19,1.192-1.692-.11-.045-.116-.453-.125-.692-.13-.7-.014-1.4.045-2.094-.008-1.057-.08-1.456.329-1.444,1.414.047,3.776-.008,7.552.024,11.329.032,3.695-.535,3.084,3.208,3.181.992.026,1.408-.281,1.368-1.323-.065-1.723-.018-3.45-.016-5.175V1.331c0-1.61,1.035-2.266,2.512-1.523a16.323,16.323,0,0,1,2.156,1.417c.412.3.717.379.962-.166q.6-1.349,1.224-2.69C-1126.552-2.2-1126.763-2.558-1127.322-2.771Z" transform="translate(1186.408 30.457)" fill="#282829"/>
    <path id="Path_9372" data-name="Path 9372" d="M-770.413,5.705c0-1.6.014-3.2,0-4.8-.035-3.595.435-3.045-3.154-3.145-1.175-.032-1.588.366-1.569,1.55.056,3.693,0,7.388.026,11.081.032,3.891-.518,3.2,3.334,3.31,1.012.029,1.4-.331,1.378-1.344C-770.445,10.139-770.415,7.921-770.413,5.705Z" transform="translate(912.856 29.645)" fill="#282829"/>
    <path id="Path_9373" data-name="Path 9373" d="M-857.841,1.017c-.033-3.645.6-3.154-3.323-3.214-.983-.015-1.276.408-1.258,1.337.044,2.217.014,4.436.014,6.654V10.6c0,3.163,0,3.113,3.119,3.145,1.168.012,1.479-.427,1.467-1.51C-857.856,8.493-857.808,4.754-857.841,1.017Z" transform="translate(978.604 29.611)" fill="#282829"/>
    <path id="Path_9374" data-name="Path 9374" d="M-772.027-30.3a2.275,2.275,0,0,0-1.747.619,2.275,2.275,0,0,0-.707,1.713,2.3,2.3,0,0,0,.684,1.659,2.294,2.294,0,0,0,1.668.66,2.373,2.373,0,0,0,2.4-2.3,2.244,2.244,0,0,0-.637-1.673A2.245,2.245,0,0,0-772.027-30.3Z" transform="translate(912.359 50.777)" fill="#282829"/>
    <path id="Path_9375" data-name="Path 9375" d="M-858.368-30.287a2.367,2.367,0,0,0-2.479,2.207,2.39,2.39,0,0,0,.678,1.719,2.39,2.39,0,0,0,1.7.722,2.266,2.266,0,0,0,1.666-.648,2.266,2.266,0,0,0,.678-1.654,2.152,2.152,0,0,0-.588-1.684A2.153,2.153,0,0,0-858.368-30.287Z" transform="translate(977.424 50.771)" fill="#282829"/>
  </g>
</svg>
