<svg xmlns="http://www.w3.org/2000/svg" width="34" height="34" viewBox="0 0 34 34">
  <g id="Group_5267" data-name="Group 5267" transform="translate(-719 -192)">
    <g id="Group_2941" data-name="Group 2941" transform="translate(19502 4495)" opacity="0.748">
      <circle id="Ellipse_692" data-name="Ellipse 692" cx="17" cy="17" r="17" transform="translate(-18783 -4303)" fill="#313030"/>
    </g>
    <g id="pin" transform="translate(659.221 198.619)">
      <g id="Group_2942" data-name="Group 2942" transform="translate(71.573 2)">
        <path id="Path_7948" data-name="Path 7948" d="M75.89,0a5.323,5.323,0,0,0-5.317,5.317c0,3.638,4.758,8.98,4.961,9.205a.479.479,0,0,0,.712,0c.2-.226,4.961-5.567,4.961-9.205A5.323,5.323,0,0,0,75.89,0Zm0,7.992a2.675,2.675,0,1,1,2.675-2.675A2.678,2.678,0,0,1,75.89,7.992Z" transform="translate(-70.573)" fill="#60d6c9"/>
      </g>
    </g>
  </g>
</svg>
