<svg xmlns="http://www.w3.org/2000/svg" width="31.5" height="25.5" viewBox="0 0 31.5 25.5">
  <g id="Group_5238" data-name="Group 5238" transform="translate(-1102.75 -558.75)">
    <g id="Group_3399" data-name="Group 3399" transform="translate(1104.436 560)" opacity="0.5">
      <g id="Group_2749" data-name="Group 2749" transform="translate(0 0)">
        <g id="Rectangle_941" data-name="Rectangle 941">
          <rect id="Rectangle_3074" data-name="Rectangle 3074" width="29" height="23" transform="translate(-0.436)" fill="#fff" stroke="#707070" stroke-width="2.5"/>
          <path id="Path_8113" data-name="Path 8113" d="M0,0H29V23H0Z" fill="#fff" stroke="#333" stroke-width="1"/>
        </g>
        <line id="Line_574" data-name="Line 574" y2="22.21" transform="translate(14.624 0.91)" fill="none" stroke="#333" stroke-width="1"/>
        <g id="Group_2747" data-name="Group 2747" transform="translate(3.818 6.977)">
          <path id="Path_7818" data-name="Path 7818" d="M300.909,526.047H296.9l-.909,2.479h-.782l3.34-8.827h.71l3.341,8.827h-.776Zm-3.777-.631h3.54l-1.77-4.808Z" transform="translate(-295.21 -519.699)" fill="#333" stroke="#333" stroke-width="0.5"/>
        </g>
        <g id="Group_2748" data-name="Group 2748" transform="translate(18.959 6.977)">
          <path id="Path_7819" data-name="Path 7819" d="M334.909,528.526V519.7h2.607a3.4,3.4,0,0,1,2.153.586,2.076,2.076,0,0,1,.733,1.726,1.956,1.956,0,0,1-.373,1.192,2.041,2.041,0,0,1-1.021.725,2.136,2.136,0,0,1,1.71,2.114,2.293,2.293,0,0,1-.755,1.826,3.09,3.09,0,0,1-2.1.658Zm.746-4.868h2.037a2.292,2.292,0,0,0,1.446-.44,1.5,1.5,0,0,0,.513-1.23,1.476,1.476,0,0,0-.531-1.254,2.636,2.636,0,0,0-1.6-.4h-1.861Zm0,.631V527.9h2.236a2.238,2.238,0,0,0,1.519-.487,1.7,1.7,0,0,0,.561-1.353,1.64,1.64,0,0,0-.537-1.292,2.16,2.16,0,0,0-1.482-.475Z" transform="translate(-334.909 -519.699)" fill="#333" stroke="#333" stroke-width="0.5"/>
        </g>
      </g>
    </g>
  </g>
</svg>
