<svg xmlns="http://www.w3.org/2000/svg" width="28.292" height="23.948" viewBox="0 0 28.292 23.948">
  <g id="Group_5240" data-name="Group 5240" transform="translate(-430.492 -559.432)">
    <g id="Group_3400" data-name="Group 3400" transform="translate(431 560)" opacity="0.5">
      <path id="Path_7813" data-name="Path 7813" d="M232.074,266.187a2.413,2.413,0,0,0-.516-1.466c-.243-.306-.39-.33-1.115-.867-.332-.246-.851-.648-1.066-.854a3.858,3.858,0,0,1-.755-2.949c.26-2.381,3.263-4.1,5.209-4.761,4.661-1.573,8.931,1.053,9.4,1.352.242.154,5.706,3.767,5.468,10.137a11.408,11.408,0,0,1-10.413,10.844,11.8,11.8,0,0,1-7.127-1.782,5.289,5.289,0,0,1-2-2.089A4.032,4.032,0,0,1,229.1,270a3.26,3.26,0,0,1,1.345-1.177,3.829,3.829,0,0,0,1.337-1.526A2.5,2.5,0,0,0,232.074,266.187Z" transform="translate(-228.59 -254.791)" fill="none" stroke="#333" stroke-miterlimit="10" stroke-width="1"/>
      <circle id="Ellipse_698" data-name="Ellipse 698" cx="1.868" cy="1.868" r="1.868" transform="translate(4.496 3.08)" fill="none" stroke="#333" stroke-miterlimit="10" stroke-width="1"/>
      <circle id="Ellipse_699" data-name="Ellipse 699" cx="1.868" cy="1.868" r="1.868" transform="translate(11.501 5.43)" fill="none" stroke="#333" stroke-miterlimit="10" stroke-width="1"/>
      <circle id="Ellipse_700" data-name="Ellipse 700" cx="1.868" cy="1.868" r="1.868" transform="translate(4.496 16.645)" fill="none" stroke="#333" stroke-miterlimit="10" stroke-width="1"/>
      <path id="Path_7814" data-name="Path 7814" d="M270.645,267.35l3.553-3.5s6.18-5.586,7.942-6.456-5.331,7.956-5.331,7.956l-4.221,4.446-2.307-2.154Z" transform="translate(-255.139 -256.412)" fill="#fff" stroke="#333" stroke-miterlimit="10" stroke-width="1"/>
      <path id="Path_7815" data-name="Path 7815" d="M260.3,285.05a2.7,2.7,0,0,0-1.668.495,3.543,3.543,0,0,0-1.136,1.338c-.656,1.147-.354,1.538-.935,2.328-.622.847-1.391.88-1.356,1.265.048.524,1.485.779,1.931.859a4.961,4.961,0,0,0,3.178-.3,4.649,4.649,0,0,0,1.068-.743,4.034,4.034,0,0,0,.914-1.161,2.976,2.976,0,0,0,.322-2.2A2.694,2.694,0,0,0,260.3,285.05Z" transform="translate(-245.541 -274.057)" fill="none" stroke="#333" stroke-miterlimit="10" stroke-width="1"/>
    </g>
  </g>
</svg>
