<svg xmlns="http://www.w3.org/2000/svg" width="27.959" height="25.315" viewBox="0 0 27.959 25.315">
  <g id="Group_5241" data-name="Group 5241" transform="translate(-219.5 -559.5)">
    <g id="Group_3398" data-name="Group 3398" transform="translate(220 560)">
      <g id="Group_2744" data-name="Group 2744" transform="translate(0 0)">
        <line id="Line_108" data-name="Line 108" y2="8.388" transform="translate(13.479 15.593)" fill="none" stroke="#9494a3" stroke-miterlimit="10" stroke-width="1"/>
        <path id="Path_574" data-name="Path 574" d="M138.433,196.171v-6.689h-5.266a2.521,2.521,0,0,1-.9-.442,2.614,2.614,0,0,1-.9-1.348v-7.459s.2-2.058,2.058-2.058a18.042,18.042,0,0,1,2.863.18s1.094.126,1.094,2.188.042,3.926.042,3.926l5.022.058v1.936h-7.518v.575h5.12s1.219.141,1.219,1.219v7.914Z" transform="translate(-131.376 -171.857)" fill="none" stroke="#9494a3" stroke-miterlimit="10" stroke-width="1"/>
        <path id="Path_575" data-name="Path 575" d="M177.22,196.171v-6.689h5.267a2.521,2.521,0,0,0,.9-.442,2.61,2.61,0,0,0,.895-1.348v-7.459s-.2-2.058-2.058-2.058a18.048,18.048,0,0,0-2.863.18s-1.094.126-1.094,2.188-.042,3.926-.042,3.926l-5.022.058v1.936h7.518v.575H175.6s-1.219.141-1.219,1.219v7.914Z" transform="translate(-157.319 -171.857)" fill="none" stroke="#9494a3" stroke-miterlimit="10" stroke-width="1"/>
        <path id="Path_576" data-name="Path 576" d="M166.545,200.925V199.5h-2.287v1.426Z" transform="translate(-151.773 -185.086)" fill="none" stroke="#9494a3" stroke-miterlimit="10" stroke-width="1"/>
        <path id="Path_577" data-name="Path 577" d="M157.937,171.363v-4.172h8v4.172h-3.178l-.924.82-.818-.726h-3.08Z" transform="translate(-148.319 -165.045)" fill="none" stroke="#9494a3" stroke-linecap="round" stroke-linejoin="round" stroke-width="1"/>
        <ellipse id="Ellipse_262" data-name="Ellipse 262" cx="0.493" cy="0.493" rx="0.493" ry="0.493" transform="translate(10.965 3.842)" fill="none" stroke="#9494a3" stroke-width="1"/>
        <ellipse id="Ellipse_263" data-name="Ellipse 263" cx="0.493" cy="0.493" rx="0.493" ry="0.493" transform="translate(13.05 3.842)" fill="none" stroke="#9494a3" stroke-width="1"/>
        <ellipse id="Ellipse_264" data-name="Ellipse 264" cx="0.493" cy="0.493" rx="0.493" ry="0.493" transform="translate(15.206 3.842)" fill="none" stroke="#9494a3" stroke-width="1"/>
        <circle id="Ellipse_260" data-name="Ellipse 260" cx="2.572" cy="2.572" r="2.572" transform="translate(0.962)" fill="none" stroke="#9494a3" stroke-linecap="round" stroke-linejoin="round" stroke-width="1"/>
        <circle id="Ellipse_261" data-name="Ellipse 261" cx="2.572" cy="2.572" r="2.572" transform="translate(21.356)" fill="none" stroke="#9494a3" stroke-linecap="round" stroke-linejoin="round" stroke-width="1"/>
      </g>
    </g>
  </g>
</svg>
