<svg xmlns="http://www.w3.org/2000/svg" width="73" height="73" viewBox="0 0 73 73">
  <g id="Group_5780" data-name="Group 5780" transform="translate(-425 -2929)">
    <rect id="Rectangle_4403" data-name="Rectangle 4403" width="73" height="73" transform="translate(425 2929)" fill="#fff" opacity="0"/>
    <path id="Icon_material-android" data-name="Icon material-android" d="M61.538,11.908,68.7,4.741a2.729,2.729,0,0,0,0-3.914,2.729,2.729,0,0,0-3.914,0L56.631,8.986A32.192,32.192,0,0,0,42.077,5.513,32.657,32.657,0,0,0,27.413,8.986L19.2.827a2.729,2.729,0,0,0-3.914,0,2.729,2.729,0,0,0,0,3.914l7.222,7.222A32.985,32.985,0,0,0,9,38.59H75.155A32.887,32.887,0,0,0,61.538,11.908ZM31.052,27.564H25.539V22.052h5.513Zm27.564,0H53.1V22.052h5.513Z" transform="translate(420 2946)" fill="#000000"/>
  </g>
</svg>
