<?xml version="1.0" encoding="UTF-8"?><svg id="Layer_1" xmlns="http://www.w3.org/2000/svg" viewBox="0 0 78.94 66.6"><defs><style>.cls-1{stroke:#707070;}.cls-1,.cls-2{fill:none;stroke-miterlimit:10;stroke-width:2.45px;}.cls-2{stroke:#c3343c;}</style></defs><g id="Group_3369"><path class="cls-1" d="M57.16,30.77c.13,1.3,.18,2.64,.13,4.04-.72,15.67-12.93,28.37-28.55,29.72-1.22,.11-10.93,.83-19.53-4.88-3.54-2.35-4.84-4.43-5.48-5.72-.67-1.37-2.71-6.2-.17-10.28,.91-1.4,2.18-2.52,3.69-3.23,1.58-1.04,2.84-2.49,3.66-4.18,.51-.94,.78-1.99,.81-3.04-.02-1.47-.52-2.88-1.42-4.02-.67-.84-1.08-.91-3.06-2.38-.91-.68-2.33-1.77-2.92-2.34-2.68-2.57-2.13-7.49-2.07-8.08,.71-6.53,8.94-11.25,14.28-13.05,12.78-4.31,24.48,2.89,25.77,3.71,.49,.3,8.58,5.66,12.67,15.31"/><circle id="Ellipse_698" class="cls-1" cx="19.61" cy="15.52" r="5.12"/><circle id="Ellipse_699" class="cls-1" cx="38.81" cy="21.96" r="5.12"/><circle id="Ellipse_700" class="cls-1" cx="19.61" cy="52.7" r="5.12"/><path id="Path_7814" class="cls-2" d="M44.1,31.98s7.35-6.25,10.97-9.74,16.27-15.2,21.11-17.59-8.52,14.92-14.89,21.64-11.93,13.52-11.93,13.52"/><path id="Path_7815" class="cls-2" d="M42.63,32.09c-1.63-.07-3.24,.41-4.57,1.36-1.33,.94-2.4,2.2-3.11,3.67-1.8,3.15-.97,4.21-2.56,6.38-1.7,2.32-3.82,2.41-3.72,3.47,.13,1.44,4.07,2.14,5.29,2.35,2.91,.69,5.98,.41,8.71-.82,1.07-.54,2.05-1.22,2.93-2.04,1.02-.9,1.87-1.98,2.5-3.18,1.06-1.82,1.37-3.97,.88-6.02-.88-2.84-3.38-4.88-6.35-5.16Z"/></g></svg>