<svg xmlns="http://www.w3.org/2000/svg" xmlns:xlink="http://www.w3.org/1999/xlink" viewBox="0 0 453.03 383.34"><defs><style>.cls-1,.cls-18{fill:#9bd2a5;}.cls-1,.cls-14,.cls-21,.cls-24{stroke:#263238;}.cls-1,.cls-21,.cls-24{stroke-linecap:round;stroke-linejoin:round;stroke-width:0.75px;}.cls-14,.cls-2,.cls-20,.cls-23,.cls-9{fill:#fff;}.cls-2{opacity:0.16;}.cls-3{fill:#bababa;}.cls-4{fill:#f15a29;}.cls-24,.cls-5{fill:#263238;}.cls-12,.cls-13,.cls-6{fill:#ebebeb;}.cls-6{stroke:#0e1131;}.cls-14,.cls-6,.cls-8{stroke-miterlimit:10;stroke-width:0.5px;}.cls-7{fill:#455b64;}.cls-21,.cls-8{fill:none;}.cls-8{stroke:#455b64;}.cls-10{fill:#d3202f;}.cls-11{fill:#e0e0e0;}.cls-12{opacity:0.25;}.cls-13{font-size:12px;font-family:MyriadPro-Regular, Myriad Pro;}.cls-15{fill:#f3725f;}.cls-16{opacity:0.3;}.cls-17{fill:#212a2d;}.cls-19{clip-path:url(#clip-path);}.cls-20{opacity:0.5;}.cls-22{clip-path:url(#clip-path-2);}.cls-23{opacity:0.7;}</style><clipPath id="clip-path"><polygon class="cls-1" points="294.67 212.54 308.16 191.98 321.62 212.57 294.67 212.54"/></clipPath><clipPath id="clip-path-2"><path class="cls-1" d="M321.56,192a3.44,3.44,0,1,1-3.44-3.44A3.44,3.44,0,0,1,321.56,192Z"/></clipPath></defs><g id="Layer_2" data-name="Layer 2"><g id="Layer_3" data-name="Layer 3"><path class="cls-2" d="M65.6,129c55.31-37.65,105.68-5.78,129.75-51.37,51.15-96.91,123.31-96.91,185-33.77,36.3,37.19,133.15,221.09,18.16,303-82.61,58.87-190.06,43.36-301.65-23.61C-3,263.29,10.28,166.61,65.6,129Z"/><rect class="cls-3" x="173.03" y="78.58" width="35.37" height="4.17"/><rect class="cls-3" x="173.03" y="129.63" width="35.37" height="4.17"/><rect class="cls-4" x="173.03" y="88.91" width="60.9" height="4.17"/><rect class="cls-3" x="244.72" y="88.91" width="26.92" height="4.17"/><rect class="cls-5" x="334.14" y="88.91" width="17.7" height="4.17"/><rect class="cls-3" x="281.1" y="88.91" width="46.87" height="4.17"/><rect class="cls-4" x="290.94" y="98.76" width="60.9" height="4.17" transform="translate(642.78 201.69) rotate(180)"/><rect class="cls-3" x="253.23" y="98.76" width="26.92" height="4.17" transform="translate(533.38 201.69) rotate(180)"/><rect class="cls-3" x="173.03" y="98.76" width="17.7" height="4.17" transform="translate(363.75 201.69) rotate(180)"/><rect class="cls-3" x="196.9" y="98.76" width="46.87" height="4.17" transform="translate(440.67 201.69) rotate(180)"/><rect class="cls-4" x="173.03" y="108.88" width="60.9" height="4.17"/><rect class="cls-5" x="244.72" y="108.88" width="26.92" height="4.17"/><rect class="cls-5" x="334.14" y="108.88" width="17.7" height="4.17"/><rect class="cls-3" x="230.88" y="119.19" width="17.7" height="4.17"/><rect class="cls-3" x="281.1" y="108.88" width="46.87" height="4.17"/><rect class="cls-3" x="171.75" y="119.19" width="46.87" height="4.17"/><rect class="cls-6" x="120.94" y="151.38" width="271.14" height="158.4" rx="4.35"/><path class="cls-3" d="M125.5,151.63H387.35a4.32,4.32,0,0,1,4.32,4.32v11.9a0,0,0,0,1,0,0H121.21a0,0,0,0,1,0,0V156A4.32,4.32,0,0,1,125.5,151.63Z"/><path class="cls-5" d="M145.15,161.09a2.1,2.1,0,1,1-2.09-2.1A2.09,2.09,0,0,1,145.15,161.09Z"/><path class="cls-5" d="M132.45,161.09a2.1,2.1,0,1,1-2.1-2.1A2.09,2.09,0,0,1,132.45,161.09Z"/><path class="cls-5" d="M138.55,161.09a2.1,2.1,0,1,1-2.1-2.1A2.09,2.09,0,0,1,138.55,161.09Z"/><path class="cls-7" d="M375.07,227.89H368.7c-.29,0-.53-.11-.53-.26s.24-.27.53-.27h5.84v-2.91c0-.15.24-.26.53-.26s.53.11.53.26v3.18C375.6,227.78,375.36,227.89,375.07,227.89Z"/><path class="cls-7" d="M356.31,227.89H343.93c-.29,0-.53-.11-.53-.26s.24-.27.53-.27h12.38c.3,0,.54.12.54.27S356.61,227.89,356.31,227.89Zm-24.77,0H319.16c-.3,0-.53-.11-.53-.26s.23-.27.53-.27h12.38c.3,0,.53.12.53.27S331.84,227.89,331.54,227.89Zm-24.77,0H294.39c-.3,0-.54-.11-.54-.26s.24-.27.54-.27h12.38c.29,0,.53.12.53.27S307.06,227.89,306.77,227.89Zm-24.77,0H269.61c-.29,0-.53-.11-.53-.26s.24-.27.53-.27H282c.29,0,.53.12.53.27S282.29,227.89,282,227.89Z"/><path class="cls-7" d="M257.23,227.89h-6.37c-.3,0-.53-.11-.53-.26v-3.18c0-.15.23-.26.53-.26s.53.11.53.26v2.91h5.84c.29,0,.53.12.53.27S257.52,227.89,257.23,227.89Z"/><path class="cls-7" d="M250.86,218.09c-.3,0-.53-.12-.53-.26V211.2c0-.14.23-.26.53-.26s.53.12.53.26v6.63C251.39,218,251.15,218.09,250.86,218.09Zm0-13.25c-.3,0-.53-.12-.53-.26V198c0-.14.23-.26.53-.26s.53.12.53.26v6.63C251.39,204.72,251.15,204.84,250.86,204.84Zm0-13.25c-.3,0-.53-.12-.53-.26V184.7c0-.14.23-.26.53-.26s.53.12.53.26v6.63C251.39,191.47,251.15,191.59,250.86,191.59Z"/><path class="cls-7" d="M250.86,178.34c-.3,0-.53-.12-.53-.26V174.9c0-.15.23-.27.53-.27h6.37c.29,0,.53.12.53.27s-.24.26-.53.26h-5.84v2.92C251.39,178.22,251.15,178.34,250.86,178.34Z"/><path class="cls-7" d="M356.32,175.16H343.93c-.29,0-.53-.12-.53-.26s.24-.27.53-.27h12.39c.29,0,.53.12.53.27S356.61,175.16,356.32,175.16Zm-24.78,0H319.16c-.3,0-.53-.12-.53-.26s.23-.27.53-.27h12.38c.3,0,.53.12.53.27S331.84,175.16,331.54,175.16Zm-24.77,0H294.39c-.3,0-.53-.12-.53-.26s.23-.27.53-.27h12.38c.3,0,.53.12.53.27S307.07,175.16,306.77,175.16Zm-24.77,0H269.61c-.29,0-.53-.12-.53-.26s.24-.27.53-.27H282c.29,0,.53.12.53.27S282.29,175.16,282,175.16Z"/><path class="cls-7" d="M375.07,178.34c-.29,0-.53-.12-.53-.26v-2.92H368.7c-.29,0-.53-.12-.53-.26s.24-.27.53-.27h6.37c.29,0,.53.12.53.27v3.18C375.6,178.22,375.36,178.34,375.07,178.34Z"/><path class="cls-7" d="M375.07,218.09c-.29,0-.53-.12-.53-.26V211.2c0-.15.24-.26.53-.26s.53.11.53.26v6.63C375.6,218,375.36,218.09,375.07,218.09Zm0-13.25c-.29,0-.53-.12-.53-.26V198c0-.14.24-.26.53-.26s.53.12.53.26v6.63C375.6,204.72,375.36,204.84,375.07,204.84Zm0-13.25c-.29,0-.53-.12-.53-.26V184.7c0-.14.24-.26.53-.26s.53.12.53.26v6.63C375.6,191.47,375.36,191.59,375.07,191.59Z"/><path class="cls-7" d="M295.83,299.51h-2.3c-.11,0-.19,0-.19-.08s.08-.08.19-.08h2.11v-.88s.09-.08.19-.08.2,0,.2.08v1C296,299.48,295.94,299.51,295.83,299.51Z"/><path class="cls-7" d="M289.05,299.51h-4.48c-.11,0-.2,0-.2-.08s.09-.08.2-.08h4.48c.1,0,.19,0,.19.08S289.15,299.51,289.05,299.51Zm-9,0H275.6c-.1,0-.19,0-.19-.08s.09-.08.19-.08h4.48c.11,0,.2,0,.2.08S280.19,299.51,280.08,299.51Zm-9,0h-4.48c-.11,0-.19,0-.19-.08s.08-.08.19-.08h4.48c.11,0,.19,0,.19.08S271.23,299.51,271.12,299.51Zm-9,0h-4.48c-.11,0-.2,0-.2-.08s.09-.08.2-.08h4.48c.1,0,.19,0,.19.08S262.26,299.51,262.16,299.51Z"/><path class="cls-7" d="M253.19,299.51h-2.3c-.11,0-.19,0-.19-.08v-1s.08-.08.19-.08.19,0,.19.08v.88h2.11c.11,0,.2,0,.2.08S253.3,299.51,253.19,299.51Z"/><path class="cls-7" d="M250.89,296.54c-.11,0-.19,0-.19-.08v-2s.08-.08.19-.08.19,0,.19.08v2C251.08,296.51,251,296.54,250.89,296.54Zm0-4c-.11,0-.19,0-.19-.08v-2c0-.05.08-.08.19-.08s.19,0,.19.08v2S251,292.53,250.89,292.53Zm0-4c-.11,0-.19,0-.19-.08v-2s.08-.08.19-.08.19,0,.19.08v2S251,288.51,250.89,288.51Z"/><path class="cls-7" d="M250.89,284.49c-.11,0-.19,0-.19-.08v-1s.08-.08.19-.08h2.3c.11,0,.2,0,.2.08s-.09.08-.2.08h-2.11v.88S251,284.49,250.89,284.49Z"/><path class="cls-7" d="M289.05,283.53h-4.48c-.11,0-.2,0-.2-.08s.09-.08.2-.08h4.48c.1,0,.19,0,.19.08S289.15,283.53,289.05,283.53Zm-9,0H275.6c-.1,0-.19,0-.19-.08s.09-.08.19-.08h4.48c.11,0,.2,0,.2.08S280.19,283.53,280.08,283.53Zm-9,0h-4.48c-.11,0-.19,0-.19-.08s.08-.08.19-.08h4.48c.11,0,.19,0,.19.08S271.23,283.53,271.12,283.53Zm-9,0h-4.48c-.11,0-.2,0-.2-.08s.09-.08.2-.08h4.48c.1,0,.19,0,.19.08S262.26,283.53,262.16,283.53Z"/><path class="cls-7" d="M295.83,284.49c-.1,0-.19,0-.19-.08v-.88h-2.11c-.11,0-.19,0-.19-.08s.08-.08.19-.08h2.3c.11,0,.2,0,.2.08v1S295.94,284.49,295.83,284.49Z"/><path class="cls-7" d="M295.83,296.54c-.1,0-.19,0-.19-.08v-2s.09-.08.19-.08.2,0,.2.08v2C296,296.51,295.94,296.54,295.83,296.54Zm0-4c-.1,0-.19,0-.19-.08v-2c0-.05.09-.08.19-.08s.2,0,.2.08v2S295.94,292.53,295.83,292.53Zm0-4c-.1,0-.19,0-.19-.08v-2s.09-.08.19-.08.2,0,.2.08v2S295.94,288.51,295.83,288.51Z"/><polyline class="cls-8" points="221.98 268.52 234.8 268.52 234.8 256.07 250.42 256.07"/><rect class="cls-9" x="127.71" y="243.33" width="96.17" height="53.47" rx="5.25"/><path class="cls-5" d="M218.63,296.8s.25,0,.74-.08a5.21,5.21,0,0,0,4.18-3.5,6.18,6.18,0,0,0,.28-2.24c0-.81,0-1.68,0-2.6,0-7.35,0-18,0-31.1,0-1.64,0-3.32,0-5v-2.6a8,8,0,0,0-.24-2.6,5.16,5.16,0,0,0-3.77-3.46,5.56,5.56,0,0,0-1.36-.12H189.45l-56.49,0a5.14,5.14,0,0,0-3.33,1.24,5,5,0,0,0-1.7,3.09,13.8,13.8,0,0,0-.07,1.83v33.84c0,2.27,0,4.52,0,6.74,0,.55,0,1.12,0,1.66a5,5,0,0,0,.35,1.56,5.08,5.08,0,0,0,2,2.4,5.19,5.19,0,0,0,3,.8h21.41l21.48,0,31.1.05,8.46,0,2.2,0c.49,0,.75,0,.75,0h-.75l-2.2,0-8.46,0-31.1.05-21.48,0H133.23a5.55,5.55,0,0,1-3.16-.84,5.36,5.36,0,0,1-2.12-2.55,5.14,5.14,0,0,1-.37-1.64c0-.58,0-1.12,0-1.68q0-3.33,0-6.74V249.65a13.08,13.08,0,0,1,.06-1.87,5.37,5.37,0,0,1,1.81-3.29,5.46,5.46,0,0,1,3.54-1.32h56.49l24.65,0h4.29a6.22,6.22,0,0,1,1.42.14,5.38,5.38,0,0,1,3.94,3.62,8.44,8.44,0,0,1,.25,2.68v2.6c0,1.72,0,3.4,0,5,0,13.13,0,23.75-.05,31.1,0,.92,0,1.79,0,2.6a6,6,0,0,1-.29,2.27,5.24,5.24,0,0,1-2.2,2.76,5.1,5.1,0,0,1-2.06.74,2.51,2.51,0,0,1-.56,0Z"/><rect class="cls-10" x="137.97" y="252.36" width="14.29" height="2.69"/><rect class="cls-10" x="137.97" y="285.38" width="14.29" height="2.69"/><rect class="cls-11" x="137.97" y="259.04" width="24.6" height="2.69"/><rect class="cls-10" x="166.92" y="259.04" width="10.87" height="2.69"/><rect class="cls-5" x="203.03" y="259.04" width="7.15" height="2.69"/><rect class="cls-7" x="181.61" y="259.04" width="18.93" height="2.69"/><rect class="cls-11" x="185.59" y="265.41" width="24.6" height="2.69" transform="translate(395.77 533.52) rotate(180)"/><rect class="cls-7" x="170.36" y="265.41" width="10.87" height="2.69" transform="translate(351.59 533.52) rotate(180)"/><rect class="cls-5" x="137.97" y="265.41" width="7.15" height="2.69" transform="translate(283.08 533.52) rotate(180)"/><rect class="cls-10" x="147.61" y="265.41" width="18.93" height="2.69" transform="translate(314.14 533.52) rotate(180)"/><rect class="cls-11" x="137.97" y="271.96" width="24.6" height="2.69"/><rect class="cls-5" x="166.92" y="271.96" width="10.87" height="2.69"/><rect class="cls-5" x="203.03" y="271.96" width="7.15" height="2.69"/><rect class="cls-10" x="161.33" y="278.63" width="7.15" height="2.69"/><rect class="cls-7" x="181.61" y="271.96" width="18.93" height="2.69"/><rect class="cls-7" x="137.45" y="278.63" width="18.93" height="2.69"/><rect class="cls-12" x="127.45" y="97.28" width="40" height="18.12" rx="5.34"/><polyline class="cls-8" points="177.23 198.69 210.22 198.69 210.22 214.5 250.44 214.5"/><text class="cls-13" transform="translate(134.33 111)">HTML</text><rect class="cls-12" x="366.03" y="120.61" width="40" height="18.12" rx="5.34"/><text class="cls-13" transform="translate(376.62 134.07)">CSS</text><path class="cls-5" d="M49.94,181.59a2.89,2.89,0,0,0,2.3,1.48,8.05,8.05,0,0,0,1-.23c.32.21.17,1.33-.07,1.62a6.19,6.19,0,0,1-.75.69,3.73,3.73,0,0,0,3.28.07,5.74,5.74,0,0,1-3.7,4.39,2,2,0,0,1-1.84-.08,2.28,2.28,0,0,1-.72-1.49,24.63,24.63,0,0,1-.44-6.18Z"/><path class="cls-9" d="M25.49,190.37l-1.63,26.51c-.28,4.51.23,11.19,7.38,11.31h0c6.21-.37,8.14-6.14,8.39-10.34.12-2,.23-3.66.25-3.87,0,0,6.79-.22,7.69-6.87.44-3.21.79-9.9,1-16a12.5,12.5,0,0,0-11-12.92l-.64-.08C30,177.71,25.75,183.38,25.49,190.37Z"/><path class="cls-7" d="M39.65,213.75a16.22,16.22,0,0,1-8.36-3.63s1.52,5.12,8.24,5.34Z"/><path class="cls-5" d="M36.87,192.91c-.14.13-.88-.53-2-.62s-2,.43-2.09.28.09-.31.47-.55a2.81,2.81,0,0,1,3.27.27C36.84,192.59,36.94,192.85,36.87,192.91Z"/><path class="cls-5" d="M36.92,196.19a.92.92,0,0,1-1,.8.87.87,0,0,1-.83-.93.91.91,0,0,1,1-.8A.87.87,0,0,1,36.92,196.19Z"/><path class="cls-5" d="M39.29,200.83a6.86,6.86,0,0,1,1.7-.1c.26,0,.51,0,.58-.19a1.36,1.36,0,0,0-.08-.79c-.17-.67-.34-1.36-.53-2.09a36.77,36.77,0,0,1-1.1-5.42,35.09,35.09,0,0,1,1.54,5.32c.17.73.33,1.43.49,2.09a1.57,1.57,0,0,1,0,1,.68.68,0,0,1-.48.33,1.69,1.69,0,0,1-.45,0A6.6,6.6,0,0,1,39.29,200.83Z"/><path class="cls-5" d="M37.31,189.4c-.14.23-1-.09-2.07-.2s-2,0-2.07-.25.16-.32.56-.49a3.44,3.44,0,0,1,1.62-.2,3.39,3.39,0,0,1,1.53.54C37.23,189.05,37.37,189.29,37.31,189.4Z"/><path class="cls-5" d="M47.35,191c-.13.19-1-.07-2.05-.16s-1.94,0-2-.21.14-.27.51-.42a4,4,0,0,1,3.12.28C47.24,190.74,47.4,190.94,47.35,191Z"/><path class="cls-9" d="M25.61,195.19c-.11-.07-4.41-1.92-4.83,2.65s4.27,4,4.29,3.92S25.61,195.19,25.61,195.19Z"/><path class="cls-7" d="M23.64,199.9s-.08,0-.22.1a.81.81,0,0,1-.6-.05,2,2,0,0,1-.75-1.85,2.71,2.71,0,0,1,.32-1.12.92.92,0,0,1,.66-.55.4.4,0,0,1,.45.26c.05.13,0,.22,0,.23s.11-.07.09-.26a.5.5,0,0,0-.16-.3.59.59,0,0,0-.42-.16,1.12,1.12,0,0,0-.9.63,2.83,2.83,0,0,0-.39,1.25,2.07,2.07,0,0,0,1,2.08.85.85,0,0,0,.74,0C23.62,200,23.66,199.91,23.64,199.9Z"/><path class="cls-5" d="M19.51,187.24c1-1.57,1.35-3.49,2-5.26s1.71-3.6,3.51-4.14l0,0a4.83,4.83,0,0,1,4.82.69,6.29,6.29,0,0,1,5-4.64A15.45,15.45,0,0,1,43.06,175a17,17,0,0,1,5.21,4.47,21.58,21.58,0,0,1,2.19,2.94l1.72,6.34-1.89,3.19c-.12.22-.24.43-.38.65v0l-1.69,6.65c0-1.88.25-8.25.24-10.13a10.5,10.5,0,0,1-7.3-3.82c-1-1.19-1.71-2.66-3-3.4-1.73-1-3.87-.43-5.77.12l.08-.06a8.31,8.31,0,0,0-2.68,1.74,26,26,0,0,1-1.67,11c-.2.53-.73,1.6-1.27,1.78-1,.35-1.27-.72-1.86-1.3a2.72,2.72,0,0,0-1.85-.55,40.71,40.71,0,0,1-1-4.82,4.06,4.06,0,0,1-1.93,0l.66-1.38a2.17,2.17,0,0,1-.84.33.76.76,0,0,1-.77-.38C19,188,19.29,187.57,19.51,187.24Z"/><path class="cls-7" d="M31.91,179.42a7.25,7.25,0,0,0-.71.58,5,5,0,0,0-1.13,2.17,8.47,8.47,0,0,0-.25,1.69c0,.61,0,1.28,0,2a18.27,18.27,0,0,1,0,2.2,9.12,9.12,0,0,1-.21,1.14,2.4,2.4,0,0,1-.53,1.1,1,1,0,0,1-1,.27,1.46,1.46,0,0,1-.82-.52,3.41,3.41,0,0,1-.56-1.73l.14,0a5.89,5.89,0,0,1-.88,1.36,2,2,0,0,1-1.34.65,1.22,1.22,0,0,1-.68-.16,1.09,1.09,0,0,1-.45-.48,1.15,1.15,0,0,1-.11-.6.84.84,0,0,1,.24-.51l.07.07a4.22,4.22,0,0,1-1.49,1,2.57,2.57,0,0,1-.45.15l-.16,0s.05,0,.15-.06l.44-.17a4.49,4.49,0,0,0,1.44-1l.07.07a.86.86,0,0,0-.1,1,1.06,1.06,0,0,0,.41.43,1.18,1.18,0,0,0,.62.13,1.89,1.89,0,0,0,1.24-.61,6.31,6.31,0,0,0,.85-1.33l.1-.21,0,.23a3.33,3.33,0,0,0,.54,1.65,1.36,1.36,0,0,0,.74.47.84.84,0,0,0,.81-.23,2.24,2.24,0,0,0,.49-1,7.32,7.32,0,0,0,.2-1.12,16.14,16.14,0,0,0,.07-2.18c0-.69,0-1.36,0-2a8,8,0,0,1,.27-1.71,4.78,4.78,0,0,1,1.2-2.18A2.72,2.72,0,0,1,31.91,179.42Z"/><path class="cls-7" d="M52.25,186.94l0,0-.18.12a1.5,1.5,0,0,1-.29.16,3.34,3.34,0,0,1-.42.2,5.89,5.89,0,0,1-2.88.37,7.56,7.56,0,0,1-4-1.69A13,13,0,0,1,41.2,182c-.44-.83-.8-1.68-1.2-2.47a8.71,8.71,0,0,0-1.39-2.1,4.66,4.66,0,0,0-1.87-1.27,3,3,0,0,0-1-.16,3.48,3.48,0,0,0-.93.13,3.8,3.8,0,0,0-1.44.77,3.85,3.85,0,0,0-.8.94,4.56,4.56,0,0,0-.39,1s0,0,0-.07a1.93,1.93,0,0,0,0-.2,3.21,3.21,0,0,1,.29-.74,3.85,3.85,0,0,1,.79-1,4.09,4.09,0,0,1,1.46-.81,4.37,4.37,0,0,1,1-.15,3.54,3.54,0,0,1,1.05.17,4.76,4.76,0,0,1,1.94,1.29,9.2,9.2,0,0,1,1.42,2.13c.4.8.76,1.64,1.2,2.47A13.11,13.11,0,0,0,44.56,186a7.5,7.5,0,0,0,3.88,1.69,6,6,0,0,0,2.85-.32A10.09,10.09,0,0,0,52.25,186.94Z"/><path class="cls-5" d="M47.05,193.83c-.14.13-.88-.53-2-.61s-2,.42-2.09.27.09-.31.47-.55a2.92,2.92,0,0,1,1.69-.39,2.66,2.66,0,0,1,1.57.67C47,193.51,47.11,193.77,47.05,193.83Z"/><path class="cls-5" d="M46,197.08a.91.91,0,0,1-1,.8.87.87,0,0,1-.82-.93.91.91,0,0,1,1-.8A.87.87,0,0,1,46,197.08Z"/><path class="cls-5" d="M39.22,204.58s-.26.11-.7.06a2.64,2.64,0,0,1-1.52-.76,2.75,2.75,0,0,1-.77-1.52c0-.44,0-.71.06-.7s.06.26.17.65a3.11,3.11,0,0,0,.77,1.34,2.93,2.93,0,0,0,1.34.76C39,204.52,39.22,204.53,39.22,204.58Z"/><path class="cls-7" d="M76.52,243.55,83.74,229a2.92,2.92,0,0,1,2.62-1.62H104.5a.88.88,0,0,1,.78,1.3L93,251.37a2,2,0,0,1-1.74,1H72.45Z"/><path class="cls-5" d="M105.16,228.75a1.65,1.65,0,0,1-.36,0H99.94l-12.59-.11a3.62,3.62,0,0,0-1.68.4,3.26,3.26,0,0,0-1.11,1.22c-.53,1-1,2-1.43,3l-2.41,5.08-1.65,3.42-.46.92a1.34,1.34,0,0,1-.18.31,1.55,1.55,0,0,1,.12-.34l.4-.94,1.55-3.47c.68-1.47,1.47-3.2,2.34-5.11.46-1,.88-2,1.43-3a3.45,3.45,0,0,1,1.23-1.35,4.06,4.06,0,0,1,1.83-.45c4.94,0,9.38.14,12.61.21l3.82.1,1,.05A1.26,1.26,0,0,1,105.16,228.75Z"/><path class="cls-9" d="M94,231.94a.6.6,0,0,1,.28.91.89.89,0,0,1-1,.36.66.66,0,0,1-.5-.48.82.82,0,0,1,.55-.83A1.31,1.31,0,0,1,94,231.94Z"/><path class="cls-14" d="M65.43,249.17l1.25-1.28s1.84-2.64,2.59-3.47a56.12,56.12,0,0,1,5.26-3.73s2.17-2.92,2.51-2.92,1.39.19,1.1,1.55A20.23,20.23,0,0,1,77,243.23l9.63.21a2.06,2.06,0,0,1,1.57.75c.25.32.36.67-.09.89a46.7,46.7,0,0,1-5.1,1.49l1.83-.47a2.66,2.66,0,0,1-.76,2.56,6.55,6.55,0,0,0-1.23,1,5.41,5.41,0,0,1-.56,2.3c-.5.67-5.93,3.43-5.93,3.43a22.67,22.67,0,0,1-5.22.94,9,9,0,0,0-3.75.95C67.14,257.31,65.43,249.17,65.43,249.17Z"/><path class="cls-5" d="M77.88,243.28a21.88,21.88,0,0,1-2.71.3,10.92,10.92,0,0,1-2.72.13,12.09,12.09,0,0,1,2.69-.47A7.44,7.44,0,0,1,77.88,243.28Z"/><path class="cls-5" d="M76.59,247.51a14.75,14.75,0,0,1,3.94-.83l2.81-.31a4.92,4.92,0,0,1,1.18-.09,3.36,3.36,0,0,1-1.14.32c-.72.14-1.71.28-2.81.42C78.37,247.27,76.62,247.59,76.59,247.51Z"/><path class="cls-5" d="M76.59,250.64c0-.1,1.41-.14,3.1-.44s3-.7,3.07-.61a8.68,8.68,0,0,1-3,.95A8.85,8.85,0,0,1,76.59,250.64Z"/><path class="cls-5" d="M77.18,254.14c-.1,0-.24-.36-.32-.84s-.07-.88,0-.89.23.36.31.83S77.27,254.12,77.18,254.14Z"/><path class="cls-5" d="M76.31,250c-.09,0-.14-.32-.31-.65s-.37-.56-.32-.64.42.07.63.49S76.4,250,76.31,250Z"/><path class="cls-5" d="M75.21,245.75c-.09,0-.19-.19-.31-.42s-.21-.42-.15-.49.31,0,.46.34S75.31,245.74,75.21,245.75Z"/><path class="cls-15" d="M76.05,219.14,58.45,234.7l-17-13.7-1.29,18,10.54,8.44c4.36,1.7,9.1,2.54,12.56-.61l19.5-19.75Z"/><path class="cls-15" d="M7.09,227.79a13.82,13.82,0,0,1,6.47-10.33c.89-.53,8.2-3.72,8.2-3.72l2.17-3.11,13.35,8.51L39,220.68l1.38-3.3L42,219.85l-.69-.11.2,1.26.82,5.47.59,15.67c0-.16.25,5.51.09,8.13-.6,9.88-2.29,35-2.88,36.83a3.22,3.22,0,0,1-2.82,2.26l-34.9-9.82c-2-.17-3.76-5.53-.82-7.25Z"/><g class="cls-16"><path d="M9.88,232.56s14.54,27.09,19.51,29.76,13,1,13,1V261.1Z"/></g><path class="cls-15" d="M20.21,220.88c2,.91,20.66,25.42,20.66,25.42l26.4-.22L69,258.43s-27.67,4-34.12,2.59S9.53,232.18,8.38,230.33c-1.83-3-.27-7.61,2.56-10.08"/><path class="cls-15" d="M10.94,220.25l-.29.29a11.13,11.13,0,0,0-.79.89,10.39,10.39,0,0,0-2,4.09,7.13,7.13,0,0,0,0,3.26,10.62,10.62,0,0,0,1.9,3.41c1.62,2.33,3.5,5,5.63,7.83s4.5,6,7.16,9.24c1.33,1.62,2.74,3.28,4.24,4.93A47.71,47.71,0,0,0,31.68,259a9.82,9.82,0,0,0,3,1.81l.21.07.22,0,.45.06c.3,0,.59.1.89.12l1.84.08c2.46,0,5-.12,7.55-.29,5.12-.38,10.42-1,15.83-1.63q3.69-.47,7.29-1l-.13.17c-.58-4.23-1.16-8.36-1.71-12.35l.15.12-26.4.2h-.06l0,0c-6-7.92-11.07-14.38-14.66-18.82-1.8-2.21-3.23-3.92-4.24-5.05-.51-.57-.91-1-1.2-1.25s-.47-.35-.46-.37a2,2,0,0,1,.49.35,15.19,15.19,0,0,1,1.22,1.22c1,1.11,2.48,2.81,4.3,5,3.62,4.41,8.69,10.85,14.75,18.76l-.1-.05,26.39-.24h.13l0,.13c.56,4,1.13,8.12,1.72,12.35l0,.15-.15,0q-3.6.51-7.3,1c-5.41.67-10.71,1.25-15.84,1.63-2.57.16-5.09.31-7.58.28l-1.85-.09c-.31,0-.61-.07-.92-.11l-.45-.07-.23,0-.23-.07a10.23,10.23,0,0,1-3.1-1.87,47.29,47.29,0,0,1-4.94-4.85c-1.5-1.66-2.91-3.32-4.24-5-2.65-3.26-5-6.39-7.14-9.27s-4-5.52-5.59-7.86l-1.14-1.71a5.23,5.23,0,0,1-.76-1.76,7.12,7.12,0,0,1,.07-3.33,10.26,10.26,0,0,1,2.05-4.1,9.48,9.48,0,0,1,.82-.87Z"/><path class="cls-15" d="M21.76,213.74c.13.3,12.32,8.5,12.32,8.5L37,219.41l1.57,1.26"/><path class="cls-5" d="M38.59,220.67s-.16-.09-.44-.29l-1.18-.9h.12l-2.91,2.86-.08.08-.09-.07-3.69-2.47c-2.41-1.63-4.58-3.13-6.13-4.24a13.88,13.88,0,0,1-2.43-1.9l8.73,5.89,3.67,2.49-.17,0,3-2.79.06,0,.06,0,1.13,1A2.1,2.1,0,0,1,38.59,220.67Z"/><path class="cls-5" d="M41.76,222.91a5.94,5.94,0,0,1,.15.91c.07.59.17,1.44.28,2.49.21,2.11.47,5,.65,8.25s.25,6.16.26,8.28c0,1,0,1.91,0,2.5a5.55,5.55,0,0,1-.06.92,5.55,5.55,0,0,1-.06-.92c0-.64,0-1.48-.08-2.5-.06-2.12-.16-5-.35-8.26s-.4-6.14-.56-8.25c-.07-1-.13-1.85-.18-2.5A5.33,5.33,0,0,1,41.76,222.91Z"/><path class="cls-15" d="M3.8,272.29A120.94,120.94,0,0,0,28.06,268"/><path class="cls-5" d="M28.06,268a6.07,6.07,0,0,1-.92.32c-.59.18-1.46.43-2.54.72-2.16.57-5.17,1.27-8.53,1.87s-6.43,1-8.66,1.16c-1.11.1-2,.17-2.63.2a5.69,5.69,0,0,1-1,0,7.54,7.54,0,0,1,1-.13l2.62-.29c2.22-.26,5.27-.66,8.63-1.25s6.36-1.26,8.52-1.78l2.57-.63A5.89,5.89,0,0,1,28.06,268Z"/><path class="cls-7" d="M38.16,323.86l-16.66-5.7s-11.38,15-14.57,14.27l9.89-32.71,26.33,7.82Z"/><path class="cls-11" d="M26,308.47a1.4,1.4,0,0,0-1.25-1.38,1.34,1.34,0,0,0-1.38,1.22,1.47,1.47,0,0,0,1.33,1.46c.68,0,1.43-.76,1.29-1.43"/><path class="cls-11" d="M16.14,299.49l2.55.76L9,331.64s-1.07,1.26-2.05.79Z"/><path class="cls-5" d="M21.51,318.74c-.16-.06,0-.88-.27-1.82s-.82-1.56-.71-1.69,1,.39,1.27,1.54S21.65,318.82,21.51,318.74Z"/><path class="cls-5" d="M19.05,321.74c-.16,0-.22-.79-.74-1.53s-1.17-1.12-1.12-1.28,1,0,1.61,1S19.21,321.78,19.05,321.74Z"/><path class="cls-5" d="M14.36,322.45c0-.16.87-.14,1.63.53s.87,1.53.71,1.56-.48-.58-1.1-1.12S14.33,322.61,14.36,322.45Z"/><path class="cls-5" d="M25.45,319.62c-.12-.12.32-.78.53-1.7s.14-1.71.3-1.76.53.81.26,1.89S25.55,319.73,25.45,319.62Z"/><path class="cls-17" d="M40.19,279.43c.64-.18,28.86,30.09,29.5,35.09s-.38,9.37-3.72,12.19-41.3-6.42-41.3-6.42l3.59-15.9-13.72-4.62L26.8,277.33Z"/><g class="cls-16"><path d="M46.87,286.14l.9,1s-16.17,17-21.14,16.73l-7.94-2.69,26.87-16.48Z"/></g><path class="cls-7" d="M28.17,304.81c0,.08,5.87,1.88,13.16,4s13.22,3.81,13.24,3.73-5.87-1.88-13.16-4S28.19,304.72,28.17,304.81Z"/><path class="cls-7" d="M59.93,310.33l-5,15.74S69.3,336.4,68.67,339.4L37.8,330.88,44.52,306Z"/><path class="cls-11" d="M45.79,322.1a1.31,1.31,0,0,0-1.27,1.2,1.25,1.25,0,0,0,1.18,1.26A1.36,1.36,0,0,0,47,323.29c0-.64-.74-1.33-1.37-1.18"/><path class="cls-11" d="M37.59,331.52l.65-2.41,29.64,8.39s1.21,1,.79,1.9Z"/><path class="cls-5" d="M55.51,326.05c0,.15-.82,0-1.7.29s-1.44.81-1.56.71.34-.91,1.4-1.23S55.58,325.92,55.51,326.05Z"/><path class="cls-5" d="M58.38,328.29c0,.15-.73.23-1.42.72s-1,1.13-1.17,1.09,0-.93.86-1.53S58.41,328.14,58.38,328.29Z"/><path class="cls-5" d="M59.14,332.67c-.14,0-.14-.82.47-1.54s1.41-.85,1.44-.7-.53.46-1,1.06S59.3,332.7,59.14,332.67Z"/><path class="cls-5" d="M56.24,322.34c-.1.12-.73-.28-1.6-.46s-1.61-.09-1.65-.24.74-.51,1.76-.29S56.35,322.24,56.24,322.34Z"/><g class="cls-16"><polygon points="38.7 323.46 40.8 315.21 39.24 314.48 48.78 288.5 50.6 290.09 43.1 313.89 40.42 323.82 38.7 323.46"/></g><path class="cls-5" d="M2.37,279.54s56.42-19.65,57.44-20a12.16,12.16,0,0,1,1.42-.35A13.34,13.34,0,0,1,72,261.45a9.83,9.83,0,0,1,4,9.85c-1.53,10.77-15.3,47.55-15.3,47.55l-19.05-5.73c-.11,0-.22-.34-.16-.25.16.25,9.67-30.38,9.43-30s-19.23,15.69-27.11,18.5a17.46,17.46,0,0,1-20-6C2,292.81.4,285.53,2.37,279.54Z"/><path class="cls-9" d="M78.45,219.17a9.4,9.4,0,0,1,1.64-4.49c3.72-4.57,2.48-8.65,2.48-8.65,1.29-1.42,3.43.28,3.85,3.54a59.21,59.21,0,0,1-.35,14.67c-.1.36-3.95,2-3.95,2l-5.14-6Z"/><rect class="cls-9" x="84.01" y="178.13" width="96.86" height="47.26" rx="5.06"/><path class="cls-5" d="M175.81,225.38s.25,0,.72-.07a5,5,0,0,0,4-3.37,5.94,5.94,0,0,0,.26-2.15c0-.78,0-1.62,0-2.5,0-7.08,0-17.32,0-30,0-.79,0-1.59,0-2.4v-1.22a8.05,8.05,0,0,0,0-1.21,5,5,0,0,0-2.85-3.81,5.38,5.38,0,0,0-2.5-.44h-8.14l-23.74,0H89.08a5,5,0,0,0-3.21,1.19,4.9,4.9,0,0,0-1.65,3,14.65,14.65,0,0,0-.06,1.76v35.86a4.92,4.92,0,0,0,3.22,4.87,8.27,8.27,0,0,0,3.07.3l44.43,0,30,.05,8.14,0,2.12,0h.72l-.72,0-2.12,0-8.14,0-30,.05-44.43,0c-.53,0-1,0-1.58,0a5.11,5.11,0,0,1-1.59-.32,5.19,5.19,0,0,1-2.54-2,5.3,5.3,0,0,1-.87-3.14V216.8q0-6.56,0-13.39v-19.2a13.65,13.65,0,0,1,.06-1.8,5.2,5.2,0,0,1,1.75-3.17A5.31,5.31,0,0,1,89.08,178l54.4,0h31.88a5.63,5.63,0,0,1,2.6.47,5.16,5.16,0,0,1,3,4,10.66,10.66,0,0,1,.06,1.25v3.62c0,12.64,0,22.88,0,30v2.5a5.88,5.88,0,0,1-.29,2.18,5,5,0,0,1-2.12,2.66,4.83,4.83,0,0,1-2,.71,2.26,2.26,0,0,1-.54,0Z"/><polygon class="cls-10" points="107.52 200.23 107.52 206.46 122.2 212.76 122.33 206.79 114.12 203.13 122.33 199.63 122.33 193.85 107.52 200.23"/><polygon class="cls-10" points="157.37 206.88 157.37 200.65 142.55 194.35 142.43 200.32 150.7 203.98 142.43 207.48 142.43 213.26 157.37 206.88"/><path class="cls-10" d="M133.3,188.7c0,.16-8.63,29.26-8.38,29.21s6.42,0,6.42,0l8.51-29.2Z"/><path class="cls-11" d="M94.08,184.39a2,2,0,1,1-2-1.91A2,2,0,0,1,94.08,184.39Z"/><path class="cls-11" d="M99.69,184.39a2,2,0,1,1-2-1.91A2,2,0,0,1,99.69,184.39Z"/><path class="cls-11" d="M105.3,184.39a2,2,0,1,1-2-1.91A2,2,0,0,1,105.3,184.39Z"/><rect class="cls-9" x="257.18" y="180.2" width="113.36" height="42.24"/><polygon class="cls-18" points="294.67 212.54 308.16 191.98 321.62 212.57 294.67 212.54"/><g class="cls-19"><polygon class="cls-20" points="294.67 212.54 308.16 191.98 321.62 212.57 294.67 212.54"/></g><polygon class="cls-21" points="294.67 212.54 308.16 191.98 321.62 212.57 294.67 212.54"/><polygon class="cls-1" points="312.47 212.56 322.77 196.86 333.05 212.58 312.47 212.56"/><path class="cls-18" d="M321.56,192a3.44,3.44,0,1,1-3.44-3.44A3.44,3.44,0,0,1,321.56,192Z"/><g class="cls-22"><path class="cls-23" d="M321.56,192a3.44,3.44,0,1,1-3.44-3.44A3.44,3.44,0,0,1,321.56,192Z"/></g><path class="cls-21" d="M321.56,192a3.44,3.44,0,1,1-3.44-3.44A3.44,3.44,0,0,1,321.56,192Z"/><path class="cls-7" d="M364.82,275.44H359c-.27,0-.49-.09-.49-.2s.22-.2.49-.2h5.35v-2.22c0-.11.22-.2.49-.2s.48.09.48.2v2.42C365.3,275.35,365.09,275.44,364.82,275.44Z"/><path class="cls-7" d="M347.62,275.44H336.26c-.27,0-.49-.09-.49-.2s.22-.2.49-.2h11.36c.27,0,.48.09.48.2S347.89,275.44,347.62,275.44Zm-22.72,0H313.54c-.27,0-.48-.09-.48-.2s.21-.2.48-.2H324.9c.27,0,.49.09.49.2S325.17,275.44,324.9,275.44Zm-22.71,0H290.83c-.27,0-.49-.09-.49-.2s.22-.2.49-.2h11.36c.26,0,.48.09.48.2S302.45,275.44,302.19,275.44Zm-22.72,0H268.11c-.27,0-.49-.09-.49-.2s.22-.2.49-.2h11.36c.27,0,.49.09.49.2S279.74,275.44,279.47,275.44Z"/><path class="cls-7" d="M256.75,275.44h-5.84c-.27,0-.48-.09-.48-.2v-2.42c0-.11.21-.2.48-.2s.49.09.49.2V275h5.35c.27,0,.49.09.49.2S257,275.44,256.75,275.44Z"/><path class="cls-7" d="M250.91,268c-.27,0-.48-.09-.48-.2v-5c0-.11.21-.2.48-.2s.49.09.49.2v5C251.4,267.88,251.18,268,250.91,268Zm0-10.1c-.27,0-.48-.09-.48-.2v-5.05c0-.11.21-.2.48-.2s.49.09.49.2v5.05C251.4,257.78,251.18,257.87,250.91,257.87Zm0-10.09c-.27,0-.48-.09-.48-.21v-5c0-.11.21-.2.48-.2s.49.09.49.2v5C251.4,247.69,251.18,247.78,250.91,247.78Z"/><path class="cls-7" d="M250.91,237.68c-.27,0-.48-.09-.48-.2v-2.43c0-.11.21-.2.48-.2h5.84c.27,0,.49.09.49.2s-.22.2-.49.2H251.4v2.23C251.4,237.59,251.18,237.68,250.91,237.68Z"/><path class="cls-7" d="M347.62,235.25H336.26c-.27,0-.49-.09-.49-.2s.22-.2.49-.2h11.36c.27,0,.49.09.49.2S347.89,235.25,347.62,235.25Zm-22.72,0H313.54c-.26,0-.48-.09-.48-.2s.22-.2.48-.2H324.9c.27,0,.49.09.49.2S325.17,235.25,324.9,235.25Zm-22.71,0H290.83c-.27,0-.49-.09-.49-.2s.22-.2.49-.2h11.36c.27,0,.48.09.48.2S302.46,235.25,302.19,235.25Zm-22.72,0H268.11c-.27,0-.48-.09-.48-.2s.21-.2.48-.2h11.36c.27,0,.49.09.49.2S279.74,235.25,279.47,235.25Z"/><path class="cls-7" d="M364.82,237.68c-.27,0-.49-.09-.49-.2v-2.23H359c-.27,0-.49-.09-.49-.2s.22-.2.49-.2h5.84c.27,0,.48.09.48.2v2.43C365.3,237.59,365.09,237.68,364.82,237.68Z"/><path class="cls-7" d="M364.82,268c-.27,0-.49-.09-.49-.2v-5c0-.11.22-.2.49-.2s.48.09.48.2v5C365.3,267.88,365.09,268,364.82,268Zm0-10.1c-.27,0-.49-.09-.49-.2v-5.05c0-.11.22-.2.49-.2s.48.09.48.2v5.05C365.3,257.78,365.09,257.87,364.82,257.87Zm0-10.09c-.27,0-.49-.09-.49-.21v-5c0-.11.22-.2.49-.2s.48.09.48.2v5C365.3,247.69,365.09,247.78,364.82,247.78Z"/><path class="cls-24" d="M329.62,243.78h-71a1.43,1.43,0,0,1-1.43-1.43h0a1.43,1.43,0,0,1,1.43-1.43h71a1.43,1.43,0,0,1,1.43,1.43h0A1.43,1.43,0,0,1,329.62,243.78Z"/><path class="cls-24" d="M342.69,251.69H258.58a1.58,1.58,0,0,1-1.7-1.43h0a1.58,1.58,0,0,1,1.7-1.43h84.11a1.58,1.58,0,0,1,1.7,1.43h0A1.58,1.58,0,0,1,342.69,251.69Z"/><path class="cls-24" d="M357.69,260.13h-98.9c-1.1,0-2-.64-2-1.42h0c0-.79.89-1.43,2-1.43h98.9c1.1,0,2,.64,2,1.43h0C359.68,259.49,358.79,260.13,357.69,260.13Z"/><path class="cls-24" d="M319.51,269.11h-61a1.34,1.34,0,0,1-1.22-1.43h0a1.34,1.34,0,0,1,1.22-1.43h61a1.34,1.34,0,0,1,1.22,1.43h0A1.34,1.34,0,0,1,319.51,269.11Z"/><rect class="cls-10" x="254.04" y="286.49" width="38.72" height="9.81" rx="2.78"/></g></g></svg>