<svg xmlns="http://www.w3.org/2000/svg" viewBox="0 0 435.91 412.92"><defs><style>.cls-1,.cls-14,.cls-18,.cls-4{fill:#fff;}.cls-1{opacity:0.16;}.cls-2{fill:#cfcfce;stroke-width:2px;}.cls-13,.cls-14,.cls-17,.cls-18,.cls-2,.cls-22,.cls-29,.cls-9{stroke:#263238;}.cls-10,.cls-14,.cls-15,.cls-18,.cls-2,.cls-24,.cls-25,.cls-30,.cls-5,.cls-7,.cls-9{stroke-miterlimit:10;}.cls-3{fill:#bcbbbb;}.cls-5{fill:#9bd2a5;}.cls-10,.cls-25,.cls-5,.cls-7{stroke:#0e1131;}.cls-18,.cls-25,.cls-5,.cls-7{stroke-width:0.5px;}.cls-6{fill:#343537;}.cls-26,.cls-7{fill:#f3f3f3;}.cls-8{fill:#d3202f;}.cls-9{fill:#ededed;}.cls-10,.cls-15,.cls-25{fill:#e95f24;}.cls-11{fill:#425b67;}.cls-12{fill:#1a4755;}.cls-13{fill:#aeadae;}.cls-13,.cls-17,.cls-22,.cls-29{stroke-linecap:round;stroke-linejoin:round;}.cls-13,.cls-17,.cls-22{stroke-width:0.75px;}.cls-15{stroke:#3a3a3a;}.cls-16{fill:#d14d27;}.cls-17,.cls-20{fill:#263238;}.cls-19{fill:#666;opacity:0.2;}.cls-21{fill:#043e5d;}.cls-22,.cls-24,.cls-29,.cls-30{fill:none;}.cls-23{fill:#455b64;}.cls-24{stroke:#9bd2a5;}.cls-27{fill:#f6851f;}.cls-28{fill:#f3b696;}.cls-30{stroke:#e8e8e8;}</style></defs><g id="Layer_2" data-name="Layer 2"><g id="Layer_5" data-name="Layer 5"><path class="cls-1" d="M147.45,135.91s31.67-66.59,42.42-84.14,38.36-79.88,120.68-37c19.8,12.06,75.47,119.66,92.09,150.89S470.47,295.19,398.73,366C372.2,386,290.08,454.39,71,376.68c-26.84-15.8-105-71.93-54.14-135.91C16.83,240.77,91.06,190.84,147.45,135.91Z"/><path class="cls-1" d="M90.92,98.08s2.19,14.31,2.38,18.34,2.57,17.2-15.52,19.3c-4.54.22-25.44-11.12-31.58-14.36s-25.28-13.55-21.43-33c2.11-6.16,7.9-26.31,52-37.83,6.1-.4,25,.1,23.77,16.1C100.58,66.67,94,83,90.92,98.08Z"/><path class="cls-2" d="M244.09,378.65H135.47a22.42,22.42,0,0,1-22.35-22.35V128.23a22.41,22.41,0,0,1,22.35-22.35h52.29s-.18,6.93,5.91,6.93,5.7-6.93,5.7-6.93h44.72a22.41,22.41,0,0,1,22.35,22.35V356.3A22.42,22.42,0,0,1,244.09,378.65Z"/><path class="cls-3" d="M200.38,107c-.17,2.57-1.34,5.33-4,6.39a7.1,7.1,0,0,1-5.71-.2c-.82-.4-3.44-1.71-3.88-6.33l-17.83.23-32.06-.17c-12.17-.08-19.9,7-22.23,16.84l150.13-.27a21.65,21.65,0,0,0-21.91-16.42"/><rect class="cls-4" x="128.42" y="230.45" width="125.96" height="63.76" rx="9.26"/><rect class="cls-5" x="129.17" y="304.16" width="125.96" height="20.51" rx="7.96"/><rect class="cls-4" x="131.37" y="342.23" width="87.77" height="21.11" rx="10.27"/><path class="cls-4" d="M172.79,323.78a1.54,1.54,0,0,0-2,.91l.33-1a1.57,1.57,0,0,0-1-2,1.55,1.55,0,0,0-2,.91l.34-1a1.59,1.59,0,0,0-3-1.06l2.07-6a1.55,1.55,0,0,0-1-1.94,1.57,1.57,0,0,0-2,.93l-3.26,9.4-1.11-3a1.34,1.34,0,0,0-1.91-.61,2.44,2.44,0,0,0-.84,2.57c.8,2.72.31,11.43,3.24,12.45l5.63,2s4.24-1.38,5.58-5.27l1.87-5.4A1.58,1.58,0,0,0,172.79,323.78Z"/><path class="cls-6" d="M166.17,336.9,160.54,335c-2.36-.82-2.75-5.22-3.09-9.11a23.76,23.76,0,0,0-.48-3.69c-.28-1,0-2.67,1.11-3.2a1.92,1.92,0,0,1,2.62.86l.61,1.65,2.78-8a2.1,2.1,0,0,1,2.66-1.26,2.07,2.07,0,0,1,1.33,2.61l-1.49,4.32a2.14,2.14,0,0,1,2.51,2.06,2.22,2.22,0,0,1,1.22.06,2.14,2.14,0,0,1,1.43,2,2.22,2.22,0,0,1,1.22.06,2.11,2.11,0,0,1,1.32,2.63l-1.87,5.4c-1.41,4.09-5.73,5.54-5.92,5.6a.53.53,0,0,1-.33,0Zm-6.89-17.07a.94.94,0,0,0-.74.08c-.48.23-.74,1.35-.56,1.95a23.56,23.56,0,0,1,.52,3.9c.28,3.21.67,7.61,2.38,8.2l5.46,1.89c.75-.3,4-1.71,5.09-4.89l1.86-5.39a1,1,0,0,0-.67-1.29,1,1,0,0,0-1.31.58.55.55,0,0,1-.68.33.53.53,0,0,1-.32-.68l.34-1a1,1,0,0,0-.67-1.29,1,1,0,0,0-1.32.58.53.53,0,0,1-1-.35l.34-1a1.06,1.06,0,0,0-2-.71.53.53,0,1,1-1-.35l2.06-6a1,1,0,0,0-.67-1.27,1,1,0,0,0-1.33.6l-3.25,9.4a.53.53,0,0,1-.49.36.54.54,0,0,1-.5-.35l-1.11-3a.81.81,0,0,0-.45-.4Z"/><path class="cls-7" d="M129.6,178.15c0-.49-.94-.89-2.1-.89H38.2c-1.15,0-2.1.4-2.1.89v24.1c0,.49.95.89,2.1.89h57a17.24,17.24,0,0,1,3.85.49l21.63,9.86c0-2.89.14-4.09.14-4.58V204c0-.49.95-.89,2.11-.89h4.6c1.16,0,2.1-.4,2.1-.89Z"/><polygon class="cls-8" points="47.49 184.05 49.56 188.26 54.21 188.93 50.85 192.21 51.64 196.83 47.49 194.65 43.33 196.83 44.13 192.21 40.77 188.93 45.41 188.26 47.49 184.05"/><polygon class="cls-8" points="64.95 183.79 67.03 188 71.67 188.67 68.31 191.95 69.11 196.57 64.95 194.39 60.8 196.57 61.59 191.95 58.23 188.67 62.88 188 64.95 183.79"/><polygon class="cls-8" points="82.07 183.79 84.15 188 88.79 188.67 85.43 191.95 86.22 196.57 82.07 194.39 77.92 196.57 78.71 191.95 75.35 188.67 79.99 188 82.07 183.79"/><polygon class="cls-8" points="99.44 183.79 101.52 188 106.16 188.67 102.8 191.95 103.6 196.57 99.44 194.39 95.29 196.57 96.08 191.95 92.72 188.67 97.37 188 99.44 183.79"/><polygon class="cls-8" points="117.05 183.79 119.12 188 123.77 188.67 120.41 191.95 121.2 196.57 117.05 194.39 112.89 196.57 113.69 191.95 110.33 188.67 114.97 188 117.05 183.79"/><path class="cls-9" d="M104,91.7s-4.86.65-7.21-2.38-1.31-6.86-3.17-7.75-4.54,2.08-4,6.29l.79,6L77.74,95.53c-2.91.39-2.78,1.51-2.5,3.61s2.59,2.31,2.59,2.31-1.25.62-.94,3a2.76,2.76,0,0,0,2.68,2.38A3.21,3.21,0,0,0,79,110a3.36,3.36,0,0,0,2.54,2.28s-.69,0-.24,3.36c.3,2.21,2,2.18,3.46,2l10.9-1.45c1.63-.22,4.79-2.15,9.77-2.81s6.33-13.09,6.33-13.09Z"/><rect class="cls-10" x="103.62" y="87.85" width="10.05" height="27.17" rx="1.59" transform="translate(-12.45 15.25) rotate(-7.59)"/><rect class="cls-11" x="391.26" y="334.64" width="2.81" height="64.32" transform="translate(846.77 654.05) rotate(169.27)"/><polygon class="cls-11" points="269.67 398.95 266.36 398.95 278.72 334.94 281.48 335.46 269.67 398.95"/><polygon class="cls-11" points="366.51 398.95 363.19 398.95 375.55 334.94 378.31 335.46 366.51 398.95"/><polygon class="cls-12" points="299.9 398.95 302.59 398.98 290.74 335.22 287.98 335.75 299.9 398.95"/><path class="cls-13" d="M347.63,196.21c14.72,1.58,33.77,3.24,52.9,35.7,20.91,35.48,9.9,88.47-6.6,103.2S323.54,368,278.24,340.8c0,0-27.36-16.5-13.32-43.88,21.61-42.13,18.55-50.92,28.21-67.43S316.37,192.86,347.63,196.21Z"/><path class="cls-14" d="M400.53,231.91c-13-22.15-26.07-30-37.71-33.19a97.69,97.69,0,0,1,13.63,18.4c20.91,35.48,9.9,88.47-6.6,103.2-14.63,13.06-58.67,28.83-100.05,13.25a42.09,42.09,0,0,0,8.44,7.23c45.3,27.22,99.19,9,115.69-5.69S421.44,267.39,400.53,231.91Z"/><path class="cls-15" d="M335.35,211.45c-4.91,0-17.47,3.11-23.1,4.9,0,0-4.14,35.47,3.72,62.42,1.77,6-1.45,25-1.45,25l50.86-.66s-6-45.88-3.76-53.29S364,216.59,364,216.59s-.35-.05-11.43-2C347.35,213.74,340.59,211.44,335.35,211.45Z"/><path class="cls-16" d="M358.15,230.21s-12,21.19-10.42,26.15,2.73,18.62-1,25.62-19,19.31-19,19.31l18.79-.51,17.26-7.35Z"/><path class="cls-14" d="M340.86,369.62s-1.12,12.94-3.19,16.52.11,9.68.22,10.52,4.35,2,11.1,1.31,6.64-2.27,6.1-4.78-4.14-5.73-4.36-8.12,2.07-11,2.07-11Z"/><path class="cls-17" d="M324.63,299.53c-12.87-2.15-41.76-8.54-48.47-4.5-7.84,4.74,1.42,14.45,1.42,14.45s11.47,9.91,44.93,13.71c1.69.19,3.43.37,5.22.52a259.74,259.74,0,0,0,26.29.91c11.35-.14,12.31-29.45,10.19-31.94-1.83-2.14-20.65,5.22-30.59,7.09"/><path class="cls-15" d="M350.57,400c6.95-.74,6.09-4.14,5.53-6.72-.35-1.62-2.77-3.74-4-5.55a10.5,10.5,0,0,1-4.67,2.72c-3.14.92-7.79-1.92-10.53-3.07-1,3.62-.23,9-.14,9.71C336.92,398,343.61,400.77,350.57,400Z"/><path class="cls-17" d="M346,318.13c-1.4,10.58-8.35,63.24-8.35,63.24l16.11,2s19.82-68.73,18.81-79.24-8.44-11.4-8.44-11.4S349.71,290.13,346,318.13Z"/><path class="cls-14" d="M293.74,380.69s1.41,4.49-1.11,7.46-13,5.89-14.36,7.5a4.48,4.48,0,0,0-1.26,3l29.36-.81-.32-8.84-1.35-6.35Z"/><path class="cls-15" d="M290.8,389.63s7.55,3.05,11.19,1.24,3.54-2.3,4.59-1.62S308,399,308,399l-33,.22c-2.29-.05-3.46-1.74-1.59-3.18a27.06,27.06,0,0,1,3.6-2.14C279.58,392.38,290.8,389.63,290.8,389.63Z"/><path class="cls-17" d="M294.85,301.4c-2.27-4.76-7.43-11-16.51-7.23-8.66,3.56-11,12.31-8.25,21.27s20.72,61.62,21.35,68.87l14.36.09s-2.61-41.7-3.25-51.78C301.94,322.92,298.78,309.63,294.85,301.4Z"/><path class="cls-18" d="M340.78,197.82l2.41,14.88a12.13,12.13,0,0,1-9.48,1.73,30.32,30.32,0,0,1-5.56-1.89s2-9.5,1.26-13.38S340.78,197.82,340.78,197.82Z"/><path class="cls-19" d="M329.41,199.44c-.71-4.38,11.36-1.52,11.36-1.52l.2,1.28a7.31,7.31,0,0,1-1.31,2.16,15.91,15.91,0,0,1-10.56,4.78A24.08,24.08,0,0,0,329.41,199.44Z"/><path class="cls-20" d="M334.29,183.89c.14.13.86-.51,1.95-.6s1.94.41,2,.27-.09-.3-.46-.53a2.65,2.65,0,0,0-1.64-.38,2.59,2.59,0,0,0-1.54.64C334.32,183.58,334.23,183.84,334.29,183.89Z"/><path class="cls-18" d="M342.75,176c.34-.12,2.74,17.64-1.81,22.52s-13.38,6.49-16.56,2.64c-3.51-4.25-3.33-23.34,3.73-28.37S342.75,176,342.75,176Z"/><path class="cls-20" d="M330.86,187.49a.74.74,0,0,0,.8.65.7.7,0,0,0,.67-.75.75.75,0,0,0-.8-.65A.71.71,0,0,0,330.86,187.49Z"/><path class="cls-20" d="M328.45,192a6.83,6.83,0,0,0-1.65-.09c-.26,0-.51,0-.58-.19a1.38,1.38,0,0,1,.08-.77c.17-.65.34-1.33.52-2a32.75,32.75,0,0,0,1.07-5.29,33,33,0,0,0-1.49,5.19c-.17.72-.33,1.4-.49,2.05a1.52,1.52,0,0,0,0,1,.67.67,0,0,0,.47.33,2.15,2.15,0,0,0,.44,0A6.25,6.25,0,0,0,328.45,192Z"/><path class="cls-20" d="M330.11,182.88c.14.22,1-.09,2-.19s1.93,0,2-.25-.16-.32-.54-.48a3.41,3.41,0,0,0-3.08.34C330.2,182.53,330.05,182.77,330.11,182.88Z"/><path class="cls-20" d="M322.88,183.23c.11.17.83-.06,1.71-.13s1.61,0,1.7-.17-.12-.23-.43-.35a3,3,0,0,0-1.32-.15,3.35,3.35,0,0,0-1.28.38C323,183,322.84,183.15,322.88,183.23Z"/><path class="cls-20" d="M322.86,185.69c.11.11.74-.45,1.7-.52s1.68.36,1.78.23-.08-.26-.41-.46a2.37,2.37,0,0,0-1.43-.33,2.32,2.32,0,0,0-1.35.56C322.88,185.42,322.8,185.64,322.86,185.69Z"/><path class="cls-20" d="M330.07,185.69c.12.11.75-.45,1.7-.52s1.69.36,1.79.23-.09-.26-.41-.46a2.37,2.37,0,0,0-1.43-.33,2.32,2.32,0,0,0-1.35.56C330.1,185.42,330,185.64,330.07,185.69Z"/><path class="cls-20" d="M324.08,187.68a.69.69,0,0,0,.75.62.66.66,0,0,0,.64-.71.69.69,0,0,0-.75-.62A.65.65,0,0,0,324.08,187.68Z"/><path class="cls-21" d="M329.17,168.28c5.37-1.46,10.62-.53,11.92.89,2.48.29,6.81,1.18,9.32,7.42,2.58,6.41,1.12,14.92-3.86,18.77s-4.91,8.3-4.91,8.3l-.78-2.3a12.79,12.79,0,0,1-.63-5.42,10.62,10.62,0,0,1,.81-3.26c1.19-2.57-3.05-4.1-3.63-6.41-1.31-5.2,1.17-7.74-.11-10.46l-4.55.64s-4.63-4.87-8.86,2.83C322.18,182.38,320.53,170.64,329.17,168.28Z"/><path class="cls-4" d="M337.64,189.43c0,2.17.95,3.94,2.2,4s2.3-1.72,2.33-3.88-.95-3.94-2.2-4S337.68,187.26,337.64,189.43Z"/><path class="cls-22" d="M325.39,195.66s2.61,3.1,6.44-1.13"/><path class="cls-15" d="M314.2,235c1.14,8.35-.67,10-1.15,15.38l-3,14.79,12.09-5.76,2.23,6.9s-10.13,15.66-21,14.59c-8.27-.82-5.58-18.16-4.79-35,.33-6.95,2.37-17.35,2.64-18.93a9,9,0,0,1,4.82-7.86,28.64,28.64,0,0,1,7.12-3"/><path class="cls-23" d="M325.43,261.4l-7.05-14.23a2.84,2.84,0,0,0-2.55-1.58h-17.7a.86.86,0,0,0-.77,1.27l12,22.18a1.94,1.94,0,0,0,1.7,1H329.4Z"/><path class="cls-20" d="M297.48,247l.35,0h4.74l12.29-.11a3.57,3.57,0,0,1,1.64.39,3.06,3.06,0,0,1,1.08,1.2c.52,1,.95,2,1.4,2.91l2.34,5,1.61,3.34.46.9a1.25,1.25,0,0,0,.18.3,1.4,1.4,0,0,0-.12-.33l-.4-.93c-.37-.84-.89-2-1.51-3.38l-2.29-5c-.44-.94-.85-1.92-1.39-2.94a3.3,3.3,0,0,0-1.2-1.32,3.84,3.84,0,0,0-1.78-.44c-4.83,0-9.16.14-12.31.2l-3.73.11-1,0A2,2,0,0,0,297.48,247Z"/><path class="cls-4" d="M308.38,250.08a.57.57,0,0,0-.26.88.84.84,0,0,0,.94.35.64.64,0,0,0,.48-.47A.81.81,0,0,0,309,250,1.32,1.32,0,0,0,308.38,250.08Z"/><path class="cls-18" d="M335.29,262.25,333.38,261s-1.8-2.59-2.53-3.4a54.12,54.12,0,0,0-5.13-3.63s-2.12-2.85-2.45-2.85-1.35.18-1.08,1.51a20.2,20.2,0,0,0,1.17,3.82l-9.4.2a2,2,0,0,0-1.53.73c-.25.31-.35.65.09.87a46.83,46.83,0,0,0,5,1.45l-1.78-.45a2.59,2.59,0,0,0,.74,2.49,5.73,5.73,0,0,1,1.2.95,5.3,5.3,0,0,0,.55,2.25c.49.64,5.78,3.35,5.78,3.35a22.18,22.18,0,0,0,5.09.91,8.79,8.79,0,0,1,3.67.93"/><path class="cls-20" d="M322.45,256.51a20.14,20.14,0,0,0,2.64.29,10.45,10.45,0,0,0,2.66.13,11.21,11.21,0,0,0-2.62-.46A7.65,7.65,0,0,0,322.45,256.51Z"/><path class="cls-20" d="M323.71,260.64a14.12,14.12,0,0,0-3.84-.81c-1.08-.13-2.05-.23-2.75-.3a4.67,4.67,0,0,0-1.15-.09,3.51,3.51,0,0,0,1.11.32c.7.13,1.68.27,2.75.4C322,260.41,323.69,260.72,323.71,260.64Z"/><path class="cls-20" d="M323.71,263.69c0-.09-1.37-.14-3-.42s-3-.69-3-.6a11.41,11.41,0,0,0,6,1Z"/><path class="cls-20" d="M323.14,267.11c.09,0,.23-.35.3-.82s.07-.86,0-.87-.23.35-.3.82S323.05,267.09,323.14,267.11Z"/><path class="cls-20" d="M324,263c.1,0,.14-.31.31-.63s.36-.55.31-.63-.41.07-.61.48S323.89,263,324,263Z"/><path class="cls-20" d="M325.05,258.92c.1,0,.19-.18.31-.4s.21-.42.14-.49-.3.06-.44.34S325,258.92,325.05,258.92Z"/><path class="cls-15" d="M361.59,216.41s.79-1.1,5.51,2.36a10.2,10.2,0,0,1,4.52,8c.21,1.6,1.85,12.07,1.92,19,.16,16.87,2.19,34.3-6.1,34.81-10.92.66-34.7-10.48-34.7-10.48l2.55-7.9,26,2.41-2.42-14.9c-.51-3.54-2.41-10.21-.95-18.61"/><path class="cls-22" d="M346.67,312.73c.92-2.38-.34-4.34.95-4.56S349,312,351.13,312"/><path class="cls-15" d="M328.39,208.9c3.11.74,5.7,4.92,14.62-.37l2.65,4.54s-6.74,4.82-14.77,2.07L325.11,213Z"/><path class="cls-9" d="M254.64,152.44a.94.94,0,0,1,1-.89h39a.94.94,0,0,1,1,.89v24.21a.94.94,0,0,1-1,.89H270.7a4,4,0,0,0-1.8.5l-9.34,5.69c-.45.27-.81.1-.81-.39v-4.91a1,1,0,0,0-1-.89h-2.15a.94.94,0,0,1-1-.89Z"/><path class="cls-8" d="M267.52,164.53a2.91,2.91,0,1,1-2.9-2.64A2.79,2.79,0,0,1,267.52,164.53Z"/><path class="cls-8" d="M279,164.53a2.91,2.91,0,1,1-2.9-2.64A2.79,2.79,0,0,1,279,164.53Z"/><path class="cls-8" d="M290.51,164.53a2.92,2.92,0,1,1-2.91-2.64A2.79,2.79,0,0,1,290.51,164.53Z"/><circle class="cls-24" cx="264.18" cy="91.78" r="12.33"/><polyline class="cls-24" points="257.84 88.44 264 95.37 278.65 76.87"/><path class="cls-20" d="M140.15,141l-.22,0,.27-2.51c.28-2.64-1-5-3-5.64l0-.47a1.35,1.35,0,0,0-1.06-1.57l-.25,0a1.35,1.35,0,0,0-1.37,1.31l-.06.47c-2.06.2-3.84,2.23-4.12,4.86l-.27,2.52-.23,0a1.12,1.12,0,0,0-1.24,1l-.09.83a1.13,1.13,0,0,0,1,1.24l3.26.35,0,.36a1.65,1.65,0,0,0,1.49,1.77l.4,0a1.64,1.64,0,0,0,1.84-1.41l0-.36,3.26.36a1.13,1.13,0,0,0,1.24-1l.09-.83A1.12,1.12,0,0,0,140.15,141Zm-4.3-9.32.25,0c.12,0,.28.24.24.56l0,.4-.85-.1,0-.39C135.53,131.82,135.73,131.63,135.85,131.65Zm-4.53,5.82c.26-2.43,2-4.24,3.82-4l1.27.14c1.84.2,3.13,2.34,2.87,4.77l-.27,2.51-8-.86Zm4.28,6.47a.71.71,0,0,1-.82.59l-.4,0a.71.71,0,0,1-.67-.75l0-.36,1.89.2Zm4.54-1a.2.2,0,0,1-.22.18L129.67,142a.21.21,0,0,1-.18-.22l.09-.83a.2.2,0,0,1,.22-.18l10.25,1.11a.2.2,0,0,1,.18.22Z"/><path class="cls-20" d="M138.81,132.92a4.55,4.55,0,0,1,2.06,3.65.46.46,0,0,0,.41.4h.11a.46.46,0,0,0,.4-.51,5.54,5.54,0,0,0-2.56-4.37.46.46,0,0,0-.62.21A.46.46,0,0,0,138.81,132.92Z"/><path class="cls-20" d="M129.58,135.69l.11,0a.45.45,0,0,0,.48-.31,4.63,4.63,0,0,1,2.8-3.13.45.45,0,0,0,.33-.56.46.46,0,0,0-.56-.33,5.47,5.47,0,0,0-3.44,3.72A.45.45,0,0,0,129.58,135.69Z"/><path class="cls-25" d="M253.51,346.82,228,342.94a.57.57,0,0,0-.58.87l5,8.24a.57.57,0,0,0,.64.26l20.5-5.11A.19.19,0,0,0,253.51,346.82Z"/><path class="cls-25" d="M253.79,348.53l-20.31,5.82a.58.58,0,0,0-.42.54l-.16,9.64a.58.58,0,0,0,.94.46L254,348.87A.2.2,0,0,0,253.79,348.53Z"/><path id="Path_6302" data-name="Path 6302" class="cls-26" d="M169.53,168.44a27.4,27.4,0,0,0,3.37,13.42c.23.41.47.83.72,1.22a23.85,23.85,0,0,0,40.1,1.57c.12-.16.24-.33.35-.5a27.16,27.16,0,0,0,4.84-15.45c.08-14.5-10.9-26.32-24.54-26.39S169.61,153.93,169.53,168.44Z"/><path id="Path_6303" data-name="Path 6303" class="cls-27" d="M173.25,182.6c.25.4.5.81.77,1.19a24.4,24.4,0,0,0,20.88,11,24.14,24.14,0,0,0,19.25-10.87,20.58,20.58,0,0,0-11.87-9.46A28,28,0,0,0,193,173a28.36,28.36,0,0,0-7.51,1.11A21.91,21.91,0,0,0,173.25,182.6Z"/><ellipse id="Ellipse_1969" data-name="Ellipse 1969" class="cls-28" cx="193.82" cy="165.09" rx="10.87" ry="15.29" transform="translate(-2.04 2.43) rotate(-0.71)"/><path id="Path_6378" data-name="Path 6378" class="cls-20" d="M199.29,157.12s-.48,1.28-5,1.31-3.12,2.61-6.57,2.53c-1.23.39-2.12.19-2.67,1.9-2.08.59-1.85,5.6-1.85,5.6s-2.32-7.82-.31-12.14a13.69,13.69,0,0,1,6.28-6.83c1.47-.73,5.11-.78,5.11-.78a6.7,6.7,0,0,1,2,0,10.63,10.63,0,0,1,5.6,3.39c1,1.52,4.15.79,3.66,9.62s-2.46-1.46-2.46-1.46a10.53,10.53,0,0,1-1.64-1.83c-.19-.49-.67-2.11-.67-2.11Z"/><line class="cls-29" x1="233.38" y1="131.58" x2="248.19" y2="131.58"/><line class="cls-29" x1="233.38" y1="136.29" x2="248.19" y2="136.29"/><line class="cls-29" x1="233.38" y1="141" x2="248.19" y2="141"/><rect class="cls-4" x="169.27" y="200.55" width="47.45" height="7.25" rx="3.53"/><rect class="cls-4" x="145.04" y="213.56" width="92.89" height="7.25" rx="3.53"/><g id="Group_1480" data-name="Group 1480"><rect id="Rectangle_557" data-name="Rectangle 557" class="cls-30" x="62.07" y="267.26" width="17.62" height="25.21" rx="1.84" transform="translate(-215.88 313.27) rotate(-82.43)"/><path id="Path_6309" data-name="Path 6309" class="cls-30" d="M59.28,271.46l9.18,9.9a3.47,3.47,0,0,0,4.37.58l11.45-7.16"/><line id="Line_136" data-name="Line 136" class="cls-30" x1="59.22" y1="285.83" x2="68.47" y2="281.36"/><line id="Line_137" data-name="Line 137" class="cls-30" x1="80.47" y1="288.65" x2="72.83" y2="281.94"/></g></g></g></svg>