<svg xmlns="http://www.w3.org/2000/svg" xmlns:xlink="http://www.w3.org/1999/xlink" viewBox="0 0 414.61 384.04"><defs><style>.cls-1,.cls-13{fill:#e8e8e8;}.cls-18,.cls-2,.cls-24,.cls-8{fill:#263238;}.cls-17,.cls-2,.cls-21,.cls-24,.cls-25,.cls-3,.cls-31,.cls-37,.cls-4,.cls-42,.cls-70,.cls-8{stroke:#263238;}.cls-17,.cls-2,.cls-21,.cls-22,.cls-24,.cls-25,.cls-3,.cls-38,.cls-4,.cls-42,.cls-70,.cls-8{stroke-linecap:round;stroke-linejoin:round;}.cls-15,.cls-17,.cls-2,.cls-21,.cls-22,.cls-3,.cls-31,.cls-37,.cls-70{stroke-width:0.75px;}.cls-3,.cls-37,.cls-42,.cls-7{fill:#9bd2a5;}.cls-10,.cls-11,.cls-17,.cls-4,.cls-58,.cls-72{fill:#fff;}.cls-27,.cls-5{fill:#e95f24;}.cls-30,.cls-5{stroke:#3a3a3a;}.cls-15,.cls-16,.cls-30,.cls-31,.cls-37,.cls-5,.cls-78,.cls-79,.cls-80{stroke-miterlimit:10;}.cls-46,.cls-49,.cls-50,.cls-53,.cls-6{fill:#46b649;}.cls-9{opacity:0.16;}.cls-11,.cls-46,.cls-77{opacity:0.7;}.cls-12{clip-path:url(#clip-path);}.cls-13{opacity:0.8;}.cls-14{fill:#444545;}.cls-15{fill:#d77728;}.cls-15,.cls-16{stroke:#000;}.cls-16,.cls-29,.cls-31{fill:#d14d27;}.cls-19{clip-path:url(#clip-path-2);}.cls-20,.cls-50,.cls-72,.cls-79{opacity:0.5;}.cls-21,.cls-22,.cls-25,.cls-30,.cls-38,.cls-78,.cls-79,.cls-80{fill:none;}.cls-22,.cls-38{stroke:#818181;}.cls-23{clip-path:url(#clip-path-3);}.cls-24{stroke-width:0.5px;}.cls-26{fill:#273238;}.cls-28{clip-path:url(#clip-path-4);}.cls-32{clip-path:url(#clip-path-5);}.cls-33{clip-path:url(#clip-path-6);}.cls-34{clip-path:url(#clip-path-7);}.cls-35,.cls-53,.cls-80{opacity:0.2;}.cls-36{clip-path:url(#clip-path-8);}.cls-37,.cls-49,.cls-58,.cls-61{opacity:0.3;}.cls-39{clip-path:url(#clip-path-9);}.cls-40{clip-path:url(#clip-path-10);}.cls-41{clip-path:url(#clip-path-11);}.cls-43{clip-path:url(#clip-path-12);}.cls-44{opacity:0.13;}.cls-45{clip-path:url(#clip-path-13);}.cls-47{opacity:0.23;}.cls-48{clip-path:url(#clip-path-14);}.cls-51{opacity:0.71;}.cls-52{clip-path:url(#clip-path-15);}.cls-54{clip-path:url(#clip-path-16);}.cls-55{clip-path:url(#clip-path-17);}.cls-56{clip-path:url(#clip-path-18);}.cls-57{clip-path:url(#clip-path-19);}.cls-59{clip-path:url(#clip-path-20);}.cls-60{clip-path:url(#clip-path-21);}.cls-62{clip-path:url(#clip-path-22);}.cls-63{clip-path:url(#clip-path-23);}.cls-64{clip-path:url(#clip-path-24);}.cls-65{clip-path:url(#clip-path-25);}.cls-66{clip-path:url(#clip-path-26);}.cls-67{clip-path:url(#clip-path-27);}.cls-68{clip-path:url(#clip-path-28);}.cls-69{clip-path:url(#clip-path-29);}.cls-70{fill:#aeadae;}.cls-71{clip-path:url(#clip-path-30);}.cls-73{clip-path:url(#clip-path-31);}.cls-74{clip-path:url(#clip-path-32);}.cls-75{clip-path:url(#clip-path-33);}.cls-76{opacity:0.1;}.cls-78,.cls-79,.cls-80{stroke:#fff;}</style><clipPath id="clip-path"><rect class="cls-1" x="116.75" y="58.74" width="195.33" height="251.51" rx="8.26"/></clipPath><clipPath id="clip-path-2"><path class="cls-2" d="M337.44,258.09l14.86,56.1s.21,6.19,3.1,10.93l4.06,47.27s3.09,4.75,14.23,0c0,0,.48-33.86-3.64-54.9l-3.51-40.1a60.25,60.25,0,0,0-.62-18.91Z"/></clipPath><clipPath id="clip-path-3"><path class="cls-4" d="M340.5,182.18V179s-5.36.83-6.09-.55.46-7.1.46-7.1-2.58.09-2.58-1.1,3-6.27,3-6.27-.37-4.06,0-5.35,4.15-8.58,4.15-8.58,5.53,3,5.35,4.7-1.75,3.23-.46,4.61,3,5.12,2.49,6.9l.83.57s.46-3.32,2.3-3.87,3.32,3.14,2,5.72-2.77,2.12-2.77,2.12.74,4.42,2.68,5.9l.58,4.61Z"/></clipPath><clipPath id="clip-path-4"><path class="cls-5" d="M371.18,200.17s15.58,32.08,12.28,37-17.54,21.27-17.54,21.27l-5.78-6.6,11.56-19.62-6-12.16S363,210.56,371.18,200.17Z"/></clipPath><clipPath id="clip-path-5"><path class="cls-5" d="M322,257.72l3.09-25.31-1.26-38a7.46,7.46,0,0,1,5.39-7.4c10.48-3,32.92-6.76,42,13.16a9.1,9.1,0,0,1,.7,5.32l-6.17,35.45,1.65,19.33S347.28,275.05,322,257.72Z"/></clipPath><clipPath id="clip-path-6"><rect class="cls-8" x="62.23" y="264.04" width="36.14" height="27.68" rx="8.32"/></clipPath><clipPath id="clip-path-7"><path class="cls-4" d="M100.41,293.11s49.26-3.3,51.5,3.66,3.3,29.23,3.42,38.07-.59,20-.59,20a15.72,15.72,0,0,1-9.07,0s-2.17-12.84-3.74-19.09A82,82,0,0,1,139.65,308s-47.2,7.11-47.46-1.14S100.41,293.11,100.41,293.11Z"/></clipPath><clipPath id="clip-path-8"><path class="cls-3" d="M155.88,352.05l-.34,3.34s-5.63,3-10.59.22l-1-3.27S147.28,354.64,155.88,352.05Z"/></clipPath><clipPath id="clip-path-9"><path class="cls-4" d="M83.43,295s-7,14,1.95,15.2,36.24-.35,36.24-.35a137.55,137.55,0,0,0-9.07,17.12c-3.54,8.37-7.08,17-7.08,17s1.54,4.13,7.78,4.95c0,0,5.07-7.9,16.15-20.27s14.14-24.75,11.79-29-14.62-6.54-34.42-7.45Z"/></clipPath><clipPath id="clip-path-10"><path class="cls-3" d="M115.37,347.68l-2.12,2.6s-6.36-.59-9-5.66l.94-3.3S106.77,345.09,115.37,347.68Z"/></clipPath><clipPath id="clip-path-11"><polygon class="cls-4" points="103.72 236.22 104.78 230.03 96.8 223.16 94.54 233.52 103.72 236.22"/></clipPath><clipPath id="clip-path-12"><path class="cls-5" d="M110.16,238.44l16,.33,6-16.67,5.28,1.85s-2.71,21.1-5.41,22.35-19.22,3-19.22,3S107.69,243.7,110.16,238.44Z"/></clipPath><clipPath id="clip-path-13"><rect class="cls-6" x="130.2" y="183.3" width="6.21" height="4.42" transform="translate(-38.02 34.41) rotate(-12.89)"/></clipPath><clipPath id="clip-path-14"><rect class="cls-6" x="131.42" y="188.64" width="6.21" height="4.42" transform="translate(-39.18 34.81) rotate(-12.89)"/></clipPath><clipPath id="clip-path-15"><rect class="cls-6" x="133.86" y="199.32" width="6.21" height="4.42" transform="translate(-41.5 35.63) rotate(-12.89)"/></clipPath><clipPath id="clip-path-16"><rect class="cls-6" x="135.09" y="204.66" width="6.21" height="4.42" transform="translate(-42.66 36.04) rotate(-12.89)"/></clipPath><clipPath id="clip-path-17"><path class="cls-5" d="M80.41,238.79l5,44.62-3.18,13.42s3.33.75,12.6-2.17a56.13,56.13,0,0,1,19.16-2s4.1-29.71,2.46-39a37.17,37.17,0,0,0-6.28-15.2s-17.78-7.78-28.64-1.84A2.22,2.22,0,0,0,80.41,238.79Z"/></clipPath><clipPath id="clip-path-18"><rect class="cls-7" x="126.05" y="284.33" width="4.6" height="3.28" transform="translate(384.91 105.9) rotate(79.11)"/></clipPath><clipPath id="clip-path-19"><rect class="cls-7" x="122.07" y="285.09" width="4.6" height="3.28" transform="translate(382.44 110.43) rotate(79.11)"/></clipPath><clipPath id="clip-path-20"><rect class="cls-7" x="114.1" y="286.63" width="4.6" height="3.28" transform="translate(377.48 119.49) rotate(79.11)"/></clipPath><clipPath id="clip-path-21"><rect class="cls-7" x="110.12" y="287.39" width="4.6" height="3.28" transform="translate(375 124.03) rotate(79.11)"/></clipPath><clipPath id="clip-path-22"><rect class="cls-7" x="121.7" y="274.58" width="4.6" height="3.28" transform="translate(251.63 1.66) rotate(49.11)"/></clipPath><clipPath id="clip-path-23"><rect class="cls-7" x="118.64" y="277.23" width="4.6" height="3.28" transform="translate(252.58 4.89) rotate(49.11)"/></clipPath><clipPath id="clip-path-24"><rect class="cls-7" x="112.5" y="282.54" width="4.6" height="3.28" transform="translate(254.48 11.36) rotate(49.11)"/></clipPath><clipPath id="clip-path-25"><rect class="cls-7" x="109.44" y="285.2" width="4.6" height="3.28" transform="translate(255.43 14.6) rotate(49.11)"/></clipPath><clipPath id="clip-path-26"><rect class="cls-7" x="112.53" y="268.05" width="4.6" height="3.28" transform="translate(94.62 -22.73) rotate(19.11)"/></clipPath><clipPath id="clip-path-27"><rect class="cls-7" x="111.2" y="271.89" width="4.6" height="3.28" transform="translate(95.8 -22.08) rotate(19.11)"/></clipPath><clipPath id="clip-path-28"><rect class="cls-7" x="108.54" y="279.55" width="4.6" height="3.28" transform="translate(98.16 -20.79) rotate(19.11)"/></clipPath><clipPath id="clip-path-29"><rect class="cls-7" x="107.22" y="283.38" width="4.6" height="3.28" transform="translate(99.34 -20.15) rotate(19.11)"/></clipPath><clipPath id="clip-path-30"><polygon class="cls-3" points="113.83 128.06 123.53 105.45 140.37 123.37 113.83 128.06"/></clipPath><clipPath id="clip-path-31"><path class="cls-3" d="M136.71,103.12a3.43,3.43,0,1,1-4-2.79A3.43,3.43,0,0,1,136.71,103.12Z"/></clipPath><clipPath id="clip-path-32"><polygon class="cls-3" points="100.67 136.91 116.34 115.67 129.55 138.52 100.67 136.91"/></clipPath><clipPath id="clip-path-33"><path class="cls-3" d="M130.69,116.47a3.69,3.69,0,1,1-3.47-3.89A3.67,3.67,0,0,1,130.69,116.47Z"/></clipPath></defs><g id="Layer_2" data-name="Layer 2"><g id="Layer_2-2" data-name="Layer 2"><g class="cls-9"><path class="cls-10" d="M321.82,87.93C288.06,28.62,235-4.43,170.94.48s-67,52.77-67,106.37c0,53-75.64,28.27-99.76,92.16C-14.58,248.8,34.3,339.77,56.81,377.53H376.09c12.39-42.8,34.9-127,37.34-181.53C417.82,98,348.76,135.25,321.82,87.93Z"/><path class="cls-11" d="M322.8,88.58C289,29.27,235.92-3.78,171.92,1.13S105,53.9,105,107.5c0,53-75.65,28.27-99.76,92.16C-13.6,249.45,35.28,340.42,57.78,378.18H377.07c12.38-42.8,34.9-127,37.34-181.53C418.79,98.64,349.73,135.9,322.8,88.58Z"/></g><rect class="cls-8" x="119.87" y="62.43" width="195.33" height="251.51" rx="8.26"/><rect class="cls-1" x="116.75" y="58.74" width="195.33" height="251.51" rx="8.26"/><g class="cls-12"><rect class="cls-13" x="116.75" y="58.74" width="195.33" height="251.51" rx="8.26"/></g><rect class="cls-4" x="125.06" y="94.68" width="178.71" height="69.7"/><rect class="cls-3" x="124.43" y="180.45" width="88.17" height="67.94"/><rect class="cls-14" x="174.16" y="70.76" width="80.52" height="3.12" rx="1.38"/><path class="cls-2" d="M302.21,181.61h-77.4a1.56,1.56,0,0,1-1.56-1.56h0a1.56,1.56,0,0,1,1.56-1.56h77.4a1.56,1.56,0,0,1,1.56,1.56h0A1.56,1.56,0,0,1,302.21,181.61Z"/><path class="cls-2" d="M285.59,198.84H224.81a1.55,1.55,0,0,1-1.56-1.55h0a1.56,1.56,0,0,1,1.56-1.56h60.78a1.56,1.56,0,0,1,1.56,1.56h0A1.55,1.55,0,0,1,285.59,198.84Z"/><rect class="cls-2" x="223.25" y="207.91" width="55.85" height="3.12" rx="1.38"/><path class="cls-2" d="M292.86,223.21H224.81a1.56,1.56,0,0,1-1.56-1.56h0a1.56,1.56,0,0,1,1.56-1.56h68.05a1.56,1.56,0,0,1,1.56,1.56h0A1.56,1.56,0,0,1,292.86,223.21Z"/><path class="cls-2" d="M286.37,235.39H224.81a1.56,1.56,0,0,1-1.56-1.56h0a1.56,1.56,0,0,1,1.56-1.56h61.56a1.56,1.56,0,0,1,1.56,1.56h0A1.56,1.56,0,0,1,286.37,235.39Z"/><path class="cls-2" d="M277.54,247.57H224.81a1.56,1.56,0,0,1-1.56-1.56h0a1.56,1.56,0,0,1,1.56-1.56h52.73A1.56,1.56,0,0,1,279.1,246h0A1.56,1.56,0,0,1,277.54,247.57Z"/><path class="cls-14" d="M264.81,84.44H164a1.56,1.56,0,0,1-1.56-1.56h0A1.56,1.56,0,0,1,164,81.32H264.81a1.56,1.56,0,0,1,1.56,1.56h0A1.56,1.56,0,0,1,264.81,84.44Z"/><circle class="cls-8" cx="214.42" cy="282.89" r="16.62"/><circle class="cls-15" cx="164.55" cy="282.89" r="16.62"/><circle class="cls-16" cx="264.29" cy="282.89" r="16.62"/><polygon class="cls-4" points="264.63 230.04 231.97 230.04 231.97 185.07 255.77 185.07 264.63 193.93 264.63 230.04"/><polygon class="cls-2" points="255.77 185.07 255.77 185.07 255.77 186.29 255.77 195.15 264.63 195.15 264.63 193.93 255.77 185.07"/><polygon class="cls-4" points="255.77 193.94 264.63 193.94 255.77 185.07 255.77 193.94"/><path class="cls-5" d="M247,196.37h5.28l4,24.8h-3.9l-.71-4.92v.07h-4.43l-.71,4.85H243ZM251.24,213l-1.74-12.26h-.07L247.73,213Z"/><path class="cls-17" d="M244.55,195.15h5.28l4,24.81H250l-.7-4.93v.07h-4.43l-.71,4.86h-3.62Zm4.26,16.59-1.74-12.26H247l-1.7,12.26Z"/><path class="cls-18" d="M337.44,258.09l14.86,56.1s.21,6.19,3.1,10.93l4.06,47.27s3.09,4.75,14.23,0c0,0,.48-33.86-3.64-54.9l-3.51-40.1a60.25,60.25,0,0,0-.62-18.91Z"/><g class="cls-19"><path class="cls-20" d="M361.86,257.17s1.3,14.18-6.28,24.07-4.72,21.19-5.27,32.6S342.47,284,342.47,284l11.28-28.19Z"/></g><path class="cls-21" d="M337.44,258.09l14.86,56.1s.21,6.19,3.1,10.93l4.06,47.27s3.09,4.75,14.23,0c0,0,.48-33.86-3.64-54.9l-3.51-40.1a60.25,60.25,0,0,0-.62-18.91Z"/><path class="cls-5" d="M360.3,372.39s-7.15,3.29-9.72,3.27c-1.76,0-5-1.77-6.63,2.34,0,0-1.87,3.64,9.44,4.95a118,118,0,0,0,21.62.16,1.57,1.57,0,0,0,1.42-1.86l-.14-.73s-.28-5.42-3.65-8.13Z"/><path class="cls-17" d="M351.36,380.9c-7.35-1.44-7.16-3.45-7.16-3.45h0a4.93,4.93,0,0,0-.25.56s-1.87,3.64,9.44,4.95a118,118,0,0,0,21.62.16,1.57,1.57,0,0,0,1.42-1.86l-.06-.27-6.71.6S358.71,382.33,351.36,380.9Z"/><path class="cls-22" d="M360.14,315.78a9.53,9.53,0,0,0,8.15,3"/><path class="cls-2" d="M323.21,255.8s-3.71,9.69,3.1,51.17c0,0-1.24,3.92,1.23,11.76l3.31,26.61v26.41s2.26,5.57,15.68,0c0,0,.41-46.83-1-56.74l3.17-30.22a10.16,10.16,0,0,1,4.14-7.11c2.94-2.17,6.73-6.72,7.34-15.94Z"/><path class="cls-5" d="M331.77,371.24s-7.9,3.63-10.73,3.61c-1.94,0-5.57-2-7.32,2.58,0,0-2.06,4,10.42,5.46a131.08,131.08,0,0,0,23.87.18,1.73,1.73,0,0,0,1.56-2.05l-.16-.81s-.31-6-4-9Z"/><path class="cls-17" d="M321.9,380.62c-8.11-1.58-7.9-3.81-7.9-3.81h0c-.1.2-.19.4-.28.63,0,0-2.06,4,10.42,5.46a131.08,131.08,0,0,0,23.87.18,1.73,1.73,0,0,0,1.56-2.05l-.06-.3-7.41.66S330,382.21,321.9,380.62Z"/><path class="cls-22" d="M333.53,313s3.23,3.87,9.69,3.34"/><path class="cls-2" d="M339.48,151.4s-6.67,3-7.19,0a9.18,9.18,0,0,0,4.06-3.1c1.61-2.27,9.87-1.65,9.87-1.65s14.54-1.36,12.69,6.08c0,0,5.77,5.45.82,13.41s-7.8,10.6-7.8,10.6L347,176,340.13,155Z"/><path class="cls-10" d="M340.5,182.18V179s-5.36.83-6.09-.55.46-7.1.46-7.1-2.58.09-2.58-1.1,3-6.27,3-6.27-.37-4.06,0-5.35,4.15-8.58,4.15-8.58,5.53,3,5.35,4.7-1.75,3.23-.46,4.61,3,5.12,2.49,6.9l.83.57s.46-3.32,2.3-3.87,3.32,3.14,2,5.72-2.77,2.12-2.77,2.12.74,4.42,2.68,5.9l.58,4.61Z"/><g class="cls-23"><path class="cls-24" d="M334.41,178.49s2.73.69,8.71-1.75,6.13-5.9,6.13-5.9l.27.47s-.52,5.43-9,7.73c-6.87,1.86-6.87.52-6.87.52Z"/></g><path class="cls-25" d="M340.5,182.18V179s-5.36.83-6.09-.55.46-7.1.46-7.1-2.58.09-2.58-1.1,3-6.27,3-6.27-.37-4.06,0-5.35,4.15-8.58,4.15-8.58,5.53,3,5.35,4.7-1.75,3.23-.46,4.61,3,5.12,2.49,6.9l.83.57s.46-3.32,2.3-3.87,3.32,3.14,2,5.72-2.77,2.12-2.77,2.12.74,4.42,2.68,5.9l.58,4.61Z"/><path class="cls-21" d="M340.22,171.39a2.51,2.51,0,0,1-3.9,1.38"/><path class="cls-21" d="M337,159.87a2.34,2.34,0,0,1,2.53,1.66"/><path class="cls-26" d="M336.35,163c0,.61.26,1.11.6,1.11s.59-.5.59-1.11-.26-1.11-.59-1.11S336.35,162.39,336.35,163Z"/><path class="cls-27" d="M371.18,200.17s15.58,32.08,12.28,37-17.54,21.27-17.54,21.27l-5.78-6.6,11.56-19.62-6-12.16S363,210.56,371.18,200.17Z"/><g class="cls-28"><path class="cls-29" d="M371.88,205.49s1,10.9,0,16.47,5.26,6.17,4.5,9.48-11.08,8.13-10.46,27-7-32.18-7-32.18l5.57-20.12,3.92-5.27Z"/></g><path class="cls-30" d="M371.18,200.17s15.58,32.08,12.28,37-17.54,21.27-17.54,21.27l-5.78-6.6,11.56-19.62-6-12.16S363,210.56,371.18,200.17Z"/><path class="cls-31" d="M336.83,186.88l3.71-6.07s10.32-4.22,15.48,0l2.89,8.14Z"/><path class="cls-27" d="M322,257.72l3.09-25.31-1.26-38a7.46,7.46,0,0,1,5.39-7.4c10.48-3,32.92-6.76,42,13.16a9.1,9.1,0,0,1,.7,5.32l-6.17,35.45,1.65,19.33S347.28,275.05,322,257.72Z"/><g class="cls-32"><path class="cls-29" d="M330.67,193.06s5.75,7.21,0,21.27S350,234.89,350,237.92s9.49,1.43,10.11,4.49-12.79,6-12.27,13.39,15.57,6.7,15.57,6.7l-9.07,9.39-32.09-.82-15-15.27,10.11-29.5,4.77-23.25,1.6-8.64Z"/></g><path class="cls-30" d="M322,257.72l3.09-25.31-1.26-38a7.46,7.46,0,0,1,5.39-7.4c10.48-3,32.92-6.76,42,13.16a9.1,9.1,0,0,1,.7,5.32l-6.17,35.45,1.65,19.33S347.28,275.05,322,257.72Z"/><path class="cls-4" d="M286.83,202.73l-9.92-3.58s-2.6-6.79-4.47-8.19-4.14-4.11-4.74-3.09c-.43.74.71,2.69,2.29,4a3.31,3.31,0,0,1,.62,4.15c-.34.8-3.11,2.05-5.34,2.83s-7.4-1.15-8.76.2,2.09,1.79,2.09,1.79-2.54.19-2.77,1.69c-.13.88,2.4.33,3.66.2s3.86-.3,3.86-.3-4.39,1.52-4.07,2.74,3.39-.63,5.94-1.07c0,0-3.42,1.7-3,2.85s2.1-.51,5-1.68l6.16-1.41,10,5.41Z"/><path class="cls-21" d="M259.56,200.82a15.9,15.9,0,0,0,4.25.38"/><path class="cls-5" d="M328.14,187.81a1.73,1.73,0,0,0-1.91.42l-17.71,18.85-29-8-3.21,8.09s22,12.32,33.21,11.64c8.49-.52,18.88-9.65,23.39-14a6.41,6.41,0,0,0,1.83-5.7"/><path class="cls-17" d="M282.43,206.34a1,1,0,1,1-1.13-.8A1,1,0,0,1,282.43,206.34Z"/><path class="cls-21" d="M308.24,212.71c.94-2.43-.35-4.44,1-4.67s1.42,4,3.6,3.88"/><path class="cls-17" d="M126.32,372l-20-2.26V324.44l10.28-6.18V316H89v2.24l10.28,6.15v45.33l-20,2.25A3.67,3.67,0,0,0,76,375.65v1.86h53.59v-1.87A3.68,3.68,0,0,0,126.32,372Z"/><rect class="cls-17" x="77.56" y="289.46" width="5.47" height="24.87"/><rect class="cls-8" x="70.27" y="309.17" width="65.05" height="10.3" rx="3.99"/><rect class="cls-18" x="62.23" y="264.04" width="36.14" height="27.68" rx="8.32"/><g class="cls-33"><rect class="cls-20" x="68.26" y="264.04" width="36.14" height="27.68" rx="8.32"/></g><rect class="cls-25" x="62.23" y="264.04" width="36.14" height="27.68" rx="8.32"/><path class="cls-21" d="M123.76,307.61a22.89,22.89,0,0,1,5.64-3.3"/><path class="cls-21" d="M127.16,302.42s-5.75,4.72-4.58,5.43"/><path class="cls-2" d="M145.36,346.49l1.79,12.57s-3.34,2.73-3.51,10.15l5.88,2.09,1.59-2.09,5.25,5.48s9.31,4.19,10.58,1.39-3.86-4.88-8.2-11c-1.13-1.61-4.9-6.13-4.9-6.13l.38-13.12Z"/><path class="cls-10" d="M100.41,293.11s49.26-3.3,51.5,3.66,3.3,29.23,3.42,38.07-.59,20-.59,20a15.72,15.72,0,0,1-9.07,0s-2.17-12.84-3.74-19.09A82,82,0,0,1,139.65,308s-47.2,7.11-47.46-1.14S100.41,293.11,100.41,293.11Z"/><g class="cls-34"><path class="cls-20" d="M100.41,293.11s49.26-3.3,51.5,3.66,3.3,29.23,3.42,38.07-.59,20-.59,20a15.72,15.72,0,0,1-9.07,0s-2.17-12.84-3.74-19.09A82,82,0,0,1,139.65,308s-47.2,7.11-47.46-1.14S100.41,293.11,100.41,293.11Z"/><path class="cls-35" d="M133.3,295.28s11.85-.16,10.62,12.33-4,5.14-3.1,23.23-9.63-16.76-9.63-16.76V298.25Z"/></g><path class="cls-25" d="M100.41,293.11s49.26-3.3,51.5,3.66,3.3,29.23,3.42,38.07-.59,20-.59,20a15.72,15.72,0,0,1-9.07,0s-2.17-12.84-3.74-19.09A82,82,0,0,1,139.65,308s-47.2,7.11-47.46-1.14S100.41,293.11,100.41,293.11Z"/><path class="cls-21" d="M145,303.54s-.51,2.29-3.7,4.5"/><path class="cls-7" d="M155.88,352.05l-.34,3.34s-5.63,3-10.59.22l-1-3.27S147.28,354.64,155.88,352.05Z"/><g class="cls-36"><path class="cls-37" d="M155.88,352.05l-.34,3.34s-5.63,3-10.59.22l-1-3.27S147.28,354.64,155.88,352.05Z"/></g><path class="cls-21" d="M155.88,352.05l-.34,3.34s-5.63,3-10.59.22l-1-3.27S147.28,354.64,155.88,352.05Z"/><path class="cls-38" d="M153.52,360.05a42.69,42.69,0,0,1,5.94,7.45"/><path class="cls-2" d="M109.54,337.7,104,349.15s-4.29.41-8.55,6.5l3.73,5,2.48-.86,1.33,7.48s5.42,8.65,8,7-.51-6.2-.7-13.72c0-2-.67-7.82-.67-7.82l7.6-10.7Z"/><path class="cls-10" d="M83.43,295s-7,14,1.95,15.2,36.24-.35,36.24-.35a137.55,137.55,0,0,0-9.07,17.12c-3.54,8.37-7.08,17-7.08,17s1.54,4.13,7.78,4.95c0,0,5.07-7.9,16.15-20.27s14.14-24.75,11.79-29-14.62-6.54-34.42-7.45Z"/><g class="cls-39"><path class="cls-20" d="M83.43,295s-7,14,1.95,15.2,36.24-.35,36.24-.35a137.55,137.55,0,0,0-9.07,17.12c-3.54,8.37-7.08,17-7.08,17s1.54,4.13,7.78,4.95c0,0,5.07-7.9,16.15-20.27s14.14-24.75,11.79-29-14.62-6.54-34.42-7.45Z"/></g><path class="cls-25" d="M83.43,295s-7,14,1.95,15.2,36.24-.35,36.24-.35a137.55,137.55,0,0,0-9.07,17.12c-3.54,8.37-7.08,17-7.08,17s1.54,4.13,7.78,4.95c0,0,5.07-7.9,16.15-20.27s14.14-24.75,11.79-29-14.62-6.54-34.42-7.45Z"/><path class="cls-7" d="M115.37,347.68l-2.12,2.6s-6.36-.59-9-5.66l.94-3.3S106.77,345.09,115.37,347.68Z"/><g class="cls-40"><path class="cls-37" d="M115.37,347.68l-2.12,2.6s-6.36-.59-9-5.66l.94-3.3S106.77,345.09,115.37,347.68Z"/></g><path class="cls-21" d="M115.37,347.68l-2.12,2.6s-6.36-.59-9-5.66l.94-3.3S106.77,345.09,115.37,347.68Z"/><path class="cls-38" d="M108.61,353.83c.32,1.73.91,5.25,1.23,9.05"/><path class="cls-8" d="M106.06,211.44s6.08-3-.32-7-17.58,7-17.58,7l-1.08,5.17s.47,4.12,2,6.51c1.19,1.92,3.3,1.94,4.31,3.85,1.53,2.9,1,5,2.6,3.69,3.91-3.14,5.16-15.71,5.16-15.71Z"/><polygon class="cls-10" points="103.72 236.22 104.78 230.03 96.8 223.16 94.54 233.52 103.72 236.22"/><g class="cls-41"><path class="cls-24" d="M96,223.88a14.13,14.13,0,0,0,2.59,5.81c1.94,2.25,7,4.92,7,4.92l.43-4.26-7.93-6-1.33-1.14Z"/></g><polygon class="cls-25" points="103.72 236.22 104.78 230.03 96.8 223.16 94.54 233.52 103.72 236.22"/><path class="cls-10" d="M106.26,209.27s3.63,6.35,3.55,8.18c0,0,4.74,12.49,0,14.54-3.71,1.62-8.34-1.5-10.16-2.91a4.82,4.82,0,0,1-1.23-1.43l-1.55-2.73s-1.9.55-3.64-1.92,0-4.83,2-3.36c0,0,1.44-3,1-4.65s1.72-1.67,1.81-3.42C98,211.57,103.17,211.38,106.26,209.27Z"/><path class="cls-25" d="M106.26,209.27s3.63,6.35,3.55,8.18c0,0,4.74,12.49,0,14.54-3.71,1.62-8.34-1.5-10.16-2.91a4.82,4.82,0,0,1-1.23-1.43l-1.55-2.73s-1.9.55-3.64-1.92,0-4.83,2-3.36c0,0,1.44-3,1-4.65s1.72-1.67,1.81-3.42C98,211.57,103.17,211.38,106.26,209.27Z"/><path class="cls-21" d="M105.59,226.39s1.18,1.59,3.57-.52"/><path class="cls-21" d="M107.57,219c.44,1.7-.07,3.31-1.13,3.58s-2.28-.89-2.72-2.6.27-2.37,1.33-2.64S107.13,217.29,107.57,219Z"/><path class="cls-17" d="M112.43,217.58c.44,1.71.09,3.28-.78,3.5s-1.93-1-2.36-2.69.11-2.33,1-2.55S112,215.88,112.43,217.58Z"/><path class="cls-21" d="M103.16,217.29a2.36,2.36,0,0,1,3.23-1.07"/><path class="cls-21" d="M108.41,215.53a1.62,1.62,0,0,1,1-1.16"/><polyline class="cls-21" points="103.72 219.98 101.7 220.8 95.22 219.64"/><line class="cls-21" x1="109.22" y1="218.11" x2="107.6" y2="218.76"/><path class="cls-18" d="M106.67,219.4c.06.54-.16,1-.49,1s-.66-.37-.73-.91.16-1,.5-1S106.61,218.86,106.67,219.4Z"/><path class="cls-18" d="M110.64,218c.06.53-.09,1-.33,1s-.48-.37-.54-.9.08-1,.32-1S110.57,217.44,110.64,218Z"/><path class="cls-17" d="M108.8,218.29l3.34,2.92a.69.69,0,0,1-.09,1.09l-1.72,1.07"/><path class="cls-8" d="M89.92,211.66s-.58-10.55-8.77-6.31-.37,16.58-2.82,19.31,2.24,1.51,2.82-.47.11,3.3,1.24,3.49,1.32-4.52,2.35-4.52-.28,2.93.57,3.26,2.82-5.76,3.39-9.13A53.4,53.4,0,0,1,89.92,211.66Z"/><path class="cls-42" d="M89.92,210.23s-2.86,3.18-1.74,11.08C88.18,221.31,82.64,213.28,89.92,210.23Z"/><path class="cls-2" d="M96.71,211.44s3.17.89,3.61,3.51S102.23,208.93,96.71,211.44Z"/><path class="cls-2" d="M107.24,210.89s3.45-1,4.48,1.21C111.72,212.1,111.21,206.66,107.24,210.89Z"/><path class="cls-4" d="M134.51,208.61c.7-.19,1.42.72,1.42.72.75-1.27,1.93.84,1.93.84,1-1.22,1.51,1.45,1.51,1.45s1.06-.24.93,1.1c-.16,1.76-2.22,5.79-2.22,5.79l-1.32,6.82-5-.59,1.56-6.55-1.47-2.87a8.13,8.13,0,0,1-.76-3.69C131.31,210,133.81,208.8,134.51,208.61Z"/><path class="cls-17" d="M134.52,210.24s1.49,3.13,1.31,0c0,0,1.08,3.86,1.77.73,0,0-.42,3.61,1.05,1.56,0,0-.62,1.08-.35,1.58s1.07-.33,1.07-.33"/><path class="cls-27" d="M110.16,238.44l16,.33,6-16.67,5.28,1.85s-2.71,21.1-5.41,22.35-19.22,3-19.22,3S107.69,243.7,110.16,238.44Z"/><g class="cls-43"><path class="cls-35" d="M108.8,237.9a10.61,10.61,0,0,1,7,5.33c2.74,4.71,10.77,4.28,10.77,4.28l2.8,3.91-11.68,4.05-8.59-2.92-4.35-8.48v-2.45Z"/></g><path class="cls-30" d="M110.16,238.44l16,.33,6-16.67,5.28,1.85s-2.71,21.1-5.41,22.35-19.22,3-19.22,3S107.69,243.7,110.16,238.44Z"/><polygon class="cls-5" points="131.19 223.39 137.41 225.51 137.83 222.68 131.94 220.81 131.19 223.39"/><path class="cls-17" d="M140.27,215.74h0a4.81,4.81,0,0,1-5.77-3.62L127.84,183l9.39-2.15L143.89,210A4.81,4.81,0,0,1,140.27,215.74Z"/><g class="cls-44"><rect class="cls-6" x="130.2" y="183.3" width="6.21" height="4.42" transform="translate(-38.02 34.41) rotate(-12.89)"/><g class="cls-45"><rect class="cls-46" x="130.2" y="183.3" width="6.21" height="4.42" transform="translate(-38.02 34.41) rotate(-12.89)"/></g></g><g class="cls-47"><rect class="cls-6" x="131.42" y="188.64" width="6.21" height="4.42" transform="translate(-39.18 34.81) rotate(-12.89)"/><g class="cls-48"><rect class="cls-49" x="131.42" y="188.64" width="6.21" height="4.42" transform="translate(-39.18 34.81) rotate(-12.89)"/></g></g><rect class="cls-50" x="132.64" y="193.98" width="6.21" height="4.42" transform="translate(-40.34 35.22) rotate(-12.89)"/><g class="cls-51"><rect class="cls-6" x="133.86" y="199.32" width="6.21" height="4.42" transform="translate(-41.5 35.63) rotate(-12.89)"/><g class="cls-52"><rect class="cls-53" x="133.86" y="199.32" width="6.21" height="4.42" transform="translate(-41.5 35.63) rotate(-12.89)"/></g></g><rect class="cls-6" x="135.09" y="204.66" width="6.21" height="4.42" transform="translate(-42.66 36.04) rotate(-12.89)"/><g class="cls-54"><rect class="cls-49" x="135.09" y="204.66" width="6.21" height="4.42" transform="translate(-42.66 36.04) rotate(-12.89)"/></g><path class="cls-17" d="M132.38,211.06a.94.94,0,0,1,1.63-.52c1.29,1,3.19,1.26,3,1.84s-.7.94-2.54.2c0,0-.33.2.14.77a4.78,4.78,0,0,1,1.21,2.33"/><path class="cls-27" d="M80.41,238.79l5,44.62-3.18,13.42s3.33.75,12.6-2.17a56.13,56.13,0,0,1,19.16-2s4.1-29.71,2.46-39a37.17,37.17,0,0,0-6.28-15.2s-17.78-7.78-28.64-1.84A2.22,2.22,0,0,0,80.41,238.79Z"/><g class="cls-55"><path class="cls-29" d="M87.82,249.9s2.48,9.15,2.1,14.68,12.8,4.4,12.18,8.17-13,7.91-13.41,11.43-5,12.08,8.79,9.75S87.16,304.3,87.16,304.3l-21-4.29,7-18.47,7.18-30.65Z"/></g><path class="cls-30" d="M80.41,238.79l5,44.62-3.18,13.42s3.33.75,12.6-2.17a56.13,56.13,0,0,1,19.16-2s4.1-29.71,2.46-39a37.17,37.17,0,0,0-6.28-15.2s-17.78-7.78-28.64-1.84A2.22,2.22,0,0,0,80.41,238.79Z"/><path class="cls-31" d="M91.67,234.61,94,230a77.3,77.3,0,0,0,8.2,2.28c4.5,1,3.42,2.29,3.42,2.29l-1.15,3.46S102.71,239.81,91.67,234.61Z"/><path class="cls-25" d="M83,269.16s2.54-2,3.19-1.16-.71.58-1.73,3.5"/><path class="cls-17" d="M105.81,290.34h0a3.57,3.57,0,0,1,2.83-4.18l21.7-4.17,1.35,7L110,293.17A3.56,3.56,0,0,1,105.81,290.34Z"/><rect class="cls-7" x="126.05" y="284.33" width="4.6" height="3.28" transform="translate(384.91 105.9) rotate(79.11)"/><g class="cls-56"><rect class="cls-11" x="126.05" y="284.33" width="4.6" height="3.28" transform="translate(384.91 105.9) rotate(79.11)"/></g><rect class="cls-7" x="122.07" y="285.09" width="4.6" height="3.28" transform="translate(382.44 110.43) rotate(79.11)"/><g class="cls-57"><rect class="cls-58" x="122.07" y="285.09" width="4.6" height="3.28" transform="translate(382.44 110.43) rotate(79.11)"/></g><rect class="cls-7" x="118.09" y="285.86" width="4.6" height="3.28" transform="translate(379.96 114.96) rotate(79.11)"/><rect class="cls-7" x="114.1" y="286.63" width="4.6" height="3.28" transform="translate(377.48 119.49) rotate(79.11)"/><g class="cls-59"><rect class="cls-35" x="114.1" y="286.63" width="4.6" height="3.28" transform="translate(377.48 119.49) rotate(79.11)"/></g><rect class="cls-7" x="110.12" y="287.39" width="4.6" height="3.28" transform="translate(375 124.03) rotate(79.11)"/><g class="cls-60"><rect class="cls-61" x="110.12" y="287.39" width="4.6" height="3.28" transform="translate(375 124.03) rotate(79.11)"/></g><path class="cls-17" d="M106.66,291.27h0a3.57,3.57,0,0,1,.37-5l16.71-14.47,4.67,5.4L111.7,291.64A3.58,3.58,0,0,1,106.66,291.27Z"/><rect class="cls-7" x="121.7" y="274.58" width="4.6" height="3.28" transform="translate(251.63 1.66) rotate(49.11)"/><g class="cls-62"><rect class="cls-11" x="121.7" y="274.58" width="4.6" height="3.28" transform="translate(251.63 1.66) rotate(49.11)"/></g><rect class="cls-7" x="118.64" y="277.23" width="4.6" height="3.28" transform="translate(252.58 4.89) rotate(49.11)"/><g class="cls-63"><rect class="cls-58" x="118.64" y="277.23" width="4.6" height="3.28" transform="translate(252.58 4.89) rotate(49.11)"/></g><rect class="cls-7" x="115.57" y="279.89" width="4.6" height="3.28" transform="translate(253.53 8.13) rotate(49.11)"/><rect class="cls-7" x="112.5" y="282.54" width="4.6" height="3.28" transform="translate(254.48 11.36) rotate(49.11)"/><g class="cls-64"><rect class="cls-35" x="112.5" y="282.54" width="4.6" height="3.28" transform="translate(254.48 11.36) rotate(49.11)"/></g><rect class="cls-7" x="109.44" y="285.2" width="4.6" height="3.28" transform="translate(255.43 14.6) rotate(49.11)"/><g class="cls-65"><rect class="cls-61" x="109.44" y="285.2" width="4.6" height="3.28" transform="translate(255.43 14.6) rotate(49.11)"/></g><path class="cls-17" d="M107.34,291.4h0a3.57,3.57,0,0,1-2.2-4.54L112.38,266l6.74,2.33-7.24,20.89A3.56,3.56,0,0,1,107.34,291.4Z"/><rect class="cls-7" x="112.53" y="268.05" width="4.6" height="3.28" transform="translate(94.62 -22.73) rotate(19.11)"/><g class="cls-66"><rect class="cls-11" x="112.53" y="268.05" width="4.6" height="3.28" transform="translate(94.62 -22.73) rotate(19.11)"/></g><rect class="cls-7" x="111.2" y="271.89" width="4.6" height="3.28" transform="translate(95.8 -22.08) rotate(19.11)"/><g class="cls-67"><rect class="cls-58" x="111.2" y="271.89" width="4.6" height="3.28" transform="translate(95.8 -22.08) rotate(19.11)"/></g><rect class="cls-7" x="109.87" y="275.72" width="4.6" height="3.28" transform="translate(96.98 -21.44) rotate(19.11)"/><rect class="cls-7" x="108.54" y="279.55" width="4.6" height="3.28" transform="translate(98.16 -20.79) rotate(19.11)"/><g class="cls-68"><rect class="cls-35" x="108.54" y="279.55" width="4.6" height="3.28" transform="translate(98.16 -20.79) rotate(19.11)"/></g><rect class="cls-7" x="107.22" y="283.38" width="4.6" height="3.28" transform="translate(99.34 -20.15) rotate(19.11)"/><g class="cls-69"><rect class="cls-61" x="107.22" y="283.38" width="4.6" height="3.28" transform="translate(99.34 -20.15) rotate(19.11)"/></g><path class="cls-4" d="M99,278.34l6,4.38s6.82,0,8.06,1.87,1.61,4,.48,4.72.57-2-2.51-3.42c0,0,1.57,7.19-1.17,5.66,0,0-.36,1.22-1.4.1a4,4,0,0,0-.37-2.64,1.94,1.94,0,0,0-1.46-1.14s1.94,2.65.66,3.37c-1,.58-1.6-3.22-3-3.65a4.25,4.25,0,0,1-3.53-2.42l-4.67-2.47Z"/><path class="cls-21" d="M110.12,290.43a5.19,5.19,0,0,0-1.05-3.76"/><path class="cls-21" d="M111.61,284.66s-.12.54-1.37.42c-.91-.08-2.25,1.75-3.65,1.47"/><path class="cls-5" d="M81.71,237.56a.67.67,0,0,0-1.17.16c-1.3,3.36-4.82,14.6-2.93,34.53,0,0,1.52,4.07,19.32,11.85l3.39-5.24L87.16,268.17s1.72-14.28.42-19.61"/><polygon class="cls-5" points="99.53 277.65 95.45 284.27 98.66 285.42 102.1 279.64 99.53 277.65"/><rect class="cls-70" x="102.23" y="91.86" width="56.85" height="42.24" transform="matrix(0.98, -0.17, 0.17, 0.98, -17.65, 24.43)"/><rect class="cls-8" x="103.43" y="98.62" width="5.95" height="4.42" transform="matrix(0.98, -0.17, 0.17, 0.98, -15.91, 20.03)"/><polygon class="cls-7" points="113.83 128.06 123.53 105.45 140.37 123.37 113.83 128.06"/><g class="cls-71"><polygon class="cls-72" points="113.83 128.06 123.53 105.45 140.37 123.37 113.83 128.06"/></g><polygon class="cls-21" points="113.83 128.06 123.53 105.45 140.37 123.37 113.83 128.06"/><polygon class="cls-3" points="131.37 124.96 138.76 107.7 151.63 121.38 131.37 124.96"/><path class="cls-7" d="M136.71,103.12a3.43,3.43,0,1,1-4-2.79A3.43,3.43,0,0,1,136.71,103.12Z"/><g class="cls-73"><path class="cls-11" d="M136.71,103.12a3.43,3.43,0,1,1-4-2.79A3.43,3.43,0,0,1,136.71,103.12Z"/></g><path class="cls-21" d="M136.71,103.12a3.43,3.43,0,1,1-4-2.79A3.43,3.43,0,0,1,136.71,103.12Z"/><rect class="cls-17" x="99.27" y="94.77" width="45.33" height="61.01" transform="translate(-9.95 240.04) rotate(-86.8)"/><rect class="cls-8" x="97.21" y="103.45" width="4.75" height="6.39" transform="translate(-12.45 200.13) rotate(-86.8)"/><polygon class="cls-7" points="100.67 136.91 116.34 115.67 129.55 138.52 100.67 136.91"/><g class="cls-74"><polygon class="cls-72" points="100.67 136.91 116.34 115.67 129.55 138.52 100.67 136.91"/></g><polygon class="cls-21" points="100.67 136.91 116.34 115.67 129.55 138.52 100.67 136.91"/><polygon class="cls-3" points="119.75 137.98 131.71 121.76 141.8 139.21 119.75 137.98"/><path class="cls-7" d="M130.69,116.47a3.69,3.69,0,1,1-3.47-3.89A3.67,3.67,0,0,1,130.69,116.47Z"/><g class="cls-75"><path class="cls-11" d="M130.69,116.47a3.69,3.69,0,1,1-3.47-3.89A3.67,3.67,0,0,1,130.69,116.47Z"/></g><path class="cls-21" d="M130.69,116.47a3.69,3.69,0,1,1-3.47-3.89A3.67,3.67,0,0,1,130.69,116.47Z"/><g class="cls-76"><path class="cls-10" d="M4.09,73.47a36.7,36.7,0,0,0,7.39,18.45,46.13,46.13,0,0,0,9.44,9.31c9.76,7,22.39,5.84,28-.35S65.44,66.33,65.15,58.69,44.68,43,31.21,44,5.87,52.92,4.23,62.3A40.27,40.27,0,0,0,4.09,73.47Z"/><path class="cls-11" d="M4.09,73.47a36.7,36.7,0,0,0,7.39,18.45,46.13,46.13,0,0,0,9.44,9.31c9.76,7,22.39,5.84,28-.35S65.44,66.33,65.15,58.69,44.68,43,31.21,44,5.87,52.92,4.23,62.3A40.27,40.27,0,0,0,4.09,73.47Z"/></g><g class="cls-77"><path class="cls-78" d="M352.73,84.91a94.45,94.45,0,0,0-8.59-21.7"/><path class="cls-78" d="M317.43,32.66l.14.1"/><path class="cls-78" d="M314.62,30.72c-.44-.3-.88-.58-1.33-.85h0c-11-6.9-18.85-7.62-22.1-7.56"/><rect class="cls-78" x="288.67" y="21.09" width="2.2" height="2.2" transform="matrix(0.82, -0.57, 0.57, 0.82, 38.55, 168.29)"/><rect class="cls-78" x="351.89" y="84.97" width="2.2" height="2.2" transform="translate(13.47 215.43) rotate(-34.56)"/><path class="cls-78" d="M329.37,41.3l1.34,1a.87.87,0,0,1-.16.43.89.89,0,0,1-.34.27l-1.35-1L317,33.26l.51-.7Z"/><path class="cls-78" d="M330.8,41.33a1.24,1.24,0,0,1,.5,1.21,1.18,1.18,0,0,1-.22.56,1.24,1.24,0,0,1-.45.38,1.27,1.27,0,1,1,.17-2.15Z"/><line class="cls-78" x1="314.49" y1="30.74" x2="302.87" y2="22.24"/><path class="cls-78" d="M302.89,21.09a1,1,0,1,1-1.38-.26A1,1,0,0,1,302.89,21.09Z"/><polygon class="cls-78" points="317.22 30.34 317.53 32.53 317.43 32.66 317.32 32.82 316.93 33.36 314.74 33.67 314.31 30.77 317.22 30.34"/><polygon class="cls-78" points="317.53 32.53 317.61 33.03 317.64 33.25 316.93 33.36 317.32 32.82 317.43 32.66 317.53 32.53"/><polygon class="cls-78" points="338.12 35.08 343.23 44.17 335.99 53.99 325.79 51.81 316.19 34.35 317.32 32.82 317.43 32.66 318.6 31.09 338.12 35.08"/><polygon class="cls-78" points="355.51 48.6 344.47 63.59 335.99 54 343.23 44.17 355.51 48.6"/><polyline class="cls-78" points="340.09 52.39 344.54 46.33 349.83 48.22"/><line class="cls-78" x1="338.7" y1="54.27" x2="339.15" y2="53.66"/></g><g class="cls-77"><path class="cls-78" d="M84.07,172.19a8,8,0,1,0-14.78,5.89c1.18,3,4.33,4,6.75,5.78.76.54,1.79,3.27,1.79,3.27l6.27-2.5s-1.14-2.69-1-3.6C83.69,178.09,85.25,175.15,84.07,172.19Z"/><path class="cls-78" d="M78.11,186.23h6.75a0,0,0,0,1,0,0v.52a1.42,1.42,0,0,1-1.42,1.42H79.53a1.42,1.42,0,0,1-1.42-1.42v-.52A0,0,0,0,1,78.11,186.23Z" transform="translate(-63.53 43.49) rotate(-21.74)"/><path class="cls-79" d="M78.11,186.23h6.75a0,0,0,0,1,0,0v.52a1.42,1.42,0,0,1-1.42,1.42H79.53a1.42,1.42,0,0,1-1.42-1.42v-.52A0,0,0,0,1,78.11,186.23Z" transform="translate(-63.53 43.49) rotate(-21.74)"/><path class="cls-78" d="M80.73,188.46h3.15a0,0,0,0,1,0,0v.42A1.15,1.15,0,0,1,82.73,190h-.84a1.15,1.15,0,0,1-1.15-1.15v-.42A0,0,0,0,1,80.73,188.46Z" transform="translate(-64.22 43.92) rotate(-21.73)"/><path class="cls-80" d="M80.73,188.46h3.15a0,0,0,0,1,0,0v.42A1.15,1.15,0,0,1,82.73,190h-.84a1.15,1.15,0,0,1-1.15-1.15v-.42A0,0,0,0,1,80.73,188.46Z" transform="translate(-64.22 43.92) rotate(-21.73)"/><line class="cls-78" x1="72.32" y1="158.25" x2="74.14" y2="165.05"/><line class="cls-78" x1="71.58" y1="155.5" x2="71.95" y2="156.89"/><line class="cls-78" x1="64.43" y1="178.1" x2="57.46" y2="179.96"/><line class="cls-78" x1="67.01" y1="177.4" x2="65.83" y2="177.72"/><line class="cls-78" x1="93.79" y1="170.23" x2="86.49" y2="172.18"/><line class="cls-78" x1="96.05" y1="169.62" x2="95.01" y2="169.9"/><line class="cls-78" x1="71.71" y1="183.53" x2="66.77" y2="192.09"/><line class="cls-78" x1="86.74" y1="157.49" x2="81.8" y2="166.06"/><line class="cls-78" x1="68.02" y1="169.75" x2="59.45" y2="164.81"/><line class="cls-78" x1="86.79" y1="180.59" x2="85.49" y2="179.84"/><line class="cls-78" x1="94.05" y1="184.78" x2="87.97" y2="181.27"/></g></g></g></svg>