<?xml version="1.0" encoding="UTF-8"?><svg id="Layer_2" xmlns="http://www.w3.org/2000/svg" viewBox="0 0 79.19 66.53"><defs><style>.cls-1{stroke:#707070;}.cls-1,.cls-2{fill:none;stroke-miterlimit:10;stroke-width:2.5px;}.cls-2{stroke:#c3343c;}</style></defs><g id="Layer_1-2"><g id="Group_3369"><path class="cls-1" d="M57.45,30.69c.13,1.33,.18,2.7,.13,4.13-.74,16.01-13.21,28.99-29.17,30.37-1.25,.11-11.17,.85-19.96-4.99-3.62-2.4-4.95-4.53-5.6-5.85-.68-1.4-2.77-6.34-.17-10.5,.93-1.43,2.23-2.57,3.77-3.3,1.61-1.06,2.9-2.54,3.74-4.27,.52-.96,.8-2.03,.83-3.11-.02-1.5-.53-2.94-1.45-4.11-.68-.86-1.1-.93-3.13-2.43-.93-.69-2.38-1.81-2.98-2.39-2.74-2.63-2.18-7.65-2.12-8.26C2.07,9.31,10.48,4.48,15.93,2.64c13.06-4.4,25.02,2.95,26.33,3.79,.5,.31,8.77,5.78,12.95,15.64"/><circle id="Ellipse_698" class="cls-1" cx="19.08" cy="15.11" r="5.23"/><circle id="Ellipse_699" class="cls-1" cx="38.7" cy="21.69" r="5.23"/><circle id="Ellipse_700" class="cls-1" cx="19.08" cy="53.1" r="5.23"/><path id="Path_7814" class="cls-2" d="M44.11,31.93s7.51-6.39,11.21-9.95,16.63-15.53,21.57-17.97-8.71,15.25-15.22,22.11-12.19,13.82-12.19,13.82"/><path id="Path_7815" class="cls-2" d="M42.6,32.04c-1.67-.07-3.31,.42-4.67,1.39-1.36,.96-2.45,2.25-3.18,3.75-1.84,3.21-.99,4.31-2.62,6.52-1.74,2.37-3.9,2.47-3.8,3.54,.13,1.47,4.16,2.18,5.41,2.4,2.98,.71,6.11,.41,8.9-.84,1.09-.55,2.1-1.25,2.99-2.08,1.05-.92,1.91-2.02,2.56-3.25,1.08-1.86,1.4-4.06,.9-6.15-.9-2.91-3.46-4.99-6.49-5.28Z"/></g></g></svg>