<svg xmlns="http://www.w3.org/2000/svg" width="567" height="400" viewBox="0 0 567 400">
  <g id="Group_5114" data-name="Group 5114" transform="translate(-763 -922)">
    <path id="Union_9" data-name="Union 9" d="M42.372,27.216H0V5.444H42.372V0L70.621,15.967,42.372,31.934Z" transform="translate(934.38 1079.959) rotate(-90)" fill="#bebebe" opacity="0.237"/>
    <g id="Group_2874" data-name="Group 2874" transform="translate(1195.485 1071.854)">
      <path id="Path_7820" data-name="Path 7820" d="M380.066,382.736v44.311a30.883,30.883,0,0,0,35.492,0V382.736" transform="translate(-379.157 -378.997)" fill="#fff" stroke="#1ed69f" stroke-miterlimit="10" stroke-width="1.5"/>
      <ellipse id="Ellipse_701" data-name="Ellipse 701" cx="17.894" cy="3.538" rx="17.894" ry="3.538" transform="translate(0.613)" fill="#fff" stroke="#1ed69f" stroke-miterlimit="10" stroke-width="1.5"/>
      <path id="Path_7821" data-name="Path 7821" d="M379.013,394.538a52.331,52.331,0,0,0,35.788,0" transform="translate(-379.013 -380.613)" fill="#fff" stroke="#1ed69f" stroke-miterlimit="10" stroke-width="1.5"/>
      <path id="Path_7822" data-name="Path 7822" d="M380.066,404.986a52.331,52.331,0,0,0,35.788,0" transform="translate(-379.157 -382.044)" fill="#fff" stroke="#1ed69f" stroke-miterlimit="10" stroke-width="1.5"/>
      <path id="Path_7823" data-name="Path 7823" d="M379.013,414.945a52.332,52.332,0,0,0,35.788,0" transform="translate(-379.013 -383.408)" fill="#fff" stroke="#1ed69f" stroke-miterlimit="10" stroke-width="1.5"/>
      <path id="Path_7824" data-name="Path 7824" d="M379.013,425.45a52.332,52.332,0,0,0,35.788,0" transform="translate(-379.013 -384.847)" fill="#fff" stroke="#1ed69f" stroke-miterlimit="10" stroke-width="1.5"/>
    </g>
    <rect id="Rectangle_3731" data-name="Rectangle 3731" width="202" height="231" rx="17" transform="translate(978 922)" fill="#fff2f2"/>
    <ellipse id="Ellipse_846" data-name="Ellipse 846" cx="283.5" cy="49" rx="283.5" ry="49" transform="translate(763 1224)" fill="#c3c3c3" opacity="0.232"/>
    <g id="Group_5089" data-name="Group 5089" transform="translate(996.653 953.949)">
      <g id="Group_5088" data-name="Group 5088" transform="translate(0 0)">
        <rect id="Rectangle_3722" data-name="Rectangle 3722" width="48.58" height="21.466" transform="translate(0.942 61.385)" fill="#ffd6d6"/>
        <rect id="Rectangle_3723" data-name="Rectangle 3723" width="48.58" height="21.466" transform="translate(55.924 61.385)" fill="#ffd6d6"/>
        <rect id="Rectangle_3724" data-name="Rectangle 3724" width="91.888" height="36.78" transform="translate(41.99 0)" fill="#ffd6d6"/>
        <rect id="Rectangle_3725" data-name="Rectangle 3725" width="48.58" height="21.466" transform="translate(112.789 61.385)" fill="#ffd6d6"/>
        <rect id="Rectangle_3726" data-name="Rectangle 3726" width="48.58" height="21.466" transform="translate(0 101.68)" fill="#ffd6d6"/>
        <rect id="Rectangle_3727" data-name="Rectangle 3727" width="48.58" height="21.466" transform="translate(54.982 101.68)" fill="#ffd6d6"/>
        <rect id="Rectangle_3728" data-name="Rectangle 3728" width="48.58" height="21.466" transform="translate(111.848 101.68)" fill="#ffd6d6"/>
        <path id="Path_8363" data-name="Path 8363" d="M1571.886,193.827q-.1,6.632-.2,13.261l-45.989-.22v9.711" transform="translate(-1500.466 -158.667)" fill="none" stroke="#ff8686" stroke-miterlimit="10" stroke-width="2"/>
        <path id="Path_8364" data-name="Path 8364" d="M1549.89,193.827q.1,6.632.2,13.261l45.989-.22v9.711" transform="translate(-1458.999 -158.667)" fill="none" stroke="#ff8686" stroke-miterlimit="10" stroke-width="2"/>
        <line id="Line_828" data-name="Line 828" y2="22.749" transform="translate(82.245 35.161)" fill="none" stroke="#dae8ff" stroke-miterlimit="10" stroke-width="1"/>
        <path id="Path_8365" data-name="Path 8365" d="M1571.538,211.4q-.1,6.628-.2,13.261l-45.986-.223v9.711" transform="translate(-1501.06 -128.548)" fill="none" stroke="#ff8686" stroke-miterlimit="10" stroke-width="2"/>
        <path id="Path_8366" data-name="Path 8366" d="M1549.543,211.4q.1,6.628.2,13.261l45.989-.223v9.711" transform="translate(-1459.594 -128.548)" fill="none" stroke="#ff8686" stroke-miterlimit="10" stroke-width="2"/>
        <line id="Line_829" data-name="Line 829" y2="25.633" transform="translate(79.788 37.618)" fill="#dae8ff" stroke="#ff8686" stroke-width="2"/>
        <line id="Line_830" data-name="Line 830" y2="25.633" transform="translate(79.788 83.06)" fill="#dae8ff" stroke="#ff8686" stroke-width="2"/>
        <rect id="Rectangle_3729" data-name="Rectangle 3729" width="165.46" height="13.661" transform="translate(0 134.7)" fill="#ffd6d6"/>
        <rect id="Rectangle_3730" data-name="Rectangle 3730" width="165.46" height="13.661" transform="translate(0 152.788)" fill="#ffd6d6"/>
      </g>
    </g>
    <g id="Group_3382" data-name="Group 3382" transform="translate(1088.714 1114.357)">
      <rect id="Rectangle_736" data-name="Rectangle 736" width="6.717" height="11.194" transform="translate(18.248 148.199)" fill="#fed6cf"/>
      <rect id="Rectangle_737" data-name="Rectangle 737" width="6.717" height="11.194" transform="translate(36.159 148.199)" fill="#fed6cf"/>
      <path id="Path_1182" data-name="Path 1182" d="M15.7,2.672c.824,1.515-.2,4-2.239,8.955C11.244,17,10,17.909,8.978,18.344a6.2,6.2,0,0,1-4.478,0C1.084,16.976-.19,12.55.023,9.388A10.1,10.1,0,0,1,6.739.432C9.865-.528,14.277.065,15.7,2.672Z" transform="translate(22.704 0)" fill="#3a3f40"/>
      <path id="Path_1183" data-name="Path 1183" d="M31.682.317c-4.846-.338-7.3-.5-8.956,0a15.561,15.561,0,0,0-6.717,4.477C10.871,10.018,5.534,15.44,2.576,24.944c-1.817,5.843-4.751,15.272,0,24.628a26.838,26.838,0,0,0,11.2,11.194v8.955H47.354a40.846,40.846,0,0,0,0-6.716,6.59,6.59,0,0,1,0-2.24c.629-2.711,3.735-4.092,4.478-4.477,5.457-2.828,6.647-15.78,6.716-20.15.3-18.256-16.605-30.433-17.911-31.345a3.1,3.1,0,0,0,0-2.239C40.068,1.322,38.432.789,31.682.317Z" transform="translate(0 20.266)" fill="#f8cc90"/>
      <path id="Path_1184" data-name="Path 1184" d="M0,0,2.239,62.689h8.956l4.478-47.017s2.239-4.478,2.239,0,4.478,47.017,4.478,47.017h6.716L31.344,0Z" transform="translate(13.77 87.749)" fill="#362477"/>
      <path id="Path_1185" data-name="Path 1185" d="M2.451,2.24h0A34.492,34.492,0,0,0,.213,8.955c-.253,1.153-.313,1.731,0,2.239.956,1.545,4.8,1.529,6.717,0,2.322-1.847,2.6-6.51,0-11.195" transform="translate(15.796 154.916)" fill="#0f2438"/>
      <path id="Path_1186" data-name="Path 1186" d="M6.735,2.24h0A33.062,33.062,0,0,1,9.118,8.955c.271,1.153.336,1.731,0,2.239-1.016,1.545-5.108,1.529-7.15,0C-.5,9.348-.8,4.685,1.967,0" transform="translate(35.769 154.916)" fill="#0f2438"/>
    </g>
    <g id="Group_3383" data-name="Group 3383" transform="translate(944.062 1108.867)">
      <path id="Path_761" data-name="Path 761" d="M588.1,1394.24c1.132,0,13.586-.809,13.586-.809l-15.365,9.866s-2.512.6-2.389-.877S588.1,1394.24,588.1,1394.24Z" transform="translate(-569.528 -1228.481)" fill="#fed6cf"/>
      <path id="Path_762" data-name="Path 762" d="M607.31,1404.1s18.268-5.319,21.282-2.587c0,0-8.182,9.334-20.528,9.478Z" transform="translate(-579.416 -1231.569)" fill="#fed6cf"/>
      <path id="Path_759" data-name="Path 759" d="M582.678,1267.306s.647,32.184,0,35.419-.647,16.82,0,25.553.287,21.672.287,21.672,9.9-4.205,10.064-6.146,1.456-33.155,1.456-33.155l2.2-36.234Z" transform="translate(-568.793 -1175.135)" fill="#362477"/>
      <path id="Path_760" data-name="Path 760" d="M605.176,1272.33l1.231,78.926s7.017.647,10.9-3.559l5.5-77.308Z" transform="translate(-578.514 -1176.439)" fill="#362477"/>
      <path id="Path_757" data-name="Path 757" d="M614.824,1119.636s4.669,2.914,1.608,16.9c0,0-1.244,1.742-5.645,1.168l-1.339,8.992-11.767-1.818a30.325,30.325,0,0,0,3.635-11.713c.67-6.846,11.576-14.309,11.576-14.309Z" transform="translate(-575.344 -1112.347)" fill="#fed6cf"/>
      <path id="Path_758" data-name="Path 758" d="M606.75,1163.977l-27.33-6.881-13.811,22.157,8.168,5.294,3.63-5.6s2.42,13.007-.907,20.116-1.815,22.99-1.815,22.99,24.654,14.369,33.276,0l-1.059-35.7,6.05,5.9,6.957-9.16s-9.226-16.552-10.134-17.158S606.75,1163.977,606.75,1163.977Z" transform="translate(-561.779 -1128.521)" fill="#f8cc90"/>
      <path id="Path_763" data-name="Path 763" d="M564.274,1194.763l-5.3,8.389,13.4,17.549,4.438-6.364-7.81-9.546,3.086-6.032Z" transform="translate(-558.971 -1144.453)" fill="#fed6cf"/>
      <path id="Path_764" data-name="Path 764" d="M649.2,1189.88l4.337,2.991,16-11.965,4.338-5.534s10.918-1.2,5.683,8.749l-7.029,2.421-13.461,11.745-7.478,4.9s-8.525-5.534-8.525-7.179S649.2,1189.88,649.2,1189.88Z" transform="translate(-594.54 -1136.232)" fill="#fed6cf"/>
      <path id="Path_756" data-name="Path 756" d="M610.655,1116.554c-.733,1.31.263,2.117.19,4.766a11.3,11.3,0,0,1-3.05,7.435c-2.035,2.013-5.731,3.771-8.579,2.669-5.5-2.129-7.173-14.677-1.912-20.215a11.386,11.386,0,0,1,4.962-2.854c4.246-1.424,9.449-.96,12.774,1.906.64.552,2.232,1.924,1.906,3.051C616.446,1115.044,612.01,1114.132,610.655,1116.554Z" transform="translate(-573.835 -1107.576)" fill="#3a3f40"/>
    </g>
    <g id="Group_3391" data-name="Group 3391" transform="translate(856.954 1152.914)">
      <path id="Path_5765" data-name="Path 5765" d="M1630.862,288.136s-5.183-2.93-4.394-10.253l4.394,2.592-4.476-6.084.645-2.7,3.831,1.916-3.718-5.07,2.93-5.521,3.831,6.084-3.759-7.324,3.759-4.056,2.132,4.942-1.4-5.543,6.812-5.676,2.939,6.144-5.209,4.074,5.744-2.6.6,4.742-6.211,2.4,6.477-.467-.467,3.206-7.146,2.271h6.478l-1.6,6.01h-5.81l5.143,1.6-2.4,3.339-5.076-1.469,3.272,3.139s-4.778,4.31-6.045,4.31" transform="translate(-1608.269 -251.437)" fill="#50ff94"/>
      <path id="Path_5766" data-name="Path 5766" d="M1586.346,300.765s-5.56,2.129-10.7-3.144l4.8-1.736-7.541-.425-1.674-2.22,3.917-1.733-6.277-.363-2.39-5.775,7.131.923-8.04-1.768-.732-5.481,5.168,1.5-5.166-2.45-.037-8.867,6.608,1.648-.178,6.61,1.651-6.086,4.038,2.557-2.1,6.319,3.766-5.291,2.174,2.4-2.8,6.954,4.126-4.994,3.612,5.064-3.7,4.479,4.511-2.943,1.042,3.98-4.365,2.977,4.5-.523s.279,6.428-.528,7.405" transform="translate(-1564.798 -263.995)" fill="#aaffcb"/>
      <path id="Path_5767" data-name="Path 5767" d="M1658.679,333.453s-3.044-3.738-.288-9.027l2.549,3.25-1.58-5.908,1.284-1.848,2.323,2.574-1.308-4.92,3.838-3.3,1.094,5.718-.674-6.631,4.031-1.949.15,4.355.578-4.593,6.81-2.271.4,5.5-5.129,1.535,5.1-.27-.946,3.752-5.392-.019,5.022,1.559-1.3,2.279-6.057-.4,4.884,1.911-2.981,4.059-4.381-1.714,3.4,2.725-2.8,1.809-3.393-2.605,1.541,3.332s-4.874,1.84-5.829,1.466" transform="translate(-1630.045 -292)" fill="#90f8b8"/>
      <path id="Path_5768" data-name="Path 5768" d="M1621.668,367.99a82.669,82.669,0,0,1,4.979,29.455" transform="translate(-1604.939 -333.705)" fill="none" stroke="#90f8b8" stroke-miterlimit="10" stroke-width="3"/>
      <path id="Path_5769" data-name="Path 5769" d="M1639.926,366.3c-.7,3.653-1.389,8.113-1.867,13.276-.52,5.623-.653,10.644-.623,14.777" transform="translate(-1616.066 -332.51)" fill="none" stroke="#90f8b8" stroke-miterlimit="10" stroke-width="3"/>
      <path id="Path_5770" data-name="Path 5770" d="M1651.225,389.708a46.873,46.873,0,0,0-3.98,10.252,42.5,42.5,0,0,0-1.326,11.412" transform="translate(-1622.05 -349.034)" fill="none" stroke="#90f8b8" stroke-miterlimit="10" stroke-width="3"/>
      <path id="Path_5771" data-name="Path 5771" d="M1613.278,497.956a26.661,26.661,0,0,1-4.177-15.515c.239-9.548,2.984-22.454,2.984-22.454l13.152-.7s3.436,12.135,3.795,19.434-2.864,18.4-2.864,18.4Z" transform="translate(-1596.063 -398.146)" fill="#e8e8e8"/>
      <ellipse id="Ellipse_19" data-name="Ellipse 19" cx="6.576" cy="1.3" rx="6.576" ry="1.3" transform="translate(16.037 60.151)" fill="#e8e8e8"/>
    </g>
  </g>
</svg>
