<svg xmlns="http://www.w3.org/2000/svg" width="639" height="345" viewBox="0 0 639 345">
  <g id="Group_5115" data-name="Group 5115" transform="translate(-647 -1909)">
    <g id="Group_3393" data-name="Group 3393" transform="translate(1003.43 1909.432)">
      <g id="Group_3392" data-name="Group 3392" transform="translate(0.259 0.002)">
        <rect id="Rectangle_3596" data-name="Rectangle 3596" width="60" height="16" transform="translate(0.313 -0.433)" fill="#d3d3d3"/>
        <rect id="Rectangle_3603" data-name="Rectangle 3603" width="60" height="16" transform="translate(65.313 -0.433)" fill="#d3d3d3"/>
        <rect id="Rectangle_3597" data-name="Rectangle 3597" width="60" height="16" transform="translate(0.313 18.567)" fill="#d3d3d3"/>
        <rect id="Rectangle_3602" data-name="Rectangle 3602" width="60" height="16" transform="translate(65.313 18.567)" fill="#d3d3d3"/>
        <rect id="Rectangle_3598" data-name="Rectangle 3598" width="60" height="13" transform="translate(0.313 37.567)" fill="#d3d3d3"/>
        <rect id="Rectangle_3601" data-name="Rectangle 3601" width="60" height="13" transform="translate(65.313 37.567)" fill="#d3d3d3"/>
        <rect id="Rectangle_3599" data-name="Rectangle 3599" width="60" height="16" transform="translate(0.313 53.567)" fill="#d3d3d3"/>
        <rect id="Rectangle_3600" data-name="Rectangle 3600" width="60" height="16" transform="translate(65.313 53.567)" fill="#d3d3d3"/>
        <circle id="Ellipse_809" data-name="Ellipse 809" cx="4" cy="4" r="4" transform="translate(37.313 5.567)" fill="#fff"/>
        <circle id="Ellipse_816" data-name="Ellipse 816" cx="4" cy="4" r="4" transform="translate(48.313 5.567)" fill="#fff"/>
        <circle id="Ellipse_820" data-name="Ellipse 820" cx="3.5" cy="3.5" r="3.5" transform="translate(102.312 4.567)" fill="#fff"/>
        <ellipse id="Ellipse_824" data-name="Ellipse 824" cx="3" cy="3.5" rx="3" ry="3.5" transform="translate(114.312 4.567)" fill="#fff"/>
        <circle id="Ellipse_810" data-name="Ellipse 810" cx="4" cy="4" r="4" transform="translate(37.313 23.567)" fill="#fff"/>
        <circle id="Ellipse_815" data-name="Ellipse 815" cx="4" cy="4" r="4" transform="translate(48.313 23.567)" fill="#fff"/>
        <ellipse id="Ellipse_819" data-name="Ellipse 819" cx="3.5" cy="3" rx="3.5" ry="3" transform="translate(102.312 23.567)" fill="#fff"/>
        <circle id="Ellipse_823" data-name="Ellipse 823" cx="3" cy="3" r="3" transform="translate(114.312 23.567)" fill="#fff"/>
        <circle id="Ellipse_811" data-name="Ellipse 811" cx="4" cy="4" r="4" transform="translate(37.313 39.567)" fill="#fff"/>
        <circle id="Ellipse_814" data-name="Ellipse 814" cx="4" cy="4" r="4" transform="translate(48.313 39.567)" fill="#fff"/>
        <ellipse id="Ellipse_818" data-name="Ellipse 818" cx="3.5" cy="3" rx="3.5" ry="3" transform="translate(102.312 39.567)" fill="#fff"/>
        <circle id="Ellipse_822" data-name="Ellipse 822" cx="3" cy="3" r="3" transform="translate(114.312 39.567)" fill="#fff"/>
        <circle id="Ellipse_812" data-name="Ellipse 812" cx="4" cy="4" r="4" transform="translate(37.313 58.567)" fill="#fff"/>
        <circle id="Ellipse_813" data-name="Ellipse 813" cx="4" cy="4" r="4" transform="translate(48.313 58.567)" fill="#fff"/>
        <ellipse id="Ellipse_817" data-name="Ellipse 817" cx="3.5" cy="3" rx="3.5" ry="3" transform="translate(102.312 58.567)" fill="#fff"/>
        <circle id="Ellipse_821" data-name="Ellipse 821" cx="3" cy="3" r="3" transform="translate(114.312 58.567)" fill="#fff"/>
      </g>
      <rect id="Rectangle_3596-2" data-name="Rectangle 3596" width="62" height="16" transform="translate(129.571 -0.432)" fill="#d3d3d3"/>
      <rect id="Rectangle_3597-2" data-name="Rectangle 3597" width="62" height="16" transform="translate(129.571 18.568)" fill="#d3d3d3"/>
      <rect id="Rectangle_3598-2" data-name="Rectangle 3598" width="62" height="13" transform="translate(129.571 37.568)" fill="#d3d3d3"/>
      <rect id="Rectangle_3599-2" data-name="Rectangle 3599" width="62" height="16" transform="translate(129.571 53.568)" fill="#d3d3d3"/>
      <circle id="Ellipse_809-2" data-name="Ellipse 809" cx="3" cy="3" r="3" transform="translate(163.571 4.568)" fill="#fff"/>
      <circle id="Ellipse_816-2" data-name="Ellipse 816" cx="4" cy="4" r="4" transform="translate(174.571 4.568)" fill="#fff"/>
      <circle id="Ellipse_810-2" data-name="Ellipse 810" cx="3" cy="3" r="3" transform="translate(163.571 23.568)" fill="#fff"/>
      <circle id="Ellipse_815-2" data-name="Ellipse 815" cx="4" cy="4" r="4" transform="translate(174.571 23.568)" fill="#fff"/>
      <circle id="Ellipse_811-2" data-name="Ellipse 811" cx="3" cy="3" r="3" transform="translate(163.571 39.568)" fill="#fff"/>
      <circle id="Ellipse_814-2" data-name="Ellipse 814" cx="4" cy="4" r="4" transform="translate(174.571 39.568)" fill="#fff"/>
      <circle id="Ellipse_812-2" data-name="Ellipse 812" cx="3" cy="3" r="3" transform="translate(163.571 58.568)" fill="#fff"/>
      <circle id="Ellipse_813-2" data-name="Ellipse 813" cx="4" cy="4" r="4" transform="translate(174.571 58.568)" fill="#fff"/>
    </g>
    <path id="Union_12" data-name="Union 12" d="M17.479,47.906V40.682q-.764-.227-1.5-.519L10.944,45.2,2.7,36.96l4.378-4.377a18.048,18.048,0,0,1-1.594-3.45H0V17.48H5.489a18.03,18.03,0,0,1,1.129-2.624L2.707,10.945l8.24-8.24,4.13,4.131a17.986,17.986,0,0,1,2.4-.906V0H29.133V6.369a18.027,18.027,0,0,1,1.976.9l4.559-4.559,8.24,8.24-4.779,4.779a18.006,18.006,0,0,1,.7,1.755h6.783V29.132H39.829a18.032,18.032,0,0,1-.7,1.756l4.778,4.779-8.24,8.24-4.559-4.559a18.035,18.035,0,0,1-1.975.895v7.664Z" transform="translate(1171.473 1975.664) rotate(-60)" fill="#ffdfb4"/>
    <path id="Union_11" data-name="Union 11" d="M23.8,65.245V55.407q-1.04-.31-2.041-.707l-6.859,6.858L3.683,50.337l5.962-5.961a24.582,24.582,0,0,1-2.17-4.7H0V23.806H7.475a24.556,24.556,0,0,1,1.538-3.573L3.687,14.906,14.908,3.684l5.625,5.626A24.493,24.493,0,0,1,23.8,8.075V0h15.87V8.674a24.551,24.551,0,0,1,2.691,1.219l6.209-6.208L59.8,14.907l-6.508,6.508a24.525,24.525,0,0,1,.953,2.39H63.48V39.676H54.242a24.556,24.556,0,0,1-.954,2.392l6.507,6.508L48.573,59.8l-6.209-6.209a24.562,24.562,0,0,1-2.689,1.219V65.245Z" transform="translate(1127.667 1952.617)" fill="#f8cc90"/>
    <circle id="Ellipse_805" data-name="Ellipse 805" cx="14" cy="14" r="14" transform="translate(1146 1973)" fill="#fff"/>
    <ellipse id="Ellipse_808" data-name="Ellipse 808" cx="10.58" cy="10.58" rx="10.58" ry="10.58" transform="translate(1188.799 1973.172) rotate(-60)" fill="#fff"/>
    <rect id="Rectangle_1410" data-name="Rectangle 1410" width="207" height="19" transform="translate(963 2038)" fill="#6ebbcc"/>
    <path id="Path_8137" data-name="Path 8137" d="M16954.439-19130.25l9.275-12.35,57.887.109-4.092,12.158Z" transform="translate(-15921.178 21179.457)" fill="#e5e5e5"/>
    <path id="Path_8138" data-name="Path 8138" d="M0,0H59.01V42.921L0,43.263Z" transform="translate(1041.465 1994.479)" fill="#bebebe"/>
    <ellipse id="Ellipse_804" data-name="Ellipse 804" cx="319.5" cy="65" rx="319.5" ry="65" transform="translate(647 2124)" fill="#c3c3c3" opacity="0.216"/>
    <g id="Group_3391" data-name="Group 3391" transform="translate(722.495 1999.449)">
      <path id="Path_5765" data-name="Path 5765" d="M1635.376,325.146s-10.41-5.884-8.826-20.593l8.826,5.205-8.99-12.22,1.3-5.431,7.695,3.847-7.468-10.183,5.884-11.089,7.694,12.22-7.55-14.709,7.55-8.147,4.283,9.926-2.816-11.133,13.681-11.4,5.9,12.34-10.463,8.182,11.535-5.231,1.207,9.523-12.474,4.829,13.01-.939-.938,6.438-14.353,4.56h13.012l-3.22,12.071h-11.669l10.329,3.219-4.829,6.706-10.195-2.951,6.572,6.3s-9.6,8.657-12.141,8.657" transform="translate(-1589.999 -251.437)" fill="#50ff94"/>
      <path id="Path_5766" data-name="Path 5766" d="M1608.077,332.569s-11.166,4.276-21.5-6.315l9.634-3.488-15.146-.854-3.362-4.459,7.867-3.48-12.607-.73-4.8-11.6,14.321,1.853-16.148-3.55-1.471-11.009,10.38,3.02-10.376-4.92-.074-17.809,13.272,3.311-.357,13.277,3.315-12.224,8.11,5.135-4.224,12.692,7.563-10.628,4.365,4.825-5.627,13.968,8.288-10.03,7.255,10.171-7.433,9,9.06-5.911,2.094,7.994-8.767,5.978,9.045-1.051s.56,12.911-1.061,14.873" transform="translate(-1564.798 -258.717)" fill="#aaffcb"/>
      <path id="Path_5767" data-name="Path 5767" d="M1660.134,358.21s-6.113-7.507-.58-18.13l5.119,6.528-3.173-11.866,2.579-3.713,4.666,5.17-2.627-9.881,7.708-6.625,2.2,11.484-1.354-13.318,8.1-3.915.3,8.748,1.16-9.225,13.678-4.561.809,11.045-10.3,3.083,10.24-.542-1.9,7.536-10.829-.039,10.086,3.13-2.607,4.578-12.166-.8,9.809,3.838-5.988,8.152-8.8-3.442,6.838,5.474-5.619,3.632-6.815-5.232,3.1,6.692s-9.789,3.7-11.708,2.945" transform="translate(-1602.622 -274.952)" fill="#90f8b8"/>
      <path id="Path_5768" data-name="Path 5768" d="M1621.668,367.99a166.048,166.048,0,0,1,10,59.16" transform="translate(-1588.069 -299.129)" fill="none" stroke="#90f8b8" stroke-miterlimit="10" stroke-width="3"/>
      <path id="Path_5769" data-name="Path 5769" d="M1642.441,366.3c-1.4,7.337-2.79,16.295-3.749,26.664-1.044,11.293-1.312,21.379-1.25,29.68" transform="translate(-1594.519 -298.436)" fill="none" stroke="#90f8b8" stroke-miterlimit="10" stroke-width="3"/>
      <path id="Path_5770" data-name="Path 5770" d="M1656.585,389.708a94.11,94.11,0,0,0-7.993,20.592,85.327,85.327,0,0,0-2.664,22.92" transform="translate(-1597.988 -308.016)" fill="none" stroke="#90f8b8" stroke-miterlimit="10" stroke-width="3"/>
      <path id="Path_5771" data-name="Path 5771" d="M1617.5,536.952s-8.868-11.985-8.39-31.162,5.993-45.1,5.993-45.1l26.417-1.4s6.9,24.373,7.621,39.033-5.753,36.954-5.753,36.954Z" transform="translate(-1582.923 -336.486)" fill="#fff"/>
      <ellipse id="Ellipse_19" data-name="Ellipse 19" cx="13.208" cy="2.611" rx="13.208" ry="2.611" transform="translate(32.21 120.812)" fill="#e8e8e8"/>
    </g>
    <rect id="Rectangle_1410-2" data-name="Rectangle 1410" width="22" height="131" transform="translate(1133 2050)" fill="#6ebbcc"/>
    <path id="Path_1784" data-name="Path 1784" d="M4788.491,3621.585c-1.769.825-1.612,1.682-4.566,4.567-5.613,5.472-10.637,6.731-10.277,7.993.275.965,3.163.017,7.993,1.141,3.462.805,6.1,2.264,10.276,4.567,4.964,2.74,5.408,3.653,6.85,3.426,3.927-.62,8.151-8.493,5.707-14.843C4801.938,3621.853,4793.182,3619.394,4788.491,3621.585Z" transform="translate(-3830.77 -1648.832)" fill="#efc999"/>
    <path id="Path_1785" data-name="Path 1785" d="M4814.476,3599.461c2.757,2.923.053,5.764,3.7,13.868,1.3,2.88,3.006,5.558,1.85,7.4-.843,1.34-2.456,1.034-3.7,2.773-1.028,1.438-.756,2.813-.925,4.622a14.931,14.931,0,0,1-3.7,8.32c-3.468,3.618-10.123,3.007-13.867,1.851-7.5-2.321-13.391-9.949-13.868-18.49-.628-11.3,8.565-18.011,9.244-18.489C4799.931,3596.579,4810.39,3595.133,4814.476,3599.461Z" transform="translate(-3829.076 -1652.766)" fill="#efc999"/>
    <path id="Path_1787" data-name="Path 1787" d="M27.032,2.1C14.911,6.269,3.838,16.665.771,29.5c-1.248,5.221-.784,9.224,0,15.985,1.843,15.906,6.89,17.467,10.276,35.4a150.7,150.7,0,0,1,2.284,21.694c.189,4.954.128,9.222,0,12.56l31.97-4.567a78.98,78.98,0,0,1,3.426-35.4c4.18-12.419,11.7-28.394,15.984-27.4,1.016.233,1.328,1.3,3.426,7.993,4.672,14.912,5.79,18.142,7.992,21.694,2.941,4.745,5.357,8.733,9.134,9.134,6.473.7,20.983,5.7,20.983,5.7l17.969,6.9-.933-10.305S91.7,74.352,90.07,74.073c-2.62-.448,2.2-24.594-2.52-37.718-1.281-3.571-5.616-15.188-15.984-23.977C69.3,10.458,49.626-5.666,27.032,2.1Z" transform="translate(899.158 2001.377) rotate(-21)" fill="#f8cc90"/>
    <path id="Path_1788" data-name="Path 1788" d="M4781.489,3724.093c-.022-.493,11.463-1.669,58.231-4.567A105.336,105.336,0,0,1,4850,3794.884c-3.281-26.915-11.594-55.577-33.111-66.222C4800.885,3720.744,4781.52,3724.734,4781.489,3724.093Z" transform="translate(-3818.998 -1639.582)" fill="#0f2438"/>
    <path id="Path_1789" data-name="Path 1789" d="M4753.465,3726.378c-7.818,10.669,2.469,29.158,3.426,30.828l62.8-2.283,21.694,52.517,18.268-9.134-20.552-70.791a221.428,221.428,0,0,0-57.089-7.993C4762.29,3719.411,4756.551,3722.161,4753.465,3726.378Z" transform="translate(-3824.086 -1639.584)" fill="#0f2438"/>
    <path id="Path_1790" data-name="Path 1790" d="M4833.444,3788.172c-4.532.879-6.183,11.443-6.851,18.268,15.371,9.214,31.978,17.35,36.538,12.56,1.723-1.81,1.252-4.968,1.142-5.706-1.006-6.74-9.032-7.178-20.552-17.127C4837.51,3790.8,4836.062,3787.663,4833.444,3788.172Z" transform="translate(-3811.58 -1628.305)" fill="#f8cc90"/>
    <path id="Path_1791" data-name="Path 1791" d="M4836.75,3785.946c-3.756,2.684-.866,12.979,1.362,19.463,17.807,1.992,36.295,2.489,38.452-3.765.814-2.363-.932-5.039-1.334-5.666-3.716-5.713-11.2-2.774-25.812-7.033C4841.54,3786.648,4838.918,3784.4,4836.75,3785.946Z" transform="translate(-3810.208 -1628.744)" fill="#f8cc90"/>
    <path id="Path_8135" data-name="Path 8135" d="M619.215,1121.291c-2.315,3.038.4,3.212.289,7.233-.029,1.058-.3,7-4.629,11.283-3.088,3.054-8.7,5.722-13.019,4.05-8.351-3.23-10.885-22.272-2.9-30.675a17.285,17.285,0,0,1,7.53-4.332c6.444-2.161,5.281-1.292,13.019-1.292a173.785,173.785,0,0,1,17.931,1.292,30.6,30.6,0,0,1-7.624,8.075C625.255,1120.035,620.138,1120.078,619.215,1121.291Z" transform="translate(358.378 829.797)" fill="#3a3f40"/>
    <rect id="Rectangle_1373" data-name="Rectangle 1373" width="94.972" height="28.29" rx="5.897" transform="translate(909.073 2106.297)" fill="#f8765e"/>
    <path id="Rectangle_1374" data-name="Rectangle 1374" d="M8287.869,3679.266H8349.9a8.384,8.384,0,0,1,8.385,8.386h0a8.384,8.384,0,0,1-8.385,8.386h-62.035a8.386,8.386,0,0,1-8.387-8.386h0A8.386,8.386,0,0,1,8287.869,3679.266Z" transform="translate(-7380.515 -1547.307)" fill="#f8765e"/>
    <path id="Path_1733" data-name="Path 1733" d="M8311.967,3690.032v30.31l6.062,2.022V3735.5l-37.384,2.021-5.053,10.1h94.973l-5.051-9.094-39.4-2.021v-14.145l6.063-4.04-1.013-28.291" transform="translate(-7382.686 -1541.299)" fill="#f8765e"/>
    <path id="Path_1715" data-name="Path 1715" d="M8299.944,3719.984c-13.32-2.824-20.633-14.091-25.258-21.217-1.994-3.078-18.465-29.374-9.095-60.621,2.98-9.941,7.349-24.5,20.207-29.3,16.271-6.069,33.279,8.291,35.362,10.1,2.041,1.771,9.222,8.34,14.146,22.228,9.618,27.13,5.064,66.516-16.165,76.785C8310.712,3722.044,8301.967,3720.413,8299.944,3719.984Z" transform="translate(-7389.862 -1587.418)" fill="#d1614c"/>
    <path id="Path_1716" data-name="Path 1716" d="M8293.457,3719.984c-13.32-2.824-20.633-14.091-25.259-21.217-1.992-3.078-18.461-29.374-9.094-60.621,2.982-9.941,7.349-24.5,20.208-29.3,16.27-6.069,33.277,8.291,35.363,10.1,2.04,1.771,9.22,8.34,14.145,22.228,9.619,27.13,5.065,66.516-16.166,76.785C8304.224,3722.044,8295.479,3720.413,8293.457,3719.984Z" transform="translate(-7393.479 -1587.418)" fill="#f8765e"/>
    <path id="Path_8136" data-name="Path 8136" d="M16929.246-19137.664a23.767,23.767,0,0,0,7.324-6.77c3.387-4.711,1.555,4.719,1.555,4.719s13.074-7.758,14.918-4.719,4.047,7.328,2.156,8.9-21.812,6.785-21.812,6.785" transform="translate(-15882.99 21177.959)" fill="#efc999"/>
  </g>
</svg>
