<svg xmlns="http://www.w3.org/2000/svg" width="164" height="95.67" viewBox="0 0 164 95.67">
  <g id="Group_5307" data-name="Group 5307" transform="translate(7057 -16728.488)">
    <g id="Group_5301" data-name="Group 5301" transform="translate(5 -16.025)">
      <path id="Union_25" data-name="Union 25" d="M24.5,65.512V56.578a26.191,26.191,0,0,1-7.161-4.215L9.529,56.87,0,40.366l8.06-4.653a26.482,26.482,0,0,1,.369-9.189L.55,21.406,10.93,5.423l8.089,5.253A26.145,26.145,0,0,1,24.5,7.743V0H44.746V8.242a26.236,26.236,0,0,1,6.324,4.013L57.331,8.64l9.529,16.5-6.809,3.931a26.512,26.512,0,0,1-.271,7.947l7.826,5.083L57.227,58.089l-7.555-4.906a26.184,26.184,0,0,1-4.927,2.9v9.433Z" transform="translate(-7046.566 16744.514)" fill="#1bf5de"/>
      <circle id="Ellipse_1054" data-name="Ellipse 1054" cx="13" cy="13" r="13" transform="translate(-7026 16764.025)" fill="#fff"/>
    </g>
    <rect id="Rectangle_3961" data-name="Rectangle 3961" width="75" height="51" rx="3" transform="translate(-7057 16773)" fill="#3cc3b4"/>
    <rect id="Rectangle_3960" data-name="Rectangle 3960" width="66" height="42" rx="3" transform="translate(-7053 16778)" fill="#fff"/>
    <g id="Group_5295" data-name="Group 5295" transform="translate(9 67.5)">
      <g id="Group_5293" data-name="Group 5293" transform="translate(-7036.314 16726.035)">
        <path id="Union_24" data-name="Union 24" d="M5.985,16.5H2.97s.243-1.874-1.471-4.644A11.2,11.2,0,0,1,.01,5.861S.842-.194,6.429,0c5.587-.2,6.419,5.856,6.419,5.856a11.2,11.2,0,0,1-1.489,5.992C9.645,14.623,9.888,16.5,9.888,16.5Z" transform="translate(0 0)" fill="#fff" stroke="#3cc3b4" stroke-width="2"/>
        <g id="Rectangle_3969" data-name="Rectangle 3969" transform="translate(1.314 18.465)" fill="#fff" stroke="#41e5d3" stroke-width="2">
          <rect width="9" height="2" rx="1" stroke="none"/>
          <rect x="1" y="1" width="7" fill="none"/>
        </g>
      </g>
      <line id="Line_894" data-name="Line 894" x2="5.562" transform="translate(-7044.5 16731.596)" fill="none" stroke="#3cc3b4" stroke-width="1"/>
      <line id="Line_898" data-name="Line 898" x1="5.562" transform="translate(-7019.87 16731.596)" fill="none" stroke="#3cc3b4" stroke-width="1"/>
      <line id="Line_895" data-name="Line 895" x2="3.178" y2="3.973" transform="translate(-7039.733 16722.063)" fill="none" stroke="#3cc3b4" stroke-width="1"/>
      <line id="Line_897" data-name="Line 897" x1="3.178" y2="3.973" transform="translate(-7022.253 16722.063)" fill="none" stroke="#3cc3b4" stroke-width="1"/>
      <line id="Line_896" data-name="Line 896" y2="7.151" transform="translate(-7030.199 16716.5)" fill="none" stroke="#3cc3b4" stroke-width="1"/>
    </g>
    <rect id="Rectangle_3958" data-name="Rectangle 3958" width="103" height="70" rx="3" transform="translate(-6996 16746)" fill="#41e5d3"/>
    <rect id="Rectangle_3959" data-name="Rectangle 3959" width="95" height="56" rx="3" transform="translate(-6992 16753)" fill="#fff"/>
    <path id="Path_12602" data-name="Path 12602" d="M-7368.421,16510l-10.866,8.158h27.323L-7361,16510Z" transform="translate(418 306)" fill="#41e5d3"/>
    <rect id="Rectangle_3962" data-name="Rectangle 3962" width="49" height="22" transform="translate(-6954 16765)" fill="#efefef"/>
    <rect id="Rectangle_3963" data-name="Rectangle 3963" width="49" height="3" transform="translate(-6954 16790)" fill="#efefef"/>
    <rect id="Rectangle_3964" data-name="Rectangle 3964" width="49" height="3" transform="translate(-6954 16796)" fill="#efefef"/>
    <rect id="Rectangle_3965" data-name="Rectangle 3965" width="49" height="3" transform="translate(-6954 16802)" fill="#efefef"/>
  </g>
</svg>
