<svg xmlns="http://www.w3.org/2000/svg" width="132" height="85" viewBox="0 0 132 85">
  <g id="Group_5306" data-name="Group 5306" transform="translate(7433 -16737)">
    <rect id="Rectangle_3952" data-name="Rectangle 3952" width="47" height="82" rx="3" transform="translate(-7386 16737)" fill="#41e5d3"/>
    <path id="Path_12597" data-name="Path 12597" d="M-7370.247,16795.8v11.408a8.032,8.032,0,0,0,.292,2.387c.318.709,10.4,0,48.7.453" transform="translate(-51.29 -40.113)" fill="none" stroke="#41e5d3" stroke-width="3"/>
    <path id="Path_12598" data-name="Path 12598" d="M-7370.248,16806.2v-8.328a4.483,4.483,0,0,1,.287-1.746c.312-.52,10.231,0,47.894-.332" transform="translate(-50.63 -4.876)" fill="none" stroke="#41e5d3" stroke-width="3"/>
    <path id="Path_12599" data-name="Path 12599" d="M-7370.247,16806.2v-8.328a5.778,5.778,0,0,1,.219-1.746c.237-.52,7.8,0,36.5-.332" transform="translate(13.12 -44.944)" fill="none" stroke="#41e5d3" stroke-width="3"/>
    <path id="Path_12600" data-name="Path 12600" d="M-7331.771,16795.8v11.408a10.153,10.153,0,0,1-.23,2.387c-.248.709-8.168,0-38.246.453" transform="translate(13.297 -1.474)" fill="none" stroke="#41e5d3" stroke-width="3"/>
    <ellipse id="Ellipse_1042" data-name="Ellipse 1042" cx="12" cy="12.5" rx="12" ry="12.5" transform="translate(-7433 16737)" fill="#50b4a9"/>
    <ellipse id="Ellipse_1043" data-name="Ellipse 1043" cx="11.5" cy="12" rx="11.5" ry="12" transform="translate(-7431 16798)" fill="#50b4a9"/>
    <circle id="Ellipse_1044" data-name="Ellipse 1044" cx="12" cy="12" r="12" transform="translate(-7325 16782)" fill="#50b4a9"/>
    <ellipse id="Ellipse_1045" data-name="Ellipse 1045" cx="12" cy="12.5" rx="12" ry="12.5" transform="translate(-7325 16737)" fill="#50b4a9"/>
    <g id="Group_5288" data-name="Group 5288" transform="translate(-7427.374 16805.049)">
      <path id="Path_12575" data-name="Path 12575" d="M-7360.719,16848.1v-11h14.889v7.813h-11.824Z" transform="translate(7360.719 -16837.098)" fill="#fff"/>
      <line id="Line_880" data-name="Line 880" x2="7.994" transform="translate(4.287 3.203)" fill="none" stroke="#50b4a9" stroke-linecap="round" stroke-width="1"/>
      <line id="Line_881" data-name="Line 881" x2="7.994" transform="translate(4.287 5.868)" fill="none" stroke="#50b4a9" stroke-linecap="round" stroke-width="1"/>
    </g>
    <path id="gps" d="M-1.2,0A5.055,5.055,0,0,0-6.25,5.049c0,3.5,5.054,9.477,5.054,9.477S3.848,8.376,3.848,5.049A5.055,5.055,0,0,0-1.2,0ZM.322,6.527a2.148,2.148,0,0,1-1.523.63,2.148,2.148,0,0,1-1.523-.63,2.157,2.157,0,0,1,0-3.047A2.14,2.14,0,0,1-1.2,2.85a2.141,2.141,0,0,1,1.523.631A2.157,2.157,0,0,1,.322,6.527Zm0,0" transform="translate(-7420.044 16741.68)" fill="#fff"/>
    <g id="Group_5289" data-name="Group 5289" transform="translate(-7320.412 16786.313)">
      <path id="Path_12576" data-name="Path 12576" d="M0,6.259,3.9,0" transform="matrix(0.951, 0.309, -0.309, 0.951, 1.934, 7.637)" fill="#fff" stroke="#fff" stroke-linecap="round" stroke-width="1"/>
      <g id="Ellipse_1041" data-name="Ellipse 1041" transform="matrix(0.951, 0.309, -0.309, 0.951, 5.658, 0)" fill="none" stroke="#fff" stroke-linecap="round" stroke-width="1">
        <ellipse cx="4.663" cy="4.663" rx="4.663" ry="4.663" stroke="none"/>
        <ellipse cx="4.663" cy="4.663" rx="4.163" ry="4.163" fill="none"/>
      </g>
    </g>
    <path id="gear" d="M19.193,7.957l-1.2-.938a4.365,4.365,0,0,0,0-.985l1.2-.939a.588.588,0,0,0,.142-.75L18.088,2.187a.59.59,0,0,0-.722-.26L15.953,2.5A4.844,4.844,0,0,0,15.1,2L14.886.5a.578.578,0,0,0-.578-.5h-2.5a.576.576,0,0,0-.574.5L11.015,2a5.023,5.023,0,0,0-.848.494l-1.418-.57a.578.578,0,0,0-.716.255L6.783,4.343a.584.584,0,0,0,.142.753l1.2.938a4.324,4.324,0,0,0,0,.985l-1.2.938a.588.588,0,0,0-.142.75l1.248,2.158a.589.589,0,0,0,.722.26l1.414-.569a4.866,4.866,0,0,0,.85.494l.218,1.5a.577.577,0,0,0,.574.5h2.5a.577.577,0,0,0,.576-.5L15.1,11.05a5.033,5.033,0,0,0,.848-.494l1.419.571a.579.579,0,0,0,.716-.255L19.339,8.7A.587.587,0,0,0,19.193,7.957ZM13.058,9.246a2.719,2.719,0,1,1,2.719-2.719A2.719,2.719,0,0,1,13.058,9.246Z" transform="translate(-7326.689 16742.346)" fill="#fff"/>
    <rect id="Rectangle_3946" data-name="Rectangle 3946" width="38" height="66" rx="3" transform="translate(-7381 16745)" fill="#fff"/>
    <rect id="Rectangle_3947" data-name="Rectangle 3947" width="30" height="20" transform="translate(-7378 16750)" fill="#e3e3e3"/>
    <rect id="Rectangle_3948" data-name="Rectangle 3948" width="30" height="5" transform="translate(-7378 16801)" fill="#e3e3e3"/>
    <g id="Rectangle_3949" data-name="Rectangle 3949" transform="translate(-7376 16775)" fill="#fff" stroke="#e3e3e3" stroke-width="1">
      <rect width="28" height="2" stroke="none"/>
      <rect x="0.5" y="0.5" width="27" height="1" fill="none"/>
    </g>
    <g id="Rectangle_3950" data-name="Rectangle 3950" transform="translate(-7376 16780)" fill="#fff" stroke="#e3e3e3" stroke-width="1">
      <rect width="28" height="3" stroke="none"/>
      <rect x="0.5" y="0.5" width="27" height="2" fill="none"/>
    </g>
    <g id="Rectangle_3951" data-name="Rectangle 3951" transform="translate(-7376 16786)" fill="#fff" stroke="#e3e3e3" stroke-width="1">
      <rect width="28" height="3" stroke="none"/>
      <rect x="0.5" y="0.5" width="27" height="2" fill="none"/>
    </g>
  </g>
</svg>
