<svg xmlns="http://www.w3.org/2000/svg" width="217.163" height="17.915" viewBox="0 0 217.163 17.915">
  <path id="Union_1" data-name="Union 1" d="M2403.1-9565.273c-3.552-.645-4.35-3.492-2.835-6.406a6.2,6.2,0,0,1,3.443-2.779c.541-.227.83-.5.338-.957-2.609-2.381-1-6.08,2.566-7.1a8.235,8.235,0,0,1,4.525-.152c2.68.713,2.73,2.922,1.893,4.766a6.353,6.353,0,0,1-3.185,2.959c-.706.346-.814.682-.28,1.3a20.8,20.8,0,0,1,1.542,2.09c.421.633.806.568,1.138-.023a11.1,11.1,0,0,0,1.1-2.217,1.066,1.066,0,0,1,.44-.7,1.062,1.062,0,0,1,.806-.174c.608.016,1.209,0,2,0a10.833,10.833,0,0,1-2.665,4.922,1.311,1.311,0,0,0-.584,1.033,1.3,1.3,0,0,0,.491,1.078c.576.668,1.051,1.418,1.7,2.316-1.492,0-2.765.053-4.022-.045-.3-.021-.627-.52-.8-.877-.289-.578-.658-.535-1.083-.256a8.557,8.557,0,0,1-4.714,1.387,9.963,9.963,0,0,1-1.817-.168Zm2.325-7.547a7.989,7.989,0,0,0-1.7,1.227,2.443,2.443,0,0,0-.409,3.043,3.181,3.181,0,0,0,2.528,1.186c.887-.3,1.788-.568,2.648-.943a.819.819,0,0,0,.241-.771c-.8-1.186-1.663-2.342-2.55-3.467a.986.986,0,0,0-.642-.3.221.221,0,0,0-.118.02Zm.9-6.43c-.558.945.043,1.656.444,2.391a.816.816,0,0,0,.6.533.819.819,0,0,0,.77-.221,11.083,11.083,0,0,0,1.881-1.6,1.75,1.75,0,0,0,.261-1.529c-.261-.506-.923-.8-1.214-1.031a3.1,3.1,0,0,0-2.73,1.475Zm51.727,13.705c-2.933-.85-3.3-3.24-2.835-5.687.525-2.758,1.2-5.488,1.807-8.23.179-.842.328-1.689.493-2.539.027-.119.082-.34.137-.34,1.083-.07,2.172-.111,3.26-.168a3.881,3.881,0,0,1,.032,1.01c-.729,3.471-1.511,6.93-2.211,10.4a2.8,2.8,0,0,0,.985,2.766,3.29,3.29,0,0,0,3.185.535c2.609-.752,3.365-2.9,3.879-5.229.65-2.957,1.34-5.914,1.975-8.895.132-.609.443-.764,1.012-.736.826.039,1.651,0,2.528,0-.683,3.223-1.293,6.314-1.975,9.389a22.494,22.494,0,0,1-1.138,3.834,6.329,6.329,0,0,1-4.677,3.9,15.278,15.278,0,0,1-3.328.4,11.284,11.284,0,0,1-3.138-.408Zm50.15.377a6.885,6.885,0,0,1-4.5-1.646,5.164,5.164,0,0,1-1.686-3.357,11.745,11.745,0,0,1,3.665-10.186,8.571,8.571,0,0,1,4.5-2.229c.911-.15,1.821-.32,2.36-.414a9.21,9.21,0,0,1,5.046,1.281,6.174,6.174,0,0,1,2.445,6.291,12.063,12.063,0,0,1-3.475,7.412,10.194,10.194,0,0,1-7.387,2.887q-.487-.009-.965-.029Zm4.095-15.193a12.13,12.13,0,0,0-1.959.363,8.753,8.753,0,0,0-4.722,8.877,3.692,3.692,0,0,0,2.123,3.113,5.72,5.72,0,0,0,6.214-1.59,9.643,9.643,0,0,0,2.415-6.43,3.893,3.893,0,0,0-.919-3.008,3.9,3.9,0,0,0-2.842-1.348,1.1,1.1,0,0,1-.3.027Zm-161.837,15.207a35.694,35.694,0,0,1-3.781-.516c.323-.9.591-1.521.76-2.168.187-.727.568-.734,1.138-.471a5.944,5.944,0,0,0,4.669.342,2.877,2.877,0,0,0,2.012-1.893,1.517,1.517,0,0,0-.766-1.879,26.712,26.712,0,0,0-3.186-1.539c-2.982-1.139-2.6-4.469-1.5-6.34a7.049,7.049,0,0,1,6.142-3.3,25.584,25.584,0,0,1,3.995.357.938.938,0,0,1,.263.07,21.462,21.462,0,0,1-.409,2.424c-.032.133-.581.2-.881.18-1.226-.094-2.45-.334-3.676-.322a3.03,3.03,0,0,0-2.543,2.33,1.612,1.612,0,0,0,1.05,1.762,27.261,27.261,0,0,0,2.617,1.191c3.551,1.33,3.3,4.57,1.593,6.982a7.425,7.425,0,0,1-6.7,2.8c-.255,0-.519,0-.792,0ZM2472.2-9568.6c.479-2.215.989-4.42,1.483-6.637s1-4.475,1.477-6.723c.109-.516.355-.65.864-.641h2.5c1.138,0,2.255,0,3.381.033a11.263,11.263,0,0,1,2.621.441,2.732,2.732,0,0,1,1.963,2.857,4.776,4.776,0,0,1-2.643,4.176c-.456.246-.936.457-1.532.756q.823.334,1.608.744a2.935,2.935,0,0,1,1.2,3.43,5.974,5.974,0,0,1-5.915,4.584c-2.485.17-4.969.275-7.681.422.271-1.3.43-2.369.68-3.437Zm9.284-1.236a1.978,1.978,0,0,0,.214-1.969,1.979,1.979,0,0,0-1.6-1.168c-.876-.129-1.768-.133-2.66-.2-.658-.049-.9.34-1,.912-.18,1-.361,2.008-.58,3-.28,1.248-.3,1.242,1.017,1.271h.482a4.014,4.014,0,0,0,4.137-1.834Zm-2.769-10.145a.93.93,0,0,0-.663.535,19.065,19.065,0,0,0-.456,2.154c-.08.5-.115,1.01-.167,1.516.538.055,1.072.107,1.608.158l.039.1a21.955,21.955,0,0,0,2.287-.58,2.614,2.614,0,0,0,1.487-2.387,1.879,1.879,0,0,0-1.844-1.529c-.314-.029-.632-.041-.949-.041-.428.012-.883.035-1.338.082Zm-39.514,14.16a5.665,5.665,0,0,1-3.294-5.887,12,12,0,0,1,3.224-8.121,10.768,10.768,0,0,1,7.792-3.137,9.12,9.12,0,0,1,4.5,1.148,6.723,6.723,0,0,1,2.6,6.205,14.75,14.75,0,0,1-2.138,5.984,9.9,9.9,0,0,1-7.9,4.424c-.437.027-.869.047-1.3.047a8.084,8.084,0,0,1-3.483-.666Zm5.324-14.209a8.077,8.077,0,0,0-4.934,7.861,4.379,4.379,0,0,0,1,3.295c1.669,1.977,5.082,1.295,6.712-.125a8.632,8.632,0,0,0,2.8-4.922,8.258,8.258,0,0,0-.11-3.955,3.308,3.308,0,0,0-3.413-2.5,7.278,7.278,0,0,0-2.055.354Zm42.169,13.914c.482-2.111.978-4.217,1.433-6.34.455-2.174.869-4.361,1.335-6.533.2-.932.542-1.834.705-2.77.137-.764.569-.891,1.22-.881,2.117.039,4.236,0,6.352.105a6.858,6.858,0,0,1,2.309.584,3.682,3.682,0,0,1,1.258,4.887,5.652,5.652,0,0,1-3.813,2.988c1.741,2.727,1.511,5.811,2.478,8.713h-3.906c-.334-1.711-.7-3.412-.985-5.146-.3-1.82-1.422-2.582-3.167-2.008a.932.932,0,0,0-.487.6c-.455,2.021-.849,4.055-1.312,6.076a.938.938,0,0,1-.683.535,10.981,10.981,0,0,1-1.242.033h-.96c-.59.02-.636-.324-.522-.848Zm7.25-9.141a3.616,3.616,0,0,0,3.868-2.051,1.706,1.706,0,0,0,.066-1.531,1.711,1.711,0,0,0-1.188-.969c-.865-.16-1.768-.115-2.645-.213-.755-.084-.934.35-1.044.947-.141.82-.284,1.641-.5,2.439-.389,1.391-.417,1.385,1.067,1.365Zm-106.485,9.982q-1.348-.079-2.7-.023a.789.789,0,0,1-.611-.127.775.775,0,0,1-.318-.537c-.831-2.787-1.772-5.533-2.648-8.3a29.323,29.323,0,0,0-1.346-3.8,6.094,6.094,0,0,0-.456,1.035c-.814,3.684-1.619,7.365-2.387,11.057-.12.592-.382.715-.91.682-.76-.029-1.52,0-2.435,0,.2-1.086.343-2.047.558-3,.487-2.211,1.024-4.41,1.5-6.627.455-2.117.893-4.248,1.308-6.369.168-.867.417-1.521,1.531-1.336a5.977,5.977,0,0,0,1.92,0c1-.164,1.378.391,1.62,1.186q1.659,5.405,3.315,10.816c.054.178.257.307.393.455.148-.15.394-.277.432-.455.312-1.365.569-2.752.864-4.131.514-2.4,1.036-4.809,1.593-7.205.054-.248.354-.59.564-.607.854-.072,1.713-.029,2.8-.029-.291,1.363-.525,2.518-.772,3.66-.471,2.219-.951,4.428-1.429,6.646-.436,2.061-.857,4.131-1.319,6.186a.9.9,0,0,1-.935.838Zm-52.486,0c-.794-.041-1.592,0-2.555,0,.187-1.039.312-1.945.51-2.84.63-2.836,1.29-5.666,1.916-8.506.371-1.678.717-3.369,1.051-5.061.125-.668.4-.943,1.16-.91,1,.033,1.991.027,2.994.021,1.09,0,2.177,0,3.267.041a7.33,7.33,0,0,1,2.583.609c1.876.826,1.9,2.73,1.248,4.672a5.251,5.251,0,0,1-3.8,3.205,32.346,32.346,0,0,1,2.286,8.75c-1.11,0-2.222.016-3.337-.014a.646.646,0,0,1-.47-.352,43.516,43.516,0,0,1-.8-4.422c-.2-1.99-1.34-2.936-3.249-2.455a.693.693,0,0,0-.454.377c-.444,1.959-.9,3.918-1.254,5.893-.118.666-.312,1.006-.974,1.006Zm4.814-9.994a3.738,3.738,0,0,0,3.283-1.187c1.02-1.139,1.013-2.48-.114-3.125a5,5,0,0,0-3.64-.371c-.2.043-.382.455-.455.729-.214.836-.316,1.7-.558,2.525-.417,1.408-.417,1.441,1.083,1.43Zm89.5,9.99c-.822-.043-1.652,0-2.632,0,.207-1.109.373-2.1.58-3.084.366-1.752.739-3.5,1.138-5.234.346-1.521.728-3.037,1.089-4.551.07-.307.1-.627.152-.945.11-.7-.164-1.006-.9-.973-.515.016-1.036.016-1.549.016s-1.089,0-1.631.021c-.755.039-.875-.293-.749-.932.316-1.621.328-1.645,1.954-1.645l11.277.033c.28,0,.557.033.869.049a2.038,2.038,0,0,1,.043.348c-.361,2.146-.365,2.146-2.554,2.146h-2.309c-.568,0-.83.227-.957.834-.619,2.871-1.313,5.723-1.943,8.59-.323,1.467-.591,2.943-.826,4.428-.093.631-.336.938-.958.938Zm-115.435-.023c2.337-3.752,4.591-7.387,6.856-11.008q1.747-2.815,3.529-5.617c.143-.227.35-.588.548-.6,1.187-.078,2.375-.086,3.563-.066.132,0,.351.273.382.457.428,2.219.805,4.457,1.241,6.684.476,2.447,1.013,4.887,1.5,7.332.175.869.273,1.758.428,2.77h-3.77c-.17-1.029-.373-2-.475-2.977-.077-.682-.291-1.041-1.056-1.029q-1.365.023-2.73,0c-1.083,0-2.166,0-3.244.033a1.429,1.429,0,0,0-.99.553c-.646.908-1.153,1.932-1.8,2.846a1.637,1.637,0,0,1-1.056.594c-.371.029-.744.039-1.138.039-.552.014-1.143-.006-1.78-.006Zm12.157-6.713c.683.02.947-.207.849-.9-.214-1.49-.395-2.982-.612-4.463-.082-.543-.228-1.072-.355-1.607l-.257-.074-4.095,7.031h2.729c.6-.006,1.167-.006,1.736.018Zm-22.131,6.727c-.272,0-.546-.033-.875-.049.787-3.557,1.565-7.01,2.32-10.465.455-2.084.865-4.182,1.329-6.264a.756.756,0,0,1,.515-.5c.564-.053,1.137-.053,1.706-.049h.607c.569,0,.717.3.6.816-.619,2.705-1.247,5.412-1.849,8.123-.343,1.561-.612,3.139-.958,4.7-.164.74.077.992.814.979,1.592-.025,3.213,0,4.813,0,.347,0,.694.029,1.09.043a2.021,2.021,0,0,1,.016.316c-.557,2.346-.557,2.346-3,2.346-2.382.018-4.748.018-7.114.018Zm56.267-.059c.428-2.01.833-3.936,1.242-5.867q.714-3.372,1.438-6.752c.291-1.346.564-2.7.91-4.029a.966.966,0,0,1,.683-.6c3.243-.029,6.488,0,9.734,0,.054,0,.109.059.168.1-.093.564-.187,1.123-.28,1.686s-.454.756-1.027.744c-1.609-.033-3.217-.025-4.82-.023-1.347,0-1.625.293-1.807,1.643-.077.568-.273,1.113-.394,1.674-.159.729,0,1.156.892,1.121,1.383-.053,2.762-.014,4.147,0,.339,0,.683.047.962.064a.7.7,0,0,1,.088.2c-.058,2.326-.159,2.418-2.429,2.42-1.192,0-2.379.02-3.568,0-.584,0-.923.111-1.028.814-.152,1.033-.475,2.047-.7,3.068-.168.793.066,1.158.99,1.117,1.669-.078,3.342-.023,5,0,.246,0,.5.037.859.064-.182.891-.35,1.719-.525,2.572Z" transform="translate(-2303 9583.007)" fill="#fff"/>
</svg>
