<svg xmlns="http://www.w3.org/2000/svg" width="74.24" height="76.228" viewBox="0 0 74.24 76.228">
  <g id="Group_5613" data-name="Group 5613" transform="translate(0)">
    <g id="Group_5612" data-name="Group 5612" transform="translate(0)">
      <path id="Path_9389" data-name="Path 9389" d="M-1425.055-889.37a4.106,4.106,0,0,1,.532,1.544q.463,2.105.994,4.193c.2.777.3,1.579.557,2.342.1.287-.015.432-.322.506-1.589.377-3.189.7-4.782,1.055-.562.125-1.12.272-1.689.379-.27.052-.4-.013-.488-.3-.462-1.581-.723-3.2-1.069-4.811a.892.892,0,0,0-.358-.68.892.892,0,0,0-.754-.149c-.53.068-1.055.185-1.578.3a.594.594,0,0,0-.451.636,4.279,4.279,0,0,0,.22,1.16c.044.2.208.255.4.2.244-.07.489-.135.726-.224a1.353,1.353,0,0,1,1.247.027,1.353,1.353,0,0,1,.695,1.036,2.734,2.734,0,0,0,.261.753,2.185,2.185,0,0,1-.328,2.269,1.6,1.6,0,0,1-.861.316,9.792,9.792,0,0,1-2.528.456,1.246,1.246,0,0,1-1.219-1.021c-.381-1.588-.764-3.176-1.176-4.753a1.923,1.923,0,0,1,0-1.526,1.922,1.922,0,0,1,1.11-1.047,5.961,5.961,0,0,1,1.054-.3c1.131-.166,2.218-.541,3.347-.708a2.011,2.011,0,0,1,2.085.576,2.811,2.811,0,0,1,.374,1.2c.326,1.268.619,2.544.918,3.819a.34.34,0,0,0,.152.246.341.341,0,0,0,.286.041c.444-.077.889-.16,1.326-.268a.425.425,0,0,0,.3-.218.426.426,0,0,0,.014-.374c-.514-1.744-.763-3.552-1.268-5.3-.2-.684-.131-.708.516-.943a8.071,8.071,0,0,0,1.58-.42Zm-8.1,8.73c-.027-.218-.072-.445-.379-.429-.221.012-.384.128-.362.368s.118.475.423.474C-1433.226-880.227-1433.155-880.4-1433.155-880.64Z" transform="translate(1458.569 889.37)" fill="#fff"/>
      <path id="Path_9390" data-name="Path 9390" d="M-1280.657-50.214a3.3,3.3,0,0,1-.881-3.755,2.647,2.647,0,0,1,3.178-1.82,1.9,1.9,0,0,1,1.249,1.327,1.314,1.314,0,0,1-.668,1.229,1.09,1.09,0,0,1-1.439-.1,1.322,1.322,0,0,1-.373-1.392c.047-.17.3-.359.075-.522-.19-.133-.364.092-.525.185a2.774,2.774,0,0,0-1.263,2.133,2.773,2.773,0,0,0,.947,2.291c.2.157.422.281.633.421Zm1.473-4.074a.809.809,0,0,0,.786.784.91.91,0,0,0,.809-.837c-.011-.377-.57-.963-.91-.948s-.692.536-.692,1Z" transform="translate(1316.372 126.441)" fill="#fff"/>
      <path id="Path_9391" data-name="Path 9391" d="M-1222.176-33.255c-.01-1.035-.261-2.043-.322-3.072-.007-.126-.017-.254-.016-.38,0-.165.044-.333.239-.339s.2.168.211.308c.1.91.209,1.82.283,2.735.033.4.2.533.6.5.78-.075.79-.073.727-.871-.044-.562-.084-1.126-.136-1.688-.1-1.026.708-1.484,1.664-1.135a1.278,1.278,0,0,1,.845.991,10.037,10.037,0,0,1,.131,1.558,1.436,1.436,0,0,1-1.091,1.4Zm3.792-1.681c-.023-.25-.059-.557-.08-.866a1.178,1.178,0,0,0-.471-.861.825.825,0,0,0-.87-.149c-.311.126-.352.415-.33.708.053.7.112,1.4.169,2.1.024.3.19.411.484.381a1.2,1.2,0,0,0,.824-.429,1.2,1.2,0,0,0,.273-.888Z" transform="translate(1262.122 109.482)" fill="#fff"/>
      <path id="Path_9392" data-name="Path 9392" d="M-1256.6-13.431a.484.484,0,0,0-.007-.477,1.243,1.243,0,0,1,.022-1.04,1.244,1.244,0,0,1,.8-.66,1.3,1.3,0,0,1,1.05.174,1.3,1.3,0,0,1,.568.9c.116.442-.176.77-.4,1.1h-.763a2.225,2.225,0,0,0,.561-.563.69.69,0,0,0-.054-.858.762.762,0,0,0-.856-.3.7.7,0,0,0-.546.673,1.011,1.011,0,0,0,.556,1.053Z" transform="translate(1293.415 89.658)" fill="#fff"/>
      <path id="Path_9393" data-name="Path 9393" d="M-1384.039-546.774a7.773,7.773,0,0,1,.568-3.657,5.947,5.947,0,0,1,1.618-2.394,25.921,25.921,0,0,1,3.618-2.976,14.752,14.752,0,0,1,2.277-1.192,12,12,0,0,1,2.154-.714,9.515,9.515,0,0,1,5.936.265,8.934,8.934,0,0,1,3.516,2.643,8.179,8.179,0,0,1,1.581,6.3,16.736,16.736,0,0,1-.937,3.4,21.788,21.788,0,0,1-1.753,3.973,7.909,7.909,0,0,1-3.669,3.365,10.518,10.518,0,0,1-2.479.625,16.31,16.31,0,0,0-2.511.552,4.106,4.106,0,0,1-2,.138,7.964,7.964,0,0,1-4.837-3.022,15.009,15.009,0,0,1-2.5-4.045,5.233,5.233,0,0,1-.582-3.262Zm12.173-8.495a8.389,8.389,0,0,0-4.472,1.247,15.909,15.909,0,0,0-2.9,2.171,5.487,5.487,0,0,0-1.876,2.943,6.72,6.72,0,0,0,.237,4.422,10.55,10.55,0,0,0,3.723,4.652,3.938,3.938,0,0,0,3.361.523,7.4,7.4,0,0,1,1.4-.294,6.4,6.4,0,0,0,2.5-.72,7.2,7.2,0,0,0,3.185-3.913c.242-.6.471-1.2.672-1.82a7.451,7.451,0,0,0,.477-4.247,5.607,5.607,0,0,0-1.085-2.427,6.279,6.279,0,0,0-5.22-2.542Z" transform="translate(1410.039 586.118)" fill="#fff"/>
      <path id="Path_9394" data-name="Path 9394" d="M-966.3-716.6a1.757,1.757,0,0,1,1.672,1.084c.68,1.168,1.354,2.34,2.042,3.505a5.964,5.964,0,0,1,.519,1.2,1.608,1.608,0,0,1-.654,1.673c-.523.356-1.072.674-1.613,1q-1.191.724-2.388,1.439c-.318.19-.328.4-.126.7.173.255.287.549.441.818a.444.444,0,0,0,.72.2c1.628-.98,3.271-1.933,4.906-2.9a.367.367,0,0,1,.318-.079.367.367,0,0,1,.254.207c.318.5.632,1,.964,1.491a.385.385,0,0,1,.1.354.385.385,0,0,1-.243.277c-.977.559-1.96,1.112-2.939,1.667-1.138.647-2.273,1.3-3.412,1.944-.772.437-1.552.859-2.32,1.3-.3.173-.449.079-.6-.2-.25-.472-.521-.934-.809-1.388a.349.349,0,0,1-.086-.315.348.348,0,0,1,.213-.248c.326-.2.655-.384.979-.583.431-.266.479-.427.239-.861-.589-1.059-1.176-2.118-1.786-3.163-.158-.271-.147-.389.146-.551,1.083-.6,2.147-1.236,3.217-1.86.4-.234.8-.467,1.2-.708a.825.825,0,0,0,.442-.5.825.825,0,0,0-.068-.662,14.221,14.221,0,0,0-.781-1.4.666.666,0,0,0-.848-.29,2.372,2.372,0,0,0-.425.184c-.717.413-.708.455-.277,1.152.3.5.64,1.011.326,1.652a1.538,1.538,0,0,1-.553.624c-.531.347-1.064.693-1.618,1.011a1.287,1.287,0,0,1-1.02.165,1.288,1.288,0,0,1-.813-.638,21.723,21.723,0,0,1-1.49-2.65,1.328,1.328,0,0,1,.595-1.756c1.5-.86,3.008-1.712,4.484-2.618A1.96,1.96,0,0,1-966.3-716.6Zm-3.522,5.529c.221-.06.505-.107.518-.426a.382.382,0,0,0-.119-.309.382.382,0,0,0-.315-.1c-.253.02-.515.149-.526.449-.005.237.167.373.442.387Z" transform="translate(1033.38 731.236)" fill="#fff"/>
      <path id="Path_9395" data-name="Path 9395" d="M-1118.348-839.816a2.8,2.8,0,0,1-.639,1.548c-.639,1.077-1.314,2.135-1.974,3.2a3.973,3.973,0,0,1-.8,1.026,1.523,1.523,0,0,1-1.943.1c-.355-.229-.716-.45-1.075-.672-.125-.078-.268-.144-.371.016s-.013.279.107.366c.251.182.512.348.768.523a.321.321,0,0,1,.17.231.322.322,0,0,1-.081.275,8.349,8.349,0,0,0-.549.9.431.431,0,0,1-.326.281.43.43,0,0,1-.406-.141,2.438,2.438,0,0,0-.235-.181c-.4-.251-.553-.454-.959.116a1.379,1.379,0,0,1-.908.616,1.378,1.378,0,0,1-1.07-.241c-.888-.545-1.767-1.106-2.643-1.672a1.4,1.4,0,0,1-.682-.951,1.4,1.4,0,0,1,.278-1.137c.277-.4.555-.815.819-1.231.15-.237.28-.3.54-.113a11.2,11.2,0,0,0,1.333.809c.336.173.389.366.2.67-.132.216-.25.441-.373.662a.381.381,0,0,0-.062.344.383.383,0,0,0,.243.251c.251.134.5.248.694-.076.3-.506.607-1.011.919-1.517.139-.229.032-.359-.159-.482-.759-.487-1.509-.989-2.271-1.47-.264-.167-.333-.282-.134-.592.794-1.23,1.545-2.488,2.312-3.735.574-.935,1.143-1.875,1.719-2.807a.379.379,0,0,1,.267-.228.38.38,0,0,1,.34.088c.478.325.965.635,1.453.943.273.172.3.34.113.622-.679,1.036-1.329,2.091-1.993,3.135q-.5.784-1.005,1.56a.464.464,0,0,0-.095.4.464.464,0,0,0,.257.319c.234.167.4.151.556-.1q1.051-1.709,2.114-3.411a2.648,2.648,0,0,1,1.119-1.17,1.076,1.076,0,0,1,.973-.008,21.148,21.148,0,0,1,2.87,1.777,1.242,1.242,0,0,1,.589,1.156Zm-2.413-.068a.569.569,0,0,0-.443-.6.457.457,0,0,0-.352,0,.457.457,0,0,0-.25.249c-.722,1.154-1.439,2.311-2.172,3.457-.2.313-.038.471.2.607s.506.356.751-.033c.7-1.12,1.406-2.234,2.107-3.351a.973.973,0,0,0,.152-.325Z" transform="translate(1179.266 848.869)" fill="#fff"/>
      <path id="Path_9396" data-name="Path 9396" d="M-1683.395-664.788a4.045,4.045,0,0,1-1.226-.326c-.782-.384-1.558-.783-2.316-1.214a1.131,1.131,0,0,1-.624-1.12.654.654,0,0,0-.4-.675c-.643-.349-1.273-.721-1.916-1.07-.312-.17-.367-.336-.181-.672.88-1.59,1.729-3.2,2.59-4.8.386-.719.779-1.436,1.157-2.16a.405.405,0,0,1,.232-.231.4.4,0,0,1,.327.016,1.112,1.112,0,0,1,.756.571,1.111,1.111,0,0,1,.042.946c-.164.462-.4.9-.592,1.352-.172.427-.094.531.435.772a.463.463,0,0,0,.418.055.463.463,0,0,0,.29-.307c.385-.768.816-1.512,1.214-2.272a.415.415,0,0,1,.271-.278.415.415,0,0,1,.382.067q.538.293,1.08.577c.226.117.317.266.168.506s-.025.388.2.5c.791.4,1.575.816,2.371,1.2.315.153.382.338.228.637-.24.463-.485.923-.708,1.4-.125.272-.246.3-.516.158-.809-.448-1.645-.864-2.472-1.287-.132-.068-.308-.2-.416-.027-.122.2.084.3.22.389.386.23.791.43,1.177.659a1.705,1.705,0,0,1,1.02,1.157,1.705,1.705,0,0,1-.331,1.506c-.619,1.09-1.208,2.2-1.787,3.309A1.193,1.193,0,0,1-1683.395-664.788Zm-1.448-3.929a1.292,1.292,0,0,0,.031.167,2.618,2.618,0,0,0,1.182.722.348.348,0,0,0,.147-.073c.607-.481.536-1.1-.154-1.4-.166-.074-.324-.163-.485-.248-.108-.057-.235-.09-.3.02a2.421,2.421,0,0,0-.416.816Zm-2.189-2.436c-.278.046-.377.262-.473.457s.054.313.216.385c.191.086.387.164.585.232a.336.336,0,0,0,.417-.194c.079-.13.212-.274.076-.417a3.314,3.314,0,0,0-.825-.463Z" transform="translate(1690.169 695.049)" fill="#fff"/>
      <path id="Path_9397" data-name="Path 9397" d="M-1572.72-801.85a1.362,1.362,0,0,1-.587,1.237c-.411.271-.793.585-1.187.882a2.042,2.042,0,0,1-1.172.531.37.37,0,0,0-.379.333.953.953,0,0,1-.384.588,24.134,24.134,0,0,1-2.724,2.062,1,1,0,0,1-.785.211,1,1,0,0,1-.684-.44c-.68-.771-1.343-1.558-1.979-2.365a1.175,1.175,0,0,1-.068-1.392.584.584,0,0,0-.081-.76c-.482-.589-.946-1.192-1.423-1.784-.3-.375-.3-.506.068-.793q2.7-2.1,5.407-4.2c.263-.2.44-.226.67.045.743.871.722,1.255-.154,2.029-.064.056-.125.114-.192.166-.546.423-.547.428-.122.945.35.427.445.429.9.087a10.351,10.351,0,0,1,1.1-.774,1.3,1.3,0,0,1,1.738.334q.888,1.1,1.734,2.238a1.363,1.363,0,0,1,.3.818Zm-7.108,1.775c.03.426.4.629.616.929.183.253.418.238.663.061.581-.422.592-.495.125-1.041-.091-.107-.174-.221-.261-.332-.145-.185-.313-.371-.564-.239s-.539.272-.58.621Zm4.265-1.6a2.784,2.784,0,0,0-.862-1.065.405.405,0,0,0-.4.169.273.273,0,0,0,.018.382q.3.38.6.763c.093.12.2.209.358.117a.527.527,0,0,0,.3-.367Zm-5.144-.349a.608.608,0,0,0,.461-.3c.11-.2-.065-.3-.174-.425-.13-.147-.249-.3-.378-.451a.3.3,0,0,0-.187-.13.3.3,0,0,0-.224.042c-.146.1-.352.151-.379.362s.638.9.881.9Z" transform="translate(1593.352 814.797)" fill="#fff"/>
      <path id="Path_9398" data-name="Path 9398" d="M-1229.312-883.312c-.279-.088-.4.06-.49.3a6.392,6.392,0,0,0-.336,1.612c-.14,1.291-.549,2.533-.659,3.831-.061.717-.185.774-.9.667-.543-.081-1.063-.278-1.618-.31-.364-.021-.435-.273-.4-.607.079-.831.392-1.618.46-2.449.082-1,.384-1.962.536-2.951.071-.462-.058-.66-.506-.742-.948-.172-.961-.152-1.128.809-.3,1.733-.624,3.463-.934,5.195-.049.273-.178.384-.469.332-.666-.121-1.334-.226-2-.325-.259-.038-.387-.161-.337-.426a24.059,24.059,0,0,1,.462-2.62,6.914,6.914,0,0,0,.214-1.205c.16-1.315.56-2.59.679-3.911.035-.392.258-.458.586-.39,1.922.4,3.843.721,5.777,1.047.594.1,1.186.237,1.782.346.3.054.412.208.327.506-.062.216-.095.441-.15.659A.818.818,0,0,1-1229.312-883.312Z" transform="translate(1276.401 886.763)" fill="#fff"/>
      <path id="Path_9399" data-name="Path 9399" d="M-1504.233-354.907a2.835,2.835,0,0,1-.873-.148c-.722-.2-.884-.753-.335-1.273.521-.494,1.066-.967,1.632-1.41a45.015,45.015,0,0,0,3.641-2.73,17.18,17.18,0,0,1,2.508-2.2,4.43,4.43,0,0,1,1.491-.571c.607-.132,1.838,1.1,1.759,1.719a.5.5,0,0,1-.129.3c-.809.694-1.376,1.6-2.139,2.333a16.286,16.286,0,0,1-4.045,2.954,7.488,7.488,0,0,1-2.395.8A4.992,4.992,0,0,1-1504.233-354.907Z" transform="translate(1521.388 407.817)" fill="#fff"/>
      <path id="Path_9400" data-name="Path 9400" d="M-1395.69-296.509a2.485,2.485,0,0,1,.323-1.349,9.787,9.787,0,0,0,.542-1.545,41.962,41.962,0,0,1,1.658-4.236,4.505,4.505,0,0,1,1.1-1.672,1.158,1.158,0,0,1,.779-.429,1.158,1.158,0,0,1,.854.25,3.835,3.835,0,0,1,.91.809.269.269,0,0,1,.034.347,8.254,8.254,0,0,0-.832,2.675,3.19,3.19,0,0,1-.663,1.441,8.68,8.68,0,0,0-.828,1.266c-.744,1.373-1.512,2.73-2.362,4.045-.164.253-.31.347-.617.2C-1395.559-295.064-1395.69-295.284-1395.69-296.509Z" transform="translate(1420.635 355.178)" fill="#fff"/>
      <path id="Path_9401" data-name="Path 9401" d="M-1120.073-552.506a4.6,4.6,0,0,1,.506,0,.645.645,0,0,1,.473.214.646.646,0,0,1,.162.494,1.559,1.559,0,0,1-.426,1.075,12.252,12.252,0,0,1-3.007,2.233c-.8.41-1.553.91-2.334,1.36-.5.287-1.037.506-1.552.763-1,.5-2.225-.618-2.486-1.358-.093-.261.049-.453.219-.641a5.169,5.169,0,0,1,1.3-.859c1.223-.724,2.407-1.517,3.7-2.124.853-.4,1.735-.735,2.609-1.088A2.128,2.128,0,0,1-1120.073-552.506Z" transform="translate(1176.318 581.045)" fill="#fff"/>
      <path id="Path_9402" data-name="Path 9402" d="M-1285.6-280.9c0-.737.01-1.273,0-1.808a4.758,4.758,0,0,1,.577-2.143,1.569,1.569,0,0,1,.964-.778c.534-.181.816.012.986.607a24.747,24.747,0,0,1,.67,4.419c.125,1.239.041,2.478.09,3.715a.966.966,0,0,1-.07.37,2.462,2.462,0,0,1-1.956,1.112.918.918,0,0,1-.74-.825,25.065,25.065,0,0,1-.521-4.67Z" transform="translate(1319.874 336.82)" fill="#fff"/>
      <path id="Path_9403" data-name="Path 9403" d="M-1511.539-445.474a.822.822,0,0,1-.678.891,6.893,6.893,0,0,0-1.424.63c-1.026.5-2.079.935-3.125,1.377a22.755,22.755,0,0,1-4.266,1.46.458.458,0,0,1-.5-.142,2.9,2.9,0,0,0-.733-.749c-.2-.126-.064-.29.056-.423a6.558,6.558,0,0,1,1.547-1.167c1.084-.654,2.234-1.182,3.371-1.738.936-.457,1.871-.91,2.839-1.292a4.219,4.219,0,0,1,1.739-.271C-1511.823-446.86-1511.56-446.18-1511.539-445.474Z" transform="translate(1536.577 484.378)" fill="#fff"/>
      <path id="Path_9404" data-name="Path 9404" d="M-1178.234-644.7a2.187,2.187,0,0,1-.983-.126.714.714,0,0,1-.4-.391.714.714,0,0,1,0-.558c.2-.552.446-1.093.7-1.625.477-1,.956-2,1.469-2.986a7.982,7.982,0,0,1,1.036-1.783,3.76,3.76,0,0,1,2.283-1.251c.353-.049.557.13.533.479a6.492,6.492,0,0,1-.255,1.527,36.019,36.019,0,0,1-1.806,3.8c-.3.68-.67,1.33-.97,2.008A1.346,1.346,0,0,1-1178.234-644.7Z" transform="translate(1222.912 673.413)" fill="#fff"/>
      <path id="Path_9405" data-name="Path 9405" d="M-1469.641-535.337a12.513,12.513,0,0,1,3.992.634,4,4,0,0,1,1.795.988,1.989,1.989,0,0,1,.623,1.433c.011.524-.092.671-.589.827a1.645,1.645,0,0,1-.877-.011,28.266,28.266,0,0,1-3.416-.94,11.113,11.113,0,0,1-3.823-2.006c-.171-.155-.357-.3-.313-.56.052-.291.313-.34.547-.387A7.357,7.357,0,0,1-1469.641-535.337Z" transform="translate(1490.717 565.407)" fill="#fff"/>
      <path id="Path_9406" data-name="Path 9406" d="M-1260.64-653.327a17.138,17.138,0,0,1,.089-2.361,1.661,1.661,0,0,1,.693-1.3.632.632,0,0,1,.782-.005,2.846,2.846,0,0,1,1.277,2.05c.166,1.569.234,3.147.286,4.724.017.521-.187.719-.708.718a2.662,2.662,0,0,1-1.517-.268,1.507,1.507,0,0,1-.731-1.075A14.8,14.8,0,0,1-1260.64-653.327Z" transform="translate(1297.021 676.792)" fill="#fff"/>
      <path id="Path_9407" data-name="Path 9407" d="M-1385.452-613.755c.014.645-.008.674-.657.647a2.567,2.567,0,0,1-1.939-.9c-.655-.8-1.462-1.448-2.075-2.278a7,7,0,0,1-1.339-2.326,2.769,2.769,0,0,1-.078-.671c-.011-.795.532-1.028,1.174-.625a11.63,11.63,0,0,1,4.207,4.14A3.8,3.8,0,0,1-1385.452-613.755Z" transform="translate(1416.83 642.906)" fill="#fff"/>
      <path id="Path_9408" data-name="Path 9408" d="M-1202.3-286.66c.021.7-.285.945-.8.739a9.062,9.062,0,0,1-1.2-.607,2.938,2.938,0,0,1-1.207-1.375c-.629-1.416-1.383-2.768-1.914-4.225a1.223,1.223,0,0,1,.23-1.4,1.253,1.253,0,0,1,1.407.383,18.535,18.535,0,0,1,2.292,2.92,5.717,5.717,0,0,1,.881,2.264C-1202.554-287.47-1202.241-287.037-1202.3-286.66Z" transform="translate(1248.411 344.076)" fill="#fff"/>
      <path id="Path_9409" data-name="Path 9409" d="M-1147.55-349.02a1.492,1.492,0,0,1,.615-1.02,1.49,1.49,0,0,1,1.166-.244c1.315.506,2.683.852,4.009,1.322a4.077,4.077,0,0,1,2.641,2.262c.065.157.16.32.021.474a.383.383,0,0,1-.506.058,4.379,4.379,0,0,0-2.26-.421,9.789,9.789,0,0,1-3.641-.835c-.436-.2-.919-.254-1.349-.488A1.465,1.465,0,0,1-1147.55-349.02Z" transform="translate(1193.509 395.994)" fill="#fff"/>
      <path id="Path_9410" data-name="Path 9410" d="M-1109.409-430.271a41.577,41.577,0,0,1-5.663-.4c-.364-.057-.663-.145-.718-.57a.957.957,0,0,1,.521-1.093.97.97,0,0,1,.327-.086c1.517-.046,3.008-.588,4.539-.384a4.83,4.83,0,0,1,3.466,1.789.519.519,0,0,1,.125.582c-.1.2-.31.164-.491.165C-1107.912-430.271-1108.519-430.271-1109.409-430.271Z" transform="translate(1164.456 471.515)" fill="#fff"/>
      <path id="Path_9411" data-name="Path 9411" d="M-1110.693-64.221c.087,1.139-.643,1.792-1.655,2.237a2.232,2.232,0,0,1-.754.265.659.659,0,0,1-.691-.3.723.723,0,0,1,.036-.837,1.366,1.366,0,0,1,1.2-.506.515.515,0,0,1,.463.378c.1.267.274.262.445.062a2.123,2.123,0,0,0,.375-2.218c-.1-.273-.283-.567-.651-.475s-.411.421-.392.748a2.2,2.2,0,0,0,.209.6c.05.141.154.318-.049.4s-.3-.076-.38-.239a8.046,8.046,0,0,0-.345-.771c-.1-.18-.179-.453-.49-.357a.524.524,0,0,0-.386.575,2.347,2.347,0,0,1-.988,2.007,4.2,4.2,0,0,1-2.421.884,1.506,1.506,0,0,1-.91-.282.835.835,0,0,1-.4-.751.835.835,0,0,1,.466-.71c1.024-.528,2.074-1.011,3.114-1.509.643-.309.683-.512.2-1.021a1.494,1.494,0,0,0-.91-.495c-.137-.017-.291-.073-.385.077-.08.128.019.238.077.35a.992.992,0,0,1,.029.934.992.992,0,0,1-.76.544,1.17,1.17,0,0,1-1.113-.734,1.042,1.042,0,0,1,.556-1.168,2.163,2.163,0,0,1,1.763-.41,2.163,2.163,0,0,1,1.457,1.073c.1.159.2.344.43.2.2-.127.14-.3.052-.486-.217-.442-.433-.885-.635-1.333-.071-.155-.224-.359.017-.478s.309.122.387.276c.3.591.593,1.181.868,1.781.111.244.251.332.433.12.607-.708,1.416-.151,1.672.651a2.809,2.809,0,0,1,.074.917Zm-6.3,2.035a4.2,4.2,0,0,0,2.076-.917,1.68,1.68,0,0,0,.633-1.022c.033-.178.122-.377-.037-.517s-.353-.009-.506.064q-1.375.638-2.74,1.3c-.211.1-.474.219-.439.506.038.311.3.465.577.551a2.3,2.3,0,0,0,.432.039Zm.215-3.988a.566.566,0,0,0-.555.523.668.668,0,0,0,.574.576.513.513,0,0,0,.482-.541.506.506,0,0,0-.126-.389.506.506,0,0,0-.372-.169Zm3.729,3.989c.234-.064.506-.131.537-.46.014-.178-.123-.27-.3-.271-.287,0-.607.267-.585.487.024.193.146.254.348.245Z" transform="translate(1166.904 137.577)" fill="#fff"/>
      <path id="Path_9412" data-name="Path 9412" d="M-1647.927-260.6a2.757,2.757,0,0,1-2.6-1.942,2.778,2.778,0,0,1-.354-1.5,1.268,1.268,0,0,1,.217-.629.847.847,0,0,1,.813-.494.847.847,0,0,1,.759.574q.877,1.517,1.758,3.034c.233.4.355.4.718.128a1.807,1.807,0,0,0,.62-1.214.3.3,0,0,0-.117-.338c-.119-.069-.208.02-.3.087a.969.969,0,0,1-1.35-.163.98.98,0,0,1,.126-1.336.844.844,0,0,1,.659-.311.844.844,0,0,1,.656.317,2.178,2.178,0,0,1,.765,1.682,2.178,2.178,0,0,1-.8,1.665c-.054.047-.111.086-.167.129-.149.117-.3.244-.173.455s.309.114.476.019q.681-.385,1.366-.761c.147-.081.329-.2.446,0,.132.227-.073.31-.238.4-.588.333-1.168.678-1.758,1.011-.243.135-.238.272-.068.465a.954.954,0,0,1,.281.961.954.954,0,0,1-.733.682,2.444,2.444,0,0,1-3.209-1.027c-.178-.377-.491-.692-.477-1.151a.639.639,0,0,1,.456-.683.708.708,0,0,1,.829.258,1.922,1.922,0,0,1,.419.91.645.645,0,0,1-.318.607c-.239.164-.184.3.008.464a2.134,2.134,0,0,0,2.347.048.5.5,0,0,0,.215-.626.561.561,0,0,0-.667-.324,1.582,1.582,0,0,0-.676.336c-.137.106-.288.151-.4-.023-.1-.159.013-.273.135-.349.252-.155.519-.285.769-.443.207-.13.483-.236.38-.572-.1-.318-.346-.378-.639-.351C-1647.816-260.6-1647.877-260.605-1647.927-260.6Zm-2.528-3.161a1.957,1.957,0,0,0,.35,1.072c.4.809.884,1.564,1.93,1.629.143.009.292.029.387-.1s.006-.269-.064-.389c-.535-.927-1.069-1.856-1.611-2.78-.248-.424-.49-.434-.819-.063a.875.875,0,0,0-.174.631Zm3.517.616a.549.549,0,0,0,.527-.506.639.639,0,0,0-.573-.567.574.574,0,0,0-.531.554c-.028.3.214.524.568.518Zm-2.995,3.048c-.169.015-.237.133-.235.311,0,.269.3.669.495.649a.278.278,0,0,0,.2-.1.28.28,0,0,0,.062-.216c0-.294-.287-.652-.53-.644Z" transform="translate(1654.223 318.04)" fill="#fff"/>
      <path id="Path_9413" data-name="Path 9413" d="M-1424.532-74.336a1.106,1.106,0,0,1-1.026-.476.606.606,0,0,0-.677-.281,1.558,1.558,0,0,1-1.328-.552,1.558,1.558,0,0,1-.311-1.4,1.107,1.107,0,0,1,.965-.821.607.607,0,0,0,.69-.477.947.947,0,0,1,.082-.148c.378-.722.456-.744,1.2-.333.05.027.1.06.147.084.718.349.708.347.944-.413a1.168,1.168,0,0,1,1.036-.876,1.589,1.589,0,0,1,1.466.563,1.588,1.588,0,0,1,.266,1.548c-.572,1.363-1.135,2.73-1.7,4.1-.061.145-.128.319-.329.235s-.136-.262-.078-.4c.4-.988.809-1.978,1.242-2.957a7.385,7.385,0,0,0,.473-1.315.843.843,0,0,0-.353-1c-.7-.418-.952-.427-1.335-.079a.783.783,0,0,0-.28.656.783.783,0,0,0,.369.611c.136.1.388.16.246.4-.123.21-.316.108-.488.033-.1-.044-.215-.068-.318-.112-.495-.214-.831.012-.831.557,0,.235.184.29.341.383a1.323,1.323,0,0,1,.774,1.528,1.166,1.166,0,0,1-1.184.951Zm-1.89-1.214a1.2,1.2,0,0,0,1.065-.765.42.42,0,0,0,.031-.388.42.42,0,0,0-.3-.246c-.3-.111-.607-.215-.905-.347a.63.63,0,0,0-.577-.006.631.631,0,0,0-.34.466,1.13,1.13,0,0,0,.239.859,1.13,1.13,0,0,0,.788.418Zm2.661.018c0-.418-.422-.947-.76-.925-.543.034-.412.679-.762.91a.258.258,0,0,0-.037.347.923.923,0,0,0,.953.386.76.76,0,0,0,.605-.726Zm-.96-2.376c.009-.242-.373-.58-.639-.6-.241-.019-.541.351-.563.695-.016.243.393.565.744.539.394-.037.354-.413.455-.639Z" transform="translate(1450.142 148.591)" fill="#fff"/>
      <path id="Path_9414" data-name="Path 9414" d="M-1038.189-123.455a.843.843,0,0,1-.386.8.843.843,0,0,1-.887.01,3.235,3.235,0,0,1-1.363-1.564,1.991,1.991,0,0,1,.753-2.483,2.681,2.681,0,0,1,.854-.456.629.629,0,0,0,.4-.3c.458-.771,1.289-1.124,1.908-1.712a.2.2,0,0,1,.152-.068.2.2,0,0,1,.151.068.216.216,0,0,1,.082.169.216.216,0,0,1-.082.169c-.47.337-.218.638.025.948q.693.881,1.383,1.763c.053.067.1.134.15.2.1.153.25.33.041.479s-.315-.07-.422-.209c-.559-.725-1.124-1.447-1.675-2.179a.4.4,0,0,0-.3-.214.4.4,0,0,0-.347.122c-.022.017-.042.037-.065.055-.62.462-.62.533.033.905a3.43,3.43,0,0,1,1.468,1.795.867.867,0,0,1-.293.953.954.954,0,0,1-1.151.028,3.1,3.1,0,0,1-1.34-1.97c-.052-.388-.2-.47-.53-.288a1.575,1.575,0,0,0-.853,1.5.4.4,0,0,0,.16.373c.153.087.22-.074.3-.153a.664.664,0,0,1,.708-.141,1.416,1.416,0,0,1,1.123,1.4Zm1.4-1.548a1.949,1.949,0,0,0-.176-.443,3.126,3.126,0,0,0-1.093-1.142c-.157-.083-.3-.159-.471-.055a.378.378,0,0,0-.129.454,2.848,2.848,0,0,0,1.136,1.618c.322.245.726.012.726-.433Zm-3.091,1.083a.943.943,0,0,0,.816.927.447.447,0,0,0,.339-.151.447.447,0,0,0,.109-.355.971.971,0,0,0-.862-.9C-1039.787-124.392-1039.888-124.2-1039.878-123.92Z" transform="translate(1096.005 193.61)" fill="#fff"/>
      <path id="Path_9415" data-name="Path 9415" d="M-1591.52-199.6a3.3,3.3,0,0,1,3.146-3.258,2.518,2.518,0,0,1,2.439,1.315,1.65,1.65,0,0,1-.035,1.735,1.176,1.176,0,0,1-1.344.477,1.179,1.179,0,0,1-.965-1.042,1.288,1.288,0,0,1,.668-1.267c.168-.092.494-.066.441-.358s-.354-.231-.565-.272a2.749,2.749,0,0,0-2.433.655,2.75,2.75,0,0,0-.878,2.362,1.8,1.8,0,0,0,.074.329c.035.108.093.216.226.222s.2-.1.229-.211a1.048,1.048,0,0,1,.429-.56,1.149,1.149,0,0,1,1.549.079,1.2,1.2,0,0,1,.33,1.455,1.315,1.315,0,0,1-1.416.769A2.3,2.3,0,0,1-1591.52-199.6Zm5.336-1.03c-.007-.485-.252-.772-.654-.764a.977.977,0,0,0-.981.869.76.76,0,0,0,.244.566.76.76,0,0,0,.584.2.757.757,0,0,0,.615-.238.756.756,0,0,0,.195-.63Zm-3.267,2.975c.564,0,.87-.284.862-.8a.775.775,0,0,0-.219-.553.774.774,0,0,0-.546-.234,1.089,1.089,0,0,0-.91.957c-.011.4.282.631.818.632Z" transform="translate(1599.874 261.012)" fill="#fff"/>
      <path id="Path_9416" data-name="Path 9416" d="M-937-201.608c-.084-.461.251-.786.477-1.152a9.213,9.213,0,0,0,.6-.917,1.657,1.657,0,0,0-.708-2.118.708.708,0,0,0-.6-.008.708.708,0,0,0-.39.462c-.032.19.1.273.225.367a1.532,1.532,0,0,1,.736,1.173,1.507,1.507,0,0,1-.781,1.485,1.429,1.429,0,0,1-1.669-.124.844.844,0,0,1-.361-1,.484.484,0,0,0,.044-.387.483.483,0,0,0-.255-.294c-.083-.051-.149-.132-.232-.184-.714-.444-.644-.456-.179-1.13.321-.463.66-.91,1-1.366a1.781,1.781,0,0,1,.254-.28.184.184,0,0,1,.134-.058.184.184,0,0,1,.134.058.185.185,0,0,1,.03.233,1.18,1.18,0,0,1-.131.217c-.2.247-.3.478.009.725.459.369.547.4.869.006.708-.861,1.5-.436,2.092.34a2.009,2.009,0,0,1-.15,2.645,5.451,5.451,0,0,0-.569.786.884.884,0,0,0,.062,1.1c.111.125.188.281.041.411s-.278-.019-.4-.113a.954.954,0,0,1-.28-.875Zm-1.161-1a1.039,1.039,0,0,0,1.037-.77,1.171,1.171,0,0,0-.676-1.323c-.455-.2-.461.328-.677.515a1.453,1.453,0,0,0-.329.436c-.12.238-.354.456-.156.773a.865.865,0,0,0,.8.369Zm-1.011-3.019c-.234-.012-.614.4-.614.66,0,.2.427.607.671.633.193.022.576-.413.6-.677.013-.228-.382-.6-.654-.617Z" transform="translate(1003.946 264.922)" fill="#fff"/>
      <path id="Path_9417" data-name="Path 9417" d="M-980-158.979a1.618,1.618,0,0,1,.528-1.143c.244-.273.518-.52.768-.788a1.706,1.706,0,0,0-.034-2.206.715.715,0,0,0-.517-.3.716.716,0,0,0-.564.2.884.884,0,0,0-.1,1.184c.193.223.414.423.621.633.149.151.277.332.077.506s-.3-.06-.4-.167c-.661-.653-1.325-1.306-1.971-1.974-.246-.254-.434-.251-.665.006-.629.7-.76.506-.014,1.255q.866.868,1.732,1.733c.11.109.266.215.109.383s-.316.088-.446-.041c-.795-.8-1.585-1.6-2.377-2.4a.332.332,0,0,1-.147-.269.333.333,0,0,1,.135-.275c.741-.735,1.476-1.476,2.216-2.215.1-.1.226-.213.363-.08s.061.286-.056.4c-.158.162-.316.324-.481.476a.449.449,0,0,0-.193.363.449.449,0,0,0,.184.368l.089.091c.491.506.491.506.844-.066a1.117,1.117,0,0,1,.912-.607,1.118,1.118,0,0,1,.992.464,2.012,2.012,0,0,1,.591,1.472,2.011,2.011,0,0,1-.659,1.443,7.288,7.288,0,0,0-.886.966.844.844,0,0,0-.026,1.056c.091.124.159.253.006.367s-.256.012-.363-.1a.923.923,0,0,1-.261-.738Z" transform="translate(1043.268 226.345)" fill="#fff"/>
      <path id="Path_9418" data-name="Path 9418" d="M-1482.847-92.742a.62.62,0,0,0,.759-.391c.456-.865.456-.857,1.315-.347.506.3,1.032.578,1.548.869a1.7,1.7,0,0,1,.245.165c.117.1.2.216.089.363s-.237.124-.369.023a2.709,2.709,0,0,0-.279-.189c-.478-.275-.8-.149-.953.38-.089.3.145.424.341.56a1.244,1.244,0,0,1,.619.939,1.243,1.243,0,0,1-.392,1.055,1.315,1.315,0,0,1-1.068.314,1.315,1.315,0,0,1-.926-.618.487.487,0,0,0-.512-.317,1.6,1.6,0,0,1-1.48-.96,1.383,1.383,0,0,1,.21-1.509A.926.926,0,0,1-1482.847-92.742Zm.349,2.273a1.051,1.051,0,0,0,.977-.544c.192-.32.146-.544-.2-.708a5.8,5.8,0,0,1-.767-.435.645.645,0,0,0-.641-.095.645.645,0,0,0-.4.511,1.041,1.041,0,0,0,.209.889,1.041,1.041,0,0,0,.83.382Zm1.618,1.011a.8.8,0,0,0,.84-.472.769.769,0,0,0-.282-.934c-.458-.365-.506-.362-.824.129a2.207,2.207,0,0,1-.322.387.369.369,0,0,0-.148.289.368.368,0,0,0,.139.294.755.755,0,0,0,.6.305Zm.262-3.228c-.007-.179-.512-.571-.724-.563-.17.006-.561.522-.555.731.005.19.54.568.779.551.163-.013.517-.519.506-.721Z" transform="translate(1501.498 161.21)" fill="#fff"/>
      <path id="Path_9419" data-name="Path 9419" d="M-910.882-256.615a3.287,3.287,0,0,1,2.358,1.365,1.2,1.2,0,0,1,0,1.245c-.4.743-.781,1.5-1.155,2.254-.148.3-.28.328-.586.159-.887-.488-1.8-.924-2.706-1.379a2.253,2.253,0,0,1-.23-.106c-.135-.089-.265-.2-.176-.38.1-.2.257-.106.4-.033q1.183.607,2.37,1.214c.208.1.463.288.656.058a1.417,1.417,0,0,0,.393-.953c-.005-.133-.137-.2-.253-.265-.573-.3-1.144-.6-1.719-.893-.685-.347-.876-.662-.751-1.28a1.394,1.394,0,0,1,1.271-1C-910.967-256.617-910.924-256.615-910.882-256.615Zm.033.437a1.1,1.1,0,0,0-.815.33.6.6,0,0,0-.214.509.6.6,0,0,0,.3.466c.663.366,1.343.708,2.016,1.051a.344.344,0,0,0,.43-.028,1,1,0,0,0,.19-1.164A2.859,2.859,0,0,0-910.849-256.178Z" transform="translate(979.196 310.208)" fill="#fff"/>
      <path id="Path_9420" data-name="Path 9420" d="M-1342.07-38.809a4.349,4.349,0,0,1-1.433-.224,1.694,1.694,0,0,0-1.144-.128c-.505.141-1.081-.541-.975-1.119.162-.877.2-1.766.335-2.642.025-.159.057-.334.268-.3.184.026.185.193.163.336-.13.822-.09,1.663-.273,2.481a.664.664,0,0,0,.04.515.664.664,0,0,0,.4.33.829.829,0,0,0,.849-.5,3.615,3.615,0,0,0,.169-1,12.4,12.4,0,0,1,.2-1.681c.041-.178.1-.4.338-.344.216.053.166.273.135.434-.164.875-.224,1.763-.346,2.642-.059.434.122.607.533.685,1.2.219,1.172.226,1.4-.951.13-.682.209-1.365.281-2.053.017-.163.013-.4.237-.382.26.017.193.26.194.437,0,1.079-.3,2.124-.381,3.19a.318.318,0,0,1-.107.246.319.319,0,0,1-.258.076C-1341.635-38.763-1341.818-38.788-1342.07-38.809Z" transform="translate(1374.814 114.895)" fill="#fff"/>
      <path id="Path_9421" data-name="Path 9421" d="M-1003.286-858.892a3.268,3.268,0,0,1,1.736,1.005c.327.367.185.74-.018,1.128a.991.991,0,0,1-1.005.624,3,3,0,0,1-1.757-.924.68.68,0,0,1-.082-.958,4.164,4.164,0,0,0,.218-.4.921.921,0,0,1,.907-.47Z" transform="translate(1062.643 861.474)" fill="#fff"/>
      <path id="Path_9422" data-name="Path 9422" d="M-1559.539-147.251h-.7c-.15,0-.294-.04-.3-.227s.131-.237.286-.24c.3-.005.593-.01.889,0a.863.863,0,0,0,.682-.274q.92-.934,1.856-1.855a.4.4,0,0,0,.183-.339.4.4,0,0,0-.183-.339c-.653-.626-.648-.631-1.3.024-.528.529-1.052,1.062-1.586,1.586-.131.128-.285.366-.489.176s.029-.351.159-.482c.734-.742,1.484-1.469,2.207-2.225.253-.264.441-.286.7-.022.559.577,1.137,1.137,1.7,1.709.123.125.31.28.136.466-.2.212-.317-.022-.439-.141-.412-.4-.461-.394-.875.022-.518.52-1.058,1.019-1.548,1.562a1.366,1.366,0,0,1-1.38.6Z" transform="translate(1571.509 214.139)" fill="#fff"/>
      <path id="Path_9423" data-name="Path 9423" d="M-1519.372-119.52c-.117-.335-.456-.506-.761-.686-.247-.147-.373.071-.506.246-.545.736-1.1,1.469-1.646,2.2-.1.138-.218.31-.4.161-.171-.138-.071-.3.037-.448.67-.89,1.343-1.778,2.008-2.671.148-.2.29-.238.495-.083.685.52,1.376,1.031,2.062,1.551.132.1.319.224.17.4s-.327.043-.471-.075c-.431-.353-.488-.344-.822.107q-.794,1.07-1.592,2.138c-.1.142-.23.3-.414.161-.167-.123-.052-.293.036-.414.526-.716,1.06-1.425,1.594-2.135a.873.873,0,0,0,.215-.461Z" transform="translate(1536.961 185.98)" fill="#fff"/>
      <path id="Path_9424" data-name="Path 9424" d="M-987.213-169.139c.028-.294.17-.453.462-.437a.4.4,0,0,1,.325.123.4.4,0,0,1,.109.33.452.452,0,0,1-.124.348.452.452,0,0,1-.341.14C-987.107-168.639-987.176-168.892-987.213-169.139Z" transform="translate(1046.752 230.541)" fill="#fff"/>
      <path id="Path_9425" data-name="Path 9425" d="M-924.515-254.352a.424.424,0,0,1-.454-.5.4.4,0,0,1,.135-.319.4.4,0,0,1,.333-.1.413.413,0,0,1,.318.141.413.413,0,0,1,.1.334.4.4,0,0,1-.111.32.4.4,0,0,1-.318.118Z" transform="translate(989.781 308.973)" fill="#fff"/>
      <path id="Path_9426" data-name="Path 9426" d="M-1435.745-108.531c-.289-.032-.48-.158-.491-.441a.443.443,0,0,1,.106-.333.443.443,0,0,1,.315-.152.454.454,0,0,1,.349.119.454.454,0,0,1,.145.34C-1435.31-108.707-1435.522-108.6-1435.745-108.531Z" transform="translate(1457.747 175.515)" fill="#fff"/>
    </g>
  </g>
</svg>
