<svg xmlns="http://www.w3.org/2000/svg" width="78.942" height="66.599" viewBox="0 0 78.942 66.599">
  <g id="Group_3369" data-name="Group 3369" transform="translate(-97.726 1.265)">
    <path id="Path_7813" data-name="Path 7813" d="M238.349,286.709A6.759,6.759,0,0,0,236.9,282.6c-.68-.857-1.092-.924-3.123-2.427-.93-.688-2.384-1.814-2.986-2.391-2.737-2.625-2.181-7.653-2.115-8.261.727-6.669,9.139-11.5,14.591-13.335,13.057-4.407,25.014,2.95,26.328,3.786.676.431,15.981,10.552,15.315,28.393a31.954,31.954,0,0,1-29.167,30.372c-1.245.11-11.174.847-19.962-4.991-3.621-2.406-4.949-4.533-5.593-5.85-.685-1.4-2.773-6.347-.172-10.5a9.13,9.13,0,0,1,3.766-3.3,10.723,10.723,0,0,0,3.746-4.276A7,7,0,0,0,238.349,286.709Z" transform="translate(-129.591 -254.791)" fill="none" stroke="#707070" stroke-miterlimit="10" stroke-width="2.5"/>
    <circle id="Ellipse_698" data-name="Ellipse 698" cx="5.232" cy="5.232" r="5.232" transform="translate(111.593 8.626)" fill="none" stroke="#707070" stroke-miterlimit="10" stroke-width="2.5"/>
    <circle id="Ellipse_699" data-name="Ellipse 699" cx="5.232" cy="5.232" r="5.232" transform="translate(131.212 15.209)" fill="none" stroke="#707070" stroke-miterlimit="10" stroke-width="2.5"/>
    <circle id="Ellipse_700" data-name="Ellipse 700" cx="5.232" cy="5.232" r="5.232" transform="translate(111.593 46.621)" fill="none" stroke="#707070" stroke-miterlimit="10" stroke-width="2.5"/>
    <path id="Path_7814" data-name="Path 7814" d="M271.3,285.384l9.951-9.8S298.561,259.942,303.5,257.5s-14.931,22.284-14.931,22.284l-11.824,12.453-6.462-6.034Z" transform="translate(-128.872 -254.747)" fill="#fff" stroke="#c3343c" stroke-miterlimit="10" stroke-width="2.5"/>
    <path id="Path_7815" data-name="Path 7815" d="M269.482,285.06a7.549,7.549,0,0,0-4.672,1.386,9.925,9.925,0,0,0-3.182,3.748c-1.836,3.214-.993,4.307-2.618,6.52-1.742,2.371-3.9,2.466-3.8,3.542.134,1.468,4.159,2.183,5.409,2.4a13.9,13.9,0,0,0,8.9-.837,13.017,13.017,0,0,0,2.991-2.081,11.3,11.3,0,0,0,2.559-3.252,8.335,8.335,0,0,0,.9-6.149A7.544,7.544,0,0,0,269.482,285.06Z" transform="translate(-129.132 -254.27)" fill="#fff" stroke="#c3343c" stroke-miterlimit="10" stroke-width="2.5"/>
  </g>
</svg>
