<svg xmlns="http://www.w3.org/2000/svg" width="97.438" height="79.32" viewBox="0 0 97.438 79.32">
  <g id="Group_5303" data-name="Group 5303" transform="translate(7056.438 -16434.691)">
    <path id="Path_12610" data-name="Path 12610" d="M-7056.547,16457.535v79.32" transform="translate(29.65 -22.843)" fill="none" stroke="#707070" stroke-width="2" opacity="0.135"/>
    <g id="Union_22" data-name="Union 22" transform="translate(-6985 16455)" fill="#fff">
      <path d="M 9 46 L 1 46 L 1 8.342580795288086 L 5 1.896564960479736 L 9 8.342580795288086 L 9 46 Z" stroke="none"/>
      <path d="M 8 45 L 8 8.627641677856445 L 5 3.793129920959473 L 2 8.627641677856445 L 2 45 L 8 45 M 10 47 L 0 47 L 0 8.057519912719727 L 5 -3.552713678800501e-15 L 10 8.057519912719727 L 10 47 Z" stroke="none" fill="#41e5d3"/>
    </g>
    <g id="Group_5290" data-name="Group 5290" transform="translate(-6969.31 16456.154)">
      <g id="Rectangle_3966" data-name="Rectangle 3966" transform="translate(0.31 -0.155)" fill="#fff" stroke="#41e5d3" stroke-width="2">
        <rect width="10" height="46" stroke="none"/>
        <rect x="1" y="1" width="8" height="44" fill="none"/>
      </g>
      <line id="Line_882" data-name="Line 882" x2="4.233" transform="translate(0.737 40.201)" fill="none" stroke="#41e5d3" stroke-width="2"/>
      <line id="Line_885" data-name="Line 885" x2="4.233" transform="translate(0.737 34.556)" fill="none" stroke="#41e5d3" stroke-width="2"/>
      <line id="Line_887" data-name="Line 887" x2="4.233" transform="translate(0.737 28.912)" fill="none" stroke="#41e5d3" stroke-width="2"/>
      <line id="Line_889" data-name="Line 889" x2="4.233" transform="translate(0.737 23.267)" fill="none" stroke="#41e5d3" stroke-width="2"/>
      <line id="Line_891" data-name="Line 891" x2="4.233" transform="translate(0.737 17.623)" fill="none" stroke="#41e5d3" stroke-width="2"/>
      <line id="Line_893" data-name="Line 893" x2="4.233" transform="translate(0.737 11.978)" fill="none" stroke="#41e5d3" stroke-width="2"/>
      <line id="Line_883" data-name="Line 883" x2="2.822" transform="translate(0.737 37.378)" fill="none" stroke="#41e5d3" stroke-width="2"/>
      <line id="Line_884" data-name="Line 884" x2="2.822" transform="translate(0.737 31.734)" fill="none" stroke="#41e5d3" stroke-width="2"/>
      <line id="Line_886" data-name="Line 886" x2="2.822" transform="translate(0.737 26.09)" fill="none" stroke="#41e5d3" stroke-width="2"/>
      <line id="Line_888" data-name="Line 888" x2="2.822" transform="translate(0.737 20.445)" fill="none" stroke="#41e5d3" stroke-width="2"/>
      <line id="Line_890" data-name="Line 890" x2="2.822" transform="translate(0.737 14.801)" fill="none" stroke="#41e5d3" stroke-width="2"/>
      <line id="Line_892" data-name="Line 892" x2="2.822" transform="translate(0.737 9.156)" fill="none" stroke="#41e5d3" stroke-width="2"/>
    </g>
    <g id="Group_5292" data-name="Group 5292" transform="translate(-7056 16450.211)">
      <g id="Group_5291" data-name="Group 5291" transform="translate(0 0)">
        <g id="Union_23" data-name="Union 23" transform="translate(0 7.881)" fill="none">
          <path d="M0,34.395V0L29.5,7.114,59,0V34.395L30.036,42.857v.052Z" stroke="none"/>
          <path d="M 29.93692779541016 40.80283737182617 L 57.00003814697266 32.89554214477539 L 57.00003814697266 2.539638042449951 L 29.96887969970703 9.058248519897461 L 29.50001907348633 9.171308517456055 L 29.03115844726562 9.058248519897461 L 1.999999046325684 2.539638042449951 L 1.999999046325684 32.88296890258789 L 29.93692779541016 40.80283737182617 M 30.03629875183105 42.90981674194336 L -9.26513678223273e-07 34.39479827880859 L -9.26513678223273e-07 -1.629028361094242e-06 L 29.50001907348633 7.113978385925293 L 59.00003814697266 -1.629028361094242e-06 L 59.00003814697266 34.39479827880859 L 30.03629875183105 42.85741806030273 L 30.03629875183105 42.90981674194336 Z" stroke="none" fill="#49c7b9"/>
        </g>
        <path id="Union_21" data-name="Union 21" d="M0,10.528V8.577H0V8.015l1.884.013L29.469,0,58.263,8.412l.532,0v.152l.035.01H58.8v1.612L29.556,18.96Z" transform="translate(0.146 0)" fill="#41e5d3"/>
      </g>
      <path id="Path_12608" data-name="Path 12608" d="M0,0V31.458" transform="translate(29.666 18.262)" fill="none" stroke="#49c7b9" stroke-width="2"/>
    </g>
    <path id="Path_12609" data-name="Path 12609" d="M-7056.547,16457.533v20.373" transform="translate(1.109 32.843)" fill="none" stroke="#707070" stroke-width="2" opacity="0.235"/>
    <path id="Path_12611" data-name="Path 12611" d="M-7056.547,16457.533v20.373" transform="translate(58.19 -17.157)" fill="none" stroke="#707070" stroke-width="2" opacity="0.235"/>
    <path id="Path_12612" data-name="Path 12612" d="M-7056.547,16457.533v20.373" transform="translate(58.19 32.843)" fill="none" stroke="#707070" stroke-width="2" opacity="0.235"/>
    <path id="Path_12613" data-name="Path 12613" d="M-7056.547,16457.533v20.373" transform="translate(1.19 -17.157)" fill="none" stroke="#707070" stroke-width="2" opacity="0.235"/>
  </g>
</svg>
