<svg xmlns="http://www.w3.org/2000/svg" width="40.096" height="31.626" viewBox="0 0 40.096 31.626">
  <g id="Group_2857" data-name="Group 2857" transform="translate(-515.904 -444.491)">
    <g id="Group_2692" data-name="Group 2692" transform="translate(516.874 463.869)">
      <g id="Ellipse_665" data-name="Ellipse 665" transform="translate(2.126 0.131)" fill="#fff" stroke="#60d6c9" stroke-width="1.5">
        <circle cx="3" cy="3" r="3" stroke="none"/>
        <circle cx="3" cy="3" r="2.25" fill="none"/>
      </g>
      <path id="Path_7711" data-name="Path 7711" d="M-17355.834-2419.231s1.1-4.236,4.582-4.3,4.607,4.3,4.607,4.3Z" transform="translate(17355.834 2430.729)" fill="none" stroke="#60d6c9" stroke-width="1.5"/>
    </g>
    <g id="Group_5266" data-name="Group 5266" transform="translate(526.469 460.38)">
      <g id="Ellipse_665-2" data-name="Ellipse 665" transform="translate(1.53 -0.38)" fill="#fff" stroke="#60d6c9" stroke-width="1.5">
        <circle cx="3" cy="3" r="3" stroke="none"/>
        <circle cx="3" cy="3" r="2.25" fill="none"/>
      </g>
      <path id="Path_7711-2" data-name="Path 7711" d="M-17355.834-2419.231s1.1-4.236,4.582-4.3,4.607,4.3,4.607,4.3Z" transform="translate(17355.834 2430.729)" fill="none" stroke="#60d6c9" stroke-width="1.5"/>
    </g>
    <g id="Group_5267" data-name="Group 5267" transform="translate(536.064 463.869)">
      <g id="Ellipse_665-3" data-name="Ellipse 665" transform="translate(1.937 0.131)" fill="#fff" stroke="#60d6c9" stroke-width="1.5">
        <circle cx="3" cy="3" r="3" stroke="none"/>
        <circle cx="3" cy="3" r="2.25" fill="none"/>
      </g>
      <path id="Path_7711-3" data-name="Path 7711" d="M-17355.834-2419.231s1.1-4.236,4.582-4.3,4.607,4.3,4.607,4.3Z" transform="translate(17355.834 2430.729)" fill="none" stroke="#60d6c9" stroke-width="1.5"/>
    </g>
    <g id="Group_2693" data-name="Group 2693" transform="translate(537.08 442.491)">
      <path id="Path_7768" data-name="Path 7768" d="M-18106.055-2569.841a5.781,5.781,0,0,0-.912-3.147,11.9,11.9,0,0,1-1.061-1.126,8.19,8.19,0,0,1-.789-1.438s-1.01-3.137,1.07-5.281a5.848,5.848,0,0,1,4.426-1.916,5.742,5.742,0,0,1,3.637,1.127,6.831,6.831,0,0,1,1.375,1.9,4.671,4.671,0,0,1,.469,1.817,7.749,7.749,0,0,1-.469,2.591,9.088,9.088,0,0,1-1.486,2.329,4.862,4.862,0,0,0-.822,1.474,4.862,4.862,0,0,0-.148,1.673h-6.057" transform="translate(18112.973 2589.896)" fill="none" stroke="#707070" stroke-width="1.5"/>
      <path id="Path_7769" data-name="Path 7769" d="M-17172.508-2435.123v-3.35" transform="translate(17181.904 2440.473)" fill="none" stroke="#60d6c9" stroke-width="1.5"/>
      <path id="Path_7770" data-name="Path 7770" d="M0,2.452V0" transform="translate(2.664 6.103) rotate(-48)" fill="none" stroke="#60d6c9" stroke-width="1.5"/>
      <path id="Path_7771" data-name="Path 7771" d="M0,0V2.452" transform="translate(14.434 7.156) rotate(-132)" fill="none" stroke="#60d6c9" stroke-width="1.5"/>
      <path id="Path_7772" data-name="Path 7772" d="M0,2.452V0" transform="translate(0 12.796) rotate(-90)" fill="none" stroke="#60d6c9" stroke-width="1.5"/>
      <path id="Path_7773" data-name="Path 7773" d="M0,0V2.452" transform="translate(16.468 12.796) rotate(-90)" fill="none" stroke="#60d6c9" stroke-width="1.5"/>
    </g>
  </g>
</svg>
