<svg xmlns="http://www.w3.org/2000/svg" width="577" height="319" viewBox="0 0 577 319">
  <g id="Group_5117" data-name="Group 5117" transform="translate(-746 -989.999)">
    <g id="Group_3384" data-name="Group 3384" transform="translate(-1116 -14536.891)">
      <ellipse id="Ellipse_450" data-name="Ellipse 450" cx="288.5" cy="44" rx="288.5" ry="44" transform="translate(1862 15757.89)" fill="#bebebe" opacity="0.216"/>
      <g id="Group_1212" data-name="Group 1212" transform="translate(1909.786 15665.933)">
        <path id="Path_5765" data-name="Path 5765" d="M1632.48,301.4s-7.056-3.988-5.983-13.959l5.983,3.528-6.094-8.284.878-3.682,5.216,2.608-5.062-6.9,3.988-7.517,5.216,8.284-5.118-9.971,5.118-5.522,2.9,6.728-1.909-7.547,9.274-7.728,4,8.365-7.092,5.546,7.819-3.546.818,6.455-8.456,3.273,8.819-.636-.636,4.364-9.729,3.091h8.82l-2.182,8.183h-7.91l7,2.182-3.273,4.546-6.91-2,4.455,4.273s-6.5,5.868-8.23,5.868" transform="translate(-1601.721 -251.437)" fill="#50ff94"/>
        <path id="Path_5766" data-name="Path 5766" d="M1594.135,312.164s-7.569,2.9-14.572-4.28l6.531-2.364-10.267-.579-2.279-3.023,5.333-2.359-8.546-.495-3.254-7.863,9.708,1.256-10.946-2.407-1-7.463,7.036,2.047-7.033-3.335-.05-12.072,9,2.244-.242,9,2.247-8.286,5.5,3.481-2.863,8.6,5.127-7.2,2.959,3.271-3.814,9.468,5.618-6.8,4.918,6.895L1588.2,296l6.141-4.007,1.419,5.419-5.943,4.053,6.131-.712s.38,8.752-.719,10.082" transform="translate(-1564.798 -262.104)" fill="#aaffcb"/>
        <path id="Path_5767" data-name="Path 5767" d="M1659.2,342.326s-4.144-5.089-.393-12.29l3.47,4.425-2.151-8.043,1.748-2.517,3.163,3.5-1.781-6.7,5.225-4.491,1.489,7.784-.918-9.028,5.488-2.654.2,5.93.787-6.253,9.272-3.091.549,7.487-6.983,2.09,6.942-.367-1.287,5.109-7.341-.026,6.837,2.122-1.767,3.1-8.247-.539,6.649,2.6-4.059,5.526-5.964-2.333,4.635,3.71-3.809,2.462-4.62-3.547,2.1,4.536s-6.635,2.505-7.936,2" transform="translate(-1620.216 -285.89)" fill="#90f8b8"/>
        <path id="Path_5768" data-name="Path 5768" d="M1621.668,367.99a112.559,112.559,0,0,1,6.778,40.1" transform="translate(-1598.893 -321.312)" fill="none" stroke="#90f8b8" stroke-miterlimit="10" stroke-width="3"/>
        <path id="Path_5769" data-name="Path 5769" d="M1640.827,366.3c-.95,4.974-1.891,11.045-2.541,18.075-.708,7.655-.889,14.492-.848,20.118" transform="translate(-1608.344 -320.297)" fill="none" stroke="#90f8b8" stroke-miterlimit="10" stroke-width="3"/>
        <path id="Path_5770" data-name="Path 5770" d="M1653.146,389.708a63.8,63.8,0,0,0-5.418,13.958,57.845,57.845,0,0,0-1.806,15.536" transform="translate(-1613.426 -334.333)" fill="none" stroke="#90f8b8" stroke-miterlimit="10" stroke-width="3"/>
        <path id="Path_5771" data-name="Path 5771" d="M1614.792,511.932s-6.011-8.124-5.687-21.123,4.062-30.57,4.062-30.57l17.906-.952s4.679,16.521,5.166,26.459-3.9,25.049-3.9,25.049Z" transform="translate(-1591.353 -376.046)" fill="#fff"/>
        <ellipse id="Ellipse_19" data-name="Ellipse 19" cx="8.953" cy="1.77" rx="8.953" ry="1.77" transform="translate(21.833 81.893)" fill="#e8e8e8"/>
      </g>
      <g id="Group_1220" data-name="Group 1220" transform="translate(2072.751 15527)">
        <rect id="Rectangle_880" data-name="Rectangle 880" width="124" height="80" rx="12" transform="translate(0.249 -0.111)" fill="#6ebbcc"/>
        <rect id="Rectangle_881" data-name="Rectangle 881" width="117" height="72" rx="12" transform="translate(4.249 3.889)" fill="rgba(248,255,248,0.34)"/>
      </g>
      <ellipse id="Ellipse_454" data-name="Ellipse 454" cx="8" cy="8.5" rx="8" ry="8.5" transform="translate(2129 15534.89)" fill="#fff" opacity="0.347"/>
      <rect id="Rectangle_2134" data-name="Rectangle 2134" width="22" height="12" transform="translate(2137 15584.89)" fill="#fff" opacity="0.347"/>
      <rect id="Rectangle_2135" data-name="Rectangle 2135" width="20" height="12" transform="translate(2114 15584.89)" fill="#fff" opacity="0.347"/>
      <rect id="Rectangle_2137" data-name="Rectangle 2137" width="44" height="4" transform="translate(2115 15556.89)" fill="#fff" opacity="0.347"/>
      <rect id="Rectangle_2138" data-name="Rectangle 2138" width="44" height="5" transform="translate(2115 15564.89)" fill="#fff" opacity="0.347"/>
      <rect id="Rectangle_2139" data-name="Rectangle 2139" width="44" height="5" transform="translate(2115 15573.89)" fill="#fff" opacity="0.347"/>
      <g id="Group_1223" data-name="Group 1223" transform="translate(2029.537 15625.886)">
        <rect id="Rectangle_1410" data-name="Rectangle 1410" width="140" height="5" transform="translate(43.463 74.003)" fill="#6ebbcc"/>
        <path id="Path_1795" data-name="Path 1795" d="M4859.931,3664.617v23.219h13.157l-1.548-22.445" transform="translate(-4755.083 -3613.349)" fill="#9ed2dc"/>
        <path id="Path_1772" data-name="Path 1772" d="M4822.671,3663.369l3.543-47.986,63.786-.773-2.658,51.081Z" transform="translate(-4747.234 -3602.813)" fill="#6ebbcc"/>
        <path id="Path_1773" data-name="Path 1773" d="M4826.593,3661.751l3.279-42.532,59.018-.686-2.459,45.277Z" transform="translate(-4748.06 -3603.64)" fill="#fff"/>
        <path id="Path_1774" data-name="Path 1774" d="M4959.057,3654.652a34.562,34.562,0,0,0-4.644,5.418,39.821,39.821,0,0,0-6.191,16.253c-1.7,10.434,1.191,14.487-2.322,17.8-1.809,1.707-4.341,2.3-7.739,3.1a29.931,29.931,0,0,1-8.514.773c-1.829-.1-8.677-.473-9.287-3.1a1.831,1.831,0,0,1,0-.774c.659-3.465,7.776-8.283,9.287-9.287-4.821-6.36-8.005-6.413-9.287-6.191-1.528.263-2.336,1.256-5.418,3.868-2.826,2.4-5.272,4.214-6.966,5.418a15.2,15.2,0,0,0,2.322,8.514c2.21,3.359,5.452,5.131,13.157,7.739a166.7,166.7,0,0,0,20.123,5.418l33.28,26.315a26.407,26.407,0,0,0,5.418-4.644c9.936-11.208,6.913-27.487,6.192-30.958q-2.708-22.445-5.418-44.889c-.725-1.7-3.38-7.361-8.513-8.514C4968.61,3645.582,4962.858,3651.044,4959.057,3654.652Z" transform="translate(-4765.204 -3609.575)" fill="#f8cc90"/>
        <path id="Path_1775" data-name="Path 1775" d="M4916.8,3754.825l8.514,55.727h7.74v-54.177" transform="translate(-4767.064 -3632.353)" fill="#0f2438"/>
        <path id="Path_1776" data-name="Path 1776" d="M4944.194,3726.39l-52.629,6.966-10.062,61.917,9.288,1.548,16.253-41.793,68.108-3.1" transform="translate(-4759.628 -3626.362)" fill="#0f2438"/>
        <path id="Path_1777" data-name="Path 1777" d="M4973.414,3654.963l-4.644-10.835,16.253-6.966,2.323,9.287" transform="translate(-4778.802 -3608.354)" fill="#ffe7c9"/>
        <path id="Path_1778" data-name="Path 1778" d="M4956.659,3607.17c-2.31,2.447-.044,4.825-3.1,11.61-1.084,2.411-2.515,4.657-1.548,6.191.705,1.122,2.052.868,3.1,2.322.86,1.2.632,2.355.774,3.868a12.5,12.5,0,0,0,3.1,6.966c2.9,3.029,8.476,2.517,11.609,1.548a15.842,15.842,0,0,0,6.151-3.695,17.757,17.757,0,0,0,5.458-11.784c.526-9.458-7.172-15.076-7.739-15.479C4968.835,3604.756,4960.08,3603.546,4956.659,3607.17Z" transform="translate(-4774.416 -3600.79)" fill="#ffe7c9"/>
        <path id="Path_1779" data-name="Path 1779" d="M4955.035,3606.818a9.43,9.43,0,0,1-1.282.1,10.872,10.872,0,0,1-4.136-.878c-2.866-1.324-1.961-2.282-1.159-3.506.639-.971-.577-2.342,4.254-1.912,4.455.395,5.172-.487,11.61-.774,6.12-.273,9.179-.41,11.609.774,5.746,2.8,7.436,9.613,7.739,10.835,1.923,7.754-1.523,15.59-3.1,15.479-1.961-.138-1.833-12.679-5.418-13.157a4,4,0,0,0-2.322.774c-2.261,1.415-2.368,3.888-3.1,3.868-1.063-.027-.049-5.323-3.1-8.514C4963.5,3606.62,4956.955,3606.55,4955.035,3606.818Z" transform="translate(-4773.566 -3599.665)" fill="#434343"/>
        <path id="Path_1780" data-name="Path 1780" d="M4922.424,3704.4l-19.349-11.609,10.062-4.644,17.027,12.383Z" transform="translate(-4764.173 -3618.306)" fill="#f0f0f0"/>
        <path id="Path_1781" data-name="Path 1781" d="M4912.1,3692.806l-1.565,1.913,2.625-.171,14.706-3.1q-.387-1.162-.775-2.323Z" transform="translate(-4765.745 -3618.512)" fill="#a7a7a7"/>
        <path id="Path_1782" data-name="Path 1782" d="M4878.4,3806.793l-26.314,17.028,31.731-3.868v-13.16Z" transform="translate(-4753.431 -3643.301)" fill="#f8cc90"/>
        <path id="Path_1783" data-name="Path 1783" d="M4923.505,3817.579l-26.314,17.027,31.731-3.868v-13.16Z" transform="translate(-4762.933 -3645.573)" fill="#f8cc90"/>
        <path id="Path_1784" data-name="Path 1784" d="M4783.7,3621.333c-1.2.56-1.093,1.14-3.1,3.1-3.8,3.709-7.21,4.563-6.966,5.418.187.654,2.144.012,5.418.773a26.408,26.408,0,0,1,6.966,3.1c3.365,1.857,3.667,2.476,4.644,2.322,2.662-.42,5.525-5.757,3.868-10.062C4792.818,3621.515,4786.883,3619.848,4783.7,3621.333Z" transform="translate(-4744.006 -3599.382)" fill="#ffe7c9"/>
        <path id="Path_1785" data-name="Path 1785" d="M4804.637,3598.629c1.869,1.981.036,3.907,2.506,9.4.879,1.952,2.037,3.768,1.254,5.013-.571.908-1.665.7-2.507,1.88-.7.975-.513,1.906-.627,3.133a10.125,10.125,0,0,1-2.506,5.64c-2.351,2.452-6.862,2.038-9.4,1.254a14.09,14.09,0,0,1-9.4-12.534c-.425-7.656,5.806-12.209,6.266-12.533C4794.778,3596.675,4801.867,3595.695,4804.637,3598.629Z" transform="translate(-4746.177 -3594.342)" fill="#ffe7c9"/>
        <path id="Path_1787" data-name="Path 1787" d="M18.324,1.425C10.108,4.25,2.6,11.3.523,20c-.846,3.539-.531,6.252,0,10.835,1.25,10.782,4.67,11.84,6.966,24A102.152,102.152,0,0,1,9.037,69.536c.128,3.358.087,6.251,0,8.514l21.671-3.1a53.537,53.537,0,0,1,2.323-24c2.833-8.418,7.933-19.247,10.835-18.575.689.158.9.883,2.322,5.418,3.167,10.108,3.925,12.3,5.418,14.705,1.994,3.217,3.631,5.92,6.192,6.192,4.388.473,8.463-6.477,12.383-13.158a79.977,79.977,0,0,0,6.191-13.157L70.18,26.965C66.3,38.629,64.317,41.086,63.214,40.9c-1.776-.3-.666-7.357-3.868-16.253A38.477,38.477,0,0,0,48.511,8.391C46.973,7.089,33.639-3.841,18.324,1.425Z" transform="translate(0 41.354) rotate(-21)" fill="#f8cc90"/>
        <path id="Path_1788" data-name="Path 1788" d="M4781.489,3722.622c-.015-.334,7.771-1.131,39.472-3.1a71.4,71.4,0,0,1,6.966,51.082c-2.224-18.245-7.859-37.673-22.444-44.889C4794.637,3720.352,4781.51,3723.056,4781.489,3722.622Z" transform="translate(-4738.558 -3624.916)" fill="#0f2438"/>
        <path id="Path_1789" data-name="Path 1789" d="M4752.526,3724.168c-5.3,7.232,1.674,19.765,2.322,20.9l42.567-1.548,14.706,35.6,12.383-6.192-13.931-47.986a150.11,150.11,0,0,0-38.7-5.418C4758.508,3719.446,4754.618,3721.31,4752.526,3724.168Z" transform="translate(-4732.041 -3624.914)" fill="#0f2438"/>
        <path id="Path_1790" data-name="Path 1790" d="M4831.237,3788.154c-3.072.6-4.191,7.757-4.644,12.383,10.419,6.246,21.676,11.761,24.768,8.514,1.168-1.227.849-3.368.774-3.868-.682-4.569-6.123-4.865-13.931-11.609C4833.993,3789.936,4833.012,3787.809,4831.237,3788.154Z" transform="translate(-4748.06 -3639.366)" fill="#f8cc90"/>
        <path id="Path_1791" data-name="Path 1791" d="M4836.165,3785.781c-2.546,1.819-.587,8.8.923,13.193,12.07,1.351,24.6,1.687,26.064-2.552.552-1.6-.632-3.416-.9-3.841-2.519-3.873-7.59-1.88-17.5-4.768C4839.412,3786.257,4837.635,3784.731,4836.165,3785.781Z" transform="translate(-4749.817 -3638.801)" fill="#f8cc90"/>
        <rect id="Rectangle_1411" data-name="Rectangle 1411" width="16" height="9" transform="translate(94.463 34.003)" fill="#9ed2dc"/>
        <rect id="Rectangle_1411-2" data-name="Rectangle 1411" width="16" height="10" transform="translate(114.463 20.003)" fill="#9ed2dc"/>
        <rect id="Rectangle_1411-3" data-name="Rectangle 1411" width="16" height="10" transform="translate(114.463 32.003)" fill="#9ed2dc"/>
        <rect id="Rectangle_1411-4" data-name="Rectangle 1411" width="16" height="9" transform="translate(114.463 44.003)" fill="#9ed2dc"/>
        <path id="Path_1794" data-name="Path 1794" d="M4832.437,3665.168c-.795-2.519,1.467-5.184,2.322-6.191,2.767-3.262,4.9-2.925,11.609-6.966,3.281-1.973,5.089-3.453,5.418-3.1.358.389-1.169,2.81-3.1,4.644-1.652,1.572-3.315,2.447-3.1,3.1.132.383.743.17,1.548.775s.646,1.151,1.548,2.322c.582.755.731.635,1.548,1.548,1.053,1.173,1.7,1.895,1.548,2.322-.5,1.375-8.607-2.668-13.157.774-1.718,1.3-2.368,3.246-3.868,3.1A3.2,3.2,0,0,1,4832.437,3665.168Z" transform="translate(-4757.149 -3620.29)" fill="#ffe7c9"/>
      </g>
      <path id="Path_6099" data-name="Path 6099" d="M611.128,1116.811c-.754,1.347.27,2.177.2,4.9a11.619,11.619,0,0,1-3.138,7.648c-2.093,2.07-5.9,3.879-8.825,2.746-5.661-2.19-7.378-15.1-1.966-20.793a11.716,11.716,0,0,1,5.1-2.936c4.368-1.465,9.719-.987,13.14,1.961.659.568,2.3,1.98,1.961,3.138C617.085,1115.258,612.522,1114.319,611.128,1116.811Z" transform="translate(1471.577 14516.341)" fill="#3a3f40"/>
      <rect id="Rectangle_1373" data-name="Rectangle 1373" width="64.377" height="19.176" rx="5.897" transform="translate(2036.257 15738.361)" fill="#f8765e"/>
      <path id="Rectangle_1374" data-name="Rectangle 1374" d="M8285.168,3679.266h42.05a5.684,5.684,0,0,1,5.685,5.685h0a5.684,5.684,0,0,1-5.685,5.684h-42.05a5.685,5.685,0,0,1-5.686-5.684h0A5.685,5.685,0,0,1,8285.168,3679.266Z" transform="translate(-6250.074 12076.49)" fill="#f8765e"/>
      <path id="Path_1733" data-name="Path 1733" d="M8300.249,3690.032v20.546l4.108,1.371v8.9l-25.341,1.37-3.425,6.85h64.378l-3.424-6.164-26.707-1.37v-9.588l4.109-2.738-.687-19.177" transform="translate(-6250.293 12077.095)" fill="#f8765e"/>
      <path id="Path_1715" data-name="Path 1715" d="M8287.956,3683.7c-9.029-1.914-13.986-9.552-17.121-14.382-1.352-2.086-12.517-19.911-6.165-41.092,2.021-6.739,4.981-16.61,13.7-19.862,11.029-4.114,22.559,5.62,23.971,6.848,1.384,1.2,6.251,5.654,9.589,15.067,6.52,18.39,3.433,45.088-10.958,52.049A21.07,21.07,0,0,1,8287.956,3683.7Z" transform="translate(-6251.014 12072.464)" fill="#d1614c"/>
      <path id="Path_1716" data-name="Path 1716" d="M8281.47,3683.7c-9.029-1.914-13.986-9.552-17.122-14.382-1.351-2.086-12.514-19.911-6.164-41.092,2.021-6.739,4.981-16.61,13.7-19.862,11.028-4.114,22.557,5.62,23.971,6.848,1.383,1.2,6.25,5.654,9.588,15.067,6.521,18.39,3.434,45.088-10.958,52.049A21.071,21.071,0,0,1,8281.47,3683.7Z" transform="translate(-6251.376 12072.464)" fill="#f8765e"/>
      <g id="Group_1224" data-name="Group 1224" transform="translate(2197.465 15688.506)">
        <rect id="Rectangle_1373-2" data-name="Rectangle 1373" width="64.377" height="19.177" rx="5.897" transform="translate(0 58.538)" fill="#f8765e"/>
        <path id="Rectangle_1374-2" data-name="Rectangle 1374" d="M8327.217,3679.266h-42.05a5.685,5.685,0,0,0-5.686,5.685h0a5.685,5.685,0,0,0,5.686,5.684h42.05a5.684,5.684,0,0,0,5.685-5.684h0A5.684,5.684,0,0,0,8327.217,3679.266Z" transform="translate(-8261.676 -3603.333)" fill="#f8765e"/>
        <path id="Path_1733-2" data-name="Path 1733" d="M8315.313,3690.032v20.546l-4.108,1.371v8.9l25.341,1.369,3.425,6.85h-64.378l3.424-6.164,26.707-1.37v-9.588l-4.109-2.738.687-19.177" transform="translate(-8264.634 -3602.729)" fill="#f8765e"/>
        <path id="Path_1715-2" data-name="Path 1715" d="M8289.956,3683.7c9.03-1.914,13.987-9.552,17.122-14.382,1.352-2.087,12.516-19.911,6.164-41.093-2.021-6.739-4.98-16.61-13.7-19.862-11.03-4.114-22.559,5.62-23.971,6.848-1.385,1.2-6.252,5.654-9.589,15.067-6.52,18.39-3.433,45.088,10.958,52.049A21.068,21.068,0,0,0,8289.956,3683.7Z" transform="translate(-8226.266 -3607.359)" fill="#d1614c"/>
        <path id="Path_1716-2" data-name="Path 1716" d="M8283.47,3683.7c9.029-1.914,13.987-9.552,17.122-14.382,1.351-2.087,12.515-19.911,6.164-41.093-2.021-6.739-4.981-16.61-13.7-19.862-11.028-4.114-22.557,5.62-23.971,6.848-1.383,1.2-6.25,5.654-9.588,15.067-6.521,18.39-3.434,45.088,10.959,52.049A21.068,21.068,0,0,0,8283.47,3683.7Z" transform="translate(-8212.93 -3607.359)" fill="#f8765e"/>
      </g>
      <g id="Ellipse_456" data-name="Ellipse 456" transform="translate(2122 15558.89)" fill="#fff" stroke="#fff" stroke-width="1">
        <circle cx="3.5" cy="3.5" r="3.5" stroke="none"/>
        <circle cx="3.5" cy="3.5" r="3" fill="none"/>
      </g>
      <g id="Ellipse_457" data-name="Ellipse 457" transform="translate(2141 15567.89)" fill="#fff" stroke="#fff" stroke-width="1">
        <ellipse cx="4" cy="3.5" rx="4" ry="3.5" stroke="none"/>
        <ellipse cx="4" cy="3.5" rx="3.5" ry="3" fill="none"/>
      </g>
      <g id="Ellipse_458" data-name="Ellipse 458" transform="translate(2122 15589.89)" fill="#fff" stroke="#fff" stroke-width="1">
        <circle cx="3.5" cy="3.5" r="3.5" stroke="none"/>
        <circle cx="3.5" cy="3.5" r="3" fill="none"/>
      </g>
      <line id="Line_585" data-name="Line 585" x1="21.312" y2="22.101" transform="translate(2123.663 15540.024)" fill="none" stroke="#fff" stroke-width="1"/>
      <line id="Line_586" data-name="Line 586" x1="21.312" y1="9.472" transform="translate(2123.663 15562.125)" fill="none" stroke="#fff" stroke-width="1"/>
      <line id="Line_587" data-name="Line 587" x1="20.523" y2="21.312" transform="translate(2124.452 15571.597)" fill="none" stroke="#fff" stroke-width="1"/>
    </g>
  </g>
</svg>
