<svg xmlns="http://www.w3.org/2000/svg" width="795" height="306.166" viewBox="0 0 795 306.166">
  <g id="Group_3408" data-name="Group 3408" transform="translate(-123 -1021.834)">
    <rect id="Rectangle_1410" data-name="Rectangle 1410" width="193" height="18" transform="translate(414 1116)" fill="#6ebbcc"/>
    <ellipse id="Ellipse_804" data-name="Ellipse 804" cx="397.5" cy="60.5" rx="397.5" ry="60.5" transform="translate(123 1207)" fill="#fff"/>
    <g id="Group_3391" data-name="Group 3391" transform="translate(201.255 1080.002)">
      <path id="Path_5765" data-name="Path 5765" d="M1634.784,320.292s-9.724-5.5-8.245-19.237l8.245,4.862-8.4-11.416,1.21-5.074,7.188,3.594-6.976-9.513,5.5-10.359,7.188,11.416-7.053-13.741,7.053-7.61,4,9.272-2.631-10.4,12.78-10.65,5.514,11.528-9.773,7.643,10.776-4.887,1.128,8.9-11.653,4.511,12.153-.877-.876,6.014-13.407,4.26h12.155L1657.65,299.8h-10.9l9.648,3.007-4.511,6.265-9.523-2.757,6.14,5.889s-8.964,8.087-11.341,8.087" transform="translate(-1592.395 -251.437)" fill="#50ff94"/>
      <path id="Path_5766" data-name="Path 5766" d="M1605.227,328.4s-10.431,3.995-20.081-5.9l9-3.258-14.149-.8-3.14-4.165,7.349-3.251-11.777-.682-4.484-10.836,13.378,1.731-15.085-3.316-1.374-10.284,9.7,2.821-9.693-4.6-.069-16.636,12.4,3.093-.333,12.4,3.1-11.419,7.576,4.8-3.946,11.856,7.065-9.928,4.078,4.508-5.256,13.048,7.742-9.369,6.777,9.5-6.944,8.4,8.464-5.521,1.956,7.468-8.189,5.585,8.449-.982s.523,12.061-.991,13.894" transform="translate(-1564.798 -259.409)" fill="#aaffcb"/>
      <path id="Path_5767" data-name="Path 5767" d="M1659.943,354.963s-5.711-7.013-.542-16.936l4.782,6.1-2.964-11.084,2.409-3.468,4.359,4.83-2.454-9.231,7.2-6.189,2.052,10.727-1.265-12.441,7.563-3.657.282,8.172,1.084-8.617,12.778-4.26.756,10.318-9.624,2.88,9.566-.506-1.774,7.04-10.116-.036,9.422,2.924-2.436,4.276-11.365-.743,9.163,3.585-5.593,7.615-8.22-3.215,6.387,5.113-5.249,3.393-6.366-4.888,2.892,6.251s-9.144,3.453-10.937,2.751" transform="translate(-1606.219 -277.188)" fill="#90f8b8"/>
      <path id="Path_5768" data-name="Path 5768" d="M1621.668,367.99a155.118,155.118,0,0,1,9.341,55.265" transform="translate(-1590.281 -303.664)" fill="none" stroke="#90f8b8" stroke-miterlimit="10" stroke-width="3"/>
      <path id="Path_5769" data-name="Path 5769" d="M1642.111,366.3c-1.309,6.854-2.606,15.222-3.5,24.909-.975,10.549-1.225,19.971-1.168,27.725" transform="translate(-1597.345 -302.905)" fill="none" stroke="#90f8b8" stroke-miterlimit="10" stroke-width="3"/>
      <path id="Path_5770" data-name="Path 5770" d="M1655.882,389.708a87.919,87.919,0,0,0-7.467,19.236,79.73,79.73,0,0,0-2.489,21.411" transform="translate(-1601.144 -313.395)" fill="none" stroke="#90f8b8" stroke-miterlimit="10" stroke-width="3"/>
      <path id="Path_5771" data-name="Path 5771" d="M1616.947,531.837s-8.284-11.2-7.837-29.11,5.6-42.129,5.6-42.129l24.677-1.312s6.448,22.768,7.12,36.463-5.374,34.52-5.374,34.52Z" transform="translate(-1584.646 -344.573)" fill="#e8e8e8"/>
      <ellipse id="Ellipse_19" data-name="Ellipse 19" cx="12.338" cy="2.439" rx="12.338" ry="2.439" transform="translate(30.089 112.856)" fill="#e8e8e8"/>
    </g>
    <rect id="Rectangle_1410-2" data-name="Rectangle 1410" width="21" height="122" transform="translate(572 1127)" fill="#6ebbcc"/>
    <path id="Path_1784" data-name="Path 1784" d="M4787.513,3621.533c-1.652.771-1.506,1.571-4.267,4.266-5.243,5.112-9.936,6.288-9.6,7.466.257.9,2.954.016,7.466,1.066,3.234.752,5.7,2.115,9.6,4.266,4.638,2.56,5.053,3.413,6.4,3.2,3.668-.579,7.614-7.934,5.331-13.866C4800.073,3621.784,4791.894,3619.487,4787.513,3621.533Z" transform="translate(-4378.923 -2566.471)" fill="#efc999"/>
    <path id="Path_1785" data-name="Path 1785" d="M4812.464,3599.291c2.576,2.73.049,5.385,3.453,12.955,1.211,2.69,2.807,5.192,1.728,6.909-.787,1.252-2.294.965-3.455,2.591-.961,1.343-.707,2.627-.864,4.317a13.954,13.954,0,0,1-3.454,7.772c-3.24,3.379-9.457,2.809-12.954,1.728-7.008-2.168-12.509-9.294-12.956-17.272-.586-10.551,8-16.825,8.636-17.271C4798.878,3596.6,4808.647,3595.248,4812.464,3599.291Z" transform="translate(-4378.02 -2568.57)" fill="#efc999"/>
    <path id="Path_1787" data-name="Path 1787" d="M25.252,1.963C13.929,5.857,3.586,15.567.721,27.562c-1.165,4.877-.732,8.616,0,14.932,1.722,14.859,6.436,16.317,9.6,33.068a140.775,140.775,0,0,1,2.133,20.265c.177,4.628.12,8.615,0,11.733l29.865-4.266a73.779,73.779,0,0,1,3.2-33.069c3.9-11.6,10.932-26.524,14.932-25.6.949.218,1.241,1.217,3.2,7.466,4.365,13.93,5.409,16.948,7.466,20.265,2.747,4.433,5,8.158,8.533,8.533,6.047.652,19.6,5.323,19.6,5.323l16.786,6.443-.871-9.627S85.66,69.456,84.139,69.2c-2.447-.419,2.058-22.974-2.354-35.234-1.2-3.336-5.247-14.188-14.932-22.4C64.733,9.769,46.358-5.293,25.252,1.963Z" transform="translate(353.883 1081.803) rotate(-21)" fill="#f8cc90"/>
    <path id="Path_1788" data-name="Path 1788" d="M4781.489,3723.792c-.021-.46,10.708-1.559,54.4-4.266a98.4,98.4,0,0,1,9.6,70.4c-3.065-25.143-10.831-51.917-30.93-61.862C4799.608,3720.664,4781.518,3724.391,4781.489,3723.792Z" transform="translate(-4368.445 -2564.33)" fill="#0f2438"/>
    <path id="Path_1789" data-name="Path 1789" d="M4753.273,3725.926c-7.3,9.966,2.307,27.238,3.2,28.8l58.661-2.133,20.266,49.058,17.065-8.533-19.2-66.128a206.876,206.876,0,0,0-53.33-7.467C4761.517,3719.418,4756.155,3721.987,4753.273,3725.926Z" transform="translate(-4371.16 -2564.33)" fill="#0f2438"/>
    <path id="Path_1790" data-name="Path 1790" d="M4832.993,3788.168c-4.234.821-5.775,10.69-6.4,17.065,14.359,8.607,29.872,16.208,34.132,11.732,1.609-1.69,1.169-4.641,1.066-5.33-.94-6.3-8.437-6.705-19.2-16C4836.792,3790.623,4835.439,3787.693,4832.993,3788.168Z" transform="translate(-4364.485 -2558.311)" fill="#f8cc90"/>
    <path id="Path_1791" data-name="Path 1791" d="M4836.63,3785.912c-3.509,2.507-.81,12.124,1.272,18.181,16.635,1.861,33.905,2.325,35.92-3.517.761-2.207-.871-4.707-1.246-5.293-3.472-5.337-10.46-2.591-24.112-6.57C4841.105,3786.568,4838.656,3784.465,4836.63,3785.912Z" transform="translate(-4363.753 -2558.545)" fill="#f8cc90"/>
    <path id="Path_8135" data-name="Path 8135" d="M617.562,1120.375c-2.162,2.838.372,3,.27,6.756-.027.988-.277,6.536-4.324,10.54-2.884,2.853-8.124,5.345-12.162,3.784-7.8-3.017-10.168-20.806-2.71-28.655a16.146,16.146,0,0,1,7.034-4.046c6.019-2.019,4.934-1.207,12.162-1.207a162.325,162.325,0,0,1,16.75,1.207,28.582,28.582,0,0,1-7.122,7.543C623.2,1119.2,618.424,1119.242,617.562,1120.375Z" transform="translate(-190.41 -85.551)" fill="#3a3f40"/>
    <rect id="Rectangle_1373" data-name="Rectangle 1373" width="88.718" height="26.427" rx="5.897" transform="translate(363.144 1179.814)" fill="#f8765e"/>
    <path id="Rectangle_1374" data-name="Rectangle 1374" d="M8287.318,3679.266h57.947a7.833,7.833,0,0,1,7.834,7.834h0a7.833,7.833,0,0,1-7.834,7.833h-57.947a7.835,7.835,0,0,1-7.836-7.833h0A7.834,7.834,0,0,1,8287.318,3679.266Z" transform="translate(-7925.778 -2475.48)" fill="#f8765e"/>
    <path id="Path_1733" data-name="Path 1733" d="M8309.572,3690.032v28.314l5.661,1.889V3732.5l-34.922,1.888-4.72,9.439h88.719l-4.718-8.5-36.8-1.887v-13.214l5.663-3.773-.946-26.428" transform="translate(-7927.55 -2470.576)" fill="#f8765e"/>
    <path id="Path_1715" data-name="Path 1715" d="M8297.493,3712.568c-12.443-2.638-19.274-13.164-23.594-19.82-1.863-2.875-17.25-27.439-8.5-56.628,2.784-9.287,6.864-22.89,18.876-27.372,15.2-5.669,31.088,7.745,33.034,9.438,1.906,1.655,8.614,7.791,13.214,20.764,8.984,25.343,4.73,62.136-15.1,71.729C8307.552,3714.492,8299.383,3712.968,8297.493,3712.568Z" transform="translate(-7933.405 -2508.215)" fill="#d1614c"/>
    <path id="Path_1716" data-name="Path 1716" d="M8291.007,3712.568c-12.443-2.638-19.274-13.164-23.6-19.82-1.861-2.875-17.245-27.439-8.5-56.628,2.786-9.287,6.865-22.89,18.878-27.372,15.2-5.669,31.085,7.745,33.034,9.438,1.905,1.655,8.612,7.791,13.213,20.764,8.985,25.343,4.731,62.136-15.1,71.729C8301.063,3714.492,8292.895,3712.968,8291.007,3712.568Z" transform="translate(-7936.358 -2508.215)" fill="#f8765e"/>
    <path id="Path_8136" data-name="Path 8136" d="M16929.248-19138.2a22.2,22.2,0,0,0,6.84-6.326c3.164-4.4,1.453,4.408,1.453,4.408s12.215-7.248,13.938-4.408,3.777,6.848,2.01,8.314-20.375,6.336-20.375,6.336" transform="translate(-16437.955 20256.355)" fill="#efc999"/>
    <path id="Path_1774" data-name="Path 1774" d="M4975,3657.131a45.362,45.362,0,0,0-6.093,7.108c-1.376,1.995-6.164,9.283-8.123,21.325-2.228,13.69,1.563,19.007-3.047,23.355-2.373,2.239-5.7,3.018-10.154,4.062a39.27,39.27,0,0,1-11.17,1.015c-2.4-.129-11.385-.621-12.185-4.062a2.406,2.406,0,0,1,0-1.016c.864-4.546,10.2-10.868,12.185-12.186-6.325-8.345-10.5-8.415-12.185-8.123-2,.345-3.065,1.647-7.108,5.074-3.708,3.146-6.917,5.529-9.14,7.109a19.944,19.944,0,0,0,3.047,11.17c2.9,4.407,7.153,6.731,17.263,10.154a218.65,218.65,0,0,0,26.4,7.109l43.664,34.526a34.685,34.685,0,0,0,7.108-6.093c13.036-14.706,9.07-36.063,8.124-40.618q-3.554-29.448-7.109-58.9c-.951-2.227-4.435-9.658-11.169-11.17C4987.532,3645.231,4979.984,3652.4,4975,3657.131Z" transform="translate(-4329.939 -2574.461)" fill="#f8cc90"/>
    <path id="Path_1775" data-name="Path 1775" d="M4916.8,3754.825l11.17,73.115h10.155v-71.082" transform="translate(-4329.625 -2570.613)" fill="#0f2438"/>
    <path id="Path_1776" data-name="Path 1776" d="M4963.755,3726.39l-69.05,9.139-13.2,81.236,12.186,2.031,21.324-54.834,89.359-4.061" transform="translate(-4330.883 -2571.627)" fill="#0f2438"/>
    <path id="Path_1777" data-name="Path 1777" d="M4974.862,3660.518l-6.092-14.216,21.324-9.139,3.048,12.185" transform="translate(-4328.81 -2575.84)" fill="#ffe7c9"/>
    <path id="Path_1778" data-name="Path 1778" d="M4958.208,3607.844c-3.03,3.21-.058,6.331-4.062,15.232-1.422,3.164-3.3,6.11-2.031,8.124.925,1.473,2.693,1.139,4.062,3.046,1.129,1.581.829,3.09,1.016,5.075a16.406,16.406,0,0,0,4.062,9.139c3.81,3.974,11.121,3.3,15.232,2.031a20.781,20.781,0,0,0,8.071-4.848,23.3,23.3,0,0,0,7.161-15.461c.69-12.409-9.41-19.78-10.154-20.309C4974.182,3604.677,4962.7,3603.09,4958.208,3607.844Z" transform="translate(-4328.382 -2575.949)" fill="#ffe7c9"/>
    <path id="Path_1779" data-name="Path 1779" d="M4957.336,3609.05a12.447,12.447,0,0,1-1.683.135,14.267,14.267,0,0,1-5.426-1.151c-3.76-1.738-2.573-2.994-1.521-4.6.839-1.274-.756-3.073,5.582-2.508,5.845.518,6.786-.639,15.232-1.016,8.028-.358,12.042-.538,15.231,1.016,7.538,3.673,9.756,12.612,10.154,14.216,2.522,10.174-2,20.455-4.062,20.31-2.573-.182-2.405-16.635-7.108-17.263a5.239,5.239,0,0,0-3.047,1.016c-2.967,1.857-3.107,5.1-4.062,5.075-1.395-.035-.064-6.984-4.062-11.17C4968.438,3608.79,4959.855,3608.7,4957.336,3609.05Z" transform="translate(-4328.525 -2576.139)" fill="#434343"/>
    <path id="Path_1780" data-name="Path 1780" d="M4928.461,3709.474l-25.386-15.231,13.2-6.093,22.34,16.247Z" transform="translate(-4330.113 -2572.988)" fill="#f0f0f0"/>
    <path id="Path_1781" data-name="Path 1781" d="M4912.589,3693.953l-2.054,2.51,3.444-.225,19.294-4.062q-.508-1.524-1.017-3.047Z" transform="translate(-4329.847 -2572.951)" fill="#a7a7a7"/>
    <path id="Path_1782" data-name="Path 1782" d="M4886.612,3806.793l-34.525,22.341,41.632-5.075v-17.266Z" transform="translate(-4331.93 -2568.762)" fill="#f8cc90"/>
    <path id="Path_1783" data-name="Path 1783" d="M4931.716,3817.579l-34.525,22.34,41.632-5.074v-17.266Z" transform="translate(-4330.324 -2568.377)" fill="#f8cc90"/>
    <rect id="Rectangle_1373-2" data-name="Rectangle 1373" width="84.464" height="25.16" rx="5.897" transform="translate(611.042 1182.486)" fill="#f8765e"/>
    <path id="Rectangle_1374-2" data-name="Rectangle 1374" d="M8342.111,3679.266H8286.94a7.458,7.458,0,0,0-7.459,7.458h0a7.458,7.458,0,0,0,7.459,7.458h55.171a7.457,7.457,0,0,0,7.458-7.458h0A7.457,7.457,0,0,0,8342.111,3679.266Z" transform="translate(-7645.076 -2473.957)" fill="#f8765e"/>
    <path id="Path_1733-2" data-name="Path 1733" d="M8327.707,3690.032v26.957l-5.392,1.8v11.681l33.248,1.8,4.493,8.987h-84.465l4.492-8.087,35.039-1.8v-12.58l-5.391-3.593.9-25.161" transform="translate(-7650.171 -2469.805)" fill="#f8765e"/>
    <path id="Path_1715-2" data-name="Path 1715" d="M8298.45,3707.524c11.849-2.511,18.353-12.532,22.466-18.869,1.772-2.738,16.42-26.124,8.087-53.915-2.651-8.841-6.534-21.792-17.971-26.059-14.472-5.4-29.6,7.374-31.45,8.985-1.816,1.575-8.2,7.417-12.58,19.768-8.554,24.129-4.5,59.157,14.377,68.291C8288.876,3709.355,8296.653,3707.9,8298.45,3707.524Z" transform="translate(-7603.845 -2501.676)" fill="#d1614c"/>
    <path id="Path_1716-2" data-name="Path 1716" d="M8291.965,3707.524c11.847-2.511,18.353-12.532,22.465-18.869,1.771-2.738,16.419-26.124,8.087-53.915-2.652-8.841-6.535-21.792-17.972-26.059-14.47-5.4-29.595,7.374-31.451,8.985-1.814,1.575-8.2,7.417-12.579,19.768-8.555,24.129-4.5,59.157,14.379,68.291C8282.391,3709.355,8290.168,3707.9,8291.965,3707.524Z" transform="translate(-7588.373 -2501.676)" fill="#f8765e"/>
  </g>
</svg>
