<svg xmlns="http://www.w3.org/2000/svg" width="595.715" height="314" viewBox="0 0 595.715 314">
  <g id="Group_3377" data-name="Group 3377" transform="translate(-835.829 -1274)">
    <ellipse id="Ellipse_447" data-name="Ellipse 447" cx="297" cy="45.5" rx="297" ry="45.5" transform="translate(835.829 1497)" fill="#b1b1b1" opacity="0.226"/>
    <g id="Group_1215" data-name="Group 1215" transform="translate(1302.584 1372.326)">
      <path id="Path_1725" data-name="Path 1725" d="M8717.626,3721.482c-.655-1.969,15.835,2.624,15.835,2.624l5.817-48.551-17.059-.655Z" transform="translate(-8690.468 -3560.745)" fill="#246"/>
      <path id="Path_1719" data-name="Path 1719" d="M8750.678,3582.276a18.476,18.476,0,0,0-3.279,4.594c-.918,1.81-1.713,4.121-1.969,12.465-.3,9.91.682,11.188,1.313,11.81,1.484,1.459,3.416,1.653,7.219,1.968a39.483,39.483,0,0,0,11.152-.656l1.3,3.282,11.154-.657c.17-3.368.3-8.374,0-14.433-.617-12.462-.928-18.694-4.594-21.652C8767.221,3574.343,8756.123,3576.847,8750.678,3582.276Z" transform="translate(-8688.09 -3569.16)" fill="#ffdcb7"/>
      <path id="Path_1720" data-name="Path 1720" d="M8749.839,3584.83c-1.284-.252-1.72.7-3.279.656-2.811-.072-4.832-3.234-5.247-3.937-2.1-3.521-2.05-9.1.656-11.152,2.409-1.83,4.964.622,13.122,1.968,8.924,1.472,10.571-.686,17.714,1.313,3.958,1.107,8.249,2.308,11.154,5.905,5.85,7.243,4.516,22.274-3.279,25.586-6.139,2.609-15.676-2.3-17.06-7.873-.952-3.834,2.084-7.448.655-8.529-1.159-.877-4.445.535-5.246,2.625-.214.556,0,.516,0,4.592v3.936l-5.9-1.311a13.359,13.359,0,0,0,.653-7.874C8753.6,3590.005,8752.5,3585.349,8749.839,3584.83Z" transform="translate(-8688.564 -3569.743)" fill="#3c3c3c"/>
      <path id="Path_1721" data-name="Path 1721" d="M8753,3667.261c-2.072-5.4-5.764-17.1-3.281-30.836.924-5.122,2.3-12.146,7.873-15.094a11.861,11.861,0,0,1,5.246-1.312,7.814,7.814,0,0,1,.656-5.246c2.205-4.048,7.65-3.954,8.527-3.937,2.529.045,6.559.994,7.219,3.281.4,1.4-.687,2.47,0,3.936.385.821,1.059,1.045,2.625,1.97,1.357.8,2.611,1.767,3.936,2.624,2.35,1.519,4.434,7.456,3.938,15.093-.955,14.748-12.443,50.011-24.275,48.55C8760.049,3685.618,8756.947,3677.544,8753,3667.261Z" transform="translate(-8687.788 -3566.227)" fill="#6ebbcc"/>
      <path id="Path_1722" data-name="Path 1722" d="M8776.507,3702.037a15.136,15.136,0,0,1-5.906-2.625c-8.868-6.209-11-18.559-11.81-23.62-.653-4.1-4.188-26.221,9.185-41.333,2.238-2.527,5.839-6.487,11.81-7.873a21,21,0,0,1,16.4,3.282c8.963,6.32,9.392,18.594,9.842,31.493.273,7.841.479,17.249-5.247,26.244a34.185,34.185,0,0,1-7.873,8.527C8789.669,3698.628,8783.537,3703.348,8776.507,3702.037Z" transform="translate(-8687.02 -3564.919)" fill="#d1614c"/>
      <path id="Path_1723" data-name="Path 1723" d="M8785.57,3702.037a15.134,15.134,0,0,1-5.9-2.625c-8.867-6.209-11-18.559-11.81-23.62-.654-4.1-4.188-26.221,9.186-41.333,2.235-2.527,5.839-6.487,11.81-7.873a20.994,20.994,0,0,1,16.4,3.282c8.964,6.32,9.392,18.594,9.841,31.493.274,7.841.479,17.249-5.246,26.244a34.116,34.116,0,0,1-7.874,8.527C8798.733,3698.628,8792.6,3703.348,8785.57,3702.037Z" transform="translate(-8686.244 -3564.919)" fill="#f8765e"/>
      <path id="Path_1724" data-name="Path 1724" d="M8755.846,3664.625l-61.018,6.561a3.533,3.533,0,0,0-1.969,4.593h0l22.963,49.862,19.684,2.625-17.715-43.3c6.533-.049,13.32-.255,20.34-.656,11.861-.676,23.037-1.828,33.459-3.28" transform="translate(-8692.605 -3561.625)" fill="#0f2438"/>
      <path id="Path_1726" data-name="Path 1726" d="M8723.368,3686.727l-26.9-16.4s1.313-3.281,1.969-3.281,26.9,16.4,26.9,16.4l1.313,3.938Z" transform="translate(-8692.275 -3561.417)" fill="#b92a3f"/>
      <path id="Path_1727" data-name="Path 1727" d="M8707.342,3665.23a7.525,7.525,0,0,0-4.592,1.313c-2.977,2.144-3.521,6.368-2.625,9.185,1.561,4.888,8.279,8.094,13.779,5.9,5.2-2.068,8.092-8.476,5.9-14.434" transform="translate(-8691.995 -3561.573)" fill="#ffdcb7"/>
      <path id="Path_1728" data-name="Path 1728" d="M8755.17,3627.323l-7.592,30.653-41.334,7.874s-4.594,10.5,3.28,11.153l48.55-5.9,1.969-8.53" transform="translate(-8691.552 -3564.816)" fill="#6ebbcc"/>
      <path id="Path_1729" data-name="Path 1729" d="M8716.7,3719.02l-19.026,11.809s34.117-.655,37.4,0,0-10.5,0-10.5Z" transform="translate(-8692.172 -3556.97)" fill="#6ebbcc"/>
      <path id="Path_1730" data-name="Path 1730" d="M8732.169,3681.255c-1.972,4.188,2.058,11.292,7.216,14.433a16.974,16.974,0,0,0,6.019,1.764,25.581,25.581,0,0,0,6.446.2c.227-.019,7.587.083,22.308,0,16.8-.1,21.5,1.981,22.964-.656,1.921-3.465-3.778-11.415-10.5-15.746-2.73-1.761-7.277-3.985-28.868-3.937C8734.756,3677.368,8732.8,3679.9,8732.169,3681.255Z" transform="translate(-8689.266 -3560.538)" fill="#f8765e"/>
      <path id="Path_1731" data-name="Path 1731" d="M8745.424,3705.112l.656-11.81c25.036-5.644,44.19-4.327,47.9,3.938.717,1.6,1.047,3.884,0,7.217" transform="translate(-8688.086 -3559.464)" fill="#f8765e"/>
      <path id="Path_1732" data-name="Path 1732" d="M8762.4,3701.55v19.683l3.934,1.312v8.53l-24.273,1.312-3.281,6.561h61.674l-3.281-5.9-25.586-1.312v-9.185l3.938-2.625-.656-18.37" transform="translate(-8688.655 -3558.465)" fill="#f8765e"/>
    </g>
    <path id="Path_6074" data-name="Path 6074" d="M8574.813,3583.793l18.114,17.442s6.514,11.941,8.684,13.026-3.256-6.514-1.085-6.514,11.941,5.428,13.027,6.514,3.256-1.085,2.171-5.428-15.2-11.941-17.369-11.941-13.651-17.665-13.651-17.665Z" transform="translate(-7400.1 -2196.606)" fill="#ffdcb7"/>
    <path id="Path_6081" data-name="Path 6081" d="M8559.5,3607.757l2.171,11.941,11.941-1.085,2.172-5.427-2.172-8.685-14.112,1.085Z" transform="translate(-7401.411 -2194.443)" fill="#ffe6e6"/>
    <path id="Path_6082" data-name="Path 6082" d="M8564.5,3628.757l2.171,11.941,11.94-1.085,2.172-5.427-2.172-8.685-14.111,1.084Z" transform="translate(-7400.983 -2192.647)" fill="#ffe6e6"/>
    <path id="Path_6083" data-name="Path 6083" d="M8704.783,3637.441l-2.17-11.941-11.941,1.084-2.172,5.428,2.172,8.685,14.111-1.085Z" transform="translate(-7390.373 -2192.647)" fill="#ffe6e6"/>
    <path id="Path_6084" data-name="Path 6084" d="M8703.783,3615.441l-2.17-11.941-11.941,1.085-2.172,5.427,2.172,8.685,14.111-1.085Z" transform="translate(-7390.459 -2194.529)" fill="#ffe6e6"/>
    <path id="Path_6085" data-name="Path 6085" d="M8679.783,3619.441l-2.171-11.941-11.941,1.085-2.171,5.428,2.171,8.685,14.112-1.086Z" transform="translate(-7392.512 -2194.187)" fill="#ffe6e6"/>
    <path id="Path_6086" data-name="Path 6086" d="M8682.783,3642.441l-2.17-11.941-11.943,1.085-2.17,5.428,2.17,8.685,14.113-1.086Z" transform="translate(-7392.254 -2192.219)" fill="#ffe6e6"/>
    <path id="Path_6092" data-name="Path 6092" d="M8611.787,3649.448l53.968,81.512h9.77l-52.65-81.96Z" transform="translate(-7396.126 -2189.013)" fill="#e6a7c2"/>
    <path id="Path_6093" data-name="Path 6093" d="M8665.523,3649.448l-53.968,81.512h-9.771l52.651-81.96Z" transform="translate(-7398.603 -2188.201)" fill="#e6a7c2"/>
    <rect id="Rectangle_2128" data-name="Rectangle 2128" width="8" height="26" transform="translate(1203.829 1329)" fill="#fff"/>
    <rect id="Rectangle_2129" data-name="Rectangle 2129" width="8" height="34" transform="translate(1213.829 1321)" fill="#fff"/>
    <rect id="Rectangle_2130" data-name="Rectangle 2130" width="8" height="40" transform="translate(1223.829 1315)" fill="#fff"/>
    <rect id="Rectangle_2131" data-name="Rectangle 2131" width="8" height="26" transform="translate(1233.829 1329)" fill="#fff"/>
    <g id="Group_1213" data-name="Group 1213" transform="translate(862.952 1405.549)">
      <path id="Path_5765" data-name="Path 5765" d="M1632.5,301.562s-7.079-4-6-14l6,3.54-6.114-8.31.881-3.693,5.233,2.616-5.078-6.925,4-7.541,5.233,8.31-5.134-10,5.134-5.54,2.912,6.75-1.915-7.571,9.3-7.753,4.014,8.392-7.115,5.564,7.844-3.557.821,6.476-8.483,3.284,8.847-.638-.638,4.378-9.76,3.1h8.848l-2.19,8.209h-7.935l7.024,2.189-3.283,4.56-6.932-2.007,4.469,4.287s-6.526,5.887-8.256,5.887" transform="translate(-1601.642 -251.437)" fill="#6bcb90"/>
      <path id="Path_5766" data-name="Path 5766" d="M1594.229,312.3s-7.593,2.908-14.618-4.294l6.552-2.372-10.3-.581-2.286-3.032,5.35-2.367-8.573-.5-3.264-7.888,9.739,1.26-10.981-2.414-1-7.487,7.058,2.054-7.056-3.346-.05-12.111,9.025,2.252-.243,9.029,2.255-8.313,5.515,3.492-2.872,8.631,5.143-7.227,2.968,3.281-3.826,9.5,5.636-6.82,4.933,6.917-5.055,6.117,6.161-4.019,1.424,5.436-5.962,4.066,6.151-.715s.381,8.78-.722,10.114" transform="translate(-1564.798 -262.081)" fill="#4db475"/>
      <path id="Path_5767" data-name="Path 5767" d="M1659.207,342.434s-4.157-5.1-.395-12.329l3.482,4.439-2.157-8.069,1.753-2.525,3.173,3.516-1.786-6.72,5.241-4.5,1.494,7.809-.92-9.057,5.505-2.663.205,5.949.789-6.273,9.3-3.1.551,7.511-7.005,2.1,6.963-.368-1.291,5.125-7.364-.027,6.859,2.129-1.773,3.113-8.274-.541,6.671,2.61-4.072,5.544-5.984-2.341,4.65,3.722-3.821,2.47-4.635-3.558,2.1,4.551s-6.656,2.514-7.961,2" transform="translate(-1620.097 -285.816)" fill="#90f8b8"/>
      <path id="Path_5768" data-name="Path 5768" d="M1621.668,367.99a112.91,112.91,0,0,1,6.8,40.231" transform="translate(-1598.819 -321.162)" fill="none" stroke="#4db475" stroke-miterlimit="10" stroke-width="3"/>
      <path id="Path_5769" data-name="Path 5769" d="M1640.838,366.3c-.953,4.99-1.9,11.081-2.55,18.133-.71,7.679-.892,14.539-.85,20.183" transform="translate(-1608.25 -320.15)" fill="none" stroke="#4db475" stroke-miterlimit="10" stroke-width="3"/>
      <path id="Path_5770" data-name="Path 5770" d="M1653.169,389.708a64.009,64.009,0,0,0-5.436,14,58.026,58.026,0,0,0-1.812,15.586" transform="translate(-1613.322 -334.155)" fill="none" stroke="#4db475" stroke-miterlimit="10" stroke-width="3"/>
      <path id="Path_5771" data-name="Path 5771" d="M1614.81,512.1s-6.031-8.15-5.705-21.191,4.075-30.668,4.075-30.668l17.964-.955s4.694,16.574,5.183,26.544-3.913,25.13-3.913,25.13Z" transform="translate(-1591.296 -375.779)" fill="#e6a7c2"/>
      <ellipse id="Ellipse_19" data-name="Ellipse 19" cx="8.982" cy="1.775" rx="8.982" ry="1.775" transform="translate(21.903 82.156)" fill="#e8e8e8"/>
    </g>
    <path id="Path_6072" data-name="Path 6072" d="M8394.381,3653.318q-11.94-36.91-23.881-73.818h352.809l32.566,77.075Z" transform="translate(-7417.583 -2196.582)" fill="#c7d4ff"/>
    <path id="Path_1717" data-name="Path 1717" d="M8457.135,3621.3l10.33-37.3h-50.5l-10.9,35.008" transform="translate(-7414.541 -2196.198)" fill="#ebebeb"/>
    <path id="Path_1718" data-name="Path 1718" d="M8455.207,3620.155l-58.4-.636.634,4.443H8453.3Z" transform="translate(-7415.331 -2193.159)" fill="#ebebeb"/>
    <path id="Path_6088" data-name="Path 6088" d="M8375.528,3561.086l-1.2,18.011,24.015,74.446,3.6-10.807Z" transform="translate(-7417.254 -2198.158)" fill="none"/>
    <path id="Path_6089" data-name="Path 6089" d="M8417.66,3647.727" transform="translate(-7413.547 -2190.745)" fill="none"/>
    <path id="Path_6090" data-name="Path 6090" d="M8437.785,3648.448l53.968,81.513h9.771L8448.875,3648Z" transform="translate(-7411.823 -2190.721)" fill="#e6a7c2"/>
    <path id="Path_6091" data-name="Path 6091" d="M8491.523,3648.448l-53.969,81.513h-9.769l52.649-81.96Z" transform="translate(-7412.68 -2190.721)" fill="#e6a7c2"/>
    <path id="Path_6094" data-name="Path 6094" d="M8392,3648v9.771l361.493,4.342v-10.855Z" transform="translate(-7414.931 -2191.533)" fill="#a3b4ea"/>
    <circle id="Ellipse_452" data-name="Ellipse 452" cx="30.5" cy="30.5" r="30.5" transform="translate(981.829 1274)" fill="#f4f4f4"/>
    <path id="Path_6098" data-name="Path 6098" d="M14.353,0l12.93,37.333s-7.4,2.757-14.219,2.637A35.7,35.7,0,0,1,0,36.854Z" transform="translate(999.666 1308.62) rotate(-30)" fill="#e6a7c2"/>
    <path id="Path_6071" data-name="Path 6071" d="M8497,3584.391l7.6-68.391,72.733,2.171-.731,66.762" transform="translate(-7363.752 -2198.77)" fill="none"/>
    <path id="Path_6073" data-name="Path 6073" d="M8477.838,3572.717l5,29.093s-13.027,0-15.2,6.513-2.172,7.6-1.086,7.6,8.686-5.427,9.77-5.427,3.258,0,3.258,1.085c0,2.269-3.605,6.186-3.258,6.513.129.122.277.114,4.342-3.256h0a19.335,19.335,0,0,0,7.6-9.77l1.084-18.455V3572.5" transform="translate(-7409.425 -2197.182)" fill="#ffdcb7"/>
    <path id="Path_6075" data-name="Path 6075" d="M8498.5,3589.757l2.172,11.941,11.941-1.085,2.17-5.428-2.17-8.685-14.113,1.085Z" transform="translate(-7406.629 -2195.983)" fill="#ffe6e6"/>
    <path id="Path_6076" data-name="Path 6076" d="M8501.5,3610.757l2.171,11.941,11.94-1.086,2.172-5.428-2.172-8.685-14.111,1.085Z" transform="translate(-7406.375 -2194.187)" fill="#ffe6e6"/>
    <path id="Path_6077" data-name="Path 6077" d="M8530.5,3596.757l2.172,11.941,11.941-1.086,2.172-5.427-2.172-8.685-14.113,1.085Z" transform="translate(-7403.892 -2195.384)" fill="#ffe6e6"/>
    <path id="Path_6078" data-name="Path 6078" d="M8534.5,3617.756l2.172,11.942,11.94-1.086,2.173-5.427-2.173-8.685-14.112,1.086Z" transform="translate(-7403.549 -2193.587)" fill="#ffe6e6"/>
    <path id="Path_6079" data-name="Path 6079" d="M8514.5,3630.757l2.171,11.941,11.941-1.085,2.171-5.428-2.171-8.685-14.112,1.085Z" transform="translate(-7405.261 -2192.475)" fill="#ffe6e6"/>
    <path id="Path_6080" data-name="Path 6080" d="M8556.5,3589.757l2.171,11.941,11.941-1.085,2.173-5.428-2.173-8.685-14.112,1.085Z" transform="translate(-7401.667 -2195.983)" fill="#ffe6e6"/>
    <path id="Path_6087" data-name="Path 6087" d="M8531.521,3538.013l6.513-6.513,18.455,4.342,1.085,9.771s-1.085,4.342-6.513,4.342-16.283-1.085-18.454-5.428S8531.521,3538.013,8531.521,3538.013Z" transform="translate(-7403.828 -2200.689)" fill="#f2c99e"/>
    <path id="Path_6095" data-name="Path 6095" d="M8535.613,3531.911c-2.529-7.951-.115-15.333,1.059-18.769,1.135-3.33,1.705-4.995,2.713-5.97,6.424-6.219,23.068,2.8,23.883,3.256,4.492,16.519-2.721,29.745-10.855,31.481-7.5,1.6-15.072-6.715-15.914-7.663A23.223,23.223,0,0,1,8535.613,3531.911Z" transform="translate(-7403.548 -2202.958)" fill="#ffdcb7"/>
    <path id="Path_6096" data-name="Path 6096" d="M8535.672,3521.087c-1.942-1.106-2.1-4.084-2.171-5.428-.2-3.779,1.232-9,5.428-11.941.849-.6,2.51-1.591,9.771-2.171,10.367-.828,16.106-1.286,18.454,2.171,1.549,2.283,1.106,5.516,0,7.6a8.589,8.589,0,0,1-8.685,4.343c-2.263-.462-2.739-2.012-5.428-2.172a7.048,7.048,0,0,0-4.342,1.086c-1.915,1.312-1.332,2.635-3.258,4.342a10.481,10.481,0,0,1-5.428,2.171C8537.954,3521.479,8536.761,3521.707,8535.672,3521.087Z" transform="translate(-7403.636 -2203.303)" fill="#3c3c3c"/>
    <path id="Path_6097" data-name="Path 6097" d="M8535.377,3530.854s-17.368-5.428-20.626-4.343-41.251,39.081-41.251,39.081v10.855l18.454,1.085V3572.1l-2.171-3.257,19.539-14.112-10.854,28.225h58.621l13.025-18.455,10.856,24.968,14.112-6.513-4.343-7.6s-6.514-24.968-6.514-28.224-4.342-10.856-10.856-10.856-8.684-1.085-8.684-1.085,0,10.855-8.685,11.941-16.284-3.257-17.37-8.685S8535.377,3530.854,8535.377,3530.854Z" transform="translate(-7408.769 -2201.129)" fill="#6ebbcc"/>
  </g>
</svg>
