<svg xmlns="http://www.w3.org/2000/svg" width="16" height="16" viewBox="0 0 16 16">
  <g id="Group_6699" data-name="Group 6699" transform="translate(-18618 2105)">
    <rect id="Rectangle_4812" data-name="Rectangle 4812" width="16" height="16" transform="translate(18618 -2105)" fill="#fff" opacity="0"/>
    <path id="Path_9623" data-name="Path 9623" d="M18325.131,10479.855a7,7,0,1,0,7,7,6.731,6.731,0,0,0-.15-1.44A7,7,0,0,0,18325.131,10479.855Zm0,.74a6.265,6.265,0,0,1,6.129,4.972,6.094,6.094,0,0,1,.135,1.288,6.261,6.261,0,1,1-6.264-6.26Zm4.477,6.79a4.708,4.708,0,0,1-2.764,3.615,4.5,4.5,0,0,1-2.49.273,4.658,4.658,0,0,1-3.65-3.571,5.205,5.205,0,0,1-.029-1.774,3.662,3.662,0,0,1,.209-.7.219.219,0,0,1,.092-.11.188.188,0,0,1,.135-.017l.057.029a.258.258,0,0,1,.045.054.193.193,0,0,1,.021.16,4.056,4.056,0,0,0,.117,2.132l.01.031a3.962,3.962,0,0,0,1.18,1.631,3.7,3.7,0,0,0,.9.563,3.758,3.758,0,0,0,1.027.3,3.384,3.384,0,0,0,1.713-.192,3.321,3.321,0,0,0,1.951-3.622,2.8,2.8,0,0,0-1.578-2,2.45,2.45,0,0,0-2.072-.035,1.741,1.741,0,0,0-.891,1.016,1.693,1.693,0,0,0,.031,1.132.954.954,0,0,0,.971.6.37.37,0,0,0,.32-.314.753.753,0,0,1,.1-.314.847.847,0,0,1,.656-.415c.055,0,.111,0,.17,0s.109.022.164.039a.851.851,0,0,1,.535.563.812.812,0,0,1,.025.328,2.008,2.008,0,0,1-1.168,1.586,2.623,2.623,0,0,1-2.914-1.019,2.793,2.793,0,0,1-.48-2.5,3.423,3.423,0,0,1,2.506-2.394,3.787,3.787,0,0,1,.869-.1,4.333,4.333,0,0,1,2.98,1.223A4.472,4.472,0,0,1,18329.607,10487.386Z" transform="translate(300.867 -12583.855)" fill-rule="evenodd"/>
  </g>
</svg>
