<svg xmlns="http://www.w3.org/2000/svg" width="26.999" height="34.5" viewBox="0 0 26.999 34.5">
  <g id="Group_5750" data-name="Group 5750" transform="translate(-683 -1597.5)">
    <path id="Icon_awesome-hand-pointer" data-name="Icon awesome-hand-pointer" d="M21,11.25v4.5a1.874,1.874,0,0,1-.05.429l-1.5,6.375A1.875,1.875,0,0,1,17.625,24H7.875a1.875,1.875,0,0,1-1.516-.772l-6-8.25a1.875,1.875,0,1,1,3.033-2.206l1.484,2.04V1.875a1.875,1.875,0,0,1,3.75,0V11.25H9V9.375a1.875,1.875,0,1,1,3.75,0V11.25h.375V10.125a1.875,1.875,0,0,1,3.75,0V11.25h.375a1.875,1.875,0,0,1,3.75,0Z" transform="translate(687.999 1607)" fill="none" stroke="#fa4e2e" stroke-linecap="round" stroke-linejoin="round" stroke-width="2"/>
    <line id="Line_119" data-name="Line 119" y2="5" transform="translate(694.5 1598.5)" fill="none" stroke="#fa4e2e" stroke-linecap="round" stroke-width="2"/>
    <line id="Line_120" data-name="Line 120" y2="5" transform="translate(705 1608) rotate(90)" fill="none" stroke="#fa4e2e" stroke-linecap="round" stroke-width="2"/>
    <line id="Line_121" data-name="Line 121" y2="5" transform="translate(689 1608) rotate(90)" fill="none" stroke="#fa4e2e" stroke-linecap="round" stroke-width="2"/>
    <line id="Line_123" data-name="Line 123" y2="5" transform="translate(690.611 1604.111) rotate(135)" fill="none" stroke="#fa4e2e" stroke-linecap="round" stroke-width="2"/>
    <line id="Line_125" data-name="Line 125" y2="5" transform="translate(698.389 1604.111) rotate(-135)" fill="none" stroke="#fa4e2e" stroke-linecap="round" stroke-width="2"/>
  </g>
</svg>
