<svg xmlns="http://www.w3.org/2000/svg" width="31" height="31" viewBox="0 0 31 31">
  <g id="Group_2" data-name="Group 2" transform="translate(-2371.5 -1295.5)">
    <circle id="Ellipse_1" data-name="Ellipse 1" cx="15" cy="15" r="15" transform="translate(2372 1296)" fill="none" stroke="#776f3d" stroke-width="1"/>
    <path id="lock" d="M72.293,4.479V3.567a3.567,3.567,0,1,0-7.134,0v.912a1.422,1.422,0,0,0-.713,1.228V9.988a1.428,1.428,0,0,0,1.427,1.427h5.708a1.428,1.428,0,0,0,1.427-1.427V5.708a1.422,1.422,0,0,0-.713-1.228ZM68.726,1.427a2.143,2.143,0,0,1,2.14,2.14v.713H66.585V3.567a2.143,2.143,0,0,1,2.14-2.14Zm.713,6.857v.991H68.012V8.284a1.07,1.07,0,1,1,1.427,0Z" transform="translate(2327.994 1311)" fill="#776f3d"/>
    <g id="dollar-symbol" transform="translate(2381.942 1301.238)">
      <path id="Path_1" data-name="Path 1" d="M124.426,8.869a23.508,23.508,0,0,0-2.387-1.081,5.36,5.36,0,0,1-1.311-.734,1.14,1.14,0,0,1,.282-2.028,2.3,2.3,0,0,1,.8-.165,6.091,6.091,0,0,1,3.016.6c.476.23.633.157.794-.339.169-.524.311-1.057.468-1.585a.554.554,0,0,0-.359-.738,7.668,7.668,0,0,0-1.9-.569c-.863-.133-.863-.137-.867-1,0-1.222,0-1.222-1.23-1.222-.177,0-.355,0-.532,0-.573.016-.669.117-.686.694-.008.258,0,.516,0,.778,0,.766-.008.754-.742,1.02a4.091,4.091,0,0,0-2.988,3.791,3.885,3.885,0,0,0,2.2,3.714,24.3,24.3,0,0,0,2.746,1.234,4.079,4.079,0,0,1,1,.589,1.371,1.371,0,0,1-.327,2.4,3.289,3.289,0,0,1-1.762.23,7.865,7.865,0,0,1-2.686-.8c-.5-.258-.641-.19-.811.347-.145.464-.274.932-.4,1.4-.173.629-.109.778.492,1.073a8.575,8.575,0,0,0,2.419.694c.653.1.673.133.681.811,0,.306,0,.617.008.923a.548.548,0,0,0,.589.621c.452.008.907.008,1.359,0a.517.517,0,0,0,.561-.585c0-.419.02-.843,0-1.262a.667.667,0,0,1,.577-.758,4.557,4.557,0,0,0,2.375-1.524A4.286,4.286,0,0,0,124.426,8.869Z" transform="translate(-116.652 0)" fill="#776f3d"/>
    </g>
  </g>
</svg>
