<svg xmlns="http://www.w3.org/2000/svg" width="73" height="73" viewBox="0 0 73 73">
  <g id="Group_5791" data-name="Group 5791" transform="translate(-782 -2828)">
    <g id="Rectangle_4416" data-name="Rectangle 4416" transform="translate(782 2828)" fill="#fff" stroke="#707070" stroke-width="1" opacity="0">
      <rect width="73" height="73" stroke="none"/>
      <rect x="0.5" y="0.5" width="72" height="72" fill="none"/>
    </g>
    <path id="Icon_simple-mongodb" data-name="Icon simple-mongodb" d="M36.332,23.8C33.174,9.9,25.727,5.328,24.927,3.58A22.464,22.464,0,0,1,23.094,0c-.005.048-.01.078-.013.123V.155h0c-.005.038-.007.063-.01.1V.29h-.005c0,.025,0,.045,0,.065V.42h-.007a.475.475,0,0,1-.007.063V.535h-.005a.179.179,0,0,1-.005.053v.05h-.005c0,.025,0,.055,0,.08v0c-.007.042-.015.085-.023.125v.02H23a.132.132,0,0,0-.007.03V.94h-.007V1h-.013V1.04h-.013v.053h-.01V1.14h-.01v.043h-.015v.035h-.01v.045H22.9V1.3h-.012V1.33h-.007v.038h-.01a.015.015,0,0,0,0,.01V1.4h-.007a.032.032,0,0,0,0,.015v.015h-.005a.11.11,0,0,0-.005.025c-.007.018-.017.035-.025.053v0a.076.076,0,0,0-.013.018v.02H22.8v.02h-.013v.02h-.007v.025h-.015v.035h-.01v.01h-.01v.02h-.01V1.71h-.01v.02h-.015v.028H22.7v.02h-.013V1.8h-.007v.025h-.012v.02h-.01v.015h-.01v.02h-.015V1.9h-.01v.015h-.013v.02H22.6v.028h-.013v.01h-.007v.02h-.015V2h-.01v.025h-.01v.01h-.01v.02h-.013v.015h-.007l-.005.01v.01h0c0,.005-.005.005-.005.01v0h0a.04.04,0,0,1-.01.017V2.13h0a.469.469,0,0,0-.03.045v0a.112.112,0,0,0-.022.025v.005h0s-.007.005-.007.007v.008h-.005l-.007.007v0h0s-.005.005-.007.01v.01h-.007l0,.005v0h-.005c0,.005-.005.005-.005.008v.007h-.01s0,.005-.005.008V2.3h-.007v.01h-.01v.015h-.01v.02h-.012v-.02h-.013v.01H22.3V2.35h-.012v.02h-.013v.01h-.01V2.4h-.01v.01h-.01v.02h-.015v.01h-.01V2.45h-.013v.01H22.2v.013h-.012V2.5h-.005v.01h-.015V2.52h-.01v0h-.01v.01h-.013V2.56h-.01v.01h-.013v.01H22.1V2.6h-.012v.01h-.013v.01h-.01v.01h-.01V2.65h-.01v.013h-.015v.01h-.01v.01h-.013V2.7H22v.01h-.013v.017h-.01v.01h-.015V2.75h-.005v.01h-.01v.01h-.012v.01h-.01V2.8h-.013v.01H21.9a.008.008,0,0,0,0,0v.005h0l-.01.01a.047.047,0,0,1-.01.008v.015h-.01V2.86h-.01v.01h-.01v.01h-.007l-.007.007V2.9h-.005l-.005.005v.007h-.005a.25.25,0,0,1-.035.04l-.03.025a.915.915,0,0,0-.1.08A.527.527,0,0,0,21.6,3.1v0h0l-.122.1v0l-.185.155v0h-.005c-.142.117-.292.25-.465.4v0h0c-.423.37-.925.845-1.487,1.42l-.038.037-.01.01c-3.4,3.518-8.757,10.848-9.322,22.693a25.916,25.916,0,0,0,.015,2.86v.022a27.238,27.238,0,0,0,3.57,11.89v0A31.314,31.314,0,0,0,15.859,46.2v0a31.992,31.992,0,0,0,6.285,6.315c1.1,2.558,1,6.948,1,6.948l1.61.537a29.984,29.984,0,0,1,.132-6.305,3.9,3.9,0,0,1,.873-1.655,20.952,20.952,0,0,0,1.992-1.612c.045-.048.07-.09.11-.135,3.8-3.545,10.9-12.275,8.47-26.5Z" transform="translate(795.073 2835)" fill="#623ec6"/>
  </g>
</svg>
