<svg xmlns="http://www.w3.org/2000/svg" width="30.621" height="30.621" viewBox="0 0 30.621 30.621">
  <g id="Group_3" data-name="Group 3" transform="translate(-2506 -1298)">
    <g id="back-arrow_1_" data-name="back-arrow (1)" transform="translate(2506 1298)">
      <path id="Path_6" data-name="Path 6" d="M15.311,30.621A16.184,16.184,0,0,1,4.4,26.295l-2.771,2.77A.956.956,0,0,1,0,28.388V20.1a.957.957,0,0,1,.957-.957H9.25a.956.956,0,0,1,.676,1.633L6.22,24.479a13.579,13.579,0,0,0,9.091,3.59,12.759,12.759,0,1,0,0-25.518A12.628,12.628,0,0,0,6.3,6.293a1.277,1.277,0,0,1-1.809-1.8A15.165,15.165,0,0,1,15.311,0a15.311,15.311,0,0,1,0,30.621Zm0,0" fill="#776f3d"/>
    </g>
    <g id="dollar-symbol" transform="translate(2518.644 1308)">
      <path id="Path_1" data-name="Path 1" d="M121.3,5.3a14.052,14.052,0,0,0-1.427-.646,3.2,3.2,0,0,1-.783-.439A.681.681,0,0,1,119.257,3a1.375,1.375,0,0,1,.48-.1,3.641,3.641,0,0,1,1.8.357c.284.137.378.094.475-.2.1-.313.186-.632.28-.947a.331.331,0,0,0-.215-.441,4.584,4.584,0,0,0-1.138-.34c-.516-.08-.516-.082-.518-.6,0-.73,0-.73-.735-.73-.106,0-.212,0-.318,0-.342.01-.4.07-.41.415,0,.154,0,.309,0,.465,0,.458,0,.451-.444.61a2.446,2.446,0,0,0-1.786,2.266,2.322,2.322,0,0,0,1.314,2.22,14.524,14.524,0,0,0,1.642.738,2.439,2.439,0,0,1,.6.352.82.82,0,0,1-.2,1.437,1.966,1.966,0,0,1-1.053.137,4.7,4.7,0,0,1-1.605-.48c-.3-.154-.383-.113-.485.207-.087.277-.164.557-.241.836-.1.376-.065.465.294.641a5.126,5.126,0,0,0,1.446.415c.391.063.4.08.407.485,0,.183,0,.369,0,.552a.328.328,0,0,0,.352.371c.27,0,.542,0,.812,0a.309.309,0,0,0,.335-.35c0-.251.012-.5,0-.755a.4.4,0,0,1,.345-.453,2.724,2.724,0,0,0,1.42-.911A2.562,2.562,0,0,0,121.3,5.3Z" transform="translate(-116.652 0)" fill="#776f3d"/>
    </g>
  </g>
</svg>
