<svg xmlns="http://www.w3.org/2000/svg" width="34" height="27" viewBox="0 0 34 27">
  <g id="Group_1" data-name="Group 1" transform="translate(-2316 -1298)">
    <g id="Ellipse_3" data-name="Ellipse 3" transform="translate(2336 1300)" fill="none" stroke="#776f3d" stroke-width="2">
      <circle cx="5" cy="5" r="5" stroke="none"/>
      <circle cx="5" cy="5" r="4" fill="none"/>
    </g>
    <g id="Ellipse_4" data-name="Ellipse 4" transform="translate(2321 1298)" fill="none" stroke="#776f3d" stroke-width="2">
      <circle cx="6.5" cy="6.5" r="6.5" stroke="none"/>
      <circle cx="6.5" cy="6.5" r="5.5" fill="none"/>
    </g>
    <g id="Subtraction_1" data-name="Subtraction 1" transform="translate(2331 1311)" fill="none">
      <path d="M18.95,11H.05C.017,10.66,0,10.314,0,9.971A10.525,10.525,0,0,1,.193,7.961,10.284,10.284,0,0,1,.747,6.09,10.137,10.137,0,0,1,1.622,4.4,9.955,9.955,0,0,1,2.782,2.92,9.685,9.685,0,0,1,4.188,1.7,9.369,9.369,0,0,1,5.8.784a9.107,9.107,0,0,1,7.4,0,9.369,9.369,0,0,1,1.614.919A9.685,9.685,0,0,1,16.218,2.92,9.955,9.955,0,0,1,17.378,4.4a10.137,10.137,0,0,1,.876,1.694,10.284,10.284,0,0,1,.554,1.872A10.525,10.525,0,0,1,19,9.971c0,.343-.017.69-.05,1.029Z" stroke="none"/>
      <path d="M 16.94497108459473 9 C 16.91983032226562 8.779340744018555 16.88612365722656 8.560331344604492 16.84394836425781 8.344020843505859 C 16.743408203125 7.828360557556152 16.59350967407227 7.321410655975342 16.39840888977051 6.8372802734375 C 16.20728874206543 6.363020420074463 15.97089862823486 5.90587043762207 15.69582939147949 5.478540420532227 C 15.42415904998779 5.056490421295166 15.11249923706055 4.659980297088623 14.76950931549072 4.299990653991699 C 14.42813873291016 3.941700458526611 14.05306911468506 3.61681056022644 13.65470886230469 3.3343505859375 C 13.25488948822021 3.050860404968262 12.82814884185791 2.807670593261719 12.38631916046143 2.611530542373657 C 11.93849945068359 2.41273045539856 11.47026920318604 2.260140419006348 10.99458885192871 2.157980442047119 C 10.50651931762695 2.053150415420532 10.00366878509521 2.000000476837158 9.499999046325684 2.000000476837158 C 8.996329307556152 2.000000476837158 8.49345874786377 2.053150415420532 8.005369186401367 2.157980442047119 C 7.529678821563721 2.260140419006348 7.06144905090332 2.412740468978882 6.61362886428833 2.611540555953979 C 6.17181921005249 2.807670593261719 5.745079040527344 3.050850391387939 5.345259189605713 3.334360361099243 C 4.946918964385986 3.616800546646118 4.57184886932373 3.941690444946289 4.230459213256836 4.300000667572021 C 3.887479066848755 4.659980297088623 3.57581901550293 5.056490421295166 3.304168939590454 5.47851037979126 C 3.029088973999023 5.905860424041748 2.792709112167358 6.363020420074463 2.60158896446228 6.837250709533691 C 2.406489133834839 7.321380615234375 2.256588935852051 7.828330516815186 2.156049013137817 8.344030380249023 C 2.113874435424805 8.560337066650391 2.080167531967163 8.779341697692871 2.055027484893799 9 L 16.94497108459473 9 M 18.94999885559082 11 L 0.04999904707074165 11 C 0.01679904572665691 10.6602201461792 -9.5367431640625e-07 10.31395053863525 -9.5367431640625e-07 9.97075080871582 C -9.5367431640625e-07 9.29425048828125 0.06493904441595078 8.618170738220215 0.1930090487003326 7.961300373077393 C 0.3178190588951111 7.321140289306641 0.5040590167045593 6.691440582275391 0.7465490698814392 6.089700698852539 C 0.9846490621566772 5.498890399932861 1.279339075088501 4.929050445556641 1.622439026832581 4.396020412445068 C 1.962289094924927 3.86806058883667 2.352579116821289 3.371580362319946 2.782479047775269 2.920380592346191 C 3.212368965148926 2.469180583953857 3.685409069061279 2.059540510177612 4.188448905944824 1.702860474586487 C 4.696309089660645 1.342750430107117 5.23923921585083 1.033450484275818 5.802158832550049 0.7835604548454285 C 6.375479221343994 0.5290404558181763 6.975449085235596 0.3335704803466797 7.585409164428711 0.2025704830884933 C 8.211278915405273 0.06815047562122345 8.855439186096191 4.76837158203125e-07 9.499999046325684 4.76837158203125e-07 C 10.14454936981201 4.76837158203125e-07 10.78870868682861 0.06815047562122345 11.41456890106201 0.2025704830884933 C 12.02452945709229 0.3335704803466797 12.62449932098389 0.5290504693984985 13.19780921936035 0.7835604548454285 C 13.76072883605957 1.033450484275818 14.30365943908691 1.342750430107117 14.8115291595459 1.702860474586487 C 15.31455898284912 2.059540510177612 15.78759860992432 2.469170570373535 16.21749877929688 2.920380592346191 C 16.64739990234375 3.371580362319946 17.03768920898438 3.86806058883667 17.37753868103027 4.396020412445068 C 17.72065925598145 4.929070472717285 18.01534843444824 5.498910427093506 18.25343894958496 6.089700698852539 C 18.49592971801758 6.691430568695068 18.68217849731445 7.321130275726318 18.8069896697998 7.961300373077393 C 18.93505859375 8.618170738220215 19 9.294240951538086 19 9.97075080871582 C 19 10.31407070159912 18.98317909240723 10.66034030914307 18.94999885559082 10.99994087219238 L 18.94999885559082 11 Z" stroke="none" fill="#776f3d"/>
    </g>
    <g id="Subtraction_2" data-name="Subtraction 2" transform="translate(2316 1312)" fill="#fff">
      <path d="M 21.9979076385498 12 L 1.002092957496643 12 C 1.000699877738953 11.92780494689941 1.000000953674316 11.85565376281738 1.000000953674316 11.78361034393311 C 1.000000953674316 11.04973030090332 1.072090983390808 10.31661987304688 1.214280962944031 9.604649543762207 C 1.35270094871521 8.911499977111816 1.559210896492004 8.229789733886719 1.828070998191833 7.578470230102539 C 2.091980934143066 6.939119815826416 2.4186110496521 6.322509765625 2.798881053924561 5.745749950408936 C 3.175410985946655 5.174670219421387 3.607760906219482 4.637710094451904 4.083930969238281 4.149789810180664 C 4.559670925140381 3.662319898605347 5.083011150360107 3.219850063323975 5.639410972595215 2.834680080413818 C 6.200370788574219 2.446340084075928 6.799890995025635 2.112879991531372 7.42133092880249 1.843549966812134 C 8.05354118347168 1.569550037384033 8.715070724487305 1.359120011329651 9.387560844421387 1.218119978904724 C 10.07784080505371 1.073390007019043 10.78857135772705 1 11.50000095367432 1 C 12.21141052246094 1 12.9221305847168 1.073390007019043 13.6124210357666 1.218119978904724 C 14.28489112854004 1.359130024909973 14.94643115997314 1.569560050964355 15.57865142822266 1.843559980392456 C 16.2000617980957 2.11286997795105 16.79958152770996 2.446340084075928 17.36055183410645 2.834680080413818 C 17.91695022583008 3.219840049743652 18.4402904510498 3.662309885025024 18.91605186462402 4.149789810180664 C 19.3922004699707 4.637700080871582 19.82456016540527 5.174660205841064 20.20111083984375 5.745759963989258 C 20.58140182495117 6.322559833526611 20.90803146362305 6.93917989730835 21.17191123962402 7.578460216522217 C 21.4407901763916 8.229800224304199 21.64730072021484 8.911499977111816 21.78572082519531 9.604649543762207 C 21.92791175842285 10.31661987304688 22 11.04973030090332 22 11.78361034393311 C 22 11.85564231872559 21.99930191040039 11.92781257629395 21.9979076385498 12 Z" stroke="none"/>
      <path d="M 20.96993064880371 11 C 20.93885040283203 10.59569549560547 20.88376808166504 10.1944637298584 20.80509185791016 9.800479888916016 C 20.67933082580566 9.170780181884766 20.49176025390625 8.551569938659668 20.24756050109863 7.960010051727295 C 20.00799179077148 7.379610061645508 19.71146011352539 6.819819927215576 19.36624145507812 6.296209812164307 C 19.02456092834473 5.777989864349365 18.63230133056641 5.290820121765137 18.20038032531738 4.848239898681641 C 17.76927185058594 4.406499862670898 17.29522132873535 4.005670070648193 16.7913703918457 3.656889915466309 C 16.28418159484863 3.305779933929443 15.74237060546875 3.004390001296997 15.18099117279053 2.761090040206909 C 14.61056137084961 2.513870000839233 14.01376056671143 2.324019908905029 13.40721130371094 2.196840047836304 C 12.78428077697754 2.066230058670044 12.14260101318359 2 11.50000095367432 2 C 10.85738086700439 2 10.21569061279297 2.066230058670044 9.592770576477051 2.196830034255981 C 8.986201286315918 2.324019908905029 8.389410972595215 2.513859987258911 7.818981170654297 2.761090040206909 C 7.257580757141113 3.004400014877319 6.715761184692383 3.305789947509766 6.208590984344482 3.656889915466309 C 5.704751014709473 4.005680084228516 5.230690956115723 4.406509876251221 4.799601078033447 4.848229885101318 C 4.367660999298096 5.290820121765137 3.975410938262939 5.777989864349365 3.633750915527344 6.296199798583984 C 3.288550853729248 6.819769859313965 2.992020845413208 7.379570007324219 2.752410888671875 7.960030078887939 C 2.508240938186646 8.551549911499023 2.32067084312439 9.170769691467285 2.194911003112793 9.800479888916016 C 2.11623477935791 10.1944637298584 2.061151027679443 10.59569549560547 2.030071258544922 11 L 20.96993064880371 11 M 22.9394702911377 13 L 0.06053095310926437 13 C 0.02034095302224159 12.59844017028809 9.5367431640625e-07 12.18920993804932 9.5367431640625e-07 11.78361034393311 C 9.5367431640625e-07 10.98410987854004 0.07861095666885376 10.18511009216309 0.2336409538984299 9.408809661865234 C 0.3847309648990631 8.652259826660156 0.6101709604263306 7.908070087432861 0.9037209749221802 7.196919918060303 C 1.191940903663635 6.498690128326416 1.548671007156372 5.825250148773193 1.964010953903198 5.195300102233887 C 2.375401020050049 4.571340084075928 2.847861051559448 3.98459005355835 3.368260860443115 3.451349973678589 C 3.888660907745361 2.91811990737915 4.461290836334229 2.434010028839111 5.070220947265625 2.012470006942749 C 5.685000896453857 1.586879968643188 6.342240810394287 1.221349954605103 7.02367115020752 0.9260200262069702 C 7.717680931091309 0.6252300143241882 8.443970680236816 0.3942199945449829 9.182340621948242 0.2393999993801117 C 9.939960479736328 0.08055000007152557 10.71974086761475 -8.881784197001252e-16 11.50000095367432 -8.881784197001252e-16 C 12.28025054931641 -8.881784197001252e-16 13.06001091003418 0.08055000007152557 13.81763076782227 0.2393999993801117 C 14.55601119995117 0.3942300081253052 15.28229141235352 0.6252400279045105 15.9763011932373 0.9260200262069702 C 16.65773010253906 1.221349954605103 17.31496047973633 1.586879968643188 17.92974090576172 2.012470006942749 C 18.53867149353027 2.434000015258789 19.11130142211914 2.918109893798828 19.63171005249023 3.451349973678589 C 20.1521110534668 3.98459005355835 20.62457084655762 4.571340084075928 21.03597068786621 5.195300102233887 C 21.45132064819336 5.825270175933838 21.80806159973145 6.498710155487061 22.09626007080078 7.196919918060303 C 22.38982009887695 7.908050060272217 22.61527061462402 8.652239799499512 22.76636123657227 9.408809661865234 C 22.92139053344727 10.18511009216309 23 10.98410034179688 23 11.78361034393311 C 23 12.18935966491699 22.97964096069336 12.59858989715576 22.93948173522949 12.9999303817749 L 22.9394702911377 13 Z" stroke="none" fill="#776f3d"/>
    </g>
  </g>
</svg>
