<svg xmlns="http://www.w3.org/2000/svg" width="33.842" height="38.975" viewBox="0 0 33.842 38.975">
  <g id="Group_5684" data-name="Group 5684" transform="translate(1 1)">
    <path id="Path_9441" data-name="Path 9441" d="M36.346,20.847C37.47,10.5,29.944,7.025,22.266,7.025a14.067,14.067,0,0,0-9.749,24.223V42.665A1.335,1.335,0,0,0,13.852,44H26.3a1.386,1.386,0,0,0,1.386-1.386v-.69a2.257,2.257,0,0,1,2.257-2.257h2.022a4.387,4.387,0,0,0,4.387-4.387V30.857h1.459a2.19,2.19,0,0,0,1.959-3.169ZM12.2,23.167" transform="translate(-8.184 -7.025)" fill="none" stroke="#776f3d" stroke-linecap="round" stroke-linejoin="round" stroke-width="2"/>
    <path id="Path_9442" data-name="Path 9442" d="M25.288,14.427l-2.252,4.563L18,19.723l3.644,3.552-.86,5.016,4.5-2.368,4.5,2.368-.86-5.016,3.644-3.552-5.036-.732Z" transform="translate(-10.577 -7.025)" fill="none" stroke="#776f3d" stroke-linejoin="round" stroke-width="1.617"/>
  </g>
</svg>
