<svg xmlns="http://www.w3.org/2000/svg" width="21" height="24" viewBox="0 0 21 24">
  <path id="Icon_metro-attachment" data-name="Icon metro-attachment" d="M18.39,9.593,16.868,8.072,9.255,15.683a3.229,3.229,0,0,0,4.567,4.567l9.135-9.134A5.382,5.382,0,1,0,15.346,3.5l-9.591,9.59-.021.02A7.507,7.507,0,0,0,16.351,23.73l.019-.021h0l6.547-6.546-1.523-1.522-6.547,6.545-.02.02a5.353,5.353,0,0,1-7.572-7.57l.021-.02h0l9.593-9.59a3.229,3.229,0,0,1,4.568,4.567L12.3,18.727a1.076,1.076,0,1,1-1.523-1.522L18.39,9.593Z" transform="translate(-3.535 -1.928)" fill="#f74d2d"/>
</svg>
