<svg xmlns="http://www.w3.org/2000/svg" width="26" height="26" viewBox="0 0 26 26">
  <g id="Icon_feather-settings" data-name="Icon feather-settings" transform="translate(-0.5 -0.5)">
    <path id="Path_9497" data-name="Path 9497" d="M22.5,18A4.5,4.5,0,1,1,18,13.5,4.5,4.5,0,0,1,22.5,18Z" transform="translate(-4.5 -4.5)" fill="none" stroke="#fa4e2e" stroke-linecap="round" stroke-linejoin="round" stroke-width="2"/>
    <path id="Path_9498" data-name="Path 9498" d="M21.573,16.773a1.8,1.8,0,0,0,.36,1.985l.065.065a2.183,2.183,0,1,1-3.087,3.087l-.065-.065a1.815,1.815,0,0,0-3.076,1.287v.185a2.182,2.182,0,0,1-4.364,0v-.1a1.8,1.8,0,0,0-1.178-1.647,1.8,1.8,0,0,0-1.985.36L8.176,22a2.183,2.183,0,1,1-3.087-3.087l.065-.065a1.815,1.815,0,0,0-1.287-3.076H3.682a2.182,2.182,0,1,1,0-4.364h.1a1.8,1.8,0,0,0,1.647-1.178,1.8,1.8,0,0,0-.36-1.985L5,8.176A2.183,2.183,0,1,1,8.089,5.089l.065.065a1.8,1.8,0,0,0,1.985.36h.087a1.8,1.8,0,0,0,1.091-1.647V3.682a2.182,2.182,0,1,1,4.364,0v.1a1.815,1.815,0,0,0,3.076,1.287L18.824,5a2.183,2.183,0,1,1,3.087,3.087l-.065.065a1.8,1.8,0,0,0-.36,1.985v.087a1.8,1.8,0,0,0,1.647,1.091h.185a2.182,2.182,0,0,1,0,4.364h-.1a1.8,1.8,0,0,0-1.647,1.091Z" transform="translate(0 0)" fill="none" stroke="#fa4e2e" stroke-linecap="round" stroke-linejoin="round" stroke-width="2"/>
  </g>
</svg>
