<svg xmlns="http://www.w3.org/2000/svg" width="159" height="30" viewBox="0 0 159 30">
  <g id="Group_6" data-name="Group 6" transform="translate(-4322.116 -2491.111)">
    <text id="Uxmint.design" transform="translate(4359.116 2512)" fill="#fa4e2e" font-size="18" font-family="CenturyGothic-Bold, Century Gothic" font-weight="700"><tspan x="0" y="0">uxmint.design</tspan></text>
    <g id="Artboard1" transform="translate(4322.116 2491.111)">
      <rect id="Rectangle_2" data-name="Rectangle 2" width="30.953" height="30" transform="translate(0 0)" fill="none"/>
      <g id="Group_2" data-name="Group 2" transform="translate(0.468 0.709)">
        <path id="Path_2" data-name="Path 2" d="M18333,10479.855a14.393,14.393,0,1,0,14.873,14.385,13.933,13.933,0,0,0-.312-2.958A14.78,14.78,0,0,0,18333,10479.855Zm0,1.521a13.21,13.21,0,0,1,13.018,10.218,12.331,12.331,0,0,1,.283,2.646,13.307,13.307,0,1,1-13.3-12.864Zm9.506,13.956a9.736,9.736,0,0,1-5.875,7.43,9.916,9.916,0,0,1-5.289.561,9.736,9.736,0,0,1-7.75-7.339,10.333,10.333,0,0,1-.062-3.651,7.318,7.318,0,0,1,.441-1.439c.066-.111.074-.158.2-.226a.383.383,0,0,1,.279-.041l.123.063a.827.827,0,0,1,.1.108.364.364,0,0,1,.045.331,8.022,8.022,0,0,0,.246,4.381l.027.064a8.35,8.35,0,0,0,6.592,5.12,7.406,7.406,0,0,0,3.643-.4,6.77,6.77,0,0,0,4.145-7.439,5.75,5.75,0,0,0-3.359-4.1,5.348,5.348,0,0,0-4.4-.071,3.651,3.651,0,0,0-1.9,2.085,3.435,3.435,0,0,0,.074,2.325,2.037,2.037,0,0,0,2.066,1.243.766.766,0,0,0,.676-.647,1.587,1.587,0,0,1,.219-.644,1.792,1.792,0,0,1,1.395-.853,3.384,3.384,0,0,1,.359.008c.119.026.238.041.352.077a1.777,1.777,0,0,1,1.139,1.156,1.672,1.672,0,0,1,.049.675,4.119,4.119,0,0,1-2.477,3.258c-2.16.879-4.744-.3-6.191-2.091a5.581,5.581,0,0,1-1.021-5.129,7.168,7.168,0,0,1,5.336-4.921,8.009,8.009,0,0,1,1.832-.206,9.347,9.347,0,0,1,6.334,2.513A8.99,8.99,0,0,1,18342.508,10495.332Z" transform="translate(-18318.129 -10479.855)" fill="#fa4e2e" fill-rule="evenodd"/>
      </g>
    </g>
  </g>
</svg>
