<svg xmlns="http://www.w3.org/2000/svg" width="73.078" height="38.704" viewBox="0 0 73.078 38.704">
  <g id="sify" transform="translate(-1015 493.751)">
    <g id="Group_5605" data-name="Group 5605" transform="translate(1015 -493.751)">
      <path id="Path_9304" data-name="Path 9304" d="M1190.993-493.751c.358.048.717.094,1.074.145a16.788,16.788,0,0,1,2.249.5l.33.093c.108.03.141.089.1.2q-.55,1.4-1.095,2.807c-.087.225-.177.449-.262.675-.046.124-.105.154-.245.109a10.691,10.691,0,0,0-1.869-.45,2.973,2.973,0,0,0-2.724,1.009,4.41,4.41,0,0,0-1.142,2.958c-.005.21,0,.42,0,.63,0,.132.054.186.183.179.07,0,.14,0,.21,0q3.809,0,7.619,0a3.258,3.258,0,0,1,1.516.317,2.341,2.341,0,0,1,1.078,1.332c.3.769.6,1.539.906,2.308q.546,1.384,1.1,2.766.695,1.756,1.388,3.513.608,1.543,1.215,3.087.245.621.5,1.239c.02.048.019.129.092.129s.077-.076.1-.127q.6-1.679,1.2-3.359.693-1.95,1.384-3.9.526-1.482,1.054-2.964c.068-.19.047-.216-.163-.216h-2.922c-.248,0-.258-.011-.259-.258q0-1.8,0-3.607c0-.247.008-.255.259-.256h9.547c.227,0,.244.023.168.222q-.8,2.131-1.61,4.262-.92,2.444-1.835,4.89-.854,2.276-1.706,4.552-.9,2.373-1.8,4.743-.843,2.22-1.686,4.44a24.969,24.969,0,0,1-1.284,3.1,6.779,6.779,0,0,1-2.05,2.4,6.351,6.351,0,0,1-2.581,1.029,19.16,19.16,0,0,1-3.154.211c-.311,0-.623-.027-.934-.025-.182,0-.228-.081-.227-.244,0-.636,0-1.272,0-1.908,0-.674,0-1.349,0-2.023,0-.177.042-.241.237-.237a10.833,10.833,0,0,0,2.393-.159,4.317,4.317,0,0,0,2.368-1.142,2.647,2.647,0,0,0,.724-1.74,8.072,8.072,0,0,0-.479-2.824c-.322-1.059-.72-2.091-1.133-3.118q-.687-1.707-1.372-3.414c-.4-.985-.8-1.967-1.2-2.952-.484-1.2-.963-2.407-1.447-3.61-.2-.5-.407-.988-.606-1.484a1.273,1.273,0,0,0-1.313-.843c-1.693.006-3.386,0-5.079,0-.305,0-.306,0-.306.3v16.586c0,.064-.005.128,0,.191.017.168-.061.221-.223.22q-2.263-.005-4.525,0c-.213,0-.233-.1-.233-.27q0-5.172,0-10.345v-6.375c0-.308,0-.308-.316-.308h-3.724c-.273,0-.275,0-.275-.279q0-1.775,0-3.55c0-.3,0-.3.293-.3h3.743c.287,0,.3-.016.317-.3a11.1,11.1,0,0,1,.677-3.408,7.88,7.88,0,0,1,3.605-4.286,7.116,7.116,0,0,1,2.93-.834,1.411,1.411,0,0,0,.166-.032Z" transform="translate(-1149.354 493.751)" fill="#776f3d"/>
      <path id="Path_9305" data-name="Path 9305" d="M1022.329-445.859a14.529,14.529,0,0,1,3.711.445,15.048,15.048,0,0,1,2.572.943c.171.079.2.167.134.34-.434,1.154-.86,2.312-1.285,3.47-.045.122-.083.171-.209.07a5.581,5.581,0,0,0-2.3-1.059,8.881,8.881,0,0,0-2.443-.216,3.165,3.165,0,0,0-1.361.327,1.753,1.753,0,0,0-.936,1.516,2.031,2.031,0,0,0,1.2,1.941,15.894,15.894,0,0,0,2.246,1.089,24.783,24.783,0,0,1,3.019,1.37,6.59,6.59,0,0,1,2.807,2.874,6.243,6.243,0,0,1,.543,2.189,6.774,6.774,0,0,1-.194,2.23,5.4,5.4,0,0,1-2.1,3.047,8.114,8.114,0,0,1-3.12,1.361,14.2,14.2,0,0,1-3.564.28,10.574,10.574,0,0,1-3.007-.456,18,18,0,0,1-2.651-1.164c-.313-.164-.307-.162-.162-.485.509-1.13,1.013-2.263,1.522-3.394.11-.245.117-.246.331-.087a7.919,7.919,0,0,0,3.168,1.445,7.112,7.112,0,0,0,3.028.018,1.925,1.925,0,0,0,1.529-2.416,2.48,2.48,0,0,0-.946-1.6,11.141,11.141,0,0,0-2.33-1.327c-.866-.4-1.758-.74-2.593-1.207a8.578,8.578,0,0,1-2.977-2.54,5.345,5.345,0,0,1-.951-2.779,5.52,5.52,0,0,1,.6-2.952,5.039,5.039,0,0,1,1.561-1.749,7.909,7.909,0,0,1,3.461-1.369A10.99,10.99,0,0,1,1022.329-445.859Z" transform="translate(-1015 454.323)" fill="#776f3d"/>
      <path id="Path_9306" data-name="Path 9306" d="M1120.168-432.94v10.383c0,.329,0,.329-.321.329h-4.392c-.338,0-.338,0-.338-.331v-16.548a1.715,1.715,0,0,1,0-.191c.019-.172-.049-.237-.226-.233-.445.01-.891,0-1.337,0-.554,0-1.108,0-1.661,0-.228,0-.25-.023-.25-.254,0-1.215,0-2.43,0-3.646,0-.164.053-.224.22-.224q4.039.005,8.077,0c.221,0,.227.011.227.288v10.421Z" transform="translate(-1094.565 452.506)" fill="#776f3d"/>
      <path id="Path_9307" data-name="Path 9307" d="M1398.48-487.519c-.9,0-1.795,0-2.692,0-.2,0-.2-.106-.2-.244q0-1.956,0-3.912c0-.471.006-.942,0-1.412,0-.178.054-.25.24-.25q2.682.007,5.365,0c.153,0,.215.049.214.209q-.005,2.7,0,5.4c0,.184-.093.207-.238.207q-1.346,0-2.692,0Z" transform="translate(-1328.332 493.408)" fill="#776f3d"/>
    </g>
  </g>
</svg>
