<svg xmlns="http://www.w3.org/2000/svg" width="16.866" height="16.866" viewBox="0 0 16.866 16.866">
  <g id="video-play-button" style="isolation: isolate">
    <g id="Group_489" data-name="Group 489">
      <g id="Group_488" data-name="Group 488">
        <g id="Group_487" data-name="Group 487">
          <path id="Path_397" data-name="Path 397" d="M13.7,0H3.162A3.162,3.162,0,0,0,0,3.162V13.7a3.162,3.162,0,0,0,3.162,3.162H13.7A3.162,3.162,0,0,0,16.866,13.7V3.162A3.162,3.162,0,0,0,13.7,0Zm-.09,10.321a1.944,1.944,0,0,1-1.336,1.728,56.721,56.721,0,0,1-7.69,0c-.772-.1-1.279-1.027-1.336-1.728a19.93,19.93,0,0,1,0-3.786c.057-.7.577-1.625,1.336-1.71a53.8,53.8,0,0,1,7.69,0c.858.032,1.279.916,1.336,1.618A21.279,21.279,0,0,1,13.614,10.321Z"/>
          <path id="Path_398" data-name="Path 398" d="M222.477,194.851l3.117-2.078-3.117-2.078Z" transform="translate(-215.074 -184.34)"/>
        </g>
      </g>
    </g>
  </g>
</svg>
