<svg xmlns="http://www.w3.org/2000/svg" width="27.672" height="39.678" viewBox="0 0 27.672 39.678">
  <g id="Group_5432" data-name="Group 5432" transform="translate(-823.569 -217.728)">
    <path id="Path_12716" data-name="Path 12716" d="M-5385.325,14488.788a23.576,23.576,0,0,0-.249-3.659,3.37,3.37,0,0,0-1.3-2.231c-1.114-.922-4.726-5.266-4.726-5.266l-2.786-3.35a1.387,1.387,0,0,1-.191-.539,1.919,1.919,0,0,1,.4-1.3,2.338,2.338,0,0,1,1.572-.394.458.458,0,0,1,.242.045,1.148,1.148,0,0,1,.253.142l5.569,3.939.1-18.109s.4-1.885,2-1.852a2.4,2.4,0,0,1,2.418,2.465c-.009,1.179,0,9.251,0,9.251s.807-2.544,2.527-2.109a2.979,2.979,0,0,1,1.665,1,3.838,3.838,0,0,1,.384,2.357,3.611,3.611,0,0,1,1.079-1.459,2.6,2.6,0,0,1,1.6-.3,2.6,2.6,0,0,1,1.5,1.011,4.061,4.061,0,0,1,.309,2.063s1.062-2.2,2.526-1.637a2.2,2.2,0,0,1,1.529,1.8,31.153,31.153,0,0,1-.548,4.224,28.673,28.673,0,0,1-1.2,3.982l-1.455,2.636a13.952,13.952,0,0,0-1.5,4.565c-.027,1.744,0,2.712,0,2.712Z" transform="translate(6219.149 -14232.383)" fill="none" stroke="#707070" stroke-width="2"/>
    <path id="Path_12717" data-name="Path 12717" d="M-5031.9,13309.731l.228-.544a14.168,14.168,0,0,1,1.707-6.527,9.192,9.192,0,0,1,7-3.933,9.748,9.748,0,0,1,6.6,3.364,13.774,13.774,0,0,1,2.466,7.1" transform="translate(5858 -13080)" fill="none" stroke="#60d6c9" stroke-width="2"/>
  </g>
</svg>
