<svg xmlns="http://www.w3.org/2000/svg" width="51.101" height="56.831" viewBox="0 0 51.101 56.831">
  <g id="Group_5434" data-name="Group 5434" transform="translate(-812.758 -371.64)">
    <g id="Group_5418" data-name="Group 5418" transform="translate(-6091.738 -15961.707) rotate(-45)">
      <g id="Group_5294" data-name="Group 5294" transform="translate(-6692.973 16450.734)">
        <path id="Path_12619" data-name="Path 12619" d="M-6334.733,16360.118a35.864,35.864,0,0,0-12.409,2.512,35.516,35.516,0,0,0-10.217,7.414l10.866,2.262Z" transform="translate(6357.359 -16350.053)" fill="none" stroke="#60d6c9" stroke-width="2"/>
        <path id="Path_12620" data-name="Path 12620" d="M0,0A35.88,35.88,0,0,1,12.41,2.512,35.564,35.564,0,0,1,22.626,9.927L11.76,12.188Z" transform="matrix(0.259, 0.966, -0.966, 0.259, 30.101, 17.724)" fill="none" stroke="#60d6c9" stroke-width="2"/>
        <path id="Path_12618" data-name="Path 12618" d="M-6329.429,16334.49l9.427-10.762a34.924,34.924,0,0,1,7.5-6.09,26.176,26.176,0,0,1,9.271-3.564,29.444,29.444,0,0,1,6.952-.65,20.627,20.627,0,0,1-.441,7.281,37.792,37.792,0,0,1-4,9.539,34.018,34.018,0,0,1-6.157,7.545l-10.66,9.342-12.325-12.18Z" transform="translate(6338.95 -16313.412)" fill="#fff" stroke="#707070" stroke-width="2"/>
        <g id="Ellipse_1052" data-name="Ellipse 1052" transform="translate(26.297 7.405)" fill="none" stroke="#707070" stroke-width="2">
          <ellipse cx="4.694" cy="4.941" rx="4.694" ry="4.941" stroke="none"/>
          <ellipse cx="4.694" cy="4.941" rx="3.694" ry="3.941" fill="none"/>
        </g>
        <path id="Path_12621" data-name="Path 12621" d="M-6358.079,16440.6l-4.365,1.977-3.051,1.012s-.783-.139-.556-.82,1.938-5.469,1.938-5.469a5.855,5.855,0,0,1,1.569-2.521,4.36,4.36,0,0,1,2.3-.789,3.516,3.516,0,0,1,3.5,2.264C-6355.817,16438.744-6358.079,16440.6-6358.079,16440.6Z" transform="translate(6370.353 -16405.871)" fill="none" stroke="#707070" stroke-width="2"/>
      </g>
    </g>
  </g>
</svg>
