<svg xmlns="http://www.w3.org/2000/svg" width="43.983" height="38.257" viewBox="0 0 43.983 38.257">
  <g id="Group_5433" data-name="Group 5433" transform="translate(-815 -298.359)">
    <g id="Union_34" data-name="Union 34" transform="translate(815 303)" fill="#fff">
      <path d="M 5 26 L 1 26 L 1 4.924505233764648 L 3 1.838645100593567 L 5 4.924505233764648 L 5 26 Z" stroke="none"/>
      <path d="M 4 25 L 4 5.220225811004639 L 3 3.677295684814453 L 2 5.220225811004639 L 2 25 L 4 25 M 6 27 L -4.440892098500626e-16 27 L -4.440892098500626e-16 4.628789901733398 L 3 -1.77635683940025e-15 L 6 4.628789901733398 L 6 27 Z" stroke="none" fill="#41e5d3"/>
    </g>
    <path id="Path_12714" data-name="Path 12714" d="M-5032.6,13409.267v-22.333l15.994,6.158,16.462-6.158.592,22.333-17.055,6.545Z" transform="translate(5857.515 -13080.271)" fill="none" stroke="#707070" stroke-width="2"/>
    <path id="Path_12715" data-name="Path 12715" d="M-5033.122,13386.663l16.416-7.213,16.447,7.213" transform="translate(5857.535 -13079.999)" fill="none" stroke="#707070" stroke-width="2"/>
    <line id="Line_1050" data-name="Line 1050" y2="22.169" transform="translate(840.434 312.992)" fill="none" stroke="#707070" stroke-width="2"/>
  </g>
</svg>
