<svg xmlns="http://www.w3.org/2000/svg" xmlns:xlink="http://www.w3.org/1999/xlink" width="117" height="117" viewBox="0 0 117 117">
  <defs>
    <filter id="Ellipse_1104" x="0" y="0" width="117" height="117" filterUnits="userSpaceOnUse">
      <feOffset dy="3" input="SourceAlpha"/>
      <feGaussianBlur stdDeviation="10" result="blur"/>
      <feFlood flood-opacity="0.09"/>
      <feComposite operator="in" in2="blur"/>
      <feComposite in="SourceGraphic"/>
    </filter>
  </defs>
  <g id="Group_5441" data-name="Group 5441" transform="translate(-168 -5817)">
    <g transform="matrix(1, 0, 0, 1, 168, 5817)" filter="url(#Ellipse_1104)">
      <circle id="Ellipse_1104-2" data-name="Ellipse 1104" cx="28.5" cy="28.5" r="28.5" transform="translate(30 27)" fill="#fff"/>
    </g>
    <path id="Path_12670" data-name="Path 12670" d="M-3246.23,14899.44l9.885-9.216" transform="translate(3458.289 -9015.965)" fill="none" stroke="#60d6c9" stroke-linecap="round" stroke-width="4"/>
    <g id="Path_12719" data-name="Path 12719" transform="translate(219 5859.59)" fill="none">
      <path d="M10,0a10.169,10.169,0,0,1,8.872,5.224A9.133,9.133,0,0,1,20,9.705,9.856,9.856,0,0,1,10,19.41,9.856,9.856,0,0,1,0,9.705,9.856,9.856,0,0,1,10,0Z" stroke="none"/>
      <path d="M 10 3.999998092651367 C 6.691590309143066 3.999998092651367 4 6.559288024902344 4 9.705078125 C 4 12.85086822509766 6.691590309143066 15.41015815734863 10 15.41015815734863 C 13.30841064453125 15.41015815734863 16 12.85086822509766 16 9.705078125 C 16 8.617398262023926 15.68929004669189 7.702407836914062 15.42321968078613 7.249358177185059 L 15.41749954223633 7.239607810974121 L 15.41181945800781 7.229827880859375 C 14.22191047668457 5.177227973937988 12.24937057495117 3.999998092651367 10 3.999998092651367 M 10 -1.9073486328125e-06 C 13.73893928527832 -1.9073486328125e-06 16.99860954284668 1.991458892822266 18.87237930297852 5.223697662353516 C 19.53289031982422 6.348367691040039 20 7.973777770996094 20 9.705078125 C 20 15.06504821777344 15.52285003662109 19.41015815734863 10 19.41015815734863 C 4.477149963378906 19.41015815734863 0 15.06504821777344 0 9.705078125 C 0 4.345108032226562 4.477149963378906 -1.9073486328125e-06 10 -1.9073486328125e-06 Z" stroke="none" fill="#60d6c9"/>
    </g>
  </g>
</svg>
