<svg xmlns="http://www.w3.org/2000/svg" width="93" height="93" viewBox="0 0 93 93">
  <g id="Group_5262" data-name="Group 5262" transform="translate(-1056 -1160)">
    <circle id="Ellipse_570" data-name="Ellipse 570" cx="46.5" cy="46.5" r="46.5" transform="translate(1056 1160)" fill="#fff"/>
    <g id="manager" transform="translate(1081 1187)">
      <g id="Group_1322" data-name="Group 1322">
        <g id="Group_1321" data-name="Group 1321">
          <circle id="Ellipse_571" data-name="Ellipse 571" cx="11.59" cy="11.59" r="11.59" transform="translate(9.658)" fill="#60d6c9"/>
          <path id="Path_6333" data-name="Path 6333" d="M37.742,281.689a42.762,42.762,0,0,0-8.213-3.189.962.962,0,0,0-1.16.606L24.41,290.15l-1.2-5.994,1.851-5.552a.967.967,0,0,0-.917-1.271H18.351a.967.967,0,0,0-.917,1.271l1.851,5.552-1.2,5.994-3.959-11.044a.963.963,0,0,0-1.16-.606,42.757,42.757,0,0,0-8.213,3.189A8.691,8.691,0,0,0,0,289.441v1.414a3.868,3.868,0,0,0,3.863,3.863H38.633a3.868,3.868,0,0,0,3.863-3.863v-1.414A8.691,8.691,0,0,0,37.742,281.689Z" transform="translate(0 -252.222)" fill="#60d6c9"/>
        </g>
      </g>
    </g>
  </g>
</svg>
