<svg xmlns="http://www.w3.org/2000/svg" width="93" height="93" viewBox="0 0 93 93">
  <g id="Group_5263" data-name="Group 5263" transform="translate(-635 -1160)">
    <circle id="Ellipse_569" data-name="Ellipse 569" cx="46.5" cy="46.5" r="46.5" transform="translate(635 1160)" fill="#fff"/>
    <g id="start-button" transform="translate(659 1184)">
      <path id="Path_6325" data-name="Path 6325" d="M11.573,138.268l-3.942.3a3.517,3.517,0,0,0-2.68,1.577L.405,147.025a2.436,2.436,0,0,0,1.659,3.751l3.609.559A32.317,32.317,0,0,1,11.573,138.268Z" transform="translate(0 -125.982)" fill="#60d6c9"/>
      <path id="Path_6326" data-name="Path 6326" d="M226.682,387.663l.559,3.609a2.434,2.434,0,0,0,3.751,1.659l6.875-4.546a3.517,3.517,0,0,0,1.577-2.68l.3-3.942A32.315,32.315,0,0,1,226.682,387.663Z" transform="translate(-206.539 -347.841)" fill="#60d6c9"/>
      <path id="Path_6327" data-name="Path 6327" d="M102.614,251.847a2.291,2.291,0,0,0,.377-.031,26.115,26.115,0,0,0,5.412-1.535L93.57,235.448a26.111,26.111,0,0,0-1.535,5.412,2.326,2.326,0,0,0,.655,2.024l8.277,8.277A2.334,2.334,0,0,0,102.614,251.847Z" transform="translate(-83.829 -214.526)" fill="#60d6c9"/>
      <path id="Path_6328" data-name="Path 6328" d="M153.859,20.171A35.938,35.938,0,0,0,157.434,2.26,2.336,2.336,0,0,0,155.227.053C154.661.022,153.99,0,153.233,0a35.213,35.213,0,0,0-15.917,3.628,36.209,36.209,0,0,0-14.4,14.72,1.341,1.341,0,0,1,.124.108l15.995,15.995a1.339,1.339,0,0,1,.108.124A36.21,36.21,0,0,0,153.859,20.171ZM138.444,9.618a6.664,6.664,0,1,1-1.952,4.712,6.672,6.672,0,0,1,1.952-4.712Z" transform="translate(-111.991)" fill="#60d6c9"/>
      <path id="Path_6329" data-name="Path 6329" d="M306.9,123.118a4,4,0,1,0-1.171-2.827A4,4,0,0,0,306.9,123.118Z" transform="translate(-278.564 -105.96)" fill="#60d6c9"/>
      <path id="Path_6330" data-name="Path 6330" d="M1.637,349.982a1.328,1.328,0,0,0,.942-.39l4.352-4.352a1.333,1.333,0,0,0-1.885-1.885L.695,347.707a1.333,1.333,0,0,0,.943,2.275Z" transform="translate(-0.278 -312.489)" fill="#60d6c9"/>
      <path id="Path_6331" data-name="Path 6331" d="M10.645,388.236a1.333,1.333,0,0,0-1.885,0L.394,396.6a1.333,1.333,0,1,0,1.885,1.885l8.366-8.366a1.333,1.333,0,0,0,0-1.885Z" transform="translate(-0.003 -353.382)" fill="#60d6c9"/>
      <path id="Path_6332" data-name="Path 6332" d="M94.809,433.117l-4.352,4.352a1.333,1.333,0,1,0,1.885,1.885L96.693,435a1.333,1.333,0,1,0-1.885-1.885Z" transform="translate(-82.064 -394.275)" fill="#60d6c9"/>
    </g>
  </g>
</svg>
