<svg xmlns="http://www.w3.org/2000/svg" width="253" height="134" viewBox="0 0 253 134">
  <g id="Group_5430" data-name="Group 5430" transform="translate(-118 -2095)">
    <g id="Group_5384" data-name="Group 5384" transform="translate(289.006 2095)">
      <g id="Group_5364" data-name="Group 5364" transform="translate(0 0)">
        <g id="Group_5327" data-name="Group 5327" transform="translate(0 0)">
          <path id="Union_27" data-name="Union 27" d="M43.935,64.8a29.68,29.68,0,0,1-13.751.069l-3.606,8.189L17.272,68.68l3.512-7.848a29.363,29.363,0,0,1-7.8-7.527L4,56.975.373,47.4l8.253-3.317a29.211,29.211,0,0,1-.395-13.457L0,27.371l4.077-9.4,7.951,3.194a29.351,29.351,0,0,1,8.748-8.949l-3.5-7.956L26.139,0l3.693,8.252a29.669,29.669,0,0,1,14.452.072L48.01,0l8.867,4.258L53.3,12.377A29.327,29.327,0,0,1,62.54,22.409l7.914-3.181,3.4,9.189L65.8,31.71a29.264,29.264,0,0,1-.255,10.954l8.614,3.46-3.969,8.962-8.337-3.292a29.345,29.345,0,0,1-8.563,8.875l3.585,8.01-9.306,4.381Z" fill="#a0a3f2"/>
        </g>
      </g>
      <ellipse id="Ellipse_1069" data-name="Ellipse 1069" cx="17" cy="17.5" rx="17" ry="17.5" transform="translate(19.994 20)" fill="#fff"/>
    </g>
    <g id="Group_5113" data-name="Group 5113" transform="translate(118 2095.897)">
      <g id="Group_3046" data-name="Group 3046" transform="translate(0 0)">
        <g id="Group_2870" data-name="Group 2870" transform="translate(0 0)">
          <rect id="Rectangle_3173" data-name="Rectangle 3173" width="156" height="100" rx="3" transform="translate(13 0.104)" fill="#a0a3f2"/>
          <rect id="Rectangle_3174" data-name="Rectangle 3174" width="151" height="94" rx="2" transform="translate(16 3.104)" fill="#fff"/>
          <rect id="Rectangle_3172" data-name="Rectangle 3172" width="28" height="54" rx="3" transform="translate(0 61.104)" fill="#a0a3f2"/>
          <path id="Path_7921" data-name="Path 7921" d="M4.673,0,5.858,1.238H18.971L20.393,0a4.893,4.893,0,0,1,4.673,5.086v40.92a4.893,4.893,0,0,1-4.673,5.086H4.673A4.893,4.893,0,0,1,0,46.006V5.086A4.893,4.893,0,0,1,4.673,0Z" transform="translate(1.39 62.252)" fill="#fff"/>
          <path id="Path_7922" data-name="Path 7922" d="M-7068.67,7163l-11.809,13.754h37.456L-7054.882,7163" transform="translate(7153.233 -7064.106)" fill="#a0a3f2"/>
          <rect id="Rectangle_3175" data-name="Rectangle 3175" width="19" height="2" transform="translate(4 68.104)" fill="#ebecfd"/>
          <rect id="Rectangle_3178" data-name="Rectangle 3178" width="141" height="9" transform="translate(20 8.104)" fill="#a0a3f2" opacity="0.209"/>
          <rect id="Rectangle_3179" data-name="Rectangle 3179" width="33" height="47" transform="translate(46 26.104)" fill="#a0a3f2" opacity="0.209"/>
          <rect id="Rectangle_3182" data-name="Rectangle 3182" width="19" height="25" transform="translate(4 73.104)" fill="#ebecfd"/>
          <rect id="Rectangle_3180" data-name="Rectangle 3180" width="33" height="47" transform="translate(83 26.104)" fill="#a0a3f2" opacity="0.209"/>
          <rect id="Rectangle_3181" data-name="Rectangle 3181" width="34" height="45" transform="translate(118 28.104)" fill="#a0a3f2" opacity="0.209"/>
          <rect id="Rectangle_3176" data-name="Rectangle 3176" width="13" height="3" transform="translate(7 103.104)" fill="#ebecfd"/>
          <rect id="Rectangle_3177" data-name="Rectangle 3177" width="13" height="3" transform="translate(7 99.104)" fill="#ebecfd"/>
        </g>
        <g id="_x3C_Group_x3E__4_" transform="translate(98.08 48.303)">
          <g id="Group_2875" data-name="Group 2875" transform="translate(5.633 5.632)">
            <path id="Path_7930" data-name="Path 7930" d="M189.787,192.391l-2.7-2.7-1.31,1.31a.463.463,0,0,1-.767-.181l-2.621-7.862a.463.463,0,0,1,.586-.586l7.862,2.621a.463.463,0,0,1,.181.767l-1.31,1.31,2.7,2.7a.463.463,0,0,1,0,.655l-1.965,1.965A.463.463,0,0,1,189.787,192.391Z" transform="translate(-182.362 -182.344)" fill="#a0a3f2"/>
          </g>
          <g id="Group_2876" data-name="Group 2876" transform="translate(5.56)">
            <path id="Path_7931" data-name="Path 7931" d="M180.463,3.706A.463.463,0,0,1,180,3.243V.463a.463.463,0,0,1,.927,0v2.78A.463.463,0,0,1,180.463,3.706Z" transform="translate(-180)" fill="#a0a3f2"/>
          </g>
          <g id="Group_2877" data-name="Group 2877" transform="translate(1.628 1.628)">
            <path id="Path_7932" data-name="Path 7932" d="M54.821,55.476l-1.966-1.966a.463.463,0,0,1,.655-.655l1.966,1.966a.463.463,0,0,1-.655.655Z" transform="translate(-52.72 -52.72)" fill="#a0a3f2"/>
          </g>
          <g id="Group_2878" data-name="Group 2878" transform="translate(1.628 7.525)">
            <path id="Path_7933" data-name="Path 7933" d="M52.855,246.39a.463.463,0,0,1,0-.655l1.966-1.966a.463.463,0,1,1,.655.655l-1.966,1.966A.463.463,0,0,1,52.855,246.39Z" transform="translate(-52.72 -243.634)" fill="#a0a3f2"/>
          </g>
          <g id="Group_2879" data-name="Group 2879" transform="translate(7.525 1.628)">
            <path id="Path_7934" data-name="Path 7934" d="M243.768,55.477a.463.463,0,0,1,0-.655l1.966-1.966a.463.463,0,0,1,.655.655l-1.966,1.966A.463.463,0,0,1,243.768,55.477Z" transform="translate(-243.633 -52.721)" fill="#a0a3f2"/>
          </g>
          <g id="Group_2880" data-name="Group 2880" transform="translate(0 5.56)">
            <path id="Path_7935" data-name="Path 7935" d="M3.243,180.927H.463a.463.463,0,0,1,0-.927h2.78a.463.463,0,0,1,0,.927Z" transform="translate(0 -180)" fill="#a0a3f2"/>
          </g>
        </g>
      </g>
    </g>
    <rect id="Rectangle_4048" data-name="Rectangle 4048" width="83" height="97" transform="translate(288 2132)" fill="#fff"/>
    <g id="Group_5427" data-name="Group 5427" transform="translate(244.247 2171.638)">
      <path id="Path_12670" data-name="Path 12670" d="M-3229.929,14905.421l-16.3-15.2" transform="translate(3272.227 -14866.627)" fill="#fff" stroke="#a0a3f2" stroke-linecap="round" stroke-width="5"/>
      <g id="Ellipse_1065" data-name="Ellipse 1065" fill="#fff" stroke="#a0a3f2" stroke-width="5">
        <ellipse cx="15.629" cy="15.146" rx="15.629" ry="15.146" stroke="none"/>
        <ellipse cx="15.629" cy="15.146" rx="13.129" ry="12.646" fill="none"/>
      </g>
    </g>
    <g id="Group_5544" data-name="Group 5544" transform="translate(-532 509)">
      <g id="Group_5541" data-name="Group 5541">
        <rect id="Rectangle_3596" data-name="Rectangle 3596" width="32" height="8" transform="translate(825 1625)" fill="#bec0ec"/>
        <rect id="Rectangle_4140" data-name="Rectangle 4140" width="32" height="8" transform="translate(825 1634)" fill="#bec0ec"/>
        <rect id="Rectangle_4141" data-name="Rectangle 4141" width="32" height="8" transform="translate(825 1643)" fill="#bec0ec"/>
        <rect id="Rectangle_4142" data-name="Rectangle 4142" width="32" height="8" transform="translate(825 1652)" fill="#bec0ec"/>
        <rect id="Rectangle_4143" data-name="Rectangle 4143" width="32" height="8" transform="translate(825 1661)" fill="#bec0ec"/>
        <rect id="Rectangle_4144" data-name="Rectangle 4144" width="32" height="8" transform="translate(825 1670)" fill="#bec0ec"/>
        <rect id="Rectangle_4145" data-name="Rectangle 4145" width="32" height="8" transform="translate(825 1679)" fill="#bec0ec"/>
        <rect id="Rectangle_4146" data-name="Rectangle 4146" width="32" height="8" transform="translate(825 1688)" fill="#bec0ec"/>
        <rect id="Rectangle_4147" data-name="Rectangle 4147" width="32" height="8" transform="translate(825 1697)" fill="#bec0ec"/>
        <circle id="Ellipse_809" data-name="Ellipse 809" cx="2.5" cy="2.5" r="2.5" transform="translate(843 1627)" fill="#fff"/>
        <circle id="Ellipse_1174" data-name="Ellipse 1174" cx="2.5" cy="2.5" r="2.5" transform="translate(843 1636)" fill="#fff"/>
        <circle id="Ellipse_1176" data-name="Ellipse 1176" cx="2.5" cy="2.5" r="2.5" transform="translate(843 1645)" fill="#fff"/>
        <circle id="Ellipse_1178" data-name="Ellipse 1178" cx="2.5" cy="2.5" r="2.5" transform="translate(843 1654)" fill="#fff"/>
        <circle id="Ellipse_1180" data-name="Ellipse 1180" cx="2.5" cy="2.5" r="2.5" transform="translate(843 1663)" fill="#fff"/>
        <circle id="Ellipse_1182" data-name="Ellipse 1182" cx="2.5" cy="2.5" r="2.5" transform="translate(843 1672)" fill="#fff"/>
        <circle id="Ellipse_1184" data-name="Ellipse 1184" cx="2.5" cy="2.5" r="2.5" transform="translate(843 1681)" fill="#fff"/>
        <circle id="Ellipse_1186" data-name="Ellipse 1186" cx="2.5" cy="2.5" r="2.5" transform="translate(843 1690)" fill="#fff"/>
        <circle id="Ellipse_1188" data-name="Ellipse 1188" cx="2.5" cy="2.5" r="2.5" transform="translate(843 1699)" fill="#fff"/>
        <circle id="Ellipse_1173" data-name="Ellipse 1173" cx="2.5" cy="2.5" r="2.5" transform="translate(850 1627)" fill="#fff"/>
        <circle id="Ellipse_1175" data-name="Ellipse 1175" cx="2.5" cy="2.5" r="2.5" transform="translate(850 1636)" fill="#fff"/>
        <circle id="Ellipse_1177" data-name="Ellipse 1177" cx="2.5" cy="2.5" r="2.5" transform="translate(850 1645)" fill="#fff"/>
        <circle id="Ellipse_1179" data-name="Ellipse 1179" cx="2.5" cy="2.5" r="2.5" transform="translate(850 1654)" fill="#fff"/>
        <circle id="Ellipse_1181" data-name="Ellipse 1181" cx="2.5" cy="2.5" r="2.5" transform="translate(850 1663)" fill="#fff"/>
        <circle id="Ellipse_1183" data-name="Ellipse 1183" cx="2.5" cy="2.5" r="2.5" transform="translate(850 1672)" fill="#fff"/>
        <circle id="Ellipse_1185" data-name="Ellipse 1185" cx="2.5" cy="2.5" r="2.5" transform="translate(850 1681)" fill="#fff"/>
        <circle id="Ellipse_1187" data-name="Ellipse 1187" cx="2.5" cy="2.5" r="2.5" transform="translate(850 1690)" fill="#fff"/>
        <circle id="Ellipse_1189" data-name="Ellipse 1189" cx="2.5" cy="2.5" r="2.5" transform="translate(850 1699)" fill="#fff"/>
      </g>
      <g id="Group_5542" data-name="Group 5542" transform="translate(34)">
        <rect id="Rectangle_3596-2" data-name="Rectangle 3596" width="32" height="8" transform="translate(825 1625)" fill="#bec0ec"/>
        <rect id="Rectangle_4140-2" data-name="Rectangle 4140" width="32" height="8" transform="translate(825 1634)" fill="#bec0ec"/>
        <rect id="Rectangle_4141-2" data-name="Rectangle 4141" width="32" height="8" transform="translate(825 1643)" fill="#bec0ec"/>
        <rect id="Rectangle_4142-2" data-name="Rectangle 4142" width="32" height="8" transform="translate(825 1652)" fill="#bec0ec"/>
        <rect id="Rectangle_4143-2" data-name="Rectangle 4143" width="32" height="8" transform="translate(825 1661)" fill="#bec0ec"/>
        <rect id="Rectangle_4144-2" data-name="Rectangle 4144" width="32" height="8" transform="translate(825 1670)" fill="#bec0ec"/>
        <rect id="Rectangle_4145-2" data-name="Rectangle 4145" width="32" height="8" transform="translate(825 1679)" fill="#bec0ec"/>
        <rect id="Rectangle_4146-2" data-name="Rectangle 4146" width="32" height="8" transform="translate(825 1688)" fill="#bec0ec"/>
        <rect id="Rectangle_4147-2" data-name="Rectangle 4147" width="32" height="8" transform="translate(825 1697)" fill="#bec0ec"/>
        <circle id="Ellipse_809-2" data-name="Ellipse 809" cx="2.5" cy="2.5" r="2.5" transform="translate(843 1627)" fill="#fff"/>
        <circle id="Ellipse_1174-2" data-name="Ellipse 1174" cx="2.5" cy="2.5" r="2.5" transform="translate(843 1636)" fill="#fff"/>
        <circle id="Ellipse_1176-2" data-name="Ellipse 1176" cx="2.5" cy="2.5" r="2.5" transform="translate(843 1645)" fill="#fff"/>
        <circle id="Ellipse_1178-2" data-name="Ellipse 1178" cx="2.5" cy="2.5" r="2.5" transform="translate(843 1654)" fill="#fff"/>
        <circle id="Ellipse_1180-2" data-name="Ellipse 1180" cx="2.5" cy="2.5" r="2.5" transform="translate(843 1663)" fill="#fff"/>
        <circle id="Ellipse_1182-2" data-name="Ellipse 1182" cx="2.5" cy="2.5" r="2.5" transform="translate(843 1672)" fill="#fff"/>
        <circle id="Ellipse_1184-2" data-name="Ellipse 1184" cx="2.5" cy="2.5" r="2.5" transform="translate(843 1681)" fill="#fff"/>
        <circle id="Ellipse_1186-2" data-name="Ellipse 1186" cx="2.5" cy="2.5" r="2.5" transform="translate(843 1690)" fill="#fff"/>
        <circle id="Ellipse_1188-2" data-name="Ellipse 1188" cx="2.5" cy="2.5" r="2.5" transform="translate(843 1699)" fill="#fff"/>
        <circle id="Ellipse_1173-2" data-name="Ellipse 1173" cx="2.5" cy="2.5" r="2.5" transform="translate(850 1627)" fill="#fff"/>
        <circle id="Ellipse_1175-2" data-name="Ellipse 1175" cx="2.5" cy="2.5" r="2.5" transform="translate(850 1636)" fill="#fff"/>
        <circle id="Ellipse_1177-2" data-name="Ellipse 1177" cx="2.5" cy="2.5" r="2.5" transform="translate(850 1645)" fill="#fff"/>
        <circle id="Ellipse_1179-2" data-name="Ellipse 1179" cx="2.5" cy="2.5" r="2.5" transform="translate(850 1654)" fill="#fff"/>
        <circle id="Ellipse_1181-2" data-name="Ellipse 1181" cx="2.5" cy="2.5" r="2.5" transform="translate(850 1663)" fill="#fff"/>
        <circle id="Ellipse_1183-2" data-name="Ellipse 1183" cx="2.5" cy="2.5" r="2.5" transform="translate(850 1672)" fill="#fff"/>
        <circle id="Ellipse_1185-2" data-name="Ellipse 1185" cx="2.5" cy="2.5" r="2.5" transform="translate(850 1681)" fill="#fff"/>
        <circle id="Ellipse_1187-2" data-name="Ellipse 1187" cx="2.5" cy="2.5" r="2.5" transform="translate(850 1690)" fill="#fff"/>
        <circle id="Ellipse_1189-2" data-name="Ellipse 1189" cx="2.5" cy="2.5" r="2.5" transform="translate(850 1699)" fill="#fff"/>
      </g>
    </g>
  </g>
</svg>
