<svg xmlns="http://www.w3.org/2000/svg" width="533.664" height="295.333" viewBox="0 0 533.664 295.333">
  <g id="Group_5429" data-name="Group 5429" transform="translate(-741 -1648.902)">
    <path id="Union_11" data-name="Union 11" d="M42.923,117.644V99.9q-1.876-.558-3.679-1.274L26.875,111,6.642,90.762l10.75-10.748a44.323,44.323,0,0,1-3.913-8.473H0V42.924H13.478a44.276,44.276,0,0,1,2.773-6.443l-9.6-9.6L26.881,6.642,37.023,16.786a44.164,44.164,0,0,1,5.9-2.226V0H71.538V15.64a44.268,44.268,0,0,1,4.852,2.2l11.2-11.194,20.234,20.234L96.084,38.614a44.22,44.22,0,0,1,1.719,4.31H114.46V71.54H97.8a44.276,44.276,0,0,1-1.72,4.313l11.733,11.735L87.582,107.822l-11.2-11.2a44.285,44.285,0,0,1-4.849,2.2v18.82Z" transform="matrix(0.966, -0.259, 0.259, 0.966, 1133.656, 1721.914)" fill="#3cc3b4"/>
    <rect id="Rectangle_3596" data-name="Rectangle 3596" width="55" height="15" transform="translate(741 1863)" fill="#6de8da"/>
    <rect id="Rectangle_3603" data-name="Rectangle 3603" width="56" height="15" transform="translate(802 1863)" fill="#6de8da"/>
    <rect id="Rectangle_3597" data-name="Rectangle 3597" width="55" height="16" transform="translate(741 1881)" fill="#6de8da"/>
    <rect id="Rectangle_3602" data-name="Rectangle 3602" width="56" height="16" transform="translate(802 1881)" fill="#6de8da"/>
    <rect id="Rectangle_3598" data-name="Rectangle 3598" width="55" height="13" transform="translate(741 1899)" fill="#6de8da"/>
    <rect id="Rectangle_3601" data-name="Rectangle 3601" width="56" height="13" transform="translate(802 1899)" fill="#6de8da"/>
    <rect id="Rectangle_3599" data-name="Rectangle 3599" width="55" height="15" transform="translate(741 1915)" fill="#6de8da"/>
    <rect id="Rectangle_3600" data-name="Rectangle 3600" width="56" height="15" transform="translate(802 1915)" fill="#6de8da"/>
    <rect id="Rectangle_3596-2" data-name="Rectangle 3596" width="55" height="14" transform="translate(741 1794)" fill="#6de8da"/>
    <rect id="Rectangle_4020" data-name="Rectangle 4020" width="55" height="15" transform="translate(802 1792)" fill="#6de8da"/>
    <rect id="Rectangle_3597-2" data-name="Rectangle 3597" width="55" height="16" transform="translate(741 1811)" fill="#6de8da"/>
    <rect id="Rectangle_4021" data-name="Rectangle 4021" width="55" height="15" transform="translate(802 1810)" fill="#6de8da"/>
    <rect id="Rectangle_3598-2" data-name="Rectangle 3598" width="55" height="12" transform="translate(741 1830)" fill="#6de8da"/>
    <rect id="Rectangle_4019" data-name="Rectangle 4019" width="55" height="13" transform="translate(802 1828)" fill="#6de8da"/>
    <rect id="Rectangle_3599-2" data-name="Rectangle 3599" width="55" height="15" transform="translate(741 1845)" fill="#6de8da"/>
    <rect id="Rectangle_4018" data-name="Rectangle 4018" width="55" height="15" transform="translate(802 1844)" fill="#6de8da"/>
    <g id="Group_5380" data-name="Group 5380" transform="translate(-19 -261)">
      <circle id="Ellipse_809" data-name="Ellipse 809" cx="3.5" cy="3.5" r="3.5" transform="translate(792 2131)" fill="#fff"/>
      <circle id="Ellipse_816" data-name="Ellipse 816" cx="3.5" cy="3.5" r="3.5" transform="translate(802 2131)" fill="#fff"/>
      <circle id="Ellipse_810" data-name="Ellipse 810" cx="3.5" cy="3.5" r="3.5" transform="translate(792 2148)" fill="#fff"/>
      <circle id="Ellipse_815" data-name="Ellipse 815" cx="3.5" cy="3.5" r="3.5" transform="translate(802 2148)" fill="#fff"/>
      <circle id="Ellipse_811" data-name="Ellipse 811" cx="3.5" cy="3.5" r="3.5" transform="translate(792 2162)" fill="#fff"/>
      <circle id="Ellipse_814" data-name="Ellipse 814" cx="3.5" cy="3.5" r="3.5" transform="translate(802 2162)" fill="#fff"/>
      <circle id="Ellipse_812" data-name="Ellipse 812" cx="3.5" cy="3.5" r="3.5" transform="translate(792 2181)" fill="#fff"/>
      <circle id="Ellipse_813" data-name="Ellipse 813" cx="3.5" cy="3.5" r="3.5" transform="translate(802 2181)" fill="#fff"/>
      <circle id="Ellipse_809-2" data-name="Ellipse 809" cx="3.5" cy="3.5" r="3.5" transform="translate(792 2060)" fill="#fff"/>
      <circle id="Ellipse_816-2" data-name="Ellipse 816" cx="3.5" cy="3.5" r="3.5" transform="translate(802 2060)" fill="#fff"/>
      <circle id="Ellipse_810-2" data-name="Ellipse 810" cx="3.5" cy="3.5" r="3.5" transform="translate(792 2078)" fill="#fff"/>
      <circle id="Ellipse_815-2" data-name="Ellipse 815" cx="3.5" cy="3.5" r="3.5" transform="translate(802 2078)" fill="#fff"/>
      <circle id="Ellipse_811-2" data-name="Ellipse 811" cx="3.5" cy="3.5" r="3.5" transform="translate(792 2093)" fill="#fff"/>
      <circle id="Ellipse_814-2" data-name="Ellipse 814" cx="3.5" cy="3.5" r="3.5" transform="translate(802 2093)" fill="#fff"/>
      <circle id="Ellipse_812-2" data-name="Ellipse 812" cx="3.5" cy="3.5" r="3.5" transform="translate(792 2111)" fill="#fff"/>
      <circle id="Ellipse_813-2" data-name="Ellipse 813" cx="3.5" cy="3.5" r="3.5" transform="translate(802 2111)" fill="#fff"/>
    </g>
    <g id="Group_5381" data-name="Group 5381" transform="translate(42 -264)" opacity="0.998">
      <circle id="Ellipse_809-3" data-name="Ellipse 809" cx="3.5" cy="3.5" r="3.5" transform="translate(792 2131)" fill="#fff"/>
      <circle id="Ellipse_816-3" data-name="Ellipse 816" cx="3.5" cy="3.5" r="3.5" transform="translate(802 2131)" fill="#fff"/>
      <circle id="Ellipse_810-3" data-name="Ellipse 810" cx="3.5" cy="3.5" r="3.5" transform="translate(792 2148)" fill="#fff"/>
      <circle id="Ellipse_815-3" data-name="Ellipse 815" cx="3.5" cy="3.5" r="3.5" transform="translate(802 2148)" fill="#fff"/>
      <circle id="Ellipse_811-3" data-name="Ellipse 811" cx="3.5" cy="3.5" r="3.5" transform="translate(792 2162)" fill="#fff"/>
      <circle id="Ellipse_814-3" data-name="Ellipse 814" cx="3.5" cy="3.5" r="3.5" transform="translate(802 2162)" fill="#fff"/>
      <circle id="Ellipse_812-3" data-name="Ellipse 812" cx="3.5" cy="3.5" r="3.5" transform="translate(792 2181)" fill="#fff"/>
      <circle id="Ellipse_813-3" data-name="Ellipse 813" cx="3.5" cy="3.5" r="3.5" transform="translate(802 2181)" fill="#fff"/>
      <circle id="Ellipse_809-4" data-name="Ellipse 809" cx="3.5" cy="3.5" r="3.5" transform="translate(792 2060)" fill="#fff"/>
      <circle id="Ellipse_816-4" data-name="Ellipse 816" cx="3.5" cy="3.5" r="3.5" transform="translate(802 2060)" fill="#fff"/>
      <circle id="Ellipse_810-4" data-name="Ellipse 810" cx="3.5" cy="3.5" r="3.5" transform="translate(792 2078)" fill="#fff"/>
      <circle id="Ellipse_815-4" data-name="Ellipse 815" cx="3.5" cy="3.5" r="3.5" transform="translate(802 2078)" fill="#fff"/>
      <circle id="Ellipse_811-4" data-name="Ellipse 811" cx="3.5" cy="3.5" r="3.5" transform="translate(792 2093)" fill="#fff"/>
      <circle id="Ellipse_814-4" data-name="Ellipse 814" cx="3.5" cy="3.5" r="3.5" transform="translate(802 2093)" fill="#fff"/>
      <circle id="Ellipse_812-4" data-name="Ellipse 812" cx="3.5" cy="3.5" r="3.5" transform="translate(792 2111)" fill="#fff"/>
      <circle id="Ellipse_813-4" data-name="Ellipse 813" cx="3.5" cy="3.5" r="3.5" transform="translate(802 2111)" fill="#fff"/>
    </g>
    <g id="Group_5379" data-name="Group 5379" transform="matrix(0.966, -0.259, 0.259, 0.966, 1070.044, 1658.912)">
      <path id="Union_12" data-name="Union 12" d="M29.007,79.5V67.512q-1.268-.377-2.487-.861l-8.358,8.357L4.488,61.334l7.265-7.263a29.951,29.951,0,0,1-2.645-5.726H0V29.007H9.108a29.921,29.921,0,0,1,1.874-4.354l-6.49-6.491L18.167,4.489l6.854,6.855a29.848,29.848,0,0,1,3.987-1.5V0H48.346V10.569a29.916,29.916,0,0,1,3.279,1.486L59.191,4.49,72.864,18.164l-7.93,7.93A29.877,29.877,0,0,1,66.1,29.007H77.353V48.344H66.1a29.922,29.922,0,0,1-1.163,2.914l7.929,7.93L59.188,72.863,51.622,65.3a29.932,29.932,0,0,1-3.277,1.485V79.5Z" transform="translate(0 66.989) rotate(-60)" fill="#3cc3b4"/>
      <ellipse id="Ellipse_808" data-name="Ellipse 808" cx="17.558" cy="17.557" rx="17.558" ry="17.557" transform="translate(28.753 62.854) rotate(-60)" fill="#fff"/>
      <ellipse id="Ellipse_1096" data-name="Ellipse 1096" cx="17.558" cy="17.557" rx="17.558" ry="17.557" transform="translate(75.422 143.687) rotate(-60)" fill="#fff"/>
    </g>
    <g id="Group_5376" data-name="Group 5376" transform="translate(10 -253)">
      <rect id="Rectangle_4016" data-name="Rectangle 4016" width="316" height="206" rx="17" transform="translate(863 1970)" fill="#3cc3b4"/>
      <rect id="Rectangle_4017" data-name="Rectangle 4017" width="306" height="192" rx="17" transform="translate(868 1977)" fill="#fff"/>
      <path id="Path_12697" data-name="Path 12697" d="M-7056.42,7163l-24.058,28.02h76.306L-7028.33,7163" transform="translate(8063.732 -4993.784)" fill="#3cc3b4"/>
      <g id="Ellipse_1088" data-name="Ellipse 1088" transform="translate(882 1987)" fill="#fff" stroke="#3cc3b4" stroke-width="2">
        <ellipse cx="5" cy="5.5" rx="5" ry="5.5" stroke="none"/>
        <ellipse cx="5" cy="5.5" rx="4" ry="4.5" fill="none"/>
      </g>
      <g id="Ellipse_1089" data-name="Ellipse 1089" transform="translate(899 1987)" fill="#fff" stroke="#3cc3b4" stroke-width="2">
        <circle cx="5.5" cy="5.5" r="5.5" stroke="none"/>
        <circle cx="5.5" cy="5.5" r="4.5" fill="none"/>
      </g>
      <g id="Ellipse_1090" data-name="Ellipse 1090" transform="translate(917 1987)" fill="#fff" stroke="#3cc3b4" stroke-width="2">
        <ellipse cx="5" cy="5.5" rx="5" ry="5.5" stroke="none"/>
        <ellipse cx="5" cy="5.5" rx="4" ry="4.5" fill="none"/>
      </g>
      <line id="Line_1025" data-name="Line 1025" x2="306.437" transform="translate(868.243 2007.868)" fill="none" stroke="#3cc3b4" stroke-width="3"/>
      <line id="Line_1026" data-name="Line 1026" y2="167.783" transform="translate(1041.852 2006.703)" fill="none" stroke="#3cc3b4" stroke-width="3"/>
      <text id="_" data-name="&lt;" transform="translate(876 2044)" fill="#3cc3b4" font-size="31" font-family="MyriadPro-BoldCond, Myriad Pro" font-weight="700" opacity="0.494"><tspan x="0" y="0">&lt;</tspan></text>
      <text id="_2" data-name="&lt;" transform="matrix(-1, 0, 0, 1, 1025, 2118)" fill="#3cc3b4" font-size="36" font-family="MyriadPro-BoldCond, Myriad Pro" font-weight="700" opacity="0.494"><tspan x="0" y="0">&lt;</tspan></text>
      <line id="Line_1027" data-name="Line 1027" x2="93.057" transform="translate(901.043 2037.794)" fill="none" stroke="#3cc3b4" stroke-width="2" opacity="0.494"/>
      <line id="Line_1028" data-name="Line 1028" x2="93.057" transform="translate(901.043 2077.808)" fill="none" stroke="#3cc3b4" stroke-width="2" opacity="0.494"/>
      <line id="Line_1029" data-name="Line 1029" x2="93.057" transform="translate(901.043 2047.975)" fill="none" stroke="#3cc3b4" stroke-width="2" opacity="0.494"/>
      <line id="Line_1030" data-name="Line 1030" x2="93.057" transform="translate(901.043 2087.989)" fill="none" stroke="#3cc3b4" stroke-width="2" opacity="0.494"/>
      <line id="Line_1031" data-name="Line 1031" x2="93.057" transform="translate(901.043 2058.155)" fill="none" stroke="#3cc3b4" stroke-width="2" opacity="0.494"/>
      <line id="Line_1032" data-name="Line 1032" x2="93.057" transform="translate(1051.348 2037.182)" fill="none" stroke="#3cc3b4" stroke-width="2" opacity="0.494"/>
      <line id="Line_1033" data-name="Line 1033" x2="93.057" transform="translate(1051.348 2047.669)" fill="none" stroke="#3cc3b4" stroke-width="2" opacity="0.494"/>
      <line id="Line_1034" data-name="Line 1034" x2="93.057" transform="translate(901.043 2098.168)" fill="none" stroke="#3cc3b4" stroke-width="2" opacity="0.494"/>
      <line id="Line_1035" data-name="Line 1035" x2="93.057" transform="translate(901.043 2068.334)" fill="none" stroke="#3cc3b4" stroke-width="2" opacity="0.494"/>
      <line id="Line_1036" data-name="Line 1036" x2="93.057" transform="translate(901.043 2108.348)" fill="none" stroke="#3cc3b4" stroke-width="2" opacity="0.494"/>
    </g>
  </g>
</svg>
