<svg xmlns="http://www.w3.org/2000/svg" width="34" height="34" viewBox="0 0 34 34">
  <g id="Group_5265" data-name="Group 5265" transform="translate(19017.982 4302.982)" opacity="0.748">
    <circle id="Ellipse_691" data-name="Ellipse 691" cx="17" cy="17" r="17" transform="translate(-19017.982 -4302.982)" fill="#313030"/>
    <g id="phone" transform="translate(-19008.18 -4293.18)">
      <g id="Group_2701" data-name="Group 2701">
        <path id="Path_7775" data-name="Path 7775" d="M13.734,9.8a8.478,8.478,0,0,1-2.662-.424,1.217,1.217,0,0,0-1.184.25L8.209,10.894A9.278,9.278,0,0,1,4.037,6.723l1.23-1.635a1.207,1.207,0,0,0,.3-1.223A8.491,8.491,0,0,1,5.138,1.2,1.2,1.2,0,0,0,3.94,0H1.2A1.2,1.2,0,0,0,0,1.2,13.749,13.749,0,0,0,13.734,14.932a1.2,1.2,0,0,0,1.2-1.2V11A1.2,1.2,0,0,0,13.734,9.8Z" fill="#60d6c9"/>
      </g>
    </g>
  </g>
</svg>
