<svg xmlns="http://www.w3.org/2000/svg" width="30" height="30" viewBox="0 0 30 30">
  <g id="Group_5225" data-name="Group 5225" transform="translate(11080 7342)">
    <rect id="Rectangle_3834" data-name="Rectangle 3834" width="30" height="30" rx="3" transform="translate(-11080 -7342)" fill="#fff"/>
    <path id="medium" d="M16.317,4.15,17.732,2.8V2.5h-4.9L9.337,11.194,5.363,2.5H.224v.3l1.653,1.99a.693.693,0,0,1,.224.578v7.819a.892.892,0,0,1-.239.776L0,16.215v.293H5.279v-.3L3.417,13.959a.919.919,0,0,1-.256-.776V6.42L7.795,16.512h.539L12.318,6.42v8.039c0,.212,0,.256-.139.395l-1.433,1.387v.3H17.7v-.3l-1.382-1.353a.411.411,0,0,1-.158-.395V4.544a.409.409,0,0,1,.157-.395Z" transform="translate(-11074 -7335.5)" fill="#313030"/>
  </g>
</svg>
