<svg xmlns="http://www.w3.org/2000/svg" width="30" height="30" viewBox="0 0 30 30">
  <g id="Group_5224" data-name="Group 5224" transform="translate(11117 7342)">
    <rect id="Rectangle_3833" data-name="Rectangle 3833" width="30" height="30" rx="3" transform="translate(-11117 -7342)" fill="#fff"/>
    <g id="linkedin" transform="translate(-11110 -7335)">
      <path id="Path_9206" data-name="Path 9206" d="M18.513,18.194h0V12.5c0-2.784-.6-4.928-3.854-4.928A3.379,3.379,0,0,0,11.62,9.247h-.045V7.834H8.489V18.193H11.7v-5.13c0-1.351.256-2.657,1.929-2.657,1.648,0,1.673,1.541,1.673,2.743v5.044Z" transform="translate(-3.001 -2.677)" fill="#313030"/>
      <path id="Path_9207" data-name="Path 9207" d="M.4,7.977H3.613V18.336H.4Z" transform="translate(-0.14 -2.82)" fill="#313030"/>
      <path id="Path_9208" data-name="Path 9208" d="M1.863,0A1.872,1.872,0,1,0,3.727,1.863,1.864,1.864,0,0,0,1.863,0Z" fill="#313030"/>
    </g>
  </g>
</svg>
