<svg xmlns="http://www.w3.org/2000/svg" width="472.434" height="359.749" viewBox="0 0 472.434 359.749">
  <g id="Group_5353" data-name="Group 5353" transform="translate(-781.951 -2616.142)">
    <g id="Group_5350" data-name="Group 5350" transform="translate(14 -10.555)">
      <path id="Path_5973" data-name="Path 5973" d="M840.533,183.622" transform="translate(169.002 2478.36)" fill="#fff" stroke="#fff" stroke-miterlimit="10" stroke-width="1"/>
      <rect id="Rectangle_3953" data-name="Rectangle 3953" width="135" height="241" rx="3" transform="translate(900 2677.555)" fill="#3cc3b4"/>
      <rect id="Rectangle_3954" data-name="Rectangle 3954" width="114" height="188" rx="3" transform="translate(910 2706.555)" fill="#fff"/>
      <g id="Rectangle_4001" data-name="Rectangle 4001" transform="translate(918 2729.555)" fill="#fff" stroke="#3cc3b4" stroke-width="2">
        <rect width="95" height="25" stroke="none"/>
        <rect x="1" y="1" width="93" height="23" fill="none"/>
      </g>
      <line id="Line_983" data-name="Line 983" y2="25.192" transform="translate(933.309 2729.927)" fill="none" stroke="#3cc3b4" stroke-width="2"/>
      <line id="Line_984" data-name="Line 984" y2="25.192" transform="translate(950.404 2729.927)" fill="none" stroke="#3cc3b4" stroke-width="2"/>
      <line id="Line_985" data-name="Line 985" y2="25.192" transform="translate(967.499 2729.927)" fill="none" stroke="#3cc3b4" stroke-width="2"/>
      <line id="Line_986" data-name="Line 986" y2="25.192" transform="translate(984.593 2729.927)" fill="none" stroke="#3cc3b4" stroke-width="2"/>
      <line id="Line_987" data-name="Line 987" y2="25.192" transform="translate(1001.688 2729.927)" fill="none" stroke="#3cc3b4" stroke-width="2"/>
      <g id="Rectangle_4002" data-name="Rectangle 4002" transform="translate(918 2778.555)" fill="#fff" stroke="#3cc3b4" stroke-width="3">
        <rect width="95" height="62" stroke="none"/>
        <rect x="1.5" y="1.5" width="92" height="59" fill="none"/>
      </g>
      <g id="Rectangle_4005" data-name="Rectangle 4005" transform="translate(1059 2720.555)" fill="#fff" stroke="#3cc3b4" stroke-width="3">
        <rect width="61" height="48" stroke="none"/>
        <rect x="1.5" y="1.5" width="58" height="45" fill="none"/>
      </g>
      <path id="Path_12673" data-name="Path 12673" d="M-3011,15918.538l29.74-22.687,27.55,22.687,28.74-22.687,9.232,9.125" transform="translate(3928.564 -13095.431)" fill="none" stroke="#3cc3b4" stroke-width="3"/>
      <path id="Path_12674" data-name="Path 12674" d="M-3011,15918.538l19.089-22.687,17.684,22.687,18.448-22.687,5.926,9.125" transform="translate(4069.819 -13161.506)" fill="none" stroke="#3cc3b4" stroke-width="3"/>
      <g id="Rectangle_4003" data-name="Rectangle 4003" transform="translate(918 2850.555)" fill="#fff" stroke="#3cc3b4" stroke-width="3">
        <rect width="95" height="21" stroke="none"/>
        <rect x="1.5" y="1.5" width="92" height="18" fill="none"/>
      </g>
      <line id="Line_988" data-name="Line 988" x2="93.57" transform="translate(918.914 2877.479)" fill="none" stroke="#3cc3b4" stroke-width="3"/>
      <line id="Line_989" data-name="Line 989" x2="93.57" transform="translate(919.814 2886.477)" fill="none" stroke="#3cc3b4" stroke-width="3"/>
      <g id="Rectangle_4004" data-name="Rectangle 4004" transform="translate(806 2781.555)" fill="#fff" stroke="#3cc3b4" stroke-width="2" stroke-dasharray="5">
        <rect width="60" height="62" stroke="none"/>
        <rect x="1" y="1" width="58" height="60" fill="none"/>
      </g>
      <line id="Line_990" data-name="Line 990" x1="70.178" transform="translate(830.742 2738.024)" fill="none" stroke="#3cc3b4" stroke-width="2" stroke-dasharray="5"/>
      <line id="Line_993" data-name="Line 993" x2="70.178" transform="translate(1030.479 2811.801)" fill="none" stroke="#3cc3b4" stroke-width="2" stroke-dasharray="5"/>
      <line id="Line_991" data-name="Line 991" y1="43.186" transform="translate(830.742 2738.024)" fill="none" stroke="#3cc3b4" stroke-width="2" stroke-dasharray="5"/>
      <line id="Line_992" data-name="Line 992" y2="43.186" transform="translate(1100.656 2768.614)" fill="none" stroke="#3cc3b4" stroke-width="2" stroke-dasharray="5"/>
      <g id="Rectangle_4006" data-name="Rectangle 4006" transform="translate(818 2794.555)" fill="#fff" stroke="#3cc3b4" stroke-width="3">
        <rect width="37" height="20" stroke="none"/>
        <rect x="1.5" y="1.5" width="34" height="17" fill="none"/>
      </g>
      <line id="Line_994" data-name="Line 994" x2="35.335" transform="translate(818.146 2822.727)" fill="none" stroke="#3cc3b4" stroke-width="3"/>
      <line id="Line_995" data-name="Line 995" x2="35.335" transform="translate(818.146 2830.259)" fill="none" stroke="#3cc3b4" stroke-width="3"/>
      <path id="Path_12675" data-name="Path 12675" d="M-3211.747,15889v17.026" transform="translate(4077.58 -13019.618)" fill="none" stroke="#e8d855" stroke-width="4"/>
      <path id="Path_12677" data-name="Path 12677" d="M-3211.747,15889v20.724" transform="translate(4294.46 -13217.555)" fill="none" stroke="#e8d855" stroke-width="4"/>
      <path id="Path_12679" data-name="Path 12679" d="M-3211.747,15889v17.508" transform="translate(4268.561 -12962.42)" fill="none" stroke="#e8d855" stroke-width="4"/>
      <path id="Path_12676" data-name="Path 12676" d="M0,0V17.026" transform="translate(874.347 2877.895) rotate(90)" fill="none" stroke="#e8d855" stroke-width="4"/>
      <path id="Path_12678" data-name="Path 12678" d="M0,0V20.723" transform="translate(1093.075 2681.806) rotate(90)" fill="none" stroke="#e8d855" stroke-width="4"/>
      <path id="Path_12680" data-name="Path 12680" d="M0,0V17.508" transform="translate(1065.567 2935.334) rotate(90)" fill="none" stroke="#e8d855" stroke-width="4"/>
    </g>
    <path id="Path_5815" data-name="Path 5815" d="M6.808,0S62.181,2.26,69.714,0c0,0-4.144,92.665-2.637,95.678,0,0-61.4,3.39-65.919,0S6.808,0,6.808,0Z" transform="matrix(0.999, -0.035, 0.035, 0.999, 1179.673, 2620.673)" fill="none" stroke="#3cc3b4" stroke-miterlimit="10" stroke-width="3"/>
    <path id="Path_5816" data-name="Path 5816" d="M0,0S25.614,40.682,34.278,44.449" transform="matrix(0.999, -0.035, 0.035, 0.999, 1195.364, 2637.463)" fill="none" stroke="#3cc3b4" stroke-miterlimit="10" stroke-width="3"/>
    <path id="Path_5817" data-name="Path 5817" d="M28.251,0S3.767,32.018,0,42.942" transform="matrix(0.999, -0.035, 0.035, 0.999, 1201.387, 2637.252)" fill="none" stroke="#3cc3b4" stroke-miterlimit="10" stroke-width="3"/>
    <path id="Path_5818" data-name="Path 5818" d="M0,0" transform="matrix(0.999, -0.035, 0.035, 0.999, 1197.454, 2697.319)" fill="#c7d4fe" stroke="#3cc3b4" stroke-miterlimit="10" stroke-width="3"/>
    <path id="Path_5819" data-name="Path 5819" d="M32.018,0H2.26C0,0,0,10.547,0,10.547H32.018Z" transform="matrix(0.999, -0.035, 0.035, 0.999, 1197.454, 2698.319)" fill="none" stroke="#3cc3b4" stroke-miterlimit="10" stroke-width="3"/>
    <g id="Group_5351" data-name="Group 5351" transform="translate(783.534 2872.795)">
      <path id="Path_5820" data-name="Path 5820" d="M5.691,1.172S58.8-1.465,68.6,1.172c0,0-4.144,92.665-2.637,95.678,0,0-67.863,5.308-65.919,0C4.184,85.55,5.691,1.172,5.691,1.172Z" transform="matrix(0.999, -0.035, 0.035, 0.999, 0, 2.394)" fill="none" stroke="#3cc3b4" stroke-miterlimit="10" stroke-width="3"/>
      <path id="Path_5821" data-name="Path 5821" d="M0,0S11.82,18.778,15.821,20.514" transform="matrix(0.999, -0.035, 0.035, 0.999, 26.661, 9.706)" fill="#c7d4fe" stroke="#3cc3b4" stroke-miterlimit="10" stroke-width="3"/>
      <path id="Path_5822" data-name="Path 5822" d="M13.041,0S1.74,14.777,0,19.821" transform="matrix(0.999, -0.035, 0.035, 0.999, 29.44, 9.609)" fill="#c7d4fe" stroke="#3cc3b4" stroke-miterlimit="10" stroke-width="3"/>
      <path id="Path_5823" data-name="Path 5823" d="M42.942,0H3.013C0,0,0,10.547,0,10.547H42.942Z" transform="matrix(0.999, -0.035, 0.035, 0.999, 14.171, 42.648)" fill="none" stroke="#3cc3b4" stroke-miterlimit="10" stroke-width="3"/>
      <path id="Path_5824" data-name="Path 5824" d="M32.018,0H2.26C0,0,0,10.547,0,10.547H32.018Z" transform="matrix(0.999, -0.035, 0.035, 0.999, 20.811, 75.962)" fill="none" stroke="#3cc3b4" stroke-miterlimit="10" stroke-width="3"/>
      <path id="Path_5825" data-name="Path 5825" d="M42.942.176c3.032,0-36.395,3.39-39.928,0C1.153-1.606,0,10.723,0,10.723H42.942Z" transform="matrix(0.999, -0.035, 0.035, 0.999, 14.704, 57.906)" fill="none" stroke="#3cc3b4" stroke-miterlimit="10" stroke-width="3"/>
    </g>
    <g id="Group_5352" data-name="Group 5352" transform="translate(1118.062 2852.338)">
      <path id="Path_5827" data-name="Path 5827" d="M5.821,0S58.556,6.4,68.727,0c0,0-4.143,92.665-2.637,95.678,0,0-69.987,3.921-65.919,0C10.341,85.884,5.821,0,5.821,0Z" transform="matrix(0.999, -0.035, 0.035, 0.999, 0, 2.399)" fill="none" stroke="#3cc3b4" stroke-miterlimit="10" stroke-width="3"/>
      <path id="Path_5828" data-name="Path 5828" d="M0,0S11.322,17.647,15.155,19.3" transform="matrix(0.999, -0.035, 0.035, 0.999, 15.17, 19.031)" fill="#c7d4fe" stroke="#3cc3b4" stroke-miterlimit="10" stroke-width="3"/>
      <path id="Path_5829" data-name="Path 5829" d="M12.561,0S1.657,13.876,0,18.578" transform="matrix(0.999, -0.035, 0.035, 0.999, 17.742, 19.031)" fill="#c7d4fe" stroke="#3cc3b4" stroke-miterlimit="10" stroke-width="3"/>
      <path id="Path_5830" data-name="Path 5830" d="M42.942,0H3.013C0,0,0,12.318,0,12.318H42.942Z" transform="matrix(0.999, -0.035, 0.035, 0.999, 15.072, 53.138)" fill="none" stroke="#3cc3b4" stroke-miterlimit="10" stroke-width="3"/>
      <path id="Path_5832" data-name="Path 5832" d="M42.942.237c3.032,0-36.395,4.578-39.928,0C1.153-2.167,0,14.479,0,14.479H42.942Z" transform="matrix(0.999, -0.035, 0.035, 0.999, 15.354, 71.205)" fill="none" stroke="#3cc3b4" stroke-miterlimit="10" stroke-width="3"/>
      <path id="Path_5833" data-name="Path 5833" d="M0,0S58.461,4.321,62.22,1.45" transform="matrix(0.999, -0.035, 0.035, 0.999, 6.38, 9.247)" fill="none" stroke="#3cc3b4" stroke-miterlimit="10" stroke-width="3"/>
      <path id="Path_5835" data-name="Path 5835" d="M24.091,0c-.323,4.1.663,8.178,1.326,12.243a79.65,79.65,0,0,1,.992,15.525q-13.188.8-26.409.383C.819,28.178.613,9.609.691,7.9c.1-2.185-.368-5.944,2.178-6.764C5.544.266,9.31.8,12.118.671Q18.1.394,24.091,0Z" transform="matrix(0.999, -0.035, 0.035, 0.999, 10.289, 15.451)" fill="none" stroke="#3cc3b4" stroke-miterlimit="10" stroke-width="3"/>
      <path id="Path_5840" data-name="Path 5840" d="M.456,1.22,1.721.041.591,0,0,.9Z" transform="matrix(0.999, -0.035, 0.035, 0.999, 35.099, 58.856)" fill="#c7d4fe" stroke="#3cc3b4" stroke-width="3"/>
    </g>
  </g>
</svg>
