<svg xmlns="http://www.w3.org/2000/svg" width="395" height="282.45" viewBox="0 0 395 282.45">
  <g id="Group_5400" data-name="Group 5400" transform="translate(-99 -1965)">
    <circle id="Ellipse_1081" data-name="Ellipse 1081" cx="26" cy="26" r="26" transform="translate(192 1978)" fill="#60d6c9"/>
    <ellipse id="Ellipse_1087" data-name="Ellipse 1087" cx="25.5" cy="26" rx="25.5" ry="26" transform="translate(99 2128)" fill="#60d6c9"/>
    <ellipse id="Ellipse_1082" data-name="Ellipse 1082" cx="26" cy="25.5" rx="26" ry="25.5" transform="translate(287 1994)" fill="#60d6c9"/>
    <ellipse id="Ellipse_1083" data-name="Ellipse 1083" cx="26" cy="25.5" rx="26" ry="25.5" transform="translate(363 1965)" fill="#60d6c9"/>
    <ellipse id="Ellipse_1084" data-name="Ellipse 1084" cx="25.5" cy="26" rx="25.5" ry="26" transform="translate(443 2011)" fill="#60d6c9"/>
    <circle id="Ellipse_1086" data-name="Ellipse 1086" cx="24" cy="24" r="24" transform="translate(442 2105)" fill="#60d6c9"/>
    <g id="Group_5345" data-name="Group 5345" transform="translate(180.093 2059.172)">
      <rect id="Rectangle_3999" data-name="Rectangle 3999" width="249" height="169" rx="3" transform="translate(-0.093 -0.172)" fill="#60d6c9"/>
      <rect id="Rectangle_4000" data-name="Rectangle 4000" width="229" height="136" rx="3" transform="translate(8.907 16.828)" fill="#fff"/>
      <path id="Path_12671" data-name="Path 12671" d="M-7364.3,16510l-21.624,19.963s16.131.678,33.51,0c14.093-.549,34.629,0,34.629,0l-16.63-19.963Z" transform="translate(7476.044 -16341.989)" fill="#41e5d3"/>
    </g>
    <g id="Rectangle_4013" data-name="Rectangle 4013" transform="translate(198 2087)" fill="none" stroke="#60d6c9" stroke-width="3">
      <rect width="91" height="114" stroke="none"/>
      <rect x="1.5" y="1.5" width="88" height="111" fill="none"/>
    </g>
    <g id="Group_5344" data-name="Group 5344" transform="translate(453.018 2024.569)">
      <g id="Path_12662" data-name="Path 12662" fill="#fff">
        <path d="M 28.24531936645508 27.58061981201172 L 4.632400035858154 27.58061981201172 L 0.9999987483024597 23.92095756530762 L 0.9999987483024597 0.9999998807907104 L 28.24531936645508 0.9999998807907104 L 28.24531936645508 27.58061981201172 Z" stroke="none"/>
        <path d="M 1.999998092651367 2 L 1.999998092651367 23.50893592834473 L 5.048801422119141 26.58061981201172 L 27.24531936645508 26.58061981201172 L 27.24531936645508 2 L 1.999998092651367 2 M -1.9073486328125e-06 0 L 29.24531936645508 0 L 29.24531936645508 28.58061981201172 L 4.215988159179688 28.58061981201172 L -1.9073486328125e-06 24.33298873901367 L -1.9073486328125e-06 0 Z" stroke="none" fill="#41e5d3"/>
      </g>
      <path id="Union_29" data-name="Union 29" d="M0,25.257V4.33L2.659,0,5.317,4.33V25.257Z" transform="translate(18.452 21.726) rotate(-135)" fill="#41e5d3"/>
    </g>
    <line id="Line_925" data-name="Line 925" x2="23.543" y2="0.872" transform="translate(315.683 2104.95)" fill="none" stroke="#fff" stroke-width="2"/>
    <g id="Group_5357" data-name="Group 5357" transform="translate(296.936 2005.776)">
      <path id="Path_12681" data-name="Path 12681" d="M0,0H27.944V27.309H4.028L0,23.25Z" transform="translate(2.616 3.488)" fill="#fff" opacity="0.318"/>
      <path id="Path_12652" data-name="Path 12652" d="M0,0H27.944V27.309H4.028L0,23.25Z" transform="translate(0)" fill="#fff"/>
      <line id="Line_915" data-name="Line 915" x2="17.147" y2="0.635" transform="translate(4.128 7.304)" fill="none" stroke="#60d6c9" stroke-width="2"/>
      <line id="Line_916" data-name="Line 916" x2="10.161" transform="translate(4.128 11.749)" fill="none" stroke="#60d6c9" stroke-width="2"/>
    </g>
    <g id="Group_5356" data-name="Group 5356" transform="translate(453.89 2120.004)">
      <path id="Path_12687" data-name="Path 12687" d="M0,0H24.215V23.665H3.491L0,20.148Z" transform="translate(2.267 3.022)" fill="#fff" opacity="0.318"/>
      <path id="Path_12686" data-name="Path 12686" d="M0,0H24.215V23.665H3.491L0,20.148Z" transform="translate(0 0)" fill="#fff"/>
      <line id="Line_1004" data-name="Line 1004" x2="14.859" y2="0.55" transform="translate(3.577 6.329)" fill="none" stroke="#60d6c9" stroke-width="2"/>
      <line id="Line_1005" data-name="Line 1005" x2="8.806" transform="translate(3.577 10.182)" fill="none" stroke="#60d6c9" stroke-width="2"/>
    </g>
    <line id="Line_926" data-name="Line 926" x2="13.951" transform="translate(315.683 2111.054)" fill="none" stroke="#fff" stroke-width="2"/>
    <g id="Group_5337" data-name="Group 5337" transform="translate(376.059 1978.951)">
      <path id="Path_12670" data-name="Path 12670" d="M-3246.23,14899.44l9.885-9.216" transform="translate(3246.23 -14875.916)" fill="none" stroke="#fff" stroke-linecap="round" stroke-width="4"/>
      <g id="Ellipse_1065" data-name="Ellipse 1065" transform="translate(5.941 0.049)" fill="none" stroke="#fff" stroke-width="4">
        <ellipse cx="10" cy="9" rx="10" ry="9" stroke="none"/>
        <ellipse cx="10" cy="9" rx="8" ry="7" fill="none"/>
      </g>
    </g>
    <g id="Group_5342" data-name="Group 5342" transform="translate(100.744 2014.702)">
      <g id="Rectangle_3995" data-name="Rectangle 3995" transform="translate(0.256 0.298)" fill="#fff" stroke="#41e5d3" stroke-width="2">
        <rect width="61" height="75" stroke="none"/>
        <rect x="1" y="1" width="59" height="73" fill="none"/>
      </g>
      <rect id="Rectangle_3996" data-name="Rectangle 3996" width="20" height="20" transform="translate(6.256 7.298)" fill="#41e5d3"/>
      <line id="Line_949" data-name="Line 949" x2="19.87" transform="translate(32.19 13.114)" fill="none" stroke="#41e5d3" stroke-width="3"/>
      <line id="Line_952" data-name="Line 952" x2="19.87" transform="translate(5.961 36.164)" fill="none" stroke="#41e5d3" stroke-width="3"/>
      <line id="Line_962" data-name="Line 962" x2="19.87" transform="translate(32.19 36.164)" fill="none" stroke="#41e5d3" stroke-width="3"/>
      <line id="Line_954" data-name="Line 954" x2="19.87" transform="translate(5.961 46.496)" fill="none" stroke="#41e5d3" stroke-width="3"/>
      <line id="Line_958" data-name="Line 958" x2="19.87" transform="translate(32.19 46.496)" fill="none" stroke="#41e5d3" stroke-width="3"/>
      <line id="Line_956" data-name="Line 956" x2="19.87" transform="translate(5.961 56.829)" fill="none" stroke="#41e5d3" stroke-width="3"/>
      <line id="Line_959" data-name="Line 959" x2="19.87" transform="translate(32.19 56.829)" fill="none" stroke="#41e5d3" stroke-width="3"/>
      <line id="Line_950" data-name="Line 950" x2="15.896" transform="translate(32.19 17.088)" fill="none" stroke="#41e5d3" stroke-width="3"/>
      <line id="Line_951" data-name="Line 951" x2="15.896" transform="translate(5.961 40.138)" fill="none" stroke="#41e5d3" stroke-width="3"/>
      <line id="Line_960" data-name="Line 960" x2="15.896" transform="translate(32.19 40.138)" fill="none" stroke="#41e5d3" stroke-width="3"/>
      <line id="Line_953" data-name="Line 953" x2="15.896" transform="translate(5.961 50.47)" fill="none" stroke="#41e5d3" stroke-width="3"/>
      <line id="Line_961" data-name="Line 961" x2="15.896" transform="translate(32.19 50.47)" fill="none" stroke="#41e5d3" stroke-width="3"/>
      <line id="Line_955" data-name="Line 955" x2="15.896" transform="translate(5.961 60.803)" fill="none" stroke="#41e5d3" stroke-width="3"/>
      <line id="Line_957" data-name="Line 957" x2="15.896" transform="translate(32.19 60.803)" fill="none" stroke="#41e5d3" stroke-width="3"/>
    </g>
    <g id="Group_5341" data-name="Group 5341" transform="translate(110.336 2139.393)">
      <rect id="Rectangle_3991" data-name="Rectangle 3991" width="6" height="18" transform="translate(-0.335 8.607)" fill="#fff"/>
      <rect id="Rectangle_3992" data-name="Rectangle 3992" width="5" height="22" transform="translate(6.665 4.607)" fill="#fff"/>
      <rect id="Rectangle_3993" data-name="Rectangle 3993" width="7" height="27" transform="translate(12.665 -0.393)" fill="#fff"/>
      <rect id="Rectangle_3994" data-name="Rectangle 3994" width="5" height="18" transform="translate(20.665 8.607)" fill="#fff"/>
    </g>
    <g id="Group_5354" data-name="Group 5354" transform="translate(204.508 1992.031)">
      <path id="Path_12683" data-name="Path 12683" d="M0,24.152A12.076,12.076,0,0,0,12.076,12.076a12.136,12.136,0,0,0-3.82-8.813A11.933,11.933,0,0,0,0,0" transform="translate(12.076)" fill="#fff" opacity="0.293"/>
      <path id="Path_12682" data-name="Path 12682" d="M0,0A12.076,12.076,0,0,1,12.076,12.076a12.136,12.136,0,0,1-3.82,8.813A11.933,11.933,0,0,1,0,24.152" transform="translate(12.076 24.152) rotate(180)" fill="#fff"/>
      <path id="Path_12684" data-name="Path 12684" d="M0,0H12.1a15.839,15.839,0,0,1-.548,3.9,14.309,14.309,0,0,1-3.3,5.832c-2.047,1.975-5,2.685-8.256,2.685" transform="translate(11.818 12.334) rotate(-90)" fill="#fff"/>
    </g>
    <rect id="Rectangle_4007" data-name="Rectangle 4007" width="87" height="18" rx="3.714" transform="translate(310 2105)" fill="#41e5d3" stroke="#41e5d3" stroke-width="1"/>
    <rect id="Rectangle_4008" data-name="Rectangle 4008" width="87" height="15" rx="3.714" transform="translate(310 2132)" fill="#41e5d3" stroke="#41e5d3" stroke-width="1"/>
    <rect id="Rectangle_4009" data-name="Rectangle 4009" width="14" height="9" rx="2.023" transform="translate(313 2110)" fill="#fff"/>
    <rect id="Rectangle_4010" data-name="Rectangle 4010" width="13" height="11" rx="2.023" transform="translate(314 2134)" fill="#fff"/>
    <line id="Line_1006" data-name="Line 1006" x2="54" transform="translate(331 2112)" fill="none" stroke="#fff" stroke-miterlimit="10" stroke-width="2"/>
    <line id="Line_1007" data-name="Line 1007" x2="54" transform="translate(331 2118)" fill="none" stroke="#fff" stroke-miterlimit="10" stroke-width="2"/>
    <line id="Line_1008" data-name="Line 1008" x2="52" transform="translate(334 2137)" fill="none" stroke="#fff" stroke-miterlimit="10" stroke-width="2"/>
    <line id="Line_1009" data-name="Line 1009" x2="52" transform="translate(334 2142)" fill="none" stroke="#fff" stroke-miterlimit="10" stroke-width="2"/>
    <circle id="Ellipse_1068" data-name="Ellipse 1068" cx="14.5" cy="14.5" r="14.5" transform="translate(225 2111)" fill="#60d6c9"/>
    <rect id="Rectangle_4011" data-name="Rectangle 4011" width="42" height="7" transform="translate(218 2146)" fill="#60d6c9"/>
    <rect id="Rectangle_4012" data-name="Rectangle 4012" width="42" height="9" transform="translate(218 2157)" fill="#60d6c9"/>
  </g>
</svg>
