<svg xmlns="http://www.w3.org/2000/svg" width="37.943" height="43" viewBox="0 0 37.943 43">
  <g id="Group_2730" data-name="Group 2730" transform="translate(-532.278 -466.491)">
    <path id="Path_7723" data-name="Path 7723" d="M-18103.029-2556.856s.049-3.931-1.832-6.31a23.585,23.585,0,0,1-2.121-2.258,16.457,16.457,0,0,1-1.586-2.885s-2.025-6.291,2.145-10.589a11.729,11.729,0,0,1,8.877-3.842s4.422-.241,7.295,2.26a13.646,13.646,0,0,1,2.754,3.8,9.313,9.313,0,0,1,.941,3.643,15.468,15.468,0,0,1-.941,5.2,18.015,18.015,0,0,1-2.977,4.671,9.769,9.769,0,0,0-1.648,2.956,9.613,9.613,0,0,0-.3,3.354h-11.3" transform="translate(18649.182 3059.556)" fill="none" stroke="#707070" stroke-width="1.5"/>
    <g id="Rectangle_2994" data-name="Rectangle 2994" transform="translate(544 504.491)" fill="#fff" stroke="#707070" stroke-width="1.5">
      <rect width="14" height="5" stroke="none"/>
      <rect x="0.75" y="0.75" width="12.5" height="3.5" fill="none"/>
    </g>
    <path id="Path_7729" data-name="Path 7729" d="M-17172.508-2431.755v-6.717" transform="translate(17723.631 2904.964)" fill="none" stroke="#60d6c9" stroke-width="1.5"/>
    <path id="Path_7725" data-name="Path 7725" d="M0,4.917V0" transform="translate(537.621 474.719) rotate(-48)" fill="none" stroke="#60d6c9" stroke-width="1.5"/>
    <path id="Path_7727" data-name="Path 7727" d="M0,0V4.917" transform="translate(561.224 476.831) rotate(-132)" fill="none" stroke="#60d6c9" stroke-width="1.5"/>
    <path id="Path_7726" data-name="Path 7726" d="M0,4.917V0" transform="translate(532.278 488.141) rotate(-90)" fill="none" stroke="#60d6c9" stroke-width="1.5"/>
    <path id="Path_7728" data-name="Path 7728" d="M0,0V4.917" transform="translate(565.304 488.141) rotate(-90)" fill="none" stroke="#60d6c9" stroke-width="1.5"/>
  </g>
</svg>
