<svg xmlns="http://www.w3.org/2000/svg" width="37.472" height="37.468" viewBox="0 0 37.472 37.468">
  <g id="Group_5262" data-name="Group 5262" transform="translate(-116 -551.455)">
    <g id="Union_8" data-name="Union 8" transform="translate(116 551.455)" fill="#fff">
      <path d="M 23.15339469909668 36.71782302856445 L 14.31877422332764 36.71782302856445 L 14.31877422332764 32.6245231628418 L 14.31877422332764 32.11196136474609 L 13.84122371673584 31.92576217651367 C 13.52901363372803 31.80402183532715 13.21493434906006 31.66753196716309 12.90770435333252 31.52007102966309 L 12.4286937713623 31.2901611328125 L 12.05292415618896 31.66581153869629 L 9.142574310302734 34.57527160644531 L 2.891603231430054 28.3269100189209 L 6.056663990020752 25.1648120880127 L 6.405543804168701 24.81625175476074 L 6.22378396987915 24.35781097412109 C 6.136484146118164 24.13762092590332 6.050583839416504 23.90330123901367 5.968453884124756 23.66136169433594 L 5.795703887939453 23.15243148803711 L 5.258254051208496 23.15243148803711 L 0.7500039935112 23.15243148803711 L 0.7500039935112 14.31531143188477 L 5.762663841247559 14.31531143188477 L 6.250884056091309 14.31531143188477 L 6.448493957519531 13.86886119842529 C 6.496994018554688 13.75928115844727 6.548553943634033 13.64930152893066 6.597214221954346 13.54604148864746 L 6.821963787078857 13.06908130645752 L 6.449234008789062 12.69615173339844 L 2.896182537078857 9.141194343566895 L 9.142820358276367 2.8926842212677 L 12.95344352722168 6.70134162902832 L 13.30044364929199 7.048161506652832 L 13.75724411010742 6.869181632995605 L 13.7947940826416 6.85435152053833 L 13.83918380737305 6.836891651153564 L 14.31877422332764 6.651511669158936 L 14.31877422332764 6.137331485748291 L 14.31877422332764 0.7500014901161194 L 23.15339469909668 0.7500014901161194 L 23.15339469909668 6.136691570281982 L 23.15339469909668 6.64277172088623 L 23.62269401550293 6.832181453704834 L 23.66877365112305 6.850451469421387 C 23.68172454833984 6.855531692504883 23.69474411010742 6.860611438751221 23.70714378356934 6.865681648254395 L 24.16875457763672 7.054521560668945 L 24.52142333984375 6.701871395111084 L 28.33085060119629 2.892709016799927 L 34.57956314086914 9.14108943939209 L 31.0218448638916 12.69805145263672 L 30.64768409729004 13.07213115692139 L 30.87458419799805 13.55009174346924 C 30.92594337463379 13.6582612991333 30.97730445861816 13.7675313949585 31.02739334106445 13.877121925354 L 31.22770309448242 14.31531143188477 L 31.70950317382812 14.31531143188477 L 36.72216415405273 14.31531143188477 L 36.72216415405273 23.15243148803711 L 32.21520233154297 23.15243148803711 L 31.67473411560059 23.15243148803711 L 31.50373458862305 23.66513061523438 C 31.42870330810547 23.89008140563965 31.34316444396973 24.12258148193359 31.24947357177734 24.356201171875 L 31.06523323059082 24.81561088562012 L 31.41521453857422 25.16565132141113 L 34.57578659057617 28.32671356201172 L 28.3271312713623 34.57496643066406 L 25.41945457458496 31.66585159301758 L 25.04350471496582 31.28971099853516 L 24.56416320800781 31.52004241943359 C 24.26494407653809 31.66382217407227 23.95034408569336 31.80073165893555 23.62909317016602 31.92697143554688 L 23.15339469909668 32.1139030456543 L 23.15339469909668 32.6250114440918 L 23.15339469909668 36.71782302856445 Z" stroke="none"/>
      <path d="M 22.40339469909668 35.96782302856445 L 22.40339469909668 32.6250114440918 L 22.40339469909668 31.60280227661133 L 23.35478401184082 31.22893142700195 C 23.65900421142578 31.1093921661377 23.95661354064941 30.97989082336426 24.23933410644531 30.84404182434082 L 25.19801330566406 30.38338088989258 L 25.94991493225098 31.13565063476562 L 28.32728004455566 33.51419448852539 L 33.51515197753906 28.32665634155273 L 30.88484382629395 25.69594192504883 L 30.18488311767578 24.99587059020996 L 30.55336380004883 24.0770320892334 C 30.64154434204102 23.8571605682373 30.721923828125 23.63874244689941 30.79226303100586 23.42783164978027 L 31.13427352905273 22.40243148803711 L 32.21520233154297 22.40243148803711 L 35.97216415405273 22.40243148803711 L 35.97216415405273 15.06531143188477 L 31.70950317382812 15.06531143188477 L 30.74589347839355 15.06531143188477 L 30.34528350830078 14.18893146514893 C 30.29669380187988 14.0826416015625 30.24687385559082 13.97666168212891 30.19706344604492 13.87173175811768 L 29.74325370788574 12.91582107543945 L 30.49156379699707 12.16767120361328 L 33.51883316040039 9.141046524047852 L 28.33084487915039 3.953336477279663 L 25.05173492431641 7.232221603393555 L 24.34638404846191 7.937521457672119 L 23.42316436767578 7.559841632843018 L 23.39475440979004 7.548601627349854 C 23.37688446044922 7.541581630706787 23.35909461975098 7.534571647644043 23.34200477600098 7.527671337127686 L 22.40339469909668 7.148861408233643 L 22.40339469909668 6.136691570281982 L 22.40339469909668 1.500001549720764 L 15.06877422332764 1.500001549720764 L 15.06877422332764 6.137331485748291 L 15.06877422332764 7.1656813621521 L 14.10958385467529 7.536441326141357 L 14.07127380371094 7.551531314849854 L 14.03086376190186 7.56749153137207 L 13.11726379394531 7.925461292266846 L 12.42324352264404 7.231801509857178 L 9.143036842346191 3.953286647796631 L 3.956620931625366 9.141257286071777 L 6.979703903198242 12.16596126556396 L 7.72516393661499 12.91182136535645 L 7.27566385269165 13.86574172973633 C 7.2289137840271 13.96494197845459 7.17949390411377 14.07033157348633 7.134314060211182 14.17241191864014 L 6.739113807678223 15.06531143188477 L 5.762663841247559 15.06531143188477 L 1.500003933906555 15.06531143188477 L 1.500003933906555 22.40243148803711 L 5.258254051208496 22.40243148803711 L 6.333144187927246 22.40243148803711 L 6.678654193878174 23.4202823638916 C 6.756763935089111 23.650390625 6.83829402923584 23.87281227111816 6.920983791351318 24.08138084411621 L 7.2845139503479 24.99827194213867 L 6.586743831634521 25.69539070129395 L 3.952622413635254 28.32704734802246 L 9.142544746398926 33.51480484008789 L 11.52267360687256 31.13540077209473 L 12.27420425415039 30.38409233093262 L 13.23223400115967 30.84392166137695 C 13.52246379852295 30.98322105407715 13.8190336227417 31.11211204528809 14.11368370056152 31.22700119018555 L 15.06877422332764 31.59940147399902 L 15.06877422332764 32.6245231628418 L 15.06877422332764 35.96782302856445 L 22.40339469909668 35.96782302856445 M 23.90339469909668 37.46782302856445 L 13.56877422332764 37.46782302856445 L 13.56877422332764 32.6245231628418 C 13.23336410522461 32.49374008178711 12.90569400787354 32.35102081298828 12.58317375183105 32.19622039794922 L 9.142603874206543 35.6357421875 L 1.830583930015564 28.3267707824707 L 5.526584148406982 24.63423156738281 C 5.431124210357666 24.39346122741699 5.342113971710205 24.14948081970215 5.258254051208496 23.90243148803711 L 3.984374870924512e-06 23.90243148803711 L 3.984374870924512e-06 13.56531143188477 L 5.762663841247559 13.56531143188477 C 5.812983989715576 13.45162105560303 5.86587381362915 13.33858108520508 5.918764114379883 13.22634124755859 L 1.835744023323059 9.141131401062012 L 9.142603874206543 1.83208155632019 L 13.48363399505615 6.170871734619141 C 13.51201438903809 6.159751415252686 13.5403938293457 6.148301601409912 13.56877422332764 6.137331485748291 L 13.56877422332764 1.514282189418736e-06 L 23.90339469909668 1.514282189418736e-06 L 23.90339469909668 6.136691570281982 C 23.93176460266113 6.148141384124756 23.96273422241211 6.159911632537842 23.99111366271973 6.171521663665771 L 28.33085441589355 1.83208155632019 L 35.64029312133789 9.141131401062012 L 31.55211448669434 13.22844123840332 C 31.60501480102539 13.33987140655518 31.65790367126465 13.45243167877197 31.70950317382812 13.56531143188477 L 37.47216415405273 13.56531143188477 L 37.47216415405273 23.90243148803711 L 32.21520233154297 23.90243148803711 C 32.13264465332031 24.14996147155762 32.04233551025391 24.39411163330078 31.94558334350586 24.63536071777344 L 35.63642501831055 28.3267707824707 L 28.32698440551758 35.6357421875 L 24.88899421691895 32.19605255126953 C 24.56648445129395 32.35102081298828 24.2362232208252 32.49422073364258 23.90339469909668 32.6250114440918 L 23.90339469909668 37.46782302856445 Z" stroke="none" fill="#707070"/>
    </g>
    <g id="Ellipse_722" data-name="Ellipse 722" transform="translate(126 562)" fill="#fff" stroke="#60d6c9" stroke-width="1.5">
      <circle cx="9" cy="9" r="9" stroke="none"/>
      <circle cx="9" cy="9" r="8.25" fill="none"/>
    </g>
  </g>
</svg>
