<svg xmlns="http://www.w3.org/2000/svg" width="64.106" height="63.989" viewBox="0 0 64.106 63.989">
  <g id="Group_5304" data-name="Group 5304" transform="translate(6688.442 -16450.024)">
    <g id="Group_5294" data-name="Group 5294" transform="translate(4.919 -6)">
      <path id="Path_12619" data-name="Path 12619" d="M-6323.481,16360.117s-10.112.045-18.582,3.762-15.3,11.1-15.3,11.1l16.271,3.386Z" transform="translate(-336 110.977)" fill="#6c6c6c"/>
      <path id="Path_12620" data-name="Path 12620" d="M0,0S10.112.045,18.582,3.762s15.3,11.1,15.3,11.1L17.609,18.25Z" transform="matrix(0.259, 0.966, -0.966, 0.259, -6648.289, 16482.564)" fill="#6c6c6c"/>
      <path id="Path_12618" data-name="Path 12618" d="M-6329.212,16344.971l14.114-16.113a52.415,52.415,0,0,1,11.229-9.122,39.236,39.236,0,0,1,13.883-5.332,44.088,44.088,0,0,1,10.412-.974,30.864,30.864,0,0,1-.663,10.9,56.543,56.543,0,0,1-5.994,14.288,50.938,50.938,0,0,1-9.221,11.3l-15.96,13.988-18.456-18.236Z" transform="translate(-349.892 142.612)" fill="#6c6c6c"/>
      <ellipse id="Ellipse_1052" data-name="Ellipse 1052" cx="7" cy="7.5" rx="7" ry="7.5" transform="translate(-6653.919 16467)" fill="#333"/>
      <path id="Path_12621" data-name="Path 12621" d="M-6354.094,16443.891l-6.538,2.961-4.568,1.516s-1.172-.209-.831-1.232,2.9-8.184,2.9-8.184a8.762,8.762,0,0,1,2.35-3.777,6.509,6.509,0,0,1,3.438-1.184,5.267,5.267,0,0,1,5.246,3.395C-6350.707,16441.107-6354.094,16443.891-6354.094,16443.891Z" transform="translate(-320.888 64.143)" fill="#6c6c6c"/>
    </g>
  </g>
</svg>
