<svg xmlns="http://www.w3.org/2000/svg" width="130" height="70" viewBox="0 0 130 70">
  <g id="Group_5305" data-name="Group 5305" transform="translate(6696 -16751)">
    <g id="Group_5299" data-name="Group 5299" transform="translate(-5)">
      <rect id="Rectangle_3972" data-name="Rectangle 3972" width="103" height="70" rx="3" transform="translate(-6664 16751)" fill="#6c6c6c"/>
      <rect id="Rectangle_3970" data-name="Rectangle 3970" width="95" height="56" rx="3" transform="translate(-6660 16758)" fill="#333"/>
      <g id="Group_5296" data-name="Group 5296" transform="translate(415.009 1.67)">
        <path id="Path_12603" data-name="Path 12603" d="M-7043.355,16804.33l16.883-9.076,7.054,5.088,15.031-8.348,5,3.26,13.623-8.785" transform="translate(-2 2)" fill="none" stroke="#6c6c6c" stroke-width="1"/>
        <g id="Path_12807" data-name="Path 12807" transform="translate(-7047.009 16803.33)" fill="#333">
          <path d="M 2 3.5 C 1.172899961471558 3.5 0.5 2.827100038528442 0.5 2 C 0.5 1.172899961471558 1.172899961471558 0.5 2 0.5 C 2.827100038528442 0.5 3.5 1.172899961471558 3.5 2 C 3.5 2.827100038528442 2.827100038528442 3.5 2 3.5 Z" stroke="none"/>
          <path d="M 2 1 C 1.448600053787231 1 1 1.448600053787231 1 2 C 1 2.551399946212769 1.448600053787231 3 2 3 C 2.551399946212769 3 3 2.551399946212769 3 2 C 3 1.448600053787231 2.551399946212769 1 2 1 M 2 0 C 3.104569911956787 0 4 0.8954300880432129 4 2 C 4 3.104569911956787 3.104569911956787 4 2 4 C 0.8954300880432129 4 0 3.104569911956787 0 2 C 0 0.8954300880432129 0.8954300880432129 0 2 0 Z" stroke="none" fill="#6c6c6c"/>
        </g>
        <g id="Ellipse_1048" data-name="Ellipse 1048" transform="translate(-7031.009 16795.33)" fill="#333" stroke="#6c6c6c" stroke-width="1">
          <circle cx="2" cy="2" r="2" stroke="none"/>
          <circle cx="2" cy="2" r="1.5" fill="none"/>
        </g>
        <g id="Ellipse_1049" data-name="Ellipse 1049" transform="translate(-7023.009 16799.33)" fill="#333" stroke="#6c6c6c" stroke-width="1">
          <circle cx="2" cy="2" r="2" stroke="none"/>
          <circle cx="2" cy="2" r="1.5" fill="none"/>
        </g>
        <g id="Ellipse_1050" data-name="Ellipse 1050" transform="translate(-7009.009 16792.33)" fill="#333" stroke="#6c6c6c" stroke-width="1">
          <circle cx="2" cy="2" r="2" stroke="none"/>
          <circle cx="2" cy="2" r="1.5" fill="none"/>
        </g>
        <g id="Ellipse_1051" data-name="Ellipse 1051" transform="translate(-6989.009 16787.33)" fill="#333" stroke="#6c6c6c" stroke-width="1">
          <circle cx="2" cy="2" r="2" stroke="none"/>
          <circle cx="2" cy="2" r="1.5" fill="none"/>
        </g>
      </g>
      <rect id="Rectangle_3971" data-name="Rectangle 3971" width="47" height="3" transform="translate(-6619 16769)" fill="#6c6c6c"/>
      <rect id="Rectangle_3975" data-name="Rectangle 3975" width="47" height="3" transform="translate(-6619 16775)" fill="#6c6c6c"/>
      <rect id="Rectangle_3976" data-name="Rectangle 3976" width="47" height="3" transform="translate(-6619 16781)" fill="#6c6c6c"/>
      <g id="Group_5297" data-name="Group 5297" transform="translate(52 -1)">
        <path id="Path_12623" data-name="Path 12623" d="M25.981,0a12.481,12.481,0,1,0,0,24.962" transform="translate(-6719 16767)" fill="#6c6c6c"/>
        <path id="Path_12624" data-name="Path 12624" d="M13.5,0a12.481,12.481,0,1,1,0,24.962" transform="translate(-6706.981 16767)" fill="#7e7e7e"/>
        <path id="Path_12622" data-name="Path 12622" d="M13.5,0A12.481,12.481,0,0,1,25.981,12.481c0,.655-11.377,0-12.481,0" transform="translate(-6706.981 16767)" fill="#5a5757"/>
      </g>
    </g>
    <g id="Group_5300" data-name="Group 5300" transform="translate(-145 -4)">
      <rect id="Rectangle_3977" data-name="Rectangle 3977" width="7" height="15" transform="translate(-6551 16803)" fill="#6c6c6c"/>
      <rect id="Rectangle_3978" data-name="Rectangle 3978" width="8" height="21" transform="translate(-6544 16797)" fill="#6c6c6c"/>
      <rect id="Rectangle_3979" data-name="Rectangle 3979" width="7" height="32" transform="translate(-6536 16786)" fill="#6c6c6c"/>
    </g>
  </g>
</svg>
