<svg width="87" height="87" viewBox="0 0 87 87" fill="none" xmlns="http://www.w3.org/2000/svg">
<g clip-path="url(#clip0_3017_21704)">
<path d="M45.4891 10.0699C54.8361 10.5119 62.6891 14.5229 67.8021 23.0699C72.3431 30.6559 70.3071 39.6699 62.9101 45.2419C60.8535 46.6276 58.6977 47.8599 56.4601 48.9289C52.4091 51.1239 48.3361 53.2789 44.2701 55.4489C42.9831 56.1349 41.7291 56.8949 40.3941 57.4749C36.4251 59.2019 32.8561 58.1859 29.9751 55.2749C24.4503 49.9005 20.5777 43.0582 18.8141 35.5549C18.156 32.9532 18.1692 30.2269 18.8526 27.6317C19.5359 25.0365 20.867 22.6572 22.7211 20.7169C28.6901 14.1479 36.1841 10.7379 45.4891 10.0699Z" fill="#222222"/>
<path d="M22.2832 33.6259C22.5362 27.7389 24.1412 23.1969 27.9512 19.6529C31.3966 16.495 35.7429 14.493 40.3822 13.9269C43.2252 13.4897 46.121 13.5258 48.9522 14.0339C50.8497 14.357 52.6607 15.066 54.2732 16.1169C55.8857 17.1678 57.2655 18.5385 58.3272 20.1439C61.1224 24.0888 63.2061 28.4921 64.4842 33.1549C65.1042 35.6239 65.0952 38.0859 63.5352 40.2709C62.3849 41.7414 60.8702 42.8856 59.1412 43.5899C53.9891 46.1385 48.6381 48.2635 43.1412 49.9439C40.6519 50.7377 38.0019 50.8876 35.4389 50.3796C32.876 49.8716 30.4835 48.7223 28.4852 47.0389C25.8185 44.7838 23.9472 41.7314 23.1472 38.3319C22.7788 36.7791 22.4904 35.2084 22.2832 33.6259V33.6259Z" fill="#808080"/>
<path d="M39.8779 68.164C40.8339 66.928 41.7118 65.814 42.5648 64.681C42.7437 64.4204 42.9998 64.2224 43.297 64.1148C43.5941 64.0072 43.9176 63.9953 44.2219 64.0809C44.7919 64.2009 44.9438 64.3809 44.9848 64.9689C44.9908 65.0509 44.9848 65.133 44.9848 65.215C44.9848 67.539 44.9908 69.862 44.9848 72.186C45.0107 72.4104 44.971 72.6375 44.8706 72.8399C44.7701 73.0422 44.6133 73.2112 44.4189 73.3264C44.2245 73.4415 44.001 73.498 43.7752 73.4888C43.5495 73.4797 43.3312 73.4054 43.1468 73.275C42.7358 73.066 42.6988 72.681 42.6928 72.293C42.6848 71.228 42.6929 70.161 42.6869 69.093C42.6869 68.832 42.6638 68.5719 42.6458 68.1589C42.4098 68.4299 42.2658 68.576 42.1458 68.738C41.7358 69.285 41.3459 69.851 40.9249 70.385C40.8282 70.5707 40.683 70.7269 40.5048 70.8369C40.3266 70.9469 40.122 71.0067 39.9126 71.0098C39.7032 71.013 39.4969 70.9595 39.3154 70.8549C39.1339 70.7504 38.9841 70.5987 38.8818 70.416C38.4308 69.868 38.0258 69.282 37.5958 68.716C37.4828 68.566 37.3579 68.424 37.1589 68.184C37.1164 68.3839 37.0865 68.5863 37.0698 68.79C37.0645 69.9373 37.0645 71.085 37.0698 72.233C37.0698 72.656 37.0589 73.075 36.6019 73.28C36.38 73.3903 36.1343 73.4442 35.8866 73.4369C35.6389 73.4296 35.3968 73.3613 35.1818 73.238C35.0098 73.1108 34.8821 72.9327 34.8169 72.729C34.7731 72.543 34.7616 72.3508 34.7828 72.161C34.7828 69.8643 34.7828 67.568 34.7828 65.272C34.7828 64.801 34.7469 64.3029 35.3359 64.1329C35.6136 64.0097 35.9226 63.9761 36.2203 64.0367C36.518 64.0973 36.7894 64.249 36.9968 64.471C37.5438 65.116 38.0428 65.803 38.5628 66.471C38.9738 67.001 39.3869 67.535 39.8779 68.164Z" fill="#222222"/>
<path d="M62.999 70.969V69.706C62.614 69.686 62.2639 69.686 61.9189 69.645C61.3569 69.579 61.2029 69.3451 61.2189 68.6601C61.2309 68.0351 61.388 67.791 61.931 67.769C62.804 67.733 63.678 67.736 64.552 67.769C65.081 67.789 65.307 68.009 65.327 68.534C65.363 69.57 65.34 70.607 65.348 71.645C65.3387 71.8226 65.2903 71.9958 65.2065 72.1526C65.1227 72.3093 65.0054 72.4457 64.863 72.552C64.0645 73.2371 63.0362 73.5944 61.9849 73.552C61.0755 73.6072 60.17 73.3923 59.3823 72.9344C58.5946 72.4764 57.9599 71.7958 57.5579 70.9781C57.0966 70.2082 56.8734 69.319 56.9163 68.4226C56.9592 67.5261 57.2662 66.6624 57.7989 65.94C58.523 64.8935 59.6316 64.1758 60.8828 63.9433C62.1339 63.7108 63.4263 63.9825 64.478 64.6991C65.184 65.1721 65.245 65.58 64.713 66.245C64.205 66.877 63.9049 66.956 63.1779 66.55C62.791 66.3143 62.3502 66.1814 61.8974 66.1639C61.4446 66.1464 60.9949 66.2449 60.5909 66.45C60.1319 66.6729 59.7573 67.0383 59.523 67.4915C59.2887 67.9448 59.2074 68.4617 59.291 68.9651C59.369 69.5097 59.614 70.0167 59.9923 70.4162C60.3705 70.8158 60.8634 71.0882 61.4029 71.196C61.945 71.3103 62.5102 71.2299 62.999 70.969Z" fill="#222222"/>
<path d="M82.5258 66.967C83.0355 66.8287 83.5585 66.7449 84.0859 66.717C84.8363 66.8103 85.5324 67.1566 86.0595 67.6987C86.5867 68.2407 86.9134 68.9463 86.9858 69.699C87.0524 70.3295 86.939 70.966 86.6589 71.5348C86.3787 72.1036 85.9432 72.5814 85.4028 72.913C84.9844 73.2211 84.4791 73.3887 83.9594 73.3915C83.4398 73.3944 82.9326 73.2324 82.5108 72.9289C82.3153 73.1129 82.0807 73.2502 81.8245 73.3304C81.5684 73.4106 81.2973 73.4316 81.0318 73.392C80.4488 73.299 80.2798 73.143 80.1878 72.565C80.1592 72.3486 80.1475 72.1302 80.1528 71.912C80.1528 69.6153 80.1528 67.3186 80.1528 65.022C80.1528 64.912 80.1528 64.804 80.1528 64.694C80.1422 64.4757 80.1913 64.2587 80.295 64.0664C80.3987 63.874 80.5529 63.7136 80.741 63.6025C80.9292 63.4913 81.144 63.4337 81.3625 63.4357C81.581 63.4377 81.7948 63.4993 81.9808 63.6139C82.1192 63.6758 82.2359 63.7777 82.3156 63.9067C82.3953 64.0356 82.4344 64.1855 82.4278 64.337C82.4548 64.992 82.4658 65.647 82.4888 66.302C82.4938 66.535 82.5148 66.769 82.5258 66.967ZM83.5709 68.909C83.2689 68.9217 82.9842 69.0529 82.7783 69.2742C82.5724 69.4954 82.462 69.7889 82.4709 70.091C82.489 70.3783 82.6147 70.6483 82.8231 70.847C83.0314 71.0457 83.3069 71.1585 83.5948 71.163C83.7401 71.1639 83.8843 71.1361 84.0189 71.0814C84.1535 71.0266 84.276 70.9458 84.3793 70.8436C84.4827 70.7415 84.5649 70.62 84.6213 70.486C84.6777 70.3521 84.7071 70.2083 84.7078 70.063V70.019C84.7148 69.7317 84.6076 69.4534 84.4096 69.2451C84.2116 69.0368 83.9391 68.9155 83.6518 68.9079L83.5709 68.909Z" fill="#222222"/>
<path d="M0.000146822 68.102C0.0610403 67.3296 0.333457 66.5889 0.7875 65.9611C1.24154 65.3333 1.85965 64.8427 2.57412 64.543C3.36991 64.1071 4.27205 63.903 5.178 63.9541C6.08395 64.0052 6.95739 64.3094 7.69912 64.832C7.80529 64.8835 7.8989 64.9576 7.97329 65.0491C8.04768 65.1407 8.10105 65.2474 8.12966 65.3619C8.15827 65.4763 8.16137 65.5956 8.13882 65.7114C8.11627 65.8272 8.06864 65.9366 7.99917 66.032C7.55017 66.92 7.06313 67.062 6.16213 66.559C5.64573 66.2713 5.04786 66.1648 4.46389 66.2565C3.87992 66.3482 3.34345 66.6329 2.94009 67.065C2.56663 67.4705 2.33953 67.9892 2.29495 68.5386C2.25037 69.0881 2.39091 69.6366 2.69412 70.097C3.04275 70.5904 3.54712 70.9523 4.12625 71.1244C4.70537 71.2965 5.32558 71.2689 5.88711 71.046C6.01211 70.993 6.12815 70.92 6.25015 70.859C6.58215 70.692 6.95016 70.338 7.29116 70.659C7.63675 70.9968 7.9117 71.4 8.10012 71.845C8.24312 72.175 7.95514 72.445 7.67214 72.645C7.13209 73.045 6.51032 73.3207 5.85134 73.4524C5.19236 73.5841 4.51243 73.5686 3.86013 73.407C1.62113 72.874 -0.0178532 71.17 0.000146822 68.102Z" fill="#222222"/>
<path d="M28.6123 70.048C28.9123 70.296 29.1553 70.499 29.4013 70.701C29.6753 70.926 29.9563 71.144 30.2253 71.374C30.8803 71.932 30.9172 72.231 30.4252 72.896C29.9332 73.561 29.5173 73.65 28.8393 73.136C28.4053 72.808 28.0173 72.419 27.6103 72.058C27.4103 71.882 27.2103 71.705 26.9013 71.426C26.8653 71.894 26.8573 72.226 26.8093 72.561C26.7143 73.233 26.3793 73.461 25.5783 73.427C24.8383 73.396 24.5783 73.168 24.5783 72.439C24.567 69.791 24.567 67.1426 24.5783 64.494C24.5783 63.749 24.8163 63.532 25.5573 63.494C26.3843 63.45 26.7653 63.694 26.8053 64.42C26.8563 65.372 26.8303 66.331 26.8343 67.285C26.8343 67.637 26.8343 67.985 26.8343 68.328C27.2513 68.454 27.3703 68.137 27.5673 67.985C27.9313 67.703 28.2672 67.368 28.6502 67.123C29.1062 66.836 29.3503 66.895 29.7403 67.277C29.8734 67.4142 29.9917 67.5651 30.0933 67.727C30.4133 68.227 30.4053 68.388 29.9993 68.801C29.7523 69.053 29.4693 69.272 29.2053 69.506C29.0313 69.661 28.8583 69.823 28.6123 70.048Z" fill="#222222"/>
<path d="M49.6421 69.892C49.7309 69.7728 49.8118 69.6478 49.8841 69.518C50.2181 68.801 50.5471 68.082 50.8751 67.361C51.0471 66.984 51.2131 66.588 51.7191 66.588C51.9663 66.5824 52.2114 66.6343 52.4353 66.7394C52.6591 66.8446 52.8555 67.0002 53.0091 67.194C53.2781 67.524 53.1221 67.864 52.9731 68.194C52.4658 69.312 51.9594 70.4296 51.4541 71.547L49.554 75.72C49.393 76.075 49.2271 76.449 48.7541 76.413C48.4938 76.4174 48.2365 76.3561 48.0062 76.2348C47.7758 76.1135 47.5798 75.9362 47.4361 75.719C47.351 75.4957 47.3553 75.2482 47.4481 75.028C47.6882 74.3898 47.9616 73.7646 48.2671 73.155C48.3789 72.9701 48.4334 72.7562 48.4238 72.5403C48.4142 72.3245 48.3409 72.1162 48.2131 71.942C47.4571 70.742 46.732 69.521 46.013 68.296C45.589 67.573 45.6861 67.239 46.3741 66.806C47.0941 66.353 47.474 66.43 47.925 67.154C48.386 67.894 48.825 68.654 49.283 69.395C49.382 69.553 49.5001 69.697 49.6421 69.892Z" fill="#222222"/>
<path d="M16.5752 70.0239C16.5993 69.0851 16.9872 68.1924 17.657 67.5342C18.3268 66.8759 19.2261 66.5037 20.1652 66.496C21.1059 66.5069 22.0051 66.8857 22.67 67.5512C23.335 68.2168 23.7131 69.1162 23.7233 70.0569C23.6996 70.9841 23.3158 71.8656 22.6533 72.5146C21.9908 73.1637 21.1016 73.5293 20.1742 73.5339C19.2335 73.5388 18.3287 73.1735 17.6553 72.5167C16.9818 71.8599 16.5938 70.9644 16.5752 70.0239ZM20.1322 68.7499C19.9669 68.7491 19.803 68.781 19.6499 68.8435C19.4969 68.906 19.3577 68.9981 19.2402 69.1144C19.1228 69.2308 19.0293 69.3692 18.9653 69.5216C18.9013 69.6741 18.868 69.8376 18.8672 70.0029C18.8672 70.0229 18.8672 70.0419 18.8672 70.0599C18.8789 70.3889 19.0181 70.7004 19.2552 70.9286C19.4924 71.1569 19.809 71.2839 20.1382 71.283C20.4806 71.2718 20.8052 71.1278 21.0432 70.8813C21.2812 70.6349 21.4139 70.3055 21.4132 69.963C21.3963 69.6348 21.2537 69.3258 21.015 69.0999C20.7763 68.8741 20.4598 68.7487 20.1312 68.7499H20.1322Z" fill="#222222"/>
<path d="M12.354 73.499C11.8899 73.5009 11.4299 73.4111 11.0005 73.2349C10.5711 73.0587 10.1807 72.7995 9.85168 72.4721C9.52265 72.1448 9.26142 71.7557 9.08301 71.3272C8.9046 70.8987 8.81253 70.4392 8.81201 69.9751C8.83441 69.0503 9.21674 68.1708 9.87769 67.5237C10.5386 66.8766 11.426 66.5129 12.351 66.51C12.8166 66.5031 13.2789 66.5887 13.7112 66.7618C14.1435 66.9349 14.5372 67.192 14.8694 67.5183C15.2016 67.8445 15.4658 68.2335 15.6466 68.6626C15.8275 69.0917 15.9214 69.5524 15.923 70.018C15.9266 70.4836 15.8361 70.9452 15.6569 71.375C15.4777 71.8047 15.2135 72.1939 14.8801 72.519C14.5468 72.8441 14.1513 73.0985 13.7172 73.2669C13.2831 73.4353 12.8194 73.5143 12.354 73.499V73.499ZM13.6179 70.0911C13.6474 69.7663 13.5467 69.4432 13.338 69.1926C13.1293 68.9421 12.8297 68.7847 12.505 68.755C12.471 68.755 12.4369 68.7501 12.4049 68.7501C12.0768 68.7398 11.7578 68.859 11.517 69.0821C11.2761 69.3052 11.1327 69.6141 11.1179 69.942C11.0901 70.2699 11.193 70.5955 11.4041 70.848C11.6151 71.1004 11.9174 71.2593 12.245 71.2901C12.4123 71.3029 12.5805 71.2826 12.74 71.2304C12.8995 71.1781 13.0471 71.095 13.1744 70.9857C13.3018 70.8764 13.4063 70.7431 13.4821 70.5933C13.5578 70.4436 13.6033 70.2804 13.616 70.1131C13.6163 70.1061 13.6163 70.0991 13.616 70.0921L13.6179 70.0911Z" fill="#222222"/>
<path d="M76.822 72.797C74.716 74.348 72.6309 72.47 72.4219 70.814C72.3192 69.7003 72.2995 68.5805 72.363 67.464C72.378 66.864 72.6629 66.681 73.3549 66.637C74.0469 66.593 74.446 66.819 74.572 67.343C74.6196 67.5843 74.6404 67.8301 74.634 68.076C74.642 68.704 74.625 69.3329 74.64 69.9619C74.66 70.7379 75.04 71.144 75.703 71.139C76.408 71.139 76.811 70.709 76.842 69.927C76.848 69.763 76.842 69.599 76.842 69.435C76.842 68.916 76.834 68.396 76.842 67.877C76.8207 67.6516 76.8636 67.4249 76.9658 67.2229C77.0679 67.0209 77.2251 66.8519 77.4191 66.7354C77.6132 66.619 77.8362 66.5597 78.0625 66.5646C78.2887 66.5695 78.5091 66.6382 78.6979 66.763C78.8457 66.8364 78.966 66.9553 79.0411 67.1022C79.1162 67.2491 79.142 67.4162 79.1149 67.579C79.1149 69.219 79.1149 70.8586 79.1149 72.498C79.1149 72.526 79.1149 72.552 79.1149 72.58C79.129 72.7737 79.0656 72.965 78.9387 73.112C78.8117 73.259 78.6316 73.3497 78.4379 73.364C78.1443 73.4679 77.824 73.4683 77.5301 73.3651C77.2362 73.262 76.9863 73.0616 76.822 72.797V72.797Z" fill="#222222"/>
<path d="M68.7822 67.13C68.9819 67.0019 69.1928 66.8922 69.4122 66.802C69.7173 66.6923 70.0374 66.6299 70.3613 66.617C70.7943 66.617 71.2793 66.661 71.4973 67.117C71.5951 67.3597 71.6285 67.6237 71.5943 67.8832C71.5602 68.1426 71.4596 68.3888 71.3022 68.598C71.2192 68.7422 71.0922 68.856 70.9398 68.9228C70.7874 68.9895 70.6176 69.0058 70.4553 68.969C70.2403 68.933 70.0313 68.849 69.8163 68.828C69.6748 68.7998 69.5287 68.8049 69.3895 68.8427C69.2503 68.8806 69.1218 68.9503 69.0141 69.0462C68.9064 69.1422 68.8225 69.2619 68.7689 69.3958C68.7153 69.5297 68.6935 69.6743 68.7053 69.818C68.7443 70.609 68.7223 71.404 68.7053 72.197C68.7256 72.4218 68.6815 72.6477 68.5783 72.8485C68.4752 73.0493 68.3172 73.2168 68.1227 73.3313C67.9281 73.4458 67.7051 73.5027 67.4795 73.4954C67.2538 73.4881 67.035 73.4169 66.8482 73.29C66.666 73.181 66.5288 73.0104 66.4613 72.809C66.394 72.5449 66.3667 72.2722 66.3802 72C66.3732 70.688 66.3672 69.375 66.3802 68.063C66.3852 67.587 66.2653 67.009 66.8563 66.783C67.1388 66.6358 67.4609 66.583 67.7756 66.6321C68.0903 66.6812 68.381 66.8298 68.6052 67.056C68.6442 67.09 68.7052 67.097 68.7822 67.13Z" fill="#222222"/>
<path d="M55.4442 30.6879H57.0442V32.3279C55.8282 32.3279 54.6542 32.3559 53.4822 32.3149C53.256 32.2915 53.0284 32.3419 52.8332 32.4585C52.638 32.5751 52.4857 32.7517 52.3992 32.9619C51.5298 34.6127 50.5769 36.2181 49.5442 37.7719C47.7532 40.3079 44.8942 41.4229 42.3202 42.9769C40.7902 41.1939 39.3012 39.4769 37.8472 37.7359C37.7685 37.6155 37.7162 37.4799 37.6936 37.3379C37.6711 37.1959 37.6787 37.0507 37.7162 36.9119C37.8575 36.4016 38.0775 35.9165 38.3682 35.4739C38.9567 34.548 39.1795 33.4361 38.9932 32.3549H34.7642V30.7069H36.2792C36.8672 25.5149 39.6642 22.4439 44.7072 21.4009C44.7072 20.1529 45.0322 19.6409 45.8682 19.6329C46.7042 19.6249 47.0372 20.1329 47.0602 21.4029C52.0822 22.4339 54.8382 25.5169 55.4442 30.6879ZM43.1242 32.3639C43.0971 32.877 43.1008 33.3913 43.1352 33.9039C43.1509 34.2793 43.2851 34.6401 43.5187 34.9344C43.7523 35.2287 44.0731 35.4414 44.4352 35.5419C44.7767 35.6616 45.1476 35.6686 45.4934 35.5619C45.8391 35.4551 46.1416 35.2403 46.3562 34.9489C46.9312 34.1659 47.3902 33.2959 47.9632 32.3639H43.1242Z" fill="white"/>
<path d="M39.0693 19.537C39.0693 19.7757 38.9745 20.0046 38.8057 20.1734C38.6369 20.3421 38.408 20.437 38.1693 20.437H20.9303C20.6916 20.437 20.4627 20.3421 20.2939 20.1734C20.1252 20.0046 20.0303 19.7757 20.0303 19.537V19.537C20.0303 19.2983 20.1252 19.0693 20.2939 18.9006C20.4627 18.7318 20.6916 18.637 20.9303 18.637H38.1693C38.408 18.637 38.6369 18.7318 38.8057 18.9006C38.9745 19.0693 39.0693 19.2983 39.0693 19.537V19.537Z" fill="white"/>
<path d="M18.7144 19.537C18.7144 19.7757 18.6195 20.0046 18.4508 20.1734C18.282 20.3421 18.0531 20.437 17.8144 20.437H16.6624C16.4237 20.437 16.1947 20.3421 16.026 20.1734C15.8572 20.0046 15.7624 19.7757 15.7624 19.537V19.537C15.7624 19.2983 15.8572 19.0693 16.026 18.9006C16.1947 18.7318 16.4237 18.637 16.6624 18.637H17.8144C18.0531 18.637 18.282 18.7318 18.4508 18.9006C18.6195 19.0693 18.7144 19.2983 18.7144 19.537V19.537Z" fill="white"/>
<path d="M33.8164 22.4919C33.8164 22.7306 33.7216 22.9595 33.5528 23.1283C33.384 23.2971 33.1551 23.3919 32.9164 23.3919H31.4364C31.1977 23.3919 30.9688 23.2971 30.8 23.1283C30.6312 22.9595 30.5364 22.7306 30.5364 22.4919V22.4919C30.5364 22.2532 30.6312 22.0243 30.8 21.8555C30.9688 21.6867 31.1977 21.5919 31.4364 21.5919H32.9164C33.1551 21.5919 33.384 21.6867 33.5528 21.8555C33.7216 22.0243 33.8164 22.2532 33.8164 22.4919V22.4919Z" fill="white"/>
<path d="M29.3843 22.4919C29.3843 22.7306 29.2895 22.9595 29.1207 23.1283C28.9519 23.2971 28.723 23.3919 28.4843 23.3919H17.8143C17.5756 23.3919 17.3467 23.2971 17.1779 23.1283C17.0091 22.9595 16.9143 22.7306 16.9143 22.4919V22.4919C16.9143 22.2532 17.0091 22.0243 17.1779 21.8555C17.3467 21.6867 17.5756 21.5919 17.8143 21.5919H28.4843C28.723 21.5919 28.9519 21.6867 29.1207 21.8555C29.2895 22.0243 29.3843 22.2532 29.3843 22.4919V22.4919Z" fill="white"/>
<path d="M35.1294 25.9389C35.1294 26.1776 35.0346 26.4066 34.8658 26.5753C34.697 26.7441 34.4681 26.8389 34.2294 26.8389H29.3024C29.0637 26.8389 28.8348 26.7441 28.666 26.5753C28.4972 26.4066 28.4024 26.1776 28.4024 25.9389V25.9389C28.4024 25.7002 28.4972 25.4713 28.666 25.3025C28.8348 25.1338 29.0637 25.0389 29.3024 25.0389H34.2294C34.4681 25.0389 34.697 25.1338 34.8658 25.3025C35.0346 25.4713 35.1294 25.7002 35.1294 25.9389V25.9389Z" fill="white"/>
<path d="M27.4146 25.9389C27.4146 26.1776 27.3197 26.4066 27.1509 26.5753C26.9822 26.7441 26.7532 26.8389 26.5146 26.8389H17.8146C17.6964 26.8389 17.5793 26.8157 17.4701 26.7704C17.3609 26.7252 17.2617 26.6589 17.1782 26.5753C17.0946 26.4918 17.0283 26.3925 16.9831 26.2834C16.9378 26.1742 16.9146 26.0571 16.9146 25.9389V25.9389C16.9146 25.8208 16.9378 25.7037 16.9831 25.5945C17.0283 25.4853 17.0946 25.3861 17.1782 25.3025C17.2617 25.219 17.3609 25.1527 17.4701 25.1074C17.5793 25.0622 17.6964 25.0389 17.8146 25.0389H26.5146C26.7532 25.0389 26.9822 25.1338 27.1509 25.3025C27.3197 25.4713 27.4146 25.7002 27.4146 25.9389V25.9389Z" fill="white"/>
<path d="M36.4491 39.609L40.4331 44.192C40.7186 44.5207 40.8617 44.9494 40.8312 45.3837C40.8006 45.818 40.5988 46.2224 40.2701 46.508L25.7751 59.108C25.4465 59.3935 25.0179 59.5369 24.5836 59.5065C24.1493 59.4761 23.7448 59.2745 23.4591 58.946L19.4751 54.363C18.8811 53.679 16.0571 48.646 16.7421 48.05L34.1321 39.45C34.2947 39.3082 34.4836 39.1999 34.688 39.1312C34.8924 39.0625 35.1084 39.0347 35.3236 39.0495C35.5387 39.0643 35.7489 39.1213 35.942 39.2173C36.1351 39.3133 36.3075 39.4464 36.4491 39.609V39.609Z" fill="white"/>
</g>
<defs>
<clipPath id="clip0_3017_21704">
<rect width="87" height="87" fill="white"/>
</clipPath>
</defs>
</svg>
