<svg width="150" height="112" viewBox="0 0 150 112" fill="none" xmlns="http://www.w3.org/2000/svg">
<path d="M79.1084 28.3076C77.1468 28.3076 75.5567 26.7146 75.5567 24.7495C75.5567 22.7844 77.1468 21.1914 79.1084 21.1914C81.07 21.1914 82.6602 22.7844 82.6602 24.7495C82.6602 26.7146 81.07 28.3076 79.1084 28.3076Z" fill="#707071"/>
<path d="M94.7133 24.5596C92.3566 24.5596 90.4461 22.6435 90.4461 20.2798C90.4461 17.9161 92.3566 16 94.7133 16C97.07 16 98.9805 17.9161 98.9805 20.2798C98.9805 22.6435 97.07 24.5596 94.7133 24.5596Z" fill="#3B3B3B"/>
<path d="M68.0683 32.5246C65.9249 32.5246 64.1873 30.7842 64.1873 28.6373C64.1873 26.4904 65.9249 24.75 68.0683 24.75C70.2117 24.75 71.9492 26.4904 71.9492 28.6373C71.9492 30.7842 70.2117 32.5246 68.0683 32.5246Z" fill="#3B3B3B"/>
<path d="M57.0972 38.9451C55.328 38.9451 53.8937 37.508 53.8937 35.7353C53.8937 33.9625 55.328 32.5254 57.0972 32.5254C58.8665 32.5254 60.3008 33.9625 60.3008 35.7353C60.3008 37.508 58.8665 38.9451 57.0972 38.9451Z" fill="#707071"/>
<path d="M68.0709 90.923C68.7863 92.1386 69.5334 93.3542 70.2995 94.5697C81.6954 64.6933 84.4558 43.2055 84.918 31.4297H74.7882C75.4783 42.9776 74.9465 62.9902 68.0709 90.923Z" fill="#3B3B3B"/>
<path d="M70.2974 94.5694L71.2154 96.0002C71.2154 96.0002 96.8944 62.3504 100.934 28.1688L84.9159 26.0732C84.4537 37.8491 81.725 64.6929 70.2974 94.5694Z" fill="#707071"/>
<path d="M50.004 42.5586C50.004 42.5586 49.6242 56.8859 64.8251 85.1922C66.7245 60.292 66.6801 53.7203 64.5339 42.7042L50.004 42.5586Z" fill="#3B3B3B"/>
<path d="M64.8229 85.1918C65.8486 87.0912 66.9291 89.0011 68.0644 90.9215C74.94 62.9887 75.6618 47.7307 74.9717 36.1575L63.4237 35.8789C65.6016 46.8887 66.7476 60.2916 64.8229 85.1918Z" fill="#707071"/>
</svg>
