<svg width="213" height="63" viewBox="0 0 213 63" fill="none" xmlns="http://www.w3.org/2000/svg">
<path d="M45.8267 35.221C45.8267 39.7513 41.7464 42.6913 33.9166 42.6913C28.4145 42.6913 23.6377 41.252 20.2209 38.7013L23.878 34.5013C26.2961 36.3017 29.8936 37.531 34.0356 37.531C37.0578 37.531 38.5391 37.0213 38.5391 35.9713C38.5391 34.952 37.3289 34.591 33.4008 34.2607C26.9001 33.692 21.1269 32.2198 21.1269 27.4204C21.1269 22.831 26.1749 20.311 33.037 20.311C37.481 20.311 41.8655 21.3304 44.9185 23.3407L41.4114 27.5998C39.0241 26.0401 36.2113 25.4101 33.037 25.4101C30.89 25.4101 28.4123 25.6792 28.4123 26.821C28.4123 27.8404 30.3169 28.0504 33.7336 28.3217C40.8074 28.8904 45.8267 30.2401 45.8267 35.221Z" fill="#1A1A1A"/>
<path d="M73.7398 21V42H66.3641V34.23H55.2696V42H47.8938V21H55.2696V28.4703H66.3641V21H73.7398Z" fill="#1A1A1A"/>
<path d="M94.1593 42L89.0209 35.8203H84.0633V42H76.7471V21H91.7719C97.4261 21 101.899 23.3997 101.899 28.4091C101.899 31.8587 99.7826 34.0791 96.6083 35.1291L102.562 42H94.1593ZM91.1657 30.9291C93.0703 30.9291 94.4304 30.3888 94.4304 28.5884C94.4304 26.7881 93.0703 26.2478 91.1657 26.2478H84.0611V30.9269H91.1657V30.9291Z" fill="#1A1A1A"/>
<path d="M164.768 21V42H157.483V29.6691L149.805 39.06H149.441L141.792 29.6691V42H134.688V21H142.729L149.803 30.1503L156.938 21H164.768Z" fill="#1A1A1A"/>
<path d="M174.127 21L179.418 29.3409L184.679 21H192.78L183.077 35.0109V42H175.701V35.0109L165.995 21H174.127Z" fill="#1A1A1A"/>
<path d="M124.398 24.5131L133.363 42H128.811C126.887 42 125.136 40.8975 124.319 39.1694L119.024 27.9956C118.865 27.6588 118.382 27.6588 118.224 27.9956L112.929 39.1694C112.111 40.8975 110.361 42 108.436 42H103.884L112.849 24.5131C113.954 22.3584 116.185 21 118.623 21C121.063 21 123.294 22.3584 124.398 24.5131Z" fill="#232021"/>
</svg>
