<svg xmlns="http://www.w3.org/2000/svg" xmlns:xlink="http://www.w3.org/1999/xlink" width="162" height="112" viewBox="0 0 162 112">
  <defs>
    <clipPath id="clip-Artboard_2">
      <rect width="162" height="112"/>
    </clipPath>
  </defs>
  <g id="Artboard_2" data-name="Artboard – 2" clip-path="url(#clip-Artboard_2)">
    <g id="_1A1_LOGO" data-name="1A1 LOGO" transform="translate(-64.897 -55.37)" style="mix-blend-mode: luminosity;isolation: isolate">
      <circle id="Ellipse_17" data-name="Ellipse 17" cx="5.211" cy="5.211" r="5.211" transform="translate(161.064 109.707)"/>
      <path id="Path_9461" data-name="Path 9461" d="M623.594,247.488l8.334-.828s.76.463,1.905,3.752c-.563.646-1.732,1.91-1.732,1.91s2.982,9.837-5.649,16.3l.176,2.674a17.371,17.371,0,0,1-3.79,1.853c-.636-.688-1.748-1.775-1.748-1.775s11.173-3.752,8.03-16.738C629.12,254.63,627.674,249.838,623.594,247.488Z" transform="translate(-469.261 -147.719)"/>
      <circle id="Ellipse_18" data-name="Ellipse 18" cx="5.211" cy="5.211" r="5.211" transform="translate(140.684 120.56)"/>
      <path id="Path_9462" data-name="Path 9462" d="M493.22,310.21l4.81,6.866s-.031.889-2.338,3.5c-.844-.17-2.513-.576-2.513-.576s-7.114,7.421-16.973,3.061l-2.243,1.461a17.388,17.388,0,0,1-3.473-2.392c.29-.892.691-2.392.691-2.392s8.745,7.894,18.521-1.21C489.7,318.527,493.177,314.918,493.22,310.21Z" transform="translate(-339.966 -202.299)"/>
      <circle id="Ellipse_19" data-name="Ellipse 19" cx="5.211" cy="5.211" r="5.211" transform="translate(121.418 108.111)"/>
      <path id="Path_9463" data-name="Path 9463" d="M443.788,243.279l-3.431,7.639s-.78.429-4.2-.215c-.281-.806-.792-2.453-.792-2.453s-10.017-2.314-11.319-13.01l-2.4-1.178a17.324,17.324,0,0,1,.281-4.211c.913-.208,2.411-.632,2.411-.632s-2.309,11.559,10.516,15.3C434.843,244.517,439.719,245.655,443.788,243.279Z" transform="translate(-298.061 -132.787)"/>
      <circle id="Ellipse_20" data-name="Ellipse 20" cx="5.211" cy="5.211" r="5.211" transform="translate(122.082 85.01)"/>
      <path id="Path_9464" data-name="Path 9464" d="M469.248,138.846l-8.344.712s-.754-.474-1.853-3.78c.563-.638,1.759-1.884,1.759-1.884s-2.846-9.878,5.874-16.218L466.543,115a17.588,17.588,0,0,1,3.815-1.8c.626.7,1.724,1.8,1.724,1.8s-11.222,3.6-8.254,16.629C463.828,131.628,465.2,136.44,469.248,138.846Z" transform="translate(-330.221 -33.334)"/>
      <circle id="Ellipse_21" data-name="Ellipse 21" cx="5.211" cy="5.211" r="5.211" transform="translate(142.51 74.57)"/>
      <path id="Path_9465" data-name="Path 9465" d="M512.138,150.5l-4.907-6.785s.018-.891,2.286-3.535c.844.156,2.521.536,2.521.536s7-7.527,16.926-3.316l2.219-1.495a17.329,17.329,0,0,1,3.51,2.342c-.281.9-.656,2.4-.656,2.4s-8.866-7.769-18.505,1.479C515.531,142.135,512.123,145.8,512.138,150.5Z" transform="translate(-371.484 -52.848)"/>
      <circle id="Ellipse_22" data-name="Ellipse 22" cx="5.211" cy="5.211" r="5.211" transform="translate(161.954 86.891)"/>
      <path id="Path_9466" data-name="Path 9466" d="M594.21,171l3.471-7.622s.782-.422,4.2.238c.282.806.78,2.457.78,2.457s10.006,2.362,11.259,13.069l2.392,1.189a17.217,17.217,0,0,1-.3,4.209c-.913.2-2.412.625-2.412.625s2.367-11.547-10.44-15.351A13.6,13.6,0,0,0,594.21,171Z" transform="translate(-446.139 -76.199)"/>
      <text id="_1A1_INNOVATIONS" data-name="1A1 INNOVATIONS" transform="translate(90.144 143.702)" font-size="11" font-family="Nunito-Bold, Nunito" font-weight="700" letter-spacing="0.08em"><tspan x="0" y="0">1A1 INN</tspan><tspan y="0" letter-spacing="0.07em">O</tspan><tspan y="0" letter-spacing="0.02em">V</tspan><tspan y="0" letter-spacing="0.01em">A</tspan><tspan y="0">TIONS</tspan></text>
    </g>
  </g>
</svg>
