<svg xmlns="http://www.w3.org/2000/svg" width="214" height="112" viewBox="0 0 214 112">
  <g id="Group_238" data-name="Group 238" transform="translate(-277 -4477)">
    <rect id="Rectangle_246" data-name="Rectangle 246" width="214" height="112" transform="translate(277 4477)" fill="#fff" opacity="0"/>
    <path id="Union_1" data-name="Union 1" d="M2383.011-9568.832c-2.839-.515-3.477-2.791-2.266-5.121a4.953,4.953,0,0,1,2.752-2.221c.432-.182.663-.4.27-.766-2.086-1.9-.8-4.859,2.051-5.673a6.583,6.583,0,0,1,3.617-.122c2.142.57,2.182,2.336,1.513,3.809a5.067,5.067,0,0,1-2.545,2.365c-.564.277-.651.545-.224,1.04a16.7,16.7,0,0,1,1.233,1.671c.337.506.644.454.91-.019a8.906,8.906,0,0,0,.878-1.771.854.854,0,0,1,.352-.56.848.848,0,0,1,.644-.139c.486.012.966,0,1.6,0a8.654,8.654,0,0,1-2.13,3.935,1.049,1.049,0,0,0-.467.826,1.041,1.041,0,0,0,.393.861c.46.534.84,1.134,1.361,1.852-1.193,0-2.21.043-3.215-.035-.236-.018-.5-.416-.638-.7-.231-.463-.526-.429-.866-.205a6.845,6.845,0,0,1-3.768,1.109,7.977,7.977,0,0,1-1.452-.135Zm1.858-6.033a6.422,6.422,0,0,0-1.361.98,1.954,1.954,0,0,0-.327,2.434,2.545,2.545,0,0,0,2.021.947c.709-.241,1.429-.455,2.117-.754a.656.656,0,0,0,.192-.617c-.643-.947-1.329-1.871-2.038-2.771a.787.787,0,0,0-.513-.238.165.165,0,0,0-.094.016Zm.718-5.139c-.446.756.035,1.324.355,1.91a.655.655,0,0,0,.476.428.655.655,0,0,0,.615-.178,8.808,8.808,0,0,0,1.5-1.281,1.4,1.4,0,0,0,.209-1.222c-.209-.405-.738-.642-.97-.825a2.481,2.481,0,0,0-2.183,1.179Zm41.346,10.955c-2.344-.68-2.637-2.59-2.266-4.547.42-2.2.962-4.387,1.444-6.578.144-.673.262-1.351.395-2.029.022-.1.065-.271.109-.271.866-.057,1.737-.09,2.606-.135a3.114,3.114,0,0,1,.026.808c-.582,2.774-1.208,5.539-1.768,8.315a2.236,2.236,0,0,0,.788,2.211,2.628,2.628,0,0,0,2.545.428c2.086-.6,2.69-2.314,3.1-4.18.52-2.363,1.071-4.727,1.578-7.109.105-.487.354-.609.809-.588.66.031,1.32,0,2.02,0-.546,2.576-1.033,5.047-1.578,7.5a17.925,17.925,0,0,1-.91,3.064,5.063,5.063,0,0,1-3.738,3.115,12.2,12.2,0,0,1-2.66.316,9,9,0,0,1-2.509-.326Zm40.085.3a5.5,5.5,0,0,1-3.595-1.316,4.127,4.127,0,0,1-1.348-2.684,9.39,9.39,0,0,1,2.93-8.142,6.848,6.848,0,0,1,3.594-1.78c.728-.121,1.455-.256,1.886-.331a7.358,7.358,0,0,1,4.033,1.024,4.933,4.933,0,0,1,1.955,5.027,9.645,9.645,0,0,1-2.777,5.926,8.147,8.147,0,0,1-5.9,2.307c-.26,0-.517-.012-.771-.023Zm3.273-12.145a9.685,9.685,0,0,0-1.566.291,7,7,0,0,0-3.775,7.1,2.952,2.952,0,0,0,1.7,2.488,4.574,4.574,0,0,0,4.967-1.271,7.71,7.71,0,0,0,1.93-5.14,3.11,3.11,0,0,0-.735-2.4,3.114,3.114,0,0,0-2.271-1.077.858.858,0,0,1-.244.022Zm-129.359,12.156a28.612,28.612,0,0,1-3.022-.412c.258-.718.473-1.217.607-1.733.149-.581.455-.587.909-.376a4.753,4.753,0,0,0,3.732.272,2.3,2.3,0,0,0,1.608-1.512,1.213,1.213,0,0,0-.612-1.5,21.367,21.367,0,0,0-2.546-1.23c-2.384-.909-2.077-3.571-1.2-5.067a5.635,5.635,0,0,1,4.909-2.638,20.456,20.456,0,0,1,3.193.285.776.776,0,0,1,.21.057,17.178,17.178,0,0,1-.327,1.938c-.026.105-.464.162-.7.144-.98-.075-1.958-.267-2.938-.258a2.422,2.422,0,0,0-2.033,1.863,1.287,1.287,0,0,0,.839,1.407,21.328,21.328,0,0,0,2.092.952c2.839,1.063,2.637,3.653,1.273,5.582a5.932,5.932,0,0,1-5.355,2.239c-.2,0-.415,0-.633,0Zm97.311-2.754c.384-1.771.791-3.534,1.186-5.3s.8-3.578,1.18-5.374c.087-.413.284-.521.691-.512h2c.909,0,1.8,0,2.7.026a8.92,8.92,0,0,1,2.095.353,2.183,2.183,0,0,1,1.569,2.284,3.819,3.819,0,0,1-2.113,3.338c-.365.2-.748.364-1.225.6q.657.267,1.285.6a2.344,2.344,0,0,1,.962,2.74,4.776,4.776,0,0,1-4.728,3.665c-1.986.136-3.972.22-6.139.337.216-1.039.344-1.895.543-2.748Zm7.421-.988a1.583,1.583,0,0,0,.171-1.574,1.583,1.583,0,0,0-1.278-.934c-.7-.1-1.413-.106-2.126-.16-.526-.039-.719.271-.8.729-.144.8-.289,1.605-.464,2.4-.224,1-.236.993.813,1.016h.385a3.207,3.207,0,0,0,3.307-1.466Zm-2.213-8.109a.744.744,0,0,0-.529.428,15.231,15.231,0,0,0-.365,1.722c-.064.4-.092.808-.134,1.212.43.043.857.086,1.286.126l.031.083a17.318,17.318,0,0,0,1.827-.463,2.091,2.091,0,0,0,1.189-1.908,1.5,1.5,0,0,0-1.474-1.222c-.251-.023-.506-.034-.759-.034-.342.011-.706.029-1.069.066Zm-31.584,11.318a4.528,4.528,0,0,1-2.633-4.705,9.594,9.594,0,0,1,2.577-6.491,8.606,8.606,0,0,1,6.228-2.507,7.273,7.273,0,0,1,3.6.918,5.373,5.373,0,0,1,2.078,4.96,11.788,11.788,0,0,1-1.708,4.782,7.913,7.913,0,0,1-6.316,3.537c-.349.021-.695.037-1.038.037a6.476,6.476,0,0,1-2.784-.532Zm4.255-11.356a6.454,6.454,0,0,0-3.944,6.282,3.5,3.5,0,0,0,.8,2.635c1.334,1.579,4.062,1.035,5.365-.1a6.9,6.9,0,0,0,2.239-3.934,6.6,6.6,0,0,0-.088-3.161,2.644,2.644,0,0,0-2.728-2,5.838,5.838,0,0,0-1.643.283Zm33.706,11.121c.385-1.688.782-3.37,1.146-5.068.363-1.737.695-3.485,1.067-5.222.162-.744.433-1.466.564-2.213.109-.611.455-.713.975-.705,1.693.032,3.386,0,5.077.084a5.473,5.473,0,0,1,1.846.468,2.942,2.942,0,0,1,1.005,3.905,4.515,4.515,0,0,1-3.048,2.389c1.391,2.18,1.208,4.645,1.981,6.965h-3.123c-.267-1.367-.556-2.728-.788-4.114-.24-1.454-1.136-2.063-2.531-1.6a.744.744,0,0,0-.389.482c-.364,1.615-.679,3.241-1.049,4.856a.749.749,0,0,1-.546.428,8.869,8.869,0,0,1-.993.027h-.767c-.472.015-.508-.259-.417-.678Zm5.8-7.307a2.888,2.888,0,0,0,3.092-1.639,1.366,1.366,0,0,0,.053-1.225,1.37,1.37,0,0,0-.95-.774c-.691-.127-1.413-.092-2.114-.17-.6-.066-.747.279-.834.757-.113.656-.227,1.312-.4,1.951-.311,1.11-.333,1.106.853,1.091Zm-85.115,7.979a21.475,21.475,0,0,0-2.157-.02.621.621,0,0,1-.489-.1.617.617,0,0,1-.254-.429c-.664-2.228-1.417-4.422-2.117-6.634a23.5,23.5,0,0,0-1.076-3.041,4.894,4.894,0,0,0-.364.828c-.651,2.943-1.294,5.887-1.908,8.838-.1.473-.305.57-.727.545-.607-.023-1.215,0-1.946,0,.156-.869.274-1.637.446-2.4.39-1.767.819-3.525,1.2-5.3.364-1.692.713-3.395,1.045-5.091.135-.692.333-1.216,1.224-1.068a4.707,4.707,0,0,0,1.535,0c.8-.131,1.1.313,1.294.948q1.326,4.321,2.65,8.646c.043.141.206.244.314.363.118-.121.315-.223.345-.363.249-1.092.455-2.2.691-3.3.411-1.92.828-3.844,1.273-5.759.043-.2.284-.472.451-.485.682-.059,1.369-.023,2.235-.023-.233,1.09-.42,2.013-.617,2.926-.376,1.772-.76,3.539-1.142,5.312-.349,1.647-.685,3.3-1.054,4.944a.717.717,0,0,1-.747.67Zm-41.953,0c-.635-.033-1.273,0-2.042,0,.149-.83.249-1.555.407-2.27.5-2.268,1.031-4.529,1.531-6.8.3-1.342.573-2.693.84-4.045.1-.534.32-.754.927-.728.8.026,1.591.021,2.393.017.871,0,1.74,0,2.611.033a5.844,5.844,0,0,1,2.065.486c1.5.66,1.518,2.183,1,3.735a4.2,4.2,0,0,1-3.035,2.561,25.875,25.875,0,0,1,1.827,7c-.887,0-1.776.013-2.668-.012a.515.515,0,0,1-.376-.28,34.763,34.763,0,0,1-.639-3.534c-.158-1.592-1.071-2.348-2.6-1.964a.56.56,0,0,0-.363.3c-.355,1.566-.717,3.132-1,4.711-.094.531-.249.8-.778.8Zm3.848-7.988a2.987,2.987,0,0,0,2.624-.95c.815-.909.809-1.981-.091-2.5a3.99,3.99,0,0,0-2.909-.3c-.158.035-.306.363-.364.582-.171.668-.253,1.36-.446,2.02-.333,1.125-.333,1.151.866,1.143Zm71.535,7.985c-.657-.034-1.321,0-2.1,0,.165-.888.3-1.681.463-2.466.293-1.4.591-2.8.909-4.184.276-1.216.582-2.427.871-3.637.056-.245.083-.5.122-.756.088-.56-.131-.8-.716-.777-.411.012-.828.012-1.238.012s-.871,0-1.3.018c-.6.031-.7-.234-.6-.744.253-1.3.262-1.314,1.562-1.314l9.014.025c.224,0,.446.027.695.04a1.619,1.619,0,0,1,.034.277c-.289,1.716-.292,1.716-2.042,1.716h-1.846c-.454,0-.663.182-.765.667-.495,2.295-1.049,4.574-1.553,6.865-.258,1.172-.472,2.353-.66,3.539-.075.5-.269.749-.766.749Zm-92.269-.019c1.868-3,3.669-5.9,5.48-8.8q1.4-2.25,2.821-4.49c.114-.182.28-.47.438-.477.949-.062,1.9-.068,2.848-.053.105,0,.28.219.305.365.342,1.773.644,3.563.992,5.343.38,1.955.81,3.906,1.195,5.86.14.7.219,1.4.342,2.214h-3.013c-.136-.823-.3-1.6-.38-2.38-.062-.545-.233-.831-.844-.822q-1.091.018-2.182,0c-.866,0-1.731,0-2.593.026a1.138,1.138,0,0,0-.791.442c-.517.726-.922,1.543-1.439,2.273a1.3,1.3,0,0,1-.844.475c-.3.023-.595.032-.909.032-.441.011-.914,0-1.423,0Zm9.718-5.366c.546.016.757-.165.679-.716-.171-1.191-.315-2.385-.49-3.568-.065-.434-.182-.857-.284-1.285l-.206-.059-3.273,5.62H2320c.478,0,.933,0,1.387.014Zm-17.69,5.376c-.218,0-.437-.025-.7-.039.629-2.843,1.251-5.6,1.855-8.364.364-1.665.691-3.342,1.062-5.007a.607.607,0,0,1,.411-.4c.451-.041.909-.041,1.364-.038h.486c.455,0,.573.242.482.652-.495,2.161-1,4.326-1.478,6.493-.274,1.247-.489,2.508-.765,3.753-.131.591.062.792.65.782,1.273-.021,2.568,0,3.848,0,.277,0,.554.022.871.034a1.62,1.62,0,0,1,.013.253c-.446,1.874-.446,1.874-2.4,1.874-1.9.015-3.8.015-5.687.015Zm44.975-.047c.342-1.605.666-3.145.993-4.689q.571-2.7,1.149-5.4c.232-1.076.451-2.156.727-3.221a.77.77,0,0,1,.546-.479c2.592-.024,5.186,0,7.781,0,.043,0,.087.047.134.077-.074.451-.149.9-.224,1.348s-.363.6-.822.595c-1.286-.026-2.571-.021-3.853-.019-1.077,0-1.3.233-1.444,1.313-.062.454-.218.889-.315,1.337-.127.583,0,.924.713.9,1.106-.042,2.208-.012,3.315,0,.271,0,.545.037.769.051a.582.582,0,0,1,.071.156c-.046,1.859-.127,1.934-1.942,1.936-.952,0-1.9.016-2.852,0-.467,0-.738.088-.822.65-.122.826-.38,1.637-.56,2.453-.134.633.053.925.792.893,1.334-.063,2.671-.02,4,0,.2,0,.4.029.687.051-.145.713-.28,1.374-.42,2.057Z" transform="translate(-2006 14109.006)" fill="#282829"/>
  </g>
</svg>
