<svg xmlns="http://www.w3.org/2000/svg" xmlns:xlink="http://www.w3.org/1999/xlink" width="121" height="112" viewBox="0 0 121 112">
  <defs>
    <clipPath id="clip-path">
      <rect id="Rectangle_4261" data-name="Rectangle 4261" width="81" height="72" transform="translate(1118 1989)" fill="#282829"/>
    </clipPath>
  </defs>
  <g id="Group_236" data-name="Group 236" transform="translate(-725 -4477)">
    <rect id="Rectangle_248" data-name="Rectangle 248" width="121" height="112" transform="translate(725 4477)" fill="#fff" opacity="0"/>
    <g id="bfd" transform="translate(-373 2508)" clip-path="url(#clip-path)">
      <g id="Group_5617" data-name="Group 5617">
        <g id="Group_5611" data-name="Group 5611" transform="translate(1033.993 1950.147)">
          <g id="Group_5609" data-name="Group 5609" transform="translate(-152.17 41.456)">
            <path id="Path_9376" data-name="Path 9376" d="M242.2,56.441a1.016,1.016,0,0,1,.734.281.989.989,0,0,1,.292.745V62.9a5.02,5.02,0,0,1,8.359.894,6.007,6.007,0,0,1,.674,2.847,5.669,5.669,0,0,1-.724,2.847,5.289,5.289,0,0,1-2,2.012,5.57,5.57,0,0,1-2.827.734,5.426,5.426,0,0,1-4.8-2.746,5.607,5.607,0,0,1-.734-2.847V57.467a.968.968,0,0,1,1.026-1.026Zm4.506,13.982a3.446,3.446,0,0,0,1.821-.493,3.533,3.533,0,0,0,1.288-1.358,3.962,3.962,0,0,0,.473-1.931,3.908,3.908,0,0,0-.473-1.921,3.556,3.556,0,0,0-1.288-1.348,3.513,3.513,0,0,0-4.919,1.348,3.971,3.971,0,0,0-.463,1.921,4.025,4.025,0,0,0,.463,1.931,3.443,3.443,0,0,0,3.1,1.851Z" transform="translate(0 -10.087)" fill="#282829"/>
            <path id="Path_9377" data-name="Path 9377" d="M308.392,58.18a1.312,1.312,0,1,1-.935-.392,1.278,1.278,0,0,1,.935.392Zm-1.67,4.335a1.022,1.022,0,0,1,1.76.744v8.952a1.015,1.015,0,0,1-.282.734,1.031,1.031,0,0,1-1.77-.734V63.26a.987.987,0,0,1,.293-.744Z" transform="translate(-52.344 -11.172)" fill="#282829"/>
            <path id="Path_9378" data-name="Path 9378" d="M335.13,80.992a5.141,5.141,0,0,1,1.971,1.982,5.8,5.8,0,0,1,.714,2.9v4.345a6.013,6.013,0,0,1-.7,2.9,5.236,5.236,0,0,1-1.982,2.062,5.571,5.571,0,0,1-2.887.754,6.376,6.376,0,0,1-2.7-.573,5.633,5.633,0,0,1-2.092-1.639.911.911,0,0,1-.221-.563.876.876,0,0,1,.423-.724,1.032,1.032,0,0,1,.563-.181.993.993,0,0,1,.825.423,3.539,3.539,0,0,0,1.368,1.076,4.5,4.5,0,0,0,1.871.372,3.473,3.473,0,0,0,1.79-.473,3.4,3.4,0,0,0,1.288-1.388,4.621,4.621,0,0,0,.483-2.183V89.09a4.653,4.653,0,0,1-1.65,1.73,4.366,4.366,0,0,1-2.314.623,5.033,5.033,0,0,1-2.666-.714,4.882,4.882,0,0,1-1.831-1.982,6.182,6.182,0,0,1-.654-2.877,5.862,5.862,0,0,1,.7-2.9,5.048,5.048,0,0,1,1.972-1.982,5.761,5.761,0,0,1,2.877-.714,5.666,5.666,0,0,1,2.852.718Zm-1.006,8.158a3.337,3.337,0,0,0,1.267-1.338,4.085,4.085,0,0,0,.453-1.941,4.144,4.144,0,0,0-.453-1.951,3.324,3.324,0,0,0-1.267-1.348,3.752,3.752,0,0,0-3.682,0,3.393,3.393,0,0,0-1.277,1.348,4.07,4.07,0,0,0-.463,1.951,4.012,4.012,0,0,0,.463,1.941,3.408,3.408,0,0,0,1.277,1.338,3.751,3.751,0,0,0,3.682,0Z" transform="translate(-68.947 -29.297)" fill="#282829"/>
            <path id="Path_9379" data-name="Path 9379" d="M407.058,46.52a2.8,2.8,0,0,0-.684,1.972V61.121a1,1,0,0,1-.282.744,1.059,1.059,0,0,1-.785.282.963.963,0,0,1-.694-.282.986.986,0,0,1-.292-.744V48.693a5.251,5.251,0,0,1,.573-2.5,4.108,4.108,0,0,1,1.609-1.67,4.673,4.673,0,0,1,2.364-.593,1.061,1.061,0,0,1,.734.261.9.9,0,0,1,0,1.328,1.059,1.059,0,0,1-.734.262,2.342,2.342,0,0,0-1.809.739Z" transform="translate(-131.478)" fill="#282829"/>
            <path id="Path_9380" data-name="Path 9380" d="M449,56.722a1.008,1.008,0,0,1,.282.745v9.174a5.611,5.611,0,0,1-.734,2.847,5.427,5.427,0,0,1-4.8,2.746,5.568,5.568,0,0,1-2.827-.734,5.288,5.288,0,0,1-2-2.012,5.669,5.669,0,0,1-.724-2.847,6,6,0,0,1,.674-2.847,5.081,5.081,0,0,1,1.851-2A5.065,5.065,0,0,1,447.23,62.9V57.467a.988.988,0,0,1,.292-.745,1.112,1.112,0,0,1,1.479,0Zm-3.43,13.207a3.461,3.461,0,0,0,1.277-1.358,4.027,4.027,0,0,0,.463-1.931,3.972,3.972,0,0,0-.463-1.921,3.527,3.527,0,0,0-6.207,0,3.9,3.9,0,0,0-.473,1.921,3.958,3.958,0,0,0,.473,1.931,3.531,3.531,0,0,0,1.288,1.358,3.609,3.609,0,0,0,3.641,0Z" transform="translate(-158.776 -10.087)" fill="#282829"/>
            <path id="Path_9381" data-name="Path 9381" d="M512.024,81.012a5.417,5.417,0,0,1,1.992,2.012,5.608,5.608,0,0,1,.734,2.847v4.486a1.026,1.026,0,1,1-2.052,0v-.745a5.019,5.019,0,0,1-8.359-.893,6,6,0,0,1-.674-2.847,5.671,5.671,0,0,1,.724-2.847,5.3,5.3,0,0,1,2-2.012,5.572,5.572,0,0,1,2.827-.734A5.465,5.465,0,0,1,512.024,81.012Zm-.986,8.128a3.48,3.48,0,0,0,1.277-1.348,3.97,3.97,0,0,0,.463-1.921,4.03,4.03,0,0,0-.463-1.931,3.515,3.515,0,0,0-6.206,0,3.956,3.956,0,0,0-.473,1.931,3.9,3.9,0,0,0,.473,1.921A3.55,3.55,0,0,0,507.4,89.14a3.609,3.609,0,0,0,3.641,0Z" transform="translate(-211.538 -29.297)" fill="#282829"/>
            <path id="Path_9382" data-name="Path 9382" d="M574.257,81.578a1.266,1.266,0,0,1-.121.483L567.98,95.9a.824.824,0,0,1-.785.624,1.265,1.265,0,0,1-.483-.121.844.844,0,0,1-.6-.785,1.072,1.072,0,0,1,.121-.483l2.012-4.526-4.527-8.59a.856.856,0,0,1-.1-.423.8.8,0,0,1,.161-.483,1.06,1.06,0,0,1,.423-.342.98.98,0,0,1,.4-.081.9.9,0,0,1,.845.563l3.682,7.323,3.239-7.3a.84.84,0,0,1,.785-.583,1.153,1.153,0,0,1,.483.1.824.824,0,0,1,.621.785Z" transform="translate(-259.851 -29.631)" fill="#282829"/>
            <rect id="Rectangle_4260" data-name="Rectangle 4260" width="8.314" height="2.152" rx="1.076" transform="translate(269.82 51.242)" fill="#282829"/>
          </g>
          <g id="Group_5610" data-name="Group 5610" transform="translate(89 33.999)">
            <path id="Path_9385" data-name="Path 9385" d="M14.774,175.559s-4.571.2-5.789,4.409.261,3.655.261,3.655,1.7.334,1.566-1.682c0,0,.15-5.153,3.481-5.33,0,0,2.03-.008,2.118-.617S14.774,175.559,14.774,175.559Z" transform="translate(0 -127.44)" fill="#282829"/>
            <path id="Path_9386" data-name="Path 9386" d="M78.962,11.516a11.672,11.672,0,0,0-6.576-2.655,11.945,11.945,0,0,0-8.816,3.174,14.971,14.971,0,0,0-3.07,4.482,12.111,12.111,0,0,0-6.268.106,11.436,11.436,0,0,0-7.5,5.849,9.746,9.746,0,0,0-.769,6.9,18.931,18.931,0,0,0,2.8,5.059s2.8,3.289,4.155,4.684a11.611,11.611,0,0,1,1.673,1.955A12.537,12.537,0,0,0,48.869,43a8.983,8.983,0,0,0-3.348,4.552,20.838,20.838,0,0,0-.951,4.485c-.207,1.508.645,1.264.645,1.264h.723c1,0,.892-1.454.892-1.454.083-1.1.471-2.947.471-2.947,1.009-.221,3.254-.978,3.254-.978,4.1-1.425,5.858-4.412,6.1-6.288.191-1.456,2.5-2.9,5.465-5.245a29.272,29.272,0,0,0,4.941-5.063l2.087,2.083a6.14,6.14,0,0,1-1.784,4.911c-3.257,3.195-7.986,2.531-8.878,2.946s-.373.664-.373.664a15.315,15.315,0,0,0,7.136-1.2A8.329,8.329,0,0,0,70.6,34c.26-2.121,11.969-8.074,11.969-14.272a11.46,11.46,0,0,0-3.607-8.212ZM51.311,46.546a11.6,11.6,0,0,1-3.756,1.508s1.08-4.682,4.56-5.607a8.43,8.43,0,0,1,2.538-.59,6.4,6.4,0,0,1-3.342,4.689Zm12.13-13.139c-1.805,2.33-7.262,6.185-7.262,6.185a51.931,51.931,0,0,1-7.139-8.77c-2.312-4.024-.925-7.035-.925-7.035a10.945,10.945,0,0,1,3.307-4.825,8.142,8.142,0,0,1,7.244-1.683s5.64,1.3,7.293,6.508S65.246,31.076,63.441,33.407ZM79.6,23.834s-1.184,1.781-6.787,6.194l-2.564,2.153-2.372-2.21a6.61,6.61,0,0,0,.789-4.918,10.78,10.78,0,0,0-6.747-8.1,10.6,10.6,0,0,1,6.862-7C74.395,8.1,78.7,13.21,78.7,13.21S83.432,17.99,79.6,23.834Z" transform="translate(-27.55)" fill="#282829"/>
            <path id="Path_9387" data-name="Path 9387" d="M83.721,63.305a3.791,3.791,0,1,0,4.154,3.774,3.978,3.978,0,0,0-4.154-3.774Zm.449,6.261a2.612,2.612,0,1,1,1.867-3.038A2.525,2.525,0,0,1,84.17,69.566Z" transform="translate(-54.332 -41.632)" fill="#282829"/>
            <path id="Path_9388" data-name="Path 9388" d="M145.577,35.176a3.978,3.978,0,0,0-4.154,3.774,4.174,4.174,0,0,0,8.309,0,3.978,3.978,0,0,0-4.155-3.774Zm.449,6.261a2.612,2.612,0,1,1,1.867-3.039,2.524,2.524,0,0,1-1.867,3.039Z" transform="translate(-101.625 -20.126)" fill="#282829"/>
          </g>
        </g>
        <g id="Group_5616" data-name="Group 5616" transform="translate(68.972 216)">
          <g id="Group_5615" data-name="Group 5615">
            <g id="Group_5614" data-name="Group 5614" transform="translate(1057.028 1929)">
              <path id="Path_9427" data-name="Path 9427" d="M100.743,163.336v6.486a3.439,3.439,0,0,1-1.091,2.7,4.318,4.318,0,0,1-3,.98,4.126,4.126,0,0,1-2.95-.987,3.558,3.558,0,0,1-1.044-2.715v-6.459a.694.694,0,0,1,.707-.39.71.71,0,0,1,.521.39v6.541a2.5,2.5,0,0,0,.722,1.927,3.01,3.01,0,0,0,2.123.672,2.9,2.9,0,0,0,2.058-.675,2.523,2.523,0,0,0,.722-1.937v-6.527a.715.715,0,0,1,.665-.352.739.739,0,0,1,.567.351Z" transform="translate(-92.661 -162.904)" fill="#282829"/>
              <path id="Path_9428" data-name="Path 9428" d="M134.633,172.753a.583.583,0,0,1-.225.553.694.694,0,0,1-.884-.147l-2.808-4.362-2.858,4.362a.636.636,0,0,1-.8.129.571.571,0,0,1-.211-.492l3.2-4.82-2.97-4.309a.6.6,0,0,1,.166-.785.676.676,0,0,1,.911.359l2.594,3.928,2.533-3.8a.593.593,0,0,1,.789-.275.532.532,0,0,1,.235.661l-2.886,4.186Z" transform="translate(-117.19 -162.813)" fill="#282829"/>
            </g>
            <path id="Path_9429" data-name="Path 9429" d="M208.35,173.17a.653.653,0,0,1-1.215,0V168.5h-5.5v4.668a.653.653,0,0,1-1.215,0V163.25a.674.674,0,0,1,.687-.4.655.655,0,0,1,.528.4v4.22h5.5v-4.22a.669.669,0,0,1,.7-.417.645.645,0,0,1,.514.417Z" transform="translate(887.043 1766.171)" fill="#282829"/>
            <path id="Path_9430" data-name="Path 9430" d="M244.857,174.864c-3.2-.016-5.479-.021-5.819,0a.412.412,0,0,1-.311-.078.306.306,0,0,1-.07-.232c.013-.319,0-9.768-.009-10.012a.269.269,0,0,1,.066-.207.31.31,0,0,1,.224-.06c.224.012,2.61.014,5.919.015a.573.573,0,0,1,0,1.092c-2.563-.014-4.443-.015-4.65,0a.3.3,0,0,0-.187.07.318.318,0,0,0-.078.247c.009.221,0,1.427,0,3.089h4.617a.543.543,0,1,1,0,1.085c-1.446.076-3.811.032-4.378,0a.254.254,0,0,0-.2.053.185.185,0,0,0-.035.15c-.013,1.8-.013,3.113,0,3.36a.324.324,0,0,0,.071.205.521.521,0,0,0,.4.123c.363-.006,2.082,0,4.446,0a.578.578,0,0,1,0,1.1Z" transform="translate(859.201 1764.727)" fill="#282829"/>
            <path id="Path_9431" data-name="Path 9431" d="M311.337,169.767a5.182,5.182,0,0,1-1.5,4,6.118,6.118,0,0,1-4.307,1.384,24.828,24.828,0,0,1-2.593,0,.558.558,0,0,1-.4-.137.417.417,0,0,1-.1-.287c-.015-3.133.006-6.266,0-9.4a.753.753,0,0,1,.189-.564.559.559,0,0,1,.047-.044.8.8,0,0,1,.546-.109c.159,0,.317,0,.476,0h.437c.173,0,.219-.005.448-.011l.447-.008s.411-.005.824,0a6.189,6.189,0,0,1,4.037,1.367A5.012,5.012,0,0,1,311.337,169.767Zm-1.371.043a4.125,4.125,0,0,0-1.093-3.117,4.524,4.524,0,0,0-3.249-1.049h-1.881v8.177a.244.244,0,0,0,.051.182.281.281,0,0,0,.273.086h1.253a4.956,4.956,0,0,0,3.481-1.081,4.153,4.153,0,0,0,1.164-3.2Z" transform="translate(813.837 1764.417)" fill="#282829"/>
            <path id="Path_9432" data-name="Path 9432" d="M162.2,174.751c2.274-5.206,3.852-8.846,4.041-9.365.027-.073.124-.354.261-.355s.243.277.275.358c.206.525,1.779,4.19,3.99,9.323" transform="translate(914.47 1764.469)" fill="none"/>
            <path id="Path_9433" data-name="Path 9433" d="M265.244,174.046c2.274-5.206,3.852-8.845,4.041-9.364.027-.073.124-.353.261-.355s.243.277.275.359c.206.525,1.779,4.189,3.99,9.322" transform="translate(840.525 1765.173)" fill="none"/>
          </g>
          <path id="Union_2" data-name="Union 2" d="M2303-9544.19c0-1.048,5.772-1.9,12.894-1.9s12.893.848,12.893,1.9-5.772,1.9-12.893,1.9S2303-9543.15,2303-9544.19Zm22.7-4.854c-2.881-1.533-9.715-5.994-9.715-5.994l-11.114,6.292s-1.43.563-.782-1.339c4.187-12.311,10.69-31.449,10.69-31.449a5.16,5.16,0,0,1,.2-.574,1.9,1.9,0,0,1,.243-.5,1.121,1.121,0,0,1,.667-.38.69.69,0,0,1,.38.065.863.863,0,0,1,.344.408,4.081,4.081,0,0,1,.267.678v.009c.178.514,7.464,21.565,10.9,32.371.088.279.172.676-.026.872a.525.525,0,0,1-.392.133,4.019,4.019,0,0,1-1.661-.6Z" transform="translate(-1225 11460)" fill="#282829"/>
        </g>
      </g>
    </g>
  </g>
</svg>
