<svg xmlns="http://www.w3.org/2000/svg" width="211" height="112" viewBox="0 0 211 112">
  <g id="Group_237" data-name="Group 237" transform="translate(-504 -4477)">
    <rect id="Rectangle_247" data-name="Rectangle 247" width="211" height="112" transform="translate(504 4477)" fill="#fff" opacity="0"/>
    <g id="world_vision" data-name="world vision" transform="translate(1857.449 4628.273)">
      <path id="Path_9362" data-name="Path 9362" d="M-706.864-111.79c0-1.46,0-1.462-1.469-1.463h-55.189a2.115,2.115,0,0,0-1.328.255c24.2,3.658,43.344,15.292,57.8,34.744l.187-.147v-1.066Q-706.864-95.629-706.864-111.79Zm-6.572,8.08a2.814,2.814,0,0,0-2.545,2.921c-.175,1.728-.275,3.462-.4,5.192a3.232,3.232,0,0,1-.066.673,60.4,60.4,0,0,0-.471-6.069,2.8,2.8,0,0,0-2.694-2.762c-.611-.109-1.228-.188-2.028-.31,1.43-.452,2.929-.241,3.965-1.233s.95-2.447,1.321-3.854c-.11,3.408,1.57,5.018,4.841,5.087C-712.158-103.95-712.807-103.869-713.436-103.711Z" transform="translate(-456.493 0)" fill="#282829"/>
      <path id="Path_9363" data-name="Path 9363" d="M-1309.726-23.613a1.417,1.417,0,0,0-1.177.022,1.417,1.417,0,0,0-.754.9q-1.8,4.8-3.574,9.6c-.083.225-.086.508-.426.648-1.14-2.939-2.294-5.834-3.375-8.755-.3-.8-.814-.874-1.521-.886a1.148,1.148,0,0,0-1.315.884c-.255.813-.6,1.595-.918,2.391l-2.563,6.569c-.18-.42-.292-.648-.377-.887q-1.348-3.806-2.69-7.615c-1.048-2.989-1.044-2.971-4.209-2.915-.787.014-.985.226-.7.98q2.823,7.515,5.594,15.049a1.207,1.207,0,0,0,1.328.878,1.25,1.25,0,0,0,1.4-.915c.671-1.852,1.409-3.679,2.121-5.515.447-1.149.9-2.294,1.426-3.651.223.512.362.8.483,1.1,1.05,2.691,2.121,5.375,3.131,8.082a1.273,1.273,0,0,0,1.432.879,1.192,1.192,0,0,0,1.3-.924c.947-2.625,1.946-5.23,2.922-7.848.884-2.369,1.771-4.735,2.63-7.114C-1309.46-22.955-1309.086-23.4-1309.726-23.613Z" transform="translate(0 -71.887)" fill="#282829"/>
      <path id="Path_9364" data-name="Path 9364" d="M-1046.118-35.415c-.948-.033-1.185.362-1.163,1.213.042,1.672.016,3.347.01,5.021,0,1.106,0,1.093-1,.7a6.788,6.788,0,0,0-4.334-.371,6.1,6.1,0,0,0-4.857,4.983,6.19,6.19,0,0,0,2.535,6.672,6.329,6.329,0,0,0,7.133.425c.382-.209.859-.757.937.258.025.333.368.33.627.338.459.016.919.013,1.377.012,1.328,0,1.35-.019,1.352-1.4q.006-4.086,0-8.173c0-2.363.016-4.727,0-7.09C-1043.522-35.88-1043.124-35.312-1046.118-35.415Zm-1.777,17.2c-2.125,1.461-4.4.792-5.206-1.647a6.52,6.52,0,0,1,.774-6.278,3.041,3.041,0,0,1,2.194-1.271,3.04,3.04,0,0,1,2.394.834,1.328,1.328,0,0,1,.473,1.124c-.011,1.018,0,2.034,0,3.052s-.016,2.036,0,3.052a1.245,1.245,0,0,1-.626,1.134Z" transform="translate(-221.459 -62.493)" fill="#282829"/>
      <path id="Path_9365" data-name="Path 9365" d="M-652.7,2.88c-.046-4.8-4.384-7.413-8.693-5.242-.483.241-.957.7-1.173-.275-.06-.275-.43-.261-.689-.267-.525-.012-1.053.019-1.57-.016-.805-.054-1.12.3-1.108,1.1.028,1.772.008,3.546.007,5.318,0,1.281-.01,2.561,0,3.842.023,2.9-.276,2.342,2.476,2.452,1,.04,1.316-.3,1.3-1.287-.054-2.656,0-5.318-.029-7.978a1.53,1.53,0,0,1,.774-1.461,3.045,3.045,0,0,1,3.184-.3,3.045,3.045,0,0,1,1.694,2.712c.11,1.865.029,3.743.054,5.613.045,3.186-.459,2.613,2.819,2.691.735.018.982-.284.973-.989C-652.717,6.821-652.686,4.85-652.7,2.88Z" transform="translate(-535.896 -88.411)" fill="#282829"/>
      <path id="Path_9366" data-name="Path 9366" d="M-932.117-24.091a1.3,1.3,0,0,0-1.413.935c-.557,1.4-1.189,2.777-1.788,4.163-.909,2.1-1.817,4.209-2.825,6.541-.221-.423-.339-.613-.425-.816-1.269-2.993-2.519-5.993-3.806-8.979-.909-2.11-.584-1.8-2.688-1.829q-.69-.011-1.38,0c-1.04.019-1.114.121-.691,1.078q3.322,7.525,6.656,15.045c.242.552.5.924,1.207.92a1.2,1.2,0,0,0,1.215-.908c1.328-3.076,2.677-6.141,4.014-9.211.866-1.986,1.7-3.984,2.6-5.961C-931.082-23.908-931.361-24.074-932.117-24.091Z" transform="translate(-309.956 -71.586)" fill="#282829"/>
      <path id="Path_9367" data-name="Path 9367" d="M-739.335-2.633c-.229.014-.459.028-.688.045a6.348,6.348,0,0,0-5.74,6.872,6.074,6.074,0,0,0,4.1,5.519,7.244,7.244,0,0,0,7.425-1.137,6.364,6.364,0,0,0,1.72-7.437,6.641,6.641,0,0,0-6.813-3.861ZM-736.446,7a2.506,2.506,0,0,1-2.4,1.862,2.637,2.637,0,0,1-2.562-1.8,11.013,11.013,0,0,1-.6-3.082A11.95,11.95,0,0,1-741.431.6a2.749,2.749,0,0,1,2.535-1.88A2.479,2.479,0,0,1-736.473.555,9.065,9.065,0,0,1-736.447,7Z" transform="translate(-471.789 -88.789)" fill="#282829"/>
      <path id="Path_9368" data-name="Path 9368" d="M-1210.4-2.822a6.467,6.467,0,0,0-4.864,1.779,6.467,6.467,0,0,0-2,4.778,6.43,6.43,0,0,0,1.954,4.642,6.429,6.429,0,0,0,4.7,1.809c4.177,0,7.056-2.626,7.06-6.446a6.465,6.465,0,0,0-1.993-4.778,6.466,6.466,0,0,0-4.859-1.784Zm2.4,9.891a2.493,2.493,0,0,1-2.327,1.672,2.487,2.487,0,0,1-2.455-1.647A8.607,8.607,0,0,1-1212.7.12a2.458,2.458,0,0,1,2.341-1.526,2.441,2.441,0,0,1,2.2,1.414,7.2,7.2,0,0,1,.771,3.847A6.659,6.659,0,0,1-1208,7.069Z" transform="translate(-93.283 -88.662)" fill="#282829"/>
      <path id="Path_9369" data-name="Path 9369" d="M-1081.224-25.723c0-2.428.01-4.856,0-7.284-.013-2.739.267-2.294-2.375-2.331-1.368-.017-1.376,0-1.378,1.362,0,5.118-.015,10.237,0,15.355.011,3-.342,2.449,2.57,2.548.912.031,1.207-.295,1.2-1.184C-1081.248-20.078-1081.224-22.9-1081.224-25.723Z" transform="translate(-199.475 -62.55)" fill="#282829"/>
      <path id="Path_9370" data-name="Path 9370" d="M-828.074,3.164c-1.153-.552-2.343-1.024-3.507-1.553-.57-.258-1.03-.639-.889-1.359s.715-.983,1.358-1.1a3.923,3.923,0,0,1,3.032.879c1.014.724,1.02.716,1.549-.418.458-.98.4-1.146-.635-1.462a8.2,8.2,0,0,0-3.084-.5,5.607,5.607,0,0,0-3.566.926,3.332,3.332,0,0,0-1.679,3.324,4.015,4.015,0,0,0,2.842,3.222,19.079,19.079,0,0,1,2.869,1.291,1.379,1.379,0,0,1,.692,1.509A1.4,1.4,0,0,1-830.385,9.1a4.256,4.256,0,0,1-3.22-.921c-.442-.33-.717-1.194-1.328-.919-.518.241-.567,1.061-.829,1.623a.533.533,0,0,0-.038.477.532.532,0,0,0,.361.315,8.572,8.572,0,0,0,7.132.567,3.925,3.925,0,0,0,2.5-3.7,3.447,3.447,0,0,0-2.263-3.379Z" transform="translate(-399.507 -89.036)" fill="#282829"/>
      <path id="Path_9371" data-name="Path 9371" d="M-1129.518-2.881a4.924,4.924,0,0,0-4.012-.019c-.455.216-.951.953-1.352-.088-.036-.093-.362-.1-.553-.1-.558-.011-1.119.036-1.673-.006-.845-.064-1.164.263-1.154,1.13.037,3.018-.006,6.037.019,9.055.025,2.953-.427,2.465,2.564,2.543.793.021,1.125-.225,1.094-1.058-.052-1.378-.014-2.758-.013-4.136V.4c0-1.287.827-1.811,2.008-1.217a13.047,13.047,0,0,1,1.723,1.133c.33.241.573.3.769-.133q.483-1.078.978-2.15C-1128.9-2.428-1129.071-2.711-1129.518-2.881Z" transform="translate(-156.703 -88.262)" fill="#282829"/>
      <path id="Path_9372" data-name="Path 9372" d="M-771.361,4.11c0-1.28.011-2.558,0-3.838-.028-2.874.348-2.434-2.521-2.514-.939-.025-1.269.292-1.254,1.239.045,2.952,0,5.905.021,8.857.025,3.11-.414,2.56,2.665,2.645.809.023,1.117-.264,1.1-1.075C-771.387,7.654-771.363,5.881-771.361,4.11Z" transform="translate(-448.231 -89.127)" fill="#282829"/>
      <path id="Path_9373" data-name="Path 9373" d="M-858.761.372c-.026-2.913.483-2.521-2.656-2.569-.786-.012-1.02.326-1.006,1.069.035,1.772.011,3.546.011,5.318V8.032c0,2.528,0,2.488,2.493,2.514.933.01,1.182-.342,1.172-1.207C-858.773,6.348-858.734,3.359-858.761.372Z" transform="translate(-378.161 -89.164)" fill="#282829"/>
      <path id="Path_9374" data-name="Path 9374" d="M-772.519-30.3a1.818,1.818,0,0,0-1.4.495,1.818,1.818,0,0,0-.565,1.369,1.835,1.835,0,0,0,.546,1.326,1.834,1.834,0,0,0,1.333.527,1.9,1.9,0,0,0,1.916-1.841,1.794,1.794,0,0,0-.509-1.337A1.794,1.794,0,0,0-772.519-30.3Z" transform="translate(-448.76 -66.605)" fill="#282829"/>
      <path id="Path_9375" data-name="Path 9375" d="M-858.866-30.288a1.892,1.892,0,0,0-1.981,1.764,1.91,1.91,0,0,0,.542,1.374,1.91,1.91,0,0,0,1.36.577,1.811,1.811,0,0,0,1.332-.518,1.811,1.811,0,0,0,.542-1.322,1.72,1.72,0,0,0-.47-1.346A1.721,1.721,0,0,0-858.866-30.288Z" transform="translate(-379.42 -66.612)" fill="#282829"/>
    </g>
  </g>
</svg>
