<svg xmlns="http://www.w3.org/2000/svg" width="100" height="112" viewBox="0 0 100 112">
  <g id="Group_235" data-name="Group 235" transform="translate(-978 -4477)">
    <rect id="Rectangle_251" data-name="Rectangle 251" width="100" height="112" transform="translate(978 4477)" fill="#fff" opacity="0"/>
    <g id="sgv" transform="translate(2688.169 5392.37)">
      <g id="Group_5613" data-name="Group 5613" transform="translate(-1690.169 -889.37)">
        <g id="Group_5612" data-name="Group 5612" transform="translate(0)">
          <path id="Path_9389" data-name="Path 9389" d="M-1427.489-889.37a3.282,3.282,0,0,1,.425,1.234q.37,1.683.795,3.351c.162.621.238,1.262.445,1.872.081.23-.012.345-.257.4-1.27.3-2.549.559-3.823.843-.449.1-.9.217-1.35.3-.216.041-.323-.01-.39-.242-.369-1.263-.578-2.562-.854-3.845a.713.713,0,0,0-.286-.543.713.713,0,0,0-.6-.119c-.424.054-.843.148-1.261.242a.474.474,0,0,0-.361.508,3.424,3.424,0,0,0,.176.927c.036.162.167.2.319.162.195-.056.391-.108.58-.179a1.081,1.081,0,0,1,1,.022,1.081,1.081,0,0,1,.555.828,2.181,2.181,0,0,0,.209.6,1.747,1.747,0,0,1-.262,1.814,1.281,1.281,0,0,1-.688.252,7.828,7.828,0,0,1-2.021.365,1,1,0,0,1-.975-.816c-.3-1.269-.61-2.539-.94-3.8a1.536,1.536,0,0,1,0-1.22,1.537,1.537,0,0,1,.887-.837,4.764,4.764,0,0,1,.842-.242c.9-.133,1.772-.432,2.675-.566a1.608,1.608,0,0,1,1.667.461,2.247,2.247,0,0,1,.3.957c.26,1.014.495,2.034.734,3.052a.272.272,0,0,0,.121.2.273.273,0,0,0,.229.033c.355-.061.711-.128,1.06-.214a.34.34,0,0,0,.243-.174.34.34,0,0,0,.011-.3c-.411-1.394-.61-2.839-1.014-4.235-.162-.546-.105-.566.412-.753a6.454,6.454,0,0,0,1.263-.336Zm-6.474,6.978c-.022-.174-.057-.356-.3-.343-.177.01-.307.1-.289.294s.094.38.338.379C-1434.021-882.062-1433.964-882.2-1433.964-882.392Z" transform="translate(1454.278 889.37)" fill="#282829"/>
          <path id="Path_9390" data-name="Path 9390" d="M-1280.885-51.349a2.641,2.641,0,0,1-.7-3,2.116,2.116,0,0,1,2.54-1.455,1.522,1.522,0,0,1,1,1.061,1.051,1.051,0,0,1-.534.982.872.872,0,0,1-1.15-.077,1.057,1.057,0,0,1-.3-1.112c.037-.136.243-.287.06-.417-.152-.107-.291.074-.42.148a2.217,2.217,0,0,0-1.01,1.7,2.216,2.216,0,0,0,.757,1.831c.161.125.337.225.506.336h-.744Zm1.177-3.257a.647.647,0,0,0,.629.626.728.728,0,0,0,.647-.669c-.009-.3-.456-.77-.728-.757s-.553.428-.553.8Z" transform="translate(1309.432 112.278)" fill="#282829"/>
          <path id="Path_9391" data-name="Path 9391" d="M-1222.244-34.07c-.008-.827-.208-1.633-.257-2.456-.006-.1-.014-.2-.013-.3,0-.132.036-.266.191-.271s.157.134.169.247c.081.727.167,1.455.226,2.186.027.323.162.426.479.4.623-.06.631-.058.581-.7-.035-.449-.067-.9-.109-1.349-.077-.82.566-1.186,1.33-.907a1.022,1.022,0,0,1,.676.792,8,8,0,0,1,.1,1.246,1.148,1.148,0,0,1-.872,1.116Zm3.031-1.343c-.019-.2-.047-.445-.064-.692a.942.942,0,0,0-.376-.688.659.659,0,0,0-.7-.119c-.248.1-.281.331-.264.566.043.56.09,1.12.135,1.68.019.242.152.328.387.3a.963.963,0,0,0,.658-.343.963.963,0,0,0,.219-.709Z" transform="translate(1254.174 94.999)" fill="#282829"/>
          <path id="Path_9392" data-name="Path 9392" d="M-1256.621-13.877a.387.387,0,0,0-.006-.382.993.993,0,0,1,.017-.831.994.994,0,0,1,.643-.527,1.039,1.039,0,0,1,.839.139,1.039,1.039,0,0,1,.454.719c.093.353-.141.615-.323.882h-.609a1.778,1.778,0,0,0,.449-.45.551.551,0,0,0-.043-.685.609.609,0,0,0-.685-.242.558.558,0,0,0-.437.538.808.808,0,0,0,.445.841Z" transform="translate(1286.049 74.805)" fill="#282829"/>
          <path id="Path_9393" data-name="Path 9393" d="M-1384.051-549.039a6.213,6.213,0,0,1,.454-2.923,4.753,4.753,0,0,1,1.293-1.913,20.716,20.716,0,0,1,2.892-2.379,11.786,11.786,0,0,1,1.82-.953,9.591,9.591,0,0,1,1.722-.571,7.605,7.605,0,0,1,4.745.212,7.141,7.141,0,0,1,2.81,2.113,6.538,6.538,0,0,1,1.263,5.034,13.375,13.375,0,0,1-.749,2.72,17.415,17.415,0,0,1-1.4,3.176,6.322,6.322,0,0,1-2.933,2.689,8.409,8.409,0,0,1-1.982.5,13.034,13.034,0,0,0-2.007.441,3.282,3.282,0,0,1-1.6.11,6.366,6.366,0,0,1-3.866-2.415,12,12,0,0,1-2-3.233,4.183,4.183,0,0,1-.465-2.608Zm9.73-6.79a6.7,6.7,0,0,0-3.574,1,12.713,12.713,0,0,0-2.32,1.735,4.386,4.386,0,0,0-1.5,2.352,5.372,5.372,0,0,0,.189,3.535,8.433,8.433,0,0,0,2.975,3.718,3.148,3.148,0,0,0,2.687.418,5.909,5.909,0,0,1,1.119-.235,5.116,5.116,0,0,0,2-.575,5.758,5.758,0,0,0,2.546-3.127c.193-.479.377-.96.537-1.455a5.956,5.956,0,0,0,.382-3.395,4.482,4.482,0,0,0-.867-1.94,5.019,5.019,0,0,0-4.172-2.032Z" transform="translate(1404.832 580.487)" fill="#282829"/>
          <path id="Path_9394" data-name="Path 9394" d="M-967.569-716.6a1.4,1.4,0,0,1,1.336.867c.544.934,1.082,1.87,1.632,2.8a4.769,4.769,0,0,1,.415.959,1.285,1.285,0,0,1-.523,1.337c-.418.284-.857.539-1.289.8q-.952.579-1.908,1.15c-.255.152-.262.323-.1.559.138.2.23.439.352.654a.355.355,0,0,0,.576.157c1.3-.783,2.615-1.545,3.922-2.318a.294.294,0,0,1,.254-.063.294.294,0,0,1,.2.165c.254.4.505.8.77,1.191a.308.308,0,0,1,.081.283.308.308,0,0,1-.194.222c-.781.447-1.566.889-2.349,1.332-.909.517-1.817,1.038-2.727,1.554-.617.349-1.241.687-1.854,1.042-.242.138-.359.063-.478-.162-.2-.378-.416-.747-.647-1.11a.278.278,0,0,1-.069-.252.278.278,0,0,1,.17-.2c.26-.156.524-.307.782-.466.344-.213.383-.341.191-.688-.47-.846-.94-1.693-1.427-2.528-.126-.217-.117-.311.116-.44.866-.48,1.716-.988,2.571-1.487.323-.187.642-.373.958-.566a.66.66,0,0,0,.354-.4.659.659,0,0,0-.055-.529,11.358,11.358,0,0,0-.624-1.12.533.533,0,0,0-.677-.232,1.89,1.89,0,0,0-.339.147c-.573.33-.566.364-.221.921.242.4.512.808.26,1.321a1.228,1.228,0,0,1-.442.5c-.424.277-.85.554-1.293.808a1.029,1.029,0,0,1-.815.132,1.029,1.029,0,0,1-.65-.51,17.362,17.362,0,0,1-1.191-2.118,1.061,1.061,0,0,1,.475-1.4c1.2-.688,2.4-1.368,3.584-2.093A1.566,1.566,0,0,1-967.569-716.6Zm-2.815,4.419c.177-.048.4-.086.414-.34a.306.306,0,0,0-.095-.247.305.305,0,0,0-.252-.081c-.2.016-.411.119-.42.359,0,.189.133.3.353.31Z" transform="translate(1021.183 728.299)" fill="#282829"/>
          <path id="Path_9395" data-name="Path 9395" d="M-1121.086-840.883a2.237,2.237,0,0,1-.511,1.238c-.511.861-1.051,1.706-1.578,2.557a3.176,3.176,0,0,1-.642.82,1.217,1.217,0,0,1-1.553.081c-.284-.183-.572-.36-.859-.538-.1-.062-.214-.115-.3.013s-.01.223.086.293c.2.145.409.278.614.418a.257.257,0,0,1,.136.184.257.257,0,0,1-.065.22,6.678,6.678,0,0,0-.439.721.344.344,0,0,1-.26.224.344.344,0,0,1-.325-.113,1.947,1.947,0,0,0-.188-.145c-.323-.2-.442-.363-.766.093a1.1,1.1,0,0,1-.726.493,1.1,1.1,0,0,1-.856-.193c-.71-.436-1.412-.884-2.112-1.336a1.118,1.118,0,0,1-.545-.76,1.119,1.119,0,0,1,.222-.909c.221-.323.444-.651.655-.984.12-.189.224-.238.432-.091a8.951,8.951,0,0,0,1.065.647c.269.138.311.293.162.536-.105.173-.2.352-.3.529a.3.3,0,0,0-.05.275.306.306,0,0,0,.194.2c.2.107.4.2.555-.061.242-.4.485-.808.735-1.212.111-.183.026-.287-.127-.386-.606-.39-1.206-.791-1.815-1.175-.211-.133-.266-.226-.107-.473.635-.983,1.235-1.988,1.848-2.985.459-.748.913-1.5,1.374-2.244a.3.3,0,0,1,.213-.182.3.3,0,0,1,.271.07c.382.259.771.508,1.162.754.218.137.239.272.091.5-.543.828-1.062,1.672-1.593,2.506q-.4.626-.8,1.247a.371.371,0,0,0-.076.318.37.37,0,0,0,.205.255c.187.133.323.12.444-.081q.84-1.366,1.689-2.726a2.115,2.115,0,0,1,.895-.935.86.86,0,0,1,.778-.006,16.9,16.9,0,0,1,2.294,1.42.993.993,0,0,1,.471.924Zm-1.929-.054a.455.455,0,0,0-.354-.481.366.366,0,0,0-.281,0,.366.366,0,0,0-.2.2c-.577.922-1.15,1.847-1.736,2.764-.162.25-.031.377.162.485s.4.284.6-.027c.558-.895,1.124-1.786,1.684-2.679a.779.779,0,0,0,.121-.259Z" transform="translate(1169.779 848.119)" fill="#282829"/>
          <path id="Path_9396" data-name="Path 9396" d="M-1684.754-667.254a3.235,3.235,0,0,1-.98-.26c-.625-.307-1.246-.626-1.851-.97a.9.9,0,0,1-.5-.895.523.523,0,0,0-.323-.539c-.514-.279-1.018-.576-1.532-.855-.25-.136-.293-.268-.145-.537.7-1.271,1.382-2.554,2.07-3.834.309-.575.622-1.148.925-1.727a.324.324,0,0,1,.186-.185.324.324,0,0,1,.261.013.889.889,0,0,1,.6.456.889.889,0,0,1,.034.756c-.131.369-.323.716-.473,1.081-.137.341-.075.424.348.617a.37.37,0,0,0,.334.044.37.37,0,0,0,.231-.245c.308-.614.652-1.208.97-1.816a.332.332,0,0,1,.216-.222.332.332,0,0,1,.306.053q.43.234.863.462c.18.094.253.213.134.4s-.02.31.157.4c.632.323,1.259.652,1.9.96.252.122.306.27.182.509-.192.37-.388.738-.566,1.116-.1.217-.2.242-.412.126-.647-.358-1.315-.69-1.976-1.029-.106-.054-.246-.162-.332-.022-.1.156.067.242.176.311.309.184.632.344.941.527a1.363,1.363,0,0,1,.815.925,1.363,1.363,0,0,1-.265,1.2c-.495.871-.965,1.756-1.428,2.645a.953.953,0,0,1-.867.525Zm-1.157-3.14a1.011,1.011,0,0,0,.025.133,2.092,2.092,0,0,0,.945.577.278.278,0,0,0,.117-.058c.485-.385.428-.875-.123-1.123-.132-.059-.259-.13-.388-.2-.087-.045-.187-.072-.243.016a1.938,1.938,0,0,0-.332.652Zm-1.75-1.947c-.222.036-.3.209-.378.365s.044.25.173.308c.153.069.31.131.468.185a.268.268,0,0,0,.334-.155c.063-.1.17-.219.061-.333a2.648,2.648,0,0,0-.659-.37Z" transform="translate(1690.169 691.442)" fill="#282829"/>
          <path id="Path_9397" data-name="Path 9397" d="M-1575.062-803.062a1.089,1.089,0,0,1-.47.989c-.328.217-.634.468-.949.7a1.632,1.632,0,0,1-.937.424.3.3,0,0,0-.3.266.762.762,0,0,1-.307.47,19.3,19.3,0,0,1-2.177,1.648.8.8,0,0,1-.628.169.8.8,0,0,1-.547-.352c-.544-.616-1.073-1.246-1.582-1.891a.94.94,0,0,1-.054-1.113.466.466,0,0,0-.065-.607c-.386-.47-.756-.953-1.137-1.426-.243-.3-.238-.4.054-.634q2.162-1.676,4.322-3.355c.21-.162.352-.18.536.036.594.7.577,1-.123,1.621-.051.044-.1.091-.154.133-.437.338-.437.342-.1.756.28.341.356.343.717.07a8.283,8.283,0,0,1,.883-.618,1.043,1.043,0,0,1,1.389.267q.71.881,1.386,1.789a1.089,1.089,0,0,1,.242.654Zm-5.682,1.419c.024.34.319.5.492.743.146.2.334.19.53.048.464-.337.473-.4.1-.832-.073-.086-.139-.177-.209-.265-.116-.148-.251-.3-.451-.191s-.431.217-.463.5Zm3.409-1.281a2.226,2.226,0,0,0-.689-.851.324.324,0,0,0-.323.135.218.218,0,0,0,.014.306q.243.3.476.61c.074.1.162.167.286.094a.421.421,0,0,0,.237-.293Zm-4.112-.279a.486.486,0,0,0,.369-.237c.088-.156-.052-.242-.139-.339-.1-.117-.2-.243-.3-.361a.237.237,0,0,0-.15-.1.237.237,0,0,0-.179.033c-.117.081-.281.12-.3.289s.51.719.7.718Z" transform="translate(1591.554 813.411)" fill="#282829"/>
          <path id="Path_9398" data-name="Path 9398" d="M-1231.078-883.957c-.223-.07-.316.048-.392.242a5.108,5.108,0,0,0-.268,1.288c-.112,1.032-.439,2.025-.527,3.062-.049.573-.148.618-.719.533-.434-.065-.849-.222-1.293-.248-.291-.017-.348-.218-.323-.485.063-.664.314-1.293.368-1.958.066-.8.307-1.568.428-2.359.057-.369-.046-.528-.4-.593-.757-.137-.768-.121-.9.647-.243,1.385-.5,2.768-.747,4.152-.039.218-.142.307-.375.265-.532-.1-1.066-.18-1.6-.259-.207-.031-.31-.129-.269-.34a19.23,19.23,0,0,1,.369-2.094,5.514,5.514,0,0,0,.171-.964c.128-1.051.448-2.07.542-3.126.028-.314.206-.366.469-.312,1.536.318,3.072.576,4.618.837.474.081.948.189,1.424.276.237.043.329.167.261.4-.049.173-.076.352-.12.527a.654.654,0,0,1-.711.5Z" transform="translate(1268.717 886.715)" fill="#282829"/>
          <path id="Path_9399" data-name="Path 9399" d="M-1504.541-356.582a2.266,2.266,0,0,1-.7-.118c-.577-.156-.707-.6-.268-1.018.416-.4.852-.773,1.3-1.127a35.979,35.979,0,0,0,2.91-2.182,13.734,13.734,0,0,1,2-1.76,3.541,3.541,0,0,1,1.192-.457c.485-.106,1.469.879,1.406,1.374a.4.4,0,0,1-.1.242c-.647.555-1.1,1.277-1.71,1.865a13.017,13.017,0,0,1-3.233,2.361,5.985,5.985,0,0,1-1.914.642A3.99,3.99,0,0,1-1504.541-356.582Z" transform="translate(1518.253 398.873)" fill="#282829"/>
          <path id="Path_9400" data-name="Path 9400" d="M-1395.691-298.363a1.986,1.986,0,0,1,.258-1.078,7.825,7.825,0,0,0,.433-1.235,33.516,33.516,0,0,1,1.325-3.386,3.6,3.6,0,0,1,.883-1.336.926.926,0,0,1,.623-.343.926.926,0,0,1,.682.2,3.066,3.066,0,0,1,.728.647.215.215,0,0,1,.027.277,6.6,6.6,0,0,0-.665,2.138,2.55,2.55,0,0,1-.53,1.152,6.945,6.945,0,0,0-.662,1.012c-.595,1.1-1.208,2.182-1.888,3.233-.131.2-.248.277-.493.162C-1395.586-297.208-1395.691-297.383-1395.691-298.363Z" transform="translate(1415.63 345.258)" fill="#282829"/>
          <path id="Path_9401" data-name="Path 9401" d="M-1121.818-552.509a3.689,3.689,0,0,1,.4,0,.516.516,0,0,1,.378.171.516.516,0,0,1,.13.395,1.246,1.246,0,0,1-.34.859,9.8,9.8,0,0,1-2.4,1.785c-.639.327-1.242.728-1.866,1.087-.4.23-.828.4-1.24.609-.8.4-1.778-.494-1.987-1.086-.074-.209.039-.362.175-.512a4.13,4.13,0,0,1,1.04-.686c.977-.579,1.924-1.212,2.954-1.7.681-.319,1.387-.588,2.085-.87A1.7,1.7,0,0,1-1121.818-552.509Z" transform="translate(1166.775 575.321)" fill="#282829"/>
          <path id="Path_9402" data-name="Path 9402" d="M-1285.6-281.858c0-.589.008-1.018,0-1.445a3.8,3.8,0,0,1,.461-1.713,1.255,1.255,0,0,1,.77-.622c.427-.145.652.01.788.485a19.789,19.789,0,0,1,.536,3.532c.1.99.032,1.98.072,2.97a.772.772,0,0,1-.056.3,1.968,1.968,0,0,1-1.563.889.734.734,0,0,1-.592-.66,20.036,20.036,0,0,1-.416-3.733Z" transform="translate(1312.996 326.559)" fill="#282829"/>
          <path id="Path_9403" data-name="Path 9403" d="M-1513.712-445.761a.657.657,0,0,1-.542.712,5.507,5.507,0,0,0-1.138.5c-.82.4-1.662.747-2.5,1.1a18.187,18.187,0,0,1-3.41,1.167.366.366,0,0,1-.4-.113,2.316,2.316,0,0,0-.586-.6c-.162-.1-.051-.232.044-.338a5.24,5.24,0,0,1,1.237-.933c.867-.523,1.786-.945,2.694-1.389.749-.365,1.5-.727,2.269-1.033a3.373,3.373,0,0,1,1.39-.217C-1513.939-446.869-1513.729-446.325-1513.712-445.761Z" transform="translate(1533.725 476.858)" fill="#282829"/>
          <path id="Path_9404" data-name="Path 9404" d="M-1178.522-646.455a1.749,1.749,0,0,1-.786-.1.571.571,0,0,1-.319-.313.571.571,0,0,1,0-.446c.162-.441.357-.874.559-1.3.382-.8.764-1.6,1.175-2.387a6.378,6.378,0,0,1,.828-1.425,3.005,3.005,0,0,1,1.824-1c.282-.039.445.1.426.383a5.187,5.187,0,0,1-.2,1.221,28.773,28.773,0,0,1-1.444,3.038c-.243.544-.535,1.063-.775,1.605A1.076,1.076,0,0,1-1178.522-646.455Z" transform="translate(1214.234 669.403)" fill="#282829"/>
          <path id="Path_9405" data-name="Path 9405" d="M-1470.166-535.354a10,10,0,0,1,3.191.507,3.2,3.2,0,0,1,1.435.79,1.59,1.59,0,0,1,.5,1.145c.009.419-.073.536-.47.661a1.315,1.315,0,0,1-.7-.009,22.6,22.6,0,0,1-2.731-.752,8.884,8.884,0,0,1-3.056-1.6c-.137-.124-.286-.242-.25-.448.041-.233.25-.272.437-.31A5.88,5.88,0,0,1-1470.166-535.354Z" transform="translate(1487.012 559.389)" fill="#282829"/>
          <path id="Path_9406" data-name="Path 9406" d="M-1260.642-654.088a13.687,13.687,0,0,1,.071-1.887,1.328,1.328,0,0,1,.554-1.035.505.505,0,0,1,.625,0,2.275,2.275,0,0,1,1.021,1.638c.133,1.254.187,2.515.229,3.776.014.416-.15.575-.566.574a2.127,2.127,0,0,1-1.213-.214,1.2,1.2,0,0,1-.584-.859,11.813,11.813,0,0,1-.136-1.988Z" transform="translate(1289.722 672.844)" fill="#282829"/>
          <path id="Path_9407" data-name="Path 9407" d="M-1386.674-615.029c.011.516-.006.538-.525.517a2.051,2.051,0,0,1-1.55-.719c-.524-.636-1.169-1.158-1.659-1.821a5.592,5.592,0,0,1-1.07-1.859,2.208,2.208,0,0,1-.062-.536c-.009-.635.425-.822.938-.5a9.3,9.3,0,0,1,3.363,3.309A3.034,3.034,0,0,1-1386.674-615.029Z" transform="translate(1411.755 638.329)" fill="#282829"/>
          <path id="Path_9408" data-name="Path 9408" d="M-1203.355-288.053c.017.559-.228.756-.639.591a7.242,7.242,0,0,1-.963-.485,2.348,2.348,0,0,1-.964-1.1c-.5-1.132-1.106-2.212-1.53-3.377a.978.978,0,0,1,.184-1.117,1,1,0,0,1,1.125.306,14.809,14.809,0,0,1,1.832,2.334,4.569,4.569,0,0,1,.7,1.81C-1203.557-288.7-1203.307-288.355-1203.355-288.053Z" transform="translate(1240.211 333.947)" fill="#282829"/>
          <path id="Path_9409" data-name="Path 9409" d="M-1147.55-349.28a1.192,1.192,0,0,1,.492-.815,1.191,1.191,0,0,1,.932-.195c1.051.4,2.144.681,3.2,1.056a3.258,3.258,0,0,1,2.111,1.808c.052.125.128.255.017.379a.306.306,0,0,1-.4.046,3.5,3.5,0,0,0-1.807-.336,7.824,7.824,0,0,1-2.91-.668c-.348-.156-.735-.2-1.078-.39A1.171,1.171,0,0,1-1147.55-349.28Z" transform="translate(1184.286 386.827)" fill="#282829"/>
          <path id="Path_9410" data-name="Path 9410" d="M-1110.695-430.79a33.238,33.238,0,0,1-4.526-.323c-.291-.045-.53-.116-.574-.456a.765.765,0,0,1,.416-.874.777.777,0,0,1,.261-.069,22.236,22.236,0,0,1,3.628-.307,3.861,3.861,0,0,1,2.771,1.43.415.415,0,0,1,.1.466c-.081.158-.248.131-.392.132C-1109.5-430.79-1109.983-430.79-1110.695-430.79Z" transform="translate(1154.695 463.757)" fill="#282829"/>
          <path id="Path_9411" data-name="Path 9411" d="M-1112.256-64.979c.069.91-.514,1.432-1.323,1.788a1.784,1.784,0,0,1-.6.212.527.527,0,0,1-.552-.243.578.578,0,0,1,.028-.669,1.092,1.092,0,0,1,.955-.4.411.411,0,0,1,.37.3c.081.213.219.209.356.049a1.7,1.7,0,0,0,.3-1.773c-.081-.218-.226-.453-.521-.38s-.328.336-.314.6a1.754,1.754,0,0,0,.167.476c.04.112.123.254-.039.323s-.243-.061-.3-.191a6.445,6.445,0,0,0-.276-.616c-.081-.144-.143-.362-.392-.285a.419.419,0,0,0-.309.46,1.876,1.876,0,0,1-.79,1.6,3.355,3.355,0,0,1-1.935.706,1.2,1.2,0,0,1-.728-.226.667.667,0,0,1-.316-.6.668.668,0,0,1,.372-.567c.819-.422,1.658-.808,2.489-1.206.514-.247.546-.409.157-.816a1.194,1.194,0,0,0-.728-.4c-.11-.014-.233-.058-.308.061-.064.1.015.19.062.28a.793.793,0,0,1,.023.746.793.793,0,0,1-.607.434.935.935,0,0,1-.889-.587.833.833,0,0,1,.445-.934,1.729,1.729,0,0,1,1.409-.327,1.729,1.729,0,0,1,1.165.858c.081.127.162.275.344.162.157-.1.112-.243.041-.389-.174-.353-.346-.707-.508-1.065-.057-.124-.179-.287.014-.382s.247.1.31.221c.237.472.474.944.694,1.423.089.195.2.265.346.1.485-.566,1.132-.12,1.336.521a2.246,2.246,0,0,1,.059.733Zm-5.033,1.626a3.353,3.353,0,0,0,1.66-.733,1.343,1.343,0,0,0,.506-.817c.027-.142.1-.3-.03-.413s-.282-.007-.4.051q-1.1.51-2.191,1.037c-.169.081-.379.175-.351.4.031.249.238.372.462.441a1.842,1.842,0,0,0,.345.032Zm.172-3.188a.453.453,0,0,0-.444.418.534.534,0,0,0,.459.461.41.41,0,0,0,.386-.432.4.4,0,0,0-.1-.311.4.4,0,0,0-.3-.135Zm2.981,3.189c.187-.051.4-.105.429-.368.011-.142-.1-.216-.243-.217-.229,0-.485.213-.468.39.019.154.116.2.278.2Z" transform="translate(1157.186 123.614)" fill="#282829"/>
          <path id="Path_9412" data-name="Path 9412" d="M-1648.52-261.521a2.2,2.2,0,0,1-2.077-1.552,2.221,2.221,0,0,1-.283-1.2,1.013,1.013,0,0,1,.174-.5.677.677,0,0,1,.65-.395.677.677,0,0,1,.606.458q.7,1.212,1.4,2.425c.187.323.284.323.574.1a1.445,1.445,0,0,0,.5-.97.236.236,0,0,0-.094-.27c-.1-.055-.166.016-.242.069a.774.774,0,0,1-1.079-.13.783.783,0,0,1,.1-1.068.675.675,0,0,1,.527-.249.675.675,0,0,1,.524.254,1.741,1.741,0,0,1,.612,1.345,1.741,1.741,0,0,1-.642,1.331c-.043.037-.089.069-.133.1-.119.094-.243.195-.138.364s.247.091.381.015q.544-.308,1.092-.609c.117-.065.263-.162.356,0,.106.181-.058.248-.19.323-.47.266-.934.542-1.4.808-.194.108-.19.217-.054.372a.762.762,0,0,1,.224.768.762.762,0,0,1-.586.545,1.953,1.953,0,0,1-2.565-.821c-.142-.3-.393-.553-.381-.92a.511.511,0,0,1,.365-.546.566.566,0,0,1,.663.206,1.536,1.536,0,0,1,.335.727.515.515,0,0,1-.254.485c-.191.131-.147.242.007.371a1.705,1.705,0,0,0,1.876.038.4.4,0,0,0,.172-.5.448.448,0,0,0-.533-.259,1.265,1.265,0,0,0-.54.268c-.11.085-.23.12-.323-.019s.01-.218.108-.279c.2-.124.415-.228.614-.354.166-.1.386-.188.3-.457-.081-.254-.276-.3-.511-.28C-1648.431-261.518-1648.48-261.522-1648.52-261.521Zm-2.021-2.527a1.566,1.566,0,0,0,.28.857c.323.647.706,1.25,1.543,1.3.114.007.234.023.31-.081s0-.215-.051-.311c-.428-.741-.854-1.483-1.288-2.222-.2-.339-.391-.347-.655-.05a.7.7,0,0,0-.139.5Zm2.811.492a.439.439,0,0,0,.421-.4.511.511,0,0,0-.458-.453.458.458,0,0,0-.424.443c-.023.239.171.419.454.414Zm-2.394,2.436c-.135.012-.189.106-.187.249,0,.215.243.535.4.519a.222.222,0,0,0,.161-.08.223.223,0,0,0,.049-.173c0-.235-.23-.521-.424-.515Z" transform="translate(1653.552 307.43)" fill="#282829"/>
          <path id="Path_9413" data-name="Path 9413" d="M-1425.214-75.483a.884.884,0,0,1-.82-.381.485.485,0,0,0-.541-.225,1.245,1.245,0,0,1-1.062-.441,1.246,1.246,0,0,1-.249-1.122.885.885,0,0,1,.771-.656.485.485,0,0,0,.551-.382.752.752,0,0,1,.066-.118c.3-.577.365-.595.959-.266.04.022.077.048.117.067.574.279.566.277.755-.33a.934.934,0,0,1,.828-.7,1.27,1.27,0,0,1,1.172.45,1.27,1.27,0,0,1,.213,1.237c-.457,1.09-.908,2.182-1.361,3.274-.049.116-.1.255-.263.188s-.109-.209-.062-.323c.323-.79.647-1.581.993-2.363a5.906,5.906,0,0,0,.378-1.051.674.674,0,0,0-.282-.8c-.557-.334-.761-.341-1.067-.063a.626.626,0,0,0-.224.525.626.626,0,0,0,.295.488c.109.081.31.128.2.323-.1.168-.252.086-.39.027-.081-.036-.172-.054-.255-.09-.4-.171-.665.01-.665.445,0,.188.147.232.272.306a1.057,1.057,0,0,1,.619,1.221.932.932,0,0,1-.947.76Zm-1.511-.97a.958.958,0,0,0,.851-.611.336.336,0,0,0,.025-.31.335.335,0,0,0-.24-.2c-.242-.089-.485-.172-.723-.277a.5.5,0,0,0-.461-.005.5.5,0,0,0-.272.373.9.9,0,0,0,.191.687.9.9,0,0,0,.63.334Zm2.127.015c0-.334-.337-.757-.608-.74-.434.027-.33.542-.609.727a.206.206,0,0,0-.03.277.738.738,0,0,0,.761.309.608.608,0,0,0,.484-.58Zm-.767-1.9c.007-.193-.3-.464-.511-.481-.192-.015-.432.28-.45.555-.013.194.314.452.595.431.315-.03.283-.33.364-.511Z" transform="translate(1445.684 134.836)" fill="#282829"/>
          <path id="Path_9414" data-name="Path 9414" d="M-1038.752-124.613a.673.673,0,0,1-.308.639.673.673,0,0,1-.709.008,2.586,2.586,0,0,1-1.09-1.25,1.591,1.591,0,0,1,.6-1.984,2.143,2.143,0,0,1,.682-.365.5.5,0,0,0,.319-.237c.366-.616,1.031-.9,1.525-1.368a.162.162,0,0,1,.121-.055.161.161,0,0,1,.121.055.173.173,0,0,1,.065.135.173.173,0,0,1-.065.135c-.376.269-.174.51.02.757l1.106,1.409c.042.053.081.108.12.162.081.122.2.264.032.383s-.251-.056-.337-.167c-.447-.58-.9-1.157-1.339-1.742a.318.318,0,0,0-.239-.171.318.318,0,0,0-.277.1c-.018.014-.034.03-.052.044-.5.369-.5.426.027.723a2.741,2.741,0,0,1,1.173,1.435.693.693,0,0,1-.234.761.762.762,0,0,1-.92.023,2.48,2.48,0,0,1-1.071-1.575c-.042-.31-.162-.376-.424-.23a1.259,1.259,0,0,0-.681,1.2.317.317,0,0,0,.128.3c.122.069.176-.059.242-.122a.531.531,0,0,1,.566-.112,1.132,1.132,0,0,1,.9,1.119Zm1.121-1.238a1.56,1.56,0,0,0-.141-.354,2.5,2.5,0,0,0-.874-.913c-.125-.066-.243-.127-.377-.044a.3.3,0,0,0-.1.363,2.276,2.276,0,0,0,.908,1.293c.257.2.58.01.58-.346Zm-2.471.866a.753.753,0,0,0,.652.741.357.357,0,0,0,.271-.12.357.357,0,0,0,.087-.284.777.777,0,0,0-.689-.717C-1040.029-125.362-1040.11-125.209-1040.1-124.985Z" transform="translate(1084.965 180.689)" fill="#282829"/>
          <path id="Path_9415" data-name="Path 9415" d="M-1591.521-200.26a2.642,2.642,0,0,1,2.515-2.6,2.013,2.013,0,0,1,1.95,1.051,1.319,1.319,0,0,1-.028,1.387.94.94,0,0,1-1.074.382.942.942,0,0,1-.771-.833,1.029,1.029,0,0,1,.534-1.013c.134-.074.395-.053.353-.286s-.283-.184-.452-.217a2.2,2.2,0,0,0-1.945.524,2.2,2.2,0,0,0-.7,1.888,1.445,1.445,0,0,0,.059.263c.028.086.074.173.18.178s.158-.081.183-.169a.837.837,0,0,1,.343-.448.918.918,0,0,1,1.238.063.963.963,0,0,1,.264,1.163,1.051,1.051,0,0,1-1.132.614A1.837,1.837,0,0,1-1591.521-200.26Zm4.265-.824c-.006-.388-.2-.617-.523-.611a.781.781,0,0,0-.784.694.607.607,0,0,0,.2.453.607.607,0,0,0,.467.158.606.606,0,0,0,.492-.191.605.605,0,0,0,.156-.5Zm-2.612,2.378c.451,0,.7-.227.689-.641a.619.619,0,0,0-.175-.442.619.619,0,0,0-.437-.187.87.87,0,0,0-.727.765c-.009.322.225.5.654.505Z" transform="translate(1598.198 249.344)" fill="#282829"/>
          <path id="Path_9416" data-name="Path 9416" d="M-937.692-202.719c-.067-.369.2-.628.381-.921a7.385,7.385,0,0,0,.479-.733,1.325,1.325,0,0,0-.566-1.693.566.566,0,0,0-.484-.006.566.566,0,0,0-.312.369c-.026.152.076.218.18.293a1.225,1.225,0,0,1,.589.938,1.2,1.2,0,0,1-.624,1.187,1.142,1.142,0,0,1-1.334-.1.675.675,0,0,1-.288-.8.387.387,0,0,0,.035-.309.386.386,0,0,0-.2-.235c-.066-.04-.119-.106-.185-.147-.571-.355-.515-.365-.143-.9.256-.37.528-.727.8-1.092a1.424,1.424,0,0,1,.2-.224.147.147,0,0,1,.107-.046.147.147,0,0,1,.107.046.148.148,0,0,1,.024.186.937.937,0,0,1-.1.174c-.162.2-.238.382.007.58.367.3.437.318.694,0,.566-.688,1.2-.348,1.672.272a1.605,1.605,0,0,1-.12,2.115,4.359,4.359,0,0,0-.455.628.707.707,0,0,0,.049.879c.089.1.15.225.033.328s-.222-.015-.316-.091a.762.762,0,0,1-.224-.7Zm-.928-.8a.831.831,0,0,0,.829-.615.936.936,0,0,0-.54-1.057c-.364-.162-.369.262-.542.411a1.16,1.16,0,0,0-.263.348c-.1.19-.283.365-.125.618a.691.691,0,0,0,.64.3Zm-.808-2.413c-.187-.01-.491.318-.491.528,0,.162.341.485.536.506.154.018.461-.33.476-.541.01-.182-.306-.482-.523-.493Z" transform="translate(991.203 253.326)" fill="#282829"/>
          <path id="Path_9417" data-name="Path 9417" d="M-980.685-160.187a1.293,1.293,0,0,1,.422-.913c.195-.218.414-.415.614-.63a1.364,1.364,0,0,0-.027-1.763.572.572,0,0,0-.413-.239.572.572,0,0,0-.451.158.706.706,0,0,0-.081.947c.154.179.331.338.5.506.119.12.221.265.061.4s-.236-.048-.323-.133c-.529-.522-1.059-1.044-1.575-1.578-.2-.2-.347-.2-.532,0-.5.557-.608.4-.011,1l1.385,1.385c.088.087.213.172.087.306s-.253.07-.356-.033c-.635-.638-1.267-1.28-1.9-1.919a.266.266,0,0,1-.118-.215.266.266,0,0,1,.108-.22c.592-.588,1.18-1.18,1.771-1.77.081-.081.18-.171.29-.064s.049.229-.044.323c-.126.129-.252.259-.385.381a.359.359,0,0,0-.154.29.359.359,0,0,0,.147.294l.071.073c.393.4.393.4.675-.053a.893.893,0,0,1,.729-.485.893.893,0,0,1,.793.371,1.608,1.608,0,0,1,.473,1.176,1.608,1.608,0,0,1-.527,1.153,5.822,5.822,0,0,0-.708.772.675.675,0,0,0-.021.844c.073.1.127.2,0,.293s-.2.01-.29-.081a.738.738,0,0,1-.209-.59Z" transform="translate(1031.255 214.033)" fill="#282829"/>
          <path id="Path_9418" data-name="Path 9418" d="M-1483.087-92.96a.5.5,0,0,0,.607-.313c.365-.691.365-.685,1.051-.277.4.242.825.462,1.238.694a1.362,1.362,0,0,1,.2.132c.094.081.162.173.071.29s-.189.1-.3.019a2.155,2.155,0,0,0-.223-.151c-.382-.22-.639-.119-.761.3-.071.242.116.339.272.448a.994.994,0,0,1,.5.751.994.994,0,0,1-.313.843,1.051,1.051,0,0,1-.854.251,1.051,1.051,0,0,1-.74-.494.39.39,0,0,0-.41-.253,1.279,1.279,0,0,1-1.183-.767,1.105,1.105,0,0,1,.168-1.206A.74.74,0,0,1-1483.087-92.96Zm.279,1.817a.84.84,0,0,0,.781-.435c.153-.255.116-.435-.162-.566a4.634,4.634,0,0,1-.613-.348.516.516,0,0,0-.513-.076.516.516,0,0,0-.32.408.832.832,0,0,0,.167.711.832.832,0,0,0,.663.305Zm1.293.808a.641.641,0,0,0,.672-.377.614.614,0,0,0-.225-.747c-.366-.292-.4-.289-.659.1a1.766,1.766,0,0,1-.257.31.3.3,0,0,0-.119.231.3.3,0,0,0,.111.235.6.6,0,0,0,.481.244Zm.209-2.58c-.006-.143-.409-.457-.579-.45-.136,0-.449.417-.444.584,0,.152.432.454.622.441.13-.011.413-.415.4-.576Z" transform="translate(1497.995 147.688)" fill="#282829"/>
          <path id="Path_9419" data-name="Path 9419" d="M-911.388-256.615a2.628,2.628,0,0,1,1.885,1.091.957.957,0,0,1,0,1c-.319.594-.624,1.2-.923,1.8-.118.242-.224.262-.469.127-.709-.39-1.44-.739-2.163-1.1a1.787,1.787,0,0,1-.183-.085c-.108-.071-.212-.162-.141-.3s.205-.085.323-.027q.946.485,1.895.97c.167.081.37.23.525.046a1.132,1.132,0,0,0,.314-.761c0-.107-.11-.162-.2-.212-.458-.238-.914-.48-1.374-.714-.547-.277-.7-.529-.6-1.023a1.114,1.114,0,0,1,1.016-.8C-911.456-256.617-911.422-256.615-911.388-256.615Zm.027.349a.877.877,0,0,0-.651.264.476.476,0,0,0-.171.406.476.476,0,0,0,.236.373c.53.293,1.073.566,1.612.84a.275.275,0,0,0,.344-.023.8.8,0,0,0,.152-.93A2.285,2.285,0,0,0-911.362-256.266Z" transform="translate(965.993 299.453)" fill="#282829"/>
          <path id="Path_9420" data-name="Path 9420" d="M-1342.786-39.7a3.476,3.476,0,0,1-1.145-.179,1.354,1.354,0,0,0-.914-.1c-.4.112-.864-.432-.779-.895.129-.7.157-1.411.268-2.112.02-.127.045-.267.214-.242.147.021.148.154.13.268-.1.657-.072,1.329-.218,1.983a.53.53,0,0,0,.032.411.53.53,0,0,0,.318.264.662.662,0,0,0,.678-.4,2.89,2.89,0,0,0,.135-.8,9.914,9.914,0,0,1,.156-1.343c.032-.142.076-.323.27-.275.173.042.132.218.108.347-.131.7-.179,1.409-.276,2.112-.048.347.1.485.426.547.956.175.937.18,1.117-.76.1-.545.167-1.091.225-1.641.014-.13.01-.317.189-.306.208.014.154.208.155.349,0,.862-.243,1.7-.3,2.55a.254.254,0,0,1-.086.2.255.255,0,0,1-.206.061C-1342.438-39.66-1342.584-39.679-1342.786-39.7Z" transform="translate(1368.958 100.513)" fill="#282829"/>
          <path id="Path_9421" data-name="Path 9421" d="M-1003.544-858.893a2.612,2.612,0,0,1,1.388.8c.261.293.148.592-.015.9a.792.792,0,0,1-.8.5,2.4,2.4,0,0,1-1.4-.739.543.543,0,0,1-.065-.766,3.324,3.324,0,0,0,.175-.323.736.736,0,0,1,.725-.376Z" transform="translate(1050.989 860.957)" fill="#282829"/>
          <path id="Path_9422" data-name="Path 9422" d="M-1559.738-148.135h-.556c-.12,0-.235-.032-.236-.181s.105-.189.229-.192c.237,0,.474-.008.71,0a.69.69,0,0,0,.545-.219q.736-.747,1.483-1.482a.323.323,0,0,0,.147-.271.323.323,0,0,0-.147-.271c-.522-.5-.518-.5-1.042.019-.422.423-.841.849-1.267,1.267-.105.1-.228.293-.391.141s.024-.28.127-.386c.587-.593,1.187-1.174,1.764-1.778.2-.211.353-.229.557-.018.447.462.909.909,1.359,1.366.1.1.248.224.109.373-.162.17-.253-.018-.351-.112-.329-.316-.369-.315-.7.018-.414.415-.845.815-1.237,1.249a1.092,1.092,0,0,1-1.1.477Z" transform="translate(1569.306 201.599)" fill="#282829"/>
          <path id="Path_9423" data-name="Path 9423" d="M-1520.056-119.8c-.094-.268-.365-.4-.609-.548-.2-.117-.3.057-.4.2-.436.588-.876,1.174-1.316,1.761-.081.11-.175.248-.323.129s-.057-.242.029-.358c.536-.711,1.073-1.421,1.605-2.135.118-.162.232-.19.4-.066.547.415,1.1.824,1.648,1.24.105.081.255.179.136.323s-.261.035-.377-.06c-.344-.282-.39-.275-.657.086q-.634.855-1.272,1.709c-.081.113-.184.237-.331.129s-.041-.234.029-.331c.42-.572.847-1.139,1.274-1.706a.7.7,0,0,0,.172-.369Z" transform="translate(1534.116 172.918)" fill="#282829"/>
          <path id="Path_9424" data-name="Path 9424" d="M-987.213-169.227c.023-.235.136-.362.369-.349a.323.323,0,0,1,.26.1.323.323,0,0,1,.088.264.361.361,0,0,1-.1.278.361.361,0,0,1-.273.112C-987.128-168.827-987.183-169.03-987.213-169.227Z" transform="translate(1034.804 218.307)" fill="#282829"/>
          <path id="Path_9425" data-name="Path 9425" d="M-924.606-254.536a.339.339,0,0,1-.363-.4.323.323,0,0,1,.108-.255.323.323,0,0,1,.266-.078.33.33,0,0,1,.254.113.33.33,0,0,1,.077.267.318.318,0,0,1-.089.256.318.318,0,0,1-.254.094Z" transform="translate(976.774 298.195)" fill="#282829"/>
          <path id="Path_9426" data-name="Path 9426" d="M-1435.844-108.717c-.231-.026-.384-.126-.393-.352a.354.354,0,0,1,.085-.266.354.354,0,0,1,.252-.122.363.363,0,0,1,.279.1.363.363,0,0,1,.116.271C-1435.5-108.858-1435.666-108.769-1435.844-108.717Z" transform="translate(1453.43 162.258)" fill="#282829"/>
        </g>
      </g>
    </g>
  </g>
</svg>
