<svg id="Group_6735" data-name="Group 6735" xmlns="http://www.w3.org/2000/svg" width="48" height="48.3" viewBox="0 0 48 48.3">
  <g id="Group_6725" data-name="Group 6725" transform="translate(6 2.4)">
    <g id="Group_5682" data-name="Group 5682" transform="translate(0 0)">
      <g id="Group_5681" data-name="Group 5681">
        <path id="Path_9440" data-name="Path 9440" d="M47.234,23.213c-4.256-3.343-8.448-6.683-12.688-10.026a5.5,5.5,0,0,1-2.36-5.536c.065-.578-.258-.773-.894-.578a5.382,5.382,0,0,0-3.368,2.64,4.328,4.328,0,0,1-4.39,2.567c-2.864-.131-4.639,1.417-6.166,3.608a21.386,21.386,0,0,0-3.109,7.729,44.414,44.414,0,0,0-1.14,8.752c-.131,2.257-.064,4.447-.131,6.692V45.31H41.082V40.8a4.288,4.288,0,0,0-1.177-3.292c-1.405-1.392-2.9-2.694-2.9-2.694a12.36,12.36,0,0,1-1.938-1.99l-5.182-6.7c.323.262.636.51.96.773A5.838,5.838,0,0,0,36.12,28.11a4.256,4.256,0,0,1,3.3.511,19.1,19.1,0,0,0,1.819,1.027,3.551,3.551,0,0,0,4.362-.862c.654-.785,1.309-1.571,1.963-2.344a2.238,2.238,0,0,0-.336-3.23Z" transform="translate(-12.988 -7)" fill="none" stroke="currentColor" stroke-linecap="round" stroke-linejoin="round" stroke-width="3"/>
      </g>
    </g>
    <line id="Line_78" data-name="Line 78" x2="28.8" transform="translate(0.014 44.4)" fill="none" stroke="currentColor" stroke-linecap="round" stroke-linejoin="round" stroke-width="3"/>
  </g>
  <path id="Rectangle_4942" data-name="Rectangle 4942" d="M0,0H48V48H0Z" fill="none" opacity="0"/>
</svg>
