<svg xmlns="http://www.w3.org/2000/svg" width="137.661" height="65.612" viewBox="0 0 137.661 65.612">
  <g id="Group_5424" data-name="Group 5424" transform="translate(-859.873 -154.388)">
    <circle id="Ellipse_809" data-name="Ellipse 809" cx="2" cy="2" r="2" transform="translate(976 182)" fill="#fff"/>
    <ellipse id="Ellipse_816" data-name="Ellipse 816" cx="3.5" cy="3" rx="3.5" ry="3" transform="translate(982 182)" fill="#fff"/>
    <ellipse id="Ellipse_815" data-name="Ellipse 815" cx="3.5" cy="3" rx="3.5" ry="3" transform="translate(982 194)" fill="#fff"/>
    <g id="Group_5132" data-name="Group 5132">
      <g id="Group_5094" data-name="Group 5094" transform="translate(859.873 194.683)" opacity="0.996" style="isolation: isolate">
        <path id="Union_14" data-name="Union 14" d="M8.711,23.875v-3.6q-.381-.113-.747-.259l-2.51,2.51L1.348,18.42l2.182-2.181a9,9,0,0,1-.794-1.72H0V8.711H2.735A8.986,8.986,0,0,1,3.3,7.4L1.349,5.454,5.455,1.348,7.514,3.407a8.963,8.963,0,0,1,1.2-.452V0h5.807V3.174a8.984,8.984,0,0,1,.985.446l2.272-2.272,4.106,4.107L19.5,7.837a8.974,8.974,0,0,1,.349.875h3.38v5.808h-3.38a8.986,8.986,0,0,1-.349.875l2.381,2.382-4.106,4.107L15.5,19.61a8.988,8.988,0,0,1-.984.446v3.819Z" transform="translate(0 0)" fill="#3cc3b4"/>
        <circle id="Ellipse_827" data-name="Ellipse 827" cx="5" cy="5" r="5" transform="translate(7.127 7.317)" fill="#fff"/>
      </g>
      <g id="Group_5122" data-name="Group 5122" transform="translate(5 -4)">
        <rect id="Rectangle_3596" data-name="Rectangle 3596" width="42" height="11" transform="translate(927 176)" fill="#3cc3b4"/>
        <rect id="Rectangle_3597" data-name="Rectangle 3597" width="42" height="11" transform="translate(927 189)" fill="#3cc3b4"/>
        <rect id="Rectangle_3598" data-name="Rectangle 3598" width="42" height="9" transform="translate(927 202)" fill="#3cc3b4"/>
        <rect id="Rectangle_3599" data-name="Rectangle 3599" width="42" height="10" transform="translate(927 214)" fill="#3cc3b4"/>
        <rect id="Rectangle_3596-2" data-name="Rectangle 3596" width="42" height="11" transform="translate(882 176)" fill="#3cc3b4"/>
        <rect id="Rectangle_3597-2" data-name="Rectangle 3597" width="42" height="11" transform="translate(882 189)" fill="#3cc3b4"/>
        <rect id="Rectangle_3598-2" data-name="Rectangle 3598" width="42" height="9" transform="translate(882 202)" fill="#3cc3b4"/>
        <rect id="Rectangle_3599-2" data-name="Rectangle 3599" width="42" height="10" transform="translate(882 214)" fill="#3cc3b4"/>
        <circle id="Ellipse_809-2" data-name="Ellipse 809" cx="1.5" cy="1.5" r="1.5" transform="translate(910 180)" fill="#fff"/>
        <circle id="Ellipse_978" data-name="Ellipse 978" cx="1.5" cy="1.5" r="1.5" transform="translate(953 180)" fill="#fff"/>
        <circle id="Ellipse_962" data-name="Ellipse 962" cx="1.5" cy="1.5" r="1.5" transform="translate(917 180)" fill="#fff"/>
        <circle id="Ellipse_977" data-name="Ellipse 977" cx="1.5" cy="1.5" r="1.5" transform="translate(960 180)" fill="#fff"/>
        <circle id="Ellipse_810" data-name="Ellipse 810" cx="1.5" cy="1.5" r="1.5" transform="translate(910 193)" fill="#fff"/>
        <circle id="Ellipse_979" data-name="Ellipse 979" cx="1.5" cy="1.5" r="1.5" transform="translate(953 193)" fill="#fff"/>
        <circle id="Ellipse_963" data-name="Ellipse 963" cx="1.5" cy="1.5" r="1.5" transform="translate(917 193)" fill="#fff"/>
        <circle id="Ellipse_976" data-name="Ellipse 976" cx="1.5" cy="1.5" r="1.5" transform="translate(960 193)" fill="#fff"/>
        <circle id="Ellipse_811" data-name="Ellipse 811" cx="1.5" cy="1.5" r="1.5" transform="translate(910 205)" fill="#fff"/>
        <circle id="Ellipse_980" data-name="Ellipse 980" cx="1.5" cy="1.5" r="1.5" transform="translate(953 205)" fill="#fff"/>
        <circle id="Ellipse_955" data-name="Ellipse 955" cx="1.5" cy="1.5" r="1.5" transform="translate(917 205)" fill="#fff"/>
        <circle id="Ellipse_975" data-name="Ellipse 975" cx="1.5" cy="1.5" r="1.5" transform="translate(960 205)" fill="#fff"/>
        <circle id="Ellipse_812" data-name="Ellipse 812" cx="1.5" cy="1.5" r="1.5" transform="translate(910 217)" fill="#fff"/>
        <circle id="Ellipse_981" data-name="Ellipse 981" cx="1.5" cy="1.5" r="1.5" transform="translate(953 217)" fill="#fff"/>
        <circle id="Ellipse_957" data-name="Ellipse 957" cx="1.5" cy="1.5" r="1.5" transform="translate(917 217)" fill="#3cc3b4"/>
        <circle id="Ellipse_958" data-name="Ellipse 958" cx="1.5" cy="1.5" r="1.5" transform="translate(917 217)" fill="#fff"/>
        <circle id="Ellipse_974" data-name="Ellipse 974" cx="1.5" cy="1.5" r="1.5" transform="translate(960 217)" fill="#fff"/>
      </g>
    </g>
    <g id="Group_2874" data-name="Group 2874" transform="translate(981.518 173.388)">
      <path id="Path_7820" data-name="Path 7820" d="M380.066,382.736v20.957a14.606,14.606,0,0,0,16.786,0V382.736" transform="translate(-381.147 -399.967)" fill="#3cc3b4"/>
      <ellipse id="Ellipse_701" data-name="Ellipse 701" cx="8.463" cy="1.673" rx="8.463" ry="1.673" transform="translate(-1.221 -19)" fill="#3cd9c8"/>
      <path id="Path_7821" data-name="Path 7821" d="M379.013,394.538a24.751,24.751,0,0,0,16.926,0" transform="translate(-380.094 -406.952)" fill="none" stroke="#fff" stroke-miterlimit="10" stroke-width="1"/>
      <path id="Path_7822" data-name="Path 7822" d="M380.066,404.986a24.75,24.75,0,0,0,16.926,0" transform="translate(-381.147 -413.136)" fill="none" stroke="#fff" stroke-miterlimit="10" stroke-width="1"/>
      <path id="Path_7823" data-name="Path 7823" d="M379.013,414.945a24.75,24.75,0,0,0,16.926,0" transform="translate(-380.094 -419.03)" fill="none" stroke="#fff" stroke-miterlimit="10" stroke-width="1"/>
      <path id="Path_7824" data-name="Path 7824" d="M379.013,425.45a24.751,24.751,0,0,0,16.926,0" transform="translate(-380.094 -425.247)" fill="none" stroke="#fff" stroke-miterlimit="10" stroke-width="1"/>
    </g>
  </g>
</svg>
